%TF.GenerationSoftware,KiCad,Pcbnew,7.0.1*%
%TF.CreationDate,2023-05-14T21:17:26+02:00*%
%TF.ProjectId,MTR_Tiny_MD,4d54525f-5469-46e7-995f-4d442e6b6963,rev?*%
%TF.SameCoordinates,Original*%
%TF.FileFunction,Copper,L5,Inr*%
%TF.FilePolarity,Positive*%
%FSLAX46Y46*%
G04 Gerber Fmt 4.6, Leading zero omitted, Abs format (unit mm)*
G04 Created by KiCad (PCBNEW 7.0.1) date 2023-05-14 21:17:26*
%MOMM*%
%LPD*%
G01*
G04 APERTURE LIST*
G04 Aperture macros list*
%AMRoundRect*
0 Rectangle with rounded corners*
0 $1 Rounding radius*
0 $2 $3 $4 $5 $6 $7 $8 $9 X,Y pos of 4 corners*
0 Add a 4 corners polygon primitive as box body*
4,1,4,$2,$3,$4,$5,$6,$7,$8,$9,$2,$3,0*
0 Add four circle primitives for the rounded corners*
1,1,$1+$1,$2,$3*
1,1,$1+$1,$4,$5*
1,1,$1+$1,$6,$7*
1,1,$1+$1,$8,$9*
0 Add four rect primitives between the rounded corners*
20,1,$1+$1,$2,$3,$4,$5,0*
20,1,$1+$1,$4,$5,$6,$7,0*
20,1,$1+$1,$6,$7,$8,$9,0*
20,1,$1+$1,$8,$9,$2,$3,0*%
%AMHorizOval*
0 Thick line with rounded ends*
0 $1 width*
0 $2 $3 position (X,Y) of the first rounded end (center of the circle)*
0 $4 $5 position (X,Y) of the second rounded end (center of the circle)*
0 Add line between two ends*
20,1,$1,$2,$3,$4,$5,0*
0 Add two circle primitives to create the rounded ends*
1,1,$1,$2,$3*
1,1,$1,$4,$5*%
%AMRotRect*
0 Rectangle, with rotation*
0 The origin of the aperture is its center*
0 $1 length*
0 $2 width*
0 $3 Rotation angle, in degrees counterclockwise*
0 Add horizontal line*
21,1,$1,$2,0,0,$3*%
G04 Aperture macros list end*
%TA.AperFunction,ComponentPad*%
%ADD10R,1.700000X1.700000*%
%TD*%
%TA.AperFunction,ComponentPad*%
%ADD11O,1.700000X1.700000*%
%TD*%
%TA.AperFunction,ComponentPad*%
%ADD12RoundRect,0.165000X1.210000X-1.210000X1.210000X1.210000X-1.210000X1.210000X-1.210000X-1.210000X0*%
%TD*%
%TA.AperFunction,ComponentPad*%
%ADD13C,0.800000*%
%TD*%
%TA.AperFunction,ComponentPad*%
%ADD14C,6.400000*%
%TD*%
%TA.AperFunction,ComponentPad*%
%ADD15C,3.200000*%
%TD*%
%TA.AperFunction,ComponentPad*%
%ADD16O,2.100000X1.000000*%
%TD*%
%TA.AperFunction,ComponentPad*%
%ADD17O,1.600000X1.000000*%
%TD*%
%TA.AperFunction,ComponentPad*%
%ADD18RotRect,1.700000X1.700000X315.000000*%
%TD*%
%TA.AperFunction,ComponentPad*%
%ADD19HorizOval,1.700000X0.000000X0.000000X0.000000X0.000000X0*%
%TD*%
%TA.AperFunction,ComponentPad*%
%ADD20RotRect,1.700000X1.700000X135.000000*%
%TD*%
%TA.AperFunction,ComponentPad*%
%ADD21HorizOval,1.700000X0.000000X0.000000X0.000000X0.000000X0*%
%TD*%
%TA.AperFunction,ViaPad*%
%ADD22C,0.400000*%
%TD*%
G04 APERTURE END LIST*
D10*
%TO.N,GND*%
%TO.C,J5*%
X110400000Y-111025000D03*
D11*
%TO.N,DOUT*%
X110400000Y-113565000D03*
%TD*%
D12*
%TO.N,OUTC*%
%TO.C,H12*%
X82620000Y-105310000D03*
%TD*%
D13*
%TO.N,GND*%
%TO.C,H1*%
X119850000Y-117250000D03*
X120552944Y-115552944D03*
X120552944Y-118947056D03*
X122250000Y-114850000D03*
D14*
X122250000Y-117250000D03*
D13*
X122250000Y-119650000D03*
X123947056Y-115552944D03*
X123947056Y-118947056D03*
X124650000Y-117250000D03*
%TD*%
%TO.N,GND*%
%TO.C,H3*%
X119850000Y-82750000D03*
X120552944Y-81052944D03*
X120552944Y-84447056D03*
X122250000Y-80350000D03*
D14*
X122250000Y-82750000D03*
D13*
X122250000Y-85150000D03*
X123947056Y-81052944D03*
X123947056Y-84447056D03*
X124650000Y-82750000D03*
%TD*%
%TO.N,GND*%
%TO.C,H8*%
X85350000Y-82750000D03*
X86052944Y-81052944D03*
X86052944Y-84447056D03*
X87750000Y-80350000D03*
D14*
X87750000Y-82750000D03*
D13*
X87750000Y-85150000D03*
X89447056Y-81052944D03*
X89447056Y-84447056D03*
X90150000Y-82750000D03*
%TD*%
%TO.N,GND*%
%TO.C,H9*%
X85350000Y-117250000D03*
X86052944Y-115552944D03*
X86052944Y-118947056D03*
X87750000Y-114850000D03*
D14*
X87750000Y-117250000D03*
D13*
X87750000Y-119650000D03*
X89447056Y-115552944D03*
X89447056Y-118947056D03*
X90150000Y-117250000D03*
%TD*%
D15*
%TO.N,GND*%
%TO.C,J6*%
X102890000Y-78450000D03*
%TO.N,/VM*%
X107890000Y-78450000D03*
%TD*%
D16*
%TO.N,GND*%
%TO.C,J1*%
X124280000Y-104370000D03*
D17*
X128460000Y-104370000D03*
D16*
X124280000Y-95730000D03*
D17*
X128460000Y-95730000D03*
%TD*%
D18*
%TO.N,SWD*%
%TO.C,J3*%
X96700000Y-113800000D03*
D19*
%TO.N,SWCLK*%
X94903949Y-115596051D03*
%TD*%
D10*
%TO.N,3V3_BUCK*%
%TO.C,J2*%
X111540000Y-118450000D03*
D11*
%TO.N,GND*%
X111540000Y-120990000D03*
%TO.N,V_USB*%
X109000000Y-118450000D03*
%TO.N,GPIO21*%
X109000000Y-120990000D03*
%TO.N,GPIO25*%
X106460000Y-118450000D03*
%TO.N,GPIO20*%
X106460000Y-120990000D03*
%TO.N,GPIO24*%
X103920000Y-118450000D03*
%TO.N,GPIO2*%
X103920000Y-120990000D03*
%TO.N,unconnected-(J2-Pad9)*%
X101380000Y-118450000D03*
%TO.N,GPIO3*%
X101380000Y-120990000D03*
%TO.N,GPIO22*%
X98840000Y-118450000D03*
%TO.N,GPIO9*%
X98840000Y-120990000D03*
%TD*%
D12*
%TO.N,OUTB*%
%TO.C,H11*%
X81740000Y-100030000D03*
%TD*%
%TO.N,OUTA*%
%TO.C,H10*%
X82440000Y-95030000D03*
%TD*%
D20*
%TO.N,UART_TX*%
%TO.C,J4*%
X110948439Y-93701562D03*
D21*
%TO.N,UART_RX*%
X112744490Y-91905511D03*
%TD*%
D22*
%TO.N,GND*%
X104183332Y-100100000D03*
X94850000Y-106500000D03*
X100450000Y-113150000D03*
X89300000Y-107400000D03*
X110150000Y-90100000D03*
X89116666Y-98950000D03*
X106150000Y-113850000D03*
X119150000Y-102500000D03*
X90533332Y-98950000D03*
X119700000Y-102500000D03*
X108950000Y-107550000D03*
X99500000Y-108900000D03*
X103075000Y-89775000D03*
X127300000Y-107350000D03*
X127250000Y-90650000D03*
X102475000Y-89775000D03*
X108900000Y-88100000D03*
X96900000Y-95500000D03*
X101550000Y-92000000D03*
X103500000Y-91250000D03*
X87700000Y-101150000D03*
X119350000Y-94750000D03*
X117150000Y-95450000D03*
X124100000Y-89800000D03*
X99000000Y-110700000D03*
X91950000Y-101150000D03*
X112600000Y-103050000D03*
X104950000Y-91250000D03*
X97350000Y-99150000D03*
X111384089Y-99609511D03*
X97050000Y-106550000D03*
X87850000Y-86750000D03*
X111000000Y-107150000D03*
X89116666Y-100050000D03*
X92750000Y-93000000D03*
X105600000Y-100100000D03*
X90533332Y-101150000D03*
X124950000Y-88850000D03*
X97340000Y-94890000D03*
X119300000Y-105200000D03*
X105600000Y-99000000D03*
X111000000Y-106600000D03*
X100450000Y-108050000D03*
X99450000Y-112200000D03*
X91950000Y-98950000D03*
X86500000Y-92650000D03*
X98650000Y-91950000D03*
X104183332Y-99000000D03*
X90533332Y-100050000D03*
X87700000Y-98950000D03*
X102500000Y-90500000D03*
X98400000Y-90400000D03*
X97650000Y-89600000D03*
X87700000Y-100050000D03*
X99300000Y-106550000D03*
X113600000Y-102450000D03*
X102400000Y-98600000D03*
X100000000Y-108450000D03*
X109100000Y-92150000D03*
X114150000Y-95200000D03*
X91950000Y-100050000D03*
X99000000Y-110000000D03*
X99450000Y-91200000D03*
X126400000Y-91600000D03*
X109650000Y-90550000D03*
X107250000Y-113000000D03*
X96468744Y-96018745D03*
X85450000Y-92650000D03*
X89116666Y-101150000D03*
X90300000Y-108300000D03*
X110600000Y-89700000D03*
X109100000Y-91350000D03*
X119300000Y-104600000D03*
X126450000Y-108300000D03*
%TO.N,+1V1*%
X105600000Y-101500000D03*
X111800000Y-101400000D03*
%TO.N,3V3_BUCK*%
X115700000Y-84600000D03*
X114550000Y-102150000D03*
X108850000Y-102950000D03*
X114388541Y-104488541D03*
X115100000Y-86500000D03*
X98836310Y-99063690D03*
X111170000Y-105520000D03*
X89009811Y-103409811D03*
X119050000Y-97200000D03*
X98300000Y-97650000D03*
X101050000Y-106549500D03*
X102100000Y-109750000D03*
X89009811Y-104340189D03*
X113500000Y-86800000D03*
X103000000Y-109750000D03*
X122650000Y-86700000D03*
X113950000Y-104950000D03*
X94650000Y-82950000D03*
X120750000Y-88800000D03*
X122150000Y-93350000D03*
X106650000Y-90600000D03*
X122200000Y-89900000D03*
X107750000Y-91450000D03*
X91400000Y-105500000D03*
X115700000Y-85200000D03*
X100450000Y-109750000D03*
X108850000Y-104550000D03*
X107561459Y-93138541D03*
X120750000Y-88000000D03*
X113388541Y-105488541D03*
X117350000Y-97800000D03*
X102450000Y-99800000D03*
X105799500Y-108300000D03*
X122150000Y-94150000D03*
X103350000Y-92900000D03*
X121100000Y-97250000D03*
X108850000Y-103750000D03*
X107100000Y-92700000D03*
X122200000Y-91500000D03*
X122150000Y-92550000D03*
X122200000Y-90700000D03*
X112250000Y-86800000D03*
X88550000Y-106700000D03*
X104365000Y-97347100D03*
X104950000Y-92900000D03*
X115700000Y-86000000D03*
X103095000Y-97347100D03*
X114988541Y-101688541D03*
X119650000Y-97200000D03*
X91400000Y-106300000D03*
X120500000Y-97250000D03*
X106200000Y-106650000D03*
X107111459Y-91038541D03*
X117788541Y-97338541D03*
X107400000Y-107600000D03*
%TO.N,V_USB*%
X112600000Y-107300000D03*
X112600000Y-108000000D03*
X118250000Y-100800000D03*
X119300000Y-101850000D03*
%TO.N,DRV_BUCK_OUT*%
X88550000Y-89900000D03*
X93101056Y-96051056D03*
%TO.N,Current_A*%
X93650000Y-104450000D03*
X94500000Y-96200500D03*
%TO.N,Current_B*%
X95950000Y-104450000D03*
X94500500Y-97199500D03*
%TO.N,Current_C*%
X94518744Y-97968744D03*
X98500000Y-104350000D03*
%TO.N,VREF*%
X107746800Y-105703200D03*
X99200000Y-103850000D03*
%TO.N,GPIO25*%
X105416068Y-104250000D03*
X107400000Y-109150000D03*
%TO.N,GPIO24*%
X104811518Y-104732622D03*
%TO.N,GPIO22*%
X104350000Y-104150000D03*
%TO.N,GPIO9*%
X102150000Y-93650000D03*
%TO.N,GPIO3*%
X106349006Y-93600000D03*
%TO.N,GPIO2*%
X106950000Y-93600000D03*
%TO.N,GPIO20*%
X103033932Y-104850000D03*
%TO.N,GPIO21*%
X103650000Y-104700000D03*
%TO.N,SWD*%
X100100000Y-101099500D03*
%TO.N,SWCLK*%
X98895180Y-100699500D03*
%TO.N,UART_TX*%
X107800500Y-94950000D03*
%TO.N,UART_RX*%
X107800500Y-94350000D03*
%TO.N,RUN*%
X102450000Y-101400000D03*
X118600000Y-106650000D03*
%TO.N,nFAULT*%
X87550000Y-104000000D03*
X103920972Y-93885429D03*
%TO.N,I2C_SDA*%
X113500000Y-89550000D03*
X105246928Y-102202956D03*
X105749503Y-93600000D03*
%TO.N,I2C_SCL*%
X103931050Y-102200500D03*
X112250000Y-89500000D03*
X105150000Y-93600000D03*
%TO.N,nSLEEP*%
X104465239Y-93600000D03*
X88149503Y-104000000D03*
%TO.N,DRVOFF*%
X102750000Y-93650000D03*
X86950497Y-104000000D03*
%TO.N,INLC*%
X92797484Y-104649205D03*
X101550000Y-93650000D03*
%TO.N,INHC*%
X100950497Y-93650000D03*
X92197984Y-104651131D03*
%TO.N,INLB*%
X99949500Y-96298051D03*
X91598499Y-104646550D03*
%TO.N,INHB*%
X90998996Y-104646550D03*
X99949500Y-96897554D03*
%TO.N,INLA*%
X90399493Y-104646550D03*
X99949500Y-97497057D03*
%TO.N,INHA*%
X99952950Y-98096550D03*
X89800000Y-104650000D03*
%TO.N,SPI_MISO*%
X95396550Y-101400507D03*
X99400000Y-101700497D03*
%TO.N,SPI_SS*%
X95396550Y-100201501D03*
X99400000Y-102300000D03*
%TO.N,SPI_SCK*%
X95396550Y-100801004D03*
X101750497Y-104700000D03*
%TO.N,SPI_MOSI*%
X102350000Y-104700000D03*
X95400000Y-102000000D03*
%TO.N,QSPI_SD3*%
X111700000Y-99100000D03*
X116050000Y-98150000D03*
%TO.N,Net-(U1-GPIO26_ADC0)*%
X93750000Y-107100000D03*
X105820133Y-105703200D03*
%TO.N,Net-(U1-GPIO27_ADC1)*%
X106462355Y-105703200D03*
X95950000Y-107100000D03*
%TO.N,Net-(U1-GPIO28_ADC2)*%
X107104577Y-105800000D03*
X98150000Y-107100000D03*
%TD*%
%TA.AperFunction,Conductor*%
%TO.N,3V3_BUCK*%
G36*
X105262590Y-75083360D02*
G01*
X105730262Y-75092742D01*
X105732467Y-75092807D01*
X106252482Y-75113006D01*
X106254904Y-75113126D01*
X106721764Y-75141255D01*
X106723902Y-75141402D01*
X107242801Y-75181775D01*
X107245536Y-75182019D01*
X107710496Y-75228810D01*
X107712465Y-75229024D01*
X108229866Y-75289562D01*
X108232630Y-75289918D01*
X108694778Y-75355240D01*
X108696589Y-75355509D01*
X109211896Y-75436185D01*
X109214899Y-75436694D01*
X109673296Y-75520361D01*
X109674838Y-75520654D01*
X110187350Y-75621412D01*
X110190527Y-75622080D01*
X110644313Y-75723866D01*
X110645476Y-75724134D01*
X111154911Y-75844999D01*
X111158139Y-75845812D01*
X111606175Y-75965369D01*
X111607189Y-75965645D01*
X112096846Y-76102095D01*
X112112773Y-76106534D01*
X112116294Y-76107570D01*
X112557236Y-76244399D01*
X112558229Y-76244712D01*
X112859764Y-76341500D01*
X113059693Y-76405674D01*
X113063323Y-76406900D01*
X113496122Y-76560486D01*
X113496790Y-76560727D01*
X113994208Y-76741971D01*
X113997825Y-76743354D01*
X114420921Y-76912896D01*
X114421052Y-76912949D01*
X114914649Y-77114831D01*
X114918414Y-77116444D01*
X115329338Y-77300564D01*
X115329559Y-77300664D01*
X115819760Y-77523742D01*
X115823511Y-77525527D01*
X116218969Y-77722127D01*
X116219365Y-77722325D01*
X116707981Y-77968005D01*
X116711924Y-77970076D01*
X117085442Y-78174848D01*
X117152947Y-78212140D01*
X117578022Y-78446969D01*
X117582048Y-78449290D01*
X117915598Y-78649955D01*
X117915564Y-78650011D01*
X117915806Y-78650080D01*
X118428586Y-78959928D01*
X118432632Y-78962480D01*
X118603493Y-79074843D01*
X118603561Y-79074887D01*
X118933240Y-79291997D01*
X119238448Y-79492992D01*
X119238845Y-79493253D01*
X119249253Y-79501728D01*
X119262699Y-79500500D01*
X120019325Y-79500500D01*
X120081179Y-79516727D01*
X120127101Y-79561229D01*
X120145263Y-79622542D01*
X120130987Y-79684875D01*
X120087949Y-79732173D01*
X120067206Y-79745643D01*
X119765118Y-79990270D01*
X119490270Y-80265118D01*
X119245643Y-80567206D01*
X119033938Y-80893205D01*
X118857467Y-81239548D01*
X118718167Y-81602436D01*
X118617562Y-81977900D01*
X118556753Y-82361829D01*
X118536410Y-82750000D01*
X118556753Y-83138170D01*
X118556754Y-83138176D01*
X118617562Y-83522099D01*
X118718167Y-83897562D01*
X118857468Y-84260453D01*
X119033938Y-84606795D01*
X119245643Y-84932793D01*
X119344154Y-85054444D01*
X119363319Y-85078110D01*
X119390481Y-85142226D01*
X119379442Y-85210978D01*
X119333574Y-85263368D01*
X119266884Y-85283396D01*
X119199740Y-85264945D01*
X119123819Y-85218591D01*
X118910817Y-85129854D01*
X118869370Y-85119653D01*
X118686746Y-85074705D01*
X118686744Y-85074704D01*
X118686741Y-85074704D01*
X118456887Y-85054443D01*
X118226623Y-85069545D01*
X118001379Y-85119653D01*
X117786436Y-85203593D01*
X117786434Y-85203593D01*
X117786434Y-85203594D01*
X117763236Y-85217053D01*
X117586839Y-85319394D01*
X117407285Y-85464333D01*
X117331708Y-85547378D01*
X117327449Y-85551833D01*
X114660161Y-88209134D01*
X114659129Y-88210151D01*
X114573923Y-88293107D01*
X114430828Y-88484901D01*
X114319796Y-88696874D01*
X114243609Y-88923720D01*
X114231845Y-88994139D01*
X114204092Y-89054365D01*
X114149603Y-89092158D01*
X114083471Y-89097052D01*
X114024014Y-89067689D01*
X113905430Y-88962633D01*
X113753085Y-88882676D01*
X113753084Y-88882675D01*
X113753083Y-88882675D01*
X113586028Y-88841500D01*
X113413972Y-88841500D01*
X113246917Y-88882675D01*
X113246916Y-88882675D01*
X113246914Y-88882676D01*
X113094571Y-88962632D01*
X112980986Y-89063259D01*
X112917644Y-89093314D01*
X112848045Y-89084863D01*
X112793737Y-89040522D01*
X112784215Y-89026727D01*
X112730092Y-88978778D01*
X112655430Y-88912633D01*
X112503083Y-88832675D01*
X112336028Y-88791500D01*
X112163972Y-88791500D01*
X111996917Y-88832675D01*
X111996916Y-88832675D01*
X111996914Y-88832676D01*
X111844571Y-88912632D01*
X111844569Y-88912633D01*
X111844570Y-88912633D01*
X111715785Y-89026727D01*
X111711679Y-89032676D01*
X111618044Y-89168327D01*
X111557034Y-89329199D01*
X111536216Y-89500653D01*
X111511251Y-89561968D01*
X111468333Y-89594762D01*
X111517764Y-89616295D01*
X111556676Y-89669854D01*
X111618044Y-89831672D01*
X111618045Y-89831674D01*
X111618046Y-89831675D01*
X111715785Y-89973273D01*
X111844570Y-90087367D01*
X111996917Y-90167325D01*
X112163972Y-90208500D01*
X112336026Y-90208500D01*
X112336028Y-90208500D01*
X112503083Y-90167325D01*
X112655430Y-90087367D01*
X112769013Y-89986740D01*
X112832354Y-89956685D01*
X112901953Y-89965135D01*
X112956261Y-90009476D01*
X112965783Y-90023271D01*
X112965784Y-90023272D01*
X112965785Y-90023273D01*
X113094570Y-90137367D01*
X113246917Y-90217325D01*
X113413972Y-90258500D01*
X113586026Y-90258500D01*
X113586028Y-90258500D01*
X113753083Y-90217325D01*
X113905430Y-90137367D01*
X114034215Y-90023273D01*
X114120496Y-89898274D01*
X114169452Y-89856363D01*
X114232733Y-89844143D01*
X114293778Y-89864813D01*
X114336616Y-89912966D01*
X114412346Y-90062633D01*
X114419617Y-90077003D01*
X114531658Y-90231672D01*
X114560001Y-90270799D01*
X114729200Y-90439998D01*
X114729203Y-90440000D01*
X114729205Y-90440002D01*
X114922997Y-90580383D01*
X114922999Y-90580384D01*
X115136513Y-90688419D01*
X115136515Y-90688419D01*
X115136516Y-90688420D01*
X115364409Y-90761404D01*
X115600965Y-90797506D01*
X115840254Y-90795821D01*
X116076279Y-90756391D01*
X116303122Y-90680205D01*
X116515098Y-90569172D01*
X116706893Y-90426075D01*
X116789853Y-90340862D01*
X116790878Y-90339824D01*
X117328936Y-89799999D01*
X123386296Y-89799999D01*
X123407034Y-89970800D01*
X123468044Y-90131672D01*
X123468045Y-90131674D01*
X123468046Y-90131675D01*
X123565785Y-90273273D01*
X123694570Y-90387367D01*
X123846917Y-90467325D01*
X124013972Y-90508500D01*
X124186026Y-90508500D01*
X124186028Y-90508500D01*
X124353083Y-90467325D01*
X124505430Y-90387367D01*
X124634215Y-90273273D01*
X124731954Y-90131675D01*
X124792965Y-89970801D01*
X124813704Y-89800000D01*
X124801523Y-89699687D01*
X124812770Y-89630485D01*
X124859262Y-89578006D01*
X124926605Y-89558500D01*
X125036026Y-89558500D01*
X125036028Y-89558500D01*
X125203083Y-89517325D01*
X125355430Y-89437367D01*
X125484215Y-89323273D01*
X125581954Y-89181675D01*
X125642965Y-89020801D01*
X125663704Y-88850000D01*
X125642965Y-88679199D01*
X125581954Y-88518325D01*
X125484215Y-88376727D01*
X125355430Y-88262633D01*
X125203083Y-88182675D01*
X125036028Y-88141500D01*
X124863972Y-88141500D01*
X124696917Y-88182675D01*
X124696916Y-88182675D01*
X124696914Y-88182676D01*
X124544571Y-88262632D01*
X124516777Y-88287255D01*
X124415785Y-88376727D01*
X124383205Y-88423926D01*
X124318044Y-88518327D01*
X124257034Y-88679199D01*
X124236296Y-88850000D01*
X124248476Y-88950313D01*
X124237230Y-89019515D01*
X124190738Y-89071994D01*
X124123395Y-89091500D01*
X124013972Y-89091500D01*
X123846917Y-89132675D01*
X123846916Y-89132675D01*
X123846914Y-89132676D01*
X123694571Y-89212632D01*
X123565786Y-89326726D01*
X123468044Y-89468327D01*
X123407034Y-89629199D01*
X123386296Y-89799999D01*
X117328936Y-89799999D01*
X119464589Y-87657333D01*
X119467610Y-87654403D01*
X119550305Y-87576960D01*
X119692665Y-87395354D01*
X119805602Y-87194127D01*
X119886463Y-86978005D01*
X119933351Y-86752066D01*
X119945162Y-86521615D01*
X119945161Y-86521613D01*
X119945162Y-86521610D01*
X119921620Y-86292068D01*
X119863277Y-86068810D01*
X119772536Y-85859472D01*
X119771504Y-85857091D01*
X119737313Y-85802849D01*
X119717905Y-85735618D01*
X119737361Y-85668398D01*
X119789681Y-85621927D01*
X119858726Y-85610537D01*
X119923200Y-85637742D01*
X120067207Y-85754357D01*
X120393205Y-85966062D01*
X120739547Y-86142532D01*
X121102438Y-86281833D01*
X121477901Y-86382438D01*
X121861824Y-86443246D01*
X122250000Y-86463589D01*
X122638176Y-86443246D01*
X123022099Y-86382438D01*
X123397562Y-86281833D01*
X123760453Y-86142532D01*
X124106795Y-85966062D01*
X124432793Y-85754357D01*
X124734876Y-85509734D01*
X125009734Y-85234876D01*
X125254357Y-84932793D01*
X125267826Y-84912051D01*
X125315125Y-84869013D01*
X125377458Y-84854737D01*
X125438771Y-84872899D01*
X125483273Y-84918821D01*
X125499500Y-84980675D01*
X125499500Y-85737498D01*
X125498312Y-85750742D01*
X125506707Y-85760967D01*
X125924369Y-86387667D01*
X125924415Y-86387736D01*
X126042682Y-86565449D01*
X126045293Y-86569541D01*
X126356593Y-87078812D01*
X126356662Y-87079060D01*
X126356722Y-87079024D01*
X126560823Y-87414399D01*
X126563186Y-87418451D01*
X126836875Y-87908352D01*
X126837075Y-87908712D01*
X127044718Y-88283258D01*
X127046842Y-88287255D01*
X127294274Y-88774022D01*
X127294533Y-88774536D01*
X127493639Y-89170705D01*
X127495530Y-89174635D01*
X127720206Y-89663123D01*
X127720514Y-89663797D01*
X127826532Y-89897917D01*
X127837438Y-89958789D01*
X127818067Y-90017518D01*
X127773087Y-90059958D01*
X127713332Y-90075884D01*
X127653197Y-90061461D01*
X127503085Y-89982676D01*
X127503084Y-89982675D01*
X127503083Y-89982675D01*
X127336028Y-89941500D01*
X127163972Y-89941500D01*
X126996917Y-89982675D01*
X126996916Y-89982675D01*
X126996914Y-89982676D01*
X126844571Y-90062632D01*
X126726397Y-90167325D01*
X126715785Y-90176727D01*
X126687763Y-90217323D01*
X126618044Y-90318327D01*
X126557034Y-90479199D01*
X126536296Y-90650000D01*
X126548476Y-90750313D01*
X126537230Y-90819515D01*
X126490738Y-90871994D01*
X126423395Y-90891500D01*
X126313972Y-90891500D01*
X126146917Y-90932675D01*
X126146916Y-90932675D01*
X126146914Y-90932676D01*
X125994571Y-91012632D01*
X125931799Y-91068243D01*
X125865785Y-91126727D01*
X125858441Y-91137367D01*
X125768044Y-91268327D01*
X125707034Y-91429199D01*
X125686296Y-91599999D01*
X125707034Y-91770800D01*
X125768044Y-91931672D01*
X125768045Y-91931674D01*
X125768046Y-91931675D01*
X125865785Y-92073273D01*
X125994570Y-92187367D01*
X126146917Y-92267325D01*
X126313972Y-92308500D01*
X126486026Y-92308500D01*
X126486028Y-92308500D01*
X126653083Y-92267325D01*
X126805430Y-92187367D01*
X126934215Y-92073273D01*
X127031954Y-91931675D01*
X127092965Y-91770801D01*
X127113704Y-91600000D01*
X127101523Y-91499687D01*
X127112770Y-91430485D01*
X127159262Y-91378006D01*
X127226605Y-91358500D01*
X127336026Y-91358500D01*
X127336028Y-91358500D01*
X127503083Y-91317325D01*
X127655430Y-91237367D01*
X127784215Y-91123273D01*
X127881954Y-90981675D01*
X127942965Y-90820801D01*
X127946451Y-90792089D01*
X127971074Y-90731225D01*
X128022980Y-90691010D01*
X128088071Y-90682370D01*
X128148671Y-90707653D01*
X128188321Y-90759993D01*
X128283698Y-90995554D01*
X128285134Y-90999269D01*
X128460887Y-91476726D01*
X128467872Y-91495701D01*
X128468237Y-91496707D01*
X128623607Y-91930108D01*
X128624856Y-91933768D01*
X128787215Y-92434546D01*
X128787590Y-92435723D01*
X128926019Y-92877395D01*
X128927074Y-92880944D01*
X129069187Y-93385919D01*
X129069559Y-93387268D01*
X129190467Y-93835942D01*
X129191340Y-93839372D01*
X129313246Y-94348225D01*
X129313601Y-94349747D01*
X129389938Y-94686794D01*
X129385481Y-94757639D01*
X129343437Y-94814832D01*
X129277148Y-94840222D01*
X129207655Y-94825750D01*
X129147800Y-94793757D01*
X128957701Y-94736091D01*
X128809550Y-94721500D01*
X128809547Y-94721500D01*
X128110453Y-94721500D01*
X128110450Y-94721500D01*
X127962298Y-94736091D01*
X127772197Y-94793758D01*
X127596992Y-94887406D01*
X127443431Y-95013431D01*
X127317406Y-95166992D01*
X127223758Y-95342197D01*
X127166091Y-95532298D01*
X127146619Y-95729999D01*
X127166091Y-95927701D01*
X127223758Y-96117802D01*
X127317406Y-96293007D01*
X127443431Y-96446568D01*
X127596992Y-96572593D01*
X127632951Y-96591813D01*
X127772196Y-96666241D01*
X127801595Y-96675159D01*
X127962298Y-96723908D01*
X128110450Y-96738500D01*
X128110453Y-96738500D01*
X128809547Y-96738500D01*
X128809550Y-96738500D01*
X128957701Y-96723908D01*
X128975928Y-96718379D01*
X129147804Y-96666241D01*
X129323004Y-96572595D01*
X129323005Y-96572593D01*
X129323007Y-96572593D01*
X129476566Y-96446570D01*
X129491100Y-96428861D01*
X129537001Y-96393797D01*
X129593724Y-96382900D01*
X129649350Y-96398459D01*
X129692189Y-96437204D01*
X129713238Y-96490993D01*
X129752178Y-96763891D01*
X129752571Y-96766910D01*
X129813655Y-97284069D01*
X129813880Y-97286114D01*
X129861217Y-97752076D01*
X129861475Y-97754945D01*
X129902221Y-98273738D01*
X129902376Y-98275955D01*
X129930829Y-98743784D01*
X129930964Y-98746496D01*
X129951346Y-99266299D01*
X129951417Y-99268685D01*
X129960908Y-99737346D01*
X129960934Y-99739897D01*
X129960934Y-100260103D01*
X129960908Y-100262654D01*
X129951417Y-100731313D01*
X129951346Y-100733699D01*
X129930964Y-101253502D01*
X129930829Y-101256214D01*
X129902376Y-101724043D01*
X129902221Y-101726260D01*
X129861475Y-102245053D01*
X129861217Y-102247922D01*
X129813880Y-102713884D01*
X129813655Y-102715929D01*
X129752566Y-103233129D01*
X129752172Y-103236148D01*
X129701081Y-103594194D01*
X129680033Y-103647983D01*
X129637195Y-103686728D01*
X129581569Y-103702287D01*
X129524846Y-103691390D01*
X129478945Y-103656327D01*
X129476567Y-103653430D01*
X129323007Y-103527406D01*
X129147802Y-103433758D01*
X128957701Y-103376091D01*
X128809550Y-103361500D01*
X128809547Y-103361500D01*
X128110453Y-103361500D01*
X128110450Y-103361500D01*
X127962298Y-103376091D01*
X127772197Y-103433758D01*
X127596992Y-103527406D01*
X127443431Y-103653431D01*
X127317406Y-103806992D01*
X127223758Y-103982197D01*
X127166091Y-104172298D01*
X127146619Y-104370000D01*
X127166091Y-104567701D01*
X127223758Y-104757802D01*
X127317406Y-104933007D01*
X127443431Y-105086568D01*
X127596992Y-105212593D01*
X127596996Y-105212595D01*
X127772196Y-105306241D01*
X127867247Y-105335074D01*
X127962298Y-105363908D01*
X128110450Y-105378500D01*
X128110453Y-105378500D01*
X128809547Y-105378500D01*
X128809550Y-105378500D01*
X128957701Y-105363908D01*
X128975529Y-105358500D01*
X129147804Y-105306241D01*
X129181886Y-105288023D01*
X129251379Y-105273550D01*
X129317668Y-105298939D01*
X129359713Y-105356133D01*
X129364170Y-105426978D01*
X129313601Y-105650251D01*
X129313246Y-105651773D01*
X129191340Y-106160626D01*
X129190467Y-106164056D01*
X129069559Y-106612730D01*
X129069187Y-106614079D01*
X128927074Y-107119054D01*
X128926019Y-107122603D01*
X128787590Y-107564275D01*
X128787215Y-107565452D01*
X128624856Y-108066230D01*
X128623607Y-108069890D01*
X128468237Y-108503291D01*
X128467872Y-108504297D01*
X128285152Y-109000683D01*
X128283698Y-109004444D01*
X128112251Y-109427884D01*
X128111908Y-109428722D01*
X127908518Y-109920861D01*
X127906851Y-109924713D01*
X127720514Y-110336201D01*
X127720206Y-110336875D01*
X127495530Y-110825363D01*
X127493639Y-110829293D01*
X127294533Y-111225462D01*
X127294274Y-111225976D01*
X127046842Y-111712743D01*
X127044718Y-111716740D01*
X126837075Y-112091286D01*
X126836875Y-112091646D01*
X126563186Y-112581547D01*
X126560823Y-112585599D01*
X126356722Y-112920975D01*
X126356593Y-112921186D01*
X126045301Y-113430445D01*
X126042690Y-113434537D01*
X125924471Y-113612177D01*
X125924471Y-113612178D01*
X125506459Y-114239404D01*
X125498317Y-114249392D01*
X125499500Y-114262539D01*
X125499500Y-115019325D01*
X125483273Y-115081179D01*
X125438771Y-115127101D01*
X125377458Y-115145263D01*
X125315125Y-115130987D01*
X125267827Y-115087949D01*
X125254356Y-115067206D01*
X125140519Y-114926630D01*
X125009734Y-114765124D01*
X125009733Y-114765123D01*
X125009729Y-114765118D01*
X124734881Y-114490270D01*
X124432793Y-114245643D01*
X124106795Y-114033938D01*
X123760451Y-113857467D01*
X123397563Y-113718167D01*
X123022099Y-113617562D01*
X122638170Y-113556753D01*
X122250000Y-113536410D01*
X121861829Y-113556753D01*
X121477900Y-113617562D01*
X121102436Y-113718167D01*
X120739548Y-113857467D01*
X120393205Y-114033938D01*
X120067200Y-114245646D01*
X119909871Y-114373050D01*
X119845559Y-114400236D01*
X119776646Y-114389005D01*
X119724294Y-114342805D01*
X119704579Y-114275824D01*
X119723555Y-114208630D01*
X119732069Y-114194929D01*
X119776315Y-114123719D01*
X119777666Y-114120540D01*
X119867044Y-113910134D01*
X119868671Y-113903692D01*
X119923876Y-113685140D01*
X119945458Y-113454086D01*
X119931279Y-113222461D01*
X119881674Y-112995765D01*
X119875254Y-112979199D01*
X119850845Y-112916209D01*
X119797824Y-112779385D01*
X119733647Y-112668325D01*
X119681719Y-112578461D01*
X119536115Y-112397762D01*
X119504302Y-112368785D01*
X119452612Y-112321704D01*
X119448197Y-112317482D01*
X119435495Y-112304731D01*
X118571195Y-111437076D01*
X116815768Y-109674836D01*
X116814248Y-109673283D01*
X116735652Y-109591613D01*
X116692645Y-109558772D01*
X116553722Y-109452690D01*
X116352897Y-109342832D01*
X116137787Y-109264561D01*
X116137786Y-109264560D01*
X116137784Y-109264560D01*
X115913326Y-109219671D01*
X115684650Y-109209192D01*
X115457028Y-109233366D01*
X115235656Y-109291638D01*
X115025633Y-109382667D01*
X115025631Y-109382667D01*
X115025629Y-109382669D01*
X114837945Y-109500487D01*
X114831755Y-109504373D01*
X114658479Y-109653961D01*
X114509788Y-109827992D01*
X114389075Y-110022494D01*
X114299124Y-110232979D01*
X114241988Y-110454646D01*
X114218980Y-110682393D01*
X114230630Y-110911009D01*
X114276668Y-111135236D01*
X114310023Y-111225462D01*
X114332907Y-111287367D01*
X114356042Y-111349947D01*
X114466925Y-111550202D01*
X114606780Y-111731421D01*
X114688604Y-111809359D01*
X114690614Y-111811316D01*
X117297911Y-114408312D01*
X117323280Y-114433580D01*
X117327846Y-114438373D01*
X117403405Y-114521996D01*
X117583520Y-114668316D01*
X117707360Y-114740537D01*
X117767471Y-114775593D01*
X117783981Y-114785221D01*
X117874761Y-114820816D01*
X118000031Y-114869935D01*
X118226517Y-114920439D01*
X118226522Y-114920440D01*
X118405983Y-114932143D01*
X118458086Y-114935542D01*
X118458087Y-114935541D01*
X118458089Y-114935542D01*
X118689227Y-114914881D01*
X118879076Y-114867730D01*
X118914441Y-114858947D01*
X118914442Y-114858946D01*
X118914444Y-114858946D01*
X119128391Y-114769068D01*
X119215358Y-114715509D01*
X119282528Y-114696800D01*
X119349361Y-114716674D01*
X119395393Y-114769046D01*
X119406526Y-114837877D01*
X119379352Y-114902089D01*
X119245646Y-115067201D01*
X119033938Y-115393205D01*
X118857467Y-115739548D01*
X118718167Y-116102436D01*
X118617562Y-116477900D01*
X118556753Y-116861829D01*
X118536410Y-117249999D01*
X118556753Y-117638170D01*
X118617562Y-118022099D01*
X118718167Y-118397563D01*
X118857467Y-118760451D01*
X119033938Y-119106795D01*
X119245643Y-119432793D01*
X119490270Y-119734881D01*
X119765118Y-120009729D01*
X119765123Y-120009733D01*
X119765124Y-120009734D01*
X120067207Y-120254357D01*
X120086599Y-120266950D01*
X120087949Y-120267827D01*
X120130987Y-120315125D01*
X120145263Y-120377458D01*
X120127101Y-120438771D01*
X120081179Y-120483273D01*
X120019325Y-120499500D01*
X119262539Y-120499500D01*
X119249392Y-120498317D01*
X119239404Y-120506459D01*
X118612731Y-120924103D01*
X118434527Y-121042698D01*
X118430434Y-121045309D01*
X117921502Y-121356401D01*
X117921291Y-121356530D01*
X117585580Y-121560835D01*
X117581528Y-121563198D01*
X117091873Y-121836750D01*
X117091513Y-121836951D01*
X116716730Y-122044724D01*
X116712733Y-122046847D01*
X116225976Y-122294274D01*
X116225462Y-122294533D01*
X115829293Y-122493639D01*
X115825363Y-122495530D01*
X115336939Y-122720177D01*
X115336265Y-122720485D01*
X114924690Y-122906861D01*
X114920838Y-122908528D01*
X114428789Y-123111880D01*
X114427951Y-123112223D01*
X114004441Y-123283699D01*
X114000680Y-123285153D01*
X113504297Y-123467872D01*
X113503291Y-123468237D01*
X113069899Y-123623604D01*
X113066239Y-123624853D01*
X112565471Y-123787209D01*
X112564294Y-123787584D01*
X112122568Y-123926029D01*
X112119019Y-123927084D01*
X111614145Y-124069168D01*
X111612796Y-124069540D01*
X111164050Y-124190469D01*
X111160620Y-124191342D01*
X110651773Y-124313246D01*
X110650250Y-124313601D01*
X110195770Y-124416535D01*
X110192470Y-124417236D01*
X109680250Y-124518910D01*
X109678553Y-124519235D01*
X109219272Y-124603871D01*
X109216108Y-124604412D01*
X108701125Y-124685808D01*
X108699253Y-124686089D01*
X108236107Y-124752177D01*
X108233088Y-124752571D01*
X107715929Y-124813655D01*
X107713884Y-124813880D01*
X107247922Y-124861217D01*
X107245053Y-124861475D01*
X106726260Y-124902221D01*
X106724043Y-124902376D01*
X106256214Y-124930829D01*
X106253502Y-124930964D01*
X105733699Y-124951346D01*
X105731313Y-124951417D01*
X105291311Y-124960327D01*
X105262652Y-124960908D01*
X105260103Y-124960934D01*
X104739897Y-124960934D01*
X104737347Y-124960908D01*
X104700254Y-124960156D01*
X104268685Y-124951417D01*
X104266299Y-124951346D01*
X103746496Y-124930964D01*
X103743784Y-124930829D01*
X103275955Y-124902376D01*
X103273738Y-124902221D01*
X102754945Y-124861475D01*
X102752076Y-124861217D01*
X102286114Y-124813880D01*
X102284069Y-124813655D01*
X101766910Y-124752571D01*
X101763891Y-124752177D01*
X101300745Y-124686089D01*
X101298873Y-124685808D01*
X100783890Y-124604412D01*
X100780726Y-124603871D01*
X100321445Y-124519235D01*
X100319748Y-124518910D01*
X99807528Y-124417236D01*
X99804228Y-124416535D01*
X99349748Y-124313601D01*
X99348225Y-124313246D01*
X98839378Y-124191342D01*
X98835958Y-124190471D01*
X98773658Y-124173683D01*
X98387202Y-124069540D01*
X98385853Y-124069168D01*
X97880979Y-123927084D01*
X97877430Y-123926029D01*
X97435704Y-123787584D01*
X97434527Y-123787209D01*
X96933759Y-123624853D01*
X96930099Y-123623604D01*
X96496707Y-123468237D01*
X96495701Y-123467872D01*
X95999277Y-123285137D01*
X95995557Y-123283699D01*
X95572047Y-123112223D01*
X95571209Y-123111880D01*
X95079160Y-122908528D01*
X95075308Y-122906861D01*
X94663733Y-122720485D01*
X94663059Y-122720177D01*
X94174635Y-122495530D01*
X94170705Y-122493639D01*
X93774536Y-122294533D01*
X93774022Y-122294274D01*
X93287265Y-122046847D01*
X93283268Y-122044724D01*
X92908486Y-121836951D01*
X92908126Y-121836750D01*
X92553781Y-121638791D01*
X92418453Y-121563188D01*
X92414436Y-121560845D01*
X92078708Y-121356530D01*
X92078497Y-121356401D01*
X91569564Y-121045309D01*
X91565471Y-121042698D01*
X91486286Y-120990000D01*
X97476844Y-120990000D01*
X97495436Y-121214368D01*
X97495436Y-121214371D01*
X97495437Y-121214372D01*
X97550702Y-121432611D01*
X97641139Y-121638790D01*
X97764278Y-121827268D01*
X97916762Y-121992908D01*
X98094421Y-122131187D01*
X98094424Y-122131189D01*
X98292426Y-122238342D01*
X98505365Y-122311444D01*
X98727431Y-122348500D01*
X98952566Y-122348500D01*
X98952569Y-122348500D01*
X99174635Y-122311444D01*
X99387574Y-122238342D01*
X99585576Y-122131189D01*
X99763240Y-121992906D01*
X99915722Y-121827268D01*
X100004518Y-121691354D01*
X100050031Y-121649458D01*
X100110000Y-121634272D01*
X100169969Y-121649458D01*
X100215481Y-121691354D01*
X100286618Y-121800237D01*
X100304278Y-121827268D01*
X100456762Y-121992908D01*
X100634421Y-122131187D01*
X100634424Y-122131189D01*
X100832426Y-122238342D01*
X101045365Y-122311444D01*
X101267431Y-122348500D01*
X101492566Y-122348500D01*
X101492569Y-122348500D01*
X101714635Y-122311444D01*
X101927574Y-122238342D01*
X102125576Y-122131189D01*
X102303240Y-121992906D01*
X102455722Y-121827268D01*
X102544518Y-121691354D01*
X102590031Y-121649458D01*
X102650000Y-121634272D01*
X102709969Y-121649458D01*
X102755481Y-121691354D01*
X102826618Y-121800237D01*
X102844278Y-121827268D01*
X102996762Y-121992908D01*
X103174421Y-122131187D01*
X103174424Y-122131189D01*
X103372426Y-122238342D01*
X103585365Y-122311444D01*
X103807431Y-122348500D01*
X104032566Y-122348500D01*
X104032569Y-122348500D01*
X104254635Y-122311444D01*
X104467574Y-122238342D01*
X104665576Y-122131189D01*
X104843240Y-121992906D01*
X104995722Y-121827268D01*
X105084518Y-121691354D01*
X105130031Y-121649458D01*
X105190000Y-121634272D01*
X105249969Y-121649458D01*
X105295481Y-121691354D01*
X105366618Y-121800237D01*
X105384278Y-121827268D01*
X105536762Y-121992908D01*
X105714421Y-122131187D01*
X105714424Y-122131189D01*
X105912426Y-122238342D01*
X106125365Y-122311444D01*
X106347431Y-122348500D01*
X106572566Y-122348500D01*
X106572569Y-122348500D01*
X106794635Y-122311444D01*
X107007574Y-122238342D01*
X107205576Y-122131189D01*
X107383240Y-121992906D01*
X107535722Y-121827268D01*
X107624518Y-121691354D01*
X107670031Y-121649458D01*
X107730000Y-121634272D01*
X107789969Y-121649458D01*
X107835481Y-121691354D01*
X107906618Y-121800237D01*
X107924278Y-121827268D01*
X108076762Y-121992908D01*
X108254421Y-122131187D01*
X108254424Y-122131189D01*
X108452426Y-122238342D01*
X108665365Y-122311444D01*
X108887431Y-122348500D01*
X109112566Y-122348500D01*
X109112569Y-122348500D01*
X109334635Y-122311444D01*
X109547574Y-122238342D01*
X109745576Y-122131189D01*
X109923240Y-121992906D01*
X110075722Y-121827268D01*
X110164518Y-121691354D01*
X110210031Y-121649458D01*
X110270000Y-121634272D01*
X110329969Y-121649458D01*
X110375481Y-121691354D01*
X110446618Y-121800237D01*
X110464278Y-121827268D01*
X110616762Y-121992908D01*
X110794421Y-122131187D01*
X110794424Y-122131189D01*
X110992426Y-122238342D01*
X111205365Y-122311444D01*
X111427431Y-122348500D01*
X111652566Y-122348500D01*
X111652569Y-122348500D01*
X111874635Y-122311444D01*
X112087574Y-122238342D01*
X112285576Y-122131189D01*
X112463240Y-121992906D01*
X112615722Y-121827268D01*
X112738860Y-121638791D01*
X112829296Y-121432616D01*
X112884564Y-121214368D01*
X112903156Y-120990000D01*
X112884564Y-120765632D01*
X112829296Y-120547384D01*
X112738860Y-120341209D01*
X112615722Y-120152732D01*
X112472157Y-119996780D01*
X112442921Y-119943178D01*
X112442318Y-119882122D01*
X112470493Y-119827951D01*
X112520827Y-119793388D01*
X112635963Y-119750445D01*
X112752904Y-119662904D01*
X112840445Y-119545962D01*
X112891494Y-119409093D01*
X112898000Y-119348589D01*
X112898000Y-118704000D01*
X111412000Y-118704000D01*
X111349000Y-118687119D01*
X111302881Y-118641000D01*
X111286000Y-118578000D01*
X111286000Y-117092000D01*
X111794000Y-117092000D01*
X111794000Y-118196000D01*
X112898000Y-118196000D01*
X112898000Y-117551411D01*
X112891494Y-117490906D01*
X112840445Y-117354037D01*
X112752904Y-117237095D01*
X112635962Y-117149554D01*
X112499093Y-117098505D01*
X112438589Y-117092000D01*
X111794000Y-117092000D01*
X111286000Y-117092000D01*
X110641411Y-117092000D01*
X110580906Y-117098505D01*
X110444037Y-117149554D01*
X110327095Y-117237095D01*
X110239554Y-117354036D01*
X110195381Y-117472470D01*
X110158849Y-117524509D01*
X110101558Y-117552085D01*
X110038096Y-117548175D01*
X109984624Y-117513774D01*
X109923240Y-117447093D01*
X109745578Y-117308812D01*
X109547573Y-117201657D01*
X109395800Y-117149554D01*
X109334635Y-117128556D01*
X109112569Y-117091500D01*
X108887431Y-117091500D01*
X108665365Y-117128556D01*
X108665362Y-117128556D01*
X108665362Y-117128557D01*
X108452426Y-117201657D01*
X108254421Y-117308812D01*
X108076762Y-117447091D01*
X107924278Y-117612731D01*
X107835483Y-117748643D01*
X107789969Y-117790541D01*
X107730000Y-117805727D01*
X107670031Y-117790541D01*
X107624517Y-117748643D01*
X107535721Y-117612731D01*
X107479271Y-117551411D01*
X107383240Y-117447094D01*
X107383239Y-117447093D01*
X107383237Y-117447091D01*
X107205578Y-117308812D01*
X107007573Y-117201657D01*
X106855800Y-117149554D01*
X106794635Y-117128556D01*
X106572569Y-117091500D01*
X106347431Y-117091500D01*
X106125365Y-117128556D01*
X106125362Y-117128556D01*
X106125362Y-117128557D01*
X105912426Y-117201657D01*
X105714421Y-117308812D01*
X105536762Y-117447091D01*
X105384278Y-117612731D01*
X105295483Y-117748643D01*
X105249969Y-117790541D01*
X105190000Y-117805727D01*
X105130031Y-117790541D01*
X105084517Y-117748643D01*
X104995721Y-117612731D01*
X104939271Y-117551411D01*
X104843240Y-117447094D01*
X104843239Y-117447093D01*
X104843237Y-117447091D01*
X104665578Y-117308812D01*
X104467573Y-117201657D01*
X104315800Y-117149554D01*
X104254635Y-117128556D01*
X104032569Y-117091500D01*
X103807431Y-117091500D01*
X103585365Y-117128556D01*
X103585362Y-117128556D01*
X103585362Y-117128557D01*
X103372426Y-117201657D01*
X103174421Y-117308812D01*
X102996762Y-117447091D01*
X102844278Y-117612731D01*
X102755483Y-117748643D01*
X102709969Y-117790541D01*
X102650000Y-117805727D01*
X102590031Y-117790541D01*
X102544517Y-117748643D01*
X102455721Y-117612731D01*
X102399271Y-117551411D01*
X102303240Y-117447094D01*
X102303239Y-117447093D01*
X102303237Y-117447091D01*
X102125578Y-117308812D01*
X101927573Y-117201657D01*
X101775800Y-117149554D01*
X101714635Y-117128556D01*
X101492569Y-117091500D01*
X101267431Y-117091500D01*
X101045365Y-117128556D01*
X101045362Y-117128556D01*
X101045362Y-117128557D01*
X100832426Y-117201657D01*
X100634421Y-117308812D01*
X100456762Y-117447091D01*
X100304278Y-117612731D01*
X100215483Y-117748643D01*
X100169969Y-117790541D01*
X100110000Y-117805727D01*
X100050031Y-117790541D01*
X100004517Y-117748643D01*
X99915721Y-117612731D01*
X99859271Y-117551411D01*
X99763240Y-117447094D01*
X99763239Y-117447093D01*
X99763237Y-117447091D01*
X99585578Y-117308812D01*
X99387573Y-117201657D01*
X99235800Y-117149554D01*
X99174635Y-117128556D01*
X98952569Y-117091500D01*
X98727431Y-117091500D01*
X98505365Y-117128556D01*
X98505362Y-117128556D01*
X98505362Y-117128557D01*
X98292426Y-117201657D01*
X98094421Y-117308812D01*
X97916762Y-117447091D01*
X97764278Y-117612731D01*
X97641139Y-117801209D01*
X97550702Y-118007388D01*
X97495437Y-118225627D01*
X97495436Y-118225632D01*
X97476844Y-118450000D01*
X97495436Y-118674368D01*
X97495436Y-118674371D01*
X97495437Y-118674372D01*
X97550702Y-118892611D01*
X97641139Y-119098790D01*
X97675482Y-119151356D01*
X97764278Y-119287268D01*
X97898244Y-119432793D01*
X97916762Y-119452908D01*
X98094418Y-119591185D01*
X98094420Y-119591186D01*
X98094424Y-119591189D01*
X98127682Y-119609187D01*
X98175952Y-119655503D01*
X98193711Y-119720000D01*
X98175952Y-119784497D01*
X98127682Y-119830812D01*
X98102794Y-119844281D01*
X98094418Y-119848814D01*
X97916762Y-119987091D01*
X97764278Y-120152731D01*
X97641139Y-120341209D01*
X97550702Y-120547388D01*
X97526609Y-120642532D01*
X97495436Y-120765632D01*
X97476844Y-120990000D01*
X91486286Y-120990000D01*
X91387114Y-120924001D01*
X91387114Y-120924000D01*
X90760967Y-120506707D01*
X90750742Y-120498312D01*
X90737498Y-120499500D01*
X89980675Y-120499500D01*
X89918821Y-120483273D01*
X89872899Y-120438771D01*
X89854737Y-120377458D01*
X89869013Y-120315125D01*
X89912051Y-120267827D01*
X89912544Y-120267506D01*
X89932793Y-120254357D01*
X90234876Y-120009734D01*
X90509734Y-119734876D01*
X90754357Y-119432793D01*
X90966062Y-119106795D01*
X91142532Y-118760453D01*
X91281833Y-118397562D01*
X91382438Y-118022099D01*
X91443246Y-117638176D01*
X91463589Y-117250000D01*
X91443246Y-116861824D01*
X91382438Y-116477901D01*
X91281833Y-116102438D01*
X91142532Y-115739547D01*
X91069417Y-115596051D01*
X93540793Y-115596051D01*
X93559385Y-115820419D01*
X93559385Y-115820422D01*
X93559386Y-115820423D01*
X93614651Y-116038662D01*
X93705088Y-116244841D01*
X93828227Y-116433319D01*
X93980711Y-116598959D01*
X94158370Y-116737238D01*
X94158373Y-116737240D01*
X94356375Y-116844393D01*
X94569314Y-116917495D01*
X94791380Y-116954551D01*
X95016515Y-116954551D01*
X95016518Y-116954551D01*
X95238584Y-116917495D01*
X95451523Y-116844393D01*
X95649525Y-116737240D01*
X95827189Y-116598957D01*
X95979671Y-116433319D01*
X96102809Y-116244842D01*
X96193245Y-116038667D01*
X96248513Y-115820419D01*
X96267105Y-115596051D01*
X96264833Y-115568634D01*
X96276284Y-115504813D01*
X96317958Y-115455137D01*
X96378817Y-115432762D01*
X96442743Y-115443613D01*
X96555266Y-115495001D01*
X96700000Y-115515810D01*
X96844734Y-115495001D01*
X96977743Y-115434258D01*
X97025172Y-115396038D01*
X98296038Y-114125172D01*
X98334258Y-114077743D01*
X98395001Y-113944734D01*
X98415810Y-113800000D01*
X98414281Y-113789368D01*
X98406805Y-113737367D01*
X98395001Y-113655266D01*
X98334258Y-113522257D01*
X98296038Y-113474828D01*
X97025172Y-112203962D01*
X96977743Y-112165742D01*
X96844734Y-112104999D01*
X96844732Y-112104998D01*
X96844731Y-112104998D01*
X96700000Y-112084189D01*
X96555268Y-112104998D01*
X96422256Y-112165742D01*
X96374824Y-112203965D01*
X95103965Y-113474824D01*
X95065742Y-113522256D01*
X95004998Y-113655268D01*
X94984189Y-113799999D01*
X95004998Y-113944731D01*
X95057278Y-114059209D01*
X95068343Y-114120540D01*
X95048662Y-114179672D01*
X95003049Y-114222139D01*
X94942664Y-114237551D01*
X94791380Y-114237551D01*
X94569314Y-114274607D01*
X94569311Y-114274607D01*
X94569311Y-114274608D01*
X94356375Y-114347708D01*
X94158370Y-114454863D01*
X93980711Y-114593142D01*
X93828227Y-114758782D01*
X93705088Y-114947260D01*
X93614651Y-115153439D01*
X93559386Y-115371678D01*
X93559385Y-115371683D01*
X93540793Y-115596051D01*
X91069417Y-115596051D01*
X90966062Y-115393206D01*
X90754357Y-115067207D01*
X90640518Y-114926628D01*
X90613323Y-114862233D01*
X90624637Y-114793251D01*
X90670978Y-114740916D01*
X90738084Y-114721336D01*
X90805299Y-114740537D01*
X90844564Y-114765118D01*
X90861296Y-114775593D01*
X91076373Y-114867731D01*
X91303073Y-114925650D01*
X91535988Y-114947968D01*
X91740175Y-114935892D01*
X91769564Y-114934154D01*
X91998220Y-114884537D01*
X92064533Y-114858947D01*
X92216515Y-114800298D01*
X92419232Y-114683451D01*
X92601537Y-114536780D01*
X92678352Y-114452544D01*
X92682448Y-114448264D01*
X95318941Y-111821290D01*
X95321331Y-111818972D01*
X95403850Y-111741068D01*
X95425906Y-111712743D01*
X95545351Y-111559348D01*
X95657737Y-111358324D01*
X95657737Y-111358322D01*
X95657739Y-111358320D01*
X95738431Y-111142606D01*
X95785570Y-110917169D01*
X95797376Y-110700000D01*
X98286296Y-110700000D01*
X98307034Y-110870800D01*
X98368044Y-111031672D01*
X98368045Y-111031674D01*
X98368046Y-111031675D01*
X98465785Y-111173273D01*
X98594570Y-111287367D01*
X98746917Y-111367325D01*
X98913972Y-111408500D01*
X98913974Y-111408500D01*
X98942754Y-111408500D01*
X99001309Y-111422933D01*
X99046450Y-111462924D01*
X99067835Y-111519312D01*
X99060566Y-111579180D01*
X99026308Y-111628812D01*
X98915786Y-111726726D01*
X98818044Y-111868327D01*
X98757034Y-112029199D01*
X98736296Y-112200000D01*
X98757034Y-112370800D01*
X98818044Y-112531672D01*
X98818045Y-112531674D01*
X98818046Y-112531675D01*
X98915785Y-112673273D01*
X99044570Y-112787367D01*
X99196917Y-112867325D01*
X99363972Y-112908500D01*
X99536028Y-112908500D01*
X99536029Y-112908500D01*
X99551247Y-112904748D01*
X99595465Y-112893849D01*
X99655771Y-112893849D01*
X99709171Y-112921875D01*
X99743430Y-112971507D01*
X99750699Y-113031375D01*
X99736296Y-113149999D01*
X99757034Y-113320800D01*
X99818044Y-113481672D01*
X99818045Y-113481674D01*
X99818046Y-113481675D01*
X99915785Y-113623273D01*
X100044570Y-113737367D01*
X100196917Y-113817325D01*
X100363972Y-113858500D01*
X100536026Y-113858500D01*
X100536028Y-113858500D01*
X100570514Y-113850000D01*
X105436296Y-113850000D01*
X105457034Y-114020800D01*
X105518044Y-114181672D01*
X105518045Y-114181674D01*
X105518046Y-114181675D01*
X105615785Y-114323273D01*
X105744570Y-114437367D01*
X105896917Y-114517325D01*
X106063972Y-114558500D01*
X106236026Y-114558500D01*
X106236028Y-114558500D01*
X106403083Y-114517325D01*
X106555430Y-114437367D01*
X106684215Y-114323273D01*
X106781954Y-114181675D01*
X106842965Y-114020801D01*
X106863704Y-113850000D01*
X106858732Y-113809052D01*
X106866001Y-113749185D01*
X106900260Y-113699552D01*
X106953660Y-113671526D01*
X107013961Y-113671526D01*
X107163972Y-113708500D01*
X107336026Y-113708500D01*
X107336028Y-113708500D01*
X107503083Y-113667325D01*
X107655430Y-113587367D01*
X107680677Y-113565000D01*
X109036844Y-113565000D01*
X109055436Y-113789368D01*
X109055436Y-113789371D01*
X109055437Y-113789372D01*
X109110702Y-114007611D01*
X109110703Y-114007614D01*
X109110704Y-114007616D01*
X109122250Y-114033938D01*
X109201139Y-114213790D01*
X109241668Y-114275824D01*
X109324278Y-114402268D01*
X109434496Y-114521996D01*
X109476762Y-114567908D01*
X109642361Y-114696800D01*
X109654424Y-114706189D01*
X109852426Y-114813342D01*
X110065365Y-114886444D01*
X110287431Y-114923500D01*
X110512566Y-114923500D01*
X110512569Y-114923500D01*
X110734635Y-114886444D01*
X110947574Y-114813342D01*
X111145576Y-114706189D01*
X111323240Y-114567906D01*
X111475722Y-114402268D01*
X111598860Y-114213791D01*
X111689296Y-114007616D01*
X111744564Y-113789368D01*
X111763156Y-113565000D01*
X111744564Y-113340632D01*
X111689296Y-113122384D01*
X111598860Y-112916209D01*
X111475722Y-112727732D01*
X111332523Y-112572178D01*
X111303287Y-112518575D01*
X111302684Y-112457519D01*
X111330859Y-112403348D01*
X111381188Y-112368787D01*
X111496204Y-112325889D01*
X111613261Y-112238261D01*
X111700889Y-112121204D01*
X111751989Y-111984201D01*
X111758500Y-111923638D01*
X111758500Y-110126362D01*
X111751989Y-110065799D01*
X111700889Y-109928796D01*
X111700888Y-109928794D01*
X111613261Y-109811738D01*
X111496205Y-109724111D01*
X111427702Y-109698561D01*
X111359201Y-109673011D01*
X111298638Y-109666500D01*
X109501362Y-109666500D01*
X109440799Y-109673011D01*
X109303794Y-109724111D01*
X109186738Y-109811738D01*
X109099111Y-109928794D01*
X109048011Y-110065799D01*
X109041500Y-110126362D01*
X109041500Y-111923638D01*
X109048011Y-111984200D01*
X109099111Y-112121205D01*
X109186738Y-112238261D01*
X109303794Y-112325888D01*
X109303795Y-112325888D01*
X109303796Y-112325889D01*
X109418809Y-112368787D01*
X109469140Y-112403348D01*
X109497315Y-112457519D01*
X109496712Y-112518574D01*
X109467475Y-112572178D01*
X109324281Y-112727728D01*
X109201139Y-112916209D01*
X109110702Y-113122388D01*
X109055437Y-113340627D01*
X109055436Y-113340632D01*
X109036844Y-113565000D01*
X107680677Y-113565000D01*
X107784215Y-113473273D01*
X107881954Y-113331675D01*
X107942965Y-113170801D01*
X107963704Y-113000000D01*
X107942965Y-112829199D01*
X107904484Y-112727731D01*
X107881955Y-112668327D01*
X107881954Y-112668325D01*
X107784215Y-112526727D01*
X107655430Y-112412633D01*
X107503083Y-112332675D01*
X107336028Y-112291500D01*
X107163972Y-112291500D01*
X106996917Y-112332675D01*
X106996916Y-112332675D01*
X106996914Y-112332676D01*
X106844571Y-112412632D01*
X106715786Y-112526726D01*
X106618044Y-112668327D01*
X106557034Y-112829199D01*
X106536296Y-112999997D01*
X106541268Y-113040948D01*
X106533998Y-113100816D01*
X106499739Y-113150447D01*
X106446339Y-113178473D01*
X106386035Y-113178473D01*
X106236028Y-113141500D01*
X106063972Y-113141500D01*
X105896917Y-113182675D01*
X105896916Y-113182675D01*
X105896914Y-113182676D01*
X105744571Y-113262632D01*
X105615786Y-113376726D01*
X105518044Y-113518327D01*
X105457034Y-113679199D01*
X105436296Y-113850000D01*
X100570514Y-113850000D01*
X100703083Y-113817325D01*
X100855430Y-113737367D01*
X100984215Y-113623273D01*
X101081954Y-113481675D01*
X101142965Y-113320801D01*
X101163704Y-113150000D01*
X101142965Y-112979199D01*
X101100537Y-112867325D01*
X101081955Y-112818327D01*
X101081954Y-112818325D01*
X100984215Y-112676727D01*
X100855430Y-112562633D01*
X100703083Y-112482675D01*
X100536028Y-112441500D01*
X100363972Y-112441500D01*
X100363971Y-112441500D01*
X100304533Y-112456149D01*
X100244226Y-112456148D01*
X100190827Y-112428121D01*
X100156569Y-112378489D01*
X100149300Y-112318624D01*
X100163704Y-112200000D01*
X100142965Y-112029199D01*
X100081954Y-111868325D01*
X99984215Y-111726727D01*
X99855430Y-111612633D01*
X99703083Y-111532675D01*
X99536028Y-111491500D01*
X99507246Y-111491500D01*
X99448691Y-111477067D01*
X99403550Y-111437076D01*
X99382165Y-111380688D01*
X99389434Y-111320820D01*
X99423692Y-111271188D01*
X99534215Y-111173273D01*
X99631954Y-111031675D01*
X99692965Y-110870801D01*
X99713704Y-110700000D01*
X99692965Y-110529199D01*
X99641948Y-110394679D01*
X99633761Y-110350000D01*
X99641949Y-110305320D01*
X99668699Y-110234786D01*
X99692965Y-110170801D01*
X99713704Y-110000000D01*
X99692965Y-109829199D01*
X99657711Y-109736243D01*
X99652071Y-109666358D01*
X99684656Y-109604277D01*
X99745376Y-109569224D01*
X99753083Y-109567325D01*
X99905430Y-109487367D01*
X100034215Y-109373273D01*
X100131954Y-109231675D01*
X100143852Y-109200299D01*
X100178111Y-109150667D01*
X100179382Y-109150000D01*
X106686296Y-109150000D01*
X106707034Y-109320800D01*
X106768044Y-109481672D01*
X106768045Y-109481674D01*
X106768046Y-109481675D01*
X106865785Y-109623273D01*
X106994570Y-109737367D01*
X107146917Y-109817325D01*
X107313972Y-109858500D01*
X107486026Y-109858500D01*
X107486028Y-109858500D01*
X107653083Y-109817325D01*
X107805430Y-109737367D01*
X107934215Y-109623273D01*
X108031954Y-109481675D01*
X108092965Y-109320801D01*
X108113704Y-109150000D01*
X108092965Y-108979199D01*
X108031954Y-108818325D01*
X107934215Y-108676727D01*
X107805430Y-108562633D01*
X107653083Y-108482675D01*
X107486028Y-108441500D01*
X107313972Y-108441500D01*
X107146917Y-108482675D01*
X107146916Y-108482675D01*
X107146914Y-108482676D01*
X106994571Y-108562632D01*
X106876397Y-108667325D01*
X106865785Y-108676727D01*
X106837762Y-108717325D01*
X106768044Y-108818327D01*
X106707034Y-108979199D01*
X106686296Y-109150000D01*
X100179382Y-109150000D01*
X100231512Y-109122641D01*
X100253083Y-109117325D01*
X100405430Y-109037367D01*
X100534215Y-108923273D01*
X100631954Y-108781675D01*
X100631954Y-108781672D01*
X100640645Y-108769083D01*
X100642792Y-108770564D01*
X100662351Y-108742228D01*
X100690986Y-108727201D01*
X100689535Y-108724436D01*
X100855428Y-108637368D01*
X100855427Y-108637368D01*
X100855430Y-108637367D01*
X100984215Y-108523273D01*
X101081954Y-108381675D01*
X101142965Y-108220801D01*
X101163704Y-108050000D01*
X101142965Y-107879199D01*
X101121755Y-107823273D01*
X101081955Y-107718327D01*
X101070300Y-107701442D01*
X100984215Y-107576727D01*
X100954047Y-107550000D01*
X108236296Y-107550000D01*
X108257034Y-107720800D01*
X108318044Y-107881672D01*
X108318045Y-107881674D01*
X108318046Y-107881675D01*
X108415785Y-108023273D01*
X108544570Y-108137367D01*
X108696917Y-108217325D01*
X108863972Y-108258500D01*
X109036026Y-108258500D01*
X109036028Y-108258500D01*
X109203083Y-108217325D01*
X109355430Y-108137367D01*
X109484215Y-108023273D01*
X109581954Y-107881675D01*
X109642965Y-107720801D01*
X109663704Y-107550000D01*
X109642965Y-107379199D01*
X109628668Y-107341500D01*
X109581955Y-107218327D01*
X109581954Y-107218325D01*
X109534792Y-107149999D01*
X110286296Y-107149999D01*
X110307034Y-107320800D01*
X110368044Y-107481672D01*
X110368045Y-107481674D01*
X110368046Y-107481675D01*
X110465785Y-107623273D01*
X110594570Y-107737367D01*
X110746917Y-107817325D01*
X110913972Y-107858500D01*
X111086026Y-107858500D01*
X111086028Y-107858500D01*
X111253083Y-107817325D01*
X111405430Y-107737367D01*
X111534215Y-107623273D01*
X111631954Y-107481675D01*
X111660048Y-107407595D01*
X111698960Y-107354037D01*
X111759653Y-107327597D01*
X111825373Y-107335577D01*
X111877976Y-107375772D01*
X111902941Y-107437087D01*
X111907034Y-107470801D01*
X111958050Y-107605321D01*
X111966238Y-107650000D01*
X111958050Y-107694679D01*
X111907035Y-107829197D01*
X111886296Y-107999999D01*
X111907034Y-108170800D01*
X111968044Y-108331672D01*
X111968045Y-108331674D01*
X111968046Y-108331675D01*
X112065785Y-108473273D01*
X112194570Y-108587367D01*
X112346917Y-108667325D01*
X112513972Y-108708500D01*
X112686026Y-108708500D01*
X112686028Y-108708500D01*
X112853083Y-108667325D01*
X113005430Y-108587367D01*
X113134215Y-108473273D01*
X113231954Y-108331675D01*
X113243967Y-108299999D01*
X125736296Y-108299999D01*
X125757034Y-108470800D01*
X125818044Y-108631672D01*
X125818045Y-108631674D01*
X125818046Y-108631675D01*
X125915785Y-108773273D01*
X126044570Y-108887367D01*
X126196917Y-108967325D01*
X126363972Y-109008500D01*
X126536026Y-109008500D01*
X126536028Y-109008500D01*
X126703083Y-108967325D01*
X126855430Y-108887367D01*
X126984215Y-108773273D01*
X127081954Y-108631675D01*
X127142965Y-108470801D01*
X127163704Y-108300000D01*
X127151523Y-108199687D01*
X127162770Y-108130485D01*
X127209262Y-108078006D01*
X127276605Y-108058500D01*
X127386026Y-108058500D01*
X127386028Y-108058500D01*
X127553083Y-108017325D01*
X127705430Y-107937367D01*
X127834215Y-107823273D01*
X127931954Y-107681675D01*
X127992965Y-107520801D01*
X128013704Y-107350000D01*
X127992965Y-107179199D01*
X127968399Y-107114422D01*
X127931955Y-107018327D01*
X127928216Y-107012910D01*
X127834215Y-106876727D01*
X127705430Y-106762633D01*
X127553083Y-106682675D01*
X127386028Y-106641500D01*
X127213972Y-106641500D01*
X127046917Y-106682675D01*
X127046916Y-106682675D01*
X127046914Y-106682676D01*
X126894571Y-106762632D01*
X126818168Y-106830319D01*
X126765785Y-106876727D01*
X126761679Y-106882676D01*
X126668044Y-107018327D01*
X126607034Y-107179199D01*
X126586296Y-107350000D01*
X126598476Y-107450313D01*
X126587230Y-107519515D01*
X126540738Y-107571994D01*
X126473395Y-107591500D01*
X126363972Y-107591500D01*
X126196917Y-107632675D01*
X126196916Y-107632675D01*
X126196914Y-107632676D01*
X126044571Y-107712632D01*
X125926397Y-107817325D01*
X125915785Y-107826727D01*
X125891001Y-107862632D01*
X125818044Y-107968327D01*
X125757034Y-108129199D01*
X125736296Y-108299999D01*
X113243967Y-108299999D01*
X113292965Y-108170801D01*
X113313704Y-108000000D01*
X113292965Y-107829199D01*
X113241948Y-107694679D01*
X113233761Y-107650000D01*
X113241949Y-107605320D01*
X113271672Y-107526947D01*
X113292965Y-107470801D01*
X113313704Y-107300000D01*
X113292965Y-107129199D01*
X113272116Y-107074225D01*
X113231955Y-106968327D01*
X113211306Y-106938412D01*
X113134215Y-106826727D01*
X113005430Y-106712633D01*
X112886093Y-106650000D01*
X117886296Y-106650000D01*
X117907034Y-106820800D01*
X117968044Y-106981672D01*
X117968045Y-106981674D01*
X117968046Y-106981675D01*
X118065785Y-107123273D01*
X118194570Y-107237367D01*
X118346917Y-107317325D01*
X118513972Y-107358500D01*
X118686026Y-107358500D01*
X118686028Y-107358500D01*
X118853083Y-107317325D01*
X119005430Y-107237367D01*
X119134215Y-107123273D01*
X119231954Y-106981675D01*
X119292965Y-106820801D01*
X119313704Y-106650000D01*
X119292965Y-106479199D01*
X119275245Y-106432475D01*
X119231955Y-106318327D01*
X119231954Y-106318325D01*
X119134215Y-106176727D01*
X119133928Y-106176473D01*
X119066643Y-106116863D01*
X119030364Y-106061486D01*
X119027166Y-105995361D01*
X119057932Y-105936742D01*
X119114169Y-105901812D01*
X119180350Y-105900213D01*
X119213972Y-105908500D01*
X119386026Y-105908500D01*
X119386028Y-105908500D01*
X119553083Y-105867325D01*
X119705430Y-105787367D01*
X119834215Y-105673273D01*
X119931954Y-105531675D01*
X119992965Y-105370801D01*
X120013704Y-105200000D01*
X119992965Y-105029199D01*
X119974942Y-104981675D01*
X119960911Y-104944679D01*
X119952723Y-104899998D01*
X119960911Y-104855318D01*
X119992965Y-104770801D01*
X120013704Y-104600000D01*
X119992965Y-104429199D01*
X119970514Y-104370000D01*
X122716619Y-104370000D01*
X122736091Y-104567701D01*
X122793758Y-104757802D01*
X122887406Y-104933007D01*
X123013431Y-105086568D01*
X123166992Y-105212593D01*
X123166996Y-105212595D01*
X123342196Y-105306241D01*
X123437247Y-105335074D01*
X123532298Y-105363908D01*
X123680450Y-105378500D01*
X123680453Y-105378500D01*
X124879547Y-105378500D01*
X124879550Y-105378500D01*
X125027701Y-105363908D01*
X125045529Y-105358500D01*
X125217804Y-105306241D01*
X125393004Y-105212595D01*
X125393005Y-105212593D01*
X125393007Y-105212593D01*
X125546568Y-105086568D01*
X125672593Y-104933007D01*
X125677796Y-104923273D01*
X125766241Y-104757804D01*
X125823908Y-104567701D01*
X125843380Y-104370000D01*
X125828223Y-104216108D01*
X125823908Y-104172298D01*
X125785463Y-104045562D01*
X125766241Y-103982196D01*
X125680378Y-103821557D01*
X125672593Y-103806992D01*
X125546568Y-103653431D01*
X125393006Y-103527406D01*
X125261486Y-103457107D01*
X125211229Y-103408051D01*
X125195038Y-103339712D01*
X125217943Y-103273325D01*
X125280971Y-103184037D01*
X125329346Y-103047921D01*
X125339204Y-102903801D01*
X125309814Y-102762366D01*
X125243354Y-102634105D01*
X125217100Y-102605994D01*
X125144755Y-102528530D01*
X125021330Y-102453475D01*
X125021329Y-102453474D01*
X125021328Y-102453474D01*
X124882228Y-102414500D01*
X124774051Y-102414500D01*
X124774048Y-102414500D01*
X124666890Y-102429228D01*
X124534389Y-102486782D01*
X124422336Y-102577944D01*
X124339029Y-102695963D01*
X124290654Y-102832079D01*
X124285225Y-102911456D01*
X124280796Y-102976199D01*
X124310122Y-103117325D01*
X124310187Y-103117637D01*
X124341222Y-103177532D01*
X124355276Y-103239802D01*
X124337006Y-103300967D01*
X124291103Y-103345329D01*
X124229349Y-103361500D01*
X123680450Y-103361500D01*
X123532298Y-103376091D01*
X123342197Y-103433758D01*
X123166992Y-103527406D01*
X123013431Y-103653431D01*
X122887406Y-103806992D01*
X122793758Y-103982197D01*
X122736091Y-104172298D01*
X122716619Y-104370000D01*
X119970514Y-104370000D01*
X119931955Y-104268327D01*
X119919305Y-104250000D01*
X119834215Y-104126727D01*
X119705430Y-104012633D01*
X119553083Y-103932675D01*
X119386028Y-103891500D01*
X119213972Y-103891500D01*
X119046917Y-103932675D01*
X119046916Y-103932675D01*
X119046914Y-103932676D01*
X118894571Y-104012632D01*
X118765786Y-104126726D01*
X118668044Y-104268327D01*
X118607034Y-104429199D01*
X118586296Y-104600000D01*
X118607035Y-104770802D01*
X118639088Y-104855321D01*
X118647276Y-104900000D01*
X118639088Y-104944679D01*
X118607035Y-105029197D01*
X118586296Y-105199999D01*
X118607034Y-105370800D01*
X118668044Y-105531672D01*
X118668045Y-105531674D01*
X118668046Y-105531675D01*
X118765785Y-105673273D01*
X118827522Y-105727967D01*
X118833356Y-105733136D01*
X118869635Y-105788512D01*
X118872834Y-105854637D01*
X118842068Y-105913256D01*
X118785831Y-105948187D01*
X118719649Y-105949786D01*
X118686028Y-105941500D01*
X118513972Y-105941500D01*
X118346917Y-105982675D01*
X118346916Y-105982675D01*
X118346914Y-105982676D01*
X118194571Y-106062632D01*
X118065786Y-106176726D01*
X117968044Y-106318327D01*
X117907034Y-106479199D01*
X117886296Y-106650000D01*
X112886093Y-106650000D01*
X112853083Y-106632675D01*
X112686028Y-106591500D01*
X112513972Y-106591500D01*
X112346917Y-106632675D01*
X112346916Y-106632675D01*
X112346914Y-106632676D01*
X112194571Y-106712632D01*
X112065786Y-106826726D01*
X111968045Y-106968326D01*
X111939951Y-107042405D01*
X111901038Y-107095963D01*
X111840344Y-107122402D01*
X111774624Y-107114422D01*
X111722021Y-107074225D01*
X111697058Y-107012914D01*
X111692965Y-106979199D01*
X111670391Y-106919678D01*
X111662204Y-106875000D01*
X111670392Y-106830319D01*
X111692965Y-106770801D01*
X111713704Y-106600000D01*
X111692965Y-106429199D01*
X111670712Y-106370523D01*
X111631955Y-106268327D01*
X111597443Y-106218328D01*
X111534215Y-106126727D01*
X111405430Y-106012633D01*
X111253083Y-105932675D01*
X111086028Y-105891500D01*
X110913972Y-105891500D01*
X110746917Y-105932675D01*
X110746916Y-105932675D01*
X110746914Y-105932676D01*
X110594571Y-106012632D01*
X110465786Y-106126726D01*
X110368044Y-106268327D01*
X110307034Y-106429199D01*
X110286296Y-106599999D01*
X110307034Y-106770800D01*
X110329607Y-106830319D01*
X110337795Y-106874998D01*
X110329608Y-106919678D01*
X110307034Y-106979201D01*
X110286296Y-107149999D01*
X109534792Y-107149999D01*
X109484215Y-107076727D01*
X109355430Y-106962633D01*
X109203083Y-106882675D01*
X109036028Y-106841500D01*
X108863972Y-106841500D01*
X108696917Y-106882675D01*
X108696916Y-106882675D01*
X108696914Y-106882676D01*
X108544571Y-106962632D01*
X108425266Y-107068327D01*
X108415785Y-107076727D01*
X108384258Y-107122402D01*
X108318044Y-107218327D01*
X108257034Y-107379199D01*
X108236296Y-107550000D01*
X100954047Y-107550000D01*
X100855430Y-107462633D01*
X100703083Y-107382675D01*
X100536028Y-107341500D01*
X100363972Y-107341500D01*
X100196917Y-107382675D01*
X100196916Y-107382675D01*
X100196914Y-107382676D01*
X100044571Y-107462632D01*
X99915783Y-107576728D01*
X99809354Y-107730916D01*
X99807211Y-107729437D01*
X99787660Y-107757761D01*
X99759015Y-107772804D01*
X99760464Y-107775565D01*
X99594571Y-107862632D01*
X99465783Y-107976728D01*
X99368044Y-108118325D01*
X99356145Y-108149701D01*
X99321888Y-108199331D01*
X99268491Y-108227357D01*
X99246916Y-108232675D01*
X99094571Y-108312632D01*
X98965786Y-108426726D01*
X98868044Y-108568327D01*
X98807034Y-108729199D01*
X98787830Y-108887367D01*
X98786296Y-108900000D01*
X98794471Y-108967325D01*
X98807035Y-109070802D01*
X98842287Y-109163756D01*
X98847929Y-109233637D01*
X98815349Y-109295716D01*
X98754634Y-109330772D01*
X98746919Y-109332673D01*
X98594571Y-109412632D01*
X98465786Y-109526726D01*
X98368044Y-109668327D01*
X98307034Y-109829199D01*
X98286296Y-110000000D01*
X98307035Y-110170802D01*
X98358050Y-110305321D01*
X98366238Y-110350000D01*
X98358050Y-110394679D01*
X98307035Y-110529197D01*
X98286296Y-110700000D01*
X95797376Y-110700000D01*
X95798072Y-110687196D01*
X95775648Y-110457977D01*
X95748152Y-110350000D01*
X95718814Y-110234786D01*
X95628881Y-110022764D01*
X95628879Y-110022760D01*
X95507910Y-109826773D01*
X95358692Y-109651337D01*
X95184657Y-109500487D01*
X94989809Y-109377693D01*
X94894840Y-109336359D01*
X94778632Y-109285781D01*
X94671259Y-109257369D01*
X94555982Y-109226865D01*
X94555979Y-109226864D01*
X94555977Y-109226864D01*
X94326987Y-109202301D01*
X94326984Y-109202301D01*
X94195508Y-109208216D01*
X94096900Y-109212654D01*
X93871037Y-109257684D01*
X93654574Y-109336359D01*
X93452505Y-109446865D01*
X93269476Y-109586660D01*
X93269474Y-109586661D01*
X93269474Y-109586662D01*
X93190918Y-109668327D01*
X93190461Y-109668802D01*
X93188834Y-109670462D01*
X90561407Y-112302896D01*
X90556033Y-112307973D01*
X90472353Y-112382507D01*
X90323557Y-112563082D01*
X90204345Y-112764413D01*
X90117554Y-112981707D01*
X90065261Y-113209774D01*
X90048711Y-113443160D01*
X90068301Y-113676328D01*
X90123560Y-113903692D01*
X90213172Y-114119833D01*
X90258969Y-114194929D01*
X90277386Y-114262069D01*
X90257337Y-114328739D01*
X90204945Y-114374586D01*
X90136204Y-114385613D01*
X90072100Y-114358452D01*
X89932793Y-114245643D01*
X89606795Y-114033938D01*
X89260451Y-113857467D01*
X88897563Y-113718167D01*
X88522099Y-113617562D01*
X88138170Y-113556753D01*
X87750000Y-113536410D01*
X87361829Y-113556753D01*
X86977900Y-113617562D01*
X86602436Y-113718167D01*
X86239548Y-113857467D01*
X85893205Y-114033938D01*
X85567206Y-114245643D01*
X85265118Y-114490270D01*
X84990270Y-114765118D01*
X84745643Y-115067206D01*
X84732173Y-115087949D01*
X84684875Y-115130987D01*
X84622542Y-115145263D01*
X84561229Y-115127101D01*
X84516727Y-115081179D01*
X84500500Y-115019325D01*
X84500500Y-114262485D01*
X84501673Y-114249372D01*
X84493520Y-114239375D01*
X84274099Y-113910134D01*
X84075144Y-113611603D01*
X84025104Y-113536410D01*
X83957316Y-113434549D01*
X83954705Y-113430457D01*
X83643406Y-112921186D01*
X83643277Y-112920975D01*
X83580808Y-112818327D01*
X83439156Y-112585566D01*
X83436832Y-112581582D01*
X83163123Y-112091646D01*
X83162923Y-112091286D01*
X82955280Y-111716740D01*
X82953156Y-111712743D01*
X82705724Y-111225976D01*
X82705465Y-111225462D01*
X82506359Y-110829293D01*
X82504468Y-110825363D01*
X82279554Y-110336356D01*
X82093138Y-109924693D01*
X82091480Y-109920861D01*
X82065708Y-109858500D01*
X81887996Y-109428494D01*
X81887814Y-109428049D01*
X81716277Y-109004386D01*
X81714890Y-109000798D01*
X81532038Y-108504056D01*
X81531761Y-108503291D01*
X81521000Y-108473273D01*
X81376382Y-108069866D01*
X81375150Y-108066254D01*
X81212784Y-107565452D01*
X81212418Y-107564305D01*
X81212409Y-107564275D01*
X81160921Y-107400000D01*
X88586296Y-107400000D01*
X88607034Y-107570800D01*
X88668044Y-107731672D01*
X88668045Y-107731674D01*
X88668046Y-107731675D01*
X88765785Y-107873273D01*
X88894570Y-107987367D01*
X89046917Y-108067325D01*
X89213972Y-108108500D01*
X89386026Y-108108500D01*
X89386028Y-108108500D01*
X89439210Y-108095392D01*
X89499513Y-108095392D01*
X89552913Y-108123418D01*
X89587172Y-108173050D01*
X89594441Y-108232918D01*
X89586296Y-108299999D01*
X89607034Y-108470800D01*
X89668044Y-108631672D01*
X89668045Y-108631674D01*
X89668046Y-108631675D01*
X89765785Y-108773273D01*
X89894570Y-108887367D01*
X90046917Y-108967325D01*
X90213972Y-109008500D01*
X90386026Y-109008500D01*
X90386028Y-109008500D01*
X90553083Y-108967325D01*
X90705430Y-108887367D01*
X90834215Y-108773273D01*
X90931954Y-108631675D01*
X90992965Y-108470801D01*
X91013704Y-108300000D01*
X90992965Y-108129199D01*
X90970463Y-108069866D01*
X90931955Y-107968327D01*
X90931954Y-107968325D01*
X90834215Y-107826727D01*
X90705430Y-107712633D01*
X90553083Y-107632675D01*
X90386028Y-107591500D01*
X90213972Y-107591500D01*
X90213971Y-107591500D01*
X90160791Y-107604607D01*
X90100484Y-107604606D01*
X90047084Y-107576579D01*
X90012826Y-107526947D01*
X90005558Y-107467083D01*
X90013704Y-107400000D01*
X89992965Y-107229199D01*
X89969575Y-107167524D01*
X89943966Y-107099999D01*
X93036296Y-107099999D01*
X93057034Y-107270800D01*
X93118044Y-107431672D01*
X93118045Y-107431674D01*
X93118046Y-107431675D01*
X93215785Y-107573273D01*
X93344570Y-107687367D01*
X93496917Y-107767325D01*
X93663972Y-107808500D01*
X93836026Y-107808500D01*
X93836028Y-107808500D01*
X94003083Y-107767325D01*
X94155430Y-107687367D01*
X94284215Y-107573273D01*
X94381954Y-107431675D01*
X94442965Y-107270801D01*
X94442965Y-107270800D01*
X94448390Y-107256496D01*
X94449982Y-107257100D01*
X94469972Y-107210178D01*
X94527673Y-107170348D01*
X94597725Y-107167524D01*
X94763972Y-107208500D01*
X94936026Y-107208500D01*
X94936028Y-107208500D01*
X95102274Y-107167524D01*
X95172323Y-107170347D01*
X95230023Y-107210173D01*
X95250017Y-107257099D01*
X95251610Y-107256496D01*
X95318044Y-107431672D01*
X95318045Y-107431674D01*
X95318046Y-107431675D01*
X95415785Y-107573273D01*
X95544570Y-107687367D01*
X95696917Y-107767325D01*
X95863972Y-107808500D01*
X96036026Y-107808500D01*
X96036028Y-107808500D01*
X96203083Y-107767325D01*
X96355430Y-107687367D01*
X96484215Y-107573273D01*
X96581954Y-107431675D01*
X96635090Y-107291565D01*
X96669347Y-107241934D01*
X96722747Y-107213907D01*
X96783055Y-107213907D01*
X96796912Y-107217322D01*
X96796917Y-107217325D01*
X96963972Y-107258500D01*
X97136026Y-107258500D01*
X97136028Y-107258500D01*
X97303083Y-107217325D01*
X97303088Y-107217322D01*
X97316944Y-107213907D01*
X97377252Y-107213907D01*
X97430652Y-107241934D01*
X97464910Y-107291566D01*
X97518044Y-107431672D01*
X97518045Y-107431674D01*
X97518046Y-107431675D01*
X97615785Y-107573273D01*
X97744570Y-107687367D01*
X97896917Y-107767325D01*
X98063972Y-107808500D01*
X98236026Y-107808500D01*
X98236028Y-107808500D01*
X98403083Y-107767325D01*
X98555430Y-107687367D01*
X98684215Y-107573273D01*
X98781954Y-107431675D01*
X98842965Y-107270801D01*
X98842965Y-107270798D01*
X98843302Y-107269911D01*
X98885420Y-107213861D01*
X98950975Y-107189000D01*
X99019668Y-107203023D01*
X99046917Y-107217325D01*
X99213972Y-107258500D01*
X99386026Y-107258500D01*
X99386028Y-107258500D01*
X99553083Y-107217325D01*
X99705430Y-107137367D01*
X99834215Y-107023273D01*
X99931954Y-106881675D01*
X99992965Y-106720801D01*
X100013704Y-106550000D01*
X99992965Y-106379199D01*
X99974003Y-106329199D01*
X99931955Y-106218327D01*
X99931954Y-106218325D01*
X99834215Y-106076727D01*
X99705430Y-105962633D01*
X99553083Y-105882675D01*
X99386028Y-105841500D01*
X99213972Y-105841500D01*
X99046917Y-105882675D01*
X99046916Y-105882675D01*
X99046914Y-105882676D01*
X98894571Y-105962632D01*
X98765786Y-106076726D01*
X98668044Y-106218327D01*
X98606697Y-106380088D01*
X98564579Y-106436138D01*
X98499024Y-106460999D01*
X98430331Y-106446976D01*
X98403083Y-106432675D01*
X98236028Y-106391500D01*
X98063972Y-106391500D01*
X97896917Y-106432675D01*
X97896915Y-106432675D01*
X97883055Y-106436092D01*
X97822747Y-106436092D01*
X97769347Y-106408065D01*
X97735089Y-106358432D01*
X97724002Y-106329199D01*
X97681954Y-106218325D01*
X97584215Y-106076727D01*
X97455430Y-105962633D01*
X97303083Y-105882675D01*
X97136028Y-105841500D01*
X96963972Y-105841500D01*
X96796917Y-105882675D01*
X96796916Y-105882675D01*
X96796914Y-105882676D01*
X96644571Y-105962632D01*
X96515786Y-106076726D01*
X96418044Y-106218327D01*
X96364910Y-106358433D01*
X96330652Y-106408065D01*
X96277252Y-106436092D01*
X96216944Y-106436092D01*
X96203085Y-106432676D01*
X96203083Y-106432675D01*
X96036028Y-106391500D01*
X95863972Y-106391500D01*
X95796765Y-106408065D01*
X95711020Y-106429199D01*
X95697728Y-106432475D01*
X95627673Y-106429651D01*
X95569972Y-106389821D01*
X95549983Y-106342899D01*
X95548390Y-106343504D01*
X95481955Y-106168327D01*
X95479007Y-106164056D01*
X95384215Y-106026727D01*
X95255430Y-105912633D01*
X95103083Y-105832675D01*
X94936028Y-105791500D01*
X94763972Y-105791500D01*
X94596917Y-105832675D01*
X94596916Y-105832675D01*
X94596914Y-105832676D01*
X94444571Y-105912632D01*
X94315786Y-106026726D01*
X94218044Y-106168327D01*
X94151610Y-106343504D01*
X94150017Y-106342900D01*
X94130022Y-106389827D01*
X94072323Y-106429652D01*
X94002271Y-106432474D01*
X93836028Y-106391500D01*
X93663972Y-106391500D01*
X93496917Y-106432675D01*
X93496916Y-106432675D01*
X93496914Y-106432676D01*
X93344571Y-106512632D01*
X93230061Y-106614079D01*
X93215785Y-106626727D01*
X93199721Y-106650000D01*
X93118044Y-106768327D01*
X93057034Y-106929199D01*
X93036296Y-107099999D01*
X89943966Y-107099999D01*
X89931955Y-107068327D01*
X89931954Y-107068325D01*
X89834215Y-106926727D01*
X89705430Y-106812633D01*
X89553083Y-106732675D01*
X89386028Y-106691500D01*
X89213972Y-106691500D01*
X89046917Y-106732675D01*
X89046916Y-106732675D01*
X89046914Y-106732676D01*
X88894571Y-106812632D01*
X88894569Y-106812633D01*
X88894570Y-106812633D01*
X88765785Y-106926727D01*
X88741001Y-106962632D01*
X88668044Y-107068327D01*
X88607034Y-107229199D01*
X88586296Y-107400000D01*
X81160921Y-107400000D01*
X81145093Y-107349500D01*
X81141537Y-107288325D01*
X81167262Y-107232704D01*
X81216184Y-107195798D01*
X81276730Y-107186336D01*
X81287704Y-107187333D01*
X81287707Y-107187334D01*
X81355561Y-107193500D01*
X83884438Y-107193499D01*
X83884439Y-107193499D01*
X83907056Y-107191443D01*
X83952293Y-107187334D01*
X84108443Y-107138676D01*
X84248411Y-107054062D01*
X84364062Y-106938411D01*
X84448676Y-106798443D01*
X84497334Y-106642293D01*
X84503500Y-106574439D01*
X84503499Y-104045562D01*
X84502377Y-104033218D01*
X84499359Y-104000000D01*
X86236793Y-104000000D01*
X86257531Y-104170800D01*
X86318541Y-104331672D01*
X86318542Y-104331674D01*
X86318543Y-104331675D01*
X86416282Y-104473273D01*
X86545067Y-104587367D01*
X86697414Y-104667325D01*
X86864469Y-104708500D01*
X87036523Y-104708500D01*
X87036525Y-104708500D01*
X87203580Y-104667325D01*
X87203582Y-104667323D01*
X87218435Y-104663663D01*
X87219205Y-104666787D01*
X87250217Y-104659130D01*
X87281292Y-104666787D01*
X87282063Y-104663663D01*
X87296914Y-104667323D01*
X87296917Y-104667325D01*
X87463972Y-104708500D01*
X87636026Y-104708500D01*
X87636028Y-104708500D01*
X87803083Y-104667325D01*
X87803085Y-104667323D01*
X87817938Y-104663663D01*
X87818708Y-104666787D01*
X87849720Y-104659130D01*
X87880795Y-104666787D01*
X87881566Y-104663663D01*
X87896417Y-104667323D01*
X87896420Y-104667325D01*
X88063475Y-104708500D01*
X88235529Y-104708500D01*
X88235531Y-104708500D01*
X88402586Y-104667325D01*
X88435598Y-104649999D01*
X89086296Y-104649999D01*
X89107034Y-104820800D01*
X89168044Y-104981672D01*
X89168045Y-104981674D01*
X89168046Y-104981675D01*
X89265785Y-105123273D01*
X89394570Y-105237367D01*
X89546917Y-105317325D01*
X89713972Y-105358500D01*
X89886026Y-105358500D01*
X89886028Y-105358500D01*
X90053083Y-105317325D01*
X90053085Y-105317323D01*
X90067937Y-105313663D01*
X90068106Y-105314352D01*
X90088428Y-105308018D01*
X90133775Y-105310760D01*
X90146407Y-105313873D01*
X90146410Y-105313875D01*
X90313465Y-105355050D01*
X90485519Y-105355050D01*
X90485521Y-105355050D01*
X90652576Y-105313875D01*
X90652578Y-105313873D01*
X90667431Y-105310213D01*
X90668201Y-105313337D01*
X90699213Y-105305680D01*
X90730288Y-105313337D01*
X90731059Y-105310213D01*
X90745910Y-105313873D01*
X90745913Y-105313875D01*
X90912968Y-105355050D01*
X91085022Y-105355050D01*
X91085024Y-105355050D01*
X91252079Y-105313875D01*
X91252081Y-105313873D01*
X91266934Y-105310213D01*
X91267704Y-105313337D01*
X91298716Y-105305680D01*
X91329791Y-105313337D01*
X91330562Y-105310213D01*
X91345413Y-105313873D01*
X91345416Y-105313875D01*
X91512471Y-105355050D01*
X91684525Y-105355050D01*
X91684527Y-105355050D01*
X91851582Y-105313875D01*
X91851584Y-105313873D01*
X91862744Y-105311123D01*
X91908087Y-105308381D01*
X91929947Y-105315193D01*
X91930046Y-105314794D01*
X91944898Y-105318454D01*
X91944901Y-105318456D01*
X92111956Y-105359631D01*
X92284010Y-105359631D01*
X92284012Y-105359631D01*
X92451067Y-105318456D01*
X92451069Y-105318454D01*
X92465922Y-105314794D01*
X92466188Y-105315873D01*
X92484435Y-105310186D01*
X92529786Y-105312927D01*
X92544398Y-105316528D01*
X92544401Y-105316530D01*
X92711456Y-105357705D01*
X92883510Y-105357705D01*
X92883512Y-105357705D01*
X93050567Y-105316530D01*
X93202914Y-105236572D01*
X93300947Y-105149721D01*
X93354345Y-105121696D01*
X93414651Y-105121696D01*
X93563972Y-105158500D01*
X93736026Y-105158500D01*
X93736028Y-105158500D01*
X93903083Y-105117325D01*
X94055430Y-105037367D01*
X94184215Y-104923273D01*
X94281954Y-104781675D01*
X94342965Y-104620801D01*
X94363704Y-104450000D01*
X94363704Y-104449999D01*
X95236296Y-104449999D01*
X95257034Y-104620800D01*
X95318044Y-104781672D01*
X95318045Y-104781674D01*
X95318046Y-104781675D01*
X95415785Y-104923273D01*
X95544570Y-105037367D01*
X95696917Y-105117325D01*
X95863972Y-105158500D01*
X96036026Y-105158500D01*
X96036028Y-105158500D01*
X96203083Y-105117325D01*
X96355430Y-105037367D01*
X96484215Y-104923273D01*
X96581954Y-104781675D01*
X96642965Y-104620801D01*
X96663704Y-104450000D01*
X96651562Y-104350000D01*
X97786296Y-104350000D01*
X97807034Y-104520800D01*
X97868044Y-104681672D01*
X97868045Y-104681673D01*
X97868046Y-104681675D01*
X97965785Y-104823273D01*
X98094570Y-104937367D01*
X98246917Y-105017325D01*
X98413972Y-105058500D01*
X98586026Y-105058500D01*
X98586028Y-105058500D01*
X98753083Y-105017325D01*
X98905430Y-104937367D01*
X99034215Y-104823273D01*
X99119305Y-104700000D01*
X101036793Y-104700000D01*
X101057531Y-104870800D01*
X101118541Y-105031672D01*
X101118542Y-105031674D01*
X101118543Y-105031675D01*
X101216282Y-105173273D01*
X101345067Y-105287367D01*
X101497414Y-105367325D01*
X101664469Y-105408500D01*
X101836523Y-105408500D01*
X101836525Y-105408500D01*
X102003580Y-105367325D01*
X102003582Y-105367323D01*
X102018435Y-105363663D01*
X102019205Y-105366787D01*
X102050217Y-105359130D01*
X102081292Y-105366787D01*
X102082063Y-105363663D01*
X102096914Y-105367323D01*
X102096917Y-105367325D01*
X102263972Y-105408500D01*
X102436026Y-105408500D01*
X102436028Y-105408500D01*
X102496909Y-105393494D01*
X102557214Y-105393494D01*
X102610614Y-105421521D01*
X102628498Y-105437364D01*
X102628499Y-105437364D01*
X102628502Y-105437367D01*
X102780849Y-105517325D01*
X102947904Y-105558500D01*
X103119958Y-105558500D01*
X103119960Y-105558500D01*
X103287015Y-105517325D01*
X103439362Y-105437367D01*
X103442475Y-105434608D01*
X103495877Y-105406580D01*
X103556186Y-105406580D01*
X103563972Y-105408500D01*
X103736026Y-105408500D01*
X103736028Y-105408500D01*
X103903083Y-105367325D01*
X104055430Y-105287367D01*
X104128797Y-105222368D01*
X104182192Y-105194345D01*
X104242500Y-105194344D01*
X104295899Y-105222370D01*
X104406088Y-105319989D01*
X104558435Y-105399947D01*
X104725490Y-105441122D01*
X104897544Y-105441122D01*
X104897546Y-105441122D01*
X104968441Y-105423648D01*
X105028745Y-105423648D01*
X105082145Y-105451674D01*
X105116404Y-105501306D01*
X105123673Y-105561174D01*
X105106429Y-105703199D01*
X105127167Y-105874000D01*
X105188177Y-106034872D01*
X105188178Y-106034874D01*
X105188179Y-106034875D01*
X105285918Y-106176473D01*
X105414703Y-106290567D01*
X105567050Y-106370525D01*
X105734105Y-106411700D01*
X105906159Y-106411700D01*
X105906161Y-106411700D01*
X106073216Y-106370525D01*
X106082690Y-106365552D01*
X106141244Y-106351120D01*
X106199797Y-106365552D01*
X106209272Y-106370525D01*
X106376327Y-106411700D01*
X106548381Y-106411700D01*
X106548383Y-106411700D01*
X106636124Y-106390073D01*
X106681461Y-106387332D01*
X106724829Y-106400846D01*
X106851494Y-106467325D01*
X107018549Y-106508500D01*
X107190603Y-106508500D01*
X107190605Y-106508500D01*
X107357660Y-106467325D01*
X107484324Y-106400846D01*
X107527692Y-106387332D01*
X107573033Y-106390073D01*
X107660772Y-106411700D01*
X107832826Y-106411700D01*
X107832828Y-106411700D01*
X107999883Y-106370525D01*
X108152230Y-106290567D01*
X108281015Y-106176473D01*
X108378754Y-106034875D01*
X108439765Y-105874001D01*
X108460504Y-105703200D01*
X108439765Y-105532399D01*
X108409150Y-105451674D01*
X108378755Y-105371527D01*
X108378254Y-105370801D01*
X108281015Y-105229927D01*
X108152230Y-105115833D01*
X107999883Y-105035875D01*
X107832828Y-104994700D01*
X107660772Y-104994700D01*
X107493717Y-105035875D01*
X107493715Y-105035875D01*
X107493715Y-105035876D01*
X107367050Y-105102354D01*
X107323683Y-105115867D01*
X107278343Y-105113125D01*
X107190605Y-105091500D01*
X107018549Y-105091500D01*
X107018548Y-105091500D01*
X106930808Y-105113125D01*
X106885468Y-105115867D01*
X106842101Y-105102353D01*
X106715440Y-105035876D01*
X106715439Y-105035875D01*
X106715438Y-105035875D01*
X106548383Y-104994700D01*
X106376327Y-104994700D01*
X106320642Y-105008424D01*
X106209270Y-105035875D01*
X106199795Y-105040848D01*
X106141242Y-105055279D01*
X106082689Y-105040847D01*
X106073216Y-105035875D01*
X105977456Y-105012272D01*
X105934084Y-105001582D01*
X105875142Y-104968338D01*
X105841899Y-104909396D01*
X105843943Y-104841757D01*
X105880682Y-104784933D01*
X105950283Y-104723273D01*
X106048022Y-104581675D01*
X106109033Y-104420801D01*
X106129772Y-104250000D01*
X106109033Y-104079199D01*
X106096276Y-104045560D01*
X106048023Y-103918327D01*
X106048022Y-103918325D01*
X105950283Y-103776727D01*
X105821498Y-103662633D01*
X105669151Y-103582675D01*
X105502096Y-103541500D01*
X105330040Y-103541500D01*
X105162984Y-103582675D01*
X105162985Y-103582675D01*
X104998266Y-103669126D01*
X104949849Y-103683149D01*
X104899811Y-103677074D01*
X104856158Y-103651870D01*
X104755430Y-103562633D01*
X104603085Y-103482676D01*
X104603084Y-103482675D01*
X104603083Y-103482675D01*
X104436028Y-103441500D01*
X104263972Y-103441500D01*
X104096917Y-103482675D01*
X104096916Y-103482675D01*
X104096914Y-103482676D01*
X103944571Y-103562632D01*
X103825266Y-103668327D01*
X103815785Y-103676727D01*
X103811679Y-103682676D01*
X103718044Y-103818327D01*
X103683210Y-103910180D01*
X103656270Y-103952783D01*
X103614786Y-103981417D01*
X103565398Y-103991500D01*
X103563972Y-103991500D01*
X103396917Y-104032674D01*
X103396917Y-104032675D01*
X103244566Y-104112635D01*
X103241450Y-104115396D01*
X103188054Y-104143419D01*
X103127751Y-104143420D01*
X103119960Y-104141500D01*
X102947904Y-104141500D01*
X102947903Y-104141500D01*
X102887022Y-104156505D01*
X102826716Y-104156505D01*
X102773317Y-104128479D01*
X102755431Y-104112633D01*
X102649750Y-104057168D01*
X102603083Y-104032675D01*
X102436028Y-103991500D01*
X102263972Y-103991500D01*
X102155138Y-104018325D01*
X102082063Y-104036336D01*
X102081294Y-104033218D01*
X102050247Y-104040869D01*
X102019202Y-104033218D01*
X102018434Y-104036337D01*
X102003582Y-104032676D01*
X102003580Y-104032675D01*
X101836525Y-103991500D01*
X101664469Y-103991500D01*
X101497414Y-104032675D01*
X101497413Y-104032675D01*
X101497411Y-104032676D01*
X101345068Y-104112632D01*
X101216283Y-104226726D01*
X101118541Y-104368327D01*
X101057531Y-104529199D01*
X101036793Y-104700000D01*
X99119305Y-104700000D01*
X99131954Y-104681675D01*
X99147827Y-104639819D01*
X99174769Y-104597216D01*
X99216252Y-104568583D01*
X99265640Y-104558500D01*
X99286026Y-104558500D01*
X99286028Y-104558500D01*
X99453083Y-104517325D01*
X99605430Y-104437367D01*
X99734215Y-104323273D01*
X99831954Y-104181675D01*
X99892965Y-104020801D01*
X99913704Y-103850000D01*
X99892965Y-103679199D01*
X99835398Y-103527405D01*
X99831955Y-103518327D01*
X99831954Y-103518325D01*
X99734215Y-103376727D01*
X99605430Y-103262633D01*
X99605428Y-103262631D01*
X99531974Y-103224080D01*
X99486833Y-103184089D01*
X99465448Y-103127700D01*
X99472717Y-103067832D01*
X99485026Y-103049999D01*
X111886296Y-103049999D01*
X111907034Y-103220800D01*
X111968044Y-103381672D01*
X111968045Y-103381674D01*
X111968046Y-103381675D01*
X112065785Y-103523273D01*
X112194570Y-103637367D01*
X112346917Y-103717325D01*
X112513972Y-103758500D01*
X112686026Y-103758500D01*
X112686028Y-103758500D01*
X112853083Y-103717325D01*
X113005430Y-103637367D01*
X113134215Y-103523273D01*
X113231954Y-103381675D01*
X113292965Y-103220801D01*
X113292965Y-103220799D01*
X113293882Y-103218382D01*
X113328140Y-103168749D01*
X113381540Y-103140722D01*
X113441847Y-103140722D01*
X113487780Y-103152044D01*
X113513971Y-103158500D01*
X113513972Y-103158500D01*
X113686026Y-103158500D01*
X113686028Y-103158500D01*
X113853083Y-103117325D01*
X114005430Y-103037367D01*
X114134215Y-102923273D01*
X114231954Y-102781675D01*
X114292965Y-102620801D01*
X114313704Y-102450000D01*
X114292965Y-102279199D01*
X114262960Y-102200082D01*
X114231955Y-102118327D01*
X114231954Y-102118325D01*
X114134215Y-101976727D01*
X114005430Y-101862633D01*
X113853083Y-101782675D01*
X113686028Y-101741500D01*
X113513972Y-101741500D01*
X113346917Y-101782675D01*
X113346916Y-101782675D01*
X113346914Y-101782676D01*
X113194571Y-101862632D01*
X113156669Y-101896210D01*
X113065785Y-101976727D01*
X113049549Y-102000249D01*
X112968044Y-102118327D01*
X112906117Y-102281617D01*
X112871859Y-102331249D01*
X112818460Y-102359275D01*
X112758153Y-102359276D01*
X112686029Y-102341500D01*
X112686028Y-102341500D01*
X112513972Y-102341500D01*
X112346917Y-102382675D01*
X112346916Y-102382675D01*
X112346914Y-102382676D01*
X112194571Y-102462632D01*
X112065786Y-102576726D01*
X111968044Y-102718327D01*
X111907034Y-102879199D01*
X111886296Y-103049999D01*
X99485026Y-103049999D01*
X99506976Y-103018200D01*
X99560372Y-102990175D01*
X99653083Y-102967325D01*
X99805430Y-102887367D01*
X99934215Y-102773273D01*
X100031954Y-102631675D01*
X100092965Y-102470801D01*
X100113704Y-102300000D01*
X100101623Y-102200500D01*
X103217346Y-102200500D01*
X103219864Y-102221237D01*
X103238084Y-102371300D01*
X103299094Y-102532172D01*
X103299095Y-102532174D01*
X103299096Y-102532175D01*
X103396835Y-102673773D01*
X103525620Y-102787867D01*
X103677967Y-102867825D01*
X103845022Y-102909000D01*
X104017076Y-102909000D01*
X104017078Y-102909000D01*
X104184133Y-102867825D01*
X104336480Y-102787867D01*
X104465265Y-102673773D01*
X104484447Y-102645983D01*
X104529585Y-102605994D01*
X104588140Y-102591561D01*
X104646696Y-102605993D01*
X104691837Y-102645985D01*
X104711017Y-102673773D01*
X104712713Y-102676229D01*
X104841498Y-102790323D01*
X104993845Y-102870281D01*
X105160900Y-102911456D01*
X105332954Y-102911456D01*
X105332956Y-102911456D01*
X105500011Y-102870281D01*
X105652358Y-102790323D01*
X105781143Y-102676229D01*
X105878882Y-102534631D01*
X105939893Y-102373757D01*
X105960632Y-102202956D01*
X105960282Y-102200077D01*
X105967549Y-102140210D01*
X106001809Y-102090575D01*
X106134212Y-101973276D01*
X106134212Y-101973275D01*
X106134215Y-101973273D01*
X106231954Y-101831675D01*
X106292965Y-101670801D01*
X106313704Y-101500000D01*
X106301562Y-101400000D01*
X111086296Y-101400000D01*
X111107034Y-101570800D01*
X111168044Y-101731672D01*
X111168045Y-101731674D01*
X111168046Y-101731675D01*
X111265785Y-101873273D01*
X111394570Y-101987367D01*
X111546917Y-102067325D01*
X111713972Y-102108500D01*
X111886026Y-102108500D01*
X111886028Y-102108500D01*
X112053083Y-102067325D01*
X112205430Y-101987367D01*
X112334215Y-101873273D01*
X112431954Y-101731675D01*
X112492965Y-101570801D01*
X112513704Y-101400000D01*
X112492965Y-101229199D01*
X112471566Y-101172773D01*
X112431955Y-101068327D01*
X112423498Y-101056075D01*
X112334215Y-100926727D01*
X112205430Y-100812633D01*
X112181358Y-100799999D01*
X117536296Y-100799999D01*
X117557034Y-100970800D01*
X117618044Y-101131672D01*
X117618045Y-101131674D01*
X117618046Y-101131675D01*
X117715785Y-101273273D01*
X117844570Y-101387367D01*
X117996917Y-101467325D01*
X118163972Y-101508500D01*
X118336028Y-101508500D01*
X118336029Y-101508500D01*
X118370518Y-101499999D01*
X118473298Y-101474666D01*
X118540934Y-101476709D01*
X118597762Y-101513450D01*
X118627386Y-101574291D01*
X118621263Y-101641683D01*
X118607034Y-101679201D01*
X118586296Y-101850000D01*
X118603195Y-101989182D01*
X118600453Y-102034523D01*
X118581811Y-102075944D01*
X118518045Y-102168325D01*
X118457034Y-102329199D01*
X118436296Y-102500000D01*
X118457034Y-102670800D01*
X118518044Y-102831672D01*
X118518045Y-102831674D01*
X118518046Y-102831675D01*
X118615785Y-102973273D01*
X118744570Y-103087367D01*
X118896917Y-103167325D01*
X119063972Y-103208500D01*
X119236026Y-103208500D01*
X119236028Y-103208500D01*
X119394851Y-103169354D01*
X119455149Y-103169354D01*
X119613972Y-103208500D01*
X119786026Y-103208500D01*
X119786028Y-103208500D01*
X119953083Y-103167325D01*
X120105430Y-103087367D01*
X120234215Y-102973273D01*
X120331954Y-102831675D01*
X120392965Y-102670801D01*
X120413704Y-102500000D01*
X120392965Y-102329199D01*
X120361053Y-102245053D01*
X120331955Y-102168327D01*
X120312547Y-102140210D01*
X120234215Y-102026727D01*
X120105430Y-101912633D01*
X120105429Y-101912632D01*
X120074139Y-101896210D01*
X120028997Y-101856218D01*
X120007612Y-101799829D01*
X120007324Y-101797461D01*
X119992965Y-101679199D01*
X119952047Y-101571307D01*
X119931955Y-101518327D01*
X119919304Y-101499999D01*
X119834215Y-101376727D01*
X119705430Y-101262633D01*
X119553083Y-101182675D01*
X119386028Y-101141500D01*
X119213972Y-101141500D01*
X119076701Y-101175333D01*
X119009063Y-101173290D01*
X118952236Y-101136548D01*
X118922613Y-101075706D01*
X118928736Y-101008318D01*
X118942965Y-100970801D01*
X118963704Y-100800000D01*
X118942965Y-100629199D01*
X118941838Y-100626227D01*
X118881955Y-100468327D01*
X118873841Y-100456572D01*
X118784215Y-100326727D01*
X118655430Y-100212633D01*
X118503083Y-100132675D01*
X118336028Y-100091500D01*
X118163972Y-100091500D01*
X117996917Y-100132675D01*
X117996916Y-100132675D01*
X117996914Y-100132676D01*
X117844571Y-100212632D01*
X117715786Y-100326726D01*
X117618044Y-100468327D01*
X117557034Y-100629199D01*
X117536296Y-100799999D01*
X112181358Y-100799999D01*
X112053083Y-100732675D01*
X111886028Y-100691500D01*
X111713972Y-100691500D01*
X111546917Y-100732675D01*
X111546916Y-100732675D01*
X111546914Y-100732676D01*
X111394571Y-100812632D01*
X111265786Y-100926726D01*
X111168044Y-101068327D01*
X111107034Y-101229199D01*
X111086296Y-101400000D01*
X106301562Y-101400000D01*
X106292965Y-101329199D01*
X106231954Y-101168325D01*
X106134215Y-101026727D01*
X106005430Y-100912633D01*
X106003398Y-100911566D01*
X105954125Y-100865186D01*
X105935953Y-100800000D01*
X105954125Y-100734814D01*
X106003398Y-100688433D01*
X106005430Y-100687367D01*
X106134215Y-100573273D01*
X106231954Y-100431675D01*
X106292965Y-100270801D01*
X106313704Y-100100000D01*
X106292965Y-99929199D01*
X106231954Y-99768325D01*
X106134215Y-99626727D01*
X106134214Y-99626726D01*
X106130660Y-99621577D01*
X106125519Y-99609511D01*
X110670385Y-99609511D01*
X110691123Y-99780311D01*
X110752133Y-99941183D01*
X110752134Y-99941185D01*
X110752135Y-99941186D01*
X110849874Y-100082784D01*
X110978659Y-100196878D01*
X111131006Y-100276836D01*
X111298061Y-100318011D01*
X111470115Y-100318011D01*
X111470117Y-100318011D01*
X111637172Y-100276836D01*
X111789519Y-100196878D01*
X111918304Y-100082784D01*
X112016043Y-99941186D01*
X112077054Y-99780312D01*
X112080520Y-99751765D01*
X112094032Y-99708403D01*
X112122042Y-99672649D01*
X112234215Y-99573273D01*
X112331954Y-99431675D01*
X112392965Y-99270801D01*
X112413704Y-99100000D01*
X112392965Y-98929199D01*
X112350917Y-98818327D01*
X112331955Y-98768327D01*
X112331954Y-98768325D01*
X112234215Y-98626727D01*
X112105430Y-98512633D01*
X111953083Y-98432675D01*
X111786028Y-98391500D01*
X111613972Y-98391500D01*
X111446917Y-98432675D01*
X111446916Y-98432675D01*
X111446914Y-98432676D01*
X111294571Y-98512632D01*
X111175266Y-98618327D01*
X111165785Y-98626727D01*
X111161336Y-98633173D01*
X111068044Y-98768327D01*
X111007034Y-98929198D01*
X111003568Y-98957744D01*
X110990054Y-99001109D01*
X110962041Y-99036865D01*
X110849875Y-99136236D01*
X110752133Y-99277838D01*
X110691123Y-99438710D01*
X110670385Y-99609511D01*
X106125519Y-99609511D01*
X106110901Y-99575204D01*
X106110901Y-99524796D01*
X106130660Y-99478423D01*
X106165173Y-99428423D01*
X106231954Y-99331675D01*
X106292965Y-99170801D01*
X106313704Y-99000000D01*
X106292965Y-98829199D01*
X106270817Y-98770800D01*
X106231955Y-98668327D01*
X106231954Y-98668325D01*
X106134215Y-98526727D01*
X106005430Y-98412633D01*
X105853083Y-98332675D01*
X105686028Y-98291500D01*
X105513972Y-98291500D01*
X105346917Y-98332675D01*
X105346916Y-98332675D01*
X105346914Y-98332676D01*
X105194571Y-98412632D01*
X105065783Y-98526728D01*
X104995360Y-98628752D01*
X104950219Y-98668743D01*
X104891664Y-98683175D01*
X104833110Y-98668742D01*
X104787970Y-98628752D01*
X104717547Y-98526727D01*
X104588762Y-98412633D01*
X104436415Y-98332675D01*
X104269360Y-98291500D01*
X104097304Y-98291500D01*
X103930249Y-98332675D01*
X103930248Y-98332675D01*
X103930246Y-98332676D01*
X103777903Y-98412632D01*
X103777901Y-98412633D01*
X103777902Y-98412633D01*
X103649117Y-98526727D01*
X103624333Y-98562632D01*
X103551376Y-98668327D01*
X103490366Y-98829199D01*
X103469628Y-99000000D01*
X103490366Y-99170800D01*
X103551377Y-99331674D01*
X103652672Y-99478424D01*
X103672430Y-99524797D01*
X103672430Y-99575203D01*
X103652672Y-99621576D01*
X103551377Y-99768325D01*
X103490366Y-99929199D01*
X103469628Y-100099999D01*
X103490366Y-100270800D01*
X103551376Y-100431672D01*
X103551377Y-100431674D01*
X103551378Y-100431675D01*
X103649117Y-100573273D01*
X103777902Y-100687367D01*
X103930249Y-100767325D01*
X104097304Y-100808500D01*
X104269358Y-100808500D01*
X104269360Y-100808500D01*
X104436415Y-100767325D01*
X104588762Y-100687367D01*
X104717547Y-100573273D01*
X104787971Y-100471246D01*
X104833111Y-100431256D01*
X104891666Y-100416824D01*
X104950221Y-100431256D01*
X104995360Y-100471246D01*
X105065785Y-100573273D01*
X105194570Y-100687367D01*
X105196599Y-100688432D01*
X105245871Y-100734809D01*
X105264046Y-100799993D01*
X105245878Y-100865178D01*
X105196607Y-100911563D01*
X105194573Y-100912630D01*
X105065786Y-101026726D01*
X104968044Y-101168327D01*
X104907034Y-101329199D01*
X104886296Y-101500000D01*
X104886646Y-101502886D01*
X104879375Y-101562750D01*
X104845118Y-101612379D01*
X104712714Y-101729680D01*
X104693531Y-101757472D01*
X104648390Y-101797462D01*
X104589835Y-101811894D01*
X104531280Y-101797461D01*
X104486140Y-101757470D01*
X104485030Y-101755862D01*
X104465265Y-101727227D01*
X104336480Y-101613133D01*
X104184133Y-101533175D01*
X104017078Y-101492000D01*
X103845022Y-101492000D01*
X103677967Y-101533175D01*
X103677966Y-101533175D01*
X103677964Y-101533176D01*
X103525621Y-101613132D01*
X103397926Y-101726260D01*
X103396835Y-101727227D01*
X103375960Y-101757470D01*
X103299094Y-101868827D01*
X103238084Y-102029699D01*
X103220952Y-102170800D01*
X103217346Y-102200500D01*
X100101623Y-102200500D01*
X100092965Y-102129199D01*
X100061004Y-102044927D01*
X100052817Y-102000249D01*
X100061005Y-101955569D01*
X100067525Y-101938376D01*
X100086400Y-101888606D01*
X100120657Y-101838976D01*
X100174058Y-101810949D01*
X100186023Y-101808000D01*
X100186028Y-101808000D01*
X100353083Y-101766825D01*
X100505430Y-101686867D01*
X100634215Y-101572773D01*
X100731954Y-101431175D01*
X100743777Y-101400000D01*
X101736296Y-101400000D01*
X101757034Y-101570800D01*
X101818044Y-101731672D01*
X101818045Y-101731674D01*
X101818046Y-101731675D01*
X101915785Y-101873273D01*
X102044570Y-101987367D01*
X102196917Y-102067325D01*
X102363972Y-102108500D01*
X102536026Y-102108500D01*
X102536028Y-102108500D01*
X102703083Y-102067325D01*
X102855430Y-101987367D01*
X102984215Y-101873273D01*
X103081954Y-101731675D01*
X103142965Y-101570801D01*
X103163704Y-101400000D01*
X103142965Y-101229199D01*
X103121566Y-101172773D01*
X103081955Y-101068327D01*
X103073498Y-101056075D01*
X102984215Y-100926727D01*
X102855430Y-100812633D01*
X102703083Y-100732675D01*
X102536028Y-100691500D01*
X102363972Y-100691500D01*
X102196917Y-100732675D01*
X102196916Y-100732675D01*
X102196914Y-100732676D01*
X102044571Y-100812632D01*
X101915786Y-100926726D01*
X101818044Y-101068327D01*
X101757034Y-101229199D01*
X101736296Y-101400000D01*
X100743777Y-101400000D01*
X100792965Y-101270301D01*
X100813704Y-101099500D01*
X100792965Y-100928699D01*
X100786871Y-100912630D01*
X100731955Y-100767827D01*
X100731954Y-100767825D01*
X100634215Y-100626227D01*
X100505430Y-100512133D01*
X100353083Y-100432175D01*
X100186028Y-100391000D01*
X100013972Y-100391000D01*
X99846917Y-100432175D01*
X99846915Y-100432175D01*
X99846915Y-100432176D01*
X99726504Y-100495372D01*
X99657810Y-100509395D01*
X99592255Y-100484533D01*
X99550139Y-100428486D01*
X99527134Y-100367825D01*
X99429395Y-100226227D01*
X99300610Y-100112133D01*
X99148263Y-100032175D01*
X98981208Y-99991000D01*
X98809152Y-99991000D01*
X98642097Y-100032175D01*
X98642096Y-100032175D01*
X98642094Y-100032176D01*
X98489751Y-100112132D01*
X98376310Y-100212632D01*
X98360965Y-100226227D01*
X98328385Y-100273426D01*
X98263224Y-100367827D01*
X98202214Y-100528699D01*
X98181476Y-100699500D01*
X98202214Y-100870300D01*
X98263224Y-101031172D01*
X98263225Y-101031174D01*
X98263226Y-101031175D01*
X98360965Y-101172773D01*
X98489750Y-101286867D01*
X98642097Y-101366825D01*
X98648930Y-101370411D01*
X98694071Y-101410401D01*
X98715456Y-101466789D01*
X98708188Y-101526656D01*
X98707034Y-101529696D01*
X98686296Y-101700496D01*
X98707034Y-101871297D01*
X98738994Y-101955568D01*
X98747182Y-102000248D01*
X98738994Y-102044927D01*
X98707035Y-102129197D01*
X98686296Y-102300000D01*
X98707034Y-102470800D01*
X98768044Y-102631672D01*
X98768045Y-102631674D01*
X98768046Y-102631675D01*
X98865785Y-102773273D01*
X98994570Y-102887367D01*
X99068028Y-102925920D01*
X99113166Y-102965910D01*
X99134551Y-103022298D01*
X99127282Y-103082166D01*
X99093024Y-103131798D01*
X99039624Y-103159824D01*
X98946917Y-103182675D01*
X98946916Y-103182675D01*
X98946914Y-103182676D01*
X98794571Y-103262632D01*
X98794569Y-103262633D01*
X98794570Y-103262633D01*
X98665785Y-103376727D01*
X98641001Y-103412632D01*
X98568045Y-103518326D01*
X98552172Y-103560181D01*
X98525231Y-103602784D01*
X98483748Y-103631417D01*
X98434360Y-103641500D01*
X98413972Y-103641500D01*
X98246917Y-103682675D01*
X98246916Y-103682675D01*
X98246914Y-103682676D01*
X98094571Y-103762632D01*
X97965786Y-103876726D01*
X97868044Y-104018327D01*
X97807034Y-104179199D01*
X97786296Y-104350000D01*
X96651562Y-104350000D01*
X96642965Y-104279199D01*
X96604103Y-104176727D01*
X96581955Y-104118327D01*
X96578024Y-104112632D01*
X96484215Y-103976727D01*
X96355430Y-103862633D01*
X96203083Y-103782675D01*
X96036028Y-103741500D01*
X95863972Y-103741500D01*
X95696917Y-103782675D01*
X95696916Y-103782675D01*
X95696914Y-103782676D01*
X95544571Y-103862632D01*
X95544569Y-103862633D01*
X95544570Y-103862633D01*
X95415785Y-103976727D01*
X95408405Y-103987419D01*
X95318044Y-104118327D01*
X95257034Y-104279199D01*
X95236296Y-104449999D01*
X94363704Y-104449999D01*
X94342965Y-104279199D01*
X94304103Y-104176727D01*
X94281955Y-104118327D01*
X94278024Y-104112632D01*
X94184215Y-103976727D01*
X94055430Y-103862633D01*
X93903083Y-103782675D01*
X93736028Y-103741500D01*
X93563972Y-103741500D01*
X93396917Y-103782675D01*
X93396916Y-103782675D01*
X93396914Y-103782676D01*
X93244571Y-103862631D01*
X93146537Y-103949483D01*
X93093138Y-103977509D01*
X93032833Y-103977509D01*
X92883512Y-103940705D01*
X92711456Y-103940705D01*
X92598432Y-103968562D01*
X92529547Y-103985541D01*
X92529280Y-103984461D01*
X92511019Y-103990151D01*
X92465683Y-103987408D01*
X92284012Y-103942631D01*
X92111956Y-103942631D01*
X91933736Y-103986557D01*
X91888396Y-103989299D01*
X91866534Y-103982487D01*
X91866436Y-103982887D01*
X91851584Y-103979226D01*
X91851582Y-103979225D01*
X91684527Y-103938050D01*
X91512471Y-103938050D01*
X91399447Y-103965907D01*
X91330562Y-103982886D01*
X91329793Y-103979768D01*
X91298746Y-103987419D01*
X91267701Y-103979768D01*
X91266933Y-103982887D01*
X91252081Y-103979226D01*
X91252079Y-103979225D01*
X91085024Y-103938050D01*
X90912968Y-103938050D01*
X90799944Y-103965907D01*
X90731059Y-103982886D01*
X90730290Y-103979768D01*
X90699243Y-103987419D01*
X90668198Y-103979768D01*
X90667430Y-103982887D01*
X90652578Y-103979226D01*
X90652576Y-103979225D01*
X90485521Y-103938050D01*
X90313465Y-103938050D01*
X90200441Y-103965907D01*
X90131556Y-103982886D01*
X90131386Y-103982197D01*
X90111047Y-103988532D01*
X90065718Y-103985788D01*
X89886028Y-103941500D01*
X89713972Y-103941500D01*
X89546917Y-103982675D01*
X89546916Y-103982675D01*
X89546914Y-103982676D01*
X89394571Y-104062632D01*
X89265786Y-104176726D01*
X89168044Y-104318327D01*
X89107034Y-104479199D01*
X89086296Y-104649999D01*
X88435598Y-104649999D01*
X88554933Y-104587367D01*
X88683718Y-104473273D01*
X88781457Y-104331675D01*
X88842468Y-104170801D01*
X88863207Y-104000000D01*
X88842468Y-103829199D01*
X88815656Y-103758500D01*
X88781458Y-103668327D01*
X88771176Y-103653431D01*
X88683718Y-103526727D01*
X88554933Y-103412633D01*
X88409563Y-103336337D01*
X88402588Y-103332676D01*
X88402587Y-103332675D01*
X88402586Y-103332675D01*
X88235531Y-103291500D01*
X88063475Y-103291500D01*
X87950451Y-103319357D01*
X87881566Y-103336336D01*
X87880797Y-103333218D01*
X87849750Y-103340869D01*
X87818705Y-103333218D01*
X87817937Y-103336337D01*
X87803085Y-103332676D01*
X87803083Y-103332675D01*
X87636028Y-103291500D01*
X87463972Y-103291500D01*
X87350948Y-103319357D01*
X87282063Y-103336336D01*
X87281294Y-103333218D01*
X87250247Y-103340869D01*
X87219202Y-103333218D01*
X87218434Y-103336337D01*
X87203582Y-103332676D01*
X87203580Y-103332675D01*
X87036525Y-103291500D01*
X86864469Y-103291500D01*
X86697414Y-103332675D01*
X86697413Y-103332675D01*
X86697411Y-103332676D01*
X86545068Y-103412632D01*
X86425763Y-103518327D01*
X86416282Y-103526727D01*
X86406085Y-103541500D01*
X86318541Y-103668327D01*
X86257531Y-103829199D01*
X86236793Y-104000000D01*
X84499359Y-104000000D01*
X84498387Y-103989299D01*
X84497334Y-103977707D01*
X84448676Y-103821557D01*
X84446723Y-103818327D01*
X84364061Y-103681587D01*
X84248412Y-103565938D01*
X84108443Y-103481324D01*
X83952292Y-103432665D01*
X83890604Y-103427060D01*
X83884438Y-103426500D01*
X81355560Y-103426500D01*
X81287708Y-103432665D01*
X81131555Y-103481324D01*
X80991587Y-103565938D01*
X80875938Y-103681587D01*
X80791324Y-103821556D01*
X80742665Y-103977707D01*
X80736500Y-104045562D01*
X80736500Y-104685052D01*
X80721618Y-104744455D01*
X80680488Y-104789826D01*
X80622826Y-104810448D01*
X80562252Y-104801448D01*
X80513075Y-104764954D01*
X80486911Y-104709586D01*
X80481065Y-104680135D01*
X80480780Y-104678642D01*
X80396111Y-104219180D01*
X80395602Y-104216203D01*
X80314180Y-103701060D01*
X80313909Y-103699253D01*
X80247821Y-103236107D01*
X80247435Y-103233151D01*
X80186327Y-102715788D01*
X80186130Y-102714003D01*
X80138778Y-102247884D01*
X80138524Y-102245054D01*
X80135218Y-102202958D01*
X80119151Y-101998396D01*
X80129178Y-101938376D01*
X80166169Y-101890052D01*
X80221495Y-101864702D01*
X80282249Y-101868240D01*
X80407707Y-101907334D01*
X80475561Y-101913500D01*
X83004438Y-101913499D01*
X83004439Y-101913499D01*
X83027056Y-101911444D01*
X83072293Y-101907334D01*
X83228443Y-101858676D01*
X83368411Y-101774062D01*
X83484062Y-101658411D01*
X83568676Y-101518443D01*
X83617334Y-101362293D01*
X83623500Y-101294439D01*
X83623500Y-101149999D01*
X86986296Y-101149999D01*
X87007034Y-101320800D01*
X87068044Y-101481672D01*
X87068045Y-101481674D01*
X87068046Y-101481675D01*
X87165785Y-101623273D01*
X87294570Y-101737367D01*
X87446917Y-101817325D01*
X87613972Y-101858500D01*
X87786026Y-101858500D01*
X87786028Y-101858500D01*
X87953083Y-101817325D01*
X88105430Y-101737367D01*
X88234215Y-101623273D01*
X88304638Y-101521247D01*
X88349778Y-101481258D01*
X88408333Y-101466826D01*
X88466888Y-101481258D01*
X88512027Y-101521247D01*
X88582451Y-101623273D01*
X88711236Y-101737367D01*
X88863583Y-101817325D01*
X89030638Y-101858500D01*
X89202692Y-101858500D01*
X89202694Y-101858500D01*
X89369749Y-101817325D01*
X89522096Y-101737367D01*
X89650881Y-101623273D01*
X89721304Y-101521247D01*
X89766444Y-101481258D01*
X89824999Y-101466826D01*
X89883554Y-101481258D01*
X89928693Y-101521247D01*
X89999117Y-101623273D01*
X90127902Y-101737367D01*
X90280249Y-101817325D01*
X90447304Y-101858500D01*
X90619358Y-101858500D01*
X90619360Y-101858500D01*
X90786415Y-101817325D01*
X90938762Y-101737367D01*
X91067547Y-101623273D01*
X91137971Y-101521246D01*
X91183111Y-101481256D01*
X91241666Y-101466824D01*
X91300221Y-101481256D01*
X91345360Y-101521246D01*
X91415785Y-101623273D01*
X91544570Y-101737367D01*
X91696917Y-101817325D01*
X91863972Y-101858500D01*
X92036026Y-101858500D01*
X92036028Y-101858500D01*
X92203083Y-101817325D01*
X92355430Y-101737367D01*
X92484215Y-101623273D01*
X92581954Y-101481675D01*
X92612737Y-101400506D01*
X94682846Y-101400506D01*
X94703584Y-101571307D01*
X94737267Y-101660121D01*
X94745455Y-101704801D01*
X94737268Y-101749480D01*
X94707034Y-101829201D01*
X94686296Y-101999999D01*
X94707034Y-102170800D01*
X94768044Y-102331672D01*
X94768045Y-102331674D01*
X94768046Y-102331675D01*
X94865785Y-102473273D01*
X94994570Y-102587367D01*
X95146917Y-102667325D01*
X95313972Y-102708500D01*
X95486026Y-102708500D01*
X95486028Y-102708500D01*
X95653083Y-102667325D01*
X95805430Y-102587367D01*
X95934215Y-102473273D01*
X96031954Y-102331675D01*
X96092965Y-102170801D01*
X96113704Y-102000000D01*
X96092965Y-101829199D01*
X96059281Y-101740384D01*
X96051094Y-101695705D01*
X96059282Y-101651025D01*
X96073653Y-101613132D01*
X96089515Y-101571308D01*
X96110254Y-101400507D01*
X96089515Y-101229706D01*
X96057554Y-101145434D01*
X96049367Y-101100755D01*
X96057555Y-101056075D01*
X96089515Y-100971805D01*
X96110254Y-100801004D01*
X96089515Y-100630203D01*
X96057554Y-100545931D01*
X96049367Y-100501252D01*
X96057555Y-100456572D01*
X96089515Y-100372302D01*
X96110254Y-100201501D01*
X96089515Y-100030700D01*
X96080062Y-100005774D01*
X96028505Y-99869828D01*
X96020686Y-99858500D01*
X95930765Y-99728228D01*
X95801980Y-99614134D01*
X95649633Y-99534176D01*
X95482578Y-99493001D01*
X95310522Y-99493001D01*
X95143467Y-99534176D01*
X95143466Y-99534176D01*
X95143464Y-99534177D01*
X94991121Y-99614133D01*
X94873043Y-99718741D01*
X94862335Y-99728228D01*
X94834658Y-99768325D01*
X94764594Y-99869828D01*
X94703584Y-100030700D01*
X94682846Y-100201500D01*
X94703584Y-100372301D01*
X94735544Y-100456572D01*
X94743732Y-100501252D01*
X94735544Y-100545931D01*
X94703585Y-100630201D01*
X94682846Y-100801004D01*
X94703584Y-100971804D01*
X94735544Y-101056075D01*
X94743732Y-101100755D01*
X94735544Y-101145434D01*
X94703585Y-101229704D01*
X94682846Y-101400506D01*
X92612737Y-101400506D01*
X92642965Y-101320801D01*
X92663704Y-101150000D01*
X92642965Y-100979199D01*
X92581954Y-100818325D01*
X92484215Y-100676727D01*
X92484214Y-100676726D01*
X92480660Y-100671577D01*
X92460901Y-100625204D01*
X92460901Y-100574796D01*
X92480660Y-100528423D01*
X92499415Y-100501252D01*
X92581954Y-100381675D01*
X92642965Y-100220801D01*
X92663704Y-100050000D01*
X92642965Y-99879199D01*
X92581954Y-99718325D01*
X92484215Y-99576727D01*
X92484214Y-99576726D01*
X92480660Y-99571577D01*
X92460901Y-99525204D01*
X92460901Y-99474796D01*
X92480660Y-99428423D01*
X92484215Y-99423273D01*
X92581954Y-99281675D01*
X92631891Y-99150000D01*
X96636296Y-99150000D01*
X96657034Y-99320800D01*
X96718044Y-99481672D01*
X96718045Y-99481674D01*
X96718046Y-99481675D01*
X96815785Y-99623273D01*
X96944570Y-99737367D01*
X97096917Y-99817325D01*
X97263972Y-99858500D01*
X97436026Y-99858500D01*
X97436028Y-99858500D01*
X97603083Y-99817325D01*
X97755430Y-99737367D01*
X97884215Y-99623273D01*
X97981954Y-99481675D01*
X98042965Y-99320801D01*
X98063704Y-99150000D01*
X98042965Y-98979199D01*
X97981954Y-98818325D01*
X97884215Y-98676727D01*
X97755430Y-98562633D01*
X97603083Y-98482675D01*
X97436028Y-98441500D01*
X97263972Y-98441500D01*
X97096917Y-98482675D01*
X97096916Y-98482675D01*
X97096914Y-98482676D01*
X96944571Y-98562632D01*
X96825266Y-98668327D01*
X96815785Y-98676727D01*
X96801303Y-98697708D01*
X96718044Y-98818327D01*
X96657034Y-98979199D01*
X96636296Y-99150000D01*
X92631891Y-99150000D01*
X92642965Y-99120801D01*
X92663704Y-98950000D01*
X92642965Y-98779199D01*
X92637153Y-98763873D01*
X92581955Y-98618327D01*
X92554638Y-98578752D01*
X92484215Y-98476727D01*
X92355430Y-98362633D01*
X92203083Y-98282675D01*
X92036028Y-98241500D01*
X91863972Y-98241500D01*
X91696917Y-98282675D01*
X91696916Y-98282675D01*
X91696914Y-98282676D01*
X91544571Y-98362632D01*
X91470535Y-98428222D01*
X91415785Y-98476727D01*
X91356489Y-98562632D01*
X91345362Y-98578752D01*
X91300221Y-98618743D01*
X91241666Y-98633175D01*
X91183111Y-98618743D01*
X91137970Y-98578752D01*
X91126844Y-98562633D01*
X91067547Y-98476727D01*
X90938762Y-98362633D01*
X90786415Y-98282675D01*
X90619360Y-98241500D01*
X90447304Y-98241500D01*
X90280249Y-98282675D01*
X90280248Y-98282675D01*
X90280246Y-98282676D01*
X90127903Y-98362632D01*
X89999115Y-98476728D01*
X89928694Y-98578750D01*
X89883554Y-98618741D01*
X89824999Y-98633173D01*
X89766444Y-98618741D01*
X89721304Y-98578750D01*
X89650882Y-98476728D01*
X89650880Y-98476726D01*
X89522096Y-98362633D01*
X89369749Y-98282675D01*
X89202694Y-98241500D01*
X89030638Y-98241500D01*
X88863583Y-98282675D01*
X88863582Y-98282675D01*
X88863580Y-98282676D01*
X88711237Y-98362632D01*
X88582449Y-98476728D01*
X88512028Y-98578750D01*
X88466888Y-98618741D01*
X88408333Y-98633173D01*
X88349778Y-98618741D01*
X88304638Y-98578750D01*
X88234216Y-98476728D01*
X88234214Y-98476726D01*
X88105430Y-98362633D01*
X87953083Y-98282675D01*
X87786028Y-98241500D01*
X87613972Y-98241500D01*
X87446917Y-98282675D01*
X87446916Y-98282675D01*
X87446914Y-98282676D01*
X87294571Y-98362632D01*
X87220535Y-98428222D01*
X87165785Y-98476727D01*
X87161679Y-98482676D01*
X87068044Y-98618327D01*
X87007034Y-98779199D01*
X86986296Y-98950000D01*
X87007034Y-99120800D01*
X87068044Y-99281672D01*
X87068045Y-99281674D01*
X87068046Y-99281675D01*
X87165785Y-99423273D01*
X87165787Y-99423274D01*
X87169340Y-99428422D01*
X87189098Y-99474795D01*
X87189098Y-99525202D01*
X87169340Y-99571575D01*
X87068045Y-99718325D01*
X87007034Y-99879199D01*
X86986296Y-100050000D01*
X87007034Y-100220800D01*
X87068045Y-100381674D01*
X87169340Y-100528424D01*
X87189098Y-100574797D01*
X87189098Y-100625203D01*
X87169340Y-100671576D01*
X87068045Y-100818325D01*
X87007034Y-100979199D01*
X86986296Y-101149999D01*
X83623500Y-101149999D01*
X83623499Y-98765562D01*
X83617334Y-98697707D01*
X83568676Y-98541557D01*
X83559710Y-98526726D01*
X83484061Y-98401587D01*
X83368412Y-98285938D01*
X83228443Y-98201324D01*
X83072292Y-98152665D01*
X83010604Y-98147060D01*
X83004438Y-98146500D01*
X80475560Y-98146500D01*
X80407707Y-98152665D01*
X80277418Y-98193265D01*
X80216664Y-98196803D01*
X80161338Y-98171453D01*
X80124347Y-98123129D01*
X80114320Y-98063109D01*
X80138528Y-97754888D01*
X80138777Y-97752131D01*
X80186133Y-97285970D01*
X80186324Y-97284237D01*
X80247437Y-96766827D01*
X80247821Y-96763891D01*
X80259779Y-96680086D01*
X80309954Y-96328459D01*
X80332627Y-96272372D01*
X80378830Y-96233318D01*
X80437910Y-96220300D01*
X80496248Y-96236320D01*
X80540395Y-96277684D01*
X80560173Y-96334857D01*
X80562665Y-96362291D01*
X80611324Y-96518444D01*
X80695938Y-96658412D01*
X80811587Y-96774061D01*
X80811589Y-96774062D01*
X80951557Y-96858676D01*
X81107707Y-96907334D01*
X81175561Y-96913500D01*
X83704438Y-96913499D01*
X83704439Y-96913499D01*
X83727056Y-96911443D01*
X83772293Y-96907334D01*
X83928443Y-96858676D01*
X84068411Y-96774062D01*
X84184062Y-96658411D01*
X84268676Y-96518443D01*
X84317334Y-96362293D01*
X84323500Y-96294439D01*
X84323500Y-96051055D01*
X92387352Y-96051055D01*
X92408090Y-96221856D01*
X92469100Y-96382728D01*
X92469101Y-96382730D01*
X92469102Y-96382731D01*
X92566841Y-96524329D01*
X92695626Y-96638423D01*
X92847973Y-96718381D01*
X93015028Y-96759556D01*
X93187082Y-96759556D01*
X93187084Y-96759556D01*
X93354139Y-96718381D01*
X93506486Y-96638423D01*
X93635271Y-96524329D01*
X93647206Y-96507038D01*
X93699188Y-96463716D01*
X93766087Y-96453533D01*
X93828606Y-96479428D01*
X93858558Y-96520133D01*
X93859355Y-96519584D01*
X93934732Y-96628786D01*
X93954490Y-96675159D01*
X93954490Y-96725565D01*
X93934732Y-96771938D01*
X93868545Y-96867825D01*
X93807534Y-97028699D01*
X93786796Y-97199500D01*
X93807534Y-97370300D01*
X93868546Y-97531177D01*
X93868675Y-97531363D01*
X93890059Y-97587750D01*
X93882789Y-97647615D01*
X93825779Y-97797941D01*
X93805040Y-97968744D01*
X93825778Y-98139544D01*
X93886788Y-98300416D01*
X93886789Y-98300418D01*
X93886790Y-98300419D01*
X93984529Y-98442017D01*
X94113314Y-98556111D01*
X94265661Y-98636069D01*
X94432716Y-98677244D01*
X94604770Y-98677244D01*
X94604772Y-98677244D01*
X94771827Y-98636069D01*
X94924174Y-98556111D01*
X95052959Y-98442017D01*
X95150698Y-98300419D01*
X95211709Y-98139545D01*
X95232448Y-97968744D01*
X95211709Y-97797943D01*
X95192607Y-97747575D01*
X95150699Y-97637070D01*
X95150571Y-97636885D01*
X95129185Y-97580496D01*
X95136454Y-97520627D01*
X95145393Y-97497057D01*
X95145393Y-97497056D01*
X99235796Y-97497056D01*
X99256534Y-97667857D01*
X99290217Y-97756671D01*
X99298405Y-97801351D01*
X99290218Y-97846030D01*
X99259984Y-97925751D01*
X99239246Y-98096549D01*
X99259984Y-98267350D01*
X99320994Y-98428222D01*
X99320995Y-98428224D01*
X99320996Y-98428225D01*
X99418735Y-98569823D01*
X99547520Y-98683917D01*
X99699867Y-98763875D01*
X99866922Y-98805050D01*
X100038976Y-98805050D01*
X100038978Y-98805050D01*
X100206033Y-98763875D01*
X100358380Y-98683917D01*
X100453102Y-98600000D01*
X101686296Y-98600000D01*
X101707034Y-98770800D01*
X101768044Y-98931672D01*
X101768045Y-98931674D01*
X101768046Y-98931675D01*
X101865785Y-99073273D01*
X101994570Y-99187367D01*
X102146917Y-99267325D01*
X102313972Y-99308500D01*
X102486026Y-99308500D01*
X102486028Y-99308500D01*
X102653083Y-99267325D01*
X102805430Y-99187367D01*
X102934215Y-99073273D01*
X103031954Y-98931675D01*
X103092965Y-98770801D01*
X103113704Y-98600000D01*
X103092965Y-98429199D01*
X103056359Y-98332675D01*
X103031955Y-98268327D01*
X103031954Y-98268325D01*
X102950279Y-98149999D01*
X115336296Y-98149999D01*
X115357034Y-98320800D01*
X115418044Y-98481672D01*
X115418045Y-98481674D01*
X115418046Y-98481675D01*
X115515785Y-98623273D01*
X115644570Y-98737367D01*
X115796917Y-98817325D01*
X115963972Y-98858500D01*
X116136026Y-98858500D01*
X116136028Y-98858500D01*
X116303083Y-98817325D01*
X116455430Y-98737367D01*
X116584215Y-98623273D01*
X116681954Y-98481675D01*
X116742965Y-98320801D01*
X116763704Y-98150000D01*
X116742965Y-97979199D01*
X116722694Y-97925749D01*
X116681955Y-97818327D01*
X116681954Y-97818325D01*
X116584215Y-97676727D01*
X116455430Y-97562633D01*
X116303083Y-97482675D01*
X116136028Y-97441500D01*
X115963972Y-97441500D01*
X115796917Y-97482675D01*
X115796916Y-97482675D01*
X115796914Y-97482676D01*
X115644571Y-97562632D01*
X115548645Y-97647615D01*
X115515785Y-97676727D01*
X115483205Y-97723926D01*
X115418044Y-97818327D01*
X115357034Y-97979199D01*
X115336296Y-98149999D01*
X102950279Y-98149999D01*
X102934215Y-98126727D01*
X102805430Y-98012633D01*
X102653083Y-97932675D01*
X102486028Y-97891500D01*
X102313972Y-97891500D01*
X102146917Y-97932675D01*
X102146916Y-97932675D01*
X102146914Y-97932676D01*
X101994571Y-98012632D01*
X101994569Y-98012633D01*
X101994570Y-98012633D01*
X101865785Y-98126727D01*
X101834913Y-98171453D01*
X101768044Y-98268327D01*
X101707034Y-98429199D01*
X101686296Y-98600000D01*
X100453102Y-98600000D01*
X100487165Y-98569823D01*
X100584904Y-98428225D01*
X100645915Y-98267351D01*
X100666654Y-98096550D01*
X100645915Y-97925749D01*
X100612231Y-97836934D01*
X100604044Y-97792255D01*
X100612232Y-97747575D01*
X100639101Y-97676727D01*
X100642465Y-97667858D01*
X100663204Y-97497057D01*
X100642465Y-97326256D01*
X100610504Y-97241984D01*
X100602317Y-97197305D01*
X100610505Y-97152625D01*
X100642465Y-97068355D01*
X100663204Y-96897554D01*
X100642465Y-96726753D01*
X100610504Y-96642481D01*
X100602317Y-96597802D01*
X100610505Y-96553122D01*
X100642465Y-96468852D01*
X100663204Y-96298051D01*
X100642465Y-96127250D01*
X100632691Y-96101477D01*
X100581455Y-95966378D01*
X100554758Y-95927701D01*
X100483715Y-95824778D01*
X100354930Y-95710684D01*
X100202583Y-95630726D01*
X100035528Y-95589551D01*
X99863472Y-95589551D01*
X99696417Y-95630726D01*
X99696416Y-95630726D01*
X99696414Y-95630727D01*
X99544071Y-95710683D01*
X99544069Y-95710684D01*
X99544070Y-95710684D01*
X99415285Y-95824778D01*
X99399295Y-95847944D01*
X99317544Y-95966378D01*
X99256534Y-96127250D01*
X99235796Y-96298050D01*
X99256534Y-96468851D01*
X99288494Y-96553122D01*
X99296682Y-96597802D01*
X99288494Y-96642481D01*
X99256535Y-96726751D01*
X99235796Y-96897554D01*
X99256534Y-97068354D01*
X99288494Y-97152625D01*
X99296682Y-97197305D01*
X99288494Y-97241984D01*
X99256535Y-97326254D01*
X99235796Y-97497056D01*
X95145393Y-97497056D01*
X95193465Y-97370301D01*
X95214204Y-97199500D01*
X95193465Y-97028699D01*
X95132454Y-96867825D01*
X95065766Y-96771211D01*
X95046009Y-96724840D01*
X95046010Y-96674433D01*
X95065766Y-96628062D01*
X95131954Y-96532175D01*
X95192965Y-96371301D01*
X95213704Y-96200500D01*
X95192965Y-96029699D01*
X95188811Y-96018745D01*
X95755040Y-96018745D01*
X95775778Y-96189545D01*
X95836788Y-96350417D01*
X95836789Y-96350419D01*
X95836790Y-96350420D01*
X95934529Y-96492018D01*
X96063314Y-96606112D01*
X96215661Y-96686070D01*
X96382716Y-96727245D01*
X96554770Y-96727245D01*
X96554772Y-96727245D01*
X96721827Y-96686070D01*
X96874174Y-96606112D01*
X97002959Y-96492018D01*
X97100698Y-96350420D01*
X97157429Y-96200830D01*
X97180929Y-96161956D01*
X97216684Y-96133943D01*
X97305430Y-96087367D01*
X97434215Y-95973273D01*
X97531954Y-95831675D01*
X97592965Y-95670801D01*
X97599702Y-95615311D01*
X97621086Y-95558927D01*
X97666228Y-95518935D01*
X97745430Y-95477367D01*
X97874215Y-95363273D01*
X97971954Y-95221675D01*
X98032965Y-95060801D01*
X98053704Y-94890000D01*
X98032965Y-94719199D01*
X98023666Y-94694679D01*
X97971955Y-94558327D01*
X97971954Y-94558325D01*
X97874215Y-94416727D01*
X97745430Y-94302633D01*
X97593083Y-94222675D01*
X97426028Y-94181500D01*
X97253972Y-94181500D01*
X97086917Y-94222675D01*
X97086916Y-94222675D01*
X97086914Y-94222676D01*
X96934571Y-94302632D01*
X96805786Y-94416726D01*
X96708044Y-94558327D01*
X96647034Y-94719199D01*
X96640297Y-94774685D01*
X96618912Y-94831072D01*
X96573773Y-94871062D01*
X96494572Y-94912631D01*
X96365786Y-95026726D01*
X96268045Y-95168326D01*
X96211314Y-95317914D01*
X96187815Y-95356786D01*
X96152059Y-95384800D01*
X96063313Y-95431378D01*
X95934530Y-95545471D01*
X95934529Y-95545472D01*
X95925242Y-95558927D01*
X95836788Y-95687072D01*
X95775778Y-95847944D01*
X95755040Y-96018745D01*
X95188811Y-96018745D01*
X95131954Y-95868825D01*
X95034215Y-95727227D01*
X94905430Y-95613133D01*
X94753083Y-95533175D01*
X94586028Y-95492000D01*
X94413972Y-95492000D01*
X94246917Y-95533175D01*
X94246916Y-95533175D01*
X94246914Y-95533176D01*
X94094571Y-95613132D01*
X93965783Y-95727228D01*
X93953848Y-95744519D01*
X93901863Y-95787841D01*
X93834963Y-95798021D01*
X93772445Y-95772123D01*
X93742498Y-95731422D01*
X93741701Y-95731973D01*
X93733010Y-95719383D01*
X93733010Y-95719381D01*
X93635271Y-95577783D01*
X93506486Y-95463689D01*
X93354139Y-95383731D01*
X93187084Y-95342556D01*
X93015028Y-95342556D01*
X92847973Y-95383731D01*
X92847972Y-95383731D01*
X92847970Y-95383732D01*
X92695627Y-95463688D01*
X92566842Y-95577782D01*
X92469100Y-95719383D01*
X92408090Y-95880255D01*
X92387352Y-96051055D01*
X84323500Y-96051055D01*
X84323499Y-93765562D01*
X84317334Y-93697707D01*
X84268676Y-93541557D01*
X84262105Y-93530688D01*
X84184061Y-93401587D01*
X84068412Y-93285938D01*
X83928443Y-93201324D01*
X83772292Y-93152665D01*
X83710603Y-93147060D01*
X83704439Y-93146500D01*
X83704438Y-93146500D01*
X81169850Y-93146501D01*
X81169850Y-93145573D01*
X81116103Y-93137369D01*
X81067507Y-93101536D01*
X81041162Y-93047209D01*
X81043115Y-92986864D01*
X81072957Y-92880829D01*
X81073947Y-92877500D01*
X81145250Y-92650000D01*
X84736296Y-92650000D01*
X84757034Y-92820800D01*
X84818044Y-92981672D01*
X84818045Y-92981674D01*
X84818046Y-92981675D01*
X84915785Y-93123273D01*
X85044570Y-93237367D01*
X85196917Y-93317325D01*
X85363972Y-93358500D01*
X85536026Y-93358500D01*
X85536028Y-93358500D01*
X85703083Y-93317325D01*
X85855430Y-93237367D01*
X85891448Y-93205457D01*
X85944846Y-93177431D01*
X86005154Y-93177431D01*
X86058551Y-93205457D01*
X86094570Y-93237367D01*
X86246917Y-93317325D01*
X86413972Y-93358500D01*
X86586026Y-93358500D01*
X86586028Y-93358500D01*
X86753083Y-93317325D01*
X86905430Y-93237367D01*
X87034215Y-93123273D01*
X87119305Y-93000000D01*
X92036296Y-93000000D01*
X92057034Y-93170800D01*
X92118044Y-93331672D01*
X92118045Y-93331674D01*
X92118046Y-93331675D01*
X92215785Y-93473273D01*
X92344570Y-93587367D01*
X92496917Y-93667325D01*
X92663972Y-93708500D01*
X92836026Y-93708500D01*
X92836028Y-93708500D01*
X93003083Y-93667325D01*
X93036095Y-93649999D01*
X100236793Y-93649999D01*
X100257531Y-93820800D01*
X100318541Y-93981672D01*
X100318542Y-93981674D01*
X100318543Y-93981675D01*
X100416282Y-94123273D01*
X100545067Y-94237367D01*
X100697414Y-94317325D01*
X100864469Y-94358500D01*
X101036523Y-94358500D01*
X101036525Y-94358500D01*
X101203580Y-94317325D01*
X101203582Y-94317323D01*
X101218435Y-94313663D01*
X101219205Y-94316787D01*
X101250217Y-94309130D01*
X101281292Y-94316787D01*
X101282063Y-94313663D01*
X101296914Y-94317323D01*
X101296917Y-94317325D01*
X101463972Y-94358500D01*
X101636026Y-94358500D01*
X101636028Y-94358500D01*
X101803083Y-94317325D01*
X101803085Y-94317323D01*
X101817937Y-94313663D01*
X101818689Y-94316717D01*
X101850000Y-94309000D01*
X101881310Y-94316717D01*
X101882063Y-94313663D01*
X101896914Y-94317323D01*
X101896917Y-94317325D01*
X102063972Y-94358500D01*
X102236026Y-94358500D01*
X102236028Y-94358500D01*
X102403083Y-94317325D01*
X102403085Y-94317323D01*
X102417937Y-94313663D01*
X102418689Y-94316717D01*
X102450000Y-94309000D01*
X102481310Y-94316717D01*
X102482063Y-94313663D01*
X102496914Y-94317323D01*
X102496917Y-94317325D01*
X102663972Y-94358500D01*
X102836026Y-94358500D01*
X102836028Y-94358500D01*
X103003083Y-94317325D01*
X103155430Y-94237367D01*
X103155433Y-94237363D01*
X103164918Y-94232386D01*
X103223473Y-94217953D01*
X103282028Y-94232385D01*
X103327169Y-94272376D01*
X103386755Y-94358700D01*
X103386756Y-94358701D01*
X103386757Y-94358702D01*
X103515542Y-94472796D01*
X103667889Y-94552754D01*
X103834944Y-94593929D01*
X104006998Y-94593929D01*
X104007000Y-94593929D01*
X104174055Y-94552754D01*
X104326402Y-94472796D01*
X104455187Y-94358702D01*
X104455187Y-94358701D01*
X104466638Y-94348557D01*
X104467452Y-94349475D01*
X104497415Y-94322932D01*
X104536681Y-94313253D01*
X104536412Y-94312161D01*
X104551265Y-94308500D01*
X104551267Y-94308500D01*
X104718322Y-94267325D01*
X104749065Y-94251189D01*
X104807618Y-94236757D01*
X104866174Y-94251189D01*
X104896917Y-94267325D01*
X105063972Y-94308500D01*
X105236026Y-94308500D01*
X105236028Y-94308500D01*
X105403083Y-94267325D01*
X105403085Y-94267323D01*
X105417938Y-94263663D01*
X105418708Y-94266787D01*
X105449720Y-94259130D01*
X105480795Y-94266787D01*
X105481566Y-94263663D01*
X105496417Y-94267323D01*
X105496420Y-94267325D01*
X105663475Y-94308500D01*
X105835529Y-94308500D01*
X105835531Y-94308500D01*
X106002586Y-94267325D01*
X106002588Y-94267323D01*
X106017441Y-94263663D01*
X106018211Y-94266787D01*
X106049223Y-94259130D01*
X106080298Y-94266787D01*
X106081069Y-94263663D01*
X106095920Y-94267323D01*
X106095923Y-94267325D01*
X106262978Y-94308500D01*
X106435032Y-94308500D01*
X106435034Y-94308500D01*
X106602089Y-94267325D01*
X106602091Y-94267323D01*
X106616944Y-94263663D01*
X106617665Y-94266589D01*
X106649492Y-94258739D01*
X106681341Y-94266589D01*
X106682063Y-94263663D01*
X106696914Y-94267323D01*
X106696917Y-94267325D01*
X106863972Y-94308500D01*
X106863974Y-94308500D01*
X106970131Y-94308500D01*
X107028686Y-94322933D01*
X107073827Y-94362924D01*
X107095212Y-94419312D01*
X107107534Y-94520800D01*
X107139588Y-94605319D01*
X107147776Y-94649999D01*
X107139589Y-94694677D01*
X107129417Y-94721500D01*
X107107534Y-94779201D01*
X107086796Y-94950000D01*
X107107534Y-95120800D01*
X107168544Y-95281672D01*
X107168545Y-95281674D01*
X107168546Y-95281675D01*
X107266285Y-95423273D01*
X107395070Y-95537367D01*
X107547417Y-95617325D01*
X107714472Y-95658500D01*
X107886526Y-95658500D01*
X107886528Y-95658500D01*
X108053583Y-95617325D01*
X108205930Y-95537367D01*
X108334715Y-95423273D01*
X108432454Y-95281675D01*
X108493465Y-95120801D01*
X108514204Y-94950000D01*
X108493465Y-94779199D01*
X108461411Y-94694679D01*
X108453223Y-94649998D01*
X108461411Y-94605318D01*
X108493465Y-94520801D01*
X108514204Y-94350000D01*
X108493465Y-94179199D01*
X108432454Y-94018325D01*
X108334715Y-93876727D01*
X108205930Y-93762633D01*
X108089569Y-93701562D01*
X109232628Y-93701562D01*
X109253437Y-93846293D01*
X109253437Y-93846294D01*
X109253438Y-93846296D01*
X109314181Y-93979305D01*
X109352401Y-94026734D01*
X110623267Y-95297600D01*
X110670696Y-95335820D01*
X110803705Y-95396563D01*
X110948439Y-95417372D01*
X111093173Y-95396563D01*
X111226182Y-95335820D01*
X111273611Y-95297600D01*
X111371212Y-95199999D01*
X113436296Y-95199999D01*
X113457034Y-95370800D01*
X113518044Y-95531672D01*
X113518045Y-95531674D01*
X113518046Y-95531675D01*
X113615785Y-95673273D01*
X113744570Y-95787367D01*
X113896917Y-95867325D01*
X114063972Y-95908500D01*
X114236026Y-95908500D01*
X114236028Y-95908500D01*
X114403083Y-95867325D01*
X114555430Y-95787367D01*
X114684215Y-95673273D01*
X114781954Y-95531675D01*
X114812929Y-95450000D01*
X116436296Y-95450000D01*
X116457034Y-95620800D01*
X116518044Y-95781672D01*
X116518045Y-95781674D01*
X116518046Y-95781675D01*
X116615785Y-95923273D01*
X116744570Y-96037367D01*
X116896917Y-96117325D01*
X117063972Y-96158500D01*
X117236026Y-96158500D01*
X117236028Y-96158500D01*
X117403083Y-96117325D01*
X117555430Y-96037367D01*
X117684215Y-95923273D01*
X117781954Y-95781675D01*
X117801552Y-95730000D01*
X122716619Y-95730000D01*
X122736091Y-95927701D01*
X122793758Y-96117802D01*
X122887406Y-96293007D01*
X123013431Y-96446568D01*
X123166992Y-96572593D01*
X123202951Y-96591813D01*
X123342196Y-96666241D01*
X123371595Y-96675159D01*
X123532298Y-96723908D01*
X123680450Y-96738500D01*
X123680453Y-96738500D01*
X124223598Y-96738500D01*
X124281566Y-96752626D01*
X124326536Y-96791838D01*
X124348424Y-96847342D01*
X124342323Y-96906694D01*
X124290654Y-97052079D01*
X124280796Y-97196197D01*
X124310186Y-97337635D01*
X124376645Y-97465894D01*
X124475244Y-97571469D01*
X124571004Y-97629701D01*
X124598672Y-97646526D01*
X124737772Y-97685500D01*
X124845949Y-97685500D01*
X124845952Y-97685500D01*
X124910246Y-97676662D01*
X124953111Y-97670771D01*
X125085609Y-97613219D01*
X125197665Y-97522054D01*
X125280971Y-97404037D01*
X125329346Y-97267921D01*
X125339204Y-97123801D01*
X125309814Y-96982366D01*
X125243354Y-96854105D01*
X125229730Y-96839517D01*
X125201201Y-96789962D01*
X125197513Y-96732901D01*
X125219423Y-96680086D01*
X125262416Y-96642395D01*
X125393004Y-96572595D01*
X125546568Y-96446568D01*
X125625475Y-96350420D01*
X125672593Y-96293007D01*
X125672595Y-96293004D01*
X125766241Y-96117804D01*
X125823908Y-95927701D01*
X125843380Y-95730000D01*
X125825619Y-95549667D01*
X125823908Y-95532298D01*
X125774918Y-95370800D01*
X125766241Y-95342196D01*
X125672595Y-95166996D01*
X125672593Y-95166992D01*
X125546568Y-95013431D01*
X125393007Y-94887406D01*
X125217802Y-94793758D01*
X125027701Y-94736091D01*
X124879550Y-94721500D01*
X124879547Y-94721500D01*
X123680453Y-94721500D01*
X123680450Y-94721500D01*
X123532298Y-94736091D01*
X123342197Y-94793758D01*
X123166992Y-94887406D01*
X123013431Y-95013431D01*
X122887406Y-95166992D01*
X122793758Y-95342197D01*
X122736091Y-95532298D01*
X122716619Y-95730000D01*
X117801552Y-95730000D01*
X117842965Y-95620801D01*
X117863704Y-95450000D01*
X117842965Y-95279199D01*
X117800917Y-95168326D01*
X117781955Y-95118327D01*
X117781954Y-95118325D01*
X117684215Y-94976727D01*
X117555430Y-94862633D01*
X117403083Y-94782675D01*
X117270514Y-94750000D01*
X118636296Y-94750000D01*
X118657034Y-94920800D01*
X118718044Y-95081672D01*
X118718045Y-95081674D01*
X118718046Y-95081675D01*
X118815785Y-95223273D01*
X118944570Y-95337367D01*
X119096917Y-95417325D01*
X119263972Y-95458500D01*
X119436026Y-95458500D01*
X119436028Y-95458500D01*
X119603083Y-95417325D01*
X119755430Y-95337367D01*
X119884215Y-95223273D01*
X119981954Y-95081675D01*
X120042965Y-94920801D01*
X120063704Y-94750000D01*
X120042965Y-94579199D01*
X120020817Y-94520798D01*
X119981955Y-94418327D01*
X119980850Y-94416726D01*
X119884215Y-94276727D01*
X119755430Y-94162633D01*
X119603083Y-94082675D01*
X119436028Y-94041500D01*
X119263972Y-94041500D01*
X119096917Y-94082675D01*
X119096916Y-94082675D01*
X119096914Y-94082676D01*
X118944571Y-94162632D01*
X118826397Y-94267325D01*
X118815785Y-94276727D01*
X118790573Y-94313253D01*
X118718044Y-94418327D01*
X118657034Y-94579199D01*
X118636296Y-94750000D01*
X117270514Y-94750000D01*
X117236028Y-94741500D01*
X117063972Y-94741500D01*
X116896917Y-94782675D01*
X116896916Y-94782675D01*
X116896914Y-94782676D01*
X116744571Y-94862632D01*
X116744569Y-94862633D01*
X116744570Y-94862633D01*
X116615785Y-94976727D01*
X116597490Y-95003232D01*
X116518044Y-95118327D01*
X116457034Y-95279199D01*
X116436296Y-95450000D01*
X114812929Y-95450000D01*
X114842965Y-95370801D01*
X114863704Y-95200000D01*
X114842965Y-95029199D01*
X114809074Y-94939835D01*
X114781955Y-94868327D01*
X114778024Y-94862632D01*
X114684215Y-94726727D01*
X114555430Y-94612633D01*
X114441340Y-94552754D01*
X114403085Y-94532676D01*
X114403084Y-94532675D01*
X114403083Y-94532675D01*
X114236028Y-94491500D01*
X114063972Y-94491500D01*
X113896917Y-94532675D01*
X113896916Y-94532675D01*
X113896914Y-94532676D01*
X113744571Y-94612632D01*
X113651959Y-94694679D01*
X113615785Y-94726727D01*
X113609321Y-94736092D01*
X113518044Y-94868327D01*
X113457034Y-95029199D01*
X113436296Y-95199999D01*
X111371212Y-95199999D01*
X112544477Y-94026734D01*
X112582697Y-93979305D01*
X112643440Y-93846296D01*
X112664249Y-93701562D01*
X112643440Y-93556828D01*
X112591160Y-93442352D01*
X112580096Y-93381022D01*
X112599777Y-93321890D01*
X112645390Y-93279423D01*
X112705775Y-93264011D01*
X112857056Y-93264011D01*
X112857059Y-93264011D01*
X113079125Y-93226955D01*
X113292064Y-93153853D01*
X113490066Y-93046700D01*
X113667730Y-92908417D01*
X113820212Y-92742779D01*
X113943350Y-92554302D01*
X114033786Y-92348127D01*
X114089054Y-92129879D01*
X114107646Y-91905511D01*
X114089054Y-91681143D01*
X114033786Y-91462895D01*
X113943350Y-91256720D01*
X113820212Y-91068243D01*
X113667730Y-90902605D01*
X113667729Y-90902604D01*
X113667727Y-90902602D01*
X113490068Y-90764323D01*
X113292063Y-90657168D01*
X113135670Y-90603479D01*
X113079125Y-90584067D01*
X112857059Y-90547011D01*
X112631921Y-90547011D01*
X112409855Y-90584067D01*
X112409852Y-90584067D01*
X112409852Y-90584068D01*
X112196916Y-90657168D01*
X111998911Y-90764323D01*
X111821252Y-90902602D01*
X111668768Y-91068242D01*
X111545629Y-91256720D01*
X111455192Y-91462899D01*
X111415833Y-91618327D01*
X111399926Y-91681143D01*
X111384498Y-91867325D01*
X111381334Y-91905511D01*
X111383606Y-91932928D01*
X111372153Y-91996750D01*
X111330479Y-92046425D01*
X111269621Y-92068799D01*
X111205695Y-92057947D01*
X111093172Y-92006560D01*
X110948439Y-91985751D01*
X110803707Y-92006560D01*
X110670695Y-92067304D01*
X110623263Y-92105527D01*
X109352404Y-93376386D01*
X109314181Y-93423818D01*
X109253437Y-93556830D01*
X109232628Y-93701562D01*
X108089569Y-93701562D01*
X108053583Y-93682675D01*
X107886528Y-93641500D01*
X107780369Y-93641500D01*
X107721814Y-93627067D01*
X107676673Y-93587076D01*
X107655288Y-93530688D01*
X107642965Y-93429199D01*
X107581955Y-93268327D01*
X107578976Y-93264011D01*
X107484215Y-93126727D01*
X107355430Y-93012633D01*
X107210060Y-92936337D01*
X107203085Y-92932676D01*
X107203084Y-92932675D01*
X107203083Y-92932675D01*
X107036028Y-92891500D01*
X106863972Y-92891500D01*
X106767963Y-92915164D01*
X106682063Y-92936336D01*
X106681342Y-92933413D01*
X106649480Y-92941260D01*
X106617663Y-92933413D01*
X106616943Y-92936336D01*
X106531043Y-92915164D01*
X106435034Y-92891500D01*
X106262978Y-92891500D01*
X106166969Y-92915164D01*
X106081069Y-92936336D01*
X106080300Y-92933218D01*
X106049253Y-92940869D01*
X106018208Y-92933218D01*
X106017440Y-92936337D01*
X106002588Y-92932676D01*
X106002586Y-92932675D01*
X105835531Y-92891500D01*
X105663475Y-92891500D01*
X105567466Y-92915164D01*
X105481566Y-92936336D01*
X105480797Y-92933218D01*
X105449750Y-92940869D01*
X105418705Y-92933218D01*
X105417937Y-92936337D01*
X105403085Y-92932676D01*
X105403083Y-92932675D01*
X105236028Y-92891500D01*
X105063972Y-92891500D01*
X104967963Y-92915164D01*
X104896913Y-92932676D01*
X104866170Y-92948811D01*
X104807616Y-92963242D01*
X104749065Y-92948810D01*
X104718322Y-92932675D01*
X104551267Y-92891500D01*
X104379211Y-92891500D01*
X104212156Y-92932675D01*
X104212155Y-92932675D01*
X104212153Y-92932676D01*
X104059810Y-93012632D01*
X103919573Y-93136872D01*
X103918758Y-93135953D01*
X103888796Y-93162497D01*
X103849529Y-93172175D01*
X103849799Y-93173268D01*
X103834946Y-93176929D01*
X103834944Y-93176929D01*
X103667889Y-93218104D01*
X103667887Y-93218104D01*
X103667887Y-93218105D01*
X103506050Y-93303042D01*
X103447495Y-93317474D01*
X103388941Y-93303041D01*
X103343801Y-93263052D01*
X103284215Y-93176727D01*
X103155430Y-93062633D01*
X103010060Y-92986337D01*
X103003085Y-92982676D01*
X103003084Y-92982675D01*
X103003083Y-92982675D01*
X102836028Y-92941500D01*
X102663972Y-92941500D01*
X102550948Y-92969357D01*
X102482063Y-92986336D01*
X102481310Y-92983284D01*
X102450000Y-92990999D01*
X102418689Y-92983284D01*
X102417937Y-92986336D01*
X102349051Y-92969357D01*
X102236028Y-92941500D01*
X102063972Y-92941500D01*
X101950948Y-92969357D01*
X101882063Y-92986336D01*
X101881310Y-92983284D01*
X101850000Y-92990999D01*
X101818688Y-92983284D01*
X101817936Y-92986336D01*
X101659716Y-92947338D01*
X101601857Y-92915164D01*
X101568296Y-92858100D01*
X101568296Y-92791897D01*
X101601858Y-92734833D01*
X101659713Y-92702662D01*
X101803083Y-92667325D01*
X101955430Y-92587367D01*
X102084215Y-92473273D01*
X102181954Y-92331675D01*
X102242965Y-92170801D01*
X102245491Y-92150000D01*
X108386296Y-92150000D01*
X108407034Y-92320800D01*
X108468044Y-92481672D01*
X108468045Y-92481674D01*
X108468046Y-92481675D01*
X108565785Y-92623273D01*
X108694570Y-92737367D01*
X108846917Y-92817325D01*
X109013972Y-92858500D01*
X109186026Y-92858500D01*
X109186028Y-92858500D01*
X109353083Y-92817325D01*
X109505430Y-92737367D01*
X109634215Y-92623273D01*
X109731954Y-92481675D01*
X109792965Y-92320801D01*
X109813704Y-92150000D01*
X109792965Y-91979199D01*
X109771626Y-91922933D01*
X109726529Y-91804020D01*
X109726692Y-91803958D01*
X109714439Y-91775196D01*
X109714442Y-91724789D01*
X109726691Y-91696041D01*
X109726529Y-91695980D01*
X109743483Y-91651273D01*
X109792965Y-91520801D01*
X109813704Y-91350000D01*
X109813703Y-91349999D01*
X109815548Y-91334812D01*
X109816357Y-91334910D01*
X109821382Y-91293516D01*
X109855644Y-91243880D01*
X109890217Y-91225736D01*
X109889535Y-91224436D01*
X109938690Y-91198637D01*
X110055430Y-91137367D01*
X110184215Y-91023273D01*
X110281954Y-90881675D01*
X110293852Y-90850299D01*
X110328111Y-90800667D01*
X110381512Y-90772641D01*
X110403083Y-90767325D01*
X110555430Y-90687367D01*
X110684215Y-90573273D01*
X110781954Y-90431675D01*
X110781954Y-90431672D01*
X110790645Y-90419083D01*
X110792792Y-90420564D01*
X110812351Y-90392228D01*
X110840986Y-90377201D01*
X110839535Y-90374436D01*
X111005428Y-90287368D01*
X111005427Y-90287368D01*
X111005430Y-90287367D01*
X111134215Y-90173273D01*
X111231954Y-90031675D01*
X111292965Y-89870801D01*
X111313704Y-89700000D01*
X111313703Y-89699998D01*
X111313783Y-89699347D01*
X111338747Y-89638032D01*
X111381665Y-89605236D01*
X111332235Y-89583703D01*
X111293323Y-89530144D01*
X111288461Y-89517325D01*
X111231954Y-89368325D01*
X111134215Y-89226727D01*
X111005430Y-89112633D01*
X110927999Y-89071994D01*
X110853085Y-89032676D01*
X110853084Y-89032675D01*
X110853083Y-89032675D01*
X110686028Y-88991500D01*
X110513972Y-88991500D01*
X110346917Y-89032675D01*
X110346916Y-89032675D01*
X110346914Y-89032676D01*
X110194571Y-89112632D01*
X110065783Y-89226728D01*
X109959354Y-89380916D01*
X109957211Y-89379437D01*
X109937660Y-89407761D01*
X109909015Y-89422804D01*
X109910464Y-89425565D01*
X109744571Y-89512632D01*
X109615783Y-89626728D01*
X109518044Y-89768325D01*
X109506145Y-89799701D01*
X109471888Y-89849331D01*
X109418491Y-89877357D01*
X109396916Y-89882675D01*
X109244571Y-89962632D01*
X109116736Y-90075884D01*
X109115785Y-90076727D01*
X109108441Y-90087367D01*
X109018044Y-90218327D01*
X108957034Y-90379199D01*
X108934452Y-90565188D01*
X108933643Y-90565089D01*
X108928616Y-90606485D01*
X108894360Y-90656115D01*
X108859781Y-90674265D01*
X108860464Y-90675565D01*
X108694571Y-90762632D01*
X108575266Y-90868327D01*
X108565785Y-90876727D01*
X108562370Y-90881675D01*
X108468044Y-91018327D01*
X108407034Y-91179199D01*
X108386296Y-91349999D01*
X108407034Y-91520800D01*
X108473471Y-91695980D01*
X108473308Y-91696041D01*
X108485558Y-91724792D01*
X108485560Y-91775193D01*
X108473307Y-91803958D01*
X108473471Y-91804020D01*
X108407034Y-91979199D01*
X108386296Y-92150000D01*
X102245491Y-92150000D01*
X102263704Y-92000000D01*
X102242965Y-91829199D01*
X102186815Y-91681143D01*
X102181955Y-91668327D01*
X102181954Y-91668325D01*
X102084215Y-91526727D01*
X101955430Y-91412633D01*
X101836091Y-91349999D01*
X101803085Y-91332676D01*
X101803084Y-91332675D01*
X101803083Y-91332675D01*
X101636028Y-91291500D01*
X101463972Y-91291500D01*
X101296917Y-91332675D01*
X101296916Y-91332675D01*
X101296914Y-91332676D01*
X101144571Y-91412632D01*
X101144569Y-91412633D01*
X101144570Y-91412633D01*
X101015785Y-91526727D01*
X100994812Y-91557112D01*
X100918044Y-91668327D01*
X100857034Y-91829199D01*
X100836296Y-92000000D01*
X100857034Y-92170800D01*
X100918044Y-92331672D01*
X100918045Y-92331674D01*
X100918046Y-92331675D01*
X101015785Y-92473273D01*
X101144570Y-92587367D01*
X101296917Y-92667325D01*
X101440285Y-92702661D01*
X101498141Y-92734833D01*
X101531703Y-92791897D01*
X101531703Y-92858100D01*
X101498142Y-92915164D01*
X101440283Y-92947338D01*
X101282064Y-92986336D01*
X101281295Y-92983218D01*
X101250247Y-92990869D01*
X101219202Y-92983218D01*
X101218434Y-92986337D01*
X101203582Y-92982676D01*
X101203580Y-92982675D01*
X101036525Y-92941500D01*
X100864469Y-92941500D01*
X100697414Y-92982675D01*
X100697413Y-92982675D01*
X100697411Y-92982676D01*
X100545068Y-93062632D01*
X100545066Y-93062633D01*
X100545067Y-93062633D01*
X100416282Y-93176727D01*
X100399304Y-93201324D01*
X100318541Y-93318327D01*
X100257531Y-93479199D01*
X100236793Y-93649999D01*
X93036095Y-93649999D01*
X93155430Y-93587367D01*
X93284215Y-93473273D01*
X93381954Y-93331675D01*
X93442965Y-93170801D01*
X93463704Y-93000000D01*
X93442965Y-92829199D01*
X93419435Y-92767156D01*
X93381955Y-92668327D01*
X93381954Y-92668325D01*
X93284215Y-92526727D01*
X93155430Y-92412633D01*
X93003083Y-92332675D01*
X92836028Y-92291500D01*
X92663972Y-92291500D01*
X92496917Y-92332675D01*
X92496916Y-92332675D01*
X92496914Y-92332676D01*
X92344571Y-92412632D01*
X92215786Y-92526726D01*
X92118044Y-92668327D01*
X92057034Y-92829199D01*
X92036296Y-93000000D01*
X87119305Y-93000000D01*
X87131954Y-92981675D01*
X87192965Y-92820801D01*
X87213704Y-92650000D01*
X87192965Y-92479199D01*
X87176424Y-92435583D01*
X87131955Y-92318327D01*
X87125172Y-92308500D01*
X87034215Y-92176727D01*
X86905430Y-92062633D01*
X86753083Y-91982675D01*
X86586028Y-91941500D01*
X86413972Y-91941500D01*
X86261020Y-91979199D01*
X86246917Y-91982675D01*
X86094566Y-92062635D01*
X86058553Y-92094540D01*
X86005154Y-92122567D01*
X85944846Y-92122567D01*
X85891447Y-92094540D01*
X85855433Y-92062635D01*
X85855431Y-92062634D01*
X85855430Y-92062633D01*
X85703083Y-91982675D01*
X85536028Y-91941500D01*
X85363972Y-91941500D01*
X85196917Y-91982675D01*
X85196916Y-91982675D01*
X85196914Y-91982676D01*
X85044571Y-92062632D01*
X84915786Y-92176726D01*
X84818044Y-92318327D01*
X84757034Y-92479199D01*
X84736296Y-92650000D01*
X81145250Y-92650000D01*
X81212453Y-92435583D01*
X81212752Y-92434645D01*
X81375164Y-91933704D01*
X81376368Y-91930172D01*
X81531844Y-91496475D01*
X81531931Y-91496234D01*
X81714905Y-90999159D01*
X81716260Y-90995656D01*
X81887856Y-90571846D01*
X81887859Y-90571837D01*
X82091507Y-90079072D01*
X82093118Y-90075349D01*
X82172522Y-89900000D01*
X87836296Y-89900000D01*
X87857034Y-90070800D01*
X87918044Y-90231672D01*
X87918045Y-90231674D01*
X87918046Y-90231675D01*
X88015785Y-90373273D01*
X88144570Y-90487367D01*
X88296917Y-90567325D01*
X88463972Y-90608500D01*
X88636026Y-90608500D01*
X88636028Y-90608500D01*
X88803083Y-90567325D01*
X88955430Y-90487367D01*
X89084215Y-90373273D01*
X89181954Y-90231675D01*
X89242965Y-90070801D01*
X89263704Y-89900000D01*
X89242965Y-89729199D01*
X89219468Y-89667243D01*
X89181955Y-89568327D01*
X89181954Y-89568325D01*
X89084215Y-89426727D01*
X88955430Y-89312633D01*
X88803083Y-89232675D01*
X88636028Y-89191500D01*
X88463972Y-89191500D01*
X88296917Y-89232675D01*
X88296916Y-89232675D01*
X88296914Y-89232676D01*
X88144571Y-89312632D01*
X88017096Y-89425565D01*
X88015785Y-89426727D01*
X88008441Y-89437367D01*
X87918044Y-89568327D01*
X87857034Y-89729199D01*
X87836296Y-89900000D01*
X82172522Y-89900000D01*
X82279588Y-89663567D01*
X82504494Y-89174580D01*
X82506359Y-89170705D01*
X82537731Y-89108284D01*
X82705465Y-88774536D01*
X82705619Y-88774228D01*
X82953181Y-88287206D01*
X82955265Y-88283284D01*
X83162923Y-87908712D01*
X83436859Y-87418369D01*
X83439128Y-87414479D01*
X83643140Y-87079247D01*
X83643277Y-87079024D01*
X83643323Y-87079052D01*
X83643400Y-87078823D01*
X83954716Y-86569522D01*
X83957303Y-86565468D01*
X84075239Y-86388254D01*
X84493276Y-85760988D01*
X84501677Y-85750760D01*
X84500500Y-85737550D01*
X84500500Y-84980675D01*
X84516727Y-84918821D01*
X84561229Y-84872899D01*
X84622542Y-84854737D01*
X84684875Y-84869013D01*
X84732173Y-84912051D01*
X84745643Y-84932793D01*
X84990270Y-85234881D01*
X85265118Y-85509729D01*
X85265123Y-85509733D01*
X85265124Y-85509734D01*
X85567207Y-85754357D01*
X85893205Y-85966062D01*
X86239547Y-86142532D01*
X86602438Y-86281833D01*
X86977901Y-86382438D01*
X87064229Y-86396110D01*
X87115779Y-86416647D01*
X87153508Y-86457338D01*
X87170098Y-86510292D01*
X87162330Y-86565237D01*
X87157034Y-86579199D01*
X87136296Y-86750000D01*
X87157034Y-86920800D01*
X87218044Y-87081672D01*
X87218045Y-87081674D01*
X87218046Y-87081675D01*
X87315785Y-87223273D01*
X87444570Y-87337367D01*
X87596917Y-87417325D01*
X87763972Y-87458500D01*
X87936026Y-87458500D01*
X87936028Y-87458500D01*
X88103083Y-87417325D01*
X88255430Y-87337367D01*
X88384215Y-87223273D01*
X88481954Y-87081675D01*
X88542965Y-86920801D01*
X88563704Y-86750000D01*
X88542965Y-86579199D01*
X88536835Y-86563037D01*
X88522724Y-86525826D01*
X88516916Y-86456772D01*
X88548501Y-86395091D01*
X88607922Y-86359441D01*
X88897562Y-86281833D01*
X89260453Y-86142532D01*
X89606795Y-85966062D01*
X89932793Y-85754357D01*
X90082616Y-85633032D01*
X90146983Y-85605840D01*
X90215942Y-85617127D01*
X90268283Y-85663421D01*
X90287908Y-85730485D01*
X90268781Y-85797694D01*
X90230201Y-85859471D01*
X90139116Y-86071766D01*
X90081438Y-86295453D01*
X90065292Y-86457338D01*
X90058512Y-86525323D01*
X90070872Y-86756000D01*
X90118232Y-86982100D01*
X90199485Y-87198347D01*
X90312733Y-87399690D01*
X90401353Y-87512633D01*
X90455336Y-87581432D01*
X90538028Y-87658838D01*
X90541187Y-87661900D01*
X93229601Y-90360615D01*
X93234566Y-90367853D01*
X93262142Y-90393415D01*
X93265582Y-90396727D01*
X93276696Y-90407842D01*
X93279971Y-90409972D01*
X93348655Y-90473757D01*
X93540211Y-90603479D01*
X93540212Y-90603479D01*
X93540213Y-90603480D01*
X93749317Y-90702470D01*
X93971072Y-90768410D01*
X94200290Y-90799756D01*
X94200290Y-90799755D01*
X94200291Y-90799756D01*
X94238842Y-90799092D01*
X94431607Y-90795775D01*
X94659610Y-90756560D01*
X94878965Y-90683030D01*
X95084539Y-90576903D01*
X95190085Y-90500000D01*
X95271519Y-90440666D01*
X95318116Y-90394311D01*
X95435536Y-90277501D01*
X95572747Y-90091231D01*
X95679943Y-89886212D01*
X95754616Y-89667243D01*
X95766542Y-89599999D01*
X96936296Y-89599999D01*
X96957034Y-89770800D01*
X97018044Y-89931672D01*
X97018045Y-89931674D01*
X97018046Y-89931675D01*
X97115785Y-90073273D01*
X97244570Y-90187367D01*
X97396917Y-90267325D01*
X97563972Y-90308500D01*
X97563974Y-90308500D01*
X97578827Y-90312161D01*
X97578803Y-90312257D01*
X97622115Y-90322933D01*
X97667256Y-90362924D01*
X97688641Y-90419312D01*
X97707034Y-90570800D01*
X97768044Y-90731672D01*
X97768045Y-90731674D01*
X97768046Y-90731675D01*
X97865785Y-90873273D01*
X97994570Y-90987367D01*
X98146917Y-91067325D01*
X98273648Y-91098561D01*
X98327045Y-91126586D01*
X98361304Y-91176218D01*
X98368573Y-91236086D01*
X98347188Y-91292474D01*
X98302048Y-91332466D01*
X98244570Y-91362633D01*
X98115786Y-91476726D01*
X98018044Y-91618327D01*
X97957034Y-91779199D01*
X97936296Y-91950000D01*
X97957034Y-92120800D01*
X98018044Y-92281672D01*
X98018045Y-92281674D01*
X98018046Y-92281675D01*
X98115785Y-92423273D01*
X98244570Y-92537367D01*
X98396917Y-92617325D01*
X98563972Y-92658500D01*
X98736026Y-92658500D01*
X98736028Y-92658500D01*
X98903083Y-92617325D01*
X99055430Y-92537367D01*
X99184215Y-92423273D01*
X99281954Y-92281675D01*
X99342965Y-92120801D01*
X99355287Y-92019312D01*
X99376673Y-91962924D01*
X99421814Y-91922933D01*
X99480369Y-91908500D01*
X99536026Y-91908500D01*
X99536028Y-91908500D01*
X99703083Y-91867325D01*
X99855430Y-91787367D01*
X99984215Y-91673273D01*
X100081954Y-91531675D01*
X100142965Y-91370801D01*
X100163704Y-91200000D01*
X100142965Y-91029199D01*
X100115705Y-90957319D01*
X100081955Y-90868327D01*
X100069513Y-90850302D01*
X99984215Y-90726727D01*
X99855430Y-90612633D01*
X99703083Y-90532675D01*
X99536028Y-90491500D01*
X99363972Y-90491500D01*
X99269854Y-90514697D01*
X99199800Y-90511873D01*
X99142100Y-90472046D01*
X99114620Y-90407545D01*
X99113306Y-90396727D01*
X99092965Y-90229199D01*
X99069879Y-90168325D01*
X99031955Y-90068327D01*
X99027216Y-90061461D01*
X98934215Y-89926727D01*
X98805430Y-89812633D01*
X98733725Y-89774999D01*
X101761296Y-89774999D01*
X101782034Y-89945800D01*
X101848471Y-90120980D01*
X101845974Y-90121926D01*
X101858090Y-90153883D01*
X101850820Y-90213743D01*
X101807035Y-90329197D01*
X101786296Y-90499999D01*
X101807034Y-90670800D01*
X101868044Y-90831672D01*
X101868045Y-90831674D01*
X101868046Y-90831675D01*
X101965785Y-90973273D01*
X102094570Y-91087367D01*
X102246917Y-91167325D01*
X102413972Y-91208500D01*
X102586028Y-91208500D01*
X102586029Y-91208500D01*
X102600660Y-91204893D01*
X102637493Y-91195815D01*
X102707545Y-91198637D01*
X102765246Y-91238464D01*
X102792727Y-91302965D01*
X102807034Y-91420800D01*
X102868044Y-91581672D01*
X102868045Y-91581674D01*
X102868046Y-91581675D01*
X102965785Y-91723273D01*
X103094570Y-91837367D01*
X103246917Y-91917325D01*
X103413972Y-91958500D01*
X103586026Y-91958500D01*
X103586028Y-91958500D01*
X103753083Y-91917325D01*
X103905430Y-91837367D01*
X104034215Y-91723273D01*
X104121305Y-91597101D01*
X104166445Y-91557112D01*
X104225000Y-91542680D01*
X104283555Y-91557112D01*
X104328694Y-91597101D01*
X104415785Y-91723273D01*
X104544570Y-91837367D01*
X104696917Y-91917325D01*
X104863972Y-91958500D01*
X105036026Y-91958500D01*
X105036028Y-91958500D01*
X105203083Y-91917325D01*
X105355430Y-91837367D01*
X105484215Y-91723273D01*
X105581954Y-91581675D01*
X105642965Y-91420801D01*
X105663704Y-91250000D01*
X105642965Y-91079199D01*
X105621755Y-91023273D01*
X105581955Y-90918327D01*
X105571101Y-90902602D01*
X105484215Y-90776727D01*
X105355430Y-90662633D01*
X105203083Y-90582675D01*
X105036028Y-90541500D01*
X104863972Y-90541500D01*
X104696917Y-90582675D01*
X104696916Y-90582675D01*
X104696914Y-90582676D01*
X104544571Y-90662632D01*
X104415783Y-90776728D01*
X104328695Y-90902896D01*
X104283555Y-90942887D01*
X104225000Y-90957319D01*
X104166445Y-90942887D01*
X104121305Y-90902896D01*
X104034216Y-90776728D01*
X104020214Y-90764323D01*
X103905430Y-90662633D01*
X103753083Y-90582675D01*
X103586028Y-90541500D01*
X103586026Y-90541500D01*
X103578321Y-90539601D01*
X103519380Y-90506357D01*
X103486136Y-90447416D01*
X103488180Y-90379776D01*
X103524919Y-90322952D01*
X103609215Y-90248273D01*
X103706954Y-90106675D01*
X103767965Y-89945801D01*
X103788704Y-89775000D01*
X103767965Y-89604199D01*
X103739880Y-89530144D01*
X103706955Y-89443327D01*
X103702841Y-89437367D01*
X103609215Y-89301727D01*
X103480430Y-89187633D01*
X103374998Y-89132298D01*
X103328085Y-89107676D01*
X103328084Y-89107675D01*
X103328083Y-89107675D01*
X103161028Y-89066500D01*
X102988972Y-89066500D01*
X102880182Y-89093314D01*
X102807063Y-89111336D01*
X102806311Y-89108284D01*
X102774972Y-89115999D01*
X102743689Y-89108284D01*
X102742937Y-89111336D01*
X102669818Y-89093314D01*
X102561028Y-89066500D01*
X102388972Y-89066500D01*
X102221917Y-89107675D01*
X102221916Y-89107675D01*
X102221914Y-89107676D01*
X102069571Y-89187632D01*
X101940786Y-89301726D01*
X101843044Y-89443327D01*
X101782034Y-89604199D01*
X101761296Y-89774999D01*
X98733725Y-89774999D01*
X98653083Y-89732675D01*
X98486028Y-89691500D01*
X98486026Y-89691500D01*
X98471173Y-89687839D01*
X98471196Y-89687742D01*
X98427885Y-89677067D01*
X98382744Y-89637076D01*
X98361359Y-89580688D01*
X98359498Y-89565365D01*
X98342965Y-89429199D01*
X98304103Y-89326727D01*
X98281955Y-89268327D01*
X98281954Y-89268325D01*
X98184215Y-89126727D01*
X98055430Y-89012633D01*
X97903083Y-88932675D01*
X97736028Y-88891500D01*
X97563972Y-88891500D01*
X97396917Y-88932675D01*
X97396916Y-88932675D01*
X97396914Y-88932676D01*
X97244571Y-89012632D01*
X97117306Y-89125379D01*
X97115785Y-89126727D01*
X97111679Y-89132676D01*
X97018044Y-89268327D01*
X96957034Y-89429199D01*
X96936296Y-89599999D01*
X95766542Y-89599999D01*
X95795017Y-89439447D01*
X95800203Y-89208154D01*
X95797505Y-89187633D01*
X95787647Y-89112633D01*
X95770051Y-88978776D01*
X95705267Y-88756681D01*
X95607368Y-88547064D01*
X95478643Y-88354832D01*
X95416062Y-88286738D01*
X95413712Y-88283006D01*
X95402280Y-88271574D01*
X95398536Y-88267666D01*
X95373439Y-88240317D01*
X95366014Y-88235186D01*
X95231306Y-88100000D01*
X108186296Y-88100000D01*
X108207034Y-88270800D01*
X108268044Y-88431672D01*
X108268045Y-88431674D01*
X108268046Y-88431675D01*
X108365785Y-88573273D01*
X108494570Y-88687367D01*
X108646917Y-88767325D01*
X108813972Y-88808500D01*
X108986026Y-88808500D01*
X108986028Y-88808500D01*
X109153083Y-88767325D01*
X109305430Y-88687367D01*
X109434215Y-88573273D01*
X109531954Y-88431675D01*
X109592965Y-88270801D01*
X109613704Y-88100000D01*
X109592965Y-87929199D01*
X109531954Y-87768325D01*
X109434215Y-87626727D01*
X109305430Y-87512633D01*
X109153083Y-87432675D01*
X108986028Y-87391500D01*
X108813972Y-87391500D01*
X108646917Y-87432675D01*
X108646916Y-87432675D01*
X108646914Y-87432676D01*
X108494571Y-87512632D01*
X108494569Y-87512633D01*
X108494570Y-87512633D01*
X108365785Y-87626727D01*
X108346211Y-87655085D01*
X108268044Y-87768327D01*
X108207034Y-87929199D01*
X108186296Y-88100000D01*
X95231306Y-88100000D01*
X92676575Y-85536211D01*
X92673464Y-85532975D01*
X92596453Y-85449958D01*
X92596452Y-85449957D01*
X92415357Y-85306537D01*
X92214527Y-85192380D01*
X92214522Y-85192377D01*
X91998652Y-85110152D01*
X91772765Y-85061771D01*
X91542144Y-85048370D01*
X91312178Y-85070259D01*
X91088226Y-85126928D01*
X90875529Y-85217051D01*
X90803065Y-85261851D01*
X90735885Y-85280675D01*
X90668988Y-85260869D01*
X90622884Y-85208505D01*
X90611709Y-85139638D01*
X90638886Y-85075386D01*
X90754357Y-84932793D01*
X90966062Y-84606795D01*
X91142532Y-84260453D01*
X91281833Y-83897562D01*
X91382438Y-83522099D01*
X91443246Y-83138176D01*
X91463589Y-82750000D01*
X91443246Y-82361824D01*
X91382438Y-81977901D01*
X91281833Y-81602438D01*
X91142532Y-81239547D01*
X90966062Y-80893206D01*
X90754357Y-80567207D01*
X90509734Y-80265124D01*
X90509733Y-80265123D01*
X90509729Y-80265118D01*
X90234881Y-79990270D01*
X89932793Y-79745643D01*
X89912051Y-79732173D01*
X89869013Y-79684875D01*
X89854737Y-79622542D01*
X89872899Y-79561229D01*
X89918821Y-79516727D01*
X89980675Y-79500500D01*
X90737335Y-79500500D01*
X90750896Y-79501734D01*
X90761547Y-79492994D01*
X91396811Y-79074641D01*
X91567376Y-78962474D01*
X91571389Y-78959943D01*
X92084199Y-78650077D01*
X92084429Y-78650001D01*
X92084401Y-78649955D01*
X92084584Y-78649844D01*
X92416772Y-78449999D01*
X100776573Y-78449999D01*
X100796257Y-78737774D01*
X100854945Y-79020197D01*
X100951542Y-79291997D01*
X101084244Y-79548099D01*
X101250591Y-79783758D01*
X101447476Y-79994570D01*
X101671222Y-80176602D01*
X101671226Y-80176604D01*
X101671228Y-80176606D01*
X101917686Y-80326481D01*
X102182256Y-80441400D01*
X102460011Y-80519223D01*
X102460013Y-80519223D01*
X102460016Y-80519224D01*
X102745771Y-80558500D01*
X102745775Y-80558500D01*
X103034225Y-80558500D01*
X103034229Y-80558500D01*
X103319983Y-80519224D01*
X103319984Y-80519223D01*
X103319989Y-80519223D01*
X103597744Y-80441400D01*
X103862314Y-80326481D01*
X104108772Y-80176606D01*
X104332526Y-79994568D01*
X104529409Y-79783758D01*
X104695753Y-79548103D01*
X104712011Y-79516727D01*
X104828457Y-79291997D01*
X104890451Y-79117562D01*
X104925055Y-79020196D01*
X104983742Y-78737778D01*
X105003427Y-78450000D01*
X105003427Y-78449999D01*
X105776573Y-78449999D01*
X105796257Y-78737774D01*
X105854945Y-79020197D01*
X105951542Y-79291997D01*
X106084244Y-79548099D01*
X106250591Y-79783758D01*
X106447476Y-79994570D01*
X106671222Y-80176602D01*
X106671226Y-80176604D01*
X106671228Y-80176606D01*
X106917686Y-80326481D01*
X107182256Y-80441400D01*
X107460011Y-80519223D01*
X107460013Y-80519223D01*
X107460016Y-80519224D01*
X107745771Y-80558500D01*
X107745775Y-80558500D01*
X108034225Y-80558500D01*
X108034229Y-80558500D01*
X108319983Y-80519224D01*
X108319984Y-80519223D01*
X108319989Y-80519223D01*
X108597744Y-80441400D01*
X108862314Y-80326481D01*
X109108772Y-80176606D01*
X109332526Y-79994568D01*
X109529409Y-79783758D01*
X109695753Y-79548103D01*
X109712011Y-79516727D01*
X109828457Y-79291997D01*
X109890451Y-79117562D01*
X109925055Y-79020196D01*
X109983742Y-78737778D01*
X110003427Y-78450000D01*
X109983742Y-78162222D01*
X109925055Y-77879804D01*
X109828459Y-77608008D01*
X109828457Y-77608002D01*
X109695755Y-77351900D01*
X109547103Y-77141309D01*
X109529409Y-77116242D01*
X109332526Y-76905432D01*
X109332525Y-76905431D01*
X109332523Y-76905429D01*
X109108777Y-76723397D01*
X109069832Y-76699714D01*
X108862314Y-76573519D01*
X108597744Y-76458600D01*
X108413224Y-76406900D01*
X108319983Y-76380775D01*
X108034229Y-76341500D01*
X108034225Y-76341500D01*
X107745775Y-76341500D01*
X107745771Y-76341500D01*
X107460016Y-76380775D01*
X107182255Y-76458600D01*
X106917687Y-76573518D01*
X106671222Y-76723397D01*
X106447476Y-76905429D01*
X106250591Y-77116241D01*
X106084244Y-77351900D01*
X105951542Y-77608002D01*
X105854945Y-77879802D01*
X105796257Y-78162225D01*
X105776573Y-78449999D01*
X105003427Y-78449999D01*
X104983742Y-78162222D01*
X104925055Y-77879804D01*
X104828459Y-77608008D01*
X104828457Y-77608002D01*
X104695755Y-77351900D01*
X104547103Y-77141309D01*
X104529409Y-77116242D01*
X104332526Y-76905432D01*
X104332525Y-76905431D01*
X104332523Y-76905429D01*
X104108777Y-76723397D01*
X104069832Y-76699714D01*
X103862314Y-76573519D01*
X103597744Y-76458600D01*
X103413224Y-76406900D01*
X103319983Y-76380775D01*
X103034229Y-76341500D01*
X103034225Y-76341500D01*
X102745775Y-76341500D01*
X102745771Y-76341500D01*
X102460016Y-76380775D01*
X102182255Y-76458600D01*
X101917687Y-76573518D01*
X101671222Y-76723397D01*
X101447476Y-76905429D01*
X101250591Y-77116241D01*
X101084244Y-77351900D01*
X100951542Y-77608002D01*
X100854945Y-77879802D01*
X100796257Y-78162225D01*
X100776573Y-78449999D01*
X92416772Y-78449999D01*
X92417997Y-78449262D01*
X92421928Y-78446996D01*
X92914658Y-78174792D01*
X93288121Y-77970051D01*
X93291971Y-77968028D01*
X93780979Y-77722151D01*
X94176532Y-77525504D01*
X94180191Y-77523764D01*
X94670678Y-77300555D01*
X95081629Y-77116424D01*
X95085305Y-77114850D01*
X95579046Y-76912908D01*
X96002215Y-76743337D01*
X96005747Y-76741987D01*
X96503349Y-76560676D01*
X96503739Y-76560536D01*
X96936707Y-76406889D01*
X96940274Y-76405684D01*
X97441896Y-76244672D01*
X97442638Y-76244438D01*
X97883742Y-76107559D01*
X97887191Y-76106543D01*
X98392961Y-75965604D01*
X98393735Y-75965392D01*
X98841894Y-75845803D01*
X98845053Y-75845007D01*
X99354612Y-75724113D01*
X99355613Y-75723882D01*
X99809502Y-75622073D01*
X99812617Y-75621418D01*
X100325218Y-75520643D01*
X100326650Y-75520371D01*
X100785126Y-75436690D01*
X100788078Y-75436189D01*
X101303449Y-75355503D01*
X101305181Y-75355246D01*
X101767390Y-75289915D01*
X101770110Y-75289564D01*
X102287565Y-75229021D01*
X102289477Y-75228812D01*
X102754479Y-75182017D01*
X102757181Y-75181777D01*
X103276116Y-75141401D01*
X103278219Y-75141255D01*
X103745104Y-75113126D01*
X103747510Y-75113006D01*
X104267540Y-75092807D01*
X104269730Y-75092742D01*
X104737409Y-75083360D01*
X104739937Y-75083335D01*
X105260063Y-75083335D01*
X105262590Y-75083360D01*
G37*
%TD.AperFunction*%
%TD*%
M02*
