%TF.GenerationSoftware,KiCad,Pcbnew,7.0.1*%
%TF.CreationDate,2023-09-19T00:28:16+02:00*%
%TF.ProjectId,MTR_Tiny_MD,4d54525f-5469-46e7-995f-4d442e6b6963,rev?*%
%TF.SameCoordinates,Original*%
%TF.FileFunction,Copper,L2,Inr*%
%TF.FilePolarity,Positive*%
%FSLAX46Y46*%
G04 Gerber Fmt 4.6, Leading zero omitted, Abs format (unit mm)*
G04 Created by KiCad (PCBNEW 7.0.1) date 2023-09-19 00:28:16*
%MOMM*%
%LPD*%
G01*
G04 APERTURE LIST*
G04 Aperture macros list*
%AMRoundRect*
0 Rectangle with rounded corners*
0 $1 Rounding radius*
0 $2 $3 $4 $5 $6 $7 $8 $9 X,Y pos of 4 corners*
0 Add a 4 corners polygon primitive as box body*
4,1,4,$2,$3,$4,$5,$6,$7,$8,$9,$2,$3,0*
0 Add four circle primitives for the rounded corners*
1,1,$1+$1,$2,$3*
1,1,$1+$1,$4,$5*
1,1,$1+$1,$6,$7*
1,1,$1+$1,$8,$9*
0 Add four rect primitives between the rounded corners*
20,1,$1+$1,$2,$3,$4,$5,0*
20,1,$1+$1,$4,$5,$6,$7,0*
20,1,$1+$1,$6,$7,$8,$9,0*
20,1,$1+$1,$8,$9,$2,$3,0*%
%AMHorizOval*
0 Thick line with rounded ends*
0 $1 width*
0 $2 $3 position (X,Y) of the first rounded end (center of the circle)*
0 $4 $5 position (X,Y) of the second rounded end (center of the circle)*
0 Add line between two ends*
20,1,$1,$2,$3,$4,$5,0*
0 Add two circle primitives to create the rounded ends*
1,1,$1,$2,$3*
1,1,$1,$4,$5*%
%AMRotRect*
0 Rectangle, with rotation*
0 The origin of the aperture is its center*
0 $1 length*
0 $2 width*
0 $3 Rotation angle, in degrees counterclockwise*
0 Add horizontal line*
21,1,$1,$2,0,0,$3*%
G04 Aperture macros list end*
%TA.AperFunction,ComponentPad*%
%ADD10R,1.700000X1.700000*%
%TD*%
%TA.AperFunction,ComponentPad*%
%ADD11O,1.700000X1.700000*%
%TD*%
%TA.AperFunction,ComponentPad*%
%ADD12RoundRect,0.165000X1.210000X-1.210000X1.210000X1.210000X-1.210000X1.210000X-1.210000X-1.210000X0*%
%TD*%
%TA.AperFunction,ComponentPad*%
%ADD13C,0.800000*%
%TD*%
%TA.AperFunction,ComponentPad*%
%ADD14C,6.400000*%
%TD*%
%TA.AperFunction,ComponentPad*%
%ADD15C,2.362200*%
%TD*%
%TA.AperFunction,ComponentPad*%
%ADD16O,2.100000X1.000000*%
%TD*%
%TA.AperFunction,ComponentPad*%
%ADD17O,1.600000X1.000000*%
%TD*%
%TA.AperFunction,ComponentPad*%
%ADD18RotRect,1.700000X1.700000X315.000000*%
%TD*%
%TA.AperFunction,ComponentPad*%
%ADD19HorizOval,1.700000X0.000000X0.000000X0.000000X0.000000X0*%
%TD*%
%TA.AperFunction,ViaPad*%
%ADD20C,0.450000*%
%TD*%
%TA.AperFunction,Conductor*%
%ADD21C,0.100000*%
%TD*%
%TA.AperFunction,Conductor*%
%ADD22C,0.200000*%
%TD*%
%TA.AperFunction,Conductor*%
%ADD23C,0.750000*%
%TD*%
%TA.AperFunction,Conductor*%
%ADD24C,0.228600*%
%TD*%
G04 APERTURE END LIST*
D10*
%TO.N,GND*%
%TO.C,J5*%
X110400000Y-111025000D03*
D11*
%TO.N,DOUT*%
X110400000Y-113565000D03*
%TD*%
D12*
%TO.N,OUTC*%
%TO.C,H12*%
X82620000Y-105310000D03*
%TD*%
D13*
%TO.N,GND*%
%TO.C,H1*%
X119850000Y-117250000D03*
X120552944Y-115552944D03*
X120552944Y-118947056D03*
X122250000Y-114850000D03*
D14*
X122250000Y-117250000D03*
D13*
X122250000Y-119650000D03*
X123947056Y-115552944D03*
X123947056Y-118947056D03*
X124650000Y-117250000D03*
%TD*%
%TO.N,GND*%
%TO.C,H3*%
X119850000Y-82750000D03*
X120552944Y-81052944D03*
X120552944Y-84447056D03*
X122250000Y-80350000D03*
D14*
X122250000Y-82750000D03*
D13*
X122250000Y-85150000D03*
X123947056Y-81052944D03*
X123947056Y-84447056D03*
X124650000Y-82750000D03*
%TD*%
%TO.N,GND*%
%TO.C,H8*%
X85350000Y-82750000D03*
X86052944Y-81052944D03*
X86052944Y-84447056D03*
X87750000Y-80350000D03*
D14*
X87750000Y-82750000D03*
D13*
X87750000Y-85150000D03*
X89447056Y-81052944D03*
X89447056Y-84447056D03*
X90150000Y-82750000D03*
%TD*%
%TO.N,GND*%
%TO.C,H9*%
X85350000Y-117250000D03*
X86052944Y-115552944D03*
X86052944Y-118947056D03*
X87750000Y-114850000D03*
D14*
X87750000Y-117250000D03*
D13*
X87750000Y-119650000D03*
X89447056Y-115552944D03*
X89447056Y-118947056D03*
X90150000Y-117250000D03*
%TD*%
D15*
%TO.N,/VM*%
%TO.C,J6*%
X107890000Y-78450000D03*
%TO.N,GND*%
X102890000Y-78450000D03*
%TD*%
D16*
%TO.N,unconnected-(J1-SHIELD-PadS1)*%
%TO.C,J1*%
X124280000Y-104370000D03*
D17*
X128460000Y-104370000D03*
D16*
X124280000Y-95730000D03*
D17*
X128460000Y-95730000D03*
%TD*%
D18*
%TO.N,SWD*%
%TO.C,J3*%
X96700000Y-113800000D03*
D19*
%TO.N,SWCLK*%
X94903949Y-115596051D03*
%TD*%
D10*
%TO.N,3V3_BUCK*%
%TO.C,J2*%
X111540000Y-118450000D03*
D11*
%TO.N,GND*%
X111540000Y-120990000D03*
%TO.N,GPIO23*%
X109000000Y-118450000D03*
%TO.N,GPIO21*%
X109000000Y-120990000D03*
%TO.N,+VBUS_OUT*%
X106460000Y-118450000D03*
%TO.N,GPIO20*%
X106460000Y-120990000D03*
%TO.N,GPIO25*%
X103920000Y-118450000D03*
%TO.N,GPIO2*%
X103920000Y-120990000D03*
%TO.N,GPIO24*%
X101380000Y-118450000D03*
%TO.N,GPIO3*%
X101380000Y-120990000D03*
%TO.N,GPIO22*%
X98840000Y-118450000D03*
%TO.N,GPIO9*%
X98840000Y-120990000D03*
%TD*%
D12*
%TO.N,OUTB*%
%TO.C,H11*%
X81740000Y-100030000D03*
%TD*%
%TO.N,OUTA*%
%TO.C,H10*%
X82440000Y-95030000D03*
%TD*%
D10*
%TO.N,UART_TX*%
%TO.C,J4*%
X111400000Y-91100000D03*
D11*
%TO.N,UART_RX*%
X108860000Y-91100000D03*
%TD*%
D20*
%TO.N,RUN*%
X118150000Y-116350000D03*
%TO.N,+1V1*%
X102600000Y-100175000D03*
X98300000Y-99325000D03*
X109507082Y-101412452D03*
%TO.N,3V3_BUCK*%
X108775000Y-93900000D03*
X103000000Y-88975000D03*
X109225000Y-94600000D03*
X112725000Y-85850000D03*
X109225000Y-103250000D03*
X108300000Y-103250000D03*
X121425000Y-106575000D03*
X110200000Y-103300000D03*
X112725000Y-86775000D03*
X104275000Y-92450000D03*
X121450000Y-108500000D03*
X114450000Y-93305000D03*
X110600000Y-103950000D03*
X108300000Y-94600000D03*
X113425000Y-84475000D03*
X95800000Y-81625000D03*
X103550000Y-92450000D03*
X88575000Y-106900000D03*
X103775000Y-109925000D03*
X113425000Y-86325000D03*
X98300000Y-98403750D03*
X103750000Y-110675000D03*
X119300469Y-106449000D03*
X120975000Y-87350000D03*
X113425000Y-85400000D03*
X103750000Y-111375000D03*
X104365000Y-97347100D03*
X103095000Y-97347100D03*
X102650000Y-106400000D03*
X101625000Y-88275000D03*
X108750000Y-103950000D03*
X109675000Y-103950000D03*
X102075000Y-88975000D03*
X102550000Y-88275000D03*
X107850000Y-93900000D03*
X112725000Y-84925000D03*
%TO.N,Current_A*%
X95050000Y-97350000D03*
X93750000Y-105050000D03*
%TO.N,Current_B*%
X95950000Y-105150000D03*
X95096127Y-98045630D03*
%TO.N,Current_C*%
X95091757Y-98791757D03*
X98150000Y-105050000D03*
%TO.N,VREF*%
X95100000Y-99550000D03*
X107349500Y-106425000D03*
X96545878Y-103354122D03*
%TO.N,DOUT*%
X103675000Y-112900000D03*
%TO.N,GPIO25*%
X105550000Y-110625000D03*
%TO.N,USB_D+*%
X125500000Y-99700000D03*
X112280000Y-99700000D03*
%TO.N,USB_D-*%
X125500000Y-100400000D03*
X112280000Y-100400000D03*
%TO.N,GPIO24*%
X104665322Y-106162026D03*
%TO.N,GPIO22*%
X103674500Y-105250000D03*
%TO.N,GPIO9*%
X101435523Y-94764477D03*
%TO.N,GPIO3*%
X106100000Y-93500000D03*
%TO.N,GPIO2*%
X106275500Y-94550000D03*
%TO.N,GPIO20*%
X101100000Y-104900000D03*
%TO.N,GPIO21*%
X102250000Y-105100000D03*
%TO.N,SWD*%
X99413337Y-101053153D03*
%TO.N,SWCLK*%
X99403721Y-100403722D03*
%TO.N,RUN*%
X120350000Y-111825000D03*
X99398827Y-101702494D03*
%TO.N,nFAULT*%
X102500000Y-92950000D03*
X87550000Y-106950000D03*
%TO.N,I2C_SDA*%
X105850000Y-102025000D03*
X105300000Y-93500000D03*
X119925000Y-98224500D03*
X111950000Y-89575000D03*
%TO.N,I2C_SCL*%
X119175000Y-98224500D03*
X111161833Y-89081555D03*
X104100000Y-102000000D03*
X104250000Y-93500000D03*
%TO.N,nSLEEP*%
X88250000Y-104400000D03*
X103360523Y-93289477D03*
%TO.N,DRVOFF*%
X101100000Y-93750000D03*
X86750000Y-104375000D03*
%TO.N,INLC*%
X92699000Y-104081112D03*
X100250000Y-94100000D03*
%TO.N,INHC*%
X92125000Y-104700000D03*
X99950000Y-95000000D03*
%TO.N,INLB*%
X91649500Y-104100000D03*
X99924500Y-95890475D03*
%TO.N,INHB*%
X91125000Y-104675000D03*
X99924500Y-96539978D03*
%TO.N,INLA*%
X99924500Y-97189481D03*
X90600000Y-104100000D03*
%TO.N,INHA*%
X99924500Y-97838984D03*
X90075000Y-104700000D03*
%TO.N,SPI_MISO*%
X95075000Y-102475000D03*
X99400004Y-102351995D03*
%TO.N,SPI_SS*%
X95100000Y-100300000D03*
X99450000Y-103100000D03*
%TO.N,SPI_SCK*%
X95100000Y-101050000D03*
X100050000Y-103700000D03*
%TO.N,SPI_MOSI*%
X100600000Y-104250000D03*
X95075000Y-101775000D03*
%TO.N,DIR_Pin*%
X103025000Y-101975000D03*
%TO.N,GPIO23*%
X104500000Y-105250000D03*
X124400000Y-112700000D03*
%TO.N,Net-(U1-GPIO26_ADC0)*%
X106024500Y-104850000D03*
X93750000Y-107675000D03*
%TO.N,Net-(U1-GPIO27_ADC1)*%
X106062250Y-105553151D03*
X95975000Y-107575000D03*
%TO.N,Net-(U1-GPIO28_ADC2)*%
X98125000Y-107600000D03*
X106100000Y-106300000D03*
%TO.N,+VBUS_OUT*%
X114105885Y-108505885D03*
X113524500Y-109075000D03*
X114225000Y-109075000D03*
X114796947Y-108505885D03*
%TO.N,VBUS_MIN*%
X115816207Y-104735585D03*
%TO.N,ISNK_FINE*%
X119603575Y-103625500D03*
X119000000Y-110675000D03*
%TO.N,ALIM*%
X99275000Y-81675000D03*
X99725000Y-82375000D03*
X89100000Y-91900000D03*
X101575000Y-82375000D03*
X101125000Y-81675000D03*
X88650000Y-91200000D03*
X100200000Y-81675000D03*
X100650000Y-82375000D03*
X117725000Y-81475000D03*
X117725000Y-82400000D03*
X90025000Y-91900000D03*
X117025000Y-81925000D03*
X89575000Y-91200000D03*
X117025000Y-81000000D03*
X120775709Y-106558511D03*
X90950000Y-91900000D03*
X117025000Y-82850000D03*
X90500000Y-91200000D03*
X117725000Y-80550000D03*
%TO.N,+VBUS_FET_EN*%
X116927796Y-104214207D03*
X119925500Y-105924500D03*
%TO.N,GATE*%
X118686622Y-109711622D03*
X113908148Y-104246945D03*
%TO.N,SAFE_PWR_EN*%
X117825000Y-103625500D03*
%TO.N,SOURCE*%
X112050000Y-107725000D03*
X114625000Y-104500000D03*
%TO.N,/CC1*%
X117575081Y-98224500D03*
X125525000Y-101300000D03*
%TO.N,/CC2*%
X118302241Y-98224500D03*
X125525000Y-98300000D03*
%TO.N,GND*%
X84600000Y-98425000D03*
X103725000Y-90025000D03*
X104650000Y-90025000D03*
X97450000Y-85325000D03*
X110675000Y-107725000D03*
X84725000Y-91875000D03*
X115965500Y-107124500D03*
X96750000Y-84850000D03*
X92325000Y-93450000D03*
X108400000Y-83400000D03*
X105550000Y-98900000D03*
X99423819Y-108849500D03*
X113000000Y-97700000D03*
X104325000Y-99475000D03*
X96750000Y-86700000D03*
X107950000Y-82700000D03*
X100150000Y-109550000D03*
X89534311Y-104075626D03*
X112050000Y-104050000D03*
X84600000Y-99075000D03*
X108875000Y-82700000D03*
X105550000Y-100750000D03*
X84650000Y-101050000D03*
X85650000Y-91875000D03*
X110925000Y-88450000D03*
X84525000Y-101675000D03*
X105575000Y-90025000D03*
X106875000Y-97350000D03*
X83875000Y-101675000D03*
X96750000Y-85775000D03*
X100053721Y-98475500D03*
X105550000Y-99825000D03*
X90825000Y-93449500D03*
X83800000Y-91875000D03*
X92594990Y-96369990D03*
X97450000Y-84400000D03*
X83350000Y-91175000D03*
X84275000Y-91175000D03*
X110250000Y-83400000D03*
X85200000Y-91175000D03*
X104325000Y-98550000D03*
X115075000Y-98175000D03*
X104325000Y-100400000D03*
X109800000Y-82700000D03*
X91575000Y-93450000D03*
X114500000Y-92375000D03*
X84000000Y-101050000D03*
X99625000Y-107125500D03*
X83975000Y-98950000D03*
X83975000Y-98300000D03*
X121450000Y-109775000D03*
X91491622Y-96366622D03*
X97450000Y-86250000D03*
X109325000Y-83400000D03*
%TO.N,ISNK_COARSE*%
X121425000Y-104600000D03*
X118544319Y-103614638D03*
%TO.N,VBUS_MAX*%
X116278490Y-104198242D03*
%TO.N,+VBUS*%
X118425000Y-96924500D03*
X117650000Y-96924500D03*
X119250000Y-96925000D03*
X116825000Y-96924000D03*
%TO.N,DRAIN_1*%
X118075000Y-109100000D03*
X113300000Y-104475000D03*
%TD*%
D21*
%TO.N,+1V1*%
X103002494Y-101352494D02*
X109447124Y-101352494D01*
X102600000Y-100950000D02*
X103002494Y-101352494D01*
X102600000Y-100175000D02*
X102600000Y-100950000D01*
X109447124Y-101352494D02*
X109507082Y-101412452D01*
D22*
%TO.N,3V3_BUCK*%
X113155000Y-94600000D02*
X114450000Y-93305000D01*
X109225000Y-94600000D02*
X113155000Y-94600000D01*
%TO.N,Current_A*%
X95050000Y-97350000D02*
X95049294Y-97350000D01*
X93750000Y-103475000D02*
X93750000Y-105050000D01*
X93225000Y-99174294D02*
X93225000Y-102950000D01*
X95049294Y-97350000D02*
X93225000Y-99174294D01*
X93225000Y-102950000D02*
X93750000Y-103475000D01*
%TO.N,Current_B*%
X93625000Y-99516051D02*
X93625000Y-102750000D01*
X95095421Y-98045630D02*
X93625000Y-99516051D01*
X93625000Y-102750000D02*
X95950000Y-105075000D01*
X95950000Y-105075000D02*
X95950000Y-105150000D01*
X95096127Y-98045630D02*
X95095421Y-98045630D01*
%TO.N,Current_C*%
X96592463Y-105050000D02*
X98150000Y-105050000D01*
X95091757Y-98791757D02*
X94125000Y-99758514D01*
X94125000Y-102582537D02*
X96592463Y-105050000D01*
X94125000Y-99758514D02*
X94125000Y-102582537D01*
%TO.N,USB_D+*%
X112280000Y-99700000D02*
X112404999Y-99824999D01*
X125375001Y-99824999D02*
X125500000Y-99700000D01*
X112404999Y-99824999D02*
X125375001Y-99824999D01*
%TO.N,USB_D-*%
X112404999Y-100275001D02*
X112280000Y-100400000D01*
X125375001Y-100275001D02*
X112404999Y-100275001D01*
X125500000Y-100400000D02*
X125375001Y-100275001D01*
%TO.N,RUN*%
X103652494Y-101702494D02*
X99398827Y-101702494D01*
X120350000Y-111825000D02*
X119407537Y-111825000D01*
X106425000Y-104475000D02*
X103652494Y-101702494D01*
X119407537Y-111825000D02*
X112057537Y-104475000D01*
X112057537Y-104475000D02*
X106425000Y-104475000D01*
D21*
%TO.N,nFAULT*%
X87550000Y-102846752D02*
X87550000Y-106950000D01*
X97446752Y-92950000D02*
X87550000Y-102846752D01*
X102500000Y-92950000D02*
X97446752Y-92950000D01*
D22*
%TO.N,INHB*%
X95117559Y-96539978D02*
X99924500Y-96539978D01*
X91125000Y-104675000D02*
X91125000Y-100532537D01*
X91125000Y-100532537D02*
X95117559Y-96539978D01*
D21*
%TO.N,SPI_SS*%
X97900000Y-103100000D02*
X95100000Y-100300000D01*
X99450000Y-103100000D02*
X97900000Y-103100000D01*
%TO.N,SPI_SCK*%
X100050000Y-103700000D02*
X97750000Y-103700000D01*
X97750000Y-103700000D02*
X95100000Y-101050000D01*
%TO.N,Net-(U1-GPIO26_ADC0)*%
X94450000Y-108375000D02*
X93750000Y-107675000D01*
X106030851Y-104850000D02*
X106875000Y-105694149D01*
X106875000Y-105694149D02*
X106875000Y-106624264D01*
X105124264Y-108375000D02*
X94450000Y-108375000D01*
X106024500Y-104850000D02*
X106030851Y-104850000D01*
X106875000Y-106624264D02*
X105124264Y-108375000D01*
%TO.N,Net-(U1-GPIO27_ADC1)*%
X106575000Y-106065901D02*
X106575000Y-106500000D01*
X105000000Y-108075000D02*
X96475000Y-108075000D01*
X106575000Y-106500000D02*
X105000000Y-108075000D01*
X96475000Y-108075000D02*
X95975000Y-107575000D01*
X106062250Y-105553151D02*
X106575000Y-106065901D01*
%TO.N,Net-(U1-GPIO28_ADC2)*%
X104800000Y-107600000D02*
X98125000Y-107600000D01*
X106100000Y-106300000D02*
X104800000Y-107600000D01*
D23*
%TO.N,+VBUS_OUT*%
X109920000Y-114990000D02*
X110990255Y-114990000D01*
X113825000Y-109225000D02*
X114550000Y-108500000D01*
X113825000Y-112155255D02*
X113825000Y-109225000D01*
X106460000Y-118450000D02*
X109920000Y-114990000D01*
X110990255Y-114990000D02*
X113825000Y-112155255D01*
D24*
%TO.N,/CC1*%
X117575081Y-98260026D02*
X118475755Y-99160700D01*
X126039300Y-99464300D02*
X126039300Y-100785700D01*
X117575081Y-98224500D02*
X117575081Y-98260026D01*
X126039300Y-100785700D02*
X125525000Y-101300000D01*
X118475755Y-99160700D02*
X125735700Y-99160700D01*
X125735700Y-99160700D02*
X126039300Y-99464300D01*
%TO.N,/CC2*%
X118302241Y-98224500D02*
X118841541Y-97685200D01*
X118841541Y-97685200D02*
X124431093Y-97685200D01*
X124431093Y-97685200D02*
X125045893Y-98300000D01*
X125045893Y-98300000D02*
X125525000Y-98300000D01*
%TD*%
%TA.AperFunction,Conductor*%
%TO.N,GND*%
G36*
X105262590Y-75083360D02*
G01*
X105730262Y-75092742D01*
X105732467Y-75092807D01*
X106252482Y-75113006D01*
X106254904Y-75113126D01*
X106721764Y-75141255D01*
X106723902Y-75141402D01*
X107242801Y-75181775D01*
X107245536Y-75182019D01*
X107710496Y-75228810D01*
X107712465Y-75229024D01*
X108229866Y-75289562D01*
X108232630Y-75289918D01*
X108694778Y-75355240D01*
X108696589Y-75355509D01*
X109211896Y-75436185D01*
X109214899Y-75436694D01*
X109673296Y-75520361D01*
X109674838Y-75520654D01*
X110187350Y-75621412D01*
X110190527Y-75622080D01*
X110644313Y-75723866D01*
X110645476Y-75724134D01*
X111154911Y-75844999D01*
X111158139Y-75845812D01*
X111606175Y-75965369D01*
X111607189Y-75965645D01*
X112096846Y-76102095D01*
X112112773Y-76106534D01*
X112116294Y-76107570D01*
X112557236Y-76244399D01*
X112558229Y-76244712D01*
X112943441Y-76368359D01*
X113059693Y-76405674D01*
X113063323Y-76406900D01*
X113496122Y-76560486D01*
X113496790Y-76560727D01*
X113994208Y-76741971D01*
X113997825Y-76743354D01*
X114420921Y-76912896D01*
X114421052Y-76912949D01*
X114914649Y-77114831D01*
X114918414Y-77116444D01*
X115329338Y-77300564D01*
X115329559Y-77300664D01*
X115819760Y-77523742D01*
X115823511Y-77525527D01*
X116218969Y-77722127D01*
X116219365Y-77722325D01*
X116707981Y-77968005D01*
X116711924Y-77970076D01*
X117085442Y-78174848D01*
X117152947Y-78212140D01*
X117578022Y-78446969D01*
X117582048Y-78449290D01*
X117915598Y-78649955D01*
X117915564Y-78650011D01*
X117915806Y-78650080D01*
X118428586Y-78959928D01*
X118432632Y-78962480D01*
X118603493Y-79074843D01*
X118603561Y-79074887D01*
X118770657Y-79184928D01*
X119238448Y-79492992D01*
X119238845Y-79493253D01*
X119249253Y-79501728D01*
X119262699Y-79500500D01*
X120020244Y-79500500D01*
X120082098Y-79516727D01*
X120128020Y-79561229D01*
X120146182Y-79622543D01*
X120131905Y-79684876D01*
X120088868Y-79732173D01*
X120067501Y-79746048D01*
X119812086Y-79952877D01*
X122250000Y-82390790D01*
X125047121Y-85187912D01*
X125253951Y-84932499D01*
X125267827Y-84911133D01*
X125315124Y-84868096D01*
X125377457Y-84853819D01*
X125438771Y-84871981D01*
X125483273Y-84917903D01*
X125499500Y-84979757D01*
X125499500Y-85737498D01*
X125498312Y-85750742D01*
X125506707Y-85760967D01*
X125924369Y-86387667D01*
X125924415Y-86387736D01*
X126042682Y-86565449D01*
X126045293Y-86569541D01*
X126271285Y-86939252D01*
X126335700Y-87044633D01*
X126356593Y-87078812D01*
X126356662Y-87079060D01*
X126356722Y-87079024D01*
X126560823Y-87414399D01*
X126563186Y-87418451D01*
X126836875Y-87908352D01*
X126837075Y-87908712D01*
X127044718Y-88283258D01*
X127046842Y-88287255D01*
X127294274Y-88774022D01*
X127294533Y-88774536D01*
X127493639Y-89170705D01*
X127495530Y-89174635D01*
X127720206Y-89663123D01*
X127720514Y-89663797D01*
X127906851Y-90075285D01*
X127908518Y-90079137D01*
X128023918Y-90358368D01*
X128081166Y-90496890D01*
X128111898Y-90571250D01*
X128112241Y-90572088D01*
X128283698Y-90995554D01*
X128285134Y-90999269D01*
X128419486Y-91364254D01*
X128467872Y-91495701D01*
X128468237Y-91496707D01*
X128623607Y-91930108D01*
X128624856Y-91933768D01*
X128787215Y-92434546D01*
X128787590Y-92435723D01*
X128926019Y-92877395D01*
X128927074Y-92880944D01*
X129069187Y-93385919D01*
X129069559Y-93387268D01*
X129190467Y-93835942D01*
X129191340Y-93839372D01*
X129313246Y-94348225D01*
X129313601Y-94349747D01*
X129389938Y-94686794D01*
X129385481Y-94757639D01*
X129343437Y-94814832D01*
X129277148Y-94840222D01*
X129207655Y-94825750D01*
X129147800Y-94793757D01*
X128957701Y-94736091D01*
X128809550Y-94721500D01*
X128809547Y-94721500D01*
X128110453Y-94721500D01*
X128110450Y-94721500D01*
X127962298Y-94736091D01*
X127772197Y-94793758D01*
X127596992Y-94887406D01*
X127443431Y-95013431D01*
X127317406Y-95166992D01*
X127223758Y-95342197D01*
X127166091Y-95532298D01*
X127146619Y-95729999D01*
X127166091Y-95927701D01*
X127223758Y-96117802D01*
X127317406Y-96293007D01*
X127443431Y-96446568D01*
X127596992Y-96572593D01*
X127632951Y-96591813D01*
X127772196Y-96666241D01*
X127824338Y-96682058D01*
X127962298Y-96723908D01*
X128110450Y-96738500D01*
X128110453Y-96738500D01*
X128809547Y-96738500D01*
X128809550Y-96738500D01*
X128957701Y-96723908D01*
X128957700Y-96723908D01*
X129147804Y-96666241D01*
X129323004Y-96572595D01*
X129323005Y-96572593D01*
X129323007Y-96572593D01*
X129476566Y-96446570D01*
X129491100Y-96428861D01*
X129537001Y-96393797D01*
X129593724Y-96382900D01*
X129649350Y-96398459D01*
X129692189Y-96437204D01*
X129713238Y-96490993D01*
X129752178Y-96763891D01*
X129752571Y-96766910D01*
X129813655Y-97284069D01*
X129813880Y-97286114D01*
X129861217Y-97752076D01*
X129861475Y-97754945D01*
X129902221Y-98273738D01*
X129902376Y-98275955D01*
X129930829Y-98743784D01*
X129930964Y-98746496D01*
X129951346Y-99266299D01*
X129951417Y-99268685D01*
X129960908Y-99737346D01*
X129960934Y-99739897D01*
X129960934Y-100260103D01*
X129960908Y-100262654D01*
X129951417Y-100731313D01*
X129951346Y-100733699D01*
X129930964Y-101253502D01*
X129930829Y-101256214D01*
X129902376Y-101724043D01*
X129902221Y-101726260D01*
X129861475Y-102245053D01*
X129861217Y-102247922D01*
X129813880Y-102713884D01*
X129813655Y-102715929D01*
X129752566Y-103233129D01*
X129752172Y-103236148D01*
X129701081Y-103594194D01*
X129680033Y-103647983D01*
X129637195Y-103686728D01*
X129581569Y-103702287D01*
X129524846Y-103691390D01*
X129478945Y-103656327D01*
X129476567Y-103653430D01*
X129323007Y-103527406D01*
X129147802Y-103433758D01*
X128957701Y-103376091D01*
X128809550Y-103361500D01*
X128809547Y-103361500D01*
X128110453Y-103361500D01*
X128110450Y-103361500D01*
X127962298Y-103376091D01*
X127772197Y-103433758D01*
X127596992Y-103527406D01*
X127443431Y-103653431D01*
X127317406Y-103806992D01*
X127223758Y-103982197D01*
X127166091Y-104172298D01*
X127146619Y-104370000D01*
X127166091Y-104567701D01*
X127223758Y-104757802D01*
X127317406Y-104933007D01*
X127443431Y-105086568D01*
X127596992Y-105212593D01*
X127610163Y-105219633D01*
X127772196Y-105306241D01*
X127859459Y-105332712D01*
X127962298Y-105363908D01*
X128110450Y-105378500D01*
X128110453Y-105378500D01*
X128809547Y-105378500D01*
X128809550Y-105378500D01*
X128957701Y-105363908D01*
X129012127Y-105347398D01*
X129147804Y-105306241D01*
X129181886Y-105288023D01*
X129251379Y-105273550D01*
X129317668Y-105298939D01*
X129359713Y-105356133D01*
X129364170Y-105426978D01*
X129313601Y-105650251D01*
X129313246Y-105651773D01*
X129191340Y-106160626D01*
X129190467Y-106164056D01*
X129069559Y-106612730D01*
X129069187Y-106614079D01*
X128927074Y-107119054D01*
X128926019Y-107122603D01*
X128787590Y-107564275D01*
X128787215Y-107565452D01*
X128624856Y-108066230D01*
X128623607Y-108069890D01*
X128468237Y-108503291D01*
X128467872Y-108504297D01*
X128285152Y-109000683D01*
X128283698Y-109004444D01*
X128112251Y-109427884D01*
X128111908Y-109428722D01*
X127908518Y-109920861D01*
X127906851Y-109924713D01*
X127720514Y-110336201D01*
X127720206Y-110336875D01*
X127495530Y-110825363D01*
X127493639Y-110829293D01*
X127294533Y-111225462D01*
X127294274Y-111225976D01*
X127046842Y-111712743D01*
X127044718Y-111716740D01*
X126837075Y-112091286D01*
X126836875Y-112091646D01*
X126563186Y-112581547D01*
X126560823Y-112585599D01*
X126356722Y-112920975D01*
X126356593Y-112921186D01*
X126045301Y-113430445D01*
X126042690Y-113434537D01*
X125924471Y-113612177D01*
X125924471Y-113612178D01*
X125506459Y-114239404D01*
X125498317Y-114249392D01*
X125499500Y-114262539D01*
X125499500Y-115020244D01*
X125483273Y-115082098D01*
X125438771Y-115128020D01*
X125377457Y-115146182D01*
X125315124Y-115131905D01*
X125267827Y-115088868D01*
X125253947Y-115067495D01*
X125047122Y-114812087D01*
X125047121Y-114812086D01*
X122250000Y-117609210D01*
X119812086Y-120047121D01*
X119812087Y-120047122D01*
X120067494Y-120253948D01*
X120088867Y-120267827D01*
X120131904Y-120315124D01*
X120146181Y-120377457D01*
X120128019Y-120438771D01*
X120082097Y-120483273D01*
X120020243Y-120499500D01*
X119262539Y-120499500D01*
X119249392Y-120498317D01*
X119239404Y-120506459D01*
X118612731Y-120924103D01*
X118434527Y-121042698D01*
X118430434Y-121045309D01*
X117921502Y-121356401D01*
X117921291Y-121356530D01*
X117585580Y-121560835D01*
X117581528Y-121563198D01*
X117091873Y-121836750D01*
X117091513Y-121836951D01*
X116716730Y-122044724D01*
X116712733Y-122046847D01*
X116225976Y-122294274D01*
X116225462Y-122294533D01*
X115829293Y-122493639D01*
X115825363Y-122495530D01*
X115336939Y-122720177D01*
X115336265Y-122720485D01*
X114924690Y-122906861D01*
X114920838Y-122908528D01*
X114428789Y-123111880D01*
X114427951Y-123112223D01*
X114004441Y-123283699D01*
X114000680Y-123285153D01*
X113504297Y-123467872D01*
X113503291Y-123468237D01*
X113069899Y-123623604D01*
X113066239Y-123624853D01*
X112565471Y-123787209D01*
X112564294Y-123787584D01*
X112122568Y-123926029D01*
X112119019Y-123927084D01*
X111614145Y-124069168D01*
X111612796Y-124069540D01*
X111164050Y-124190469D01*
X111160620Y-124191342D01*
X110651773Y-124313246D01*
X110650250Y-124313601D01*
X110195770Y-124416535D01*
X110192470Y-124417236D01*
X109680250Y-124518910D01*
X109678553Y-124519235D01*
X109219272Y-124603871D01*
X109216108Y-124604412D01*
X108701125Y-124685808D01*
X108699253Y-124686089D01*
X108236107Y-124752177D01*
X108233088Y-124752571D01*
X107715929Y-124813655D01*
X107713884Y-124813880D01*
X107247922Y-124861217D01*
X107245053Y-124861475D01*
X106726260Y-124902221D01*
X106724043Y-124902376D01*
X106256214Y-124930829D01*
X106253502Y-124930964D01*
X105733699Y-124951346D01*
X105731313Y-124951417D01*
X105291311Y-124960327D01*
X105262652Y-124960908D01*
X105260103Y-124960934D01*
X104739897Y-124960934D01*
X104737347Y-124960908D01*
X104700254Y-124960156D01*
X104268685Y-124951417D01*
X104266299Y-124951346D01*
X103746496Y-124930964D01*
X103743784Y-124930829D01*
X103275955Y-124902376D01*
X103273738Y-124902221D01*
X102754945Y-124861475D01*
X102752076Y-124861217D01*
X102286114Y-124813880D01*
X102284069Y-124813655D01*
X101766910Y-124752571D01*
X101763891Y-124752177D01*
X101300745Y-124686089D01*
X101298873Y-124685808D01*
X100783890Y-124604412D01*
X100780726Y-124603871D01*
X100321445Y-124519235D01*
X100319748Y-124518910D01*
X99807528Y-124417236D01*
X99804228Y-124416535D01*
X99349748Y-124313601D01*
X99348225Y-124313246D01*
X98839378Y-124191342D01*
X98835958Y-124190471D01*
X98773658Y-124173683D01*
X98387202Y-124069540D01*
X98385853Y-124069168D01*
X97880979Y-123927084D01*
X97877430Y-123926029D01*
X97435704Y-123787584D01*
X97434527Y-123787209D01*
X96933759Y-123624853D01*
X96930099Y-123623604D01*
X96496707Y-123468237D01*
X96495701Y-123467872D01*
X95999277Y-123285137D01*
X95995557Y-123283699D01*
X95572047Y-123112223D01*
X95571209Y-123111880D01*
X95079160Y-122908528D01*
X95075308Y-122906861D01*
X94663733Y-122720485D01*
X94663059Y-122720177D01*
X94174635Y-122495530D01*
X94170705Y-122493639D01*
X93774536Y-122294533D01*
X93774022Y-122294274D01*
X93287265Y-122046847D01*
X93283268Y-122044724D01*
X92908486Y-121836951D01*
X92908126Y-121836750D01*
X92647052Y-121690898D01*
X92418453Y-121563188D01*
X92414436Y-121560845D01*
X92078708Y-121356530D01*
X92078497Y-121356401D01*
X91569564Y-121045309D01*
X91565471Y-121042698D01*
X91387114Y-120924001D01*
X91387114Y-120924000D01*
X90760967Y-120506707D01*
X90750742Y-120498312D01*
X90737498Y-120499500D01*
X89979757Y-120499500D01*
X89917903Y-120483273D01*
X89871981Y-120438771D01*
X89853819Y-120377457D01*
X89868096Y-120315124D01*
X89911133Y-120267827D01*
X89932499Y-120253951D01*
X90187912Y-120047121D01*
X87750000Y-117609210D01*
X84952877Y-114812086D01*
X84746048Y-115067501D01*
X84732173Y-115088868D01*
X84684876Y-115131905D01*
X84622543Y-115146182D01*
X84561229Y-115128020D01*
X84516727Y-115082098D01*
X84500500Y-115020244D01*
X84500500Y-114452877D01*
X85312086Y-114452877D01*
X87750000Y-116890790D01*
X90547121Y-119687912D01*
X90753953Y-119432497D01*
X90965627Y-119106548D01*
X91142078Y-118760244D01*
X91281355Y-118397413D01*
X91381948Y-118021995D01*
X91442748Y-117638117D01*
X91463089Y-117249999D01*
X91442748Y-116861882D01*
X91381948Y-116478004D01*
X91281355Y-116102586D01*
X91142078Y-115739755D01*
X91068857Y-115596051D01*
X93540793Y-115596051D01*
X93559385Y-115820419D01*
X93559385Y-115820422D01*
X93559386Y-115820423D01*
X93614651Y-116038662D01*
X93705088Y-116244841D01*
X93828227Y-116433319D01*
X93980711Y-116598959D01*
X94072327Y-116670267D01*
X94158373Y-116737240D01*
X94356375Y-116844393D01*
X94569314Y-116917495D01*
X94791380Y-116954551D01*
X95016515Y-116954551D01*
X95016518Y-116954551D01*
X95238584Y-116917495D01*
X95451523Y-116844393D01*
X95649525Y-116737240D01*
X95827189Y-116598957D01*
X95979671Y-116433319D01*
X96102809Y-116244842D01*
X96193245Y-116038667D01*
X96248513Y-115820419D01*
X96267105Y-115596051D01*
X96264833Y-115568634D01*
X96276284Y-115504813D01*
X96317958Y-115455137D01*
X96378817Y-115432762D01*
X96442743Y-115443613D01*
X96555266Y-115495001D01*
X96700000Y-115515810D01*
X96844734Y-115495001D01*
X96977743Y-115434258D01*
X97025172Y-115396038D01*
X98296038Y-114125172D01*
X98334258Y-114077743D01*
X98395001Y-113944734D01*
X98415810Y-113800000D01*
X98414281Y-113789368D01*
X98395001Y-113655268D01*
X98395001Y-113655266D01*
X98334258Y-113522257D01*
X98296038Y-113474828D01*
X97721210Y-112900000D01*
X102936859Y-112900000D01*
X102939222Y-112920975D01*
X102955366Y-113064254D01*
X103009957Y-113220266D01*
X103097899Y-113360225D01*
X103214774Y-113477100D01*
X103214776Y-113477101D01*
X103214777Y-113477102D01*
X103354733Y-113565042D01*
X103510748Y-113619634D01*
X103675000Y-113638141D01*
X103839252Y-113619634D01*
X103995267Y-113565042D01*
X104135223Y-113477102D01*
X104252102Y-113360223D01*
X104340042Y-113220267D01*
X104394634Y-113064252D01*
X104413141Y-112900000D01*
X104394634Y-112735748D01*
X104340042Y-112579733D01*
X104252102Y-112439777D01*
X104252101Y-112439776D01*
X104252100Y-112439774D01*
X104135224Y-112322898D01*
X104044383Y-112265819D01*
X103997896Y-112213800D01*
X103986212Y-112145021D01*
X104012912Y-112080568D01*
X104058598Y-112048155D01*
X104058246Y-112047595D01*
X104068229Y-112041321D01*
X104069806Y-112040203D01*
X104070267Y-112040042D01*
X104210223Y-111952102D01*
X104327102Y-111835223D01*
X104415042Y-111695267D01*
X104469634Y-111539252D01*
X104488141Y-111375000D01*
X104469634Y-111210748D01*
X104419198Y-111066610D01*
X104412128Y-111025000D01*
X104419199Y-110983386D01*
X104469634Y-110839252D01*
X104488141Y-110675000D01*
X104482507Y-110625000D01*
X104811859Y-110625000D01*
X104830366Y-110789254D01*
X104884957Y-110945266D01*
X104972899Y-111085225D01*
X105089774Y-111202100D01*
X105089776Y-111202101D01*
X105089777Y-111202102D01*
X105103537Y-111210748D01*
X105229733Y-111290042D01*
X105302473Y-111315495D01*
X105385748Y-111344634D01*
X105550000Y-111363141D01*
X105714252Y-111344634D01*
X105870267Y-111290042D01*
X106010223Y-111202102D01*
X106127102Y-111085223D01*
X106215042Y-110945267D01*
X106269634Y-110789252D01*
X106271691Y-110771000D01*
X109042000Y-110771000D01*
X110146000Y-110771000D01*
X110146000Y-109667000D01*
X110654000Y-109667000D01*
X110654000Y-110771000D01*
X111758000Y-110771000D01*
X111758000Y-110126411D01*
X111751494Y-110065906D01*
X111700445Y-109929037D01*
X111612904Y-109812095D01*
X111495962Y-109724554D01*
X111359093Y-109673505D01*
X111298589Y-109667000D01*
X110654000Y-109667000D01*
X110146000Y-109667000D01*
X109501411Y-109667000D01*
X109440906Y-109673505D01*
X109304037Y-109724554D01*
X109187095Y-109812095D01*
X109099554Y-109929037D01*
X109048505Y-110065906D01*
X109042000Y-110126411D01*
X109042000Y-110771000D01*
X106271691Y-110771000D01*
X106288141Y-110625000D01*
X106269634Y-110460748D01*
X106215042Y-110304733D01*
X106127102Y-110164777D01*
X106127101Y-110164776D01*
X106127100Y-110164774D01*
X106010225Y-110047899D01*
X105870266Y-109959957D01*
X105714254Y-109905366D01*
X105550000Y-109886859D01*
X105385745Y-109905366D01*
X105229733Y-109959957D01*
X105089774Y-110047899D01*
X104972899Y-110164774D01*
X104884957Y-110304733D01*
X104830366Y-110460745D01*
X104811859Y-110625000D01*
X104482507Y-110625000D01*
X104469634Y-110510748D01*
X104419422Y-110367249D01*
X104413144Y-110311524D01*
X104431663Y-110258601D01*
X104440042Y-110245267D01*
X104494634Y-110089252D01*
X104513141Y-109925000D01*
X104494634Y-109760748D01*
X104440042Y-109604733D01*
X104352102Y-109464777D01*
X104352101Y-109464776D01*
X104352100Y-109464774D01*
X104235225Y-109347899D01*
X104095266Y-109259957D01*
X103939254Y-109205366D01*
X103775000Y-109186859D01*
X103610745Y-109205366D01*
X103454733Y-109259957D01*
X103314774Y-109347899D01*
X103197899Y-109464774D01*
X103109957Y-109604733D01*
X103055366Y-109760745D01*
X103036859Y-109925000D01*
X103055366Y-110089254D01*
X103105577Y-110232748D01*
X103111856Y-110288470D01*
X103093336Y-110341397D01*
X103084957Y-110354731D01*
X103030366Y-110510745D01*
X103011859Y-110675000D01*
X103030366Y-110839252D01*
X103080800Y-110983386D01*
X103087870Y-111025000D01*
X103080800Y-111066614D01*
X103030366Y-111210747D01*
X103011859Y-111374999D01*
X103030366Y-111539254D01*
X103084957Y-111695266D01*
X103172899Y-111835225D01*
X103289775Y-111952101D01*
X103380616Y-112009180D01*
X103427102Y-112061197D01*
X103438788Y-112129973D01*
X103412093Y-112194424D01*
X103366402Y-112226845D01*
X103366754Y-112227405D01*
X103356793Y-112233663D01*
X103355199Y-112234795D01*
X103354733Y-112234957D01*
X103214774Y-112322899D01*
X103097899Y-112439774D01*
X103009957Y-112579733D01*
X102955366Y-112735745D01*
X102939856Y-112873403D01*
X102936859Y-112900000D01*
X97721210Y-112900000D01*
X97025172Y-112203962D01*
X96977743Y-112165742D01*
X96844734Y-112104999D01*
X96844732Y-112104998D01*
X96844731Y-112104998D01*
X96700000Y-112084189D01*
X96555268Y-112104998D01*
X96422256Y-112165742D01*
X96374824Y-112203965D01*
X95103965Y-113474824D01*
X95065742Y-113522256D01*
X95004998Y-113655268D01*
X94984189Y-113799999D01*
X95004998Y-113944731D01*
X95057278Y-114059209D01*
X95068343Y-114120540D01*
X95048662Y-114179672D01*
X95003049Y-114222139D01*
X94942664Y-114237551D01*
X94791380Y-114237551D01*
X94569314Y-114274607D01*
X94569311Y-114274607D01*
X94569311Y-114274608D01*
X94356375Y-114347708D01*
X94158370Y-114454863D01*
X93980711Y-114593142D01*
X93828227Y-114758782D01*
X93705088Y-114947260D01*
X93614651Y-115153439D01*
X93559386Y-115371678D01*
X93559385Y-115371683D01*
X93540793Y-115596051D01*
X91068857Y-115596051D01*
X90965628Y-115393455D01*
X90753948Y-115067495D01*
X90639216Y-114925813D01*
X90612020Y-114861417D01*
X90623334Y-114792435D01*
X90669676Y-114740100D01*
X90736781Y-114720519D01*
X90803996Y-114739721D01*
X90861296Y-114775593D01*
X91076373Y-114867731D01*
X91303073Y-114925650D01*
X91535988Y-114947968D01*
X91740175Y-114935892D01*
X91769564Y-114934154D01*
X91998220Y-114884537D01*
X92064533Y-114858947D01*
X92216515Y-114800298D01*
X92419232Y-114683451D01*
X92601537Y-114536780D01*
X92678352Y-114452544D01*
X92682448Y-114448264D01*
X95318941Y-111821290D01*
X95321331Y-111818972D01*
X95403850Y-111741068D01*
X95466393Y-111660748D01*
X95545351Y-111559348D01*
X95657737Y-111358324D01*
X95657737Y-111358322D01*
X95657739Y-111358320D01*
X95738431Y-111142606D01*
X95785570Y-110917169D01*
X95798072Y-110687196D01*
X95775648Y-110457977D01*
X95744638Y-110336201D01*
X95718814Y-110234786D01*
X95628881Y-110022764D01*
X95609251Y-109990960D01*
X95507910Y-109826773D01*
X95358692Y-109651337D01*
X95184657Y-109500487D01*
X94989809Y-109377693D01*
X94894840Y-109336359D01*
X94778632Y-109285781D01*
X94643411Y-109250000D01*
X94555982Y-109226865D01*
X94555979Y-109226864D01*
X94555977Y-109226864D01*
X94326987Y-109202301D01*
X94326984Y-109202301D01*
X94195508Y-109208216D01*
X94096900Y-109212654D01*
X93871037Y-109257684D01*
X93654574Y-109336359D01*
X93452505Y-109446865D01*
X93269476Y-109586660D01*
X93190461Y-109668802D01*
X93188834Y-109670462D01*
X90561407Y-112302896D01*
X90556033Y-112307973D01*
X90472353Y-112382507D01*
X90323557Y-112563082D01*
X90204345Y-112764413D01*
X90117554Y-112981707D01*
X90065261Y-113209774D01*
X90048711Y-113443160D01*
X90068301Y-113676328D01*
X90123560Y-113903692D01*
X90195722Y-114077743D01*
X90213172Y-114119832D01*
X90249665Y-114179672D01*
X90259744Y-114196198D01*
X90278161Y-114263338D01*
X90258113Y-114330009D01*
X90205720Y-114375856D01*
X90136979Y-114386883D01*
X90072876Y-114359722D01*
X89932502Y-114246049D01*
X89606548Y-114034372D01*
X89260244Y-113857921D01*
X88897413Y-113718644D01*
X88521995Y-113618051D01*
X88138117Y-113557251D01*
X87750000Y-113536910D01*
X87361882Y-113557251D01*
X86978004Y-113618051D01*
X86602586Y-113718644D01*
X86239755Y-113857921D01*
X85893455Y-114034371D01*
X85567502Y-114246047D01*
X85312086Y-114452877D01*
X84500500Y-114452877D01*
X84500500Y-114262485D01*
X84501673Y-114249372D01*
X84493520Y-114239375D01*
X84274099Y-113910134D01*
X84075146Y-113611605D01*
X84025437Y-113536910D01*
X83957316Y-113434549D01*
X83954705Y-113430457D01*
X83643406Y-112921186D01*
X83643277Y-112920975D01*
X83634094Y-112905885D01*
X83439156Y-112585566D01*
X83436832Y-112581582D01*
X83163123Y-112091646D01*
X83162923Y-112091286D01*
X82955280Y-111716740D01*
X82953156Y-111712743D01*
X82705724Y-111225976D01*
X82705465Y-111225462D01*
X82506359Y-110829293D01*
X82504468Y-110825363D01*
X82279554Y-110336356D01*
X82093138Y-109924693D01*
X82091480Y-109920861D01*
X81887996Y-109428494D01*
X81887814Y-109428049D01*
X81716277Y-109004386D01*
X81714890Y-109000798D01*
X81532038Y-108504056D01*
X81531761Y-108503291D01*
X81529828Y-108497899D01*
X81376382Y-108069866D01*
X81375150Y-108066254D01*
X81217722Y-107580683D01*
X81212793Y-107565480D01*
X81212418Y-107564305D01*
X81200757Y-107527100D01*
X81145093Y-107349500D01*
X81141537Y-107288325D01*
X81167262Y-107232704D01*
X81216184Y-107195798D01*
X81276730Y-107186336D01*
X81287704Y-107187333D01*
X81287707Y-107187334D01*
X81355561Y-107193500D01*
X83884438Y-107193499D01*
X83884439Y-107193499D01*
X83907056Y-107191443D01*
X83952293Y-107187334D01*
X84108443Y-107138676D01*
X84248411Y-107054062D01*
X84364062Y-106938411D01*
X84448676Y-106798443D01*
X84497334Y-106642293D01*
X84503500Y-106574439D01*
X84503499Y-104375000D01*
X86011859Y-104375000D01*
X86017481Y-104424893D01*
X86030366Y-104539254D01*
X86084957Y-104695266D01*
X86172899Y-104835225D01*
X86289774Y-104952100D01*
X86289776Y-104952101D01*
X86289777Y-104952102D01*
X86336545Y-104981488D01*
X86429733Y-105040042D01*
X86498915Y-105064250D01*
X86585748Y-105094634D01*
X86750000Y-105113141D01*
X86851394Y-105101716D01*
X86920169Y-105113402D01*
X86972187Y-105159888D01*
X86991500Y-105226924D01*
X86991500Y-106423872D01*
X86972188Y-106490906D01*
X86919350Y-106574999D01*
X86884956Y-106629736D01*
X86830366Y-106785745D01*
X86811859Y-106950000D01*
X86830366Y-107114254D01*
X86884957Y-107270266D01*
X86972899Y-107410225D01*
X87089774Y-107527100D01*
X87089776Y-107527101D01*
X87089777Y-107527102D01*
X87229733Y-107615042D01*
X87385748Y-107669634D01*
X87550000Y-107688141D01*
X87714252Y-107669634D01*
X87870267Y-107615042D01*
X88010223Y-107527102D01*
X88010222Y-107527102D01*
X88022244Y-107519549D01*
X88057699Y-107497269D01*
X88113423Y-107490989D01*
X88166354Y-107509510D01*
X88194352Y-107527102D01*
X88254733Y-107565042D01*
X88410748Y-107619634D01*
X88575000Y-107638141D01*
X88739252Y-107619634D01*
X88895267Y-107565042D01*
X89035223Y-107477102D01*
X89152102Y-107360223D01*
X89240042Y-107220267D01*
X89294634Y-107064252D01*
X89313141Y-106900000D01*
X89294634Y-106735748D01*
X89240042Y-106579733D01*
X89152102Y-106439777D01*
X89152101Y-106439776D01*
X89152100Y-106439774D01*
X89035225Y-106322899D01*
X88895266Y-106234957D01*
X88739254Y-106180366D01*
X88629750Y-106168027D01*
X88575000Y-106161859D01*
X88574999Y-106161859D01*
X88410745Y-106180366D01*
X88276115Y-106227476D01*
X88216886Y-106233310D01*
X88161587Y-106211308D01*
X88122556Y-106166379D01*
X88108500Y-106108547D01*
X88108500Y-105263192D01*
X88127812Y-105196157D01*
X88179829Y-105149671D01*
X88235937Y-105140136D01*
X88235892Y-105139730D01*
X88243125Y-105138914D01*
X88248604Y-105137984D01*
X88249084Y-105138037D01*
X88250000Y-105138141D01*
X88414252Y-105119634D01*
X88570267Y-105065042D01*
X88710223Y-104977102D01*
X88827102Y-104860223D01*
X88915042Y-104720267D01*
X88969634Y-104564252D01*
X88988141Y-104400000D01*
X88969634Y-104235748D01*
X88964762Y-104221826D01*
X88915042Y-104079733D01*
X88875325Y-104016523D01*
X88827102Y-103939777D01*
X88827101Y-103939776D01*
X88827100Y-103939774D01*
X88710225Y-103822899D01*
X88570266Y-103734957D01*
X88414254Y-103680366D01*
X88347981Y-103672899D01*
X88250000Y-103661859D01*
X88249998Y-103661859D01*
X88249996Y-103661859D01*
X88248604Y-103662016D01*
X88243125Y-103661085D01*
X88235892Y-103660270D01*
X88235937Y-103659863D01*
X88179829Y-103650329D01*
X88127812Y-103603843D01*
X88108500Y-103536808D01*
X88108500Y-103130280D01*
X88118091Y-103082062D01*
X88145405Y-103041185D01*
X90301405Y-100885185D01*
X90351564Y-100854447D01*
X90410211Y-100849831D01*
X90464561Y-100872344D01*
X90502767Y-100917077D01*
X90516500Y-100974280D01*
X90516500Y-103262708D01*
X90505987Y-103313094D01*
X90476202Y-103355072D01*
X90432115Y-103381637D01*
X90279733Y-103434957D01*
X90139774Y-103522899D01*
X90022899Y-103639774D01*
X89934958Y-103779732D01*
X89878376Y-103941432D01*
X89848543Y-103988911D01*
X89801065Y-104018744D01*
X89754733Y-104034957D01*
X89614775Y-104122898D01*
X89497899Y-104239774D01*
X89409957Y-104379733D01*
X89355366Y-104535745D01*
X89337392Y-104695266D01*
X89336859Y-104700000D01*
X89339143Y-104720267D01*
X89355366Y-104864254D01*
X89409957Y-105020266D01*
X89497899Y-105160225D01*
X89614774Y-105277100D01*
X89614776Y-105277101D01*
X89614777Y-105277102D01*
X89689493Y-105324049D01*
X89754733Y-105365042D01*
X89793942Y-105378762D01*
X89910748Y-105419634D01*
X90075000Y-105438141D01*
X90239252Y-105419634D01*
X90395267Y-105365042D01*
X90535223Y-105277102D01*
X90535222Y-105277102D01*
X90547244Y-105269549D01*
X90548199Y-105271069D01*
X90576988Y-105252977D01*
X90632715Y-105246695D01*
X90685647Y-105265215D01*
X90804733Y-105340042D01*
X90960748Y-105394634D01*
X91125000Y-105413141D01*
X91289252Y-105394634D01*
X91445267Y-105340042D01*
X91538070Y-105281729D01*
X91605106Y-105262417D01*
X91672142Y-105281730D01*
X91804733Y-105365042D01*
X91843942Y-105378762D01*
X91960748Y-105419634D01*
X92125000Y-105438141D01*
X92289252Y-105419634D01*
X92445267Y-105365042D01*
X92585223Y-105277102D01*
X92702102Y-105160223D01*
X92783715Y-105030335D01*
X92828216Y-104987788D01*
X92887571Y-104971407D01*
X92947601Y-104985108D01*
X92993971Y-105025619D01*
X93015607Y-105083267D01*
X93030366Y-105214254D01*
X93084957Y-105370266D01*
X93172899Y-105510225D01*
X93289774Y-105627100D01*
X93289776Y-105627101D01*
X93289777Y-105627102D01*
X93369349Y-105677100D01*
X93429733Y-105715042D01*
X93558095Y-105759958D01*
X93585748Y-105769634D01*
X93750000Y-105788141D01*
X93914252Y-105769634D01*
X94070267Y-105715042D01*
X94210223Y-105627102D01*
X94327102Y-105510223D01*
X94415042Y-105370267D01*
X94469634Y-105214252D01*
X94488141Y-105050000D01*
X94469634Y-104885748D01*
X94420203Y-104744484D01*
X94415694Y-104677598D01*
X94446130Y-104617864D01*
X94502895Y-104582195D01*
X94569920Y-104580691D01*
X94628228Y-104613777D01*
X95186701Y-105172250D01*
X95211128Y-105206675D01*
X95222813Y-105247235D01*
X95230365Y-105314249D01*
X95230365Y-105314251D01*
X95230366Y-105314252D01*
X95252847Y-105378500D01*
X95284958Y-105470267D01*
X95372899Y-105610225D01*
X95489774Y-105727100D01*
X95489776Y-105727101D01*
X95489777Y-105727102D01*
X95580263Y-105783958D01*
X95629733Y-105815042D01*
X95697849Y-105838877D01*
X95785748Y-105869634D01*
X95950000Y-105888141D01*
X96114252Y-105869634D01*
X96270267Y-105815042D01*
X96410223Y-105727102D01*
X96443469Y-105693855D01*
X96492061Y-105663638D01*
X96549006Y-105658029D01*
X96592463Y-105663751D01*
X96621227Y-105659964D01*
X96624162Y-105659578D01*
X96640607Y-105658500D01*
X97703448Y-105658500D01*
X97770482Y-105677812D01*
X97808663Y-105701803D01*
X97829733Y-105715042D01*
X97958095Y-105759958D01*
X97985748Y-105769634D01*
X98150000Y-105788141D01*
X98314252Y-105769634D01*
X98470267Y-105715042D01*
X98610223Y-105627102D01*
X98727102Y-105510223D01*
X98815042Y-105370267D01*
X98869634Y-105214252D01*
X98888141Y-105050000D01*
X98869634Y-104885748D01*
X98845228Y-104816001D01*
X98815042Y-104729733D01*
X98809094Y-104720267D01*
X98727102Y-104589777D01*
X98727101Y-104589776D01*
X98727100Y-104589774D01*
X98610921Y-104473595D01*
X98580183Y-104423436D01*
X98575567Y-104364789D01*
X98598080Y-104310439D01*
X98642813Y-104272233D01*
X98700016Y-104258500D01*
X99523872Y-104258500D01*
X99590908Y-104277813D01*
X99729730Y-104365041D01*
X99729733Y-104365042D01*
X99824488Y-104398197D01*
X99871968Y-104428031D01*
X99901801Y-104475511D01*
X99934958Y-104570267D01*
X99962297Y-104613777D01*
X100022899Y-104710225D01*
X100139774Y-104827100D01*
X100139776Y-104827101D01*
X100139777Y-104827102D01*
X100279733Y-104915042D01*
X100292265Y-104919427D01*
X100349160Y-104959795D01*
X100375857Y-105024246D01*
X100380365Y-105064250D01*
X100434957Y-105220266D01*
X100522899Y-105360225D01*
X100639774Y-105477100D01*
X100639776Y-105477101D01*
X100639777Y-105477102D01*
X100779733Y-105565042D01*
X100935748Y-105619634D01*
X101100000Y-105638141D01*
X101264252Y-105619634D01*
X101420267Y-105565042D01*
X101496876Y-105516905D01*
X101559197Y-105497682D01*
X101622784Y-105512196D01*
X101670596Y-105556559D01*
X101672900Y-105560226D01*
X101789774Y-105677100D01*
X101789776Y-105677101D01*
X101789777Y-105677102D01*
X101929733Y-105765042D01*
X101987969Y-105785419D01*
X102035446Y-105815251D01*
X102065280Y-105862731D01*
X102071559Y-105918454D01*
X102053039Y-105971382D01*
X101984957Y-106079734D01*
X101930366Y-106235745D01*
X101911859Y-106400000D01*
X101930366Y-106564254D01*
X101984956Y-106720263D01*
X101984957Y-106720265D01*
X101984958Y-106720267D01*
X102065510Y-106848466D01*
X102084772Y-106911967D01*
X102069100Y-106976449D01*
X102022839Y-107024025D01*
X101958822Y-107041500D01*
X98651128Y-107041500D01*
X98584093Y-107022188D01*
X98445267Y-106934958D01*
X98445265Y-106934957D01*
X98445263Y-106934956D01*
X98289254Y-106880366D01*
X98125000Y-106861859D01*
X97960745Y-106880366D01*
X97804733Y-106934957D01*
X97664774Y-107022899D01*
X97547899Y-107139774D01*
X97459957Y-107279733D01*
X97406637Y-107432115D01*
X97380072Y-107476202D01*
X97338094Y-107505987D01*
X97287708Y-107516500D01*
X96819150Y-107516500D01*
X96760276Y-107501899D01*
X96715046Y-107461481D01*
X96700977Y-107423569D01*
X96699323Y-107424148D01*
X96640042Y-107254733D01*
X96595227Y-107183410D01*
X96552102Y-107114777D01*
X96552101Y-107114776D01*
X96552100Y-107114774D01*
X96435225Y-106997899D01*
X96295266Y-106909957D01*
X96139254Y-106855366D01*
X96029750Y-106843027D01*
X95975000Y-106836859D01*
X95974999Y-106836859D01*
X95810745Y-106855366D01*
X95654733Y-106909957D01*
X95514774Y-106997899D01*
X95397899Y-107114774D01*
X95309957Y-107254733D01*
X95255366Y-107410745D01*
X95243450Y-107516500D01*
X95236859Y-107575000D01*
X95248283Y-107676394D01*
X95236598Y-107745169D01*
X95190112Y-107797187D01*
X95123076Y-107816500D01*
X94733528Y-107816500D01*
X94685310Y-107806909D01*
X94644433Y-107779595D01*
X94512752Y-107647914D01*
X94488325Y-107613488D01*
X94476640Y-107572929D01*
X94469634Y-107510748D01*
X94464917Y-107497269D01*
X94415042Y-107354733D01*
X94332616Y-107223553D01*
X94327102Y-107214777D01*
X94327101Y-107214776D01*
X94327100Y-107214774D01*
X94210225Y-107097899D01*
X94070266Y-107009957D01*
X93914254Y-106955366D01*
X93750000Y-106936859D01*
X93585745Y-106955366D01*
X93429733Y-107009957D01*
X93289774Y-107097899D01*
X93172899Y-107214774D01*
X93084957Y-107354733D01*
X93030366Y-107510745D01*
X93011859Y-107675000D01*
X93030366Y-107839254D01*
X93084957Y-107995266D01*
X93172899Y-108135225D01*
X93289774Y-108252100D01*
X93289776Y-108252101D01*
X93289777Y-108252102D01*
X93429733Y-108340042D01*
X93585748Y-108394634D01*
X93647929Y-108401640D01*
X93688488Y-108413325D01*
X93722914Y-108437752D01*
X94046796Y-108761634D01*
X94049787Y-108764728D01*
X94094224Y-108812308D01*
X94129830Y-108833961D01*
X94140497Y-108841221D01*
X94173697Y-108866398D01*
X94173698Y-108866398D01*
X94173699Y-108866399D01*
X94190620Y-108873071D01*
X94209854Y-108882625D01*
X94225401Y-108892079D01*
X94265530Y-108903322D01*
X94277758Y-108907435D01*
X94286151Y-108910745D01*
X94316523Y-108922722D01*
X94334616Y-108924581D01*
X94355723Y-108928592D01*
X94373236Y-108933500D01*
X94414913Y-108933500D01*
X94427798Y-108934161D01*
X94469246Y-108938422D01*
X94469246Y-108938421D01*
X94469247Y-108938422D01*
X94476787Y-108937121D01*
X94487170Y-108935332D01*
X94508577Y-108933500D01*
X105112562Y-108933500D01*
X105116863Y-108933573D01*
X105181916Y-108935795D01*
X105211466Y-108928594D01*
X105222399Y-108925930D01*
X105235075Y-108923521D01*
X105254390Y-108920865D01*
X105276362Y-108917846D01*
X105293047Y-108910597D01*
X105313404Y-108903752D01*
X105331079Y-108899446D01*
X105367414Y-108879014D01*
X105378943Y-108873288D01*
X105417180Y-108856680D01*
X105431294Y-108845196D01*
X105449043Y-108833116D01*
X105464903Y-108824199D01*
X105494370Y-108794730D01*
X105503928Y-108786104D01*
X105536274Y-108759790D01*
X105546768Y-108744921D01*
X105560601Y-108728499D01*
X106564100Y-107725000D01*
X111311859Y-107725000D01*
X111330366Y-107889254D01*
X111384957Y-108045266D01*
X111472899Y-108185225D01*
X111589774Y-108302100D01*
X111589776Y-108302101D01*
X111589777Y-108302102D01*
X111674546Y-108355366D01*
X111729733Y-108390042D01*
X111858095Y-108434958D01*
X111885748Y-108444634D01*
X112050000Y-108463141D01*
X112214252Y-108444634D01*
X112370267Y-108390042D01*
X112510223Y-108302102D01*
X112627102Y-108185223D01*
X112715042Y-108045267D01*
X112769634Y-107889252D01*
X112788141Y-107725000D01*
X112769634Y-107560748D01*
X112715042Y-107404733D01*
X112627102Y-107264777D01*
X112627101Y-107264776D01*
X112627100Y-107264774D01*
X112510225Y-107147899D01*
X112370266Y-107059957D01*
X112214254Y-107005366D01*
X112050000Y-106986859D01*
X111885745Y-107005366D01*
X111729733Y-107059957D01*
X111589774Y-107147899D01*
X111472899Y-107264774D01*
X111384957Y-107404733D01*
X111330366Y-107560745D01*
X111311859Y-107725000D01*
X106564100Y-107725000D01*
X107105692Y-107183408D01*
X107153170Y-107153576D01*
X107208887Y-107147297D01*
X107349500Y-107163141D01*
X107513752Y-107144634D01*
X107669767Y-107090042D01*
X107809723Y-107002102D01*
X107926602Y-106885223D01*
X108014542Y-106745267D01*
X108069134Y-106589252D01*
X108087641Y-106425000D01*
X108069134Y-106260748D01*
X108018055Y-106114774D01*
X108014542Y-106104733D01*
X107941680Y-105988774D01*
X107926602Y-105964777D01*
X107926601Y-105964776D01*
X107926600Y-105964774D01*
X107809725Y-105847899D01*
X107669767Y-105759958D01*
X107511473Y-105704568D01*
X107459756Y-105670285D01*
X107430672Y-105615474D01*
X107429392Y-105610223D01*
X107425925Y-105595997D01*
X107423523Y-105583355D01*
X107417846Y-105542051D01*
X107410600Y-105525368D01*
X107403753Y-105505010D01*
X107399446Y-105487334D01*
X107379023Y-105451012D01*
X107373283Y-105439457D01*
X107356679Y-105401231D01*
X107345203Y-105387126D01*
X107333113Y-105369362D01*
X107324200Y-105353510D01*
X107294728Y-105324038D01*
X107286093Y-105314470D01*
X107285913Y-105314249D01*
X107265385Y-105289016D01*
X107238024Y-105224524D01*
X107249337Y-105155385D01*
X107295829Y-105102977D01*
X107363125Y-105083500D01*
X111753298Y-105083500D01*
X111801516Y-105093091D01*
X111842393Y-105120405D01*
X114215656Y-107493668D01*
X114246394Y-107543827D01*
X114251010Y-107602473D01*
X114228498Y-107656823D01*
X114183765Y-107695029D01*
X114054364Y-107760964D01*
X114053283Y-107758844D01*
X114004816Y-107779130D01*
X113941635Y-107786250D01*
X113785617Y-107840843D01*
X113645659Y-107928784D01*
X113528784Y-108045659D01*
X113440843Y-108185617D01*
X113404443Y-108289641D01*
X113374609Y-108337121D01*
X113327130Y-108366954D01*
X113204232Y-108409958D01*
X113064274Y-108497899D01*
X112947399Y-108614774D01*
X112859457Y-108754733D01*
X112804866Y-108910745D01*
X112786359Y-109074999D01*
X112804866Y-109239254D01*
X112859457Y-109395266D01*
X112922187Y-109495099D01*
X112941500Y-109562135D01*
X112941500Y-111737108D01*
X112931909Y-111785326D01*
X112904597Y-111826200D01*
X112066578Y-112664219D01*
X111793821Y-112936976D01*
X111746867Y-112966624D01*
X111691728Y-112973208D01*
X111639113Y-112955449D01*
X111599243Y-112916796D01*
X111598861Y-112916211D01*
X111598860Y-112916209D01*
X111475722Y-112727732D01*
X111332157Y-112571780D01*
X111302921Y-112518178D01*
X111302318Y-112457122D01*
X111330493Y-112402951D01*
X111380827Y-112368388D01*
X111495963Y-112325445D01*
X111612904Y-112237904D01*
X111700445Y-112120962D01*
X111751494Y-111984093D01*
X111758000Y-111923589D01*
X111758000Y-111279000D01*
X109042000Y-111279000D01*
X109042000Y-111923589D01*
X109048505Y-111984093D01*
X109099554Y-112120962D01*
X109187095Y-112237904D01*
X109304037Y-112325445D01*
X109419172Y-112368388D01*
X109469506Y-112402952D01*
X109497681Y-112457122D01*
X109497078Y-112518178D01*
X109467841Y-112571782D01*
X109324278Y-112727731D01*
X109201139Y-112916209D01*
X109110702Y-113122388D01*
X109055437Y-113340627D01*
X109055436Y-113340632D01*
X109036844Y-113565000D01*
X109055436Y-113789368D01*
X109055436Y-113789371D01*
X109055437Y-113789372D01*
X109110702Y-114007611D01*
X109201141Y-114213794D01*
X109242231Y-114276687D01*
X109261780Y-114330017D01*
X109255921Y-114386514D01*
X109225843Y-114434697D01*
X106605947Y-117054595D01*
X106565070Y-117081909D01*
X106516852Y-117091500D01*
X106347431Y-117091500D01*
X106125365Y-117128556D01*
X106125362Y-117128556D01*
X106125362Y-117128557D01*
X105912426Y-117201657D01*
X105714421Y-117308812D01*
X105536762Y-117447091D01*
X105384278Y-117612731D01*
X105295483Y-117748643D01*
X105249969Y-117790541D01*
X105190000Y-117805727D01*
X105130031Y-117790541D01*
X105084517Y-117748643D01*
X104995721Y-117612731D01*
X104914126Y-117524096D01*
X104843240Y-117447094D01*
X104843239Y-117447093D01*
X104843237Y-117447091D01*
X104665578Y-117308812D01*
X104467573Y-117201657D01*
X104314510Y-117149111D01*
X104254635Y-117128556D01*
X104032569Y-117091500D01*
X103807431Y-117091500D01*
X103585365Y-117128556D01*
X103585362Y-117128556D01*
X103585362Y-117128557D01*
X103372426Y-117201657D01*
X103174421Y-117308812D01*
X102996762Y-117447091D01*
X102844278Y-117612731D01*
X102755483Y-117748643D01*
X102709969Y-117790541D01*
X102650000Y-117805727D01*
X102590031Y-117790541D01*
X102544517Y-117748643D01*
X102455721Y-117612731D01*
X102374126Y-117524096D01*
X102303240Y-117447094D01*
X102303239Y-117447093D01*
X102303237Y-117447091D01*
X102125578Y-117308812D01*
X101927573Y-117201657D01*
X101774510Y-117149111D01*
X101714635Y-117128556D01*
X101492569Y-117091500D01*
X101267431Y-117091500D01*
X101045365Y-117128556D01*
X101045362Y-117128556D01*
X101045362Y-117128557D01*
X100832426Y-117201657D01*
X100634421Y-117308812D01*
X100456762Y-117447091D01*
X100304278Y-117612731D01*
X100215483Y-117748643D01*
X100169969Y-117790541D01*
X100110000Y-117805727D01*
X100050031Y-117790541D01*
X100004517Y-117748643D01*
X99915721Y-117612731D01*
X99834126Y-117524096D01*
X99763240Y-117447094D01*
X99763239Y-117447093D01*
X99763237Y-117447091D01*
X99585578Y-117308812D01*
X99387573Y-117201657D01*
X99234510Y-117149111D01*
X99174635Y-117128556D01*
X98952569Y-117091500D01*
X98727431Y-117091500D01*
X98505365Y-117128556D01*
X98505362Y-117128556D01*
X98505362Y-117128557D01*
X98292426Y-117201657D01*
X98094421Y-117308812D01*
X97916762Y-117447091D01*
X97764278Y-117612731D01*
X97641139Y-117801209D01*
X97550702Y-118007388D01*
X97495437Y-118225627D01*
X97495436Y-118225632D01*
X97476844Y-118450000D01*
X97495436Y-118674368D01*
X97495436Y-118674371D01*
X97495437Y-118674372D01*
X97550702Y-118892611D01*
X97641139Y-119098790D01*
X97670950Y-119144419D01*
X97764278Y-119287268D01*
X97876525Y-119409200D01*
X97916762Y-119452908D01*
X98094418Y-119591185D01*
X98094420Y-119591186D01*
X98094424Y-119591189D01*
X98127682Y-119609187D01*
X98175952Y-119655503D01*
X98193711Y-119720000D01*
X98175952Y-119784497D01*
X98127682Y-119830812D01*
X98102848Y-119844252D01*
X98094418Y-119848814D01*
X97916762Y-119987091D01*
X97764278Y-120152731D01*
X97641139Y-120341209D01*
X97550702Y-120547388D01*
X97498665Y-120752881D01*
X97495436Y-120765632D01*
X97476844Y-120990000D01*
X97495436Y-121214368D01*
X97495436Y-121214371D01*
X97495437Y-121214372D01*
X97550702Y-121432611D01*
X97641139Y-121638790D01*
X97764278Y-121827268D01*
X97916762Y-121992908D01*
X98094421Y-122131187D01*
X98094424Y-122131189D01*
X98292426Y-122238342D01*
X98505365Y-122311444D01*
X98727431Y-122348500D01*
X98952566Y-122348500D01*
X98952569Y-122348500D01*
X99174635Y-122311444D01*
X99387574Y-122238342D01*
X99585576Y-122131189D01*
X99763240Y-121992906D01*
X99915722Y-121827268D01*
X100004518Y-121691354D01*
X100050031Y-121649458D01*
X100110000Y-121634272D01*
X100169969Y-121649458D01*
X100215481Y-121691354D01*
X100286618Y-121800237D01*
X100304278Y-121827268D01*
X100456762Y-121992908D01*
X100634421Y-122131187D01*
X100634424Y-122131189D01*
X100832426Y-122238342D01*
X101045365Y-122311444D01*
X101267431Y-122348500D01*
X101492566Y-122348500D01*
X101492569Y-122348500D01*
X101714635Y-122311444D01*
X101927574Y-122238342D01*
X102125576Y-122131189D01*
X102303240Y-121992906D01*
X102455722Y-121827268D01*
X102544518Y-121691354D01*
X102590031Y-121649458D01*
X102650000Y-121634272D01*
X102709969Y-121649458D01*
X102755481Y-121691354D01*
X102826618Y-121800237D01*
X102844278Y-121827268D01*
X102996762Y-121992908D01*
X103174421Y-122131187D01*
X103174424Y-122131189D01*
X103372426Y-122238342D01*
X103585365Y-122311444D01*
X103807431Y-122348500D01*
X104032566Y-122348500D01*
X104032569Y-122348500D01*
X104254635Y-122311444D01*
X104467574Y-122238342D01*
X104665576Y-122131189D01*
X104843240Y-121992906D01*
X104995722Y-121827268D01*
X105084518Y-121691354D01*
X105130031Y-121649458D01*
X105190000Y-121634272D01*
X105249969Y-121649458D01*
X105295481Y-121691354D01*
X105366618Y-121800237D01*
X105384278Y-121827268D01*
X105536762Y-121992908D01*
X105714421Y-122131187D01*
X105714424Y-122131189D01*
X105912426Y-122238342D01*
X106125365Y-122311444D01*
X106347431Y-122348500D01*
X106572566Y-122348500D01*
X106572569Y-122348500D01*
X106794635Y-122311444D01*
X107007574Y-122238342D01*
X107205576Y-122131189D01*
X107383240Y-121992906D01*
X107535722Y-121827268D01*
X107624518Y-121691354D01*
X107670031Y-121649458D01*
X107730000Y-121634272D01*
X107789969Y-121649458D01*
X107835481Y-121691354D01*
X107906618Y-121800237D01*
X107924278Y-121827268D01*
X108076762Y-121992908D01*
X108254421Y-122131187D01*
X108254424Y-122131189D01*
X108452426Y-122238342D01*
X108665365Y-122311444D01*
X108887431Y-122348500D01*
X109112566Y-122348500D01*
X109112569Y-122348500D01*
X109334635Y-122311444D01*
X109547574Y-122238342D01*
X109745576Y-122131189D01*
X109923240Y-121992906D01*
X110075722Y-121827268D01*
X110164818Y-121690896D01*
X110210329Y-121648999D01*
X110270299Y-121633813D01*
X110330268Y-121648999D01*
X110375782Y-121690897D01*
X110464678Y-121826962D01*
X110617096Y-121992533D01*
X110794697Y-122130766D01*
X110992631Y-122237883D01*
X111205485Y-122310955D01*
X111286000Y-122324391D01*
X111286000Y-121244000D01*
X111794000Y-121244000D01*
X111794000Y-122324391D01*
X111874514Y-122310955D01*
X112087368Y-122237883D01*
X112285302Y-122130766D01*
X112462903Y-121992533D01*
X112615321Y-121826962D01*
X112738419Y-121638548D01*
X112828822Y-121432451D01*
X112876544Y-121244000D01*
X111794000Y-121244000D01*
X111286000Y-121244000D01*
X111286000Y-120862000D01*
X111302881Y-120799000D01*
X111349000Y-120752881D01*
X111412000Y-120736000D01*
X112876544Y-120736000D01*
X112876544Y-120735999D01*
X112828822Y-120547548D01*
X112738419Y-120341451D01*
X112615321Y-120153037D01*
X112472018Y-119997367D01*
X112442780Y-119943763D01*
X112442178Y-119882707D01*
X112470353Y-119828537D01*
X112520683Y-119793976D01*
X112636204Y-119750889D01*
X112753261Y-119663261D01*
X112840889Y-119546204D01*
X112891989Y-119409201D01*
X112898500Y-119348638D01*
X112898500Y-117551362D01*
X112891989Y-117490799D01*
X112840889Y-117353796D01*
X112840888Y-117353794D01*
X112753261Y-117236738D01*
X112636205Y-117149111D01*
X112567702Y-117123560D01*
X112499201Y-117098011D01*
X112438638Y-117091500D01*
X110641362Y-117091500D01*
X110580799Y-117098011D01*
X110443794Y-117149111D01*
X110326738Y-117236738D01*
X110239109Y-117353796D01*
X110195000Y-117472057D01*
X110158469Y-117524096D01*
X110101178Y-117551672D01*
X110037716Y-117547762D01*
X109984245Y-117513362D01*
X109923240Y-117447094D01*
X109923239Y-117447093D01*
X109923237Y-117447091D01*
X109745578Y-117308812D01*
X109547573Y-117201657D01*
X109334632Y-117128555D01*
X109315779Y-117125409D01*
X109254095Y-117096429D01*
X109216526Y-117039568D01*
X109214062Y-116971460D01*
X109247422Y-116912035D01*
X110249052Y-115910405D01*
X110289930Y-115883091D01*
X110338148Y-115873500D01*
X110910800Y-115873500D01*
X110930509Y-115875051D01*
X110932508Y-115875367D01*
X110943762Y-115877150D01*
X111007007Y-115873835D01*
X111010106Y-115873673D01*
X111016700Y-115873500D01*
X111036560Y-115873500D01*
X111036561Y-115873500D01*
X111056320Y-115871422D01*
X111062880Y-115870906D01*
X111129226Y-115867430D01*
X111142181Y-115863958D01*
X111161621Y-115860355D01*
X111168665Y-115859615D01*
X111174959Y-115858954D01*
X111238134Y-115838426D01*
X111244448Y-115836555D01*
X111308618Y-115819362D01*
X111320565Y-115813274D01*
X111338823Y-115805710D01*
X111351586Y-115801564D01*
X111409130Y-115768339D01*
X111414886Y-115765214D01*
X111474094Y-115735047D01*
X111484514Y-115726608D01*
X111500805Y-115715411D01*
X111512424Y-115708704D01*
X111561810Y-115664235D01*
X111566790Y-115659983D01*
X111582241Y-115647472D01*
X111596310Y-115633401D01*
X111601057Y-115628897D01*
X111650440Y-115584434D01*
X111658325Y-115573579D01*
X111671161Y-115558550D01*
X114393544Y-112836166D01*
X114408576Y-112823328D01*
X114419434Y-112815440D01*
X114463905Y-112766048D01*
X114468408Y-112761302D01*
X114482472Y-112747240D01*
X114494979Y-112731792D01*
X114499222Y-112726824D01*
X114543704Y-112677424D01*
X114550415Y-112665799D01*
X114561608Y-112649514D01*
X114570047Y-112639094D01*
X114600214Y-112579886D01*
X114603339Y-112574130D01*
X114636564Y-112516586D01*
X114640710Y-112503823D01*
X114648276Y-112485561D01*
X114654362Y-112473618D01*
X114671555Y-112409448D01*
X114673426Y-112403134D01*
X114693954Y-112339959D01*
X114695355Y-112326624D01*
X114698958Y-112307181D01*
X114702430Y-112294226D01*
X114705906Y-112227880D01*
X114706424Y-112221303D01*
X114708248Y-112203962D01*
X114708500Y-112201561D01*
X114708500Y-112181700D01*
X114708673Y-112175108D01*
X114709367Y-112161859D01*
X114711125Y-112128319D01*
X114727153Y-112073106D01*
X114766045Y-112030760D01*
X114819702Y-112010101D01*
X114876950Y-112015433D01*
X114925869Y-112045642D01*
X117297911Y-114408312D01*
X117323280Y-114433580D01*
X117327846Y-114438373D01*
X117403405Y-114521996D01*
X117583520Y-114668316D01*
X117708286Y-114741077D01*
X117767471Y-114775593D01*
X117783981Y-114785221D01*
X117852496Y-114812086D01*
X118000031Y-114869935D01*
X118226517Y-114920439D01*
X118226522Y-114920440D01*
X118405983Y-114932143D01*
X118458086Y-114935542D01*
X118458087Y-114935541D01*
X118458089Y-114935542D01*
X118689227Y-114914881D01*
X118879076Y-114867730D01*
X118914441Y-114858947D01*
X118914442Y-114858946D01*
X118914444Y-114858946D01*
X119128391Y-114769068D01*
X119216642Y-114714718D01*
X119283809Y-114696010D01*
X119350643Y-114715884D01*
X119396674Y-114768255D01*
X119407808Y-114837086D01*
X119380635Y-114901299D01*
X119246047Y-115067501D01*
X119034371Y-115393455D01*
X118857923Y-115739752D01*
X118849552Y-115761560D01*
X118813751Y-115812216D01*
X118758118Y-115839652D01*
X118696135Y-115837216D01*
X118642826Y-115805500D01*
X118610225Y-115772899D01*
X118470266Y-115684957D01*
X118314254Y-115630366D01*
X118150000Y-115611859D01*
X117985745Y-115630366D01*
X117829733Y-115684957D01*
X117689774Y-115772899D01*
X117572899Y-115889774D01*
X117484957Y-116029733D01*
X117430366Y-116185745D01*
X117411859Y-116350000D01*
X117430366Y-116514254D01*
X117484957Y-116670266D01*
X117572899Y-116810225D01*
X117689774Y-116927100D01*
X117689776Y-116927101D01*
X117689777Y-116927102D01*
X117829733Y-117015042D01*
X117985748Y-117069634D01*
X118150000Y-117088141D01*
X118314252Y-117069634D01*
X118373430Y-117048926D01*
X118434288Y-117043334D01*
X118490620Y-117067039D01*
X118529171Y-117114464D01*
X118540870Y-117174450D01*
X118536910Y-117249999D01*
X118557251Y-117638117D01*
X118618051Y-118021995D01*
X118718644Y-118397413D01*
X118857921Y-118760244D01*
X119034372Y-119106548D01*
X119246049Y-119432502D01*
X119452876Y-119687911D01*
X119452877Y-119687912D01*
X124687912Y-114452877D01*
X124687911Y-114452876D01*
X124432502Y-114246049D01*
X124106548Y-114034372D01*
X123760244Y-113857921D01*
X123397413Y-113718644D01*
X123021995Y-113618051D01*
X122638117Y-113557251D01*
X122250000Y-113536910D01*
X121861882Y-113557251D01*
X121478004Y-113618051D01*
X121102586Y-113718644D01*
X120739755Y-113857921D01*
X120393455Y-114034371D01*
X120067501Y-114246047D01*
X119909067Y-114374344D01*
X119844755Y-114401529D01*
X119775842Y-114390298D01*
X119723490Y-114344098D01*
X119703775Y-114277117D01*
X119722750Y-114209925D01*
X119776315Y-114123719D01*
X119867045Y-113910132D01*
X119923876Y-113685140D01*
X119945458Y-113454086D01*
X119931279Y-113222461D01*
X119881674Y-112995765D01*
X119870381Y-112966624D01*
X119797824Y-112779385D01*
X119751951Y-112700000D01*
X123661859Y-112700000D01*
X123680366Y-112864254D01*
X123734957Y-113020266D01*
X123822899Y-113160225D01*
X123939774Y-113277100D01*
X123939776Y-113277101D01*
X123939777Y-113277102D01*
X124079733Y-113365042D01*
X124235748Y-113419634D01*
X124400000Y-113438141D01*
X124564252Y-113419634D01*
X124720267Y-113365042D01*
X124860223Y-113277102D01*
X124977102Y-113160223D01*
X125065042Y-113020267D01*
X125119634Y-112864252D01*
X125138141Y-112700000D01*
X125119634Y-112535748D01*
X125097810Y-112473380D01*
X125065042Y-112379733D01*
X125018105Y-112305033D01*
X124977102Y-112239777D01*
X124977101Y-112239776D01*
X124977100Y-112239774D01*
X124860225Y-112122899D01*
X124720266Y-112034957D01*
X124564254Y-111980366D01*
X124400000Y-111961859D01*
X124235745Y-111980366D01*
X124079733Y-112034957D01*
X123939774Y-112122899D01*
X123822899Y-112239774D01*
X123734957Y-112379733D01*
X123680366Y-112535745D01*
X123661859Y-112700000D01*
X119751951Y-112700000D01*
X119707191Y-112622542D01*
X119690286Y-112559536D01*
X119707155Y-112496521D01*
X119753276Y-112450387D01*
X119816286Y-112433500D01*
X119903448Y-112433500D01*
X119970482Y-112452812D01*
X120029733Y-112490042D01*
X120185748Y-112544634D01*
X120350000Y-112563141D01*
X120514252Y-112544634D01*
X120670267Y-112490042D01*
X120810223Y-112402102D01*
X120927102Y-112285223D01*
X121015042Y-112145267D01*
X121069634Y-111989252D01*
X121088141Y-111825000D01*
X121069634Y-111660748D01*
X121015042Y-111504733D01*
X120927102Y-111364777D01*
X120927101Y-111364776D01*
X120927100Y-111364774D01*
X120810225Y-111247899D01*
X120670266Y-111159957D01*
X120514254Y-111105366D01*
X120404750Y-111093028D01*
X120350000Y-111086859D01*
X120349999Y-111086859D01*
X120185745Y-111105366D01*
X120029733Y-111159957D01*
X119985967Y-111187457D01*
X119970482Y-111197187D01*
X119903448Y-111216500D01*
X119754012Y-111216500D01*
X119689995Y-111199025D01*
X119643734Y-111151449D01*
X119628062Y-111086966D01*
X119647325Y-111023464D01*
X119665042Y-110995267D01*
X119719633Y-110839254D01*
X119719634Y-110839252D01*
X119738141Y-110675000D01*
X119719634Y-110510748D01*
X119665042Y-110354733D01*
X119577102Y-110214777D01*
X119577101Y-110214776D01*
X119577100Y-110214774D01*
X119460226Y-110097900D01*
X119437374Y-110083541D01*
X119397723Y-110043889D01*
X119379203Y-109990960D01*
X119385481Y-109935243D01*
X119406256Y-109875874D01*
X119424763Y-109711622D01*
X119406256Y-109547370D01*
X119351664Y-109391355D01*
X119263724Y-109251399D01*
X119263723Y-109251398D01*
X119263722Y-109251396D01*
X119262325Y-109249999D01*
X124369534Y-109249999D01*
X124389312Y-109400235D01*
X124447301Y-109540232D01*
X124447302Y-109540233D01*
X124539549Y-109660451D01*
X124659767Y-109752698D01*
X124799764Y-109810687D01*
X124912280Y-109825500D01*
X124987720Y-109825500D01*
X125100236Y-109810687D01*
X125240233Y-109752698D01*
X125360451Y-109660451D01*
X125452698Y-109540233D01*
X125510687Y-109400236D01*
X125530466Y-109250000D01*
X125510687Y-109099764D01*
X125452698Y-108959767D01*
X125360451Y-108839549D01*
X125258911Y-108761634D01*
X125240232Y-108747301D01*
X125100235Y-108689312D01*
X124987720Y-108674500D01*
X124912280Y-108674500D01*
X124799764Y-108689312D01*
X124659767Y-108747301D01*
X124539549Y-108839549D01*
X124447301Y-108959767D01*
X124389312Y-109099764D01*
X124369534Y-109249999D01*
X119262325Y-109249999D01*
X119146847Y-109134521D01*
X119006889Y-109046580D01*
X118866484Y-108997450D01*
X118819004Y-108967616D01*
X118789171Y-108920136D01*
X118781931Y-108899445D01*
X118740042Y-108779733D01*
X118652102Y-108639777D01*
X118652101Y-108639776D01*
X118652100Y-108639774D01*
X118535225Y-108522899D01*
X118498781Y-108500000D01*
X120711859Y-108500000D01*
X120730366Y-108664254D01*
X120784957Y-108820266D01*
X120872899Y-108960225D01*
X120989774Y-109077100D01*
X120989776Y-109077101D01*
X120989777Y-109077102D01*
X121129733Y-109165042D01*
X121254094Y-109208558D01*
X121285748Y-109219634D01*
X121450000Y-109238141D01*
X121614252Y-109219634D01*
X121770267Y-109165042D01*
X121910223Y-109077102D01*
X122027102Y-108960223D01*
X122115042Y-108820267D01*
X122169634Y-108664252D01*
X122188141Y-108500000D01*
X122169634Y-108335748D01*
X122153500Y-108289641D01*
X122115042Y-108179733D01*
X122030798Y-108045659D01*
X122027102Y-108039777D01*
X122027101Y-108039776D01*
X122027100Y-108039774D01*
X121910225Y-107922899D01*
X121770266Y-107834957D01*
X121614254Y-107780366D01*
X121450000Y-107761859D01*
X121285745Y-107780366D01*
X121129733Y-107834957D01*
X120989774Y-107922899D01*
X120872899Y-108039774D01*
X120784957Y-108179733D01*
X120730366Y-108335745D01*
X120711859Y-108500000D01*
X118498781Y-108500000D01*
X118395266Y-108434957D01*
X118239254Y-108380366D01*
X118075000Y-108361859D01*
X117910745Y-108380366D01*
X117754733Y-108434957D01*
X117614774Y-108522899D01*
X117497898Y-108639775D01*
X117421805Y-108760878D01*
X117382154Y-108800529D01*
X117329226Y-108819050D01*
X117273503Y-108812771D01*
X117226023Y-108782937D01*
X115893086Y-107450000D01*
X124369534Y-107450000D01*
X124389312Y-107600235D01*
X124447301Y-107740232D01*
X124463896Y-107761859D01*
X124539549Y-107860451D01*
X124659767Y-107952698D01*
X124799764Y-108010687D01*
X124912280Y-108025500D01*
X124987720Y-108025500D01*
X125100236Y-108010687D01*
X125240233Y-107952698D01*
X125360451Y-107860451D01*
X125452698Y-107740233D01*
X125510687Y-107600236D01*
X125530466Y-107450000D01*
X125510687Y-107299764D01*
X125452698Y-107159767D01*
X125360451Y-107039549D01*
X125240233Y-106947302D01*
X125240232Y-106947301D01*
X125100235Y-106889312D01*
X124987720Y-106874500D01*
X124912280Y-106874500D01*
X124799764Y-106889312D01*
X124659767Y-106947301D01*
X124539549Y-107039549D01*
X124447301Y-107159767D01*
X124389312Y-107299764D01*
X124369534Y-107450000D01*
X115893086Y-107450000D01*
X114892086Y-106449000D01*
X118562328Y-106449000D01*
X118580835Y-106613254D01*
X118635426Y-106769266D01*
X118723368Y-106909225D01*
X118840243Y-107026100D01*
X118980202Y-107114042D01*
X119110876Y-107159767D01*
X119136217Y-107168634D01*
X119300469Y-107187141D01*
X119464721Y-107168634D01*
X119620736Y-107114042D01*
X119760692Y-107026102D01*
X119877571Y-106909223D01*
X119896997Y-106878305D01*
X119942735Y-106835064D01*
X120003684Y-106819342D01*
X120064633Y-106835064D01*
X120110372Y-106878306D01*
X120110665Y-106878772D01*
X120110667Y-106878778D01*
X120193093Y-107009958D01*
X120198610Y-107018738D01*
X120315483Y-107135611D01*
X120315485Y-107135612D01*
X120315486Y-107135613D01*
X120455442Y-107223553D01*
X120611457Y-107278145D01*
X120775709Y-107296652D01*
X120939961Y-107278145D01*
X121035178Y-107244826D01*
X121076790Y-107237756D01*
X121118406Y-107244827D01*
X121218163Y-107279733D01*
X121260748Y-107294634D01*
X121425000Y-107313141D01*
X121589252Y-107294634D01*
X121745267Y-107240042D01*
X121885223Y-107152102D01*
X122002102Y-107035223D01*
X122090042Y-106895267D01*
X122144634Y-106739252D01*
X122163141Y-106575000D01*
X122144634Y-106410748D01*
X122090042Y-106254733D01*
X122002102Y-106114777D01*
X122002101Y-106114776D01*
X122002100Y-106114774D01*
X121885225Y-105997899D01*
X121745266Y-105909957D01*
X121589254Y-105855366D01*
X121425000Y-105836859D01*
X121260747Y-105855366D01*
X121165529Y-105888684D01*
X121123915Y-105895754D01*
X121082300Y-105888683D01*
X120939963Y-105838877D01*
X120775702Y-105820369D01*
X120770169Y-105820993D01*
X120714449Y-105814713D01*
X120666971Y-105784879D01*
X120637139Y-105737400D01*
X120590542Y-105604233D01*
X120502602Y-105464277D01*
X120502601Y-105464276D01*
X120502600Y-105464274D01*
X120385725Y-105347399D01*
X120245766Y-105259457D01*
X120089754Y-105204866D01*
X119925500Y-105186359D01*
X119761245Y-105204866D01*
X119605233Y-105259457D01*
X119465274Y-105347399D01*
X119348399Y-105464274D01*
X119260458Y-105604231D01*
X119246122Y-105645202D01*
X119205753Y-105702095D01*
X119141304Y-105728792D01*
X119136219Y-105729365D01*
X118980201Y-105783958D01*
X118840243Y-105871899D01*
X118723368Y-105988774D01*
X118635426Y-106128733D01*
X118580835Y-106284745D01*
X118562328Y-106449000D01*
X114892086Y-106449000D01*
X113709181Y-105266095D01*
X113679347Y-105218615D01*
X113673068Y-105162892D01*
X113691589Y-105109963D01*
X113731239Y-105070313D01*
X113760223Y-105052102D01*
X113792525Y-105019799D01*
X113840005Y-104989965D01*
X113895726Y-104983686D01*
X113908148Y-104985086D01*
X113995798Y-104975209D01*
X114051517Y-104981488D01*
X114098995Y-105011320D01*
X114137674Y-105049999D01*
X114164777Y-105077102D01*
X114304733Y-105165042D01*
X114393654Y-105196157D01*
X114460748Y-105219634D01*
X114625000Y-105238141D01*
X114789252Y-105219634D01*
X114945267Y-105165042D01*
X115035385Y-105108416D01*
X115097710Y-105089192D01*
X115161297Y-105103706D01*
X115209106Y-105148065D01*
X115233168Y-105186359D01*
X115239108Y-105195812D01*
X115355981Y-105312685D01*
X115355983Y-105312686D01*
X115355984Y-105312687D01*
X115495940Y-105400627D01*
X115651955Y-105455219D01*
X115816207Y-105473726D01*
X115980459Y-105455219D01*
X116136474Y-105400627D01*
X116276430Y-105312687D01*
X116393309Y-105195808D01*
X116481249Y-105055852D01*
X116508463Y-104978076D01*
X116545205Y-104924187D01*
X116603968Y-104895888D01*
X116669008Y-104900762D01*
X116763541Y-104933840D01*
X116763544Y-104933841D01*
X116927796Y-104952348D01*
X117092048Y-104933841D01*
X117248063Y-104879249D01*
X117388019Y-104791309D01*
X117504898Y-104674430D01*
X117551665Y-104600000D01*
X120686859Y-104600000D01*
X120691341Y-104639774D01*
X120705366Y-104764254D01*
X120759957Y-104920266D01*
X120847899Y-105060225D01*
X120964774Y-105177100D01*
X120964776Y-105177101D01*
X120964777Y-105177102D01*
X121051533Y-105231614D01*
X121104733Y-105265042D01*
X121260293Y-105319475D01*
X121260748Y-105319634D01*
X121425000Y-105338141D01*
X121589252Y-105319634D01*
X121745267Y-105265042D01*
X121885223Y-105177102D01*
X122002102Y-105060223D01*
X122090042Y-104920267D01*
X122144634Y-104764252D01*
X122163141Y-104600000D01*
X122144634Y-104435748D01*
X122129436Y-104392316D01*
X122121627Y-104370000D01*
X122716619Y-104370000D01*
X122736091Y-104567701D01*
X122793758Y-104757802D01*
X122887406Y-104933007D01*
X123013431Y-105086568D01*
X123166992Y-105212593D01*
X123180163Y-105219633D01*
X123342196Y-105306241D01*
X123429459Y-105332712D01*
X123532298Y-105363908D01*
X123680450Y-105378500D01*
X123680453Y-105378500D01*
X124879547Y-105378500D01*
X124879550Y-105378500D01*
X125027701Y-105363908D01*
X125053332Y-105356133D01*
X125217804Y-105306241D01*
X125393004Y-105212595D01*
X125393005Y-105212593D01*
X125393007Y-105212593D01*
X125546568Y-105086568D01*
X125672593Y-104933007D01*
X125674343Y-104929733D01*
X125766241Y-104757804D01*
X125823908Y-104567701D01*
X125843380Y-104370000D01*
X125828525Y-104219180D01*
X125823908Y-104172298D01*
X125785463Y-104045562D01*
X125766241Y-103982196D01*
X125680378Y-103821557D01*
X125672593Y-103806992D01*
X125546568Y-103653431D01*
X125393006Y-103527406D01*
X125261486Y-103457107D01*
X125211229Y-103408051D01*
X125195038Y-103339712D01*
X125217943Y-103273325D01*
X125280971Y-103184037D01*
X125329346Y-103047921D01*
X125339204Y-102903801D01*
X125309814Y-102762366D01*
X125243354Y-102634105D01*
X125217682Y-102606617D01*
X125144755Y-102528530D01*
X125021330Y-102453475D01*
X125021329Y-102453474D01*
X125021328Y-102453474D01*
X124882228Y-102414500D01*
X124774051Y-102414500D01*
X124774048Y-102414500D01*
X124666890Y-102429228D01*
X124572633Y-102470170D01*
X124537974Y-102485225D01*
X124534389Y-102486782D01*
X124422336Y-102577944D01*
X124339029Y-102695963D01*
X124290654Y-102832079D01*
X124284286Y-102925183D01*
X124280796Y-102976199D01*
X124308361Y-103108851D01*
X124310187Y-103117637D01*
X124341222Y-103177532D01*
X124355276Y-103239802D01*
X124337006Y-103300967D01*
X124291103Y-103345329D01*
X124229349Y-103361500D01*
X123680450Y-103361500D01*
X123532298Y-103376091D01*
X123342197Y-103433758D01*
X123166992Y-103527406D01*
X123013431Y-103653431D01*
X122887406Y-103806992D01*
X122793758Y-103982197D01*
X122736091Y-104172298D01*
X122716619Y-104370000D01*
X122121627Y-104370000D01*
X122090042Y-104279733D01*
X122034539Y-104191400D01*
X122002102Y-104139777D01*
X122002101Y-104139776D01*
X122002100Y-104139774D01*
X121885225Y-104022899D01*
X121745266Y-103934957D01*
X121589254Y-103880366D01*
X121425000Y-103861859D01*
X121260745Y-103880366D01*
X121104733Y-103934957D01*
X120964774Y-104022899D01*
X120847899Y-104139774D01*
X120759957Y-104279733D01*
X120705366Y-104435745D01*
X120688865Y-104582195D01*
X120686859Y-104600000D01*
X117551665Y-104600000D01*
X117592838Y-104534474D01*
X117625966Y-104439797D01*
X117655801Y-104392316D01*
X117703281Y-104362483D01*
X117758999Y-104356204D01*
X117825000Y-104363641D01*
X117989252Y-104345134D01*
X118145267Y-104290542D01*
X118145267Y-104290541D01*
X118158564Y-104285889D01*
X118200179Y-104278818D01*
X118241794Y-104285889D01*
X118368904Y-104330366D01*
X118380067Y-104334272D01*
X118544319Y-104352779D01*
X118708571Y-104334272D01*
X118864586Y-104279680D01*
X118998269Y-104195681D01*
X119065303Y-104176369D01*
X119132339Y-104195682D01*
X119143351Y-104202601D01*
X119143352Y-104202602D01*
X119283308Y-104290542D01*
X119439323Y-104345134D01*
X119603575Y-104363641D01*
X119767827Y-104345134D01*
X119923842Y-104290542D01*
X120063798Y-104202602D01*
X120180677Y-104085723D01*
X120268617Y-103945767D01*
X120323209Y-103789752D01*
X120341716Y-103625500D01*
X120323209Y-103461248D01*
X120268617Y-103305233D01*
X120180677Y-103165277D01*
X120180676Y-103165276D01*
X120180675Y-103165274D01*
X120063800Y-103048399D01*
X119923841Y-102960457D01*
X119767829Y-102905866D01*
X119603575Y-102887359D01*
X119439320Y-102905866D01*
X119283309Y-102960457D01*
X119149625Y-103044456D01*
X119082590Y-103063768D01*
X119015554Y-103044455D01*
X118864585Y-102949595D01*
X118708573Y-102895004D01*
X118544319Y-102876497D01*
X118380066Y-102895004D01*
X118210752Y-102954249D01*
X118169138Y-102961319D01*
X118127524Y-102954249D01*
X117989252Y-102905866D01*
X117825000Y-102887359D01*
X117660745Y-102905866D01*
X117504733Y-102960457D01*
X117364774Y-103048399D01*
X117247899Y-103165274D01*
X117164955Y-103297280D01*
X117159958Y-103305233D01*
X117150405Y-103332532D01*
X117126828Y-103399911D01*
X117096994Y-103447390D01*
X117049514Y-103477223D01*
X116993792Y-103483502D01*
X116927796Y-103476066D01*
X116763541Y-103494573D01*
X116667567Y-103528155D01*
X116625953Y-103535225D01*
X116584339Y-103528154D01*
X116442745Y-103478608D01*
X116278490Y-103460101D01*
X116114235Y-103478608D01*
X115958223Y-103533199D01*
X115818264Y-103621141D01*
X115701389Y-103738016D01*
X115613448Y-103877974D01*
X115573100Y-103993283D01*
X115543268Y-104040761D01*
X115507940Y-104062960D01*
X115507960Y-104062991D01*
X115495942Y-104070542D01*
X115495940Y-104070543D01*
X115408082Y-104125748D01*
X115405822Y-104127168D01*
X115343497Y-104146392D01*
X115279910Y-104131879D01*
X115232099Y-104087516D01*
X115202101Y-104039775D01*
X115085225Y-103922899D01*
X114945266Y-103834957D01*
X114789254Y-103780366D01*
X114707125Y-103771112D01*
X114625000Y-103761859D01*
X114624998Y-103761859D01*
X114537350Y-103771734D01*
X114481628Y-103765455D01*
X114434150Y-103735622D01*
X114368371Y-103669843D01*
X114368370Y-103669842D01*
X114228414Y-103581902D01*
X114072402Y-103527311D01*
X113908148Y-103508804D01*
X113743893Y-103527311D01*
X113587881Y-103581902D01*
X113447925Y-103669843D01*
X113415619Y-103702148D01*
X113368141Y-103731979D01*
X113312422Y-103738258D01*
X113300003Y-103736859D01*
X113300001Y-103736859D01*
X113227286Y-103745052D01*
X113135745Y-103755366D01*
X112979733Y-103809957D01*
X112839774Y-103897899D01*
X112722898Y-104014775D01*
X112706043Y-104041601D01*
X112662866Y-104083388D01*
X112605245Y-104100427D01*
X112546285Y-104088843D01*
X112499394Y-104051270D01*
X112491524Y-104041013D01*
X112491522Y-104041011D01*
X112491521Y-104041010D01*
X112459611Y-104016524D01*
X112459611Y-104016525D01*
X112459609Y-104016523D01*
X112367399Y-103945767D01*
X112364412Y-103943475D01*
X112216386Y-103882161D01*
X112184583Y-103877975D01*
X112184582Y-103877975D01*
X112171334Y-103876230D01*
X112089240Y-103865422D01*
X112089228Y-103865422D01*
X112057537Y-103861250D01*
X112025844Y-103865422D01*
X112009401Y-103866500D01*
X111437292Y-103866500D01*
X111386906Y-103855987D01*
X111344928Y-103826202D01*
X111318363Y-103782115D01*
X111265042Y-103629733D01*
X111242711Y-103594194D01*
X111177102Y-103489777D01*
X111177101Y-103489776D01*
X111177100Y-103489774D01*
X111060226Y-103372900D01*
X110989055Y-103328180D01*
X110949405Y-103288529D01*
X110930884Y-103235600D01*
X110929233Y-103220947D01*
X110919634Y-103135748D01*
X110892035Y-103056876D01*
X110865042Y-102979733D01*
X110811109Y-102893899D01*
X110777102Y-102839777D01*
X110777101Y-102839776D01*
X110777100Y-102839774D01*
X110660225Y-102722899D01*
X110520266Y-102634957D01*
X110364254Y-102580366D01*
X110200000Y-102561859D01*
X110035745Y-102580366D01*
X109879734Y-102634957D01*
X109819322Y-102672916D01*
X109752286Y-102692228D01*
X109685251Y-102672916D01*
X109685224Y-102672899D01*
X109685223Y-102672898D01*
X109545267Y-102584958D01*
X109545265Y-102584957D01*
X109545263Y-102584956D01*
X109389254Y-102530366D01*
X109225000Y-102511859D01*
X109060745Y-102530366D01*
X108904734Y-102584957D01*
X108829535Y-102632208D01*
X108762500Y-102651520D01*
X108695465Y-102632208D01*
X108679808Y-102622370D01*
X108620267Y-102584958D01*
X108620266Y-102584957D01*
X108620265Y-102584957D01*
X108464254Y-102530366D01*
X108300000Y-102511859D01*
X108135745Y-102530366D01*
X107979733Y-102584957D01*
X107839774Y-102672899D01*
X107722899Y-102789774D01*
X107634957Y-102929733D01*
X107580366Y-103085745D01*
X107561859Y-103250000D01*
X107580366Y-103414254D01*
X107634957Y-103570266D01*
X107699801Y-103673464D01*
X107719064Y-103736966D01*
X107703392Y-103801449D01*
X107657131Y-103849025D01*
X107593114Y-103866500D01*
X106729239Y-103866500D01*
X106681021Y-103856909D01*
X106640144Y-103829595D01*
X105786678Y-102976129D01*
X105752932Y-102915072D01*
X105756844Y-102845419D01*
X105797213Y-102788523D01*
X105861662Y-102761826D01*
X106014252Y-102744634D01*
X106170267Y-102690042D01*
X106310223Y-102602102D01*
X106427102Y-102485223D01*
X106515042Y-102345267D01*
X106569634Y-102189252D01*
X106588141Y-102025000D01*
X106588140Y-102024999D01*
X106588379Y-102022886D01*
X106609481Y-101966015D01*
X106654711Y-101925595D01*
X106713587Y-101910994D01*
X108916109Y-101910994D01*
X108964328Y-101920585D01*
X109005201Y-101947896D01*
X109046859Y-101989554D01*
X109186815Y-102077494D01*
X109342830Y-102132086D01*
X109507082Y-102150593D01*
X109671334Y-102132086D01*
X109827349Y-102077494D01*
X109967305Y-101989554D01*
X110084184Y-101872675D01*
X110172124Y-101732719D01*
X110226716Y-101576704D01*
X110245223Y-101412452D01*
X110226716Y-101248200D01*
X110172124Y-101092185D01*
X110084184Y-100952229D01*
X110084183Y-100952228D01*
X110084182Y-100952226D01*
X109967307Y-100835351D01*
X109827348Y-100747409D01*
X109671336Y-100692818D01*
X109507082Y-100674311D01*
X109342827Y-100692818D01*
X109186815Y-100747409D01*
X109163205Y-100762245D01*
X109143413Y-100774681D01*
X109076378Y-100793994D01*
X103305319Y-100793994D01*
X103241302Y-100776519D01*
X103195041Y-100728943D01*
X103179369Y-100664460D01*
X103198632Y-100600958D01*
X103219356Y-100567976D01*
X103265042Y-100495267D01*
X103298378Y-100399999D01*
X111541859Y-100399999D01*
X111560366Y-100564254D01*
X111614957Y-100720266D01*
X111702899Y-100860225D01*
X111819774Y-100977100D01*
X111819776Y-100977101D01*
X111819777Y-100977102D01*
X111837223Y-100988064D01*
X111959733Y-101065042D01*
X112074646Y-101105252D01*
X112115748Y-101119634D01*
X112280000Y-101138141D01*
X112444252Y-101119634D01*
X112600267Y-101065042D01*
X112740223Y-100977102D01*
X112796921Y-100920403D01*
X112837795Y-100893092D01*
X112886014Y-100883501D01*
X124716051Y-100883501D01*
X124773883Y-100897557D01*
X124818812Y-100936588D01*
X124840814Y-100991888D01*
X124834980Y-101051116D01*
X124805366Y-101135745D01*
X124786859Y-101300000D01*
X124805366Y-101464254D01*
X124859957Y-101620266D01*
X124947899Y-101760225D01*
X125064774Y-101877100D01*
X125204733Y-101965042D01*
X125300067Y-101998401D01*
X125360748Y-102019634D01*
X125525000Y-102038141D01*
X125689252Y-102019634D01*
X125845267Y-101965042D01*
X125985223Y-101877102D01*
X126102102Y-101760223D01*
X126190042Y-101620267D01*
X126236812Y-101486604D01*
X126266642Y-101439129D01*
X126421229Y-101284541D01*
X126437308Y-101271662D01*
X126439439Y-101269392D01*
X126439443Y-101269390D01*
X126485268Y-101220589D01*
X126487959Y-101217812D01*
X126507393Y-101198380D01*
X126509769Y-101195315D01*
X126517479Y-101186289D01*
X126547160Y-101154682D01*
X126556670Y-101137381D01*
X126567528Y-101120853D01*
X126568474Y-101119633D01*
X126579631Y-101105251D01*
X126596859Y-101065436D01*
X126602072Y-101054795D01*
X126622967Y-101016790D01*
X126627879Y-100997657D01*
X126634275Y-100978974D01*
X126642125Y-100960837D01*
X126648908Y-100918001D01*
X126651310Y-100906395D01*
X126662100Y-100864378D01*
X126662100Y-100844632D01*
X126663651Y-100824922D01*
X126666740Y-100805418D01*
X126662659Y-100762245D01*
X126662100Y-100750387D01*
X126662100Y-99546968D01*
X126664361Y-99526484D01*
X126664263Y-99523378D01*
X126664264Y-99523376D01*
X126662161Y-99456493D01*
X126662100Y-99452536D01*
X126662100Y-99425122D01*
X126662100Y-99425117D01*
X126661613Y-99421270D01*
X126660682Y-99409436D01*
X126659938Y-99385748D01*
X126659321Y-99366098D01*
X126653811Y-99347135D01*
X126649802Y-99327774D01*
X126649452Y-99325000D01*
X126647328Y-99308185D01*
X126631361Y-99267857D01*
X126627515Y-99256623D01*
X126615858Y-99216499D01*
X126615420Y-99214990D01*
X126605368Y-99197994D01*
X126596672Y-99180242D01*
X126589402Y-99161879D01*
X126589401Y-99161877D01*
X126563908Y-99126789D01*
X126557390Y-99116866D01*
X126553454Y-99110210D01*
X126535320Y-99079547D01*
X126521350Y-99065577D01*
X126508514Y-99050548D01*
X126497187Y-99034958D01*
X126496910Y-99034576D01*
X126463497Y-99006934D01*
X126454718Y-98998945D01*
X126234542Y-98778769D01*
X126221656Y-98762685D01*
X126220097Y-98761221D01*
X126191944Y-98722165D01*
X126180494Y-98675400D01*
X126187421Y-98627755D01*
X126190040Y-98620269D01*
X126190042Y-98620267D01*
X126244634Y-98464252D01*
X126263141Y-98300000D01*
X126244634Y-98135748D01*
X126226960Y-98085240D01*
X126190042Y-97979733D01*
X126128240Y-97881375D01*
X126102102Y-97839777D01*
X126102101Y-97839776D01*
X126102100Y-97839774D01*
X125985225Y-97722899D01*
X125845266Y-97634957D01*
X125689254Y-97580366D01*
X125558672Y-97565653D01*
X125525000Y-97561859D01*
X125524999Y-97561859D01*
X125412710Y-97574511D01*
X125350243Y-97565653D01*
X125299901Y-97527622D01*
X125274307Y-97469954D01*
X125279878Y-97407108D01*
X125280967Y-97404041D01*
X125280971Y-97404037D01*
X125329346Y-97267921D01*
X125339204Y-97123801D01*
X125309814Y-96982366D01*
X125243354Y-96854105D01*
X125229730Y-96839517D01*
X125201201Y-96789962D01*
X125197513Y-96732901D01*
X125219423Y-96680086D01*
X125262416Y-96642395D01*
X125393004Y-96572595D01*
X125525603Y-96463774D01*
X125546568Y-96446568D01*
X125672593Y-96293007D01*
X125672595Y-96293004D01*
X125766241Y-96117804D01*
X125823908Y-95927701D01*
X125843380Y-95730000D01*
X125823908Y-95532299D01*
X125814904Y-95502618D01*
X125766241Y-95342197D01*
X125766241Y-95342196D01*
X125672595Y-95166996D01*
X125672593Y-95166992D01*
X125546568Y-95013431D01*
X125393007Y-94887406D01*
X125217802Y-94793758D01*
X125027701Y-94736091D01*
X124879550Y-94721500D01*
X124879547Y-94721500D01*
X123680453Y-94721500D01*
X123680450Y-94721500D01*
X123532298Y-94736091D01*
X123342197Y-94793758D01*
X123166992Y-94887406D01*
X123013431Y-95013431D01*
X122887406Y-95166992D01*
X122793758Y-95342197D01*
X122736091Y-95532298D01*
X122716619Y-95730000D01*
X122736091Y-95927701D01*
X122793758Y-96117802D01*
X122887406Y-96293007D01*
X123013431Y-96446568D01*
X123166992Y-96572593D01*
X123202951Y-96591813D01*
X123342196Y-96666241D01*
X123394338Y-96682058D01*
X123532298Y-96723908D01*
X123680450Y-96738500D01*
X123680453Y-96738500D01*
X124223598Y-96738500D01*
X124281566Y-96752626D01*
X124326536Y-96791837D01*
X124348424Y-96847342D01*
X124342324Y-96906693D01*
X124339030Y-96915961D01*
X124339029Y-96915963D01*
X124316768Y-96978598D01*
X124290132Y-97022401D01*
X124248245Y-97051968D01*
X124198046Y-97062400D01*
X120113654Y-97062400D01*
X120046619Y-97043088D01*
X120000133Y-96991072D01*
X119991273Y-96938934D01*
X119989730Y-96939108D01*
X119988140Y-96925002D01*
X119988141Y-96925000D01*
X119969634Y-96760748D01*
X119949857Y-96704230D01*
X119915042Y-96604733D01*
X119894847Y-96572593D01*
X119827102Y-96464777D01*
X119827101Y-96464776D01*
X119827100Y-96464774D01*
X119710225Y-96347899D01*
X119570266Y-96259957D01*
X119414254Y-96205366D01*
X119250000Y-96186859D01*
X119085745Y-96205366D01*
X118929733Y-96259957D01*
X118904928Y-96275542D01*
X118837894Y-96294852D01*
X118770861Y-96275540D01*
X118770068Y-96275042D01*
X118745267Y-96259458D01*
X118745266Y-96259457D01*
X118745265Y-96259457D01*
X118589254Y-96204866D01*
X118425000Y-96186359D01*
X118260745Y-96204866D01*
X118104728Y-96259459D01*
X118104529Y-96259585D01*
X118103631Y-96259843D01*
X118091333Y-96264147D01*
X118091091Y-96263456D01*
X118037500Y-96278894D01*
X117983908Y-96263456D01*
X117983667Y-96264147D01*
X117971368Y-96259843D01*
X117970471Y-96259585D01*
X117970271Y-96259459D01*
X117814254Y-96204866D01*
X117650000Y-96186359D01*
X117485745Y-96204866D01*
X117329733Y-96259457D01*
X117304928Y-96275042D01*
X117237894Y-96294352D01*
X117170861Y-96275040D01*
X117152425Y-96263456D01*
X117145267Y-96258958D01*
X117145266Y-96258957D01*
X117145265Y-96258957D01*
X116989254Y-96204366D01*
X116825000Y-96185859D01*
X116660745Y-96204366D01*
X116504733Y-96258957D01*
X116364774Y-96346899D01*
X116247899Y-96463774D01*
X116159957Y-96603733D01*
X116105366Y-96759745D01*
X116086859Y-96924000D01*
X116105366Y-97088254D01*
X116159957Y-97244266D01*
X116247899Y-97384225D01*
X116364774Y-97501100D01*
X116364776Y-97501101D01*
X116364777Y-97501102D01*
X116433065Y-97544010D01*
X116504733Y-97589042D01*
X116635950Y-97634957D01*
X116660748Y-97643634D01*
X116825000Y-97662141D01*
X116825002Y-97662140D01*
X116839108Y-97663730D01*
X116838869Y-97665845D01*
X116889004Y-97674363D01*
X116941023Y-97720849D01*
X116960336Y-97787885D01*
X116941024Y-97854921D01*
X116910038Y-97904234D01*
X116855447Y-98060245D01*
X116836940Y-98224500D01*
X116855447Y-98388754D01*
X116910038Y-98544766D01*
X116997980Y-98684725D01*
X117114856Y-98801601D01*
X117254811Y-98889541D01*
X117333826Y-98917189D01*
X117381307Y-98947024D01*
X117435687Y-99001404D01*
X117466425Y-99051563D01*
X117471041Y-99110210D01*
X117448528Y-99164560D01*
X117403795Y-99202766D01*
X117346592Y-99216499D01*
X112886014Y-99216499D01*
X112837795Y-99206908D01*
X112796921Y-99179596D01*
X112740223Y-99122898D01*
X112626694Y-99051563D01*
X112600266Y-99034957D01*
X112444254Y-98980366D01*
X112280000Y-98961859D01*
X112115745Y-98980366D01*
X111959733Y-99034957D01*
X111819774Y-99122899D01*
X111702899Y-99239774D01*
X111614957Y-99379733D01*
X111560366Y-99535745D01*
X111543652Y-99684088D01*
X111541859Y-99700000D01*
X111551462Y-99785225D01*
X111560366Y-99864252D01*
X111610800Y-100008386D01*
X111617870Y-100050000D01*
X111610800Y-100091614D01*
X111560366Y-100235747D01*
X111541859Y-100399999D01*
X103298378Y-100399999D01*
X103319634Y-100339252D01*
X103338141Y-100175000D01*
X103319634Y-100010748D01*
X103289629Y-99925000D01*
X103265042Y-99854733D01*
X103192121Y-99738680D01*
X103177102Y-99714777D01*
X103177101Y-99714776D01*
X103177100Y-99714774D01*
X103060225Y-99597899D01*
X102920266Y-99509957D01*
X102764254Y-99455366D01*
X102600000Y-99436859D01*
X102435745Y-99455366D01*
X102279733Y-99509957D01*
X102139774Y-99597899D01*
X102022899Y-99714774D01*
X101934957Y-99854733D01*
X101880366Y-100010745D01*
X101861859Y-100175000D01*
X101880366Y-100339254D01*
X101934956Y-100495263D01*
X101934957Y-100495265D01*
X101934958Y-100495267D01*
X102022188Y-100634093D01*
X102041500Y-100701128D01*
X102041500Y-100938298D01*
X102041427Y-100942598D01*
X102040413Y-100972294D01*
X102022143Y-101033461D01*
X101976240Y-101077823D01*
X101914486Y-101093994D01*
X100268680Y-101093994D01*
X100209804Y-101079393D01*
X100164574Y-101038973D01*
X100143472Y-100982102D01*
X100142909Y-100977102D01*
X100132971Y-100888901D01*
X100131671Y-100885185D01*
X100086576Y-100756310D01*
X100079505Y-100714694D01*
X100086576Y-100673079D01*
X100089592Y-100664460D01*
X100123355Y-100567974D01*
X100141862Y-100403722D01*
X100123355Y-100239470D01*
X100068763Y-100083455D01*
X99980823Y-99943499D01*
X99980822Y-99943498D01*
X99980821Y-99943496D01*
X99863946Y-99826621D01*
X99723987Y-99738679D01*
X99567975Y-99684088D01*
X99403721Y-99665581D01*
X99239466Y-99684088D01*
X99158232Y-99712514D01*
X99088579Y-99716426D01*
X99027521Y-99682680D01*
X98993776Y-99621622D01*
X98997688Y-99551970D01*
X99012084Y-99510828D01*
X99019634Y-99489252D01*
X99038141Y-99325000D01*
X99019634Y-99160748D01*
X98965042Y-99004733D01*
X98918969Y-98931408D01*
X98899657Y-98864375D01*
X98918969Y-98797341D01*
X98965042Y-98724017D01*
X99019634Y-98568002D01*
X99038141Y-98403750D01*
X99019634Y-98239498D01*
X98965042Y-98083483D01*
X98877102Y-97943527D01*
X98877101Y-97943526D01*
X98877100Y-97943524D01*
X98760225Y-97826649D01*
X98620266Y-97738707D01*
X98464254Y-97684116D01*
X98300000Y-97665609D01*
X98135745Y-97684116D01*
X97979733Y-97738707D01*
X97839774Y-97826649D01*
X97722899Y-97943524D01*
X97634957Y-98083483D01*
X97580366Y-98239495D01*
X97566124Y-98365897D01*
X97561859Y-98403750D01*
X97568028Y-98458500D01*
X97580366Y-98568004D01*
X97634956Y-98724013D01*
X97634957Y-98724015D01*
X97634958Y-98724017D01*
X97681030Y-98797341D01*
X97700342Y-98864375D01*
X97681030Y-98931408D01*
X97650269Y-98980366D01*
X97634956Y-99004736D01*
X97580366Y-99160745D01*
X97561859Y-99325000D01*
X97580366Y-99489254D01*
X97634957Y-99645266D01*
X97722899Y-99785225D01*
X97839774Y-99902100D01*
X97839776Y-99902101D01*
X97839777Y-99902102D01*
X97979733Y-99990042D01*
X98135748Y-100044634D01*
X98300000Y-100063141D01*
X98464252Y-100044634D01*
X98545492Y-100016206D01*
X98615139Y-100012295D01*
X98676197Y-100046039D01*
X98709944Y-100107097D01*
X98706033Y-100176750D01*
X98684087Y-100239469D01*
X98665580Y-100403721D01*
X98684087Y-100567976D01*
X98730481Y-100700562D01*
X98737552Y-100742177D01*
X98730482Y-100783791D01*
X98693703Y-100888900D01*
X98685598Y-100960833D01*
X98675196Y-101053153D01*
X98693703Y-101217405D01*
X98722604Y-101300000D01*
X98728019Y-101315474D01*
X98735089Y-101357089D01*
X98728019Y-101398703D01*
X98679193Y-101538241D01*
X98660686Y-101702494D01*
X98679193Y-101866748D01*
X98721380Y-101987311D01*
X98728451Y-102028926D01*
X98721380Y-102070541D01*
X98680370Y-102187740D01*
X98661863Y-102351995D01*
X98667429Y-102401393D01*
X98655743Y-102470170D01*
X98609257Y-102522187D01*
X98542221Y-102541500D01*
X98183529Y-102541500D01*
X98135311Y-102531909D01*
X98094434Y-102504595D01*
X95862752Y-100272914D01*
X95838325Y-100238488D01*
X95826640Y-100197929D01*
X95819634Y-100135748D01*
X95765042Y-99979733D01*
X95765039Y-99979728D01*
X95760451Y-99966616D01*
X95753380Y-99925000D01*
X95760451Y-99883384D01*
X95765039Y-99870271D01*
X95765042Y-99870267D01*
X95819634Y-99714252D01*
X95838141Y-99550000D01*
X95819634Y-99385748D01*
X95768557Y-99239777D01*
X95760353Y-99216332D01*
X95760563Y-99216258D01*
X95747054Y-99177650D01*
X95753333Y-99121929D01*
X95778310Y-99050548D01*
X95811391Y-98956009D01*
X95829898Y-98791757D01*
X95811391Y-98627505D01*
X95756799Y-98471490D01*
X95756797Y-98471487D01*
X95754670Y-98465408D01*
X95748393Y-98409669D01*
X95758748Y-98380091D01*
X95756480Y-98379298D01*
X95815760Y-98209884D01*
X95815761Y-98209882D01*
X95834268Y-98045630D01*
X95815761Y-97881378D01*
X95761169Y-97725363D01*
X95751439Y-97709878D01*
X95732919Y-97656953D01*
X95739197Y-97601234D01*
X95769634Y-97514252D01*
X95788141Y-97350000D01*
X95781221Y-97288584D01*
X95792907Y-97219808D01*
X95839393Y-97167791D01*
X95906429Y-97148478D01*
X99069139Y-97148478D01*
X99128015Y-97163079D01*
X99173245Y-97203500D01*
X99194346Y-97260367D01*
X99202070Y-97328920D01*
X99204866Y-97353735D01*
X99246465Y-97472617D01*
X99253536Y-97514232D01*
X99246465Y-97555847D01*
X99204866Y-97674729D01*
X99186359Y-97838983D01*
X99204866Y-98003238D01*
X99259457Y-98159250D01*
X99347399Y-98299209D01*
X99464274Y-98416084D01*
X99464276Y-98416085D01*
X99464277Y-98416086D01*
X99604233Y-98504026D01*
X99760248Y-98558618D01*
X99924500Y-98577125D01*
X100088752Y-98558618D01*
X100244767Y-98504026D01*
X100384723Y-98416086D01*
X100501602Y-98299207D01*
X100589542Y-98159251D01*
X100644134Y-98003236D01*
X100662641Y-97838984D01*
X100644134Y-97674732D01*
X100602533Y-97555844D01*
X100595463Y-97514232D01*
X100602533Y-97472621D01*
X100644134Y-97353733D01*
X100644881Y-97347099D01*
X102356859Y-97347099D01*
X102375366Y-97511354D01*
X102429957Y-97667366D01*
X102517899Y-97807325D01*
X102634774Y-97924200D01*
X102774733Y-98012142D01*
X102912203Y-98060245D01*
X102930748Y-98066734D01*
X103095000Y-98085241D01*
X103259252Y-98066734D01*
X103415267Y-98012142D01*
X103555223Y-97924202D01*
X103598050Y-97881375D01*
X103640905Y-97838521D01*
X103697389Y-97805909D01*
X103762611Y-97805909D01*
X103819095Y-97838521D01*
X103904774Y-97924200D01*
X104044733Y-98012142D01*
X104182203Y-98060245D01*
X104200748Y-98066734D01*
X104365000Y-98085241D01*
X104529252Y-98066734D01*
X104685267Y-98012142D01*
X104825223Y-97924202D01*
X104942102Y-97807323D01*
X105030042Y-97667367D01*
X105084634Y-97511352D01*
X105103141Y-97347100D01*
X105084634Y-97182848D01*
X105030042Y-97026833D01*
X104942102Y-96886877D01*
X104942101Y-96886876D01*
X104942100Y-96886874D01*
X104825225Y-96769999D01*
X104685266Y-96682057D01*
X104529254Y-96627466D01*
X104365000Y-96608959D01*
X104200745Y-96627466D01*
X104044733Y-96682057D01*
X103904774Y-96769999D01*
X103819095Y-96855679D01*
X103762611Y-96888291D01*
X103697389Y-96888291D01*
X103640905Y-96855679D01*
X103555225Y-96769999D01*
X103415266Y-96682057D01*
X103259254Y-96627466D01*
X103095000Y-96608959D01*
X102930745Y-96627466D01*
X102774733Y-96682057D01*
X102634774Y-96769999D01*
X102517899Y-96886874D01*
X102429957Y-97026833D01*
X102375366Y-97182845D01*
X102356859Y-97347099D01*
X100644881Y-97347099D01*
X100662641Y-97189481D01*
X100644134Y-97025229D01*
X100602533Y-96906341D01*
X100595463Y-96864729D01*
X100602533Y-96823118D01*
X100644134Y-96704230D01*
X100662641Y-96539978D01*
X100644134Y-96375726D01*
X100602533Y-96256838D01*
X100595463Y-96215226D01*
X100602533Y-96173615D01*
X100644134Y-96054727D01*
X100662641Y-95890475D01*
X100644134Y-95726223D01*
X100589542Y-95570208D01*
X100565888Y-95532563D01*
X100546576Y-95465528D01*
X100565887Y-95398496D01*
X100615042Y-95320267D01*
X100637161Y-95257053D01*
X100677530Y-95200158D01*
X100741982Y-95173461D01*
X100810759Y-95185147D01*
X100846213Y-95216830D01*
X100848382Y-95214662D01*
X100975297Y-95341577D01*
X100975299Y-95341578D01*
X100975300Y-95341579D01*
X101115256Y-95429519D01*
X101271271Y-95484111D01*
X101435523Y-95502618D01*
X101599775Y-95484111D01*
X101755790Y-95429519D01*
X101895746Y-95341579D01*
X102012625Y-95224700D01*
X102100565Y-95084744D01*
X102155157Y-94928729D01*
X102173664Y-94764477D01*
X102155157Y-94600225D01*
X102100565Y-94444210D01*
X102012625Y-94304254D01*
X102012624Y-94304253D01*
X102012623Y-94304251D01*
X101895747Y-94187375D01*
X101840087Y-94152402D01*
X101800436Y-94112751D01*
X101781915Y-94059822D01*
X101788193Y-94004103D01*
X101819634Y-93914252D01*
X101838141Y-93750000D01*
X101826716Y-93648605D01*
X101838402Y-93579831D01*
X101884888Y-93527813D01*
X101951924Y-93508500D01*
X101973872Y-93508500D01*
X102040906Y-93527811D01*
X102179733Y-93615042D01*
X102335748Y-93669634D01*
X102500000Y-93688141D01*
X102649887Y-93671252D01*
X102718662Y-93682938D01*
X102770680Y-93729423D01*
X102783423Y-93749703D01*
X102900297Y-93866577D01*
X102900299Y-93866578D01*
X102900300Y-93866579D01*
X103009125Y-93934958D01*
X103040256Y-93954519D01*
X103181947Y-94004099D01*
X103196271Y-94009111D01*
X103360523Y-94027618D01*
X103524775Y-94009111D01*
X103595991Y-93984190D01*
X103665641Y-93980279D01*
X103726699Y-94014025D01*
X103789774Y-94077100D01*
X103789776Y-94077101D01*
X103789777Y-94077102D01*
X103826219Y-94100000D01*
X103929733Y-94165042D01*
X104071604Y-94214685D01*
X104085748Y-94219634D01*
X104250000Y-94238141D01*
X104414252Y-94219634D01*
X104570267Y-94165042D01*
X104707965Y-94078520D01*
X104775000Y-94059208D01*
X104842034Y-94078520D01*
X104914977Y-94124353D01*
X104979733Y-94165042D01*
X105121604Y-94214685D01*
X105135748Y-94219634D01*
X105300000Y-94238141D01*
X105420874Y-94224521D01*
X105483193Y-94233319D01*
X105533485Y-94271165D01*
X105559196Y-94328615D01*
X105555588Y-94371430D01*
X105557456Y-94371641D01*
X105555866Y-94385746D01*
X105555866Y-94385748D01*
X105549279Y-94444210D01*
X105537359Y-94550000D01*
X105555866Y-94714254D01*
X105610457Y-94870266D01*
X105698399Y-95010225D01*
X105815274Y-95127100D01*
X105815276Y-95127101D01*
X105815277Y-95127102D01*
X105955233Y-95215042D01*
X106111248Y-95269634D01*
X106275500Y-95288141D01*
X106439752Y-95269634D01*
X106595767Y-95215042D01*
X106735723Y-95127102D01*
X106852602Y-95010223D01*
X106940542Y-94870267D01*
X106995134Y-94714252D01*
X107013641Y-94550000D01*
X106995134Y-94385748D01*
X106995133Y-94385745D01*
X106993544Y-94371641D01*
X106993884Y-94371602D01*
X106989576Y-94325651D01*
X107012790Y-94269609D01*
X107059500Y-94230909D01*
X107118881Y-94218520D01*
X107177169Y-94235313D01*
X107220853Y-94277394D01*
X107265359Y-94348225D01*
X107272900Y-94360226D01*
X107389774Y-94477100D01*
X107508689Y-94551819D01*
X107548340Y-94591469D01*
X107566861Y-94644397D01*
X107580366Y-94764254D01*
X107634957Y-94920266D01*
X107722899Y-95060225D01*
X107839774Y-95177100D01*
X107839776Y-95177101D01*
X107839777Y-95177102D01*
X107979733Y-95265042D01*
X108135748Y-95319634D01*
X108300000Y-95338141D01*
X108464252Y-95319634D01*
X108620267Y-95265042D01*
X108695466Y-95217791D01*
X108762500Y-95198479D01*
X108829533Y-95217791D01*
X108904733Y-95265042D01*
X109060748Y-95319634D01*
X109225000Y-95338141D01*
X109389252Y-95319634D01*
X109545267Y-95265042D01*
X109604517Y-95227812D01*
X109671552Y-95208500D01*
X113106864Y-95208500D01*
X113123307Y-95209577D01*
X113155000Y-95213750D01*
X113186693Y-95209577D01*
X113186703Y-95209577D01*
X113194884Y-95208500D01*
X113194885Y-95208500D01*
X113294456Y-95195391D01*
X113313851Y-95192838D01*
X113461876Y-95131524D01*
X113557072Y-95058477D01*
X113557072Y-95058476D01*
X113573629Y-95045772D01*
X113573632Y-95045769D01*
X113574546Y-95045067D01*
X113588987Y-95033987D01*
X113608457Y-95008611D01*
X113619309Y-94996238D01*
X114558017Y-94057530D01*
X114605495Y-94027698D01*
X114614250Y-94024634D01*
X114614252Y-94024634D01*
X114770267Y-93970042D01*
X114910223Y-93882102D01*
X115027102Y-93765223D01*
X115115042Y-93625267D01*
X115169634Y-93469252D01*
X115188141Y-93305000D01*
X115169634Y-93140748D01*
X115164298Y-93125500D01*
X115115042Y-92984733D01*
X115068224Y-92910223D01*
X115027102Y-92844777D01*
X115027101Y-92844776D01*
X115027100Y-92844774D01*
X114910225Y-92727899D01*
X114770266Y-92639957D01*
X114614254Y-92585366D01*
X114450000Y-92566859D01*
X114285745Y-92585366D01*
X114129733Y-92639957D01*
X113989774Y-92727899D01*
X113872899Y-92844774D01*
X113784958Y-92984732D01*
X113727302Y-93149501D01*
X113697469Y-93196980D01*
X112939856Y-93954595D01*
X112898978Y-93981909D01*
X112850760Y-93991500D01*
X109671552Y-93991500D01*
X109604517Y-93972187D01*
X109566307Y-93948178D01*
X109526658Y-93908529D01*
X109508138Y-93855605D01*
X109494634Y-93735748D01*
X109440042Y-93579733D01*
X109352102Y-93439777D01*
X109352101Y-93439776D01*
X109352100Y-93439774D01*
X109235225Y-93322899D01*
X109095266Y-93234957D01*
X108939254Y-93180366D01*
X108775000Y-93161859D01*
X108610745Y-93180366D01*
X108454734Y-93234957D01*
X108379535Y-93282208D01*
X108312500Y-93301520D01*
X108245465Y-93282208D01*
X108170265Y-93234957D01*
X108014254Y-93180366D01*
X107850000Y-93161859D01*
X107685745Y-93180366D01*
X107529733Y-93234957D01*
X107389774Y-93322899D01*
X107272899Y-93439774D01*
X107184957Y-93579733D01*
X107130366Y-93735745D01*
X107116862Y-93855600D01*
X107111859Y-93900000D01*
X107126247Y-94027698D01*
X107131956Y-94078359D01*
X107131616Y-94078397D01*
X107135923Y-94124353D01*
X107112707Y-94180393D01*
X107065996Y-94219091D01*
X107006616Y-94231479D01*
X106948329Y-94214685D01*
X106904646Y-94172605D01*
X106852602Y-94089777D01*
X106852600Y-94089775D01*
X106852599Y-94089773D01*
X106765882Y-94003056D01*
X106736047Y-93955575D01*
X106729770Y-93899851D01*
X106748287Y-93846930D01*
X106765042Y-93820267D01*
X106819634Y-93664252D01*
X106838141Y-93500000D01*
X106819634Y-93335748D01*
X106808874Y-93304999D01*
X106765042Y-93179733D01*
X106677102Y-93039777D01*
X106677101Y-93039776D01*
X106677100Y-93039774D01*
X106560225Y-92922899D01*
X106420266Y-92834957D01*
X106264254Y-92780366D01*
X106100000Y-92761859D01*
X105935745Y-92780366D01*
X105779734Y-92834956D01*
X105767035Y-92842936D01*
X105700000Y-92862248D01*
X105632965Y-92842936D01*
X105620265Y-92834956D01*
X105464254Y-92780366D01*
X105354750Y-92768027D01*
X105300000Y-92761859D01*
X105299999Y-92761859D01*
X105127596Y-92781284D01*
X105065269Y-92772484D01*
X105014975Y-92734632D01*
X104989268Y-92677176D01*
X104993385Y-92628397D01*
X104993044Y-92628359D01*
X104994416Y-92616180D01*
X104994561Y-92614459D01*
X104994634Y-92614252D01*
X105001874Y-92550000D01*
X124294534Y-92550000D01*
X124314312Y-92700235D01*
X124372301Y-92840232D01*
X124372302Y-92840233D01*
X124464549Y-92960451D01*
X124584767Y-93052698D01*
X124724764Y-93110687D01*
X124837280Y-93125500D01*
X124912720Y-93125500D01*
X125025236Y-93110687D01*
X125165233Y-93052698D01*
X125285451Y-92960451D01*
X125377698Y-92840233D01*
X125435687Y-92700236D01*
X125455466Y-92550000D01*
X125435687Y-92399764D01*
X125377698Y-92259767D01*
X125285451Y-92139549D01*
X125165233Y-92047302D01*
X125165232Y-92047301D01*
X125025235Y-91989312D01*
X124912720Y-91974500D01*
X124837280Y-91974500D01*
X124724764Y-91989312D01*
X124584767Y-92047301D01*
X124464549Y-92139549D01*
X124372301Y-92259767D01*
X124314312Y-92399764D01*
X124294534Y-92550000D01*
X105001874Y-92550000D01*
X105013141Y-92450000D01*
X104994634Y-92285748D01*
X104980927Y-92246577D01*
X104940042Y-92129733D01*
X104923187Y-92102908D01*
X104852102Y-91989777D01*
X104852101Y-91989776D01*
X104852100Y-91989774D01*
X104735225Y-91872899D01*
X104595266Y-91784957D01*
X104439254Y-91730366D01*
X104275000Y-91711859D01*
X104110747Y-91730366D01*
X103954114Y-91785174D01*
X103912500Y-91792244D01*
X103870886Y-91785174D01*
X103714252Y-91730366D01*
X103550000Y-91711859D01*
X103385745Y-91730366D01*
X103229733Y-91784957D01*
X103089774Y-91872899D01*
X102972899Y-91989774D01*
X102884959Y-92129731D01*
X102871125Y-92169265D01*
X102834383Y-92223153D01*
X102775620Y-92251451D01*
X102710581Y-92246577D01*
X102664254Y-92230366D01*
X102500000Y-92211859D01*
X102335745Y-92230366D01*
X102179736Y-92284956D01*
X102179732Y-92284958D01*
X102179733Y-92284958D01*
X102040906Y-92372188D01*
X101973872Y-92391500D01*
X97458454Y-92391500D01*
X97454153Y-92391427D01*
X97450120Y-92391289D01*
X97389099Y-92389205D01*
X97389097Y-92389205D01*
X97348612Y-92399070D01*
X97335943Y-92401478D01*
X97294651Y-92407154D01*
X97277970Y-92414399D01*
X97257616Y-92421244D01*
X97239937Y-92425553D01*
X97203612Y-92445977D01*
X97192062Y-92451714D01*
X97153835Y-92468319D01*
X97139725Y-92479799D01*
X97121966Y-92491886D01*
X97106112Y-92500800D01*
X97076641Y-92530270D01*
X97067069Y-92538908D01*
X97034740Y-92565210D01*
X97024248Y-92580074D01*
X97010408Y-92596503D01*
X87163362Y-102443550D01*
X87160271Y-102446539D01*
X87112689Y-102490978D01*
X87091039Y-102526578D01*
X87083785Y-102537236D01*
X87058601Y-102570447D01*
X87051926Y-102587375D01*
X87042368Y-102606617D01*
X87032920Y-102622152D01*
X87021677Y-102662280D01*
X87017566Y-102674504D01*
X87002277Y-102713275D01*
X87000417Y-102731371D01*
X86996407Y-102752472D01*
X86991500Y-102769988D01*
X86991500Y-102811656D01*
X86990839Y-102824543D01*
X86986576Y-102865997D01*
X86989668Y-102883925D01*
X86991500Y-102905335D01*
X86991500Y-103523076D01*
X86972187Y-103590112D01*
X86920169Y-103636598D01*
X86851394Y-103648283D01*
X86750000Y-103636859D01*
X86749999Y-103636859D01*
X86585745Y-103655366D01*
X86429733Y-103709957D01*
X86289774Y-103797899D01*
X86172899Y-103914774D01*
X86084957Y-104054733D01*
X86030366Y-104210745D01*
X86012981Y-104365041D01*
X86011859Y-104375000D01*
X84503499Y-104375000D01*
X84503499Y-104045562D01*
X84503085Y-104041010D01*
X84497334Y-103977708D01*
X84486030Y-103941432D01*
X84448676Y-103821557D01*
X84429462Y-103789774D01*
X84364061Y-103681587D01*
X84248412Y-103565938D01*
X84108443Y-103481324D01*
X83952292Y-103432665D01*
X83890604Y-103427060D01*
X83884438Y-103426500D01*
X81355560Y-103426500D01*
X81287708Y-103432665D01*
X81131555Y-103481324D01*
X80991587Y-103565938D01*
X80875938Y-103681587D01*
X80791324Y-103821556D01*
X80742665Y-103977707D01*
X80736500Y-104045562D01*
X80736500Y-104685052D01*
X80721618Y-104744455D01*
X80680488Y-104789826D01*
X80622826Y-104810448D01*
X80562252Y-104801448D01*
X80513075Y-104764954D01*
X80486911Y-104709586D01*
X80481065Y-104680135D01*
X80480780Y-104678642D01*
X80396111Y-104219180D01*
X80395602Y-104216203D01*
X80314180Y-103701060D01*
X80313909Y-103699253D01*
X80247821Y-103236107D01*
X80247435Y-103233151D01*
X80186327Y-102715788D01*
X80186130Y-102714003D01*
X80138778Y-102247884D01*
X80138524Y-102245054D01*
X80138524Y-102245053D01*
X80119151Y-101998396D01*
X80129178Y-101938376D01*
X80166169Y-101890052D01*
X80221495Y-101864702D01*
X80282249Y-101868240D01*
X80407707Y-101907334D01*
X80475561Y-101913500D01*
X83004438Y-101913499D01*
X83004439Y-101913499D01*
X83032009Y-101910994D01*
X83072293Y-101907334D01*
X83228443Y-101858676D01*
X83368411Y-101774062D01*
X83484062Y-101658411D01*
X83568676Y-101518443D01*
X83617334Y-101362293D01*
X83623500Y-101294439D01*
X83623499Y-98765562D01*
X83617334Y-98697707D01*
X83568676Y-98541557D01*
X83485368Y-98403750D01*
X83484061Y-98401587D01*
X83368412Y-98285938D01*
X83228443Y-98201324D01*
X83072292Y-98152665D01*
X83010604Y-98147060D01*
X83004438Y-98146500D01*
X80475560Y-98146500D01*
X80407707Y-98152665D01*
X80277418Y-98193265D01*
X80216664Y-98196803D01*
X80161338Y-98171453D01*
X80124347Y-98123129D01*
X80114320Y-98063109D01*
X80138528Y-97754888D01*
X80138777Y-97752131D01*
X80186133Y-97285970D01*
X80186324Y-97284237D01*
X80247437Y-96766827D01*
X80247821Y-96763891D01*
X80270532Y-96604733D01*
X80309954Y-96328459D01*
X80332627Y-96272372D01*
X80378830Y-96233318D01*
X80437910Y-96220300D01*
X80496248Y-96236320D01*
X80540395Y-96277684D01*
X80560173Y-96334857D01*
X80562665Y-96362291D01*
X80611324Y-96518444D01*
X80695938Y-96658412D01*
X80811587Y-96774061D01*
X80811589Y-96774062D01*
X80951557Y-96858676D01*
X81107707Y-96907334D01*
X81175561Y-96913500D01*
X83704438Y-96913499D01*
X83704439Y-96913499D01*
X83727056Y-96911443D01*
X83772293Y-96907334D01*
X83928443Y-96858676D01*
X84068411Y-96774062D01*
X84184062Y-96658411D01*
X84268676Y-96518443D01*
X84317334Y-96362293D01*
X84323500Y-96294439D01*
X84323499Y-93765562D01*
X84323468Y-93765225D01*
X84317334Y-93697708D01*
X84308586Y-93669633D01*
X84268676Y-93541557D01*
X84260367Y-93527813D01*
X84184061Y-93401587D01*
X84068412Y-93285938D01*
X83928443Y-93201324D01*
X83772292Y-93152665D01*
X83710603Y-93147060D01*
X83704439Y-93146500D01*
X83704438Y-93146500D01*
X81169850Y-93146501D01*
X81169850Y-93145573D01*
X81116103Y-93137369D01*
X81067507Y-93101536D01*
X81041162Y-93047209D01*
X81043115Y-92986864D01*
X81072957Y-92880829D01*
X81073947Y-92877500D01*
X81212453Y-92435583D01*
X81212752Y-92434645D01*
X81375164Y-91933704D01*
X81376368Y-91930172D01*
X81531844Y-91496475D01*
X81531931Y-91496234D01*
X81640976Y-91199999D01*
X87911859Y-91199999D01*
X87930366Y-91364254D01*
X87984957Y-91520266D01*
X88072899Y-91660225D01*
X88189774Y-91777100D01*
X88189776Y-91777101D01*
X88189777Y-91777102D01*
X88284313Y-91836503D01*
X88308689Y-91851819D01*
X88348340Y-91891469D01*
X88366861Y-91944397D01*
X88380366Y-92064254D01*
X88434957Y-92220266D01*
X88522899Y-92360225D01*
X88639774Y-92477100D01*
X88639776Y-92477101D01*
X88639777Y-92477102D01*
X88677492Y-92500800D01*
X88779733Y-92565042D01*
X88920941Y-92614453D01*
X88935748Y-92619634D01*
X89100000Y-92638141D01*
X89264252Y-92619634D01*
X89420267Y-92565042D01*
X89495466Y-92517791D01*
X89562500Y-92498479D01*
X89629533Y-92517791D01*
X89680794Y-92550000D01*
X89704733Y-92565042D01*
X89845941Y-92614453D01*
X89860748Y-92619634D01*
X90025000Y-92638141D01*
X90189252Y-92619634D01*
X90345267Y-92565042D01*
X90420466Y-92517791D01*
X90487500Y-92498479D01*
X90554533Y-92517791D01*
X90605794Y-92550000D01*
X90629733Y-92565042D01*
X90770941Y-92614453D01*
X90785748Y-92619634D01*
X90950000Y-92638141D01*
X91114252Y-92619634D01*
X91270267Y-92565042D01*
X91410223Y-92477102D01*
X91527102Y-92360223D01*
X91615042Y-92220267D01*
X91669634Y-92064252D01*
X91688141Y-91900000D01*
X91669634Y-91735748D01*
X91615042Y-91579733D01*
X91527102Y-91439777D01*
X91527101Y-91439776D01*
X91527100Y-91439774D01*
X91410227Y-91322901D01*
X91410224Y-91322899D01*
X91410223Y-91322898D01*
X91291305Y-91248177D01*
X91251658Y-91208529D01*
X91233138Y-91155605D01*
X91226873Y-91100000D01*
X107496844Y-91100000D01*
X107515436Y-91324368D01*
X107515436Y-91324371D01*
X107515437Y-91324372D01*
X107570702Y-91542611D01*
X107661139Y-91748790D01*
X107679635Y-91777100D01*
X107784278Y-91937268D01*
X107896525Y-92059200D01*
X107936762Y-92102908D01*
X108114421Y-92241187D01*
X108114424Y-92241189D01*
X108312426Y-92348342D01*
X108525365Y-92421444D01*
X108747431Y-92458500D01*
X108972566Y-92458500D01*
X108972569Y-92458500D01*
X109194635Y-92421444D01*
X109407574Y-92348342D01*
X109605576Y-92241189D01*
X109783240Y-92102906D01*
X109844246Y-92036635D01*
X109897716Y-92002238D01*
X109961177Y-91998327D01*
X110018469Y-92025903D01*
X110055000Y-92077942D01*
X110099109Y-92196203D01*
X110186738Y-92313261D01*
X110303794Y-92400888D01*
X110303795Y-92400888D01*
X110303796Y-92400889D01*
X110440799Y-92451989D01*
X110501362Y-92458500D01*
X112298638Y-92458500D01*
X112359201Y-92451989D01*
X112496204Y-92400889D01*
X112613261Y-92313261D01*
X112700889Y-92196204D01*
X112751989Y-92059201D01*
X112758500Y-91998638D01*
X112758500Y-90201362D01*
X112751989Y-90140799D01*
X112700889Y-90003796D01*
X112656742Y-89944822D01*
X112633084Y-89888520D01*
X112638682Y-89827705D01*
X112669634Y-89739252D01*
X112688141Y-89575000D01*
X112669634Y-89410748D01*
X112665535Y-89399035D01*
X114202494Y-89399035D01*
X114238596Y-89635591D01*
X114257505Y-89694633D01*
X114311580Y-89863486D01*
X114418780Y-90075349D01*
X114419617Y-90077003D01*
X114509926Y-90201672D01*
X114560001Y-90270799D01*
X114729200Y-90439998D01*
X114729203Y-90440000D01*
X114729205Y-90440002D01*
X114922997Y-90580383D01*
X114922999Y-90580384D01*
X115136513Y-90688419D01*
X115136515Y-90688419D01*
X115136516Y-90688420D01*
X115364409Y-90761404D01*
X115600965Y-90797506D01*
X115840254Y-90795821D01*
X116076279Y-90756391D01*
X116095311Y-90749999D01*
X124294534Y-90749999D01*
X124314312Y-90900235D01*
X124372301Y-91040232D01*
X124372302Y-91040233D01*
X124464549Y-91160451D01*
X124584767Y-91252698D01*
X124724764Y-91310687D01*
X124837280Y-91325500D01*
X124912720Y-91325500D01*
X125025236Y-91310687D01*
X125165233Y-91252698D01*
X125285451Y-91160451D01*
X125377698Y-91040233D01*
X125435687Y-90900236D01*
X125455466Y-90750000D01*
X125435687Y-90599764D01*
X125377698Y-90459767D01*
X125285451Y-90339549D01*
X125165233Y-90247302D01*
X125165232Y-90247301D01*
X125025235Y-90189312D01*
X124912720Y-90174500D01*
X124837280Y-90174500D01*
X124724764Y-90189312D01*
X124584767Y-90247301D01*
X124464549Y-90339549D01*
X124372301Y-90459767D01*
X124314312Y-90599764D01*
X124294534Y-90749999D01*
X116095311Y-90749999D01*
X116303122Y-90680205D01*
X116515098Y-90569172D01*
X116706893Y-90426075D01*
X116789853Y-90340862D01*
X116790878Y-90339824D01*
X119464589Y-87657333D01*
X119467610Y-87654403D01*
X119550305Y-87576960D01*
X119692665Y-87395354D01*
X119718120Y-87350000D01*
X120236859Y-87350000D01*
X120255366Y-87514254D01*
X120309957Y-87670266D01*
X120397899Y-87810225D01*
X120514774Y-87927100D01*
X120514776Y-87927101D01*
X120514777Y-87927102D01*
X120654733Y-88015042D01*
X120810748Y-88069634D01*
X120975000Y-88088141D01*
X121139252Y-88069634D01*
X121295267Y-88015042D01*
X121435223Y-87927102D01*
X121552102Y-87810223D01*
X121640042Y-87670267D01*
X121694634Y-87514252D01*
X121713141Y-87350000D01*
X121694634Y-87185748D01*
X121640042Y-87029733D01*
X121552102Y-86889777D01*
X121552101Y-86889776D01*
X121552100Y-86889774D01*
X121435225Y-86772899D01*
X121295266Y-86684957D01*
X121139254Y-86630366D01*
X120975000Y-86611859D01*
X120810745Y-86630366D01*
X120654733Y-86684957D01*
X120514774Y-86772899D01*
X120397899Y-86889774D01*
X120309957Y-87029733D01*
X120255366Y-87185745D01*
X120236859Y-87350000D01*
X119718120Y-87350000D01*
X119805602Y-87194127D01*
X119886463Y-86978005D01*
X119933351Y-86752066D01*
X119945162Y-86521615D01*
X119945161Y-86521613D01*
X119945162Y-86521610D01*
X119921620Y-86292068D01*
X119863277Y-86068810D01*
X119818721Y-85966020D01*
X119771504Y-85857091D01*
X119736486Y-85801537D01*
X119717078Y-85734306D01*
X119736534Y-85667087D01*
X119788854Y-85620615D01*
X119857899Y-85609225D01*
X119922372Y-85636430D01*
X120067497Y-85753950D01*
X120393451Y-85965627D01*
X120739755Y-86142078D01*
X121102586Y-86281355D01*
X121478004Y-86381948D01*
X121861882Y-86442748D01*
X122250000Y-86463089D01*
X122638117Y-86442748D01*
X123021995Y-86381948D01*
X123397413Y-86281355D01*
X123760244Y-86142078D01*
X124106548Y-85965627D01*
X124432497Y-85753953D01*
X124687912Y-85547121D01*
X122250000Y-83109210D01*
X119452877Y-80312086D01*
X119246047Y-80567502D01*
X119034371Y-80893455D01*
X118857921Y-81239755D01*
X118718644Y-81602586D01*
X118618048Y-81978013D01*
X118611797Y-82017482D01*
X118588278Y-82073198D01*
X118541507Y-82111537D01*
X118482260Y-82123667D01*
X118424185Y-82106795D01*
X118380663Y-82064807D01*
X118342791Y-82004533D01*
X118323479Y-81937500D01*
X118342791Y-81870466D01*
X118390042Y-81795267D01*
X118444634Y-81639252D01*
X118463141Y-81475000D01*
X118444634Y-81310748D01*
X118419792Y-81239755D01*
X118390042Y-81154733D01*
X118355761Y-81100175D01*
X118342791Y-81079533D01*
X118323479Y-81012500D01*
X118342791Y-80945466D01*
X118390042Y-80870267D01*
X118444634Y-80714252D01*
X118463141Y-80550000D01*
X118444634Y-80385748D01*
X118390042Y-80229733D01*
X118302102Y-80089777D01*
X118302101Y-80089776D01*
X118302100Y-80089774D01*
X118185225Y-79972899D01*
X118045266Y-79884957D01*
X117889254Y-79830366D01*
X117725000Y-79811859D01*
X117560745Y-79830366D01*
X117404733Y-79884957D01*
X117264774Y-79972899D01*
X117147898Y-80089775D01*
X117073179Y-80208690D01*
X117033528Y-80248341D01*
X116980601Y-80266861D01*
X116929012Y-80272674D01*
X116860745Y-80280366D01*
X116704733Y-80334957D01*
X116564774Y-80422899D01*
X116447899Y-80539774D01*
X116359957Y-80679733D01*
X116305366Y-80835745D01*
X116299607Y-80886859D01*
X116286859Y-81000000D01*
X116288524Y-81014777D01*
X116305366Y-81164254D01*
X116354522Y-81304733D01*
X116359958Y-81320267D01*
X116407208Y-81395465D01*
X116426520Y-81462500D01*
X116407208Y-81529535D01*
X116359957Y-81604734D01*
X116305366Y-81760745D01*
X116296520Y-81839254D01*
X116286859Y-81925000D01*
X116289143Y-81945267D01*
X116305366Y-82089254D01*
X116344853Y-82202100D01*
X116359958Y-82245267D01*
X116364253Y-82252102D01*
X116407208Y-82320465D01*
X116426520Y-82387500D01*
X116407208Y-82454535D01*
X116359957Y-82529734D01*
X116305366Y-82685745D01*
X116286859Y-82849999D01*
X116305366Y-83014254D01*
X116359957Y-83170266D01*
X116447899Y-83310225D01*
X116564774Y-83427100D01*
X116564776Y-83427101D01*
X116564777Y-83427102D01*
X116704733Y-83515042D01*
X116860748Y-83569634D01*
X117025000Y-83588141D01*
X117189252Y-83569634D01*
X117345267Y-83515042D01*
X117485223Y-83427102D01*
X117602102Y-83310223D01*
X117676822Y-83191305D01*
X117716471Y-83151658D01*
X117769394Y-83133138D01*
X117889252Y-83119634D01*
X118045267Y-83065042D01*
X118185223Y-82977102D01*
X118302102Y-82860223D01*
X118312475Y-82843713D01*
X118358293Y-82800427D01*
X118419348Y-82784749D01*
X118480356Y-82800607D01*
X118526049Y-82844032D01*
X118544989Y-82904154D01*
X118557251Y-83138117D01*
X118618051Y-83521995D01*
X118718644Y-83897413D01*
X118857921Y-84260244D01*
X119034372Y-84606548D01*
X119246049Y-84932502D01*
X119364590Y-85078887D01*
X119391752Y-85143003D01*
X119380713Y-85211754D01*
X119334845Y-85264144D01*
X119268155Y-85284172D01*
X119201011Y-85265721D01*
X119123819Y-85218591D01*
X118910817Y-85129854D01*
X118869370Y-85119653D01*
X118686746Y-85074705D01*
X118686744Y-85074704D01*
X118686741Y-85074704D01*
X118456887Y-85054443D01*
X118226623Y-85069545D01*
X118001379Y-85119653D01*
X117786436Y-85203593D01*
X117786434Y-85203593D01*
X117786434Y-85203594D01*
X117763236Y-85217053D01*
X117586839Y-85319394D01*
X117407285Y-85464333D01*
X117331708Y-85547378D01*
X117327449Y-85551833D01*
X114660161Y-88209134D01*
X114659129Y-88210151D01*
X114573923Y-88293107D01*
X114430828Y-88484901D01*
X114319796Y-88696874D01*
X114243609Y-88923721D01*
X114227626Y-89019397D01*
X114204179Y-89159746D01*
X114202494Y-89399035D01*
X112665535Y-89399035D01*
X112615042Y-89254733D01*
X112527102Y-89114777D01*
X112527101Y-89114776D01*
X112527100Y-89114774D01*
X112410225Y-88997899D01*
X112270266Y-88909957D01*
X112114254Y-88855366D01*
X112066185Y-88849950D01*
X111950000Y-88836859D01*
X111949997Y-88836859D01*
X111935892Y-88835270D01*
X111936063Y-88833748D01*
X111901106Y-88829808D01*
X111853626Y-88799970D01*
X111836183Y-88772206D01*
X111834429Y-88773309D01*
X111738934Y-88621330D01*
X111622058Y-88504454D01*
X111482099Y-88416512D01*
X111326087Y-88361921D01*
X111161833Y-88343414D01*
X110997578Y-88361921D01*
X110841566Y-88416512D01*
X110701607Y-88504454D01*
X110584732Y-88621329D01*
X110496790Y-88761288D01*
X110442199Y-88917300D01*
X110423692Y-89081555D01*
X110442199Y-89245809D01*
X110496789Y-89401818D01*
X110496790Y-89401820D01*
X110496791Y-89401822D01*
X110584731Y-89541778D01*
X110584732Y-89541779D01*
X110589715Y-89549709D01*
X110608838Y-89609841D01*
X110596409Y-89671704D01*
X110555546Y-89719784D01*
X110496496Y-89742023D01*
X110465658Y-89745338D01*
X110440799Y-89748011D01*
X110395131Y-89765044D01*
X110303794Y-89799111D01*
X110186738Y-89886738D01*
X110099109Y-90003796D01*
X110055000Y-90122057D01*
X110018469Y-90174096D01*
X109961178Y-90201672D01*
X109897716Y-90197762D01*
X109844245Y-90163362D01*
X109783240Y-90097094D01*
X109783239Y-90097093D01*
X109783237Y-90097091D01*
X109605578Y-89958812D01*
X109407573Y-89851657D01*
X109254510Y-89799111D01*
X109194635Y-89778556D01*
X108972569Y-89741500D01*
X108747431Y-89741500D01*
X108525365Y-89778556D01*
X108525362Y-89778556D01*
X108525362Y-89778557D01*
X108312426Y-89851657D01*
X108114421Y-89958812D01*
X107936762Y-90097091D01*
X107784278Y-90262731D01*
X107661139Y-90451209D01*
X107570702Y-90657388D01*
X107535220Y-90797505D01*
X107515436Y-90875632D01*
X107496844Y-91100000D01*
X91226873Y-91100000D01*
X91219634Y-91035748D01*
X91165042Y-90879733D01*
X91077102Y-90739777D01*
X91077101Y-90739776D01*
X91077100Y-90739774D01*
X90960225Y-90622899D01*
X90820266Y-90534957D01*
X90664254Y-90480366D01*
X90500000Y-90461859D01*
X90335745Y-90480366D01*
X90179734Y-90534957D01*
X90104535Y-90582208D01*
X90037500Y-90601520D01*
X89970465Y-90582208D01*
X89953974Y-90571846D01*
X89895267Y-90534958D01*
X89895266Y-90534957D01*
X89895265Y-90534957D01*
X89739254Y-90480366D01*
X89575000Y-90461859D01*
X89410745Y-90480366D01*
X89254734Y-90534957D01*
X89179535Y-90582208D01*
X89112500Y-90601520D01*
X89045465Y-90582208D01*
X89028974Y-90571846D01*
X88970267Y-90534958D01*
X88970266Y-90534957D01*
X88970265Y-90534957D01*
X88814254Y-90480366D01*
X88650000Y-90461859D01*
X88485745Y-90480366D01*
X88329733Y-90534957D01*
X88189774Y-90622899D01*
X88072899Y-90739774D01*
X87984957Y-90879733D01*
X87930366Y-91035745D01*
X87911859Y-91199999D01*
X81640976Y-91199999D01*
X81714905Y-90999159D01*
X81716260Y-90995656D01*
X81887856Y-90571846D01*
X81887859Y-90571837D01*
X82091507Y-90079072D01*
X82093118Y-90075349D01*
X82279588Y-89663567D01*
X82504494Y-89174580D01*
X82506359Y-89170705D01*
X82705465Y-88774536D01*
X82705619Y-88774228D01*
X82953181Y-88287206D01*
X82955265Y-88283284D01*
X83162923Y-87908712D01*
X83436859Y-87418369D01*
X83439128Y-87414479D01*
X83643140Y-87079247D01*
X83643277Y-87079024D01*
X83643323Y-87079052D01*
X83643400Y-87078823D01*
X83954716Y-86569522D01*
X83957303Y-86565468D01*
X84075239Y-86388254D01*
X84493276Y-85760988D01*
X84501677Y-85750760D01*
X84500500Y-85737550D01*
X84500500Y-85547121D01*
X85312086Y-85547121D01*
X85312087Y-85547122D01*
X85567497Y-85753950D01*
X85893451Y-85965627D01*
X86239755Y-86142078D01*
X86602586Y-86281355D01*
X86978004Y-86381948D01*
X87361882Y-86442748D01*
X87750000Y-86463089D01*
X88138117Y-86442748D01*
X88521995Y-86381948D01*
X88897413Y-86281355D01*
X89260244Y-86142078D01*
X89606548Y-85965627D01*
X89932497Y-85753953D01*
X90083426Y-85631733D01*
X90147795Y-85604540D01*
X90216754Y-85615827D01*
X90269095Y-85662121D01*
X90288720Y-85729186D01*
X90269593Y-85796394D01*
X90230201Y-85859471D01*
X90139116Y-86071766D01*
X90081438Y-86295453D01*
X90062109Y-86489252D01*
X90058512Y-86525323D01*
X90070661Y-86752066D01*
X90070872Y-86756000D01*
X90098893Y-86889777D01*
X90118232Y-86982100D01*
X90199485Y-87198347D01*
X90220228Y-87235225D01*
X90285966Y-87352102D01*
X90312733Y-87399690D01*
X90402625Y-87514254D01*
X90455336Y-87581432D01*
X90538028Y-87658838D01*
X90541187Y-87661900D01*
X93229601Y-90360615D01*
X93234566Y-90367853D01*
X93262142Y-90393415D01*
X93265582Y-90396727D01*
X93276696Y-90407842D01*
X93279971Y-90409972D01*
X93348655Y-90473757D01*
X93540211Y-90603479D01*
X93540212Y-90603479D01*
X93540213Y-90603480D01*
X93749317Y-90702470D01*
X93971072Y-90768410D01*
X94200290Y-90799756D01*
X94200290Y-90799755D01*
X94200291Y-90799756D01*
X94238842Y-90799092D01*
X94431607Y-90795775D01*
X94659610Y-90756560D01*
X94878965Y-90683030D01*
X95084539Y-90576903D01*
X95179148Y-90507969D01*
X95271519Y-90440666D01*
X95318116Y-90394311D01*
X95435536Y-90277501D01*
X95572747Y-90091231D01*
X95679943Y-89886212D01*
X95754616Y-89667243D01*
X95795017Y-89439447D01*
X95800203Y-89208154D01*
X95770051Y-88978776D01*
X95705267Y-88756681D01*
X95607368Y-88547064D01*
X95478643Y-88354832D01*
X95468149Y-88343414D01*
X95416062Y-88286738D01*
X95413712Y-88283006D01*
X95405706Y-88275000D01*
X100886859Y-88275000D01*
X100905366Y-88439254D01*
X100959957Y-88595266D01*
X101047899Y-88735225D01*
X101164774Y-88852100D01*
X101164776Y-88852101D01*
X101164777Y-88852102D01*
X101278758Y-88923721D01*
X101283689Y-88926819D01*
X101323340Y-88966469D01*
X101341861Y-89019397D01*
X101355366Y-89139254D01*
X101409957Y-89295266D01*
X101497899Y-89435225D01*
X101614774Y-89552100D01*
X101614776Y-89552101D01*
X101614777Y-89552102D01*
X101754733Y-89640042D01*
X101910748Y-89694634D01*
X102075000Y-89713141D01*
X102239252Y-89694634D01*
X102395267Y-89640042D01*
X102470466Y-89592791D01*
X102537500Y-89573479D01*
X102604533Y-89592791D01*
X102679733Y-89640042D01*
X102835748Y-89694634D01*
X103000000Y-89713141D01*
X103164252Y-89694634D01*
X103320267Y-89640042D01*
X103460223Y-89552102D01*
X103577102Y-89435223D01*
X103665042Y-89295267D01*
X103719634Y-89139252D01*
X103738141Y-88975000D01*
X103719634Y-88810748D01*
X103700715Y-88756682D01*
X103665042Y-88654733D01*
X103577100Y-88514774D01*
X103460227Y-88397901D01*
X103460224Y-88397899D01*
X103460223Y-88397898D01*
X103341305Y-88323177D01*
X103301658Y-88283529D01*
X103283138Y-88230605D01*
X103269634Y-88110748D01*
X103261723Y-88088141D01*
X103215042Y-87954733D01*
X103127100Y-87814774D01*
X103010225Y-87697899D01*
X102870266Y-87609957D01*
X102714254Y-87555366D01*
X102550000Y-87536859D01*
X102385745Y-87555366D01*
X102229734Y-87609957D01*
X102154535Y-87657208D01*
X102087500Y-87676520D01*
X102020465Y-87657208D01*
X101945265Y-87609957D01*
X101789254Y-87555366D01*
X101625000Y-87536859D01*
X101460745Y-87555366D01*
X101304733Y-87609957D01*
X101164774Y-87697899D01*
X101047899Y-87814774D01*
X100959957Y-87954733D01*
X100905366Y-88110745D01*
X100886859Y-88275000D01*
X95405706Y-88275000D01*
X95402280Y-88271574D01*
X95398536Y-88267666D01*
X95373439Y-88240317D01*
X95366014Y-88235186D01*
X93910986Y-86774999D01*
X111986859Y-86774999D01*
X112005366Y-86939254D01*
X112059957Y-87095266D01*
X112147899Y-87235225D01*
X112264774Y-87352100D01*
X112264776Y-87352101D01*
X112264777Y-87352102D01*
X112404733Y-87440042D01*
X112560748Y-87494634D01*
X112725000Y-87513141D01*
X112889252Y-87494634D01*
X113045267Y-87440042D01*
X113185223Y-87352102D01*
X113302102Y-87235223D01*
X113376822Y-87116305D01*
X113416471Y-87076658D01*
X113469394Y-87058138D01*
X113589252Y-87044634D01*
X113745267Y-86990042D01*
X113885223Y-86902102D01*
X114002102Y-86785223D01*
X114090042Y-86645267D01*
X114144634Y-86489252D01*
X114163141Y-86325000D01*
X114144634Y-86160748D01*
X114090042Y-86004733D01*
X114042791Y-85929533D01*
X114023479Y-85862500D01*
X114042791Y-85795466D01*
X114090042Y-85720267D01*
X114144634Y-85564252D01*
X114163141Y-85400000D01*
X114144634Y-85235748D01*
X114133382Y-85203593D01*
X114090042Y-85079733D01*
X114070335Y-85048370D01*
X114042791Y-85004533D01*
X114023479Y-84937500D01*
X114042791Y-84870466D01*
X114090042Y-84795267D01*
X114144634Y-84639252D01*
X114163141Y-84475000D01*
X114144634Y-84310748D01*
X114090042Y-84154733D01*
X114002102Y-84014777D01*
X114002101Y-84014776D01*
X114002100Y-84014774D01*
X113885225Y-83897899D01*
X113745266Y-83809957D01*
X113589254Y-83755366D01*
X113425000Y-83736859D01*
X113260745Y-83755366D01*
X113104733Y-83809957D01*
X112964774Y-83897899D01*
X112847898Y-84014775D01*
X112773179Y-84133690D01*
X112733528Y-84173341D01*
X112680601Y-84191861D01*
X112629012Y-84197674D01*
X112560745Y-84205366D01*
X112404733Y-84259957D01*
X112264774Y-84347899D01*
X112147899Y-84464774D01*
X112059957Y-84604733D01*
X112005366Y-84760745D01*
X111986859Y-84925000D01*
X112005366Y-85089254D01*
X112050624Y-85218592D01*
X112059958Y-85245267D01*
X112098457Y-85306538D01*
X112107208Y-85320465D01*
X112126520Y-85387500D01*
X112107208Y-85454535D01*
X112059957Y-85529734D01*
X112005366Y-85685745D01*
X111993004Y-85795464D01*
X111986859Y-85850000D01*
X111988524Y-85864777D01*
X112005366Y-86014254D01*
X112059957Y-86170265D01*
X112107208Y-86245465D01*
X112126520Y-86312500D01*
X112107208Y-86379535D01*
X112059957Y-86454734D01*
X112005366Y-86610745D01*
X111986859Y-86774999D01*
X93910986Y-86774999D01*
X92676575Y-85536211D01*
X92673464Y-85532975D01*
X92596453Y-85449958D01*
X92596452Y-85449957D01*
X92415357Y-85306537D01*
X92214527Y-85192380D01*
X92214522Y-85192377D01*
X91998652Y-85110152D01*
X91772765Y-85061771D01*
X91542144Y-85048370D01*
X91312178Y-85070259D01*
X91088226Y-85126928D01*
X90875527Y-85217051D01*
X90801779Y-85262646D01*
X90734599Y-85281471D01*
X90667701Y-85261665D01*
X90621597Y-85209301D01*
X90610422Y-85140435D01*
X90637601Y-85076179D01*
X90753953Y-84932497D01*
X90965627Y-84606548D01*
X91142078Y-84260244D01*
X91281355Y-83897413D01*
X91381948Y-83521995D01*
X91442748Y-83138117D01*
X91463089Y-82749999D01*
X91442748Y-82361882D01*
X91381948Y-81978004D01*
X91287361Y-81624999D01*
X95061859Y-81624999D01*
X95080366Y-81789254D01*
X95134957Y-81945266D01*
X95222899Y-82085225D01*
X95339774Y-82202100D01*
X95339776Y-82202101D01*
X95339777Y-82202102D01*
X95479733Y-82290042D01*
X95635748Y-82344634D01*
X95800000Y-82363141D01*
X95964252Y-82344634D01*
X96120267Y-82290042D01*
X96260223Y-82202102D01*
X96377102Y-82085223D01*
X96465042Y-81945267D01*
X96519634Y-81789252D01*
X96532507Y-81674999D01*
X98536859Y-81674999D01*
X98555366Y-81839254D01*
X98609957Y-81995266D01*
X98697899Y-82135225D01*
X98814774Y-82252100D01*
X98814776Y-82252101D01*
X98814777Y-82252102D01*
X98923576Y-82320465D01*
X98933689Y-82326819D01*
X98973340Y-82366469D01*
X98991861Y-82419397D01*
X99005366Y-82539254D01*
X99059957Y-82695266D01*
X99147899Y-82835225D01*
X99264774Y-82952100D01*
X99264776Y-82952101D01*
X99264777Y-82952102D01*
X99404733Y-83040042D01*
X99560748Y-83094634D01*
X99725000Y-83113141D01*
X99889252Y-83094634D01*
X100045267Y-83040042D01*
X100120466Y-82992791D01*
X100187500Y-82973479D01*
X100254533Y-82992791D01*
X100329733Y-83040042D01*
X100485748Y-83094634D01*
X100650000Y-83113141D01*
X100814252Y-83094634D01*
X100970267Y-83040042D01*
X101045466Y-82992791D01*
X101112500Y-82973479D01*
X101179533Y-82992791D01*
X101254733Y-83040042D01*
X101410748Y-83094634D01*
X101575000Y-83113141D01*
X101739252Y-83094634D01*
X101895267Y-83040042D01*
X102035223Y-82952102D01*
X102152102Y-82835223D01*
X102240042Y-82695267D01*
X102294634Y-82539252D01*
X102313141Y-82375000D01*
X102294634Y-82210748D01*
X102240042Y-82054733D01*
X102152102Y-81914777D01*
X102152101Y-81914776D01*
X102152100Y-81914774D01*
X102035227Y-81797901D01*
X102035224Y-81797899D01*
X102035223Y-81797898D01*
X101916305Y-81723177D01*
X101876658Y-81683529D01*
X101858138Y-81630605D01*
X101844634Y-81510748D01*
X101790042Y-81354733D01*
X101702102Y-81214777D01*
X101702101Y-81214776D01*
X101702100Y-81214774D01*
X101585225Y-81097899D01*
X101445266Y-81009957D01*
X101289254Y-80955366D01*
X101125000Y-80936859D01*
X100960745Y-80955366D01*
X100804734Y-81009957D01*
X100729535Y-81057208D01*
X100662500Y-81076520D01*
X100595465Y-81057208D01*
X100527936Y-81014777D01*
X100520267Y-81009958D01*
X100520266Y-81009957D01*
X100520265Y-81009957D01*
X100364254Y-80955366D01*
X100200000Y-80936859D01*
X100035745Y-80955366D01*
X99879734Y-81009957D01*
X99804535Y-81057208D01*
X99737500Y-81076520D01*
X99670465Y-81057208D01*
X99602936Y-81014777D01*
X99595267Y-81009958D01*
X99595266Y-81009957D01*
X99595265Y-81009957D01*
X99439254Y-80955366D01*
X99275000Y-80936859D01*
X99110745Y-80955366D01*
X98954733Y-81009957D01*
X98814774Y-81097899D01*
X98697899Y-81214774D01*
X98609957Y-81354733D01*
X98555366Y-81510745D01*
X98536859Y-81674999D01*
X96532507Y-81674999D01*
X96538141Y-81625000D01*
X96519634Y-81460748D01*
X96496790Y-81395465D01*
X96465042Y-81304733D01*
X96377100Y-81164774D01*
X96260225Y-81047899D01*
X96120266Y-80959957D01*
X95964254Y-80905366D01*
X95854750Y-80893027D01*
X95800000Y-80886859D01*
X95799999Y-80886859D01*
X95635745Y-80905366D01*
X95479733Y-80959957D01*
X95339774Y-81047899D01*
X95222899Y-81164774D01*
X95134957Y-81304733D01*
X95080366Y-81460745D01*
X95061859Y-81624999D01*
X91287361Y-81624999D01*
X91281355Y-81602586D01*
X91142078Y-81239755D01*
X90965628Y-80893455D01*
X90753948Y-80567496D01*
X90547122Y-80312087D01*
X90547121Y-80312086D01*
X87750000Y-83109210D01*
X85312086Y-85547121D01*
X84500500Y-85547121D01*
X84500500Y-84979757D01*
X84516727Y-84917903D01*
X84561229Y-84871981D01*
X84622543Y-84853819D01*
X84684876Y-84868096D01*
X84732173Y-84911133D01*
X84746051Y-84932505D01*
X84952876Y-85187911D01*
X84952877Y-85187912D01*
X90187912Y-79952877D01*
X90187911Y-79952876D01*
X90012941Y-79811187D01*
X101888022Y-79811187D01*
X102043081Y-79916904D01*
X102271171Y-80026747D01*
X102513082Y-80101366D01*
X102763422Y-80139100D01*
X103016578Y-80139100D01*
X103266917Y-80101366D01*
X103508828Y-80026747D01*
X103736915Y-79916906D01*
X103891976Y-79811186D01*
X103891976Y-79811185D01*
X102890001Y-78809210D01*
X102889999Y-78809210D01*
X101888022Y-79811185D01*
X101888022Y-79811187D01*
X90012941Y-79811187D01*
X89932505Y-79746051D01*
X89911133Y-79732173D01*
X89868096Y-79684876D01*
X89853819Y-79622543D01*
X89871981Y-79561229D01*
X89917903Y-79516727D01*
X89979757Y-79500500D01*
X90737335Y-79500500D01*
X90750896Y-79501734D01*
X90761547Y-79492994D01*
X91396811Y-79074641D01*
X91567376Y-78962474D01*
X91571389Y-78959943D01*
X92084199Y-78650077D01*
X92084429Y-78650001D01*
X92084401Y-78649955D01*
X92084584Y-78649844D01*
X92416772Y-78449999D01*
X101196164Y-78449999D01*
X101215083Y-78702455D01*
X101271415Y-78949266D01*
X101363906Y-79184928D01*
X101490487Y-79404173D01*
X101528699Y-79452088D01*
X101528700Y-79452089D01*
X102530790Y-78450001D01*
X103249210Y-78450001D01*
X104251298Y-79452089D01*
X104289513Y-79404169D01*
X104416093Y-79184928D01*
X104508584Y-78949266D01*
X104564916Y-78702455D01*
X104583835Y-78450000D01*
X106195662Y-78450000D01*
X106214586Y-78702529D01*
X106270937Y-78949416D01*
X106363454Y-79185147D01*
X106445891Y-79327932D01*
X106490072Y-79404455D01*
X106647962Y-79602443D01*
X106833598Y-79774687D01*
X106833600Y-79774688D01*
X106833602Y-79774690D01*
X106888119Y-79811859D01*
X107042831Y-79917340D01*
X107158201Y-79972899D01*
X107270988Y-80027215D01*
X107340445Y-80048639D01*
X107512974Y-80101857D01*
X107763382Y-80139600D01*
X108016615Y-80139600D01*
X108016618Y-80139600D01*
X108267026Y-80101857D01*
X108509011Y-80027215D01*
X108737169Y-79917340D01*
X108946402Y-79774687D01*
X109132038Y-79602443D01*
X109289928Y-79404455D01*
X109416546Y-79185146D01*
X109509063Y-78949415D01*
X109565414Y-78702528D01*
X109584338Y-78450000D01*
X109565414Y-78197472D01*
X109509063Y-77950585D01*
X109416546Y-77714854D01*
X109289928Y-77495545D01*
X109132038Y-77297557D01*
X108946402Y-77125313D01*
X108946399Y-77125311D01*
X108946397Y-77125309D01*
X108737169Y-76982660D01*
X108509011Y-76872784D01*
X108283833Y-76803327D01*
X108267026Y-76798143D01*
X108016618Y-76760400D01*
X107763382Y-76760400D01*
X107512974Y-76798143D01*
X107512971Y-76798143D01*
X107512970Y-76798144D01*
X107270988Y-76872784D01*
X107042830Y-76982660D01*
X106833602Y-77125309D01*
X106833596Y-77125313D01*
X106833598Y-77125313D01*
X106647962Y-77297557D01*
X106528060Y-77447910D01*
X106490070Y-77495548D01*
X106363454Y-77714852D01*
X106270937Y-77950583D01*
X106214586Y-78197470D01*
X106195662Y-78450000D01*
X104583835Y-78450000D01*
X104583835Y-78449999D01*
X104564916Y-78197544D01*
X104508584Y-77950733D01*
X104416093Y-77715071D01*
X104289514Y-77495829D01*
X104251298Y-77447909D01*
X103249210Y-78449999D01*
X103249210Y-78450001D01*
X102530790Y-78450001D01*
X102530790Y-78449999D01*
X101528701Y-77447910D01*
X101528699Y-77447910D01*
X101490487Y-77495827D01*
X101363906Y-77715071D01*
X101271415Y-77950733D01*
X101215083Y-78197544D01*
X101196164Y-78449999D01*
X92416772Y-78449999D01*
X92417997Y-78449262D01*
X92421928Y-78446996D01*
X92914658Y-78174792D01*
X93288121Y-77970051D01*
X93291971Y-77968028D01*
X93780979Y-77722151D01*
X94176532Y-77525504D01*
X94180191Y-77523764D01*
X94670678Y-77300555D01*
X95081629Y-77116424D01*
X95085305Y-77114850D01*
X95148965Y-77088813D01*
X101888022Y-77088813D01*
X102889999Y-78090790D01*
X102890001Y-78090790D01*
X103891976Y-77088813D01*
X103891976Y-77088811D01*
X103736917Y-76983095D01*
X103508828Y-76873252D01*
X103266917Y-76798633D01*
X103016578Y-76760900D01*
X102763422Y-76760900D01*
X102513082Y-76798633D01*
X102271171Y-76873252D01*
X102043087Y-76983092D01*
X101888022Y-77088812D01*
X101888022Y-77088813D01*
X95148965Y-77088813D01*
X95579046Y-76912908D01*
X96002215Y-76743337D01*
X96005747Y-76741987D01*
X96503349Y-76560676D01*
X96503739Y-76560536D01*
X96936707Y-76406889D01*
X96940274Y-76405684D01*
X97441896Y-76244672D01*
X97442638Y-76244438D01*
X97883742Y-76107559D01*
X97887191Y-76106543D01*
X98392961Y-75965604D01*
X98393735Y-75965392D01*
X98841894Y-75845803D01*
X98845053Y-75845007D01*
X99354612Y-75724113D01*
X99355613Y-75723882D01*
X99809502Y-75622073D01*
X99812617Y-75621418D01*
X100325218Y-75520643D01*
X100326650Y-75520371D01*
X100785126Y-75436690D01*
X100788078Y-75436189D01*
X101303449Y-75355503D01*
X101305181Y-75355246D01*
X101767390Y-75289915D01*
X101770110Y-75289564D01*
X102287565Y-75229021D01*
X102289477Y-75228812D01*
X102754479Y-75182017D01*
X102757181Y-75181777D01*
X103276116Y-75141401D01*
X103278219Y-75141255D01*
X103745104Y-75113126D01*
X103747510Y-75113006D01*
X104267540Y-75092807D01*
X104269730Y-75092742D01*
X104737409Y-75083360D01*
X104739937Y-75083335D01*
X105260063Y-75083335D01*
X105262590Y-75083360D01*
G37*
%TD.AperFunction*%
%TD*%
M02*
