%TF.GenerationSoftware,KiCad,Pcbnew,(6.0.9)*%
%TF.CreationDate,2023-02-04T14:30:42+01:00*%
%TF.ProjectId,MTR_Tiny_MD,4d54525f-5469-46e7-995f-4d442e6b6963,rev?*%
%TF.SameCoordinates,Original*%
%TF.FileFunction,Soldermask,Bot*%
%TF.FilePolarity,Negative*%
%FSLAX46Y46*%
G04 Gerber Fmt 4.6, Leading zero omitted, Abs format (unit mm)*
G04 Created by KiCad (PCBNEW (6.0.9)) date 2023-02-04 14:30:42*
%MOMM*%
%LPD*%
G01*
G04 APERTURE LIST*
G04 Aperture macros list*
%AMRoundRect*
0 Rectangle with rounded corners*
0 $1 Rounding radius*
0 $2 $3 $4 $5 $6 $7 $8 $9 X,Y pos of 4 corners*
0 Add a 4 corners polygon primitive as box body*
4,1,4,$2,$3,$4,$5,$6,$7,$8,$9,$2,$3,0*
0 Add four circle primitives for the rounded corners*
1,1,$1+$1,$2,$3*
1,1,$1+$1,$4,$5*
1,1,$1+$1,$6,$7*
1,1,$1+$1,$8,$9*
0 Add four rect primitives between the rounded corners*
20,1,$1+$1,$2,$3,$4,$5,0*
20,1,$1+$1,$4,$5,$6,$7,0*
20,1,$1+$1,$6,$7,$8,$9,0*
20,1,$1+$1,$8,$9,$2,$3,0*%
%AMHorizOval*
0 Thick line with rounded ends*
0 $1 width*
0 $2 $3 position (X,Y) of the first rounded end (center of the circle)*
0 $4 $5 position (X,Y) of the second rounded end (center of the circle)*
0 Add line between two ends*
20,1,$1,$2,$3,$4,$5,0*
0 Add two circle primitives to create the rounded ends*
1,1,$1,$2,$3*
1,1,$1,$4,$5*%
%AMRotRect*
0 Rectangle, with rotation*
0 The origin of the aperture is its center*
0 $1 length*
0 $2 width*
0 $3 Rotation angle, in degrees counterclockwise*
0 Add horizontal line*
21,1,$1,$2,0,0,$3*%
G04 Aperture macros list end*
%ADD10R,1.700000X1.700000*%
%ADD11O,1.700000X1.700000*%
%ADD12RoundRect,0.165000X1.210000X-1.210000X1.210000X1.210000X-1.210000X1.210000X-1.210000X-1.210000X0*%
%ADD13C,0.800000*%
%ADD14C,6.400000*%
%ADD15C,3.200000*%
%ADD16C,0.650000*%
%ADD17O,2.100000X1.000000*%
%ADD18O,1.600000X1.000000*%
%ADD19RotRect,1.700000X1.700000X315.000000*%
%ADD20HorizOval,1.700000X0.000000X0.000000X0.000000X0.000000X0*%
%ADD21RotRect,1.700000X1.700000X135.000000*%
%ADD22HorizOval,1.700000X0.000000X0.000000X0.000000X0.000000X0*%
%ADD23R,0.558000X1.394200*%
G04 APERTURE END LIST*
D10*
%TO.C,J5*%
X110400000Y-111025000D03*
D11*
X110400000Y-113565000D03*
%TD*%
D12*
%TO.C,H12*%
X82620000Y-105310000D03*
%TD*%
D13*
%TO.C,H1*%
X124650000Y-117250000D03*
X120552944Y-118947056D03*
D14*
X122250000Y-117250000D03*
D13*
X123947056Y-115552944D03*
X122250000Y-114850000D03*
X120552944Y-115552944D03*
X122250000Y-119650000D03*
X119850000Y-117250000D03*
X123947056Y-118947056D03*
%TD*%
D14*
%TO.C,H3*%
X122250000Y-82750000D03*
D13*
X122250000Y-85150000D03*
X119850000Y-82750000D03*
X124650000Y-82750000D03*
X122250000Y-80350000D03*
X123947056Y-81052944D03*
X120552944Y-81052944D03*
X120552944Y-84447056D03*
X123947056Y-84447056D03*
%TD*%
D14*
%TO.C,H8*%
X87750000Y-82750000D03*
D13*
X86052944Y-81052944D03*
X90150000Y-82750000D03*
X87750000Y-85150000D03*
X86052944Y-84447056D03*
X87750000Y-80350000D03*
X89447056Y-84447056D03*
X85350000Y-82750000D03*
X89447056Y-81052944D03*
%TD*%
%TO.C,H9*%
X89447056Y-118947056D03*
X90150000Y-117250000D03*
D14*
X87750000Y-117250000D03*
D13*
X87750000Y-119650000D03*
X86052944Y-115552944D03*
X89447056Y-115552944D03*
X85350000Y-117250000D03*
X86052944Y-118947056D03*
X87750000Y-114850000D03*
%TD*%
D15*
%TO.C,J6*%
X107890000Y-78450000D03*
X102890000Y-78450000D03*
%TD*%
D16*
%TO.C,J1*%
X124810000Y-102940000D03*
X124810000Y-97160000D03*
D17*
X124280000Y-104370000D03*
X124280000Y-95730000D03*
D18*
X128460000Y-104370000D03*
X128460000Y-95730000D03*
%TD*%
D19*
%TO.C,J3*%
X96700000Y-113800000D03*
D20*
X94903949Y-115596051D03*
%TD*%
D11*
%TO.C,J2*%
X98840000Y-120990000D03*
X98840000Y-118450000D03*
X101380000Y-120990000D03*
X101380000Y-118450000D03*
X103920000Y-120990000D03*
X103920000Y-118450000D03*
X106460000Y-120990000D03*
X106460000Y-118450000D03*
X109000000Y-120990000D03*
X109000000Y-118450000D03*
X111540000Y-120990000D03*
D10*
X111540000Y-118450000D03*
%TD*%
D12*
%TO.C,H11*%
X81740000Y-100030000D03*
%TD*%
%TO.C,H10*%
X82440000Y-95030000D03*
%TD*%
D21*
%TO.C,J4*%
X110948439Y-93701562D03*
D22*
X112744490Y-91905511D03*
%TD*%
D23*
%TO.C,U6*%
X103095000Y-97347100D03*
X104365000Y-97347100D03*
X105635000Y-97347100D03*
X106905000Y-97347100D03*
X106905000Y-102652900D03*
X105635000Y-102652900D03*
X104365000Y-102652900D03*
X103095000Y-102652900D03*
%TD*%
M02*
