%TF.GenerationSoftware,KiCad,Pcbnew,(6.0.9)*%
%TF.CreationDate,2023-02-04T14:30:42+01:00*%
%TF.ProjectId,MTR_Tiny_MD,4d54525f-5469-46e7-995f-4d442e6b6963,rev?*%
%TF.SameCoordinates,Original*%
%TF.FileFunction,Copper,L6,Bot*%
%TF.FilePolarity,Positive*%
%FSLAX46Y46*%
G04 Gerber Fmt 4.6, Leading zero omitted, Abs format (unit mm)*
G04 Created by KiCad (PCBNEW (6.0.9)) date 2023-02-04 14:30:42*
%MOMM*%
%LPD*%
G01*
G04 APERTURE LIST*
G04 Aperture macros list*
%AMRoundRect*
0 Rectangle with rounded corners*
0 $1 Rounding radius*
0 $2 $3 $4 $5 $6 $7 $8 $9 X,Y pos of 4 corners*
0 Add a 4 corners polygon primitive as box body*
4,1,4,$2,$3,$4,$5,$6,$7,$8,$9,$2,$3,0*
0 Add four circle primitives for the rounded corners*
1,1,$1+$1,$2,$3*
1,1,$1+$1,$4,$5*
1,1,$1+$1,$6,$7*
1,1,$1+$1,$8,$9*
0 Add four rect primitives between the rounded corners*
20,1,$1+$1,$2,$3,$4,$5,0*
20,1,$1+$1,$4,$5,$6,$7,0*
20,1,$1+$1,$6,$7,$8,$9,0*
20,1,$1+$1,$8,$9,$2,$3,0*%
%AMHorizOval*
0 Thick line with rounded ends*
0 $1 width*
0 $2 $3 position (X,Y) of the first rounded end (center of the circle)*
0 $4 $5 position (X,Y) of the second rounded end (center of the circle)*
0 Add line between two ends*
20,1,$1,$2,$3,$4,$5,0*
0 Add two circle primitives to create the rounded ends*
1,1,$1,$2,$3*
1,1,$1,$4,$5*%
%AMRotRect*
0 Rectangle, with rotation*
0 The origin of the aperture is its center*
0 $1 length*
0 $2 width*
0 $3 Rotation angle, in degrees counterclockwise*
0 Add horizontal line*
21,1,$1,$2,0,0,$3*%
G04 Aperture macros list end*
%TA.AperFunction,ComponentPad*%
%ADD10R,1.700000X1.700000*%
%TD*%
%TA.AperFunction,ComponentPad*%
%ADD11O,1.700000X1.700000*%
%TD*%
%TA.AperFunction,ComponentPad*%
%ADD12RoundRect,0.165000X1.210000X-1.210000X1.210000X1.210000X-1.210000X1.210000X-1.210000X-1.210000X0*%
%TD*%
%TA.AperFunction,ComponentPad*%
%ADD13C,0.800000*%
%TD*%
%TA.AperFunction,ComponentPad*%
%ADD14C,6.400000*%
%TD*%
%TA.AperFunction,ComponentPad*%
%ADD15C,3.200000*%
%TD*%
%TA.AperFunction,ComponentPad*%
%ADD16O,2.100000X1.000000*%
%TD*%
%TA.AperFunction,ComponentPad*%
%ADD17O,1.600000X1.000000*%
%TD*%
%TA.AperFunction,ComponentPad*%
%ADD18RotRect,1.700000X1.700000X315.000000*%
%TD*%
%TA.AperFunction,ComponentPad*%
%ADD19HorizOval,1.700000X0.000000X0.000000X0.000000X0.000000X0*%
%TD*%
%TA.AperFunction,ComponentPad*%
%ADD20RotRect,1.700000X1.700000X135.000000*%
%TD*%
%TA.AperFunction,ComponentPad*%
%ADD21HorizOval,1.700000X0.000000X0.000000X0.000000X0.000000X0*%
%TD*%
%TA.AperFunction,SMDPad,CuDef*%
%ADD22R,0.558000X1.394200*%
%TD*%
%TA.AperFunction,ViaPad*%
%ADD23C,0.400000*%
%TD*%
%TA.AperFunction,Conductor*%
%ADD24C,0.500000*%
%TD*%
%TA.AperFunction,Conductor*%
%ADD25C,0.300000*%
%TD*%
%TA.AperFunction,Conductor*%
%ADD26C,0.200000*%
%TD*%
G04 APERTURE END LIST*
D10*
%TO.P,J5,1*%
%TO.N,GND*%
X110400000Y-111025000D03*
D11*
%TO.P,J5,2*%
%TO.N,DOUT*%
X110400000Y-113565000D03*
%TD*%
D12*
%TO.P,H12,1,1*%
%TO.N,OUTC*%
X82620000Y-105310000D03*
%TD*%
D13*
%TO.P,H1,1,1*%
%TO.N,GND*%
X124650000Y-117250000D03*
X120552944Y-118947056D03*
D14*
X122250000Y-117250000D03*
D13*
X123947056Y-115552944D03*
X122250000Y-114850000D03*
X120552944Y-115552944D03*
X122250000Y-119650000D03*
X119850000Y-117250000D03*
X123947056Y-118947056D03*
%TD*%
D14*
%TO.P,H3,1,1*%
%TO.N,GND*%
X122250000Y-82750000D03*
D13*
X122250000Y-85150000D03*
X119850000Y-82750000D03*
X124650000Y-82750000D03*
X122250000Y-80350000D03*
X123947056Y-81052944D03*
X120552944Y-81052944D03*
X120552944Y-84447056D03*
X123947056Y-84447056D03*
%TD*%
D14*
%TO.P,H8,1,1*%
%TO.N,GND*%
X87750000Y-82750000D03*
D13*
X86052944Y-81052944D03*
X90150000Y-82750000D03*
X87750000Y-85150000D03*
X86052944Y-84447056D03*
X87750000Y-80350000D03*
X89447056Y-84447056D03*
X85350000Y-82750000D03*
X89447056Y-81052944D03*
%TD*%
%TO.P,H9,1,1*%
%TO.N,GND*%
X89447056Y-118947056D03*
X90150000Y-117250000D03*
D14*
X87750000Y-117250000D03*
D13*
X87750000Y-119650000D03*
X86052944Y-115552944D03*
X89447056Y-115552944D03*
X85350000Y-117250000D03*
X86052944Y-118947056D03*
X87750000Y-114850000D03*
%TD*%
D15*
%TO.P,J6,1,1*%
%TO.N,/VM*%
X107890000Y-78450000D03*
%TO.P,J6,2,2*%
%TO.N,GND*%
X102890000Y-78450000D03*
%TD*%
D16*
%TO.P,J1,S1,SHIELD*%
%TO.N,GND*%
X124280000Y-104370000D03*
X124280000Y-95730000D03*
D17*
X128460000Y-104370000D03*
X128460000Y-95730000D03*
%TD*%
D18*
%TO.P,J3,1*%
%TO.N,SWD*%
X96700000Y-113800000D03*
D19*
%TO.P,J3,2*%
%TO.N,SWCLK*%
X94903949Y-115596051D03*
%TD*%
D11*
%TO.P,J2,12*%
%TO.N,GPIO9*%
X98840000Y-120990000D03*
%TO.P,J2,11*%
%TO.N,GPIO22*%
X98840000Y-118450000D03*
%TO.P,J2,10*%
%TO.N,GPIO3*%
X101380000Y-120990000D03*
%TO.P,J2,9*%
%TO.N,GND*%
X101380000Y-118450000D03*
%TO.P,J2,8*%
%TO.N,GPIO2*%
X103920000Y-120990000D03*
%TO.P,J2,7*%
%TO.N,GPIO24*%
X103920000Y-118450000D03*
%TO.P,J2,6*%
%TO.N,GPIO20*%
X106460000Y-120990000D03*
%TO.P,J2,5*%
%TO.N,GPIO25*%
X106460000Y-118450000D03*
%TO.P,J2,4*%
%TO.N,GPIO21*%
X109000000Y-120990000D03*
%TO.P,J2,3*%
%TO.N,V_USB*%
X109000000Y-118450000D03*
%TO.P,J2,2*%
%TO.N,GND*%
X111540000Y-120990000D03*
D10*
%TO.P,J2,1*%
%TO.N,3V3_BUCK*%
X111540000Y-118450000D03*
%TD*%
D12*
%TO.P,H11,1,1*%
%TO.N,OUTB*%
X81740000Y-100030000D03*
%TD*%
%TO.P,H10,1,1*%
%TO.N,OUTA*%
X82440000Y-95030000D03*
%TD*%
D20*
%TO.P,J4,1*%
%TO.N,UART_TX*%
X110948439Y-93701562D03*
D21*
%TO.P,J4,2*%
%TO.N,UART_RX*%
X112744490Y-91905511D03*
%TD*%
D22*
%TO.P,U6,1,VDD5V*%
%TO.N,3V3_BUCK*%
X103095000Y-97347100D03*
%TO.P,U6,2,VDD3V3*%
X104365000Y-97347100D03*
%TO.P,U6,3,OUT*%
%TO.N,PWM_Out*%
X105635000Y-97347100D03*
%TO.P,U6,4,GND*%
%TO.N,GND*%
X106905000Y-97347100D03*
%TO.P,U6,5,PGO*%
%TO.N,unconnected-(U6-Pad5)*%
X106905000Y-102652900D03*
%TO.P,U6,6,SDA*%
%TO.N,I2C_SDA*%
X105635000Y-102652900D03*
%TO.P,U6,7,SCL*%
%TO.N,I2C_SCL*%
X104365000Y-102652900D03*
%TO.P,U6,8,DIR*%
%TO.N,DIR_Pin*%
X103095000Y-102652900D03*
%TD*%
D23*
%TO.N,GND*%
X104183332Y-100100000D03*
X94850000Y-106500000D03*
X100450000Y-113150000D03*
X89300000Y-107400000D03*
X110150000Y-90100000D03*
X89116666Y-98950000D03*
X106150000Y-113850000D03*
X119150000Y-102500000D03*
X90533332Y-98950000D03*
X119700000Y-102500000D03*
X108950000Y-107550000D03*
X99500000Y-108900000D03*
X103800000Y-89700000D03*
X127300000Y-107350000D03*
X127250000Y-90650000D03*
X103800000Y-89100000D03*
X106250000Y-86500000D03*
X96900000Y-95500000D03*
X101550000Y-92000000D03*
X112400000Y-86000000D03*
X103500000Y-91250000D03*
X87700000Y-101150000D03*
X121550000Y-104600000D03*
X119350000Y-94750000D03*
X117150000Y-95450000D03*
X124100000Y-89800000D03*
X99000000Y-110700000D03*
X91950000Y-101150000D03*
X106700000Y-88800000D03*
X112600000Y-103050000D03*
X104950000Y-91250000D03*
X97350000Y-99150000D03*
X111384089Y-99609511D03*
X112400000Y-85400000D03*
X97050000Y-106550000D03*
X87850000Y-86750000D03*
X106100000Y-88800000D03*
X111000000Y-107150000D03*
X89116666Y-100050000D03*
X92750000Y-93000000D03*
X105600000Y-100100000D03*
X90533332Y-101150000D03*
X124950000Y-88850000D03*
X97340000Y-94890000D03*
X105600000Y-99000000D03*
X111000000Y-106600000D03*
X100450000Y-108050000D03*
X99450000Y-112200000D03*
X91950000Y-98950000D03*
X86500000Y-92650000D03*
X107550000Y-89400000D03*
X98650000Y-91950000D03*
X104183332Y-99000000D03*
X105450000Y-86500000D03*
X90533332Y-100050000D03*
X87700000Y-98950000D03*
X102500000Y-90500000D03*
X107550000Y-90000000D03*
X98400000Y-90400000D03*
X97650000Y-89600000D03*
X87700000Y-100050000D03*
X99300000Y-106550000D03*
X113600000Y-102450000D03*
X102400000Y-98600000D03*
X111450000Y-86800000D03*
X105650000Y-84050000D03*
X100000000Y-108450000D03*
X109100000Y-92150000D03*
X114150000Y-95200000D03*
X91950000Y-100050000D03*
X99000000Y-110000000D03*
X99450000Y-91200000D03*
X126400000Y-91600000D03*
X109450000Y-86800000D03*
X109650000Y-90550000D03*
X107250000Y-113000000D03*
X96468744Y-96018745D03*
X110850000Y-86800000D03*
X85450000Y-92650000D03*
X110050000Y-86800000D03*
X89116666Y-101150000D03*
X90300000Y-108300000D03*
X110600000Y-89700000D03*
X109100000Y-91350000D03*
X121550000Y-105150000D03*
X126450000Y-108300000D03*
%TO.N,+1V1*%
X105600000Y-101500000D03*
X111800000Y-101400000D03*
%TO.N,3V3_BUCK*%
X114550000Y-102150000D03*
X108850000Y-102950000D03*
X114388541Y-104488541D03*
X98836310Y-99063690D03*
X111170000Y-105520000D03*
X89009811Y-103409811D03*
X119050000Y-97200000D03*
X98300000Y-97650000D03*
X104563541Y-90126152D03*
X101050000Y-106549500D03*
X102100000Y-109750000D03*
X89009811Y-104340189D03*
X113500000Y-86800000D03*
X103000000Y-109750000D03*
X122650000Y-86700000D03*
X113950000Y-104950000D03*
X94650000Y-82950000D03*
X120750000Y-88800000D03*
X122150000Y-93350000D03*
X106650000Y-90600000D03*
X122200000Y-89900000D03*
X107750000Y-91450000D03*
X91400000Y-105500000D03*
X100450000Y-109750000D03*
X105663541Y-89626152D03*
X106125000Y-90064693D03*
X108850000Y-104550000D03*
X107561459Y-93138541D03*
X120750000Y-88000000D03*
X105025000Y-90564693D03*
X101650000Y-87950000D03*
X113388541Y-105488541D03*
X117350000Y-97800000D03*
X102450000Y-99800000D03*
X105799500Y-108300000D03*
X122150000Y-94150000D03*
X103350000Y-92900000D03*
X121100000Y-97250000D03*
X99550000Y-88000000D03*
X108850000Y-103750000D03*
X107100000Y-92700000D03*
X99300000Y-85350000D03*
X122200000Y-91500000D03*
X122150000Y-92550000D03*
X122200000Y-90700000D03*
X112250000Y-86800000D03*
X88550000Y-106700000D03*
X104365000Y-97347100D03*
X104950000Y-92900000D03*
X103095000Y-97347100D03*
X114988541Y-101688541D03*
X119650000Y-97200000D03*
X91400000Y-106300000D03*
X120500000Y-97250000D03*
X106200000Y-106650000D03*
X107111459Y-91038541D03*
X117788541Y-97338541D03*
X107400000Y-107600000D03*
%TO.N,Net-(C16-Pad1)*%
X108600000Y-86700000D03*
X103400000Y-86950000D03*
%TO.N,DRV_BUCK_OUT*%
X88550000Y-89900000D03*
X93101056Y-96051056D03*
%TO.N,Current_A*%
X93650000Y-104450000D03*
X94500000Y-96200500D03*
%TO.N,Current_B*%
X95950000Y-104450000D03*
X94500500Y-97199500D03*
%TO.N,Current_C*%
X94518744Y-97968744D03*
X98500000Y-104350000D03*
%TO.N,VREF*%
X107746800Y-105703200D03*
X99200000Y-103850000D03*
%TO.N,GPIO25*%
X105416068Y-104250000D03*
X107400000Y-109150000D03*
%TO.N,GPIO24*%
X104811518Y-104732622D03*
%TO.N,GPIO22*%
X104350000Y-104150000D03*
%TO.N,GPIO9*%
X102150000Y-93650000D03*
%TO.N,GPIO3*%
X106349006Y-93600000D03*
%TO.N,GPIO2*%
X106950000Y-93600000D03*
%TO.N,GPIO20*%
X103033932Y-104850000D03*
%TO.N,GPIO21*%
X103650000Y-104700000D03*
%TO.N,SWD*%
X100100000Y-101099500D03*
%TO.N,SWCLK*%
X98895180Y-100699500D03*
%TO.N,UART_TX*%
X107800500Y-94950000D03*
%TO.N,UART_RX*%
X107800500Y-94350000D03*
%TO.N,Net-(R6-Pad2)*%
X93750000Y-107100000D03*
X105820133Y-105703200D03*
%TO.N,Net-(R7-Pad2)*%
X106462355Y-105703200D03*
X95950000Y-107100000D03*
%TO.N,Net-(R8-Pad2)*%
X107104577Y-105800000D03*
X98150000Y-107100000D03*
%TO.N,RUN*%
X102450000Y-101400000D03*
X118600000Y-106650000D03*
%TO.N,nFAULT*%
X87550000Y-104000000D03*
X103920972Y-93885429D03*
%TO.N,I2C_SDA*%
X113500000Y-89550000D03*
X105246928Y-102202956D03*
X105749503Y-93600000D03*
%TO.N,I2C_SCL*%
X103931050Y-102200500D03*
X112250000Y-89500000D03*
X105150000Y-93600000D03*
%TO.N,nSLEEP*%
X104465239Y-93600000D03*
X88149503Y-104000000D03*
%TO.N,DRVOFF*%
X102750000Y-93650000D03*
X86950497Y-104000000D03*
%TO.N,INLC*%
X92797484Y-104649205D03*
X101550000Y-93650000D03*
%TO.N,INHC*%
X100950497Y-93650000D03*
X92197984Y-104651131D03*
%TO.N,INLB*%
X99949500Y-96298051D03*
X91598499Y-104646550D03*
%TO.N,INHB*%
X90998996Y-104646550D03*
X99949500Y-96897554D03*
%TO.N,INLA*%
X90399493Y-104646550D03*
X99949500Y-97497057D03*
%TO.N,INHA*%
X99952950Y-98096550D03*
X89800000Y-104650000D03*
%TO.N,SPI_MISO*%
X95396550Y-101400507D03*
X99400000Y-101700497D03*
%TO.N,SPI_SS*%
X95396550Y-100201501D03*
X99400000Y-102300000D03*
%TO.N,SPI_SCK*%
X95396550Y-100801004D03*
X101750497Y-104700000D03*
%TO.N,SPI_MOSI*%
X102350000Y-104700000D03*
X95400000Y-102000000D03*
%TO.N,QSPI_SD3*%
X111700000Y-99100000D03*
X116050000Y-98150000D03*
%TD*%
D24*
%TO.N,GND*%
X105600000Y-99000000D02*
X106905000Y-97695000D01*
X110225500Y-89325500D02*
X110600000Y-89700000D01*
X109050500Y-92100500D02*
X109100000Y-92150000D01*
X108450500Y-91399500D02*
X108450500Y-90900500D01*
X109200500Y-90150500D02*
X109725500Y-89625500D01*
X108450500Y-92100500D02*
X109050500Y-92100500D01*
D25*
X110850000Y-86800000D02*
X111000000Y-86800000D01*
D24*
X110225500Y-89125500D02*
X110850000Y-88501000D01*
X106905000Y-97347100D02*
X108450500Y-95801600D01*
X108450500Y-95801600D02*
X108450500Y-92100500D01*
X110850000Y-87250000D02*
X110850000Y-86800000D01*
X108450500Y-92100500D02*
X108450500Y-91399500D01*
X111000000Y-87130761D02*
X112400000Y-85730761D01*
X111000000Y-87250000D02*
X111450000Y-86800000D01*
X109050500Y-91399500D02*
X109100000Y-91350000D01*
X110850000Y-87250000D02*
X111000000Y-87250000D01*
X109725500Y-89625500D02*
X110150000Y-90050000D01*
D25*
X111000000Y-86800000D02*
X112400000Y-85400000D01*
D24*
X110150000Y-90050000D02*
X110150000Y-90100000D01*
X112400000Y-85730761D02*
X112400000Y-85400000D01*
D25*
X107550000Y-89400000D02*
X107550000Y-90000000D01*
D24*
X109200500Y-90150500D02*
X109600000Y-90550000D01*
X108450500Y-90900500D02*
X109200500Y-90150500D01*
X109600000Y-90550000D02*
X109650000Y-90550000D01*
X110850000Y-88501000D02*
X110850000Y-87250000D01*
D25*
X111450000Y-86800000D02*
X112250000Y-86000000D01*
D24*
X109725500Y-89625500D02*
X110225500Y-89125500D01*
X108450500Y-91399500D02*
X109050500Y-91399500D01*
D25*
X106905000Y-97695000D02*
X106905000Y-97347100D01*
D24*
X111000000Y-87250000D02*
X111000000Y-87130761D01*
X110225500Y-89125500D02*
X110225500Y-89325500D01*
X108450500Y-90900500D02*
X107550000Y-90000000D01*
D25*
X112250000Y-86000000D02*
X112400000Y-86000000D01*
D24*
%TO.N,3V3_BUCK*%
X97050000Y-85350000D02*
X94650000Y-82950000D01*
X99300000Y-85350000D02*
X97050000Y-85350000D01*
D25*
%TO.N,Net-(C16-Pad1)*%
X104400000Y-87950000D02*
X103400000Y-86950000D01*
X107350000Y-87950000D02*
X104400000Y-87950000D01*
X108600000Y-86700000D02*
X107350000Y-87950000D01*
D26*
%TO.N,Current_A*%
X92750000Y-103550000D02*
X93650000Y-104450000D01*
X92750000Y-97950500D02*
X92750000Y-103550000D01*
X94500000Y-96200500D02*
X92750000Y-97950500D01*
%TO.N,Current_B*%
X94500500Y-97199500D02*
X93150000Y-98550000D01*
X93750000Y-103950000D02*
X95300000Y-103950000D01*
X93150000Y-103350000D02*
X93750000Y-103950000D01*
X95300000Y-103950000D02*
X95450000Y-103950000D01*
X95450000Y-103950000D02*
X95950000Y-104450000D01*
X93150000Y-98550000D02*
X93150000Y-103350000D01*
%TO.N,Current_C*%
X96350000Y-103500000D02*
X97150000Y-104300000D01*
X94450000Y-103500000D02*
X96350000Y-103500000D01*
X93850000Y-102900000D02*
X94450000Y-103500000D01*
X93850000Y-98637488D02*
X93850000Y-102900000D01*
X97150000Y-104350000D02*
X98500000Y-104350000D01*
X94518744Y-97968744D02*
X93850000Y-98637488D01*
X97150000Y-104300000D02*
X97150000Y-104350000D01*
%TO.N,GPIO25*%
X105320133Y-107070133D02*
X107400000Y-109150000D01*
X105320133Y-104345935D02*
X105320133Y-107070133D01*
X105416068Y-104250000D02*
X105320133Y-104345935D01*
%TO.N,GPIO24*%
X104811518Y-104732622D02*
X104811518Y-117558482D01*
X104811518Y-117558482D02*
X103920000Y-118450000D01*
%TO.N,GPIO22*%
X104261518Y-113028482D02*
X98840000Y-118450000D01*
X104261518Y-104238482D02*
X104261518Y-113028482D01*
D25*
X104350000Y-104150000D02*
X104261518Y-104238482D01*
D26*
%TO.N,GPIO20*%
X106214000Y-101941800D02*
X106500000Y-101655800D01*
X108246800Y-102546800D02*
X108246800Y-117576854D01*
X107355800Y-101655800D02*
X108246800Y-102546800D01*
X106214000Y-103650000D02*
X106214000Y-101941800D01*
X103033932Y-104850000D02*
X103033932Y-104608961D01*
X106500000Y-101655800D02*
X107355800Y-101655800D01*
X107650000Y-118173654D02*
X107650000Y-119800000D01*
X107650000Y-119800000D02*
X106460000Y-120990000D01*
X103033932Y-104608961D02*
X103992893Y-103650000D01*
X103992893Y-103650000D02*
X106214000Y-103650000D01*
X108246800Y-117576854D02*
X107650000Y-118173654D01*
%TO.N,GPIO21*%
X107840000Y-122150000D02*
X109000000Y-120990000D01*
X98373654Y-122150000D02*
X107840000Y-122150000D01*
X103650000Y-104700000D02*
X103650000Y-112013654D01*
X103650000Y-112013654D02*
X97690000Y-117973654D01*
X97690000Y-117973654D02*
X97690000Y-121466346D01*
X97690000Y-121466346D02*
X98373654Y-122150000D01*
%TO.N,SWD*%
X96700000Y-110000000D02*
X96700000Y-113800000D01*
X100100000Y-101099500D02*
X100100000Y-105008579D01*
X98650000Y-106458579D02*
X98650000Y-108050000D01*
X98650000Y-108050000D02*
X96700000Y-110000000D01*
X100100000Y-105008579D02*
X98650000Y-106458579D01*
%TO.N,SWCLK*%
X95900000Y-108642893D02*
X95900000Y-112973654D01*
X98895180Y-102838073D02*
X99700000Y-103642893D01*
X94903949Y-113969705D02*
X94903949Y-115596051D01*
X95900000Y-112973654D02*
X94903949Y-113969705D01*
X99700000Y-104842893D02*
X95900000Y-108642893D01*
X98895180Y-100699500D02*
X98895180Y-102838073D01*
X99700000Y-103642893D02*
X99700000Y-104842893D01*
%TO.N,I2C_SDA*%
X105246928Y-102202956D02*
X105246928Y-102264828D01*
X105246928Y-102264828D02*
X105635000Y-102652900D01*
%TO.N,I2C_SCL*%
X103931050Y-102218950D02*
X104365000Y-102652900D01*
X103931050Y-102200500D02*
X103931050Y-102218950D01*
%TO.N,QSPI_SD3*%
X115150000Y-99050000D02*
X116050000Y-98150000D01*
X111750000Y-99050000D02*
X115150000Y-99050000D01*
X111700000Y-99100000D02*
X111750000Y-99050000D01*
%TD*%
M02*
