M48
; DRILL file {KiCad 7.0.1} date Sun Aug 27 06:58:17 2023
; FORMAT={-:-/ absolute / metric / decimal}
; #@! TF.CreationDate,2023-08-27T06:58:17+02:00
; #@! TF.GenerationSoftware,Kicad,Pcbnew,7.0.1
; #@! TF.FileFunction,MixedPlating,1,6
FMAT,2
METRIC
; #@! TA.AperFunction,Plated,PTH,ViaDrill
T1C0.200
; #@! TA.AperFunction,Plated,PTH,ComponentDrill
T2C0.500
; #@! TA.AperFunction,Plated,PTH,ComponentDrill
T3C0.600
; #@! TA.AperFunction,Plated,PTH,ComponentDrill
T4C1.000
; #@! TA.AperFunction,Plated,PTH,ComponentDrill
T5C1.854
; #@! TA.AperFunction,Plated,PTH,ComponentDrill
T6C2.000
; #@! TA.AperFunction,Plated,PTH,ComponentDrill
T7C3.200
; #@! TA.AperFunction,NonPlated,NPTH,ComponentDrill
T8C0.650
; #@! TA.AperFunction,NonPlated,NPTH,ComponentDrill
T9C0.750
%
G90
G05
T1
X83.35Y-91.175
X83.8Y-91.875
X83.875Y-101.675
X83.975Y-98.3
X83.975Y-98.95
X84.0Y-101.05
X84.275Y-91.175
X84.525Y-101.675
X84.6Y-98.425
X84.6Y-99.075
X84.65Y-101.05
X84.725Y-91.875
X85.2Y-91.175
X85.65Y-91.875
X86.75Y-104.375
X87.55Y-106.95
X88.25Y-104.4
X88.575Y-106.9
X88.65Y-91.2
X89.1Y-91.9
X89.534Y-104.076
X89.575Y-91.2
X90.025Y-91.9
X90.075Y-104.7
X90.5Y-91.2
X90.6Y-104.1
X90.825Y-93.45
X90.95Y-91.9
X91.125Y-104.675
X91.492Y-96.367
X91.575Y-93.45
X91.649Y-104.1
X92.125Y-104.7
X92.325Y-93.45
X92.595Y-96.37
X92.699Y-104.081
X93.75Y-105.05
X93.75Y-107.675
X95.05Y-97.35
X95.05Y-101.85
X95.092Y-98.792
X95.096Y-98.046
X95.1Y-99.55
X95.1Y-100.3
X95.1Y-101.05
X95.1Y-102.65
X95.8Y-81.625
X95.95Y-105.15
X95.975Y-107.575
X96.546Y-103.354
X96.75Y-84.85
X96.75Y-85.775
X96.75Y-86.7
X97.45Y-84.4
X97.45Y-85.325
X97.45Y-86.25
X98.125Y-107.6
X98.15Y-105.05
X98.3Y-98.404
X98.3Y-99.325
X99.275Y-81.675
X99.399Y-101.702
X99.4Y-102.352
X99.404Y-100.404
X99.413Y-101.053
X99.424Y-108.849
X99.45Y-103.1
X99.625Y-107.125
X99.725Y-82.375
X99.924Y-95.89
X99.924Y-96.54
X99.924Y-97.189
X99.924Y-97.839
X99.95Y-95.0
X100.05Y-103.7
X100.054Y-98.475
X100.15Y-109.55
X100.2Y-81.675
X100.25Y-94.1
X100.6Y-104.25
X100.65Y-82.375
X101.1Y-93.75
X101.1Y-104.9
X101.125Y-81.675
X101.436Y-94.764
X101.575Y-82.375
X101.625Y-88.275
X102.075Y-88.975
X102.25Y-105.1
X102.5Y-92.95
X102.55Y-88.275
X102.6Y-100.175
X102.65Y-106.4
X103.0Y-88.975
X103.025Y-101.975
X103.095Y-97.347
X103.361Y-93.289
X103.55Y-92.45
X103.674Y-105.25
X103.675Y-112.9
X103.725Y-90.025
X103.75Y-110.675
X103.75Y-111.375
X103.775Y-109.925
X104.1Y-102.0
X104.25Y-93.5
X104.275Y-92.45
X104.325Y-98.55
X104.325Y-99.475
X104.325Y-100.4
X104.365Y-97.347
X104.5Y-105.25
X104.65Y-90.025
X104.665Y-106.162
X105.3Y-93.5
X105.55Y-98.9
X105.55Y-99.825
X105.55Y-100.75
X105.55Y-110.625
X105.575Y-90.025
X105.85Y-102.025
X106.024Y-104.85
X106.062Y-105.553
X106.1Y-93.5
X106.1Y-106.3
X106.275Y-94.55
X106.875Y-97.35
X107.349Y-106.425
X107.85Y-93.9
X107.95Y-82.7
X108.3Y-94.6
X108.3Y-103.25
X108.4Y-83.4
X108.75Y-103.95
X108.775Y-93.9
X108.875Y-82.7
X109.225Y-94.6
X109.225Y-103.25
X109.325Y-83.4
X109.675Y-103.95
X109.8Y-82.7
X110.2Y-103.3
X110.25Y-83.4
X110.6Y-103.95
X110.925Y-88.45
X111.162Y-89.082
X111.95Y-89.575
X112.05Y-107.725
X112.28Y-99.7
X112.28Y-100.4
X112.725Y-84.925
X112.725Y-85.85
X112.725Y-86.775
X113.0Y-97.7
X113.3Y-104.475
X113.425Y-84.475
X113.425Y-85.4
X113.425Y-86.325
X113.524Y-109.075
X113.908Y-104.247
X114.106Y-108.506
X114.225Y-109.075
X114.45Y-93.305
X114.5Y-92.375
X114.625Y-104.5
X114.797Y-108.506
X115.075Y-98.175
X115.816Y-104.736
X115.965Y-107.124
X116.278Y-104.198
X116.825Y-96.924
X116.928Y-104.214
X117.025Y-81.0
X117.025Y-81.925
X117.025Y-82.85
X117.575Y-98.224
X117.65Y-96.924
X117.725Y-80.55
X117.725Y-81.475
X117.725Y-82.4
X117.825Y-103.626
X118.075Y-109.1
X118.302Y-98.224
X118.425Y-96.924
X118.544Y-103.615
X118.687Y-109.712
X119.0Y-110.675
X119.175Y-98.224
X119.25Y-96.925
X119.3Y-106.449
X119.604Y-103.626
X119.925Y-98.224
X119.925Y-105.924
X120.35Y-111.825
X120.776Y-106.559
X120.975Y-87.35
X121.425Y-104.6
X121.425Y-106.575
X121.45Y-108.5
X121.45Y-109.775
X124.4Y-112.7
X125.5Y-99.7
X125.5Y-100.4
X125.525Y-98.3
X125.525Y-101.3
T2
X85.35Y-82.75
X85.35Y-117.25
X86.053Y-81.053
X86.053Y-84.447
X86.053Y-115.553
X86.053Y-118.947
X87.75Y-80.35
X87.75Y-85.15
X87.75Y-114.85
X87.75Y-119.65
X89.447Y-81.053
X89.447Y-84.447
X89.447Y-115.553
X89.447Y-118.947
X90.15Y-82.75
X90.15Y-117.25
X119.85Y-82.75
X119.85Y-117.25
X120.553Y-81.053
X120.553Y-84.447
X120.553Y-115.553
X120.553Y-118.947
X122.25Y-80.35
X122.25Y-85.15
X122.25Y-114.85
X122.25Y-119.65
X123.947Y-81.053
X123.947Y-84.447
X123.947Y-115.553
X123.947Y-118.947
X124.65Y-82.75
X124.65Y-117.25
T4
X94.904Y-115.596
X96.7Y-113.8
X98.84Y-118.45
X98.84Y-120.99
X101.38Y-118.45
X101.38Y-120.99
X103.92Y-118.45
X103.92Y-120.99
X106.46Y-118.45
X106.46Y-120.99
X108.86Y-91.1
X109.0Y-118.45
X109.0Y-120.99
X110.4Y-111.025
X110.4Y-113.565
X111.4Y-91.1
X111.54Y-118.45
X111.54Y-120.99
T5
X102.89Y-78.45
X107.89Y-78.45
T6
X81.74Y-100.03
X82.44Y-95.03
X82.62Y-105.31
T7
X87.75Y-82.75
X87.75Y-117.25
X122.25Y-82.75
X122.25Y-117.25
T8
X124.81Y-97.16
X124.81Y-102.94
T9
X124.875Y-90.75
X124.875Y-92.55
X124.95Y-107.45
X124.95Y-109.25
T3
G00X123.73Y-95.73
M15
G01X124.83Y-95.73
M16
G05
G00X123.73Y-104.37
M15
G01X124.83Y-104.37
M16
G05
G00X128.16Y-95.73
M15
G01X128.76Y-95.73
M16
G05
G00X128.16Y-104.37
M15
G01X128.76Y-104.37
M16
G05
T0
M30
