%TF.GenerationSoftware,KiCad,Pcbnew,7.0.1*%
%TF.CreationDate,2023-08-27T06:58:20+02:00*%
%TF.ProjectId,MTR_Tiny_MD,4d54525f-5469-46e7-995f-4d442e6b6963,rev?*%
%TF.SameCoordinates,Original*%
%TF.FileFunction,Legend,Bot*%
%TF.FilePolarity,Positive*%
%FSLAX46Y46*%
G04 Gerber Fmt 4.6, Leading zero omitted, Abs format (unit mm)*
G04 Created by KiCad (PCBNEW 7.0.1) date 2023-08-27 06:58:20*
%MOMM*%
%LPD*%
G01*
G04 APERTURE LIST*
%ADD10C,0.125000*%
%ADD11C,0.500000*%
%ADD12C,0.150000*%
%ADD13C,0.075000*%
%ADD14C,0.010000*%
%ADD15C,0.120000*%
G04 APERTURE END LIST*
D10*
X128566666Y-99631309D02*
X128566666Y-99988452D01*
X128566666Y-99988452D02*
X128590475Y-100059880D01*
X128590475Y-100059880D02*
X128638094Y-100107500D01*
X128638094Y-100107500D02*
X128709523Y-100131309D01*
X128709523Y-100131309D02*
X128757142Y-100131309D01*
X128090476Y-100131309D02*
X128328571Y-100131309D01*
X128328571Y-100131309D02*
X128328571Y-99631309D01*
X127638095Y-100083690D02*
X127661904Y-100107500D01*
X127661904Y-100107500D02*
X127733333Y-100131309D01*
X127733333Y-100131309D02*
X127780952Y-100131309D01*
X127780952Y-100131309D02*
X127852380Y-100107500D01*
X127852380Y-100107500D02*
X127899999Y-100059880D01*
X127899999Y-100059880D02*
X127923809Y-100012261D01*
X127923809Y-100012261D02*
X127947618Y-99917023D01*
X127947618Y-99917023D02*
X127947618Y-99845595D01*
X127947618Y-99845595D02*
X127923809Y-99750357D01*
X127923809Y-99750357D02*
X127899999Y-99702738D01*
X127899999Y-99702738D02*
X127852380Y-99655119D01*
X127852380Y-99655119D02*
X127780952Y-99631309D01*
X127780952Y-99631309D02*
X127733333Y-99631309D01*
X127733333Y-99631309D02*
X127661904Y-99655119D01*
X127661904Y-99655119D02*
X127638095Y-99678928D01*
X127280952Y-99631309D02*
X127280952Y-99988452D01*
X127280952Y-99988452D02*
X127304761Y-100059880D01*
X127304761Y-100059880D02*
X127352380Y-100107500D01*
X127352380Y-100107500D02*
X127423809Y-100131309D01*
X127423809Y-100131309D02*
X127471428Y-100131309D01*
X126804762Y-100131309D02*
X127042857Y-100131309D01*
X127042857Y-100131309D02*
X127042857Y-99631309D01*
X126352381Y-100083690D02*
X126376190Y-100107500D01*
X126376190Y-100107500D02*
X126447619Y-100131309D01*
X126447619Y-100131309D02*
X126495238Y-100131309D01*
X126495238Y-100131309D02*
X126566666Y-100107500D01*
X126566666Y-100107500D02*
X126614285Y-100059880D01*
X126614285Y-100059880D02*
X126638095Y-100012261D01*
X126638095Y-100012261D02*
X126661904Y-99917023D01*
X126661904Y-99917023D02*
X126661904Y-99845595D01*
X126661904Y-99845595D02*
X126638095Y-99750357D01*
X126638095Y-99750357D02*
X126614285Y-99702738D01*
X126614285Y-99702738D02*
X126566666Y-99655119D01*
X126566666Y-99655119D02*
X126495238Y-99631309D01*
X126495238Y-99631309D02*
X126447619Y-99631309D01*
X126447619Y-99631309D02*
X126376190Y-99655119D01*
X126376190Y-99655119D02*
X126352381Y-99678928D01*
X125995238Y-99631309D02*
X125995238Y-99988452D01*
X125995238Y-99988452D02*
X126019047Y-100059880D01*
X126019047Y-100059880D02*
X126066666Y-100107500D01*
X126066666Y-100107500D02*
X126138095Y-100131309D01*
X126138095Y-100131309D02*
X126185714Y-100131309D01*
X125519048Y-100131309D02*
X125757143Y-100131309D01*
X125757143Y-100131309D02*
X125757143Y-99631309D01*
X125066667Y-100083690D02*
X125090476Y-100107500D01*
X125090476Y-100107500D02*
X125161905Y-100131309D01*
X125161905Y-100131309D02*
X125209524Y-100131309D01*
X125209524Y-100131309D02*
X125280952Y-100107500D01*
X125280952Y-100107500D02*
X125328571Y-100059880D01*
X125328571Y-100059880D02*
X125352381Y-100012261D01*
X125352381Y-100012261D02*
X125376190Y-99917023D01*
X125376190Y-99917023D02*
X125376190Y-99845595D01*
X125376190Y-99845595D02*
X125352381Y-99750357D01*
X125352381Y-99750357D02*
X125328571Y-99702738D01*
X125328571Y-99702738D02*
X125280952Y-99655119D01*
X125280952Y-99655119D02*
X125209524Y-99631309D01*
X125209524Y-99631309D02*
X125161905Y-99631309D01*
X125161905Y-99631309D02*
X125090476Y-99655119D01*
X125090476Y-99655119D02*
X125066667Y-99678928D01*
D11*
X112069047Y-83060000D02*
X111795238Y-83155238D01*
X111795238Y-83155238D02*
X111319047Y-83155238D01*
X111319047Y-83155238D02*
X111116666Y-83060000D01*
X111116666Y-83060000D02*
X111009523Y-82964761D01*
X111009523Y-82964761D02*
X110890476Y-82774285D01*
X110890476Y-82774285D02*
X110866666Y-82583809D01*
X110866666Y-82583809D02*
X110938095Y-82393333D01*
X110938095Y-82393333D02*
X111021428Y-82298095D01*
X111021428Y-82298095D02*
X111200000Y-82202857D01*
X111200000Y-82202857D02*
X111569047Y-82107619D01*
X111569047Y-82107619D02*
X111747619Y-82012380D01*
X111747619Y-82012380D02*
X111830952Y-81917142D01*
X111830952Y-81917142D02*
X111902380Y-81726666D01*
X111902380Y-81726666D02*
X111878571Y-81536190D01*
X111878571Y-81536190D02*
X111759523Y-81345714D01*
X111759523Y-81345714D02*
X111652380Y-81250476D01*
X111652380Y-81250476D02*
X111450000Y-81155238D01*
X111450000Y-81155238D02*
X110973809Y-81155238D01*
X110973809Y-81155238D02*
X110700000Y-81250476D01*
X110092857Y-83155238D02*
X109926190Y-81821904D01*
X109842857Y-81155238D02*
X109950000Y-81250476D01*
X109950000Y-81250476D02*
X109866666Y-81345714D01*
X109866666Y-81345714D02*
X109759523Y-81250476D01*
X109759523Y-81250476D02*
X109842857Y-81155238D01*
X109842857Y-81155238D02*
X109866666Y-81345714D01*
X109152381Y-83155238D02*
X108985714Y-81821904D01*
X109009524Y-82012380D02*
X108902381Y-81917142D01*
X108902381Y-81917142D02*
X108700000Y-81821904D01*
X108700000Y-81821904D02*
X108414286Y-81821904D01*
X108414286Y-81821904D02*
X108235714Y-81917142D01*
X108235714Y-81917142D02*
X108164286Y-82107619D01*
X108164286Y-82107619D02*
X108295238Y-83155238D01*
X108164286Y-82107619D02*
X108045238Y-81917142D01*
X108045238Y-81917142D02*
X107842857Y-81821904D01*
X107842857Y-81821904D02*
X107557143Y-81821904D01*
X107557143Y-81821904D02*
X107378571Y-81917142D01*
X107378571Y-81917142D02*
X107307143Y-82107619D01*
X107307143Y-82107619D02*
X107438095Y-83155238D01*
X106330952Y-81821904D02*
X106580952Y-83821904D01*
X106342857Y-81917142D02*
X106140476Y-81821904D01*
X106140476Y-81821904D02*
X105759524Y-81821904D01*
X105759524Y-81821904D02*
X105580952Y-81917142D01*
X105580952Y-81917142D02*
X105497619Y-82012380D01*
X105497619Y-82012380D02*
X105426190Y-82202857D01*
X105426190Y-82202857D02*
X105497619Y-82774285D01*
X105497619Y-82774285D02*
X105616666Y-82964761D01*
X105616666Y-82964761D02*
X105723809Y-83060000D01*
X105723809Y-83060000D02*
X105926190Y-83155238D01*
X105926190Y-83155238D02*
X106307143Y-83155238D01*
X106307143Y-83155238D02*
X106485714Y-83060000D01*
X104497619Y-83155238D02*
X104676190Y-83060000D01*
X104676190Y-83060000D02*
X104747619Y-82869523D01*
X104747619Y-82869523D02*
X104533333Y-81155238D01*
X102973809Y-83060000D02*
X103176190Y-83155238D01*
X103176190Y-83155238D02*
X103557143Y-83155238D01*
X103557143Y-83155238D02*
X103735714Y-83060000D01*
X103735714Y-83060000D02*
X103807143Y-82869523D01*
X103807143Y-82869523D02*
X103711905Y-82107619D01*
X103711905Y-82107619D02*
X103592857Y-81917142D01*
X103592857Y-81917142D02*
X103390476Y-81821904D01*
X103390476Y-81821904D02*
X103009524Y-81821904D01*
X103009524Y-81821904D02*
X102830952Y-81917142D01*
X102830952Y-81917142D02*
X102759524Y-82107619D01*
X102759524Y-82107619D02*
X102783333Y-82298095D01*
X102783333Y-82298095D02*
X103759524Y-82488571D01*
X101247619Y-82107619D02*
X101914285Y-82107619D01*
X102045238Y-83155238D02*
X101795238Y-81155238D01*
X101795238Y-81155238D02*
X100842857Y-81155238D01*
X99711904Y-81155238D02*
X99330952Y-81155238D01*
X99330952Y-81155238D02*
X99152381Y-81250476D01*
X99152381Y-81250476D02*
X98985714Y-81440952D01*
X98985714Y-81440952D02*
X98938095Y-81821904D01*
X98938095Y-81821904D02*
X99021428Y-82488571D01*
X99021428Y-82488571D02*
X99164285Y-82869523D01*
X99164285Y-82869523D02*
X99378571Y-83060000D01*
X99378571Y-83060000D02*
X99580952Y-83155238D01*
X99580952Y-83155238D02*
X99961904Y-83155238D01*
X99961904Y-83155238D02*
X100140476Y-83060000D01*
X100140476Y-83060000D02*
X100307143Y-82869523D01*
X100307143Y-82869523D02*
X100354762Y-82488571D01*
X100354762Y-82488571D02*
X100271428Y-81821904D01*
X100271428Y-81821904D02*
X100128571Y-81440952D01*
X100128571Y-81440952D02*
X99914285Y-81250476D01*
X99914285Y-81250476D02*
X99711904Y-81155238D01*
X97092857Y-82964761D02*
X97200000Y-83060000D01*
X97200000Y-83060000D02*
X97497619Y-83155238D01*
X97497619Y-83155238D02*
X97688095Y-83155238D01*
X97688095Y-83155238D02*
X97961905Y-83060000D01*
X97961905Y-83060000D02*
X98128571Y-82869523D01*
X98128571Y-82869523D02*
X98200000Y-82679047D01*
X98200000Y-82679047D02*
X98247619Y-82298095D01*
X98247619Y-82298095D02*
X98211905Y-82012380D01*
X98211905Y-82012380D02*
X98069048Y-81631428D01*
X98069048Y-81631428D02*
X97950000Y-81440952D01*
X97950000Y-81440952D02*
X97735714Y-81250476D01*
X97735714Y-81250476D02*
X97438095Y-81155238D01*
X97438095Y-81155238D02*
X97247619Y-81155238D01*
X97247619Y-81155238D02*
X96973810Y-81250476D01*
X96973810Y-81250476D02*
X96890476Y-81345714D01*
D12*
%TO.C,REF\u002A\u002A*%
X111149999Y-85395095D02*
X111149999Y-84595095D01*
X111149999Y-84595095D02*
X110876189Y-84595095D01*
X110876189Y-84595095D02*
X110711904Y-84633190D01*
X110711904Y-84633190D02*
X110602380Y-84709380D01*
X110602380Y-84709380D02*
X110547618Y-84785571D01*
X110547618Y-84785571D02*
X110492856Y-84937952D01*
X110492856Y-84937952D02*
X110492856Y-85052238D01*
X110492856Y-85052238D02*
X110547618Y-85204619D01*
X110547618Y-85204619D02*
X110602380Y-85280809D01*
X110602380Y-85280809D02*
X110711904Y-85357000D01*
X110711904Y-85357000D02*
X110876189Y-85395095D01*
X110876189Y-85395095D02*
X111149999Y-85395095D01*
X109999999Y-84976047D02*
X109616666Y-84976047D01*
X109452380Y-85395095D02*
X109999999Y-85395095D01*
X109999999Y-85395095D02*
X109999999Y-84595095D01*
X109999999Y-84595095D02*
X109452380Y-84595095D01*
X109014285Y-85357000D02*
X108849999Y-85395095D01*
X108849999Y-85395095D02*
X108576190Y-85395095D01*
X108576190Y-85395095D02*
X108466666Y-85357000D01*
X108466666Y-85357000D02*
X108411904Y-85318904D01*
X108411904Y-85318904D02*
X108357142Y-85242714D01*
X108357142Y-85242714D02*
X108357142Y-85166523D01*
X108357142Y-85166523D02*
X108411904Y-85090333D01*
X108411904Y-85090333D02*
X108466666Y-85052238D01*
X108466666Y-85052238D02*
X108576190Y-85014142D01*
X108576190Y-85014142D02*
X108795237Y-84976047D01*
X108795237Y-84976047D02*
X108904761Y-84937952D01*
X108904761Y-84937952D02*
X108959523Y-84899857D01*
X108959523Y-84899857D02*
X109014285Y-84823666D01*
X109014285Y-84823666D02*
X109014285Y-84747476D01*
X109014285Y-84747476D02*
X108959523Y-84671285D01*
X108959523Y-84671285D02*
X108904761Y-84633190D01*
X108904761Y-84633190D02*
X108795237Y-84595095D01*
X108795237Y-84595095D02*
X108521428Y-84595095D01*
X108521428Y-84595095D02*
X108357142Y-84633190D01*
X107864285Y-85395095D02*
X107864285Y-84595095D01*
X106714285Y-84633190D02*
X106823809Y-84595095D01*
X106823809Y-84595095D02*
X106988095Y-84595095D01*
X106988095Y-84595095D02*
X107152380Y-84633190D01*
X107152380Y-84633190D02*
X107261904Y-84709380D01*
X107261904Y-84709380D02*
X107316666Y-84785571D01*
X107316666Y-84785571D02*
X107371428Y-84937952D01*
X107371428Y-84937952D02*
X107371428Y-85052238D01*
X107371428Y-85052238D02*
X107316666Y-85204619D01*
X107316666Y-85204619D02*
X107261904Y-85280809D01*
X107261904Y-85280809D02*
X107152380Y-85357000D01*
X107152380Y-85357000D02*
X106988095Y-85395095D01*
X106988095Y-85395095D02*
X106878571Y-85395095D01*
X106878571Y-85395095D02*
X106714285Y-85357000D01*
X106714285Y-85357000D02*
X106659523Y-85318904D01*
X106659523Y-85318904D02*
X106659523Y-85052238D01*
X106659523Y-85052238D02*
X106878571Y-85052238D01*
X106166666Y-85395095D02*
X106166666Y-84595095D01*
X106166666Y-84595095D02*
X105509523Y-85395095D01*
X105509523Y-85395095D02*
X105509523Y-84595095D01*
X104961904Y-84976047D02*
X104578571Y-84976047D01*
X104414285Y-85395095D02*
X104961904Y-85395095D01*
X104961904Y-85395095D02*
X104961904Y-84595095D01*
X104961904Y-84595095D02*
X104414285Y-84595095D01*
X103921428Y-85395095D02*
X103921428Y-84595095D01*
X103921428Y-84595095D02*
X103647618Y-84595095D01*
X103647618Y-84595095D02*
X103483333Y-84633190D01*
X103483333Y-84633190D02*
X103373809Y-84709380D01*
X103373809Y-84709380D02*
X103319047Y-84785571D01*
X103319047Y-84785571D02*
X103264285Y-84937952D01*
X103264285Y-84937952D02*
X103264285Y-85052238D01*
X103264285Y-85052238D02*
X103319047Y-85204619D01*
X103319047Y-85204619D02*
X103373809Y-85280809D01*
X103373809Y-85280809D02*
X103483333Y-85357000D01*
X103483333Y-85357000D02*
X103647618Y-85395095D01*
X103647618Y-85395095D02*
X103921428Y-85395095D01*
X102004762Y-84595095D02*
X101730952Y-85395095D01*
X101730952Y-85395095D02*
X101511905Y-84823666D01*
X101511905Y-84823666D02*
X101292857Y-85395095D01*
X101292857Y-85395095D02*
X101019048Y-84595095D01*
X100580952Y-85395095D02*
X100580952Y-84595095D01*
X100197619Y-84595095D02*
X99540476Y-84595095D01*
X99869047Y-85395095D02*
X99869047Y-84595095D01*
X99157143Y-85395095D02*
X99157143Y-84595095D01*
X99157143Y-84976047D02*
X98500000Y-84976047D01*
X98500000Y-85395095D02*
X98500000Y-84595095D01*
D13*
%TO.C,VbusMin1*%
G36*
X115951285Y-105287576D02*
G01*
X115943680Y-105302786D01*
X115938000Y-105308466D01*
X115922790Y-105316071D01*
X115854780Y-105316071D01*
X115839570Y-105308466D01*
X115833890Y-105302786D01*
X115826285Y-105287576D01*
X115826285Y-105248214D01*
X115951285Y-105248214D01*
X115951285Y-105287576D01*
G37*
G36*
X116249107Y-107186964D02*
G01*
X115450893Y-107186964D01*
X115450893Y-106830563D01*
X115650100Y-106830563D01*
X115650241Y-106830873D01*
X115650199Y-106831212D01*
X115654795Y-106840845D01*
X115659248Y-106850595D01*
X115659536Y-106850780D01*
X115659683Y-106851088D01*
X115668773Y-106856716D01*
X115677774Y-106862501D01*
X115678115Y-106862501D01*
X115678406Y-106862681D01*
X115689118Y-106862501D01*
X115951285Y-106862501D01*
X115951285Y-106916106D01*
X115955906Y-106931845D01*
X115972549Y-106946266D01*
X115994347Y-106949400D01*
X116014379Y-106940252D01*
X116026285Y-106921726D01*
X116026285Y-106827681D01*
X116027470Y-106819439D01*
X116026285Y-106816844D01*
X116026285Y-106733895D01*
X116021664Y-106718156D01*
X116005021Y-106703735D01*
X115983223Y-106700601D01*
X115963191Y-106709749D01*
X115951285Y-106728275D01*
X115951285Y-106787501D01*
X115792319Y-106787501D01*
X115793454Y-106785229D01*
X115798404Y-106776167D01*
X115798351Y-106775435D01*
X115810452Y-106751235D01*
X115813357Y-106735091D01*
X115804921Y-106714750D01*
X115786825Y-106702198D01*
X115764817Y-106701422D01*
X115745883Y-106712667D01*
X115729394Y-106745644D01*
X115707752Y-106767285D01*
X115672738Y-106790629D01*
X115667655Y-106792122D01*
X115663763Y-106796612D01*
X115663498Y-106796790D01*
X115660251Y-106800665D01*
X115653234Y-106808765D01*
X115653185Y-106809103D01*
X115652966Y-106809365D01*
X115651621Y-106819979D01*
X115650100Y-106830563D01*
X115450893Y-106830563D01*
X115450893Y-106529195D01*
X115749927Y-106529195D01*
X115751285Y-106532469D01*
X115751285Y-106565841D01*
X115750320Y-106574779D01*
X115753746Y-106581632D01*
X115755906Y-106588987D01*
X115758584Y-106591307D01*
X115765257Y-106604653D01*
X115765206Y-106606111D01*
X115770136Y-106614412D01*
X115771941Y-106618021D01*
X115772879Y-106619029D01*
X115776452Y-106625045D01*
X115780232Y-106626935D01*
X115783113Y-106630032D01*
X115789891Y-106631765D01*
X115813066Y-106643353D01*
X115820631Y-106648215D01*
X115828293Y-106648215D01*
X115835837Y-106649573D01*
X115839111Y-106648215D01*
X115994176Y-106648215D01*
X116009915Y-106643594D01*
X116024336Y-106626951D01*
X116027470Y-106605153D01*
X116018322Y-106585121D01*
X115999796Y-106573215D01*
X115840495Y-106573215D01*
X115831021Y-106568478D01*
X115826285Y-106559005D01*
X115826285Y-106533852D01*
X115833390Y-106519643D01*
X115994176Y-106519643D01*
X116009915Y-106515022D01*
X116024336Y-106498379D01*
X116027470Y-106476581D01*
X116018322Y-106456549D01*
X115999796Y-106444643D01*
X115824121Y-106444643D01*
X115820145Y-106443160D01*
X115813328Y-106444643D01*
X115783394Y-106444643D01*
X115767655Y-106449264D01*
X115753234Y-106465907D01*
X115750100Y-106487705D01*
X115757454Y-106503809D01*
X115756146Y-106506424D01*
X115751285Y-106513989D01*
X115751285Y-106521651D01*
X115749927Y-106529195D01*
X115450893Y-106529195D01*
X115450893Y-106336498D01*
X115649801Y-106336498D01*
X115650703Y-106340647D01*
X115650100Y-106344848D01*
X115651863Y-106348708D01*
X115652166Y-106352944D01*
X115653876Y-106355228D01*
X115654483Y-106358017D01*
X115657484Y-106361018D01*
X115659248Y-106364880D01*
X115662821Y-106367176D01*
X115665364Y-106370573D01*
X115668035Y-106371569D01*
X115674660Y-106378194D01*
X115679650Y-106384859D01*
X115687451Y-106387769D01*
X115694763Y-106391762D01*
X115697608Y-106391558D01*
X115700283Y-106392556D01*
X115708422Y-106390785D01*
X115716728Y-106390191D01*
X115719012Y-106388480D01*
X115721802Y-106387874D01*
X115727695Y-106381980D01*
X115734358Y-106376993D01*
X115735354Y-106374321D01*
X115737105Y-106372570D01*
X115738487Y-106372165D01*
X115743060Y-106366886D01*
X115748644Y-106362707D01*
X115750126Y-106358731D01*
X115752908Y-106355522D01*
X115753402Y-106352080D01*
X115759248Y-106364880D01*
X115777774Y-106376786D01*
X115994176Y-106376786D01*
X116009915Y-106372165D01*
X116024336Y-106355522D01*
X116027470Y-106333724D01*
X116018322Y-106313692D01*
X115999796Y-106301786D01*
X115783394Y-106301786D01*
X115767655Y-106306407D01*
X115753234Y-106323050D01*
X115753042Y-106324382D01*
X115752265Y-106323344D01*
X115751659Y-106320555D01*
X115748657Y-106317553D01*
X115746894Y-106313692D01*
X115743320Y-106311395D01*
X115740778Y-106307999D01*
X115738106Y-106307002D01*
X115731479Y-106300375D01*
X115726492Y-106293713D01*
X115718693Y-106290804D01*
X115711379Y-106286810D01*
X115708531Y-106287013D01*
X115705859Y-106286017D01*
X115697723Y-106287786D01*
X115689413Y-106288381D01*
X115687128Y-106290091D01*
X115684340Y-106290698D01*
X115678448Y-106296589D01*
X115671784Y-106301579D01*
X115670787Y-106304250D01*
X115669036Y-106306001D01*
X115667655Y-106306407D01*
X115663082Y-106311684D01*
X115657498Y-106315865D01*
X115656014Y-106319840D01*
X115653234Y-106323050D01*
X115652629Y-106327251D01*
X115650595Y-106330978D01*
X115650798Y-106333823D01*
X115649801Y-106336498D01*
X115450893Y-106336498D01*
X115450893Y-106196750D01*
X115649703Y-106196750D01*
X115650482Y-106199327D01*
X115650100Y-106201991D01*
X115653623Y-106209707D01*
X115656081Y-106217828D01*
X115658129Y-106219573D01*
X115659248Y-106222023D01*
X115666384Y-106226609D01*
X115672842Y-106232113D01*
X115675510Y-106232474D01*
X115677774Y-106233929D01*
X115686258Y-106233929D01*
X115694665Y-106235067D01*
X115697104Y-106233929D01*
X115994176Y-106233929D01*
X116009915Y-106229308D01*
X116024336Y-106212665D01*
X116027470Y-106190867D01*
X116018322Y-106170835D01*
X115999796Y-106158929D01*
X115857819Y-106158929D01*
X115918640Y-106130545D01*
X115928421Y-106126176D01*
X115931669Y-106121211D01*
X115936123Y-106117288D01*
X115937575Y-106112184D01*
X115940479Y-106107748D01*
X115940527Y-106101816D01*
X115942153Y-106096108D01*
X115940616Y-106091029D01*
X115940660Y-106085727D01*
X115937494Y-106080710D01*
X115935775Y-106075029D01*
X115931736Y-106071587D01*
X115928907Y-106067104D01*
X115923532Y-106064596D01*
X115919014Y-106060745D01*
X115913755Y-106060033D01*
X115857818Y-106033929D01*
X115994176Y-106033929D01*
X116009915Y-106029308D01*
X116024336Y-106012665D01*
X116027470Y-105990867D01*
X116018322Y-105970835D01*
X115999796Y-105958929D01*
X115691623Y-105958929D01*
X115683541Y-105957699D01*
X115675792Y-105961160D01*
X115667655Y-105963550D01*
X115665892Y-105965584D01*
X115663435Y-105966682D01*
X115658789Y-105973781D01*
X115653234Y-105980193D01*
X115652850Y-105982857D01*
X115651377Y-105985110D01*
X115651307Y-105993594D01*
X115650100Y-106001991D01*
X115651218Y-106004439D01*
X115651196Y-106007131D01*
X115655723Y-106014304D01*
X115659248Y-106022023D01*
X115661513Y-106023478D01*
X115662949Y-106025754D01*
X115670633Y-106029340D01*
X115677774Y-106033929D01*
X115680467Y-106033929D01*
X115814394Y-106096429D01*
X115675499Y-106161246D01*
X115667655Y-106163550D01*
X115662098Y-106169962D01*
X115655733Y-106175570D01*
X115654995Y-106178159D01*
X115653234Y-106180193D01*
X115652027Y-106188586D01*
X115649703Y-106196750D01*
X115450893Y-106196750D01*
X115450893Y-105786339D01*
X115749928Y-105786339D01*
X115751285Y-105789611D01*
X115751285Y-105822983D01*
X115750320Y-105831924D01*
X115753747Y-105838778D01*
X115755906Y-105846131D01*
X115758583Y-105848451D01*
X115771941Y-105875165D01*
X115783113Y-105887176D01*
X115804449Y-105892631D01*
X115825347Y-105885686D01*
X115839173Y-105868545D01*
X115841536Y-105846650D01*
X115826285Y-105816148D01*
X115826285Y-105790997D01*
X115831022Y-105781522D01*
X115838785Y-105777641D01*
X115846549Y-105781523D01*
X115851285Y-105790996D01*
X115851285Y-105822983D01*
X115850320Y-105831924D01*
X115853747Y-105838778D01*
X115855906Y-105846131D01*
X115858583Y-105848451D01*
X115865257Y-105861798D01*
X115865206Y-105863254D01*
X115870133Y-105871549D01*
X115871941Y-105875165D01*
X115872880Y-105876175D01*
X115876452Y-105882188D01*
X115880231Y-105884077D01*
X115883113Y-105887176D01*
X115889894Y-105888909D01*
X115913066Y-105900496D01*
X115920631Y-105905358D01*
X115928293Y-105905358D01*
X115935837Y-105906716D01*
X115939111Y-105905358D01*
X115943912Y-105905358D01*
X115952850Y-105906323D01*
X115959703Y-105902896D01*
X115967058Y-105900737D01*
X115969378Y-105898058D01*
X115982724Y-105891385D01*
X115984183Y-105891437D01*
X115992489Y-105886503D01*
X115996092Y-105884702D01*
X115997098Y-105883765D01*
X116003117Y-105880191D01*
X116005008Y-105876408D01*
X116008103Y-105873530D01*
X116009835Y-105866752D01*
X116021422Y-105843577D01*
X116026285Y-105836012D01*
X116026285Y-105828346D01*
X116027642Y-105820805D01*
X116026285Y-105817533D01*
X116026285Y-105769875D01*
X116027250Y-105760937D01*
X116023823Y-105754083D01*
X116021664Y-105746728D01*
X116018986Y-105744407D01*
X116005631Y-105717695D01*
X115994459Y-105705683D01*
X115973124Y-105700227D01*
X115952226Y-105707172D01*
X115938399Y-105724312D01*
X115936035Y-105746207D01*
X115951285Y-105776710D01*
X115951285Y-105816149D01*
X115946548Y-105825621D01*
X115938785Y-105829503D01*
X115931021Y-105825621D01*
X115926285Y-105816148D01*
X115926285Y-105784161D01*
X115927250Y-105775223D01*
X115923823Y-105768369D01*
X115921664Y-105761014D01*
X115918986Y-105758693D01*
X115912312Y-105745345D01*
X115912364Y-105743889D01*
X115907436Y-105735591D01*
X115905631Y-105731981D01*
X115904692Y-105730971D01*
X115901119Y-105724955D01*
X115897338Y-105723064D01*
X115894459Y-105719969D01*
X115887679Y-105718235D01*
X115864502Y-105706646D01*
X115856939Y-105701786D01*
X115849274Y-105701786D01*
X115841733Y-105700429D01*
X115838461Y-105701786D01*
X115833661Y-105701786D01*
X115824720Y-105700821D01*
X115817866Y-105704247D01*
X115810512Y-105706407D01*
X115808191Y-105709085D01*
X115794843Y-105715759D01*
X115793388Y-105715708D01*
X115785092Y-105720634D01*
X115781478Y-105722442D01*
X115780468Y-105723380D01*
X115774454Y-105726953D01*
X115772563Y-105730734D01*
X115769468Y-105733614D01*
X115767734Y-105740391D01*
X115756145Y-105763569D01*
X115751285Y-105771133D01*
X115751285Y-105778798D01*
X115749928Y-105786339D01*
X115450893Y-105786339D01*
X115450893Y-105616277D01*
X115750100Y-105616277D01*
X115759248Y-105636309D01*
X115777774Y-105648215D01*
X115953448Y-105648215D01*
X115957426Y-105649699D01*
X115964247Y-105648215D01*
X115994176Y-105648215D01*
X116009915Y-105643594D01*
X116024336Y-105626951D01*
X116027470Y-105605153D01*
X116020115Y-105589048D01*
X116021422Y-105586433D01*
X116026285Y-105578868D01*
X116026285Y-105571202D01*
X116027642Y-105563661D01*
X116026285Y-105560389D01*
X116026285Y-105527016D01*
X116027250Y-105518078D01*
X116023823Y-105511224D01*
X116021664Y-105503870D01*
X116018985Y-105501549D01*
X116012312Y-105488202D01*
X116012364Y-105486746D01*
X116007433Y-105478444D01*
X116005630Y-105474837D01*
X116004692Y-105473829D01*
X116001119Y-105467812D01*
X115997338Y-105465921D01*
X115994459Y-105462826D01*
X115987679Y-105461092D01*
X115964502Y-105449503D01*
X115956939Y-105444643D01*
X115949274Y-105444643D01*
X115941733Y-105443286D01*
X115938461Y-105444643D01*
X115783394Y-105444643D01*
X115767655Y-105449264D01*
X115753234Y-105465907D01*
X115750100Y-105487705D01*
X115759248Y-105507737D01*
X115777774Y-105519643D01*
X115937075Y-105519643D01*
X115946549Y-105524380D01*
X115951285Y-105533851D01*
X115951285Y-105559005D01*
X115944180Y-105573215D01*
X115783394Y-105573215D01*
X115767655Y-105577836D01*
X115753234Y-105594479D01*
X115750100Y-105616277D01*
X115450893Y-105616277D01*
X115450893Y-105216276D01*
X115650100Y-105216276D01*
X115659248Y-105236308D01*
X115677774Y-105248214D01*
X115751285Y-105248214D01*
X115751285Y-105294412D01*
X115750320Y-105303350D01*
X115753746Y-105310203D01*
X115755906Y-105317558D01*
X115758584Y-105319878D01*
X115767427Y-105337564D01*
X115768769Y-105343731D01*
X115776082Y-105351044D01*
X115783113Y-105358603D01*
X115783822Y-105358784D01*
X115787515Y-105362477D01*
X115790738Y-105367903D01*
X115799985Y-105372526D01*
X115809049Y-105377476D01*
X115809780Y-105377423D01*
X115827351Y-105386208D01*
X115834917Y-105391071D01*
X115842583Y-105391071D01*
X115850124Y-105392428D01*
X115853396Y-105391071D01*
X115929625Y-105391071D01*
X115938563Y-105392036D01*
X115945416Y-105388609D01*
X115952772Y-105386450D01*
X115955092Y-105383772D01*
X115972779Y-105374929D01*
X115978945Y-105373588D01*
X115986252Y-105366280D01*
X115993817Y-105359245D01*
X115993998Y-105358534D01*
X115997693Y-105354839D01*
X116003117Y-105351618D01*
X116007734Y-105342382D01*
X116012690Y-105333308D01*
X116012637Y-105332575D01*
X116021422Y-105315004D01*
X116026285Y-105307439D01*
X116026285Y-105299773D01*
X116027642Y-105292232D01*
X116026285Y-105288960D01*
X116026285Y-105241303D01*
X116027250Y-105232365D01*
X116024382Y-105226628D01*
X116027470Y-105205152D01*
X116018322Y-105185120D01*
X115999796Y-105173214D01*
X115979220Y-105173214D01*
X115973124Y-105171655D01*
X115968433Y-105173214D01*
X115803711Y-105173214D01*
X115793388Y-105172850D01*
X115792775Y-105173214D01*
X115683394Y-105173214D01*
X115667655Y-105177835D01*
X115653234Y-105194478D01*
X115650100Y-105216276D01*
X115450893Y-105216276D01*
X115450893Y-105106553D01*
X115649924Y-105106553D01*
X115653844Y-105128224D01*
X115668857Y-105144335D01*
X115690198Y-105149772D01*
X115994208Y-105048434D01*
X115998434Y-105048588D01*
X116004453Y-105045019D01*
X116005758Y-105044585D01*
X116009067Y-105042284D01*
X116017378Y-105037359D01*
X116018031Y-105036055D01*
X116019228Y-105035224D01*
X116022918Y-105026301D01*
X116027244Y-105017671D01*
X116027088Y-105016221D01*
X116027646Y-105014875D01*
X116025928Y-105005377D01*
X116024900Y-104995774D01*
X116023985Y-104994637D01*
X116023726Y-104993204D01*
X116017148Y-104986144D01*
X116011090Y-104978620D01*
X116009706Y-104978158D01*
X116008713Y-104977093D01*
X115999360Y-104974710D01*
X115695529Y-104873434D01*
X115679137Y-104872840D01*
X115660193Y-104884069D01*
X115650326Y-104903757D01*
X115652670Y-104925654D01*
X115666481Y-104942808D01*
X115870199Y-105010713D01*
X115671812Y-105076843D01*
X115658342Y-105086204D01*
X115649924Y-105106553D01*
X115450893Y-105106553D01*
X115450893Y-104663035D01*
X116249107Y-104663035D01*
X116249107Y-107186964D01*
G37*
%TO.C,Coarse1*%
G36*
X122180590Y-106096187D02*
G01*
X122176285Y-106087576D01*
X122176285Y-106048139D01*
X122181022Y-106038664D01*
X122190495Y-106033928D01*
X122193043Y-106033928D01*
X122180590Y-106096187D01*
G37*
G36*
X122296549Y-105338665D02*
G01*
X122301285Y-105348138D01*
X122301285Y-105401786D01*
X122262000Y-105401786D01*
X122262000Y-105348137D01*
X122266736Y-105338664D01*
X122276209Y-105333928D01*
X122287075Y-105333928D01*
X122296549Y-105338665D01*
G37*
G36*
X122288001Y-105070105D02*
G01*
X122293681Y-105075785D01*
X122301285Y-105090993D01*
X122301285Y-105116147D01*
X122293680Y-105131357D01*
X122288000Y-105137037D01*
X122272790Y-105144642D01*
X122204780Y-105144642D01*
X122189570Y-105137037D01*
X122183890Y-105131357D01*
X122176285Y-105116147D01*
X122176285Y-105090994D01*
X122183890Y-105075784D01*
X122189570Y-105070104D01*
X122204781Y-105062499D01*
X122272789Y-105062499D01*
X122288001Y-105070105D01*
G37*
G36*
X122599107Y-106701250D02*
G01*
X121800893Y-106701250D01*
X121800893Y-106344848D01*
X122000100Y-106344848D01*
X122000241Y-106345158D01*
X122000199Y-106345497D01*
X122004795Y-106355130D01*
X122009248Y-106364880D01*
X122009536Y-106365065D01*
X122009683Y-106365373D01*
X122018773Y-106371001D01*
X122027774Y-106376786D01*
X122028115Y-106376786D01*
X122028406Y-106376966D01*
X122039118Y-106376786D01*
X122301285Y-106376786D01*
X122301285Y-106430391D01*
X122305906Y-106446130D01*
X122322549Y-106460551D01*
X122344347Y-106463685D01*
X122364379Y-106454537D01*
X122376285Y-106436011D01*
X122376285Y-106341966D01*
X122377470Y-106333724D01*
X122376285Y-106331129D01*
X122376285Y-106248180D01*
X122371664Y-106232441D01*
X122355021Y-106218020D01*
X122333223Y-106214886D01*
X122313191Y-106224034D01*
X122301285Y-106242560D01*
X122301285Y-106301786D01*
X122142319Y-106301786D01*
X122143454Y-106299514D01*
X122148404Y-106290452D01*
X122148351Y-106289720D01*
X122160452Y-106265520D01*
X122163357Y-106249376D01*
X122154921Y-106229035D01*
X122136825Y-106216483D01*
X122114817Y-106215707D01*
X122095883Y-106226952D01*
X122079394Y-106259929D01*
X122057752Y-106281570D01*
X122022738Y-106304914D01*
X122017655Y-106306407D01*
X122013763Y-106310897D01*
X122013498Y-106311075D01*
X122010251Y-106314950D01*
X122003234Y-106323050D01*
X122003185Y-106323388D01*
X122002966Y-106323650D01*
X122001621Y-106334264D01*
X122000100Y-106344848D01*
X121800893Y-106344848D01*
X121800893Y-106043481D01*
X122099928Y-106043481D01*
X122101285Y-106046753D01*
X122101285Y-106094412D01*
X122100320Y-106103350D01*
X122103746Y-106110203D01*
X122105906Y-106117558D01*
X122108584Y-106119878D01*
X122115257Y-106133224D01*
X122115206Y-106134682D01*
X122120136Y-106142983D01*
X122121941Y-106146592D01*
X122122879Y-106147600D01*
X122126452Y-106153616D01*
X122130232Y-106155506D01*
X122133113Y-106158603D01*
X122139891Y-106160336D01*
X122163066Y-106171924D01*
X122170631Y-106176786D01*
X122178293Y-106176786D01*
X122185837Y-106178144D01*
X122189111Y-106176786D01*
X122203772Y-106176786D01*
X122208081Y-106178311D01*
X122214565Y-106176786D01*
X122215605Y-106176786D01*
X122219794Y-106175556D01*
X122229518Y-106173269D01*
X122230284Y-106172475D01*
X122231344Y-106172165D01*
X122237889Y-106164610D01*
X122244826Y-106157437D01*
X122245042Y-106156356D01*
X122245765Y-106155522D01*
X122247186Y-106145632D01*
X122269528Y-106033928D01*
X122287075Y-106033928D01*
X122296549Y-106038665D01*
X122301285Y-106048138D01*
X122301285Y-106087576D01*
X122288548Y-106113052D01*
X122285643Y-106129196D01*
X122294080Y-106149538D01*
X122312175Y-106162089D01*
X122334184Y-106162864D01*
X122353117Y-106151618D01*
X122371422Y-106115004D01*
X122376285Y-106107439D01*
X122376285Y-106099773D01*
X122377642Y-106092232D01*
X122376285Y-106088960D01*
X122376285Y-106041303D01*
X122377250Y-106032365D01*
X122373823Y-106025511D01*
X122371664Y-106018156D01*
X122368986Y-106015835D01*
X122362312Y-106002487D01*
X122362364Y-106001031D01*
X122357436Y-105992733D01*
X122355631Y-105989123D01*
X122354692Y-105988113D01*
X122351119Y-105982097D01*
X122347338Y-105980206D01*
X122344459Y-105977111D01*
X122337679Y-105975377D01*
X122314502Y-105963788D01*
X122306939Y-105958928D01*
X122299274Y-105958928D01*
X122291733Y-105957571D01*
X122288461Y-105958928D01*
X122245227Y-105958928D01*
X122240918Y-105957403D01*
X122234434Y-105958928D01*
X122183661Y-105958928D01*
X122174720Y-105957963D01*
X122167866Y-105961389D01*
X122160512Y-105963549D01*
X122158191Y-105966227D01*
X122144843Y-105972901D01*
X122143388Y-105972850D01*
X122135092Y-105977776D01*
X122131478Y-105979584D01*
X122130468Y-105980522D01*
X122124454Y-105984095D01*
X122122563Y-105987876D01*
X122119468Y-105990756D01*
X122117734Y-105997533D01*
X122106145Y-106020711D01*
X122101285Y-106028275D01*
X122101285Y-106035940D01*
X122099928Y-106043481D01*
X121800893Y-106043481D01*
X121800893Y-105800624D01*
X122099928Y-105800624D01*
X122101285Y-105803896D01*
X122101285Y-105837268D01*
X122100320Y-105846209D01*
X122103747Y-105853063D01*
X122105906Y-105860416D01*
X122108583Y-105862736D01*
X122121941Y-105889450D01*
X122133113Y-105901461D01*
X122154449Y-105906916D01*
X122175347Y-105899971D01*
X122189173Y-105882830D01*
X122191536Y-105860935D01*
X122176285Y-105830433D01*
X122176285Y-105805282D01*
X122181022Y-105795807D01*
X122188785Y-105791926D01*
X122196549Y-105795808D01*
X122201285Y-105805281D01*
X122201285Y-105837268D01*
X122200320Y-105846209D01*
X122203747Y-105853063D01*
X122205906Y-105860416D01*
X122208583Y-105862736D01*
X122215257Y-105876083D01*
X122215206Y-105877539D01*
X122220133Y-105885834D01*
X122221941Y-105889450D01*
X122222880Y-105890460D01*
X122226452Y-105896473D01*
X122230231Y-105898362D01*
X122233113Y-105901461D01*
X122239894Y-105903194D01*
X122263066Y-105914781D01*
X122270631Y-105919643D01*
X122278293Y-105919643D01*
X122285837Y-105921001D01*
X122289111Y-105919643D01*
X122293912Y-105919643D01*
X122302850Y-105920608D01*
X122309703Y-105917181D01*
X122317058Y-105915022D01*
X122319378Y-105912343D01*
X122332724Y-105905670D01*
X122334183Y-105905722D01*
X122342489Y-105900788D01*
X122346092Y-105898987D01*
X122347098Y-105898050D01*
X122353117Y-105894476D01*
X122355008Y-105890693D01*
X122358103Y-105887815D01*
X122359835Y-105881037D01*
X122371422Y-105857862D01*
X122376285Y-105850297D01*
X122376285Y-105842631D01*
X122377642Y-105835090D01*
X122376285Y-105831818D01*
X122376285Y-105784160D01*
X122377250Y-105775222D01*
X122373823Y-105768368D01*
X122371664Y-105761013D01*
X122368986Y-105758692D01*
X122355631Y-105731980D01*
X122344459Y-105719968D01*
X122323124Y-105714512D01*
X122302226Y-105721457D01*
X122288399Y-105738597D01*
X122286035Y-105760492D01*
X122301285Y-105790995D01*
X122301285Y-105830434D01*
X122296548Y-105839906D01*
X122288785Y-105843788D01*
X122281021Y-105839906D01*
X122276285Y-105830433D01*
X122276285Y-105798446D01*
X122277250Y-105789508D01*
X122273823Y-105782654D01*
X122271664Y-105775299D01*
X122268986Y-105772978D01*
X122262312Y-105759630D01*
X122262364Y-105758174D01*
X122257436Y-105749876D01*
X122255631Y-105746266D01*
X122254692Y-105745256D01*
X122251119Y-105739240D01*
X122247338Y-105737349D01*
X122244459Y-105734254D01*
X122237679Y-105732520D01*
X122214502Y-105720931D01*
X122206939Y-105716071D01*
X122199274Y-105716071D01*
X122191733Y-105714714D01*
X122188461Y-105716071D01*
X122183661Y-105716071D01*
X122174720Y-105715106D01*
X122167866Y-105718532D01*
X122160512Y-105720692D01*
X122158191Y-105723370D01*
X122144843Y-105730044D01*
X122143388Y-105729993D01*
X122135092Y-105734919D01*
X122131478Y-105736727D01*
X122130468Y-105737665D01*
X122124454Y-105741238D01*
X122122563Y-105745019D01*
X122119468Y-105747899D01*
X122117734Y-105754676D01*
X122106145Y-105777854D01*
X122101285Y-105785418D01*
X122101285Y-105793083D01*
X122099928Y-105800624D01*
X121800893Y-105800624D01*
X121800893Y-105643481D01*
X122099927Y-105643481D01*
X122101285Y-105646755D01*
X122101285Y-105673248D01*
X122105906Y-105688987D01*
X122122549Y-105703408D01*
X122144347Y-105706542D01*
X122164379Y-105697394D01*
X122176285Y-105678868D01*
X122176285Y-105648138D01*
X122183890Y-105632928D01*
X122189570Y-105627248D01*
X122204781Y-105619643D01*
X122344176Y-105619643D01*
X122359915Y-105615022D01*
X122374336Y-105598379D01*
X122377470Y-105576581D01*
X122368322Y-105556549D01*
X122349796Y-105544643D01*
X122197947Y-105544643D01*
X122189006Y-105543678D01*
X122187076Y-105544643D01*
X122133394Y-105544643D01*
X122117655Y-105549264D01*
X122103234Y-105565907D01*
X122100100Y-105587705D01*
X122109248Y-105607737D01*
X122111810Y-105609383D01*
X122106146Y-105620710D01*
X122101285Y-105628275D01*
X122101285Y-105635937D01*
X122099927Y-105643481D01*
X121800893Y-105643481D01*
X121800893Y-105343481D01*
X122099928Y-105343481D01*
X122101285Y-105346753D01*
X122101285Y-105394412D01*
X122100320Y-105403350D01*
X122103746Y-105410203D01*
X122105906Y-105417558D01*
X122108584Y-105419878D01*
X122115257Y-105433224D01*
X122115206Y-105434682D01*
X122120136Y-105442983D01*
X122121941Y-105446592D01*
X122122879Y-105447600D01*
X122126452Y-105453616D01*
X122130232Y-105455506D01*
X122133113Y-105458603D01*
X122139891Y-105460336D01*
X122163066Y-105471924D01*
X122170631Y-105476786D01*
X122178293Y-105476786D01*
X122185837Y-105478144D01*
X122189111Y-105476786D01*
X122209558Y-105476786D01*
X122219897Y-105477151D01*
X122220512Y-105476786D01*
X122323847Y-105476786D01*
X122334184Y-105477150D01*
X122334797Y-105476786D01*
X122344176Y-105476786D01*
X122359915Y-105472165D01*
X122374336Y-105455522D01*
X122377470Y-105433724D01*
X122373774Y-105425631D01*
X122376285Y-105421725D01*
X122376285Y-105414059D01*
X122377642Y-105406518D01*
X122376285Y-105403246D01*
X122376285Y-105341303D01*
X122377250Y-105332365D01*
X122373823Y-105325511D01*
X122371664Y-105318156D01*
X122368986Y-105315835D01*
X122362312Y-105302487D01*
X122362364Y-105301031D01*
X122357436Y-105292733D01*
X122355631Y-105289123D01*
X122354692Y-105288113D01*
X122351119Y-105282097D01*
X122347338Y-105280206D01*
X122344459Y-105277111D01*
X122337679Y-105275377D01*
X122314502Y-105263788D01*
X122306939Y-105258928D01*
X122299274Y-105258928D01*
X122291733Y-105257571D01*
X122288461Y-105258928D01*
X122269372Y-105258928D01*
X122260435Y-105257963D01*
X122253581Y-105261389D01*
X122246227Y-105263549D01*
X122243906Y-105266227D01*
X122230558Y-105272901D01*
X122229101Y-105272850D01*
X122220799Y-105277780D01*
X122217193Y-105279584D01*
X122216185Y-105280521D01*
X122210167Y-105284096D01*
X122208276Y-105287877D01*
X122205182Y-105290756D01*
X122203448Y-105297533D01*
X122191861Y-105320710D01*
X122187000Y-105328275D01*
X122187000Y-105335941D01*
X122185643Y-105343482D01*
X122187000Y-105346754D01*
X122187000Y-105400039D01*
X122181021Y-105397049D01*
X122176285Y-105387576D01*
X122176285Y-105348139D01*
X122189023Y-105322663D01*
X122191928Y-105306519D01*
X122183492Y-105286178D01*
X122165396Y-105273626D01*
X122143388Y-105272850D01*
X122124454Y-105284095D01*
X122106145Y-105320711D01*
X122101285Y-105328275D01*
X122101285Y-105335940D01*
X122099928Y-105343481D01*
X121800893Y-105343481D01*
X121800893Y-105086337D01*
X122099927Y-105086337D01*
X122101285Y-105089611D01*
X122101285Y-105122983D01*
X122100320Y-105131921D01*
X122103746Y-105138774D01*
X122105906Y-105146129D01*
X122108584Y-105148449D01*
X122117427Y-105166135D01*
X122118769Y-105172302D01*
X122126082Y-105179615D01*
X122133113Y-105187174D01*
X122133822Y-105187355D01*
X122137515Y-105191048D01*
X122140738Y-105196474D01*
X122149985Y-105201097D01*
X122159049Y-105206047D01*
X122159780Y-105205994D01*
X122177351Y-105214779D01*
X122184917Y-105219642D01*
X122192583Y-105219642D01*
X122200124Y-105220999D01*
X122203396Y-105219642D01*
X122279625Y-105219642D01*
X122288563Y-105220607D01*
X122295416Y-105217180D01*
X122302772Y-105215021D01*
X122305092Y-105212343D01*
X122322779Y-105203500D01*
X122328945Y-105202159D01*
X122336252Y-105194851D01*
X122343817Y-105187816D01*
X122343998Y-105187105D01*
X122347693Y-105183410D01*
X122353117Y-105180189D01*
X122357734Y-105170953D01*
X122362690Y-105161879D01*
X122362637Y-105161146D01*
X122371422Y-105143575D01*
X122376285Y-105136010D01*
X122376285Y-105128344D01*
X122377642Y-105120803D01*
X122376285Y-105117531D01*
X122376285Y-105084158D01*
X122377250Y-105075220D01*
X122373823Y-105068366D01*
X122371664Y-105061012D01*
X122368985Y-105058691D01*
X122360143Y-105041005D01*
X122358802Y-105034840D01*
X122351494Y-105027532D01*
X122344459Y-105019968D01*
X122343748Y-105019786D01*
X122340054Y-105016092D01*
X122336833Y-105010668D01*
X122327587Y-105006045D01*
X122318522Y-105001095D01*
X122317791Y-105001147D01*
X122300216Y-104992359D01*
X122292653Y-104987499D01*
X122284988Y-104987499D01*
X122277447Y-104986142D01*
X122274175Y-104987499D01*
X122197947Y-104987499D01*
X122189006Y-104986534D01*
X122182152Y-104989960D01*
X122174798Y-104992120D01*
X122172477Y-104994798D01*
X122154789Y-105003642D01*
X122148626Y-105004983D01*
X122141321Y-105012287D01*
X122133754Y-105019327D01*
X122133572Y-105020036D01*
X122129879Y-105023729D01*
X122124455Y-105026951D01*
X122119834Y-105036191D01*
X122114881Y-105045263D01*
X122114933Y-105045993D01*
X122106146Y-105063566D01*
X122101285Y-105071131D01*
X122101285Y-105078793D01*
X122099927Y-105086337D01*
X121800893Y-105086337D01*
X121800893Y-104854984D01*
X121999727Y-104854984D01*
X122002998Y-104864798D01*
X122005906Y-104874701D01*
X122006459Y-104875180D01*
X122016857Y-104906374D01*
X122018769Y-104915159D01*
X122024186Y-104920576D01*
X122028561Y-104926871D01*
X122031835Y-104928225D01*
X122044652Y-104941042D01*
X122059049Y-104948904D01*
X122081014Y-104947333D01*
X122098644Y-104934135D01*
X122106340Y-104913502D01*
X122101659Y-104891983D01*
X122085846Y-104876170D01*
X122076285Y-104847485D01*
X122076285Y-104831084D01*
X122085846Y-104802399D01*
X122103856Y-104784390D01*
X122123301Y-104774667D01*
X122171975Y-104762499D01*
X122205597Y-104762499D01*
X122254269Y-104774667D01*
X122273714Y-104784390D01*
X122291723Y-104802398D01*
X122301285Y-104831084D01*
X122301285Y-104847485D01*
X122291722Y-104876172D01*
X122279885Y-104888010D01*
X122272024Y-104902406D01*
X122273595Y-104924372D01*
X122286793Y-104942001D01*
X122307426Y-104949698D01*
X122328945Y-104945016D01*
X122349588Y-104924372D01*
X122356594Y-104918732D01*
X122359017Y-104911461D01*
X122362690Y-104904736D01*
X122362437Y-104901201D01*
X122372873Y-104869890D01*
X122376285Y-104864582D01*
X122376285Y-104854244D01*
X122376659Y-104843922D01*
X122376285Y-104843291D01*
X122376285Y-104829702D01*
X122377843Y-104823587D01*
X122374572Y-104813775D01*
X122371664Y-104803869D01*
X122371110Y-104803389D01*
X122360713Y-104772197D01*
X122358802Y-104763411D01*
X122353383Y-104757992D01*
X122349010Y-104751699D01*
X122345734Y-104750344D01*
X122325769Y-104730379D01*
X122322548Y-104724955D01*
X122313303Y-104720332D01*
X122304235Y-104715381D01*
X122303505Y-104715433D01*
X122290103Y-104708731D01*
X122287135Y-104705575D01*
X122280444Y-104703902D01*
X122279306Y-104703333D01*
X122275237Y-104702600D01*
X122225295Y-104690115D01*
X122221225Y-104687499D01*
X122214831Y-104687499D01*
X122214079Y-104687311D01*
X122209452Y-104687499D01*
X122173529Y-104687499D01*
X122168944Y-104685948D01*
X122162740Y-104687499D01*
X122161966Y-104687499D01*
X122157527Y-104688802D01*
X122107597Y-104701284D01*
X122103292Y-104700820D01*
X122097127Y-104703902D01*
X122095889Y-104704212D01*
X122092318Y-104706306D01*
X122069076Y-104717927D01*
X122062911Y-104719269D01*
X122055597Y-104726582D01*
X122048039Y-104733613D01*
X122047857Y-104734322D01*
X122027981Y-104754198D01*
X122020977Y-104759838D01*
X122018553Y-104767108D01*
X122014881Y-104773834D01*
X122015133Y-104777368D01*
X122004696Y-104808678D01*
X122001285Y-104813988D01*
X122001285Y-104824326D01*
X122000911Y-104834647D01*
X122001285Y-104835278D01*
X122001285Y-104848869D01*
X121999727Y-104854984D01*
X121800893Y-104854984D01*
X121800893Y-104448750D01*
X122599107Y-104448750D01*
X122599107Y-106701250D01*
G37*
%TO.C,Vbus1*%
G36*
X121351285Y-96991147D02*
G01*
X121343680Y-97006357D01*
X121338000Y-97012037D01*
X121322790Y-97019642D01*
X121254780Y-97019642D01*
X121239570Y-97012037D01*
X121233890Y-97006357D01*
X121226285Y-96991147D01*
X121226285Y-96951785D01*
X121351285Y-96951785D01*
X121351285Y-96991147D01*
G37*
G36*
X121649107Y-98133393D02*
G01*
X120850893Y-98133393D01*
X120850893Y-97776991D01*
X121050100Y-97776991D01*
X121050241Y-97777301D01*
X121050199Y-97777640D01*
X121054795Y-97787273D01*
X121059248Y-97797023D01*
X121059536Y-97797208D01*
X121059683Y-97797516D01*
X121068773Y-97803144D01*
X121077774Y-97808929D01*
X121078115Y-97808929D01*
X121078406Y-97809109D01*
X121089118Y-97808929D01*
X121351285Y-97808929D01*
X121351285Y-97862534D01*
X121355906Y-97878273D01*
X121372549Y-97892694D01*
X121394347Y-97895828D01*
X121414379Y-97886680D01*
X121426285Y-97868154D01*
X121426285Y-97774109D01*
X121427470Y-97765867D01*
X121426285Y-97763272D01*
X121426285Y-97680323D01*
X121421664Y-97664584D01*
X121405021Y-97650163D01*
X121383223Y-97647029D01*
X121363191Y-97656177D01*
X121351285Y-97674703D01*
X121351285Y-97733929D01*
X121192319Y-97733929D01*
X121193454Y-97731657D01*
X121198404Y-97722595D01*
X121198351Y-97721863D01*
X121210452Y-97697663D01*
X121213357Y-97681519D01*
X121204921Y-97661178D01*
X121186825Y-97648626D01*
X121164817Y-97647850D01*
X121145883Y-97659095D01*
X121129394Y-97692072D01*
X121107752Y-97713713D01*
X121072738Y-97737057D01*
X121067655Y-97738550D01*
X121063763Y-97743040D01*
X121063498Y-97743218D01*
X121060251Y-97747093D01*
X121053234Y-97755193D01*
X121053185Y-97755531D01*
X121052966Y-97755793D01*
X121051621Y-97766407D01*
X121050100Y-97776991D01*
X120850893Y-97776991D01*
X120850893Y-97489910D01*
X121149928Y-97489910D01*
X121151285Y-97493182D01*
X121151285Y-97526554D01*
X121150320Y-97535495D01*
X121153747Y-97542349D01*
X121155906Y-97549702D01*
X121158583Y-97552022D01*
X121171941Y-97578736D01*
X121183113Y-97590747D01*
X121204449Y-97596202D01*
X121225347Y-97589257D01*
X121239173Y-97572116D01*
X121241536Y-97550221D01*
X121226285Y-97519719D01*
X121226285Y-97494568D01*
X121231022Y-97485093D01*
X121238785Y-97481212D01*
X121246549Y-97485094D01*
X121251285Y-97494567D01*
X121251285Y-97526554D01*
X121250320Y-97535495D01*
X121253747Y-97542349D01*
X121255906Y-97549702D01*
X121258583Y-97552022D01*
X121265257Y-97565369D01*
X121265206Y-97566825D01*
X121270133Y-97575120D01*
X121271941Y-97578736D01*
X121272880Y-97579746D01*
X121276452Y-97585759D01*
X121280231Y-97587648D01*
X121283113Y-97590747D01*
X121289894Y-97592480D01*
X121313066Y-97604067D01*
X121320631Y-97608929D01*
X121328293Y-97608929D01*
X121335837Y-97610287D01*
X121339111Y-97608929D01*
X121343912Y-97608929D01*
X121352850Y-97609894D01*
X121359703Y-97606467D01*
X121367058Y-97604308D01*
X121369378Y-97601629D01*
X121382724Y-97594956D01*
X121384183Y-97595008D01*
X121392489Y-97590074D01*
X121396092Y-97588273D01*
X121397098Y-97587336D01*
X121403117Y-97583762D01*
X121405008Y-97579979D01*
X121408103Y-97577101D01*
X121409835Y-97570323D01*
X121421422Y-97547148D01*
X121426285Y-97539583D01*
X121426285Y-97531917D01*
X121427642Y-97524376D01*
X121426285Y-97521104D01*
X121426285Y-97473446D01*
X121427250Y-97464508D01*
X121423823Y-97457654D01*
X121421664Y-97450299D01*
X121418986Y-97447978D01*
X121405631Y-97421266D01*
X121394459Y-97409254D01*
X121373124Y-97403798D01*
X121352226Y-97410743D01*
X121338399Y-97427883D01*
X121336035Y-97449778D01*
X121351285Y-97480281D01*
X121351285Y-97519720D01*
X121346548Y-97529192D01*
X121338785Y-97533074D01*
X121331021Y-97529192D01*
X121326285Y-97519719D01*
X121326285Y-97487732D01*
X121327250Y-97478794D01*
X121323823Y-97471940D01*
X121321664Y-97464585D01*
X121318986Y-97462264D01*
X121312312Y-97448916D01*
X121312364Y-97447460D01*
X121307436Y-97439162D01*
X121305631Y-97435552D01*
X121304692Y-97434542D01*
X121301119Y-97428526D01*
X121297338Y-97426635D01*
X121294459Y-97423540D01*
X121287679Y-97421806D01*
X121264502Y-97410217D01*
X121256939Y-97405357D01*
X121249274Y-97405357D01*
X121241733Y-97404000D01*
X121238461Y-97405357D01*
X121233661Y-97405357D01*
X121224720Y-97404392D01*
X121217866Y-97407818D01*
X121210512Y-97409978D01*
X121208191Y-97412656D01*
X121194843Y-97419330D01*
X121193388Y-97419279D01*
X121185092Y-97424205D01*
X121181478Y-97426013D01*
X121180468Y-97426951D01*
X121174454Y-97430524D01*
X121172563Y-97434305D01*
X121169468Y-97437185D01*
X121167734Y-97443962D01*
X121156145Y-97467140D01*
X121151285Y-97474704D01*
X121151285Y-97482369D01*
X121149928Y-97489910D01*
X120850893Y-97489910D01*
X120850893Y-97319848D01*
X121150100Y-97319848D01*
X121159248Y-97339880D01*
X121177774Y-97351786D01*
X121353448Y-97351786D01*
X121357426Y-97353270D01*
X121364247Y-97351786D01*
X121394176Y-97351786D01*
X121409915Y-97347165D01*
X121424336Y-97330522D01*
X121427470Y-97308724D01*
X121420115Y-97292619D01*
X121421422Y-97290004D01*
X121426285Y-97282439D01*
X121426285Y-97274773D01*
X121427642Y-97267232D01*
X121426285Y-97263960D01*
X121426285Y-97230587D01*
X121427250Y-97221649D01*
X121423823Y-97214795D01*
X121421664Y-97207441D01*
X121418985Y-97205120D01*
X121412312Y-97191773D01*
X121412364Y-97190317D01*
X121407433Y-97182015D01*
X121405630Y-97178408D01*
X121404692Y-97177400D01*
X121401119Y-97171383D01*
X121397338Y-97169492D01*
X121394459Y-97166397D01*
X121387679Y-97164663D01*
X121364502Y-97153074D01*
X121356939Y-97148214D01*
X121349274Y-97148214D01*
X121341733Y-97146857D01*
X121338461Y-97148214D01*
X121183394Y-97148214D01*
X121167655Y-97152835D01*
X121153234Y-97169478D01*
X121150100Y-97191276D01*
X121159248Y-97211308D01*
X121177774Y-97223214D01*
X121337075Y-97223214D01*
X121346549Y-97227951D01*
X121351285Y-97237422D01*
X121351285Y-97262576D01*
X121344180Y-97276786D01*
X121183394Y-97276786D01*
X121167655Y-97281407D01*
X121153234Y-97298050D01*
X121150100Y-97319848D01*
X120850893Y-97319848D01*
X120850893Y-96919847D01*
X121050100Y-96919847D01*
X121059248Y-96939879D01*
X121077774Y-96951785D01*
X121151285Y-96951785D01*
X121151285Y-96997983D01*
X121150320Y-97006921D01*
X121153746Y-97013774D01*
X121155906Y-97021129D01*
X121158584Y-97023449D01*
X121167427Y-97041135D01*
X121168769Y-97047302D01*
X121176082Y-97054615D01*
X121183113Y-97062174D01*
X121183822Y-97062355D01*
X121187515Y-97066048D01*
X121190738Y-97071474D01*
X121199985Y-97076097D01*
X121209049Y-97081047D01*
X121209780Y-97080994D01*
X121227351Y-97089779D01*
X121234917Y-97094642D01*
X121242583Y-97094642D01*
X121250124Y-97095999D01*
X121253396Y-97094642D01*
X121329625Y-97094642D01*
X121338563Y-97095607D01*
X121345416Y-97092180D01*
X121352772Y-97090021D01*
X121355092Y-97087343D01*
X121372779Y-97078500D01*
X121378945Y-97077159D01*
X121386252Y-97069851D01*
X121393817Y-97062816D01*
X121393998Y-97062105D01*
X121397693Y-97058410D01*
X121403117Y-97055189D01*
X121407734Y-97045953D01*
X121412690Y-97036879D01*
X121412637Y-97036146D01*
X121421422Y-97018575D01*
X121426285Y-97011010D01*
X121426285Y-97003344D01*
X121427642Y-96995803D01*
X121426285Y-96992531D01*
X121426285Y-96944874D01*
X121427250Y-96935936D01*
X121424382Y-96930199D01*
X121427470Y-96908723D01*
X121418322Y-96888691D01*
X121399796Y-96876785D01*
X121379220Y-96876785D01*
X121373124Y-96875226D01*
X121368433Y-96876785D01*
X121203711Y-96876785D01*
X121193388Y-96876421D01*
X121192775Y-96876785D01*
X121083394Y-96876785D01*
X121067655Y-96881406D01*
X121053234Y-96898049D01*
X121050100Y-96919847D01*
X120850893Y-96919847D01*
X120850893Y-96810124D01*
X121049924Y-96810124D01*
X121053844Y-96831795D01*
X121068857Y-96847906D01*
X121090198Y-96853343D01*
X121394208Y-96752005D01*
X121398434Y-96752159D01*
X121404453Y-96748590D01*
X121405758Y-96748156D01*
X121409067Y-96745855D01*
X121417378Y-96740930D01*
X121418031Y-96739626D01*
X121419228Y-96738795D01*
X121422918Y-96729872D01*
X121427244Y-96721242D01*
X121427088Y-96719792D01*
X121427646Y-96718446D01*
X121425928Y-96708948D01*
X121424900Y-96699345D01*
X121423985Y-96698208D01*
X121423726Y-96696775D01*
X121417148Y-96689715D01*
X121411090Y-96682191D01*
X121409706Y-96681729D01*
X121408713Y-96680664D01*
X121399360Y-96678281D01*
X121095529Y-96577005D01*
X121079137Y-96576411D01*
X121060193Y-96587640D01*
X121050326Y-96607328D01*
X121052670Y-96629225D01*
X121066481Y-96646379D01*
X121270199Y-96714284D01*
X121071812Y-96780414D01*
X121058342Y-96789775D01*
X121049924Y-96810124D01*
X120850893Y-96810124D01*
X120850893Y-96366607D01*
X121649107Y-96366607D01*
X121649107Y-98133393D01*
G37*
%TO.C,VbusMax1*%
G36*
X119176785Y-105601285D02*
G01*
X119137423Y-105601285D01*
X119122212Y-105593680D01*
X119116532Y-105587999D01*
X119108928Y-105572790D01*
X119108928Y-105504780D01*
X119116533Y-105489569D01*
X119122212Y-105483890D01*
X119137423Y-105476285D01*
X119176785Y-105476285D01*
X119176785Y-105601285D01*
G37*
G36*
X118057762Y-105566736D02*
G01*
X118062499Y-105576209D01*
X118062499Y-105587075D01*
X118057761Y-105596549D01*
X118048290Y-105601285D01*
X117994642Y-105601285D01*
X117994642Y-105562000D01*
X118048290Y-105562000D01*
X118057762Y-105566736D01*
G37*
G36*
X119761965Y-105899107D02*
G01*
X117138036Y-105899107D01*
X117138036Y-105644347D01*
X117375599Y-105644347D01*
X117384747Y-105664379D01*
X117403273Y-105676285D01*
X117497318Y-105676285D01*
X117505560Y-105677470D01*
X117508155Y-105676285D01*
X117591104Y-105676285D01*
X117606843Y-105671664D01*
X117621264Y-105655021D01*
X117624130Y-105635087D01*
X117646805Y-105635087D01*
X117650982Y-105656709D01*
X117666186Y-105672640D01*
X117687590Y-105677823D01*
X117708397Y-105670611D01*
X117764283Y-105599482D01*
X117816698Y-105666192D01*
X117830056Y-105675713D01*
X117852052Y-105676770D01*
X117871129Y-105665767D01*
X117881228Y-105646198D01*
X117879145Y-105624275D01*
X117811974Y-105538784D01*
X117853575Y-105485838D01*
X117918285Y-105485838D01*
X117919642Y-105489110D01*
X117919642Y-105509558D01*
X117919277Y-105519896D01*
X117919642Y-105520511D01*
X117919642Y-105623845D01*
X117919277Y-105634183D01*
X117919642Y-105634798D01*
X117919642Y-105644176D01*
X117924263Y-105659915D01*
X117940906Y-105674336D01*
X117962704Y-105677470D01*
X117970795Y-105673774D01*
X117974702Y-105676285D01*
X117982368Y-105676285D01*
X117989909Y-105677642D01*
X117993181Y-105676285D01*
X118055126Y-105676285D01*
X118064063Y-105677250D01*
X118070915Y-105673823D01*
X118078272Y-105671664D01*
X118080592Y-105668985D01*
X118093937Y-105662313D01*
X118095396Y-105662365D01*
X118103703Y-105657430D01*
X118107305Y-105655630D01*
X118108311Y-105654693D01*
X118114330Y-105651119D01*
X118116220Y-105647338D01*
X118119316Y-105644459D01*
X118121049Y-105637679D01*
X118132638Y-105614502D01*
X118137499Y-105606939D01*
X118137499Y-105599274D01*
X118138856Y-105591733D01*
X118137499Y-105588461D01*
X118137499Y-105569372D01*
X118138464Y-105560435D01*
X118135037Y-105553581D01*
X118132878Y-105546227D01*
X118130199Y-105543906D01*
X118123525Y-105530558D01*
X118123577Y-105529102D01*
X118118647Y-105520801D01*
X118116843Y-105517193D01*
X118115905Y-105516185D01*
X118112332Y-105510168D01*
X118108549Y-105508276D01*
X118105671Y-105505182D01*
X118098892Y-105503448D01*
X118075718Y-105491862D01*
X118068153Y-105487000D01*
X118060487Y-105487000D01*
X118052946Y-105485643D01*
X118049674Y-105487000D01*
X117996389Y-105487000D01*
X117999378Y-105481021D01*
X118008851Y-105476285D01*
X118048290Y-105476285D01*
X118073764Y-105489023D01*
X118089908Y-105491929D01*
X118110250Y-105483492D01*
X118122802Y-105465397D01*
X118123578Y-105443389D01*
X118112333Y-105424455D01*
X118075717Y-105406146D01*
X118068153Y-105401285D01*
X118060491Y-105401285D01*
X118052947Y-105399927D01*
X118049673Y-105401285D01*
X118002014Y-105401285D01*
X117993077Y-105400320D01*
X117986223Y-105403746D01*
X117978869Y-105405906D01*
X117976548Y-105408584D01*
X117963200Y-105415258D01*
X117961744Y-105415207D01*
X117953443Y-105420136D01*
X117949835Y-105421941D01*
X117948827Y-105422878D01*
X117942810Y-105426452D01*
X117940918Y-105430234D01*
X117937824Y-105433113D01*
X117936090Y-105439891D01*
X117924504Y-105463065D01*
X117919642Y-105470631D01*
X117919642Y-105478297D01*
X117918285Y-105485838D01*
X117853575Y-105485838D01*
X117875672Y-105457714D01*
X117881763Y-105442484D01*
X117877586Y-105420862D01*
X117862382Y-105404930D01*
X117840978Y-105399747D01*
X117820171Y-105406959D01*
X117764283Y-105478088D01*
X117711869Y-105411378D01*
X117698512Y-105401857D01*
X117676516Y-105400800D01*
X117657439Y-105411803D01*
X117647339Y-105431372D01*
X117649423Y-105453295D01*
X117716593Y-105538785D01*
X117652895Y-105619856D01*
X117646805Y-105635087D01*
X117624130Y-105635087D01*
X117624398Y-105633223D01*
X117615250Y-105613191D01*
X117596724Y-105601285D01*
X117537498Y-105601285D01*
X117537498Y-105442319D01*
X117539769Y-105443454D01*
X117548832Y-105448404D01*
X117549563Y-105448351D01*
X117573764Y-105460452D01*
X117589908Y-105463357D01*
X117610249Y-105454921D01*
X117622801Y-105436825D01*
X117623577Y-105414817D01*
X117612332Y-105395883D01*
X117579354Y-105379394D01*
X117557713Y-105357752D01*
X117548988Y-105344665D01*
X118189932Y-105344665D01*
X118191070Y-105347104D01*
X118191070Y-105644176D01*
X118195691Y-105659915D01*
X118212334Y-105674336D01*
X118234132Y-105677470D01*
X118254164Y-105668322D01*
X118266070Y-105649796D01*
X118266070Y-105507819D01*
X118294453Y-105568640D01*
X118298823Y-105578421D01*
X118303787Y-105581669D01*
X118307711Y-105586123D01*
X118312814Y-105587575D01*
X118317251Y-105590479D01*
X118323182Y-105590527D01*
X118328891Y-105592153D01*
X118333969Y-105590616D01*
X118339272Y-105590660D01*
X118344288Y-105587494D01*
X118349970Y-105585775D01*
X118353411Y-105581736D01*
X118357895Y-105578907D01*
X118360402Y-105573532D01*
X118364254Y-105569014D01*
X118364965Y-105563755D01*
X118391070Y-105507818D01*
X118391070Y-105644176D01*
X118395691Y-105659915D01*
X118412334Y-105674336D01*
X118434132Y-105677470D01*
X118454164Y-105668322D01*
X118466070Y-105649796D01*
X118466070Y-105585837D01*
X118518283Y-105585837D01*
X118519641Y-105589111D01*
X118519641Y-105593912D01*
X118518676Y-105602850D01*
X118522102Y-105609703D01*
X118524262Y-105617058D01*
X118526940Y-105619378D01*
X118533613Y-105632724D01*
X118533562Y-105634183D01*
X118538495Y-105642489D01*
X118540297Y-105646092D01*
X118541233Y-105647098D01*
X118544808Y-105653117D01*
X118548590Y-105655008D01*
X118551469Y-105658103D01*
X118558246Y-105659835D01*
X118581421Y-105671422D01*
X118588987Y-105676285D01*
X118596653Y-105676285D01*
X118604194Y-105677642D01*
X118607466Y-105676285D01*
X118655124Y-105676285D01*
X118664062Y-105677250D01*
X118670915Y-105673823D01*
X118678271Y-105671664D01*
X118680591Y-105668986D01*
X118707304Y-105655631D01*
X118719316Y-105644459D01*
X118724772Y-105623124D01*
X118719555Y-105607425D01*
X118775302Y-105607425D01*
X118776785Y-105614244D01*
X118776785Y-105644176D01*
X118781406Y-105659915D01*
X118798049Y-105674336D01*
X118819847Y-105677470D01*
X118835951Y-105670115D01*
X118838565Y-105671422D01*
X118846131Y-105676285D01*
X118853797Y-105676285D01*
X118861338Y-105677642D01*
X118864610Y-105676285D01*
X118897983Y-105676285D01*
X118906920Y-105677250D01*
X118913772Y-105673823D01*
X118921129Y-105671664D01*
X118923449Y-105668985D01*
X118936794Y-105662313D01*
X118938253Y-105662365D01*
X118946560Y-105657430D01*
X118950162Y-105655630D01*
X118951168Y-105654693D01*
X118957187Y-105651119D01*
X118959077Y-105647338D01*
X118962173Y-105644459D01*
X118963906Y-105637679D01*
X118975495Y-105614502D01*
X118980356Y-105606939D01*
X118980356Y-105599274D01*
X118981713Y-105591733D01*
X118980356Y-105588461D01*
X118980356Y-105500123D01*
X119032570Y-105500123D01*
X119033928Y-105503397D01*
X119033928Y-105579626D01*
X119032963Y-105588564D01*
X119036389Y-105595417D01*
X119038549Y-105602772D01*
X119041227Y-105605092D01*
X119050070Y-105622778D01*
X119051411Y-105628943D01*
X119058719Y-105636251D01*
X119065756Y-105643817D01*
X119066465Y-105643998D01*
X119070158Y-105647692D01*
X119073381Y-105653117D01*
X119082611Y-105657732D01*
X119091690Y-105662690D01*
X119092423Y-105662637D01*
X119109994Y-105671422D01*
X119117560Y-105676285D01*
X119125226Y-105676285D01*
X119132767Y-105677642D01*
X119136039Y-105676285D01*
X119183698Y-105676285D01*
X119192635Y-105677250D01*
X119198370Y-105674382D01*
X119219847Y-105677470D01*
X119239879Y-105668322D01*
X119251785Y-105649796D01*
X119251785Y-105629220D01*
X119253344Y-105623124D01*
X119251785Y-105618433D01*
X119251785Y-105453741D01*
X119252150Y-105443389D01*
X119251785Y-105442774D01*
X119251785Y-105340198D01*
X119275227Y-105340198D01*
X119376564Y-105644208D01*
X119376411Y-105648433D01*
X119379978Y-105654451D01*
X119380414Y-105655758D01*
X119382718Y-105659073D01*
X119387640Y-105667377D01*
X119388942Y-105668029D01*
X119389775Y-105669228D01*
X119398702Y-105672920D01*
X119407328Y-105677244D01*
X119408777Y-105677088D01*
X119410124Y-105677646D01*
X119419621Y-105675928D01*
X119429225Y-105674900D01*
X119430360Y-105673985D01*
X119431795Y-105673726D01*
X119438858Y-105667143D01*
X119446379Y-105661089D01*
X119446839Y-105659706D01*
X119447906Y-105658713D01*
X119450289Y-105649356D01*
X119551565Y-105345529D01*
X119552159Y-105329136D01*
X119540930Y-105310192D01*
X119521242Y-105300326D01*
X119499345Y-105302670D01*
X119482191Y-105316480D01*
X119414285Y-105520199D01*
X119348156Y-105321812D01*
X119338795Y-105308342D01*
X119318446Y-105299924D01*
X119296775Y-105303844D01*
X119280664Y-105318857D01*
X119275227Y-105340198D01*
X119251785Y-105340198D01*
X119251785Y-105333394D01*
X119247164Y-105317655D01*
X119230521Y-105303234D01*
X119208723Y-105300100D01*
X119188691Y-105309248D01*
X119176785Y-105327774D01*
X119176785Y-105401285D01*
X119130586Y-105401285D01*
X119121649Y-105400320D01*
X119114795Y-105403746D01*
X119107441Y-105405906D01*
X119105120Y-105408584D01*
X119087435Y-105417426D01*
X119081267Y-105418769D01*
X119073952Y-105426084D01*
X119066396Y-105433113D01*
X119066214Y-105433823D01*
X119062523Y-105437514D01*
X119057098Y-105440737D01*
X119052469Y-105449993D01*
X119047524Y-105459051D01*
X119047576Y-105459779D01*
X119038789Y-105477352D01*
X119033928Y-105484917D01*
X119033928Y-105492579D01*
X119032570Y-105500123D01*
X118980356Y-105500123D01*
X118980356Y-105433394D01*
X118975735Y-105417655D01*
X118959092Y-105403234D01*
X118937294Y-105400100D01*
X118917262Y-105409248D01*
X118905356Y-105427774D01*
X118905356Y-105587075D01*
X118900618Y-105596549D01*
X118891147Y-105601285D01*
X118865994Y-105601285D01*
X118851785Y-105594181D01*
X118851785Y-105433394D01*
X118847164Y-105417655D01*
X118830521Y-105403234D01*
X118808723Y-105400100D01*
X118788691Y-105409248D01*
X118776785Y-105427774D01*
X118776785Y-105603449D01*
X118775302Y-105607425D01*
X118719555Y-105607425D01*
X118717827Y-105602226D01*
X118700687Y-105588399D01*
X118678792Y-105586035D01*
X118648289Y-105601285D01*
X118608850Y-105601285D01*
X118599377Y-105596548D01*
X118595495Y-105588785D01*
X118599377Y-105581022D01*
X118608851Y-105576285D01*
X118640840Y-105576285D01*
X118649777Y-105577250D01*
X118656629Y-105573823D01*
X118663986Y-105571664D01*
X118666306Y-105568985D01*
X118679651Y-105562313D01*
X118681110Y-105562365D01*
X118689417Y-105557430D01*
X118693019Y-105555630D01*
X118694025Y-105554693D01*
X118700044Y-105551119D01*
X118701934Y-105547338D01*
X118705030Y-105544459D01*
X118706763Y-105537679D01*
X118718352Y-105514502D01*
X118723213Y-105506939D01*
X118723213Y-105499274D01*
X118724570Y-105491733D01*
X118723213Y-105488461D01*
X118723213Y-105483661D01*
X118724178Y-105474720D01*
X118720751Y-105467866D01*
X118718592Y-105460512D01*
X118715913Y-105458191D01*
X118709240Y-105444845D01*
X118709292Y-105443389D01*
X118704362Y-105435088D01*
X118702557Y-105431478D01*
X118701619Y-105430470D01*
X118698047Y-105424455D01*
X118694264Y-105422563D01*
X118691385Y-105419468D01*
X118684607Y-105417734D01*
X118661431Y-105406146D01*
X118653867Y-105401285D01*
X118646205Y-105401285D01*
X118638661Y-105399927D01*
X118635387Y-105401285D01*
X118602017Y-105401285D01*
X118593076Y-105400320D01*
X118586222Y-105403746D01*
X118578868Y-105405906D01*
X118576547Y-105408584D01*
X118549834Y-105421941D01*
X118537824Y-105433113D01*
X118532368Y-105454449D01*
X118539314Y-105475347D01*
X118556455Y-105489173D01*
X118578350Y-105491536D01*
X118608851Y-105476285D01*
X118634004Y-105476285D01*
X118643475Y-105481021D01*
X118647357Y-105488785D01*
X118643475Y-105496549D01*
X118634004Y-105501285D01*
X118602017Y-105501285D01*
X118593076Y-105500320D01*
X118586222Y-105503746D01*
X118578868Y-105505906D01*
X118576547Y-105508584D01*
X118563201Y-105515257D01*
X118561745Y-105515206D01*
X118553444Y-105520135D01*
X118549834Y-105521941D01*
X118548826Y-105522878D01*
X118542811Y-105526451D01*
X118540919Y-105530233D01*
X118537824Y-105533113D01*
X118536090Y-105539890D01*
X118524502Y-105563066D01*
X118519641Y-105570631D01*
X118519641Y-105578293D01*
X118518283Y-105585837D01*
X118466070Y-105585837D01*
X118466070Y-105341623D01*
X118467300Y-105333541D01*
X118463838Y-105325792D01*
X118461449Y-105317655D01*
X118459414Y-105315892D01*
X118458317Y-105313435D01*
X118451217Y-105308789D01*
X118444806Y-105303234D01*
X118442141Y-105302850D01*
X118439889Y-105301377D01*
X118431404Y-105301307D01*
X118423008Y-105300100D01*
X118420559Y-105301218D01*
X118417868Y-105301196D01*
X118410694Y-105305723D01*
X118402976Y-105309248D01*
X118401520Y-105311513D01*
X118399245Y-105312949D01*
X118395658Y-105320633D01*
X118391070Y-105327774D01*
X118391070Y-105330467D01*
X118328569Y-105464394D01*
X118263752Y-105325499D01*
X118261449Y-105317655D01*
X118255036Y-105312098D01*
X118249429Y-105305733D01*
X118246839Y-105304995D01*
X118244806Y-105303234D01*
X118236412Y-105302027D01*
X118228249Y-105299703D01*
X118225671Y-105300482D01*
X118223008Y-105300100D01*
X118215291Y-105303623D01*
X118207171Y-105306081D01*
X118205425Y-105308129D01*
X118202976Y-105309248D01*
X118198389Y-105316384D01*
X118192886Y-105322842D01*
X118192524Y-105325510D01*
X118191070Y-105327774D01*
X118191070Y-105336258D01*
X118189932Y-105344665D01*
X117548988Y-105344665D01*
X117534369Y-105322738D01*
X117532877Y-105317655D01*
X117528386Y-105313763D01*
X117528209Y-105313498D01*
X117524333Y-105310251D01*
X117516234Y-105303234D01*
X117515895Y-105303185D01*
X117515634Y-105302966D01*
X117505019Y-105301621D01*
X117494436Y-105300100D01*
X117494125Y-105300241D01*
X117493787Y-105300199D01*
X117484153Y-105304795D01*
X117474404Y-105309248D01*
X117474218Y-105309536D01*
X117473911Y-105309683D01*
X117468282Y-105318773D01*
X117462498Y-105327774D01*
X117462498Y-105328115D01*
X117462318Y-105328406D01*
X117462498Y-105339118D01*
X117462498Y-105601285D01*
X117408893Y-105601285D01*
X117393154Y-105605906D01*
X117378733Y-105622549D01*
X117375599Y-105644347D01*
X117138036Y-105644347D01*
X117138036Y-105100893D01*
X119761965Y-105100893D01*
X119761965Y-105899107D01*
G37*
D12*
%TO.C,U6*%
X104462619Y-99238095D02*
X105272142Y-99238095D01*
X105272142Y-99238095D02*
X105367380Y-99285714D01*
X105367380Y-99285714D02*
X105415000Y-99333333D01*
X105415000Y-99333333D02*
X105462619Y-99428571D01*
X105462619Y-99428571D02*
X105462619Y-99619047D01*
X105462619Y-99619047D02*
X105415000Y-99714285D01*
X105415000Y-99714285D02*
X105367380Y-99761904D01*
X105367380Y-99761904D02*
X105272142Y-99809523D01*
X105272142Y-99809523D02*
X104462619Y-99809523D01*
X104462619Y-100714285D02*
X104462619Y-100523809D01*
X104462619Y-100523809D02*
X104510238Y-100428571D01*
X104510238Y-100428571D02*
X104557857Y-100380952D01*
X104557857Y-100380952D02*
X104700714Y-100285714D01*
X104700714Y-100285714D02*
X104891190Y-100238095D01*
X104891190Y-100238095D02*
X105272142Y-100238095D01*
X105272142Y-100238095D02*
X105367380Y-100285714D01*
X105367380Y-100285714D02*
X105415000Y-100333333D01*
X105415000Y-100333333D02*
X105462619Y-100428571D01*
X105462619Y-100428571D02*
X105462619Y-100619047D01*
X105462619Y-100619047D02*
X105415000Y-100714285D01*
X105415000Y-100714285D02*
X105367380Y-100761904D01*
X105367380Y-100761904D02*
X105272142Y-100809523D01*
X105272142Y-100809523D02*
X105034047Y-100809523D01*
X105034047Y-100809523D02*
X104938809Y-100761904D01*
X104938809Y-100761904D02*
X104891190Y-100714285D01*
X104891190Y-100714285D02*
X104843571Y-100619047D01*
X104843571Y-100619047D02*
X104843571Y-100428571D01*
X104843571Y-100428571D02*
X104891190Y-100333333D01*
X104891190Y-100333333D02*
X104938809Y-100285714D01*
X104938809Y-100285714D02*
X105034047Y-100238095D01*
X101762619Y-96625000D02*
X102000714Y-96625000D01*
X101905476Y-96386905D02*
X102000714Y-96625000D01*
X102000714Y-96625000D02*
X101905476Y-96863095D01*
X102191190Y-96482143D02*
X102000714Y-96625000D01*
X102000714Y-96625000D02*
X102191190Y-96767857D01*
X101762619Y-96625000D02*
X102000714Y-96625000D01*
X101905476Y-96386905D02*
X102000714Y-96625000D01*
X102000714Y-96625000D02*
X101905476Y-96863095D01*
X102191190Y-96482143D02*
X102000714Y-96625000D01*
X102000714Y-96625000D02*
X102191190Y-96767857D01*
%TO.C,REF\u002A\u002A*%
D14*
X107254345Y-85740473D02*
X107313308Y-85751875D01*
X107345472Y-85760603D01*
X107422863Y-85794713D01*
X107489005Y-85842979D01*
X107543147Y-85902927D01*
X107584536Y-85972084D01*
X107612422Y-86047978D01*
X107626054Y-86128133D01*
X107624678Y-86210079D01*
X107607544Y-86291340D01*
X107573901Y-86369445D01*
X107522996Y-86441920D01*
X107506259Y-86459425D01*
X107452479Y-86502134D01*
X107388835Y-86538328D01*
X107322839Y-86563446D01*
X107311009Y-86566420D01*
X107248445Y-86574705D01*
X107178438Y-86574591D01*
X107109808Y-86566489D01*
X107051372Y-86550809D01*
X107043966Y-86547878D01*
X106967675Y-86506496D01*
X106900853Y-86449861D01*
X106846924Y-86381455D01*
X106809313Y-86304760D01*
X106801303Y-86276114D01*
X106792876Y-86232351D01*
X106787457Y-86187920D01*
X106787930Y-86113051D01*
X106805382Y-86026201D01*
X106839942Y-85946878D01*
X106890028Y-85877196D01*
X106954055Y-85819269D01*
X107030440Y-85775212D01*
X107117600Y-85747137D01*
X107157854Y-85739928D01*
X107205441Y-85736561D01*
X107254345Y-85740473D01*
G36*
X107254345Y-85740473D02*
G01*
X107313308Y-85751875D01*
X107345472Y-85760603D01*
X107422863Y-85794713D01*
X107489005Y-85842979D01*
X107543147Y-85902927D01*
X107584536Y-85972084D01*
X107612422Y-86047978D01*
X107626054Y-86128133D01*
X107624678Y-86210079D01*
X107607544Y-86291340D01*
X107573901Y-86369445D01*
X107522996Y-86441920D01*
X107506259Y-86459425D01*
X107452479Y-86502134D01*
X107388835Y-86538328D01*
X107322839Y-86563446D01*
X107311009Y-86566420D01*
X107248445Y-86574705D01*
X107178438Y-86574591D01*
X107109808Y-86566489D01*
X107051372Y-86550809D01*
X107043966Y-86547878D01*
X106967675Y-86506496D01*
X106900853Y-86449861D01*
X106846924Y-86381455D01*
X106809313Y-86304760D01*
X106801303Y-86276114D01*
X106792876Y-86232351D01*
X106787457Y-86187920D01*
X106787930Y-86113051D01*
X106805382Y-86026201D01*
X106839942Y-85946878D01*
X106890028Y-85877196D01*
X106954055Y-85819269D01*
X107030440Y-85775212D01*
X107117600Y-85747137D01*
X107157854Y-85739928D01*
X107205441Y-85736561D01*
X107254345Y-85740473D01*
G37*
X100788234Y-89026166D02*
X100787324Y-89092674D01*
X100784263Y-89180016D01*
X100779477Y-89260549D01*
X100773076Y-89329786D01*
X100765169Y-89383240D01*
X100732324Y-89521686D01*
X100681164Y-89671784D01*
X100616590Y-89806901D01*
X100538429Y-89927341D01*
X100446508Y-90033406D01*
X100340653Y-90125399D01*
X100302522Y-90153085D01*
X100220622Y-90204511D01*
X100137563Y-90244364D01*
X100048693Y-90274355D01*
X99949363Y-90296198D01*
X99834919Y-90311605D01*
X99833327Y-90311765D01*
X99810815Y-90313208D01*
X99783839Y-90313150D01*
X99748466Y-90311401D01*
X99700763Y-90307773D01*
X99636799Y-90302076D01*
X99600242Y-90297709D01*
X99486049Y-90272447D01*
X99372712Y-90231053D01*
X99265848Y-90175853D01*
X99171076Y-90109175D01*
X99103399Y-90053353D01*
X99103399Y-90257000D01*
X98220092Y-90257000D01*
X98245410Y-90219691D01*
X98270726Y-90171183D01*
X98293361Y-90102291D01*
X98311154Y-90017171D01*
X98312320Y-90001338D01*
X98313518Y-89965190D01*
X98314641Y-89909916D01*
X98315684Y-89836138D01*
X98316645Y-89744477D01*
X98317520Y-89635556D01*
X98318210Y-89525352D01*
X99154199Y-89525352D01*
X99197379Y-89556840D01*
X99207972Y-89564404D01*
X99306018Y-89620725D01*
X99413279Y-89658956D01*
X99501554Y-89674776D01*
X99588103Y-89674377D01*
X99666455Y-89656661D01*
X99735365Y-89621917D01*
X99793588Y-89570435D01*
X99804212Y-89557691D01*
X99848635Y-89486586D01*
X99883378Y-89397754D01*
X99908416Y-89291322D01*
X99923726Y-89167417D01*
X99929284Y-89026166D01*
X99925066Y-88867696D01*
X99920314Y-88798867D01*
X99903668Y-88661654D01*
X99878340Y-88542591D01*
X99844211Y-88441471D01*
X99801160Y-88358087D01*
X99749067Y-88292229D01*
X99687811Y-88243690D01*
X99617272Y-88212262D01*
X99537329Y-88197737D01*
X99480990Y-88196826D01*
X99384957Y-88210659D01*
X99290711Y-88244298D01*
X99197379Y-88297998D01*
X99154199Y-88327576D01*
X99154199Y-89525352D01*
X98318210Y-89525352D01*
X98318306Y-89509994D01*
X98318999Y-89368415D01*
X98319596Y-89211440D01*
X98320094Y-89039690D01*
X98320488Y-88853788D01*
X98320777Y-88654354D01*
X98320955Y-88442011D01*
X98321021Y-88217380D01*
X98321079Y-86477480D01*
X99258137Y-86477480D01*
X99239706Y-86505420D01*
X99215756Y-86543529D01*
X99190305Y-86592741D01*
X99174224Y-86639795D01*
X99164566Y-86692018D01*
X99164277Y-86694461D01*
X99162363Y-86722218D01*
X99160569Y-86767662D01*
X99158935Y-86828497D01*
X99157498Y-86902427D01*
X99156298Y-86987156D01*
X99155375Y-87080387D01*
X99154767Y-87179825D01*
X99154513Y-87283173D01*
X99154199Y-87799306D01*
X99219322Y-87752836D01*
X99314815Y-87693728D01*
X99422411Y-87646563D01*
X99540392Y-87613652D01*
X99671694Y-87593963D01*
X99681617Y-87593049D01*
X99822881Y-87589982D01*
X99957948Y-87605853D01*
X100085999Y-87640378D01*
X100206214Y-87693273D01*
X100317773Y-87764255D01*
X100419856Y-87853039D01*
X100448592Y-87883192D01*
X100534834Y-87991919D01*
X100608527Y-88115572D01*
X100669790Y-88254453D01*
X100718741Y-88408862D01*
X100755500Y-88579100D01*
X100780186Y-88765468D01*
X100785068Y-88834681D01*
X100787835Y-88915519D01*
X100788551Y-89003013D01*
X100788234Y-89026166D01*
G36*
X100788234Y-89026166D02*
G01*
X100787324Y-89092674D01*
X100784263Y-89180016D01*
X100779477Y-89260549D01*
X100773076Y-89329786D01*
X100765169Y-89383240D01*
X100732324Y-89521686D01*
X100681164Y-89671784D01*
X100616590Y-89806901D01*
X100538429Y-89927341D01*
X100446508Y-90033406D01*
X100340653Y-90125399D01*
X100302522Y-90153085D01*
X100220622Y-90204511D01*
X100137563Y-90244364D01*
X100048693Y-90274355D01*
X99949363Y-90296198D01*
X99834919Y-90311605D01*
X99833327Y-90311765D01*
X99810815Y-90313208D01*
X99783839Y-90313150D01*
X99748466Y-90311401D01*
X99700763Y-90307773D01*
X99636799Y-90302076D01*
X99600242Y-90297709D01*
X99486049Y-90272447D01*
X99372712Y-90231053D01*
X99265848Y-90175853D01*
X99171076Y-90109175D01*
X99103399Y-90053353D01*
X99103399Y-90257000D01*
X98220092Y-90257000D01*
X98245410Y-90219691D01*
X98270726Y-90171183D01*
X98293361Y-90102291D01*
X98311154Y-90017171D01*
X98312320Y-90001338D01*
X98313518Y-89965190D01*
X98314641Y-89909916D01*
X98315684Y-89836138D01*
X98316645Y-89744477D01*
X98317520Y-89635556D01*
X98318210Y-89525352D01*
X99154199Y-89525352D01*
X99197379Y-89556840D01*
X99207972Y-89564404D01*
X99306018Y-89620725D01*
X99413279Y-89658956D01*
X99501554Y-89674776D01*
X99588103Y-89674377D01*
X99666455Y-89656661D01*
X99735365Y-89621917D01*
X99793588Y-89570435D01*
X99804212Y-89557691D01*
X99848635Y-89486586D01*
X99883378Y-89397754D01*
X99908416Y-89291322D01*
X99923726Y-89167417D01*
X99929284Y-89026166D01*
X99925066Y-88867696D01*
X99920314Y-88798867D01*
X99903668Y-88661654D01*
X99878340Y-88542591D01*
X99844211Y-88441471D01*
X99801160Y-88358087D01*
X99749067Y-88292229D01*
X99687811Y-88243690D01*
X99617272Y-88212262D01*
X99537329Y-88197737D01*
X99480990Y-88196826D01*
X99384957Y-88210659D01*
X99290711Y-88244298D01*
X99197379Y-88297998D01*
X99154199Y-88327576D01*
X99154199Y-89525352D01*
X98318210Y-89525352D01*
X98318306Y-89509994D01*
X98318999Y-89368415D01*
X98319596Y-89211440D01*
X98320094Y-89039690D01*
X98320488Y-88853788D01*
X98320777Y-88654354D01*
X98320955Y-88442011D01*
X98321021Y-88217380D01*
X98321079Y-86477480D01*
X99258137Y-86477480D01*
X99239706Y-86505420D01*
X99215756Y-86543529D01*
X99190305Y-86592741D01*
X99174224Y-86639795D01*
X99164566Y-86692018D01*
X99164277Y-86694461D01*
X99162363Y-86722218D01*
X99160569Y-86767662D01*
X99158935Y-86828497D01*
X99157498Y-86902427D01*
X99156298Y-86987156D01*
X99155375Y-87080387D01*
X99154767Y-87179825D01*
X99154513Y-87283173D01*
X99154199Y-87799306D01*
X99219322Y-87752836D01*
X99314815Y-87693728D01*
X99422411Y-87646563D01*
X99540392Y-87613652D01*
X99671694Y-87593963D01*
X99681617Y-87593049D01*
X99822881Y-87589982D01*
X99957948Y-87605853D01*
X100085999Y-87640378D01*
X100206214Y-87693273D01*
X100317773Y-87764255D01*
X100419856Y-87853039D01*
X100448592Y-87883192D01*
X100534834Y-87991919D01*
X100608527Y-88115572D01*
X100669790Y-88254453D01*
X100718741Y-88408862D01*
X100755500Y-88579100D01*
X100780186Y-88765468D01*
X100785068Y-88834681D01*
X100787835Y-88915519D01*
X100788551Y-89003013D01*
X100788234Y-89026166D01*
G37*
X104638944Y-86645031D02*
X104807805Y-86666224D01*
X104972327Y-86706005D01*
X105131136Y-86764171D01*
X105282858Y-86840521D01*
X105426121Y-86934856D01*
X105432090Y-86939321D01*
X105576320Y-87059175D01*
X105703668Y-87189580D01*
X105814345Y-87330920D01*
X105908560Y-87483581D01*
X105986523Y-87647945D01*
X106048444Y-87824399D01*
X106094533Y-88013326D01*
X106125000Y-88215112D01*
X106126871Y-88234939D01*
X106130502Y-88299717D01*
X106132247Y-88377953D01*
X106132220Y-88464827D01*
X106130537Y-88555515D01*
X106127313Y-88645199D01*
X106122664Y-88729055D01*
X106116705Y-88802262D01*
X106109553Y-88860000D01*
X106098629Y-88922597D01*
X106054409Y-89109025D01*
X105994478Y-89286883D01*
X105919609Y-89454759D01*
X105830574Y-89611242D01*
X105728147Y-89754921D01*
X105613100Y-89884386D01*
X105486205Y-89998225D01*
X105391772Y-90067933D01*
X105249180Y-90153507D01*
X105099503Y-90220519D01*
X104941187Y-90269627D01*
X104772679Y-90301493D01*
X104742896Y-90305248D01*
X104554106Y-90317299D01*
X104363660Y-90309575D01*
X104173428Y-90282232D01*
X103985279Y-90235427D01*
X103956026Y-90225195D01*
X103913828Y-90208379D01*
X103862357Y-90186555D01*
X103804406Y-90161031D01*
X103742767Y-90133117D01*
X103680229Y-90104123D01*
X103619585Y-90075357D01*
X103563627Y-90048130D01*
X103515145Y-90023751D01*
X103476931Y-90003529D01*
X103451776Y-89988773D01*
X103442471Y-89980794D01*
X103443308Y-89978893D01*
X103452155Y-89963032D01*
X103469516Y-89933143D01*
X103493968Y-89891596D01*
X103524089Y-89840766D01*
X103558457Y-89783023D01*
X103595651Y-89720740D01*
X103634249Y-89656289D01*
X103672829Y-89592044D01*
X103709969Y-89530375D01*
X103744247Y-89473656D01*
X103774241Y-89424259D01*
X103798530Y-89384555D01*
X103815692Y-89356918D01*
X103824304Y-89343719D01*
X103826985Y-89344624D01*
X103841496Y-89355570D01*
X103865478Y-89376192D01*
X103895522Y-89403621D01*
X103913046Y-89419663D01*
X104018828Y-89502737D01*
X104128137Y-89566702D01*
X104239539Y-89611897D01*
X104351604Y-89638662D01*
X104462898Y-89647335D01*
X104571989Y-89638254D01*
X104677446Y-89611759D01*
X104777836Y-89568188D01*
X104871727Y-89507879D01*
X104957687Y-89431173D01*
X105034283Y-89338407D01*
X105100083Y-89229920D01*
X105153655Y-89106050D01*
X105161893Y-89081899D01*
X105190686Y-88976758D01*
X105213804Y-88857518D01*
X105230757Y-88728623D01*
X105241052Y-88594514D01*
X105244198Y-88459635D01*
X105239704Y-88328428D01*
X105238111Y-88305072D01*
X105231750Y-88226503D01*
X105224217Y-88160077D01*
X105214520Y-88099314D01*
X105201667Y-88037733D01*
X105184665Y-87968852D01*
X105169243Y-87913471D01*
X105120835Y-87776759D01*
X105062255Y-87657068D01*
X104993731Y-87554587D01*
X104915494Y-87469504D01*
X104827770Y-87402008D01*
X104730790Y-87352288D01*
X104624783Y-87320531D01*
X104509976Y-87306926D01*
X104386599Y-87311661D01*
X104382492Y-87312121D01*
X104264259Y-87334760D01*
X104156500Y-87374657D01*
X104058320Y-87432231D01*
X103968828Y-87507901D01*
X103961606Y-87515029D01*
X103935223Y-87540259D01*
X103915428Y-87557937D01*
X103906055Y-87564600D01*
X103904180Y-87562703D01*
X103892590Y-87547418D01*
X103871923Y-87518713D01*
X103843755Y-87478878D01*
X103809667Y-87430204D01*
X103771235Y-87374980D01*
X103730038Y-87315498D01*
X103687654Y-87254048D01*
X103645662Y-87192920D01*
X103605640Y-87134406D01*
X103569165Y-87080796D01*
X103537816Y-87034379D01*
X103513171Y-86997448D01*
X103496809Y-86972291D01*
X103490307Y-86961201D01*
X103490909Y-86958510D01*
X103503703Y-86949335D01*
X103528079Y-86939829D01*
X103546113Y-86933113D01*
X103580873Y-86918274D01*
X103626716Y-86897560D01*
X103679820Y-86872704D01*
X103736359Y-86845439D01*
X103775935Y-86826473D01*
X103841511Y-86796487D01*
X103906343Y-86768364D01*
X103964657Y-86744583D01*
X104010679Y-86727625D01*
X104120055Y-86694981D01*
X104293695Y-86659208D01*
X104467116Y-86642625D01*
X104638944Y-86645031D01*
G36*
X104638944Y-86645031D02*
G01*
X104807805Y-86666224D01*
X104972327Y-86706005D01*
X105131136Y-86764171D01*
X105282858Y-86840521D01*
X105426121Y-86934856D01*
X105432090Y-86939321D01*
X105576320Y-87059175D01*
X105703668Y-87189580D01*
X105814345Y-87330920D01*
X105908560Y-87483581D01*
X105986523Y-87647945D01*
X106048444Y-87824399D01*
X106094533Y-88013326D01*
X106125000Y-88215112D01*
X106126871Y-88234939D01*
X106130502Y-88299717D01*
X106132247Y-88377953D01*
X106132220Y-88464827D01*
X106130537Y-88555515D01*
X106127313Y-88645199D01*
X106122664Y-88729055D01*
X106116705Y-88802262D01*
X106109553Y-88860000D01*
X106098629Y-88922597D01*
X106054409Y-89109025D01*
X105994478Y-89286883D01*
X105919609Y-89454759D01*
X105830574Y-89611242D01*
X105728147Y-89754921D01*
X105613100Y-89884386D01*
X105486205Y-89998225D01*
X105391772Y-90067933D01*
X105249180Y-90153507D01*
X105099503Y-90220519D01*
X104941187Y-90269627D01*
X104772679Y-90301493D01*
X104742896Y-90305248D01*
X104554106Y-90317299D01*
X104363660Y-90309575D01*
X104173428Y-90282232D01*
X103985279Y-90235427D01*
X103956026Y-90225195D01*
X103913828Y-90208379D01*
X103862357Y-90186555D01*
X103804406Y-90161031D01*
X103742767Y-90133117D01*
X103680229Y-90104123D01*
X103619585Y-90075357D01*
X103563627Y-90048130D01*
X103515145Y-90023751D01*
X103476931Y-90003529D01*
X103451776Y-89988773D01*
X103442471Y-89980794D01*
X103443308Y-89978893D01*
X103452155Y-89963032D01*
X103469516Y-89933143D01*
X103493968Y-89891596D01*
X103524089Y-89840766D01*
X103558457Y-89783023D01*
X103595651Y-89720740D01*
X103634249Y-89656289D01*
X103672829Y-89592044D01*
X103709969Y-89530375D01*
X103744247Y-89473656D01*
X103774241Y-89424259D01*
X103798530Y-89384555D01*
X103815692Y-89356918D01*
X103824304Y-89343719D01*
X103826985Y-89344624D01*
X103841496Y-89355570D01*
X103865478Y-89376192D01*
X103895522Y-89403621D01*
X103913046Y-89419663D01*
X104018828Y-89502737D01*
X104128137Y-89566702D01*
X104239539Y-89611897D01*
X104351604Y-89638662D01*
X104462898Y-89647335D01*
X104571989Y-89638254D01*
X104677446Y-89611759D01*
X104777836Y-89568188D01*
X104871727Y-89507879D01*
X104957687Y-89431173D01*
X105034283Y-89338407D01*
X105100083Y-89229920D01*
X105153655Y-89106050D01*
X105161893Y-89081899D01*
X105190686Y-88976758D01*
X105213804Y-88857518D01*
X105230757Y-88728623D01*
X105241052Y-88594514D01*
X105244198Y-88459635D01*
X105239704Y-88328428D01*
X105238111Y-88305072D01*
X105231750Y-88226503D01*
X105224217Y-88160077D01*
X105214520Y-88099314D01*
X105201667Y-88037733D01*
X105184665Y-87968852D01*
X105169243Y-87913471D01*
X105120835Y-87776759D01*
X105062255Y-87657068D01*
X104993731Y-87554587D01*
X104915494Y-87469504D01*
X104827770Y-87402008D01*
X104730790Y-87352288D01*
X104624783Y-87320531D01*
X104509976Y-87306926D01*
X104386599Y-87311661D01*
X104382492Y-87312121D01*
X104264259Y-87334760D01*
X104156500Y-87374657D01*
X104058320Y-87432231D01*
X103968828Y-87507901D01*
X103961606Y-87515029D01*
X103935223Y-87540259D01*
X103915428Y-87557937D01*
X103906055Y-87564600D01*
X103904180Y-87562703D01*
X103892590Y-87547418D01*
X103871923Y-87518713D01*
X103843755Y-87478878D01*
X103809667Y-87430204D01*
X103771235Y-87374980D01*
X103730038Y-87315498D01*
X103687654Y-87254048D01*
X103645662Y-87192920D01*
X103605640Y-87134406D01*
X103569165Y-87080796D01*
X103537816Y-87034379D01*
X103513171Y-86997448D01*
X103496809Y-86972291D01*
X103490307Y-86961201D01*
X103490909Y-86958510D01*
X103503703Y-86949335D01*
X103528079Y-86939829D01*
X103546113Y-86933113D01*
X103580873Y-86918274D01*
X103626716Y-86897560D01*
X103679820Y-86872704D01*
X103736359Y-86845439D01*
X103775935Y-86826473D01*
X103841511Y-86796487D01*
X103906343Y-86768364D01*
X103964657Y-86744583D01*
X104010679Y-86727625D01*
X104120055Y-86694981D01*
X104293695Y-86659208D01*
X104467116Y-86642625D01*
X104638944Y-86645031D01*
G37*
X103436062Y-89430673D02*
X103435925Y-89459780D01*
X103431216Y-89558929D01*
X103418835Y-89646364D01*
X103397294Y-89728150D01*
X103365108Y-89810354D01*
X103320786Y-89899040D01*
X103265190Y-89983342D01*
X103189875Y-90064976D01*
X103099941Y-90137465D01*
X102997800Y-90199358D01*
X102885865Y-90249205D01*
X102766546Y-90285557D01*
X102642256Y-90306964D01*
X102534266Y-90311939D01*
X102408868Y-90303514D01*
X102285439Y-90281232D01*
X102171197Y-90246026D01*
X102140780Y-90233122D01*
X102082394Y-90203586D01*
X102022842Y-90168557D01*
X101968895Y-90132132D01*
X101927324Y-90098412D01*
X101924544Y-90095847D01*
X101905770Y-90080421D01*
X101894304Y-90074120D01*
X101892783Y-90076241D01*
X101889941Y-90093536D01*
X101887974Y-90124467D01*
X101887239Y-90164472D01*
X101887239Y-90165273D01*
X101886538Y-90210055D01*
X101884048Y-90238403D01*
X101879135Y-90254116D01*
X101871169Y-90260992D01*
X101869753Y-90261349D01*
X101851626Y-90262834D01*
X101816437Y-90264052D01*
X101766857Y-90265009D01*
X101705556Y-90265713D01*
X101635203Y-90266171D01*
X101558468Y-90266389D01*
X101478022Y-90266375D01*
X101396535Y-90266136D01*
X101316677Y-90265678D01*
X101241118Y-90265010D01*
X101172527Y-90264137D01*
X101113576Y-90263068D01*
X101066934Y-90261808D01*
X101035271Y-90260366D01*
X101021257Y-90258748D01*
X101014773Y-90255484D01*
X101011112Y-90247666D01*
X101017181Y-90232763D01*
X101034117Y-90206122D01*
X101041422Y-90195260D01*
X101051679Y-90179771D01*
X101060625Y-90164851D01*
X101068361Y-90149108D01*
X101074991Y-90131149D01*
X101080618Y-90109581D01*
X101085343Y-90083013D01*
X101089269Y-90050051D01*
X101092499Y-90009303D01*
X101095135Y-89959376D01*
X101097281Y-89898879D01*
X101099038Y-89826418D01*
X101100509Y-89740600D01*
X101101797Y-89640034D01*
X101103005Y-89523327D01*
X101103013Y-89522431D01*
X101927879Y-89522431D01*
X101957018Y-89562655D01*
X102002263Y-89614732D01*
X102064034Y-89664722D01*
X102130273Y-89699499D01*
X102149257Y-89705924D01*
X102208145Y-89718783D01*
X102274891Y-89725721D01*
X102342734Y-89726540D01*
X102404916Y-89721041D01*
X102454679Y-89709026D01*
X102485859Y-89696849D01*
X102514267Y-89682819D01*
X102539940Y-89664858D01*
X102571430Y-89637748D01*
X102591337Y-89617043D01*
X102624827Y-89562736D01*
X102644650Y-89499136D01*
X102650222Y-89430673D01*
X102640961Y-89361777D01*
X102616282Y-89296880D01*
X102604205Y-89276714D01*
X102557335Y-89223953D01*
X102493478Y-89179178D01*
X102414191Y-89143154D01*
X102321036Y-89116645D01*
X102215573Y-89100418D01*
X102194003Y-89098719D01*
X102144679Y-89096939D01*
X102091654Y-89097176D01*
X102039727Y-89099198D01*
X101993700Y-89102778D01*
X101958373Y-89107683D01*
X101938547Y-89113686D01*
X101936231Y-89118123D01*
X101932648Y-89141491D01*
X101930030Y-89183760D01*
X101928425Y-89244017D01*
X101927879Y-89321355D01*
X101927879Y-89522431D01*
X101103013Y-89522431D01*
X101104234Y-89389086D01*
X101105588Y-89235920D01*
X101105636Y-89230524D01*
X101106992Y-89092540D01*
X101108513Y-88961991D01*
X101110168Y-88840310D01*
X101111929Y-88728928D01*
X101113769Y-88629277D01*
X101115657Y-88542787D01*
X101117567Y-88470891D01*
X101119468Y-88415020D01*
X101121333Y-88376606D01*
X101123133Y-88357080D01*
X101124517Y-88349597D01*
X101155688Y-88212235D01*
X101195062Y-88092388D01*
X101243550Y-87988656D01*
X101302064Y-87899641D01*
X101371516Y-87823942D01*
X101452817Y-87760162D01*
X101546879Y-87706900D01*
X101621781Y-87674026D01*
X101711069Y-87643451D01*
X101805377Y-87620849D01*
X101908358Y-87605544D01*
X102023663Y-87596857D01*
X102154942Y-87594112D01*
X102187991Y-87594161D01*
X102251881Y-87594785D01*
X102307723Y-87596528D01*
X102358983Y-87599890D01*
X102409123Y-87605369D01*
X102461608Y-87613466D01*
X102519902Y-87624682D01*
X102587468Y-87639515D01*
X102667772Y-87658465D01*
X102764276Y-87682033D01*
X102826378Y-87697109D01*
X102897482Y-87713846D01*
X102962479Y-87728601D01*
X103017973Y-87740622D01*
X103060564Y-87749156D01*
X103086856Y-87753451D01*
X103113994Y-87757354D01*
X103137882Y-87762854D01*
X103147079Y-87767981D01*
X103146604Y-87769976D01*
X103140414Y-87787181D01*
X103128007Y-87819119D01*
X103110589Y-87862822D01*
X103089364Y-87915319D01*
X103065536Y-87973643D01*
X103040311Y-88034823D01*
X103014894Y-88095892D01*
X102990489Y-88153880D01*
X102980877Y-88176747D01*
X102961245Y-88224153D01*
X102943316Y-88268180D01*
X102931677Y-88295447D01*
X102920545Y-88317929D01*
X102914070Y-88326537D01*
X102913505Y-88326479D01*
X102900068Y-88321334D01*
X102877839Y-88310416D01*
X102838847Y-88291348D01*
X102771153Y-88262374D01*
X102695752Y-88233741D01*
X102619801Y-88208123D01*
X102550459Y-88188192D01*
X102512158Y-88178882D01*
X102464999Y-88169484D01*
X102419410Y-88163726D01*
X102368106Y-88160768D01*
X102303799Y-88159770D01*
X102270744Y-88159721D01*
X102222346Y-88160373D01*
X102187058Y-88162481D01*
X102160195Y-88166623D01*
X102137070Y-88173379D01*
X102113000Y-88183326D01*
X102070332Y-88207247D01*
X102014927Y-88257197D01*
X101971406Y-88322729D01*
X101940334Y-88402917D01*
X101922273Y-88496833D01*
X101915200Y-88559346D01*
X102127280Y-88558601D01*
X102160980Y-88558561D01*
X102286832Y-88560161D01*
X102397267Y-88564879D01*
X102496082Y-88573099D01*
X102587074Y-88585204D01*
X102674040Y-88601578D01*
X102760779Y-88622604D01*
X102788206Y-88630297D01*
X102914017Y-88675450D01*
X103030301Y-88733562D01*
X103135055Y-88803152D01*
X103226273Y-88882735D01*
X103301951Y-88970829D01*
X103360085Y-89065952D01*
X103379267Y-89107079D01*
X103405721Y-89178417D01*
X103423198Y-89251981D01*
X103432910Y-89333564D01*
X103436071Y-89428960D01*
X103436062Y-89430673D01*
G36*
X103436062Y-89430673D02*
G01*
X103435925Y-89459780D01*
X103431216Y-89558929D01*
X103418835Y-89646364D01*
X103397294Y-89728150D01*
X103365108Y-89810354D01*
X103320786Y-89899040D01*
X103265190Y-89983342D01*
X103189875Y-90064976D01*
X103099941Y-90137465D01*
X102997800Y-90199358D01*
X102885865Y-90249205D01*
X102766546Y-90285557D01*
X102642256Y-90306964D01*
X102534266Y-90311939D01*
X102408868Y-90303514D01*
X102285439Y-90281232D01*
X102171197Y-90246026D01*
X102140780Y-90233122D01*
X102082394Y-90203586D01*
X102022842Y-90168557D01*
X101968895Y-90132132D01*
X101927324Y-90098412D01*
X101924544Y-90095847D01*
X101905770Y-90080421D01*
X101894304Y-90074120D01*
X101892783Y-90076241D01*
X101889941Y-90093536D01*
X101887974Y-90124467D01*
X101887239Y-90164472D01*
X101887239Y-90165273D01*
X101886538Y-90210055D01*
X101884048Y-90238403D01*
X101879135Y-90254116D01*
X101871169Y-90260992D01*
X101869753Y-90261349D01*
X101851626Y-90262834D01*
X101816437Y-90264052D01*
X101766857Y-90265009D01*
X101705556Y-90265713D01*
X101635203Y-90266171D01*
X101558468Y-90266389D01*
X101478022Y-90266375D01*
X101396535Y-90266136D01*
X101316677Y-90265678D01*
X101241118Y-90265010D01*
X101172527Y-90264137D01*
X101113576Y-90263068D01*
X101066934Y-90261808D01*
X101035271Y-90260366D01*
X101021257Y-90258748D01*
X101014773Y-90255484D01*
X101011112Y-90247666D01*
X101017181Y-90232763D01*
X101034117Y-90206122D01*
X101041422Y-90195260D01*
X101051679Y-90179771D01*
X101060625Y-90164851D01*
X101068361Y-90149108D01*
X101074991Y-90131149D01*
X101080618Y-90109581D01*
X101085343Y-90083013D01*
X101089269Y-90050051D01*
X101092499Y-90009303D01*
X101095135Y-89959376D01*
X101097281Y-89898879D01*
X101099038Y-89826418D01*
X101100509Y-89740600D01*
X101101797Y-89640034D01*
X101103005Y-89523327D01*
X101103013Y-89522431D01*
X101927879Y-89522431D01*
X101957018Y-89562655D01*
X102002263Y-89614732D01*
X102064034Y-89664722D01*
X102130273Y-89699499D01*
X102149257Y-89705924D01*
X102208145Y-89718783D01*
X102274891Y-89725721D01*
X102342734Y-89726540D01*
X102404916Y-89721041D01*
X102454679Y-89709026D01*
X102485859Y-89696849D01*
X102514267Y-89682819D01*
X102539940Y-89664858D01*
X102571430Y-89637748D01*
X102591337Y-89617043D01*
X102624827Y-89562736D01*
X102644650Y-89499136D01*
X102650222Y-89430673D01*
X102640961Y-89361777D01*
X102616282Y-89296880D01*
X102604205Y-89276714D01*
X102557335Y-89223953D01*
X102493478Y-89179178D01*
X102414191Y-89143154D01*
X102321036Y-89116645D01*
X102215573Y-89100418D01*
X102194003Y-89098719D01*
X102144679Y-89096939D01*
X102091654Y-89097176D01*
X102039727Y-89099198D01*
X101993700Y-89102778D01*
X101958373Y-89107683D01*
X101938547Y-89113686D01*
X101936231Y-89118123D01*
X101932648Y-89141491D01*
X101930030Y-89183760D01*
X101928425Y-89244017D01*
X101927879Y-89321355D01*
X101927879Y-89522431D01*
X101103013Y-89522431D01*
X101104234Y-89389086D01*
X101105588Y-89235920D01*
X101105636Y-89230524D01*
X101106992Y-89092540D01*
X101108513Y-88961991D01*
X101110168Y-88840310D01*
X101111929Y-88728928D01*
X101113769Y-88629277D01*
X101115657Y-88542787D01*
X101117567Y-88470891D01*
X101119468Y-88415020D01*
X101121333Y-88376606D01*
X101123133Y-88357080D01*
X101124517Y-88349597D01*
X101155688Y-88212235D01*
X101195062Y-88092388D01*
X101243550Y-87988656D01*
X101302064Y-87899641D01*
X101371516Y-87823942D01*
X101452817Y-87760162D01*
X101546879Y-87706900D01*
X101621781Y-87674026D01*
X101711069Y-87643451D01*
X101805377Y-87620849D01*
X101908358Y-87605544D01*
X102023663Y-87596857D01*
X102154942Y-87594112D01*
X102187991Y-87594161D01*
X102251881Y-87594785D01*
X102307723Y-87596528D01*
X102358983Y-87599890D01*
X102409123Y-87605369D01*
X102461608Y-87613466D01*
X102519902Y-87624682D01*
X102587468Y-87639515D01*
X102667772Y-87658465D01*
X102764276Y-87682033D01*
X102826378Y-87697109D01*
X102897482Y-87713846D01*
X102962479Y-87728601D01*
X103017973Y-87740622D01*
X103060564Y-87749156D01*
X103086856Y-87753451D01*
X103113994Y-87757354D01*
X103137882Y-87762854D01*
X103147079Y-87767981D01*
X103146604Y-87769976D01*
X103140414Y-87787181D01*
X103128007Y-87819119D01*
X103110589Y-87862822D01*
X103089364Y-87915319D01*
X103065536Y-87973643D01*
X103040311Y-88034823D01*
X103014894Y-88095892D01*
X102990489Y-88153880D01*
X102980877Y-88176747D01*
X102961245Y-88224153D01*
X102943316Y-88268180D01*
X102931677Y-88295447D01*
X102920545Y-88317929D01*
X102914070Y-88326537D01*
X102913505Y-88326479D01*
X102900068Y-88321334D01*
X102877839Y-88310416D01*
X102838847Y-88291348D01*
X102771153Y-88262374D01*
X102695752Y-88233741D01*
X102619801Y-88208123D01*
X102550459Y-88188192D01*
X102512158Y-88178882D01*
X102464999Y-88169484D01*
X102419410Y-88163726D01*
X102368106Y-88160768D01*
X102303799Y-88159770D01*
X102270744Y-88159721D01*
X102222346Y-88160373D01*
X102187058Y-88162481D01*
X102160195Y-88166623D01*
X102137070Y-88173379D01*
X102113000Y-88183326D01*
X102070332Y-88207247D01*
X102014927Y-88257197D01*
X101971406Y-88322729D01*
X101940334Y-88402917D01*
X101922273Y-88496833D01*
X101915200Y-88559346D01*
X102127280Y-88558601D01*
X102160980Y-88558561D01*
X102286832Y-88560161D01*
X102397267Y-88564879D01*
X102496082Y-88573099D01*
X102587074Y-88585204D01*
X102674040Y-88601578D01*
X102760779Y-88622604D01*
X102788206Y-88630297D01*
X102914017Y-88675450D01*
X103030301Y-88733562D01*
X103135055Y-88803152D01*
X103226273Y-88882735D01*
X103301951Y-88970829D01*
X103360085Y-89065952D01*
X103379267Y-89107079D01*
X103405721Y-89178417D01*
X103423198Y-89251981D01*
X103432910Y-89333564D01*
X103436071Y-89428960D01*
X103436062Y-89430673D01*
G37*
X111303687Y-86690840D02*
X111303708Y-86697047D01*
X111303939Y-86802904D01*
X111304090Y-86921874D01*
X111304167Y-87054757D01*
X111304174Y-87202353D01*
X111304118Y-87365464D01*
X111304004Y-87544891D01*
X111303838Y-87741434D01*
X111303626Y-87955895D01*
X111303374Y-88189074D01*
X111303086Y-88441772D01*
X111300479Y-90702551D01*
X111279437Y-90731235D01*
X111278221Y-90732847D01*
X111253315Y-90757560D01*
X111223557Y-90777684D01*
X111220125Y-90779206D01*
X111214215Y-90781045D01*
X111205929Y-90782740D01*
X111194486Y-90784297D01*
X111179105Y-90785722D01*
X111159008Y-90787021D01*
X111133413Y-90788199D01*
X111101540Y-90789263D01*
X111062610Y-90790218D01*
X111015842Y-90791070D01*
X110960456Y-90791825D01*
X110895672Y-90792489D01*
X110820710Y-90793067D01*
X110734790Y-90793566D01*
X110637131Y-90793990D01*
X110526953Y-90794347D01*
X110403477Y-90794642D01*
X110265922Y-90794881D01*
X110113507Y-90795069D01*
X109945454Y-90795212D01*
X109760981Y-90795317D01*
X109559309Y-90795389D01*
X109339658Y-90795433D01*
X109101246Y-90795456D01*
X108843295Y-90795464D01*
X108630254Y-90795477D01*
X108385383Y-90795514D01*
X108159439Y-90795554D01*
X107951653Y-90795576D01*
X107761256Y-90795561D01*
X107587479Y-90795486D01*
X107429552Y-90795332D01*
X107286706Y-90795077D01*
X107158172Y-90794700D01*
X107043182Y-90794182D01*
X106940965Y-90793501D01*
X106850754Y-90792636D01*
X106771778Y-90791566D01*
X106703268Y-90790272D01*
X106644456Y-90788731D01*
X106594572Y-90786924D01*
X106552847Y-90784829D01*
X106518513Y-90782425D01*
X106490799Y-90779693D01*
X106468937Y-90776611D01*
X106452157Y-90773158D01*
X106439691Y-90769314D01*
X106430770Y-90765057D01*
X106424623Y-90760368D01*
X106420483Y-90755224D01*
X106417580Y-90749607D01*
X106415144Y-90743494D01*
X106412407Y-90736865D01*
X106408600Y-90729699D01*
X106406894Y-90726856D01*
X106404741Y-90722604D01*
X106402759Y-90717156D01*
X106400942Y-90709716D01*
X106399281Y-90699485D01*
X106397771Y-90685668D01*
X106396403Y-90667468D01*
X106395171Y-90644087D01*
X106394067Y-90614730D01*
X106393086Y-90578598D01*
X106392218Y-90534896D01*
X106391458Y-90482826D01*
X106390799Y-90421592D01*
X106390232Y-90350397D01*
X106389752Y-90268444D01*
X106389746Y-90267160D01*
X106672633Y-90267160D01*
X107740357Y-90267160D01*
X107909181Y-90267160D01*
X109153009Y-90267160D01*
X109145647Y-90244300D01*
X109139228Y-90207450D01*
X109139507Y-90156221D01*
X109146926Y-90101828D01*
X109160846Y-90052338D01*
X109161509Y-90050614D01*
X109172032Y-90025226D01*
X109184918Y-89998127D01*
X109201058Y-89967994D01*
X109221346Y-89933503D01*
X109246674Y-89893331D01*
X109277934Y-89846155D01*
X109316019Y-89790653D01*
X109361822Y-89725501D01*
X109416234Y-89649376D01*
X109480149Y-89560955D01*
X109554459Y-89458915D01*
X109640055Y-89341933D01*
X109999999Y-88850825D01*
X110003143Y-88921452D01*
X110003665Y-88943264D01*
X110004053Y-88984344D01*
X110004255Y-89041213D01*
X110004274Y-89111509D01*
X110004113Y-89192872D01*
X110003773Y-89282942D01*
X110003258Y-89379358D01*
X110002570Y-89479760D01*
X110002348Y-89508572D01*
X110001457Y-89616943D01*
X110000554Y-89707450D01*
X109999550Y-89782077D01*
X109998357Y-89842804D01*
X109996885Y-89891614D01*
X109995046Y-89930489D01*
X109992750Y-89961410D01*
X109989910Y-89986361D01*
X109986436Y-90007322D01*
X109982239Y-90026276D01*
X109977231Y-90045205D01*
X109970425Y-90068316D01*
X109950903Y-90124141D01*
X109929433Y-90173725D01*
X109908110Y-90212531D01*
X109889032Y-90236022D01*
X109879966Y-90245119D01*
X109872999Y-90258244D01*
X109876021Y-90259195D01*
X109896337Y-90260841D01*
X109934326Y-90262356D01*
X109988280Y-90263711D01*
X110056490Y-90264881D01*
X110137248Y-90265837D01*
X110228847Y-90266554D01*
X110329578Y-90267004D01*
X110437733Y-90267160D01*
X111002467Y-90267160D01*
X110972461Y-90229060D01*
X110939519Y-90181150D01*
X110901345Y-90102487D01*
X110879321Y-90021916D01*
X110878108Y-90006228D01*
X110876840Y-89970694D01*
X110875664Y-89917501D01*
X110874579Y-89848055D01*
X110873587Y-89763759D01*
X110872686Y-89666017D01*
X110871879Y-89556233D01*
X110871166Y-89435811D01*
X110870546Y-89306155D01*
X110870020Y-89168669D01*
X110869588Y-89024757D01*
X110869252Y-88875822D01*
X110869011Y-88723270D01*
X110868865Y-88568503D01*
X110868816Y-88412927D01*
X110868863Y-88257944D01*
X110869007Y-88104959D01*
X110869249Y-87955375D01*
X110869588Y-87810597D01*
X110870025Y-87672030D01*
X110870561Y-87541075D01*
X110871196Y-87419139D01*
X110871930Y-87307624D01*
X110872764Y-87207934D01*
X110873698Y-87121474D01*
X110874732Y-87049648D01*
X110875868Y-86993859D01*
X110877105Y-86955512D01*
X110878443Y-86936011D01*
X110881430Y-86918632D01*
X110901939Y-86848342D01*
X110933605Y-86781056D01*
X110972629Y-86725276D01*
X111002864Y-86690840D01*
X110437662Y-86690840D01*
X109872460Y-86690839D01*
X109908543Y-86744179D01*
X109928552Y-86775701D01*
X109945748Y-86807977D01*
X109960233Y-86842643D01*
X109972215Y-86881491D01*
X109981902Y-86926313D01*
X109989501Y-86978900D01*
X109995221Y-87041046D01*
X109999269Y-87114542D01*
X110001852Y-87201179D01*
X110003180Y-87302751D01*
X110003459Y-87421049D01*
X110002897Y-87557865D01*
X109999999Y-88023571D01*
X109659639Y-87594222D01*
X109623960Y-87549187D01*
X109531835Y-87432551D01*
X109451459Y-87330052D01*
X109382041Y-87240486D01*
X109322794Y-87162650D01*
X109272928Y-87095338D01*
X109231655Y-87037348D01*
X109198187Y-86987475D01*
X109171734Y-86944514D01*
X109151508Y-86907263D01*
X109136721Y-86874516D01*
X109126584Y-86845071D01*
X109120309Y-86817722D01*
X109117106Y-86791266D01*
X109116187Y-86764500D01*
X109116079Y-86690840D01*
X108516639Y-86691372D01*
X108441428Y-86691447D01*
X108327273Y-86691614D01*
X108231145Y-86691869D01*
X108151595Y-86692257D01*
X108087174Y-86692824D01*
X108036430Y-86693613D01*
X107997916Y-86694671D01*
X107970180Y-86696041D01*
X107951773Y-86697768D01*
X107941246Y-86699898D01*
X107937149Y-86702476D01*
X107938031Y-86705545D01*
X107942444Y-86709152D01*
X107976649Y-86734766D01*
X108025026Y-86775517D01*
X108078037Y-86823882D01*
X108131071Y-86875632D01*
X108179515Y-86926536D01*
X108190991Y-86939240D01*
X108205173Y-86955196D01*
X108220668Y-86972976D01*
X108238237Y-86993514D01*
X108258640Y-87017745D01*
X108282639Y-87046603D01*
X108310994Y-87081024D01*
X108344464Y-87121942D01*
X108383811Y-87170293D01*
X108429795Y-87227011D01*
X108483176Y-87293030D01*
X108544716Y-87369286D01*
X108615174Y-87456714D01*
X108695311Y-87556247D01*
X108785887Y-87668822D01*
X108887663Y-87795373D01*
X109001400Y-87936835D01*
X109353745Y-88375110D01*
X108804300Y-89130635D01*
X108749464Y-89205999D01*
X108643891Y-89350810D01*
X108549011Y-89480497D01*
X108464084Y-89596020D01*
X108388368Y-89698342D01*
X108321122Y-89788424D01*
X108261606Y-89867227D01*
X108209078Y-89935714D01*
X108162797Y-89994845D01*
X108122023Y-90045583D01*
X108086014Y-90088889D01*
X108054029Y-90125724D01*
X108025327Y-90157050D01*
X107999168Y-90183829D01*
X107974810Y-90207023D01*
X107909181Y-90267160D01*
X107740357Y-90267160D01*
X107709072Y-90228229D01*
X107697145Y-90211785D01*
X107674151Y-90173425D01*
X107655253Y-90134249D01*
X107632719Y-90079200D01*
X107629663Y-88987000D01*
X107629288Y-88837969D01*
X107628982Y-88662066D01*
X107628884Y-88505224D01*
X107628999Y-88366732D01*
X107629332Y-88245881D01*
X107629889Y-88141959D01*
X107630676Y-88054258D01*
X107631696Y-87982065D01*
X107632956Y-87924671D01*
X107634461Y-87881366D01*
X107636216Y-87851438D01*
X107638227Y-87834178D01*
X107647074Y-87798371D01*
X107675699Y-87725449D01*
X107715249Y-87658580D01*
X107731718Y-87635720D01*
X106784758Y-87635720D01*
X106782019Y-88857460D01*
X106781914Y-88904117D01*
X106781498Y-89082614D01*
X106781091Y-89242171D01*
X106780673Y-89383900D01*
X106780225Y-89508909D01*
X106779726Y-89618308D01*
X106779159Y-89713207D01*
X106778503Y-89794716D01*
X106777740Y-89863944D01*
X106776849Y-89922001D01*
X106775812Y-89969996D01*
X106774609Y-90009041D01*
X106773221Y-90040243D01*
X106771629Y-90064713D01*
X106769812Y-90083560D01*
X106767753Y-90097895D01*
X106765430Y-90108827D01*
X106762826Y-90117465D01*
X106759921Y-90124920D01*
X106751601Y-90142763D01*
X106730059Y-90182123D01*
X106706598Y-90218900D01*
X106672633Y-90267160D01*
X106389746Y-90267160D01*
X106389350Y-90174936D01*
X106389020Y-90069076D01*
X106388756Y-89950068D01*
X106388549Y-89817114D01*
X106388392Y-89669419D01*
X106388279Y-89506184D01*
X106388203Y-89326613D01*
X106388156Y-89129910D01*
X106388131Y-88915277D01*
X106388121Y-88681918D01*
X106388119Y-88429036D01*
X106388129Y-88186202D01*
X106388162Y-87949826D01*
X106388225Y-87732253D01*
X106388322Y-87532705D01*
X106388460Y-87350402D01*
X106388643Y-87184568D01*
X106388876Y-87034424D01*
X106389166Y-86899192D01*
X106389517Y-86778094D01*
X106389934Y-86670351D01*
X106390424Y-86575187D01*
X106390991Y-86491823D01*
X106391640Y-86419481D01*
X106392378Y-86357382D01*
X106393208Y-86304749D01*
X106394138Y-86260804D01*
X106395171Y-86224768D01*
X106396314Y-86195864D01*
X106397571Y-86173314D01*
X106398948Y-86156339D01*
X106400451Y-86144161D01*
X106402084Y-86136003D01*
X106403853Y-86131086D01*
X106418944Y-86110356D01*
X106444855Y-86086563D01*
X106472953Y-86068292D01*
X106496113Y-86060957D01*
X106499305Y-86063584D01*
X106504775Y-86084018D01*
X106509192Y-86124641D01*
X106512546Y-86185380D01*
X106513610Y-86207204D01*
X106525684Y-86313079D01*
X106549910Y-86406187D01*
X106588071Y-86490650D01*
X106641945Y-86570589D01*
X106713314Y-86650125D01*
X106714123Y-86650934D01*
X106801918Y-86727379D01*
X106893934Y-86785145D01*
X106992639Y-86825785D01*
X107025398Y-86835149D01*
X107058533Y-86841745D01*
X107096167Y-86845768D01*
X107143567Y-86847774D01*
X107205999Y-86848320D01*
X107266705Y-86847811D01*
X107314502Y-86845860D01*
X107352366Y-86841910D01*
X107385563Y-86835404D01*
X107419359Y-86825785D01*
X107479289Y-86803129D01*
X107573551Y-86752285D01*
X107660790Y-86686779D01*
X107738347Y-86609408D01*
X107803567Y-86522970D01*
X107853792Y-86430261D01*
X107886365Y-86334081D01*
X107889593Y-86318054D01*
X107895807Y-86271966D01*
X107900142Y-86218097D01*
X107901809Y-86165060D01*
X107901959Y-86060920D01*
X109548884Y-86060919D01*
X109628112Y-86060916D01*
X109839627Y-86060873D01*
X110032058Y-86060816D01*
X110206319Y-86060786D01*
X110363323Y-86060822D01*
X110503984Y-86060966D01*
X110629216Y-86061258D01*
X110739932Y-86061738D01*
X110837046Y-86062447D01*
X110921473Y-86063426D01*
X110994126Y-86064714D01*
X111055918Y-86066353D01*
X111107763Y-86068384D01*
X111150576Y-86070845D01*
X111185269Y-86073779D01*
X111212757Y-86077226D01*
X111233954Y-86081226D01*
X111249772Y-86085819D01*
X111261127Y-86091047D01*
X111268931Y-86096950D01*
X111274098Y-86103568D01*
X111277543Y-86110942D01*
X111280179Y-86119112D01*
X111282919Y-86128120D01*
X111286678Y-86138004D01*
X111286696Y-86138045D01*
X111288819Y-86143325D01*
X111290776Y-86149705D01*
X111292574Y-86157985D01*
X111294216Y-86168965D01*
X111295710Y-86183447D01*
X111297060Y-86202231D01*
X111298272Y-86226119D01*
X111299353Y-86255911D01*
X111300308Y-86292408D01*
X111301143Y-86336411D01*
X111301862Y-86388721D01*
X111302473Y-86450139D01*
X111302980Y-86521465D01*
X111303390Y-86603501D01*
X111303687Y-86690840D01*
G36*
X111303687Y-86690840D02*
G01*
X111303708Y-86697047D01*
X111303939Y-86802904D01*
X111304090Y-86921874D01*
X111304167Y-87054757D01*
X111304174Y-87202353D01*
X111304118Y-87365464D01*
X111304004Y-87544891D01*
X111303838Y-87741434D01*
X111303626Y-87955895D01*
X111303374Y-88189074D01*
X111303086Y-88441772D01*
X111300479Y-90702551D01*
X111279437Y-90731235D01*
X111278221Y-90732847D01*
X111253315Y-90757560D01*
X111223557Y-90777684D01*
X111220125Y-90779206D01*
X111214215Y-90781045D01*
X111205929Y-90782740D01*
X111194486Y-90784297D01*
X111179105Y-90785722D01*
X111159008Y-90787021D01*
X111133413Y-90788199D01*
X111101540Y-90789263D01*
X111062610Y-90790218D01*
X111015842Y-90791070D01*
X110960456Y-90791825D01*
X110895672Y-90792489D01*
X110820710Y-90793067D01*
X110734790Y-90793566D01*
X110637131Y-90793990D01*
X110526953Y-90794347D01*
X110403477Y-90794642D01*
X110265922Y-90794881D01*
X110113507Y-90795069D01*
X109945454Y-90795212D01*
X109760981Y-90795317D01*
X109559309Y-90795389D01*
X109339658Y-90795433D01*
X109101246Y-90795456D01*
X108843295Y-90795464D01*
X108630254Y-90795477D01*
X108385383Y-90795514D01*
X108159439Y-90795554D01*
X107951653Y-90795576D01*
X107761256Y-90795561D01*
X107587479Y-90795486D01*
X107429552Y-90795332D01*
X107286706Y-90795077D01*
X107158172Y-90794700D01*
X107043182Y-90794182D01*
X106940965Y-90793501D01*
X106850754Y-90792636D01*
X106771778Y-90791566D01*
X106703268Y-90790272D01*
X106644456Y-90788731D01*
X106594572Y-90786924D01*
X106552847Y-90784829D01*
X106518513Y-90782425D01*
X106490799Y-90779693D01*
X106468937Y-90776611D01*
X106452157Y-90773158D01*
X106439691Y-90769314D01*
X106430770Y-90765057D01*
X106424623Y-90760368D01*
X106420483Y-90755224D01*
X106417580Y-90749607D01*
X106415144Y-90743494D01*
X106412407Y-90736865D01*
X106408600Y-90729699D01*
X106406894Y-90726856D01*
X106404741Y-90722604D01*
X106402759Y-90717156D01*
X106400942Y-90709716D01*
X106399281Y-90699485D01*
X106397771Y-90685668D01*
X106396403Y-90667468D01*
X106395171Y-90644087D01*
X106394067Y-90614730D01*
X106393086Y-90578598D01*
X106392218Y-90534896D01*
X106391458Y-90482826D01*
X106390799Y-90421592D01*
X106390232Y-90350397D01*
X106389752Y-90268444D01*
X106389746Y-90267160D01*
X106672633Y-90267160D01*
X107740357Y-90267160D01*
X107909181Y-90267160D01*
X109153009Y-90267160D01*
X109145647Y-90244300D01*
X109139228Y-90207450D01*
X109139507Y-90156221D01*
X109146926Y-90101828D01*
X109160846Y-90052338D01*
X109161509Y-90050614D01*
X109172032Y-90025226D01*
X109184918Y-89998127D01*
X109201058Y-89967994D01*
X109221346Y-89933503D01*
X109246674Y-89893331D01*
X109277934Y-89846155D01*
X109316019Y-89790653D01*
X109361822Y-89725501D01*
X109416234Y-89649376D01*
X109480149Y-89560955D01*
X109554459Y-89458915D01*
X109640055Y-89341933D01*
X109999999Y-88850825D01*
X110003143Y-88921452D01*
X110003665Y-88943264D01*
X110004053Y-88984344D01*
X110004255Y-89041213D01*
X110004274Y-89111509D01*
X110004113Y-89192872D01*
X110003773Y-89282942D01*
X110003258Y-89379358D01*
X110002570Y-89479760D01*
X110002348Y-89508572D01*
X110001457Y-89616943D01*
X110000554Y-89707450D01*
X109999550Y-89782077D01*
X109998357Y-89842804D01*
X109996885Y-89891614D01*
X109995046Y-89930489D01*
X109992750Y-89961410D01*
X109989910Y-89986361D01*
X109986436Y-90007322D01*
X109982239Y-90026276D01*
X109977231Y-90045205D01*
X109970425Y-90068316D01*
X109950903Y-90124141D01*
X109929433Y-90173725D01*
X109908110Y-90212531D01*
X109889032Y-90236022D01*
X109879966Y-90245119D01*
X109872999Y-90258244D01*
X109876021Y-90259195D01*
X109896337Y-90260841D01*
X109934326Y-90262356D01*
X109988280Y-90263711D01*
X110056490Y-90264881D01*
X110137248Y-90265837D01*
X110228847Y-90266554D01*
X110329578Y-90267004D01*
X110437733Y-90267160D01*
X111002467Y-90267160D01*
X110972461Y-90229060D01*
X110939519Y-90181150D01*
X110901345Y-90102487D01*
X110879321Y-90021916D01*
X110878108Y-90006228D01*
X110876840Y-89970694D01*
X110875664Y-89917501D01*
X110874579Y-89848055D01*
X110873587Y-89763759D01*
X110872686Y-89666017D01*
X110871879Y-89556233D01*
X110871166Y-89435811D01*
X110870546Y-89306155D01*
X110870020Y-89168669D01*
X110869588Y-89024757D01*
X110869252Y-88875822D01*
X110869011Y-88723270D01*
X110868865Y-88568503D01*
X110868816Y-88412927D01*
X110868863Y-88257944D01*
X110869007Y-88104959D01*
X110869249Y-87955375D01*
X110869588Y-87810597D01*
X110870025Y-87672030D01*
X110870561Y-87541075D01*
X110871196Y-87419139D01*
X110871930Y-87307624D01*
X110872764Y-87207934D01*
X110873698Y-87121474D01*
X110874732Y-87049648D01*
X110875868Y-86993859D01*
X110877105Y-86955512D01*
X110878443Y-86936011D01*
X110881430Y-86918632D01*
X110901939Y-86848342D01*
X110933605Y-86781056D01*
X110972629Y-86725276D01*
X111002864Y-86690840D01*
X110437662Y-86690840D01*
X109872460Y-86690839D01*
X109908543Y-86744179D01*
X109928552Y-86775701D01*
X109945748Y-86807977D01*
X109960233Y-86842643D01*
X109972215Y-86881491D01*
X109981902Y-86926313D01*
X109989501Y-86978900D01*
X109995221Y-87041046D01*
X109999269Y-87114542D01*
X110001852Y-87201179D01*
X110003180Y-87302751D01*
X110003459Y-87421049D01*
X110002897Y-87557865D01*
X109999999Y-88023571D01*
X109659639Y-87594222D01*
X109623960Y-87549187D01*
X109531835Y-87432551D01*
X109451459Y-87330052D01*
X109382041Y-87240486D01*
X109322794Y-87162650D01*
X109272928Y-87095338D01*
X109231655Y-87037348D01*
X109198187Y-86987475D01*
X109171734Y-86944514D01*
X109151508Y-86907263D01*
X109136721Y-86874516D01*
X109126584Y-86845071D01*
X109120309Y-86817722D01*
X109117106Y-86791266D01*
X109116187Y-86764500D01*
X109116079Y-86690840D01*
X108516639Y-86691372D01*
X108441428Y-86691447D01*
X108327273Y-86691614D01*
X108231145Y-86691869D01*
X108151595Y-86692257D01*
X108087174Y-86692824D01*
X108036430Y-86693613D01*
X107997916Y-86694671D01*
X107970180Y-86696041D01*
X107951773Y-86697768D01*
X107941246Y-86699898D01*
X107937149Y-86702476D01*
X107938031Y-86705545D01*
X107942444Y-86709152D01*
X107976649Y-86734766D01*
X108025026Y-86775517D01*
X108078037Y-86823882D01*
X108131071Y-86875632D01*
X108179515Y-86926536D01*
X108190991Y-86939240D01*
X108205173Y-86955196D01*
X108220668Y-86972976D01*
X108238237Y-86993514D01*
X108258640Y-87017745D01*
X108282639Y-87046603D01*
X108310994Y-87081024D01*
X108344464Y-87121942D01*
X108383811Y-87170293D01*
X108429795Y-87227011D01*
X108483176Y-87293030D01*
X108544716Y-87369286D01*
X108615174Y-87456714D01*
X108695311Y-87556247D01*
X108785887Y-87668822D01*
X108887663Y-87795373D01*
X109001400Y-87936835D01*
X109353745Y-88375110D01*
X108804300Y-89130635D01*
X108749464Y-89205999D01*
X108643891Y-89350810D01*
X108549011Y-89480497D01*
X108464084Y-89596020D01*
X108388368Y-89698342D01*
X108321122Y-89788424D01*
X108261606Y-89867227D01*
X108209078Y-89935714D01*
X108162797Y-89994845D01*
X108122023Y-90045583D01*
X108086014Y-90088889D01*
X108054029Y-90125724D01*
X108025327Y-90157050D01*
X107999168Y-90183829D01*
X107974810Y-90207023D01*
X107909181Y-90267160D01*
X107740357Y-90267160D01*
X107709072Y-90228229D01*
X107697145Y-90211785D01*
X107674151Y-90173425D01*
X107655253Y-90134249D01*
X107632719Y-90079200D01*
X107629663Y-88987000D01*
X107629288Y-88837969D01*
X107628982Y-88662066D01*
X107628884Y-88505224D01*
X107628999Y-88366732D01*
X107629332Y-88245881D01*
X107629889Y-88141959D01*
X107630676Y-88054258D01*
X107631696Y-87982065D01*
X107632956Y-87924671D01*
X107634461Y-87881366D01*
X107636216Y-87851438D01*
X107638227Y-87834178D01*
X107647074Y-87798371D01*
X107675699Y-87725449D01*
X107715249Y-87658580D01*
X107731718Y-87635720D01*
X106784758Y-87635720D01*
X106782019Y-88857460D01*
X106781914Y-88904117D01*
X106781498Y-89082614D01*
X106781091Y-89242171D01*
X106780673Y-89383900D01*
X106780225Y-89508909D01*
X106779726Y-89618308D01*
X106779159Y-89713207D01*
X106778503Y-89794716D01*
X106777740Y-89863944D01*
X106776849Y-89922001D01*
X106775812Y-89969996D01*
X106774609Y-90009041D01*
X106773221Y-90040243D01*
X106771629Y-90064713D01*
X106769812Y-90083560D01*
X106767753Y-90097895D01*
X106765430Y-90108827D01*
X106762826Y-90117465D01*
X106759921Y-90124920D01*
X106751601Y-90142763D01*
X106730059Y-90182123D01*
X106706598Y-90218900D01*
X106672633Y-90267160D01*
X106389746Y-90267160D01*
X106389350Y-90174936D01*
X106389020Y-90069076D01*
X106388756Y-89950068D01*
X106388549Y-89817114D01*
X106388392Y-89669419D01*
X106388279Y-89506184D01*
X106388203Y-89326613D01*
X106388156Y-89129910D01*
X106388131Y-88915277D01*
X106388121Y-88681918D01*
X106388119Y-88429036D01*
X106388129Y-88186202D01*
X106388162Y-87949826D01*
X106388225Y-87732253D01*
X106388322Y-87532705D01*
X106388460Y-87350402D01*
X106388643Y-87184568D01*
X106388876Y-87034424D01*
X106389166Y-86899192D01*
X106389517Y-86778094D01*
X106389934Y-86670351D01*
X106390424Y-86575187D01*
X106390991Y-86491823D01*
X106391640Y-86419481D01*
X106392378Y-86357382D01*
X106393208Y-86304749D01*
X106394138Y-86260804D01*
X106395171Y-86224768D01*
X106396314Y-86195864D01*
X106397571Y-86173314D01*
X106398948Y-86156339D01*
X106400451Y-86144161D01*
X106402084Y-86136003D01*
X106403853Y-86131086D01*
X106418944Y-86110356D01*
X106444855Y-86086563D01*
X106472953Y-86068292D01*
X106496113Y-86060957D01*
X106499305Y-86063584D01*
X106504775Y-86084018D01*
X106509192Y-86124641D01*
X106512546Y-86185380D01*
X106513610Y-86207204D01*
X106525684Y-86313079D01*
X106549910Y-86406187D01*
X106588071Y-86490650D01*
X106641945Y-86570589D01*
X106713314Y-86650125D01*
X106714123Y-86650934D01*
X106801918Y-86727379D01*
X106893934Y-86785145D01*
X106992639Y-86825785D01*
X107025398Y-86835149D01*
X107058533Y-86841745D01*
X107096167Y-86845768D01*
X107143567Y-86847774D01*
X107205999Y-86848320D01*
X107266705Y-86847811D01*
X107314502Y-86845860D01*
X107352366Y-86841910D01*
X107385563Y-86835404D01*
X107419359Y-86825785D01*
X107479289Y-86803129D01*
X107573551Y-86752285D01*
X107660790Y-86686779D01*
X107738347Y-86609408D01*
X107803567Y-86522970D01*
X107853792Y-86430261D01*
X107886365Y-86334081D01*
X107889593Y-86318054D01*
X107895807Y-86271966D01*
X107900142Y-86218097D01*
X107901809Y-86165060D01*
X107901959Y-86060920D01*
X109548884Y-86060919D01*
X109628112Y-86060916D01*
X109839627Y-86060873D01*
X110032058Y-86060816D01*
X110206319Y-86060786D01*
X110363323Y-86060822D01*
X110503984Y-86060966D01*
X110629216Y-86061258D01*
X110739932Y-86061738D01*
X110837046Y-86062447D01*
X110921473Y-86063426D01*
X110994126Y-86064714D01*
X111055918Y-86066353D01*
X111107763Y-86068384D01*
X111150576Y-86070845D01*
X111185269Y-86073779D01*
X111212757Y-86077226D01*
X111233954Y-86081226D01*
X111249772Y-86085819D01*
X111261127Y-86091047D01*
X111268931Y-86096950D01*
X111274098Y-86103568D01*
X111277543Y-86110942D01*
X111280179Y-86119112D01*
X111282919Y-86128120D01*
X111286678Y-86138004D01*
X111286696Y-86138045D01*
X111288819Y-86143325D01*
X111290776Y-86149705D01*
X111292574Y-86157985D01*
X111294216Y-86168965D01*
X111295710Y-86183447D01*
X111297060Y-86202231D01*
X111298272Y-86226119D01*
X111299353Y-86255911D01*
X111300308Y-86292408D01*
X111301143Y-86336411D01*
X111301862Y-86388721D01*
X111302473Y-86450139D01*
X111302980Y-86521465D01*
X111303390Y-86603501D01*
X111303687Y-86690840D01*
G37*
%TO.C,G\u002A\u002A\u002A*%
G36*
X95513376Y-97256263D02*
G01*
X95513376Y-104738828D01*
X85511172Y-104738828D01*
X85511172Y-96098247D01*
X90779390Y-96098247D01*
X90963969Y-96091104D01*
X90964285Y-96091092D01*
X91067131Y-96089560D01*
X91140385Y-96097698D01*
X91205059Y-96120163D01*
X91282164Y-96161609D01*
X91415781Y-96239256D01*
X91415781Y-97256263D01*
X91644839Y-97256263D01*
X91644839Y-97141858D01*
X91924799Y-97141858D01*
X91934988Y-97209025D01*
X91969338Y-97240373D01*
X92040098Y-97256263D01*
X92055056Y-97259622D01*
X92208445Y-97268830D01*
X92351333Y-97247792D01*
X92467552Y-97197886D01*
X92510910Y-97164512D01*
X92548091Y-97119303D01*
X92575121Y-97058711D01*
X92593513Y-96975645D01*
X92604777Y-96863016D01*
X92610427Y-96713732D01*
X92611974Y-96520703D01*
X92611974Y-96060070D01*
X92701052Y-96060070D01*
X92727337Y-96059843D01*
X92770782Y-96052415D01*
X92787433Y-96023448D01*
X92790130Y-95958267D01*
X92789931Y-95928227D01*
X92783431Y-95878575D01*
X92758085Y-95859545D01*
X92701052Y-95856463D01*
X92611974Y-95856463D01*
X92611974Y-95449249D01*
X92408366Y-95449249D01*
X92408366Y-95856463D01*
X91924799Y-95856463D01*
X91924799Y-96060070D01*
X92408366Y-96060070D01*
X92408366Y-96468102D01*
X92406792Y-96647813D01*
X92399514Y-96802904D01*
X92383426Y-96917443D01*
X92355433Y-96996822D01*
X92312440Y-97046431D01*
X92251353Y-97071661D01*
X92169077Y-97077903D01*
X92062516Y-97070547D01*
X91924799Y-97056333D01*
X91924799Y-97141858D01*
X91644839Y-97141858D01*
X91644839Y-95856463D01*
X91415781Y-95856463D01*
X91415781Y-95958267D01*
X91415453Y-95981010D01*
X91410946Y-96037467D01*
X91402835Y-96060070D01*
X91391653Y-96055265D01*
X91348209Y-96028166D01*
X91286445Y-95985136D01*
X91274173Y-95976617D01*
X91171973Y-95923655D01*
X91053734Y-95885028D01*
X90938674Y-95865725D01*
X90846013Y-95870741D01*
X90844427Y-95871142D01*
X90802320Y-95888797D01*
X90783682Y-95923821D01*
X90779450Y-95992839D01*
X90779390Y-96098247D01*
X85511172Y-96098247D01*
X85511172Y-95398347D01*
X93120992Y-95398347D01*
X93120992Y-95958267D01*
X93120992Y-97256263D01*
X93349335Y-97256263D01*
X93356055Y-96452989D01*
X93362775Y-95649716D01*
X93617868Y-96192117D01*
X93698697Y-96364695D01*
X93775914Y-96525933D01*
X93838335Y-96642281D01*
X93890651Y-96713886D01*
X93937553Y-96740895D01*
X93983731Y-96723457D01*
X94033878Y-96661719D01*
X94092684Y-96555828D01*
X94164841Y-96405934D01*
X94255039Y-96212183D01*
X94298163Y-96120361D01*
X94366882Y-95975960D01*
X94427315Y-95851330D01*
X94476201Y-95753083D01*
X94510279Y-95687830D01*
X94526290Y-95662183D01*
X94528956Y-95667731D01*
X94533613Y-95714024D01*
X94537760Y-95802077D01*
X94541246Y-95925948D01*
X94543922Y-96079697D01*
X94545637Y-96257380D01*
X94546242Y-96453057D01*
X94546242Y-97256263D01*
X94749849Y-97256263D01*
X94749849Y-95398347D01*
X94428930Y-95398347D01*
X94192274Y-95901002D01*
X94163597Y-95961772D01*
X94095666Y-96104561D01*
X94035664Y-96229084D01*
X93986989Y-96328374D01*
X93953044Y-96395469D01*
X93937227Y-96423403D01*
X93931447Y-96420112D01*
X93906364Y-96381612D01*
X93865415Y-96306191D01*
X93811798Y-96200084D01*
X93748713Y-96069525D01*
X93679357Y-95920748D01*
X93439879Y-95398347D01*
X93120992Y-95398347D01*
X85511172Y-95398347D01*
X85511172Y-94736624D01*
X95513376Y-94736624D01*
X95513376Y-97256263D01*
G37*
D15*
%TO.C,U6*%
X107578100Y-97917200D02*
X107578100Y-102082800D01*
X102421900Y-102082800D02*
X102421900Y-97917200D01*
%TD*%
M02*
