%TF.GenerationSoftware,KiCad,Pcbnew,(6.0.9)*%
%TF.CreationDate,2023-02-04T14:30:42+01:00*%
%TF.ProjectId,MTR_Tiny_MD,4d54525f-5469-46e7-995f-4d442e6b6963,rev?*%
%TF.SameCoordinates,Original*%
%TF.FileFunction,Legend,Bot*%
%TF.FilePolarity,Positive*%
%FSLAX46Y46*%
G04 Gerber Fmt 4.6, Leading zero omitted, Abs format (unit mm)*
G04 Created by KiCad (PCBNEW (6.0.9)) date 2023-02-04 14:30:42*
%MOMM*%
%LPD*%
G01*
G04 APERTURE LIST*
%ADD10C,0.125000*%
%ADD11C,0.150000*%
%ADD12C,0.010000*%
%ADD13C,0.120000*%
%ADD14C,0.283607*%
G04 APERTURE END LIST*
D10*
X89016666Y-87676190D02*
X89016666Y-88033333D01*
X89040476Y-88104761D01*
X89088095Y-88152380D01*
X89159523Y-88176190D01*
X89207142Y-88176190D01*
X88540476Y-88176190D02*
X88778571Y-88176190D01*
X88778571Y-87676190D01*
X88088095Y-88128571D02*
X88111904Y-88152380D01*
X88183333Y-88176190D01*
X88230952Y-88176190D01*
X88302380Y-88152380D01*
X88350000Y-88104761D01*
X88373809Y-88057142D01*
X88397619Y-87961904D01*
X88397619Y-87890476D01*
X88373809Y-87795238D01*
X88350000Y-87747619D01*
X88302380Y-87700000D01*
X88230952Y-87676190D01*
X88183333Y-87676190D01*
X88111904Y-87700000D01*
X88088095Y-87723809D01*
X87730952Y-87676190D02*
X87730952Y-88033333D01*
X87754761Y-88104761D01*
X87802380Y-88152380D01*
X87873809Y-88176190D01*
X87921428Y-88176190D01*
X87254761Y-88176190D02*
X87492857Y-88176190D01*
X87492857Y-87676190D01*
X86802380Y-88128571D02*
X86826190Y-88152380D01*
X86897619Y-88176190D01*
X86945238Y-88176190D01*
X87016666Y-88152380D01*
X87064285Y-88104761D01*
X87088095Y-88057142D01*
X87111904Y-87961904D01*
X87111904Y-87890476D01*
X87088095Y-87795238D01*
X87064285Y-87747619D01*
X87016666Y-87700000D01*
X86945238Y-87676190D01*
X86897619Y-87676190D01*
X86826190Y-87700000D01*
X86802380Y-87723809D01*
X86445238Y-87676190D02*
X86445238Y-88033333D01*
X86469047Y-88104761D01*
X86516666Y-88152380D01*
X86588095Y-88176190D01*
X86635714Y-88176190D01*
X85969047Y-88176190D02*
X86207142Y-88176190D01*
X86207142Y-87676190D01*
X85516666Y-88128571D02*
X85540476Y-88152380D01*
X85611904Y-88176190D01*
X85659523Y-88176190D01*
X85730952Y-88152380D01*
X85778571Y-88104761D01*
X85802380Y-88057142D01*
X85826190Y-87961904D01*
X85826190Y-87890476D01*
X85802380Y-87795238D01*
X85778571Y-87747619D01*
X85730952Y-87700000D01*
X85659523Y-87676190D01*
X85611904Y-87676190D01*
X85540476Y-87700000D01*
X85516666Y-87723809D01*
D11*
%TO.C,G12*%
X98635000Y-97211904D02*
X98635000Y-96411904D01*
X98361190Y-96411904D01*
X98196904Y-96450000D01*
X98087380Y-96526190D01*
X98032619Y-96602380D01*
X97977857Y-96754761D01*
X97977857Y-96869047D01*
X98032619Y-97021428D01*
X98087380Y-97097619D01*
X98196904Y-97173809D01*
X98361190Y-97211904D01*
X98635000Y-97211904D01*
X97485000Y-96792857D02*
X97101666Y-96792857D01*
X96937380Y-97211904D02*
X97485000Y-97211904D01*
X97485000Y-96411904D01*
X96937380Y-96411904D01*
X96499285Y-97173809D02*
X96335000Y-97211904D01*
X96061190Y-97211904D01*
X95951666Y-97173809D01*
X95896904Y-97135714D01*
X95842142Y-97059523D01*
X95842142Y-96983333D01*
X95896904Y-96907142D01*
X95951666Y-96869047D01*
X96061190Y-96830952D01*
X96280238Y-96792857D01*
X96389761Y-96754761D01*
X96444523Y-96716666D01*
X96499285Y-96640476D01*
X96499285Y-96564285D01*
X96444523Y-96488095D01*
X96389761Y-96450000D01*
X96280238Y-96411904D01*
X96006428Y-96411904D01*
X95842142Y-96450000D01*
X95349285Y-97211904D02*
X95349285Y-96411904D01*
X94199285Y-96450000D02*
X94308809Y-96411904D01*
X94473095Y-96411904D01*
X94637380Y-96450000D01*
X94746904Y-96526190D01*
X94801666Y-96602380D01*
X94856428Y-96754761D01*
X94856428Y-96869047D01*
X94801666Y-97021428D01*
X94746904Y-97097619D01*
X94637380Y-97173809D01*
X94473095Y-97211904D01*
X94363571Y-97211904D01*
X94199285Y-97173809D01*
X94144523Y-97135714D01*
X94144523Y-96869047D01*
X94363571Y-96869047D01*
X93651666Y-97211904D02*
X93651666Y-96411904D01*
X92994523Y-97211904D01*
X92994523Y-96411904D01*
X92446904Y-96792857D02*
X92063571Y-96792857D01*
X91899285Y-97211904D02*
X92446904Y-97211904D01*
X92446904Y-96411904D01*
X91899285Y-96411904D01*
X91406428Y-97211904D02*
X91406428Y-96411904D01*
X91132619Y-96411904D01*
X90968333Y-96450000D01*
X90858809Y-96526190D01*
X90804047Y-96602380D01*
X90749285Y-96754761D01*
X90749285Y-96869047D01*
X90804047Y-97021428D01*
X90858809Y-97097619D01*
X90968333Y-97173809D01*
X91132619Y-97211904D01*
X91406428Y-97211904D01*
X89489761Y-96411904D02*
X89215952Y-97211904D01*
X88996904Y-96640476D01*
X88777857Y-97211904D01*
X88504047Y-96411904D01*
X88065952Y-97211904D02*
X88065952Y-96411904D01*
X87682619Y-96411904D02*
X87025476Y-96411904D01*
X87354047Y-97211904D02*
X87354047Y-96411904D01*
X86642142Y-97211904D02*
X86642142Y-96411904D01*
X86642142Y-96792857D02*
X85985000Y-96792857D01*
X85985000Y-97211904D02*
X85985000Y-96411904D01*
G36*
X98788939Y-98627904D02*
G01*
X98789090Y-98746874D01*
X98789167Y-98879757D01*
X98789174Y-99027353D01*
X98789118Y-99190464D01*
X98789004Y-99369891D01*
X98788838Y-99566434D01*
X98788626Y-99780895D01*
X98788374Y-100014074D01*
X98788086Y-100266772D01*
X98785479Y-102527551D01*
X98764437Y-102556235D01*
X98763221Y-102557847D01*
X98738315Y-102582560D01*
X98708557Y-102602684D01*
X98705125Y-102604206D01*
X98699215Y-102606045D01*
X98690929Y-102607740D01*
X98679486Y-102609297D01*
X98664105Y-102610722D01*
X98644008Y-102612021D01*
X98618413Y-102613199D01*
X98586540Y-102614263D01*
X98547610Y-102615218D01*
X98500842Y-102616070D01*
X98445456Y-102616825D01*
X98380672Y-102617489D01*
X98305710Y-102618067D01*
X98219790Y-102618566D01*
X98122131Y-102618990D01*
X98011953Y-102619347D01*
X97888477Y-102619642D01*
X97750922Y-102619881D01*
X97598507Y-102620069D01*
X97430454Y-102620212D01*
X97245981Y-102620317D01*
X97044309Y-102620389D01*
X96824658Y-102620433D01*
X96586246Y-102620456D01*
X96328295Y-102620464D01*
X96115254Y-102620477D01*
X95870383Y-102620514D01*
X95644439Y-102620554D01*
X95436653Y-102620576D01*
X95246256Y-102620561D01*
X95072479Y-102620486D01*
X94914552Y-102620332D01*
X94771706Y-102620077D01*
X94643172Y-102619700D01*
X94528182Y-102619182D01*
X94425965Y-102618501D01*
X94335754Y-102617636D01*
X94256778Y-102616566D01*
X94188268Y-102615272D01*
X94129456Y-102613731D01*
X94079572Y-102611924D01*
X94037847Y-102609829D01*
X94003513Y-102607425D01*
X93975799Y-102604693D01*
X93953937Y-102601611D01*
X93937157Y-102598158D01*
X93924691Y-102594314D01*
X93915770Y-102590057D01*
X93909623Y-102585368D01*
X93905483Y-102580224D01*
X93902580Y-102574607D01*
X93900144Y-102568494D01*
X93897407Y-102561865D01*
X93893600Y-102554699D01*
X93891894Y-102551856D01*
X93889741Y-102547604D01*
X93887759Y-102542156D01*
X93885942Y-102534716D01*
X93884281Y-102524485D01*
X93882771Y-102510668D01*
X93881403Y-102492468D01*
X93880171Y-102469087D01*
X93879067Y-102439730D01*
X93878086Y-102403598D01*
X93877218Y-102359896D01*
X93876458Y-102307826D01*
X93875799Y-102246592D01*
X93875232Y-102175397D01*
X93874752Y-102093444D01*
X93874746Y-102092160D01*
X94157633Y-102092160D01*
X95225357Y-102092160D01*
X95394181Y-102092160D01*
X96638009Y-102092160D01*
X96630647Y-102069300D01*
X96624228Y-102032450D01*
X96624507Y-101981221D01*
X96631926Y-101926828D01*
X96645846Y-101877338D01*
X96646509Y-101875614D01*
X96657032Y-101850226D01*
X96669918Y-101823127D01*
X96686058Y-101792994D01*
X96706346Y-101758503D01*
X96731674Y-101718331D01*
X96762934Y-101671155D01*
X96801019Y-101615653D01*
X96846822Y-101550501D01*
X96901234Y-101474376D01*
X96965149Y-101385955D01*
X97039459Y-101283915D01*
X97125055Y-101166933D01*
X97484999Y-100675825D01*
X97488143Y-100746452D01*
X97488665Y-100768264D01*
X97489053Y-100809344D01*
X97489255Y-100866213D01*
X97489274Y-100936509D01*
X97489113Y-101017872D01*
X97488773Y-101107942D01*
X97488258Y-101204358D01*
X97487570Y-101304760D01*
X97487348Y-101333572D01*
X97486457Y-101441943D01*
X97485554Y-101532450D01*
X97484550Y-101607077D01*
X97483357Y-101667804D01*
X97481885Y-101716614D01*
X97480046Y-101755489D01*
X97477750Y-101786410D01*
X97474910Y-101811361D01*
X97471436Y-101832322D01*
X97467239Y-101851276D01*
X97462231Y-101870205D01*
X97455425Y-101893316D01*
X97435903Y-101949141D01*
X97414433Y-101998725D01*
X97393110Y-102037531D01*
X97374032Y-102061022D01*
X97364966Y-102070119D01*
X97357999Y-102083244D01*
X97361021Y-102084195D01*
X97381337Y-102085841D01*
X97419326Y-102087356D01*
X97473280Y-102088711D01*
X97541490Y-102089881D01*
X97622248Y-102090837D01*
X97713847Y-102091554D01*
X97814578Y-102092004D01*
X97922733Y-102092160D01*
X98487467Y-102092160D01*
X98457461Y-102054060D01*
X98424519Y-102006150D01*
X98386345Y-101927487D01*
X98364321Y-101846916D01*
X98363108Y-101831228D01*
X98361840Y-101795694D01*
X98360664Y-101742501D01*
X98359579Y-101673055D01*
X98358587Y-101588759D01*
X98357686Y-101491017D01*
X98356879Y-101381233D01*
X98356166Y-101260811D01*
X98355546Y-101131155D01*
X98355020Y-100993669D01*
X98354588Y-100849757D01*
X98354252Y-100700822D01*
X98354011Y-100548270D01*
X98353865Y-100393503D01*
X98353816Y-100237927D01*
X98353863Y-100082944D01*
X98354007Y-99929959D01*
X98354249Y-99780375D01*
X98354588Y-99635597D01*
X98355025Y-99497030D01*
X98355561Y-99366075D01*
X98356196Y-99244139D01*
X98356930Y-99132624D01*
X98357764Y-99032934D01*
X98358698Y-98946474D01*
X98359732Y-98874648D01*
X98360868Y-98818859D01*
X98362105Y-98780512D01*
X98363443Y-98761011D01*
X98366430Y-98743632D01*
X98386939Y-98673342D01*
X98418605Y-98606056D01*
X98457629Y-98550276D01*
X98487864Y-98515840D01*
X97922662Y-98515840D01*
X97357460Y-98515839D01*
X97393543Y-98569179D01*
X97413552Y-98600701D01*
X97430748Y-98632977D01*
X97445233Y-98667643D01*
X97457215Y-98706491D01*
X97466902Y-98751313D01*
X97474501Y-98803900D01*
X97480221Y-98866046D01*
X97484269Y-98939542D01*
X97486852Y-99026179D01*
X97488180Y-99127751D01*
X97488459Y-99246049D01*
X97487897Y-99382865D01*
X97484999Y-99848571D01*
X97144639Y-99419222D01*
X97108960Y-99374187D01*
X97016835Y-99257551D01*
X96936459Y-99155052D01*
X96867041Y-99065486D01*
X96807794Y-98987650D01*
X96757928Y-98920338D01*
X96716655Y-98862348D01*
X96683187Y-98812475D01*
X96656734Y-98769514D01*
X96636508Y-98732263D01*
X96621721Y-98699516D01*
X96611584Y-98670071D01*
X96605309Y-98642722D01*
X96602106Y-98616266D01*
X96601187Y-98589500D01*
X96601079Y-98515840D01*
X96001639Y-98516372D01*
X95926428Y-98516447D01*
X95812273Y-98516614D01*
X95716145Y-98516869D01*
X95636595Y-98517257D01*
X95572174Y-98517824D01*
X95521430Y-98518613D01*
X95482916Y-98519671D01*
X95455180Y-98521041D01*
X95436773Y-98522768D01*
X95426246Y-98524898D01*
X95422149Y-98527476D01*
X95423031Y-98530545D01*
X95427444Y-98534152D01*
X95461649Y-98559766D01*
X95510026Y-98600517D01*
X95563037Y-98648882D01*
X95616071Y-98700632D01*
X95664515Y-98751536D01*
X95675991Y-98764240D01*
X95690173Y-98780196D01*
X95705668Y-98797976D01*
X95723237Y-98818514D01*
X95743640Y-98842745D01*
X95767639Y-98871603D01*
X95795994Y-98906024D01*
X95829464Y-98946942D01*
X95868811Y-98995293D01*
X95914795Y-99052011D01*
X95968176Y-99118030D01*
X96029716Y-99194286D01*
X96100174Y-99281714D01*
X96180311Y-99381247D01*
X96270887Y-99493822D01*
X96372663Y-99620373D01*
X96486400Y-99761835D01*
X96838745Y-100200110D01*
X96289300Y-100955635D01*
X96234464Y-101030999D01*
X96128891Y-101175810D01*
X96034011Y-101305497D01*
X95949084Y-101421020D01*
X95873368Y-101523342D01*
X95806122Y-101613424D01*
X95746606Y-101692227D01*
X95694078Y-101760714D01*
X95647797Y-101819845D01*
X95607023Y-101870583D01*
X95571014Y-101913889D01*
X95539029Y-101950724D01*
X95510327Y-101982050D01*
X95484168Y-102008829D01*
X95459810Y-102032023D01*
X95394181Y-102092160D01*
X95225357Y-102092160D01*
X95194072Y-102053229D01*
X95182145Y-102036785D01*
X95159151Y-101998425D01*
X95140253Y-101959249D01*
X95117719Y-101904200D01*
X95114663Y-100812000D01*
X95114288Y-100662969D01*
X95113982Y-100487066D01*
X95113884Y-100330224D01*
X95113999Y-100191732D01*
X95114332Y-100070881D01*
X95114889Y-99966959D01*
X95115676Y-99879258D01*
X95116696Y-99807065D01*
X95117956Y-99749671D01*
X95119461Y-99706366D01*
X95121216Y-99676438D01*
X95123227Y-99659178D01*
X95132074Y-99623371D01*
X95160699Y-99550449D01*
X95200249Y-99483580D01*
X95216718Y-99460720D01*
X94269758Y-99460720D01*
X94267019Y-100682460D01*
X94266914Y-100729117D01*
X94266498Y-100907614D01*
X94266091Y-101067171D01*
X94265673Y-101208900D01*
X94265225Y-101333909D01*
X94264726Y-101443308D01*
X94264159Y-101538207D01*
X94263503Y-101619716D01*
X94262740Y-101688944D01*
X94261849Y-101747001D01*
X94260812Y-101794996D01*
X94259609Y-101834041D01*
X94258221Y-101865243D01*
X94256629Y-101889713D01*
X94254812Y-101908560D01*
X94252753Y-101922895D01*
X94250430Y-101933827D01*
X94247826Y-101942465D01*
X94244921Y-101949920D01*
X94236601Y-101967763D01*
X94215059Y-102007123D01*
X94191598Y-102043900D01*
X94157633Y-102092160D01*
X93874746Y-102092160D01*
X93874350Y-101999936D01*
X93874020Y-101894076D01*
X93873756Y-101775068D01*
X93873549Y-101642114D01*
X93873392Y-101494419D01*
X93873279Y-101331184D01*
X93873203Y-101151613D01*
X93873156Y-100954910D01*
X93873131Y-100740277D01*
X93873121Y-100506918D01*
X93873119Y-100254036D01*
X93873129Y-100011202D01*
X93873162Y-99774826D01*
X93873225Y-99557253D01*
X93873322Y-99357705D01*
X93873460Y-99175402D01*
X93873643Y-99009568D01*
X93873876Y-98859424D01*
X93874166Y-98724192D01*
X93874517Y-98603094D01*
X93874934Y-98495351D01*
X93875424Y-98400187D01*
X93875991Y-98316823D01*
X93876640Y-98244481D01*
X93877378Y-98182382D01*
X93878208Y-98129749D01*
X93879138Y-98085804D01*
X93880171Y-98049768D01*
X93881314Y-98020864D01*
X93882571Y-97998314D01*
X93883948Y-97981339D01*
X93885451Y-97969161D01*
X93887084Y-97961003D01*
X93888853Y-97956086D01*
X93903944Y-97935356D01*
X93929855Y-97911563D01*
X93957953Y-97893292D01*
X93981113Y-97885957D01*
X93984305Y-97888584D01*
X93989775Y-97909018D01*
X93994192Y-97949641D01*
X93997546Y-98010380D01*
X93998610Y-98032204D01*
X94010684Y-98138079D01*
X94034910Y-98231187D01*
X94073071Y-98315650D01*
X94126945Y-98395589D01*
X94198314Y-98475125D01*
X94199123Y-98475934D01*
X94286918Y-98552379D01*
X94378934Y-98610145D01*
X94477639Y-98650785D01*
X94510398Y-98660149D01*
X94543533Y-98666745D01*
X94581167Y-98670768D01*
X94628567Y-98672774D01*
X94690999Y-98673320D01*
X94751705Y-98672811D01*
X94799502Y-98670860D01*
X94837366Y-98666910D01*
X94870563Y-98660404D01*
X94904359Y-98650785D01*
X94964289Y-98628129D01*
X95058551Y-98577285D01*
X95145790Y-98511779D01*
X95223347Y-98434408D01*
X95288567Y-98347970D01*
X95338792Y-98255261D01*
X95371365Y-98159081D01*
X95374593Y-98143054D01*
X95380807Y-98096966D01*
X95385142Y-98043097D01*
X95386809Y-97990060D01*
X95386959Y-97885920D01*
X97033884Y-97885919D01*
X97113112Y-97885916D01*
X97324627Y-97885873D01*
X97517058Y-97885816D01*
X97691319Y-97885786D01*
X97848323Y-97885822D01*
X97988984Y-97885966D01*
X98114216Y-97886258D01*
X98224932Y-97886738D01*
X98322046Y-97887447D01*
X98406473Y-97888426D01*
X98479126Y-97889714D01*
X98540918Y-97891353D01*
X98592763Y-97893384D01*
X98635576Y-97895845D01*
X98670269Y-97898779D01*
X98697757Y-97902226D01*
X98718954Y-97906226D01*
X98734772Y-97910819D01*
X98746127Y-97916047D01*
X98753931Y-97921950D01*
X98759098Y-97928568D01*
X98762543Y-97935942D01*
X98765179Y-97944112D01*
X98767919Y-97953120D01*
X98771678Y-97963004D01*
X98771696Y-97963045D01*
X98773819Y-97968325D01*
X98775776Y-97974705D01*
X98777574Y-97982985D01*
X98779216Y-97993965D01*
X98780710Y-98008447D01*
X98782060Y-98027231D01*
X98783272Y-98051119D01*
X98784353Y-98080911D01*
X98785308Y-98117408D01*
X98786143Y-98161411D01*
X98786862Y-98213721D01*
X98787473Y-98275139D01*
X98787980Y-98346465D01*
X98788390Y-98428501D01*
X98788687Y-98515840D01*
X98788708Y-98522047D01*
X98788939Y-98627904D01*
G37*
D12*
X98788939Y-98627904D02*
X98789090Y-98746874D01*
X98789167Y-98879757D01*
X98789174Y-99027353D01*
X98789118Y-99190464D01*
X98789004Y-99369891D01*
X98788838Y-99566434D01*
X98788626Y-99780895D01*
X98788374Y-100014074D01*
X98788086Y-100266772D01*
X98785479Y-102527551D01*
X98764437Y-102556235D01*
X98763221Y-102557847D01*
X98738315Y-102582560D01*
X98708557Y-102602684D01*
X98705125Y-102604206D01*
X98699215Y-102606045D01*
X98690929Y-102607740D01*
X98679486Y-102609297D01*
X98664105Y-102610722D01*
X98644008Y-102612021D01*
X98618413Y-102613199D01*
X98586540Y-102614263D01*
X98547610Y-102615218D01*
X98500842Y-102616070D01*
X98445456Y-102616825D01*
X98380672Y-102617489D01*
X98305710Y-102618067D01*
X98219790Y-102618566D01*
X98122131Y-102618990D01*
X98011953Y-102619347D01*
X97888477Y-102619642D01*
X97750922Y-102619881D01*
X97598507Y-102620069D01*
X97430454Y-102620212D01*
X97245981Y-102620317D01*
X97044309Y-102620389D01*
X96824658Y-102620433D01*
X96586246Y-102620456D01*
X96328295Y-102620464D01*
X96115254Y-102620477D01*
X95870383Y-102620514D01*
X95644439Y-102620554D01*
X95436653Y-102620576D01*
X95246256Y-102620561D01*
X95072479Y-102620486D01*
X94914552Y-102620332D01*
X94771706Y-102620077D01*
X94643172Y-102619700D01*
X94528182Y-102619182D01*
X94425965Y-102618501D01*
X94335754Y-102617636D01*
X94256778Y-102616566D01*
X94188268Y-102615272D01*
X94129456Y-102613731D01*
X94079572Y-102611924D01*
X94037847Y-102609829D01*
X94003513Y-102607425D01*
X93975799Y-102604693D01*
X93953937Y-102601611D01*
X93937157Y-102598158D01*
X93924691Y-102594314D01*
X93915770Y-102590057D01*
X93909623Y-102585368D01*
X93905483Y-102580224D01*
X93902580Y-102574607D01*
X93900144Y-102568494D01*
X93897407Y-102561865D01*
X93893600Y-102554699D01*
X93891894Y-102551856D01*
X93889741Y-102547604D01*
X93887759Y-102542156D01*
X93885942Y-102534716D01*
X93884281Y-102524485D01*
X93882771Y-102510668D01*
X93881403Y-102492468D01*
X93880171Y-102469087D01*
X93879067Y-102439730D01*
X93878086Y-102403598D01*
X93877218Y-102359896D01*
X93876458Y-102307826D01*
X93875799Y-102246592D01*
X93875232Y-102175397D01*
X93874752Y-102093444D01*
X93874746Y-102092160D01*
X94157633Y-102092160D01*
X95225357Y-102092160D01*
X95394181Y-102092160D01*
X96638009Y-102092160D01*
X96630647Y-102069300D01*
X96624228Y-102032450D01*
X96624507Y-101981221D01*
X96631926Y-101926828D01*
X96645846Y-101877338D01*
X96646509Y-101875614D01*
X96657032Y-101850226D01*
X96669918Y-101823127D01*
X96686058Y-101792994D01*
X96706346Y-101758503D01*
X96731674Y-101718331D01*
X96762934Y-101671155D01*
X96801019Y-101615653D01*
X96846822Y-101550501D01*
X96901234Y-101474376D01*
X96965149Y-101385955D01*
X97039459Y-101283915D01*
X97125055Y-101166933D01*
X97484999Y-100675825D01*
X97488143Y-100746452D01*
X97488665Y-100768264D01*
X97489053Y-100809344D01*
X97489255Y-100866213D01*
X97489274Y-100936509D01*
X97489113Y-101017872D01*
X97488773Y-101107942D01*
X97488258Y-101204358D01*
X97487570Y-101304760D01*
X97487348Y-101333572D01*
X97486457Y-101441943D01*
X97485554Y-101532450D01*
X97484550Y-101607077D01*
X97483357Y-101667804D01*
X97481885Y-101716614D01*
X97480046Y-101755489D01*
X97477750Y-101786410D01*
X97474910Y-101811361D01*
X97471436Y-101832322D01*
X97467239Y-101851276D01*
X97462231Y-101870205D01*
X97455425Y-101893316D01*
X97435903Y-101949141D01*
X97414433Y-101998725D01*
X97393110Y-102037531D01*
X97374032Y-102061022D01*
X97364966Y-102070119D01*
X97357999Y-102083244D01*
X97361021Y-102084195D01*
X97381337Y-102085841D01*
X97419326Y-102087356D01*
X97473280Y-102088711D01*
X97541490Y-102089881D01*
X97622248Y-102090837D01*
X97713847Y-102091554D01*
X97814578Y-102092004D01*
X97922733Y-102092160D01*
X98487467Y-102092160D01*
X98457461Y-102054060D01*
X98424519Y-102006150D01*
X98386345Y-101927487D01*
X98364321Y-101846916D01*
X98363108Y-101831228D01*
X98361840Y-101795694D01*
X98360664Y-101742501D01*
X98359579Y-101673055D01*
X98358587Y-101588759D01*
X98357686Y-101491017D01*
X98356879Y-101381233D01*
X98356166Y-101260811D01*
X98355546Y-101131155D01*
X98355020Y-100993669D01*
X98354588Y-100849757D01*
X98354252Y-100700822D01*
X98354011Y-100548270D01*
X98353865Y-100393503D01*
X98353816Y-100237927D01*
X98353863Y-100082944D01*
X98354007Y-99929959D01*
X98354249Y-99780375D01*
X98354588Y-99635597D01*
X98355025Y-99497030D01*
X98355561Y-99366075D01*
X98356196Y-99244139D01*
X98356930Y-99132624D01*
X98357764Y-99032934D01*
X98358698Y-98946474D01*
X98359732Y-98874648D01*
X98360868Y-98818859D01*
X98362105Y-98780512D01*
X98363443Y-98761011D01*
X98366430Y-98743632D01*
X98386939Y-98673342D01*
X98418605Y-98606056D01*
X98457629Y-98550276D01*
X98487864Y-98515840D01*
X97922662Y-98515840D01*
X97357460Y-98515839D01*
X97393543Y-98569179D01*
X97413552Y-98600701D01*
X97430748Y-98632977D01*
X97445233Y-98667643D01*
X97457215Y-98706491D01*
X97466902Y-98751313D01*
X97474501Y-98803900D01*
X97480221Y-98866046D01*
X97484269Y-98939542D01*
X97486852Y-99026179D01*
X97488180Y-99127751D01*
X97488459Y-99246049D01*
X97487897Y-99382865D01*
X97484999Y-99848571D01*
X97144639Y-99419222D01*
X97108960Y-99374187D01*
X97016835Y-99257551D01*
X96936459Y-99155052D01*
X96867041Y-99065486D01*
X96807794Y-98987650D01*
X96757928Y-98920338D01*
X96716655Y-98862348D01*
X96683187Y-98812475D01*
X96656734Y-98769514D01*
X96636508Y-98732263D01*
X96621721Y-98699516D01*
X96611584Y-98670071D01*
X96605309Y-98642722D01*
X96602106Y-98616266D01*
X96601187Y-98589500D01*
X96601079Y-98515840D01*
X96001639Y-98516372D01*
X95926428Y-98516447D01*
X95812273Y-98516614D01*
X95716145Y-98516869D01*
X95636595Y-98517257D01*
X95572174Y-98517824D01*
X95521430Y-98518613D01*
X95482916Y-98519671D01*
X95455180Y-98521041D01*
X95436773Y-98522768D01*
X95426246Y-98524898D01*
X95422149Y-98527476D01*
X95423031Y-98530545D01*
X95427444Y-98534152D01*
X95461649Y-98559766D01*
X95510026Y-98600517D01*
X95563037Y-98648882D01*
X95616071Y-98700632D01*
X95664515Y-98751536D01*
X95675991Y-98764240D01*
X95690173Y-98780196D01*
X95705668Y-98797976D01*
X95723237Y-98818514D01*
X95743640Y-98842745D01*
X95767639Y-98871603D01*
X95795994Y-98906024D01*
X95829464Y-98946942D01*
X95868811Y-98995293D01*
X95914795Y-99052011D01*
X95968176Y-99118030D01*
X96029716Y-99194286D01*
X96100174Y-99281714D01*
X96180311Y-99381247D01*
X96270887Y-99493822D01*
X96372663Y-99620373D01*
X96486400Y-99761835D01*
X96838745Y-100200110D01*
X96289300Y-100955635D01*
X96234464Y-101030999D01*
X96128891Y-101175810D01*
X96034011Y-101305497D01*
X95949084Y-101421020D01*
X95873368Y-101523342D01*
X95806122Y-101613424D01*
X95746606Y-101692227D01*
X95694078Y-101760714D01*
X95647797Y-101819845D01*
X95607023Y-101870583D01*
X95571014Y-101913889D01*
X95539029Y-101950724D01*
X95510327Y-101982050D01*
X95484168Y-102008829D01*
X95459810Y-102032023D01*
X95394181Y-102092160D01*
X95225357Y-102092160D01*
X95194072Y-102053229D01*
X95182145Y-102036785D01*
X95159151Y-101998425D01*
X95140253Y-101959249D01*
X95117719Y-101904200D01*
X95114663Y-100812000D01*
X95114288Y-100662969D01*
X95113982Y-100487066D01*
X95113884Y-100330224D01*
X95113999Y-100191732D01*
X95114332Y-100070881D01*
X95114889Y-99966959D01*
X95115676Y-99879258D01*
X95116696Y-99807065D01*
X95117956Y-99749671D01*
X95119461Y-99706366D01*
X95121216Y-99676438D01*
X95123227Y-99659178D01*
X95132074Y-99623371D01*
X95160699Y-99550449D01*
X95200249Y-99483580D01*
X95216718Y-99460720D01*
X94269758Y-99460720D01*
X94267019Y-100682460D01*
X94266914Y-100729117D01*
X94266498Y-100907614D01*
X94266091Y-101067171D01*
X94265673Y-101208900D01*
X94265225Y-101333909D01*
X94264726Y-101443308D01*
X94264159Y-101538207D01*
X94263503Y-101619716D01*
X94262740Y-101688944D01*
X94261849Y-101747001D01*
X94260812Y-101794996D01*
X94259609Y-101834041D01*
X94258221Y-101865243D01*
X94256629Y-101889713D01*
X94254812Y-101908560D01*
X94252753Y-101922895D01*
X94250430Y-101933827D01*
X94247826Y-101942465D01*
X94244921Y-101949920D01*
X94236601Y-101967763D01*
X94215059Y-102007123D01*
X94191598Y-102043900D01*
X94157633Y-102092160D01*
X93874746Y-102092160D01*
X93874350Y-101999936D01*
X93874020Y-101894076D01*
X93873756Y-101775068D01*
X93873549Y-101642114D01*
X93873392Y-101494419D01*
X93873279Y-101331184D01*
X93873203Y-101151613D01*
X93873156Y-100954910D01*
X93873131Y-100740277D01*
X93873121Y-100506918D01*
X93873119Y-100254036D01*
X93873129Y-100011202D01*
X93873162Y-99774826D01*
X93873225Y-99557253D01*
X93873322Y-99357705D01*
X93873460Y-99175402D01*
X93873643Y-99009568D01*
X93873876Y-98859424D01*
X93874166Y-98724192D01*
X93874517Y-98603094D01*
X93874934Y-98495351D01*
X93875424Y-98400187D01*
X93875991Y-98316823D01*
X93876640Y-98244481D01*
X93877378Y-98182382D01*
X93878208Y-98129749D01*
X93879138Y-98085804D01*
X93880171Y-98049768D01*
X93881314Y-98020864D01*
X93882571Y-97998314D01*
X93883948Y-97981339D01*
X93885451Y-97969161D01*
X93887084Y-97961003D01*
X93888853Y-97956086D01*
X93903944Y-97935356D01*
X93929855Y-97911563D01*
X93957953Y-97893292D01*
X93981113Y-97885957D01*
X93984305Y-97888584D01*
X93989775Y-97909018D01*
X93994192Y-97949641D01*
X93997546Y-98010380D01*
X93998610Y-98032204D01*
X94010684Y-98138079D01*
X94034910Y-98231187D01*
X94073071Y-98315650D01*
X94126945Y-98395589D01*
X94198314Y-98475125D01*
X94199123Y-98475934D01*
X94286918Y-98552379D01*
X94378934Y-98610145D01*
X94477639Y-98650785D01*
X94510398Y-98660149D01*
X94543533Y-98666745D01*
X94581167Y-98670768D01*
X94628567Y-98672774D01*
X94690999Y-98673320D01*
X94751705Y-98672811D01*
X94799502Y-98670860D01*
X94837366Y-98666910D01*
X94870563Y-98660404D01*
X94904359Y-98650785D01*
X94964289Y-98628129D01*
X95058551Y-98577285D01*
X95145790Y-98511779D01*
X95223347Y-98434408D01*
X95288567Y-98347970D01*
X95338792Y-98255261D01*
X95371365Y-98159081D01*
X95374593Y-98143054D01*
X95380807Y-98096966D01*
X95385142Y-98043097D01*
X95386809Y-97990060D01*
X95386959Y-97885920D01*
X97033884Y-97885919D01*
X97113112Y-97885916D01*
X97324627Y-97885873D01*
X97517058Y-97885816D01*
X97691319Y-97885786D01*
X97848323Y-97885822D01*
X97988984Y-97885966D01*
X98114216Y-97886258D01*
X98224932Y-97886738D01*
X98322046Y-97887447D01*
X98406473Y-97888426D01*
X98479126Y-97889714D01*
X98540918Y-97891353D01*
X98592763Y-97893384D01*
X98635576Y-97895845D01*
X98670269Y-97898779D01*
X98697757Y-97902226D01*
X98718954Y-97906226D01*
X98734772Y-97910819D01*
X98746127Y-97916047D01*
X98753931Y-97921950D01*
X98759098Y-97928568D01*
X98762543Y-97935942D01*
X98765179Y-97944112D01*
X98767919Y-97953120D01*
X98771678Y-97963004D01*
X98771696Y-97963045D01*
X98773819Y-97968325D01*
X98775776Y-97974705D01*
X98777574Y-97982985D01*
X98779216Y-97993965D01*
X98780710Y-98008447D01*
X98782060Y-98027231D01*
X98783272Y-98051119D01*
X98784353Y-98080911D01*
X98785308Y-98117408D01*
X98786143Y-98161411D01*
X98786862Y-98213721D01*
X98787473Y-98275139D01*
X98787980Y-98346465D01*
X98788390Y-98428501D01*
X98788687Y-98515840D01*
X98788708Y-98522047D01*
X98788939Y-98627904D01*
G36*
X88269263Y-101005016D02*
G01*
X88264477Y-101085549D01*
X88258076Y-101154786D01*
X88250169Y-101208240D01*
X88217324Y-101346686D01*
X88166164Y-101496784D01*
X88101590Y-101631901D01*
X88023429Y-101752341D01*
X87931508Y-101858406D01*
X87825653Y-101950399D01*
X87787522Y-101978085D01*
X87705622Y-102029511D01*
X87622563Y-102069364D01*
X87533693Y-102099355D01*
X87434363Y-102121198D01*
X87319919Y-102136605D01*
X87318327Y-102136765D01*
X87295815Y-102138208D01*
X87268839Y-102138150D01*
X87233466Y-102136401D01*
X87185763Y-102132773D01*
X87121799Y-102127076D01*
X87085242Y-102122709D01*
X86971049Y-102097447D01*
X86857712Y-102056053D01*
X86750848Y-102000853D01*
X86656076Y-101934175D01*
X86588399Y-101878353D01*
X86588399Y-102082000D01*
X85705092Y-102082000D01*
X85730410Y-102044691D01*
X85755726Y-101996183D01*
X85778361Y-101927291D01*
X85796154Y-101842171D01*
X85797320Y-101826338D01*
X85798518Y-101790190D01*
X85799641Y-101734916D01*
X85800684Y-101661138D01*
X85801645Y-101569477D01*
X85802520Y-101460556D01*
X85803210Y-101350352D01*
X86639199Y-101350352D01*
X86682379Y-101381840D01*
X86692972Y-101389404D01*
X86791018Y-101445725D01*
X86898279Y-101483956D01*
X86986554Y-101499776D01*
X87073103Y-101499377D01*
X87151455Y-101481661D01*
X87220365Y-101446917D01*
X87278588Y-101395435D01*
X87289212Y-101382691D01*
X87333635Y-101311586D01*
X87368378Y-101222754D01*
X87393416Y-101116322D01*
X87408726Y-100992417D01*
X87414284Y-100851166D01*
X87410066Y-100692696D01*
X87405314Y-100623867D01*
X87388668Y-100486654D01*
X87363340Y-100367591D01*
X87329211Y-100266471D01*
X87286160Y-100183087D01*
X87234067Y-100117229D01*
X87172811Y-100068690D01*
X87102272Y-100037262D01*
X87022329Y-100022737D01*
X86965990Y-100021826D01*
X86869957Y-100035659D01*
X86775711Y-100069298D01*
X86682379Y-100122998D01*
X86639199Y-100152576D01*
X86639199Y-101350352D01*
X85803210Y-101350352D01*
X85803306Y-101334994D01*
X85803999Y-101193415D01*
X85804596Y-101036440D01*
X85805094Y-100864690D01*
X85805488Y-100678788D01*
X85805777Y-100479354D01*
X85805955Y-100267011D01*
X85806021Y-100042380D01*
X85806079Y-98302480D01*
X86743137Y-98302480D01*
X86724706Y-98330420D01*
X86700756Y-98368529D01*
X86675305Y-98417741D01*
X86659224Y-98464795D01*
X86649566Y-98517018D01*
X86649277Y-98519461D01*
X86647363Y-98547218D01*
X86645569Y-98592662D01*
X86643935Y-98653497D01*
X86642498Y-98727427D01*
X86641298Y-98812156D01*
X86640375Y-98905387D01*
X86639767Y-99004825D01*
X86639513Y-99108173D01*
X86639199Y-99624306D01*
X86704322Y-99577836D01*
X86799815Y-99518728D01*
X86907411Y-99471563D01*
X87025392Y-99438652D01*
X87156694Y-99418963D01*
X87166617Y-99418049D01*
X87307881Y-99414982D01*
X87442948Y-99430853D01*
X87570999Y-99465378D01*
X87691214Y-99518273D01*
X87802773Y-99589255D01*
X87904856Y-99678039D01*
X87933592Y-99708192D01*
X88019834Y-99816919D01*
X88093527Y-99940572D01*
X88154790Y-100079453D01*
X88203741Y-100233862D01*
X88240500Y-100404100D01*
X88265186Y-100590468D01*
X88270068Y-100659681D01*
X88272835Y-100740519D01*
X88273551Y-100828013D01*
X88273234Y-100851166D01*
X88272324Y-100917674D01*
X88269263Y-101005016D01*
G37*
X88269263Y-101005016D02*
X88264477Y-101085549D01*
X88258076Y-101154786D01*
X88250169Y-101208240D01*
X88217324Y-101346686D01*
X88166164Y-101496784D01*
X88101590Y-101631901D01*
X88023429Y-101752341D01*
X87931508Y-101858406D01*
X87825653Y-101950399D01*
X87787522Y-101978085D01*
X87705622Y-102029511D01*
X87622563Y-102069364D01*
X87533693Y-102099355D01*
X87434363Y-102121198D01*
X87319919Y-102136605D01*
X87318327Y-102136765D01*
X87295815Y-102138208D01*
X87268839Y-102138150D01*
X87233466Y-102136401D01*
X87185763Y-102132773D01*
X87121799Y-102127076D01*
X87085242Y-102122709D01*
X86971049Y-102097447D01*
X86857712Y-102056053D01*
X86750848Y-102000853D01*
X86656076Y-101934175D01*
X86588399Y-101878353D01*
X86588399Y-102082000D01*
X85705092Y-102082000D01*
X85730410Y-102044691D01*
X85755726Y-101996183D01*
X85778361Y-101927291D01*
X85796154Y-101842171D01*
X85797320Y-101826338D01*
X85798518Y-101790190D01*
X85799641Y-101734916D01*
X85800684Y-101661138D01*
X85801645Y-101569477D01*
X85802520Y-101460556D01*
X85803210Y-101350352D01*
X86639199Y-101350352D01*
X86682379Y-101381840D01*
X86692972Y-101389404D01*
X86791018Y-101445725D01*
X86898279Y-101483956D01*
X86986554Y-101499776D01*
X87073103Y-101499377D01*
X87151455Y-101481661D01*
X87220365Y-101446917D01*
X87278588Y-101395435D01*
X87289212Y-101382691D01*
X87333635Y-101311586D01*
X87368378Y-101222754D01*
X87393416Y-101116322D01*
X87408726Y-100992417D01*
X87414284Y-100851166D01*
X87410066Y-100692696D01*
X87405314Y-100623867D01*
X87388668Y-100486654D01*
X87363340Y-100367591D01*
X87329211Y-100266471D01*
X87286160Y-100183087D01*
X87234067Y-100117229D01*
X87172811Y-100068690D01*
X87102272Y-100037262D01*
X87022329Y-100022737D01*
X86965990Y-100021826D01*
X86869957Y-100035659D01*
X86775711Y-100069298D01*
X86682379Y-100122998D01*
X86639199Y-100152576D01*
X86639199Y-101350352D01*
X85803210Y-101350352D01*
X85803306Y-101334994D01*
X85803999Y-101193415D01*
X85804596Y-101036440D01*
X85805094Y-100864690D01*
X85805488Y-100678788D01*
X85805777Y-100479354D01*
X85805955Y-100267011D01*
X85806021Y-100042380D01*
X85806079Y-98302480D01*
X86743137Y-98302480D01*
X86724706Y-98330420D01*
X86700756Y-98368529D01*
X86675305Y-98417741D01*
X86659224Y-98464795D01*
X86649566Y-98517018D01*
X86649277Y-98519461D01*
X86647363Y-98547218D01*
X86645569Y-98592662D01*
X86643935Y-98653497D01*
X86642498Y-98727427D01*
X86641298Y-98812156D01*
X86640375Y-98905387D01*
X86639767Y-99004825D01*
X86639513Y-99108173D01*
X86639199Y-99624306D01*
X86704322Y-99577836D01*
X86799815Y-99518728D01*
X86907411Y-99471563D01*
X87025392Y-99438652D01*
X87156694Y-99418963D01*
X87166617Y-99418049D01*
X87307881Y-99414982D01*
X87442948Y-99430853D01*
X87570999Y-99465378D01*
X87691214Y-99518273D01*
X87802773Y-99589255D01*
X87904856Y-99678039D01*
X87933592Y-99708192D01*
X88019834Y-99816919D01*
X88093527Y-99940572D01*
X88154790Y-100079453D01*
X88203741Y-100233862D01*
X88240500Y-100404100D01*
X88265186Y-100590468D01*
X88270068Y-100659681D01*
X88272835Y-100740519D01*
X88273551Y-100828013D01*
X88273234Y-100851166D01*
X88272324Y-100917674D01*
X88269263Y-101005016D01*
G36*
X94739345Y-97565473D02*
G01*
X94798308Y-97576875D01*
X94830472Y-97585603D01*
X94907863Y-97619713D01*
X94974005Y-97667979D01*
X95028147Y-97727927D01*
X95069536Y-97797084D01*
X95097422Y-97872978D01*
X95111054Y-97953133D01*
X95109678Y-98035079D01*
X95092544Y-98116340D01*
X95058901Y-98194445D01*
X95007996Y-98266920D01*
X94991259Y-98284425D01*
X94937479Y-98327134D01*
X94873835Y-98363328D01*
X94807839Y-98388446D01*
X94796009Y-98391420D01*
X94733445Y-98399705D01*
X94663438Y-98399591D01*
X94594808Y-98391489D01*
X94536372Y-98375809D01*
X94528966Y-98372878D01*
X94452675Y-98331496D01*
X94385853Y-98274861D01*
X94331924Y-98206455D01*
X94294313Y-98129760D01*
X94286303Y-98101114D01*
X94277876Y-98057351D01*
X94272457Y-98012920D01*
X94272930Y-97938051D01*
X94290382Y-97851201D01*
X94324942Y-97771878D01*
X94375028Y-97702196D01*
X94439055Y-97644269D01*
X94515440Y-97600212D01*
X94602600Y-97572137D01*
X94642854Y-97564928D01*
X94690441Y-97561561D01*
X94739345Y-97565473D01*
G37*
X94739345Y-97565473D02*
X94798308Y-97576875D01*
X94830472Y-97585603D01*
X94907863Y-97619713D01*
X94974005Y-97667979D01*
X95028147Y-97727927D01*
X95069536Y-97797084D01*
X95097422Y-97872978D01*
X95111054Y-97953133D01*
X95109678Y-98035079D01*
X95092544Y-98116340D01*
X95058901Y-98194445D01*
X95007996Y-98266920D01*
X94991259Y-98284425D01*
X94937479Y-98327134D01*
X94873835Y-98363328D01*
X94807839Y-98388446D01*
X94796009Y-98391420D01*
X94733445Y-98399705D01*
X94663438Y-98399591D01*
X94594808Y-98391489D01*
X94536372Y-98375809D01*
X94528966Y-98372878D01*
X94452675Y-98331496D01*
X94385853Y-98274861D01*
X94331924Y-98206455D01*
X94294313Y-98129760D01*
X94286303Y-98101114D01*
X94277876Y-98057351D01*
X94272457Y-98012920D01*
X94272930Y-97938051D01*
X94290382Y-97851201D01*
X94324942Y-97771878D01*
X94375028Y-97702196D01*
X94439055Y-97644269D01*
X94515440Y-97600212D01*
X94602600Y-97572137D01*
X94642854Y-97564928D01*
X94690441Y-97561561D01*
X94739345Y-97565473D01*
G36*
X90916216Y-101383929D02*
G01*
X90903835Y-101471364D01*
X90882294Y-101553150D01*
X90850108Y-101635354D01*
X90805786Y-101724040D01*
X90750190Y-101808342D01*
X90674875Y-101889976D01*
X90584941Y-101962465D01*
X90482800Y-102024358D01*
X90370865Y-102074205D01*
X90251546Y-102110557D01*
X90127256Y-102131964D01*
X90019266Y-102136939D01*
X89893868Y-102128514D01*
X89770439Y-102106232D01*
X89656197Y-102071026D01*
X89625780Y-102058122D01*
X89567394Y-102028586D01*
X89507842Y-101993557D01*
X89453895Y-101957132D01*
X89412324Y-101923412D01*
X89409544Y-101920847D01*
X89390770Y-101905421D01*
X89379304Y-101899120D01*
X89377783Y-101901241D01*
X89374941Y-101918536D01*
X89372974Y-101949467D01*
X89372239Y-101989472D01*
X89372239Y-101990273D01*
X89371538Y-102035055D01*
X89369048Y-102063403D01*
X89364135Y-102079116D01*
X89356169Y-102085992D01*
X89354753Y-102086349D01*
X89336626Y-102087834D01*
X89301437Y-102089052D01*
X89251857Y-102090009D01*
X89190556Y-102090713D01*
X89120203Y-102091171D01*
X89043468Y-102091389D01*
X88963022Y-102091375D01*
X88881535Y-102091136D01*
X88801677Y-102090678D01*
X88726118Y-102090010D01*
X88657527Y-102089137D01*
X88598576Y-102088068D01*
X88551934Y-102086808D01*
X88520271Y-102085366D01*
X88506257Y-102083748D01*
X88499773Y-102080484D01*
X88496112Y-102072666D01*
X88502181Y-102057763D01*
X88519117Y-102031122D01*
X88526422Y-102020260D01*
X88536679Y-102004771D01*
X88545625Y-101989851D01*
X88553361Y-101974108D01*
X88559991Y-101956149D01*
X88565618Y-101934581D01*
X88570343Y-101908013D01*
X88574269Y-101875051D01*
X88577499Y-101834303D01*
X88580135Y-101784376D01*
X88582281Y-101723879D01*
X88584038Y-101651418D01*
X88585509Y-101565600D01*
X88586797Y-101465034D01*
X88588005Y-101348327D01*
X88588013Y-101347431D01*
X89412879Y-101347431D01*
X89442018Y-101387655D01*
X89487263Y-101439732D01*
X89549034Y-101489722D01*
X89615273Y-101524499D01*
X89634257Y-101530924D01*
X89693145Y-101543783D01*
X89759891Y-101550721D01*
X89827734Y-101551540D01*
X89889916Y-101546041D01*
X89939679Y-101534026D01*
X89970859Y-101521849D01*
X89999267Y-101507819D01*
X90024940Y-101489858D01*
X90056430Y-101462748D01*
X90076337Y-101442043D01*
X90109827Y-101387736D01*
X90129650Y-101324136D01*
X90135222Y-101255673D01*
X90125961Y-101186777D01*
X90101282Y-101121880D01*
X90089205Y-101101714D01*
X90042335Y-101048953D01*
X89978478Y-101004178D01*
X89899191Y-100968154D01*
X89806036Y-100941645D01*
X89700573Y-100925418D01*
X89679003Y-100923719D01*
X89629679Y-100921939D01*
X89576654Y-100922176D01*
X89524727Y-100924198D01*
X89478700Y-100927778D01*
X89443373Y-100932683D01*
X89423547Y-100938686D01*
X89421231Y-100943123D01*
X89417648Y-100966491D01*
X89415030Y-101008760D01*
X89413425Y-101069017D01*
X89412879Y-101146355D01*
X89412879Y-101347431D01*
X88588013Y-101347431D01*
X88589234Y-101214086D01*
X88590588Y-101060920D01*
X88590636Y-101055524D01*
X88591992Y-100917540D01*
X88593513Y-100786991D01*
X88595168Y-100665310D01*
X88596929Y-100553928D01*
X88598769Y-100454277D01*
X88600657Y-100367787D01*
X88602567Y-100295891D01*
X88604468Y-100240020D01*
X88606333Y-100201606D01*
X88608133Y-100182080D01*
X88609517Y-100174597D01*
X88640688Y-100037235D01*
X88680062Y-99917388D01*
X88728550Y-99813656D01*
X88787064Y-99724641D01*
X88856516Y-99648942D01*
X88937817Y-99585162D01*
X89031879Y-99531900D01*
X89106781Y-99499026D01*
X89196069Y-99468451D01*
X89290377Y-99445849D01*
X89393358Y-99430544D01*
X89508663Y-99421857D01*
X89639942Y-99419112D01*
X89672991Y-99419161D01*
X89736881Y-99419785D01*
X89792723Y-99421528D01*
X89843983Y-99424890D01*
X89894123Y-99430369D01*
X89946608Y-99438466D01*
X90004902Y-99449682D01*
X90072468Y-99464515D01*
X90152772Y-99483465D01*
X90249276Y-99507033D01*
X90311378Y-99522109D01*
X90382482Y-99538846D01*
X90447479Y-99553601D01*
X90502973Y-99565622D01*
X90545564Y-99574156D01*
X90571856Y-99578451D01*
X90598994Y-99582354D01*
X90622882Y-99587854D01*
X90632079Y-99592981D01*
X90631604Y-99594976D01*
X90625414Y-99612181D01*
X90613007Y-99644119D01*
X90595589Y-99687822D01*
X90574364Y-99740319D01*
X90550536Y-99798643D01*
X90525311Y-99859823D01*
X90499894Y-99920892D01*
X90475489Y-99978880D01*
X90465877Y-100001747D01*
X90446245Y-100049153D01*
X90428316Y-100093180D01*
X90416677Y-100120447D01*
X90405545Y-100142929D01*
X90399070Y-100151537D01*
X90398505Y-100151479D01*
X90385068Y-100146334D01*
X90362839Y-100135416D01*
X90323847Y-100116348D01*
X90256153Y-100087374D01*
X90180752Y-100058741D01*
X90104801Y-100033123D01*
X90035459Y-100013192D01*
X89997158Y-100003882D01*
X89949999Y-99994484D01*
X89904410Y-99988726D01*
X89853106Y-99985768D01*
X89788799Y-99984770D01*
X89755744Y-99984721D01*
X89707346Y-99985373D01*
X89672058Y-99987481D01*
X89645195Y-99991623D01*
X89622070Y-99998379D01*
X89598000Y-100008326D01*
X89555332Y-100032247D01*
X89499927Y-100082197D01*
X89456406Y-100147729D01*
X89425334Y-100227917D01*
X89407273Y-100321833D01*
X89400200Y-100384346D01*
X89612280Y-100383601D01*
X89645980Y-100383561D01*
X89771832Y-100385161D01*
X89882267Y-100389879D01*
X89981082Y-100398099D01*
X90072074Y-100410204D01*
X90159040Y-100426578D01*
X90245779Y-100447604D01*
X90273206Y-100455297D01*
X90399017Y-100500450D01*
X90515301Y-100558562D01*
X90620055Y-100628152D01*
X90711273Y-100707735D01*
X90786951Y-100795829D01*
X90845085Y-100890952D01*
X90864267Y-100932079D01*
X90890721Y-101003417D01*
X90908198Y-101076981D01*
X90917910Y-101158564D01*
X90921071Y-101253960D01*
X90921062Y-101255673D01*
X90920925Y-101284780D01*
X90916216Y-101383929D01*
G37*
X90916216Y-101383929D02*
X90903835Y-101471364D01*
X90882294Y-101553150D01*
X90850108Y-101635354D01*
X90805786Y-101724040D01*
X90750190Y-101808342D01*
X90674875Y-101889976D01*
X90584941Y-101962465D01*
X90482800Y-102024358D01*
X90370865Y-102074205D01*
X90251546Y-102110557D01*
X90127256Y-102131964D01*
X90019266Y-102136939D01*
X89893868Y-102128514D01*
X89770439Y-102106232D01*
X89656197Y-102071026D01*
X89625780Y-102058122D01*
X89567394Y-102028586D01*
X89507842Y-101993557D01*
X89453895Y-101957132D01*
X89412324Y-101923412D01*
X89409544Y-101920847D01*
X89390770Y-101905421D01*
X89379304Y-101899120D01*
X89377783Y-101901241D01*
X89374941Y-101918536D01*
X89372974Y-101949467D01*
X89372239Y-101989472D01*
X89372239Y-101990273D01*
X89371538Y-102035055D01*
X89369048Y-102063403D01*
X89364135Y-102079116D01*
X89356169Y-102085992D01*
X89354753Y-102086349D01*
X89336626Y-102087834D01*
X89301437Y-102089052D01*
X89251857Y-102090009D01*
X89190556Y-102090713D01*
X89120203Y-102091171D01*
X89043468Y-102091389D01*
X88963022Y-102091375D01*
X88881535Y-102091136D01*
X88801677Y-102090678D01*
X88726118Y-102090010D01*
X88657527Y-102089137D01*
X88598576Y-102088068D01*
X88551934Y-102086808D01*
X88520271Y-102085366D01*
X88506257Y-102083748D01*
X88499773Y-102080484D01*
X88496112Y-102072666D01*
X88502181Y-102057763D01*
X88519117Y-102031122D01*
X88526422Y-102020260D01*
X88536679Y-102004771D01*
X88545625Y-101989851D01*
X88553361Y-101974108D01*
X88559991Y-101956149D01*
X88565618Y-101934581D01*
X88570343Y-101908013D01*
X88574269Y-101875051D01*
X88577499Y-101834303D01*
X88580135Y-101784376D01*
X88582281Y-101723879D01*
X88584038Y-101651418D01*
X88585509Y-101565600D01*
X88586797Y-101465034D01*
X88588005Y-101348327D01*
X88588013Y-101347431D01*
X89412879Y-101347431D01*
X89442018Y-101387655D01*
X89487263Y-101439732D01*
X89549034Y-101489722D01*
X89615273Y-101524499D01*
X89634257Y-101530924D01*
X89693145Y-101543783D01*
X89759891Y-101550721D01*
X89827734Y-101551540D01*
X89889916Y-101546041D01*
X89939679Y-101534026D01*
X89970859Y-101521849D01*
X89999267Y-101507819D01*
X90024940Y-101489858D01*
X90056430Y-101462748D01*
X90076337Y-101442043D01*
X90109827Y-101387736D01*
X90129650Y-101324136D01*
X90135222Y-101255673D01*
X90125961Y-101186777D01*
X90101282Y-101121880D01*
X90089205Y-101101714D01*
X90042335Y-101048953D01*
X89978478Y-101004178D01*
X89899191Y-100968154D01*
X89806036Y-100941645D01*
X89700573Y-100925418D01*
X89679003Y-100923719D01*
X89629679Y-100921939D01*
X89576654Y-100922176D01*
X89524727Y-100924198D01*
X89478700Y-100927778D01*
X89443373Y-100932683D01*
X89423547Y-100938686D01*
X89421231Y-100943123D01*
X89417648Y-100966491D01*
X89415030Y-101008760D01*
X89413425Y-101069017D01*
X89412879Y-101146355D01*
X89412879Y-101347431D01*
X88588013Y-101347431D01*
X88589234Y-101214086D01*
X88590588Y-101060920D01*
X88590636Y-101055524D01*
X88591992Y-100917540D01*
X88593513Y-100786991D01*
X88595168Y-100665310D01*
X88596929Y-100553928D01*
X88598769Y-100454277D01*
X88600657Y-100367787D01*
X88602567Y-100295891D01*
X88604468Y-100240020D01*
X88606333Y-100201606D01*
X88608133Y-100182080D01*
X88609517Y-100174597D01*
X88640688Y-100037235D01*
X88680062Y-99917388D01*
X88728550Y-99813656D01*
X88787064Y-99724641D01*
X88856516Y-99648942D01*
X88937817Y-99585162D01*
X89031879Y-99531900D01*
X89106781Y-99499026D01*
X89196069Y-99468451D01*
X89290377Y-99445849D01*
X89393358Y-99430544D01*
X89508663Y-99421857D01*
X89639942Y-99419112D01*
X89672991Y-99419161D01*
X89736881Y-99419785D01*
X89792723Y-99421528D01*
X89843983Y-99424890D01*
X89894123Y-99430369D01*
X89946608Y-99438466D01*
X90004902Y-99449682D01*
X90072468Y-99464515D01*
X90152772Y-99483465D01*
X90249276Y-99507033D01*
X90311378Y-99522109D01*
X90382482Y-99538846D01*
X90447479Y-99553601D01*
X90502973Y-99565622D01*
X90545564Y-99574156D01*
X90571856Y-99578451D01*
X90598994Y-99582354D01*
X90622882Y-99587854D01*
X90632079Y-99592981D01*
X90631604Y-99594976D01*
X90625414Y-99612181D01*
X90613007Y-99644119D01*
X90595589Y-99687822D01*
X90574364Y-99740319D01*
X90550536Y-99798643D01*
X90525311Y-99859823D01*
X90499894Y-99920892D01*
X90475489Y-99978880D01*
X90465877Y-100001747D01*
X90446245Y-100049153D01*
X90428316Y-100093180D01*
X90416677Y-100120447D01*
X90405545Y-100142929D01*
X90399070Y-100151537D01*
X90398505Y-100151479D01*
X90385068Y-100146334D01*
X90362839Y-100135416D01*
X90323847Y-100116348D01*
X90256153Y-100087374D01*
X90180752Y-100058741D01*
X90104801Y-100033123D01*
X90035459Y-100013192D01*
X89997158Y-100003882D01*
X89949999Y-99994484D01*
X89904410Y-99988726D01*
X89853106Y-99985768D01*
X89788799Y-99984770D01*
X89755744Y-99984721D01*
X89707346Y-99985373D01*
X89672058Y-99987481D01*
X89645195Y-99991623D01*
X89622070Y-99998379D01*
X89598000Y-100008326D01*
X89555332Y-100032247D01*
X89499927Y-100082197D01*
X89456406Y-100147729D01*
X89425334Y-100227917D01*
X89407273Y-100321833D01*
X89400200Y-100384346D01*
X89612280Y-100383601D01*
X89645980Y-100383561D01*
X89771832Y-100385161D01*
X89882267Y-100389879D01*
X89981082Y-100398099D01*
X90072074Y-100410204D01*
X90159040Y-100426578D01*
X90245779Y-100447604D01*
X90273206Y-100455297D01*
X90399017Y-100500450D01*
X90515301Y-100558562D01*
X90620055Y-100628152D01*
X90711273Y-100707735D01*
X90786951Y-100795829D01*
X90845085Y-100890952D01*
X90864267Y-100932079D01*
X90890721Y-101003417D01*
X90908198Y-101076981D01*
X90917910Y-101158564D01*
X90921071Y-101253960D01*
X90921062Y-101255673D01*
X90920925Y-101284780D01*
X90916216Y-101383929D01*
G36*
X92123944Y-98470031D02*
G01*
X92292805Y-98491224D01*
X92457327Y-98531005D01*
X92616136Y-98589171D01*
X92767858Y-98665521D01*
X92911121Y-98759856D01*
X92917090Y-98764321D01*
X93061320Y-98884175D01*
X93188668Y-99014580D01*
X93299345Y-99155920D01*
X93393560Y-99308581D01*
X93471523Y-99472945D01*
X93533444Y-99649399D01*
X93579533Y-99838326D01*
X93610000Y-100040112D01*
X93611871Y-100059939D01*
X93615502Y-100124717D01*
X93617247Y-100202953D01*
X93617220Y-100289827D01*
X93615537Y-100380515D01*
X93612313Y-100470199D01*
X93607664Y-100554055D01*
X93601705Y-100627262D01*
X93594553Y-100685000D01*
X93583629Y-100747597D01*
X93539409Y-100934025D01*
X93479478Y-101111883D01*
X93404609Y-101279759D01*
X93315574Y-101436242D01*
X93213147Y-101579921D01*
X93098100Y-101709386D01*
X92971205Y-101823225D01*
X92876772Y-101892933D01*
X92734180Y-101978507D01*
X92584503Y-102045519D01*
X92426187Y-102094627D01*
X92257679Y-102126493D01*
X92227896Y-102130248D01*
X92039106Y-102142299D01*
X91848660Y-102134575D01*
X91658428Y-102107232D01*
X91470279Y-102060427D01*
X91441026Y-102050195D01*
X91398828Y-102033379D01*
X91347357Y-102011555D01*
X91289406Y-101986031D01*
X91227767Y-101958117D01*
X91165229Y-101929123D01*
X91104585Y-101900357D01*
X91048627Y-101873130D01*
X91000145Y-101848751D01*
X90961931Y-101828529D01*
X90936776Y-101813773D01*
X90927471Y-101805794D01*
X90928308Y-101803893D01*
X90937155Y-101788032D01*
X90954516Y-101758143D01*
X90978968Y-101716596D01*
X91009089Y-101665766D01*
X91043457Y-101608023D01*
X91080651Y-101545740D01*
X91119249Y-101481289D01*
X91157829Y-101417044D01*
X91194969Y-101355375D01*
X91229247Y-101298656D01*
X91259241Y-101249259D01*
X91283530Y-101209555D01*
X91300692Y-101181918D01*
X91309304Y-101168719D01*
X91311985Y-101169624D01*
X91326496Y-101180570D01*
X91350478Y-101201192D01*
X91380522Y-101228621D01*
X91398046Y-101244663D01*
X91503828Y-101327737D01*
X91613137Y-101391702D01*
X91724539Y-101436897D01*
X91836604Y-101463662D01*
X91947898Y-101472335D01*
X92056989Y-101463254D01*
X92162446Y-101436759D01*
X92262836Y-101393188D01*
X92356727Y-101332879D01*
X92442687Y-101256173D01*
X92519283Y-101163407D01*
X92585083Y-101054920D01*
X92638655Y-100931050D01*
X92646893Y-100906899D01*
X92675686Y-100801758D01*
X92698804Y-100682518D01*
X92715757Y-100553623D01*
X92726052Y-100419514D01*
X92729198Y-100284635D01*
X92724704Y-100153428D01*
X92723111Y-100130072D01*
X92716750Y-100051503D01*
X92709217Y-99985077D01*
X92699520Y-99924314D01*
X92686667Y-99862733D01*
X92669665Y-99793852D01*
X92654243Y-99738471D01*
X92605835Y-99601759D01*
X92547255Y-99482068D01*
X92478731Y-99379587D01*
X92400494Y-99294504D01*
X92312770Y-99227008D01*
X92215790Y-99177288D01*
X92109783Y-99145531D01*
X91994976Y-99131926D01*
X91871599Y-99136661D01*
X91867492Y-99137121D01*
X91749259Y-99159760D01*
X91641500Y-99199657D01*
X91543320Y-99257231D01*
X91453828Y-99332901D01*
X91446606Y-99340029D01*
X91420223Y-99365259D01*
X91400428Y-99382937D01*
X91391055Y-99389600D01*
X91389180Y-99387703D01*
X91377590Y-99372418D01*
X91356923Y-99343713D01*
X91328755Y-99303878D01*
X91294667Y-99255204D01*
X91256235Y-99199980D01*
X91215038Y-99140498D01*
X91172654Y-99079048D01*
X91130662Y-99017920D01*
X91090640Y-98959406D01*
X91054165Y-98905796D01*
X91022816Y-98859379D01*
X90998171Y-98822448D01*
X90981809Y-98797291D01*
X90975307Y-98786201D01*
X90975909Y-98783510D01*
X90988703Y-98774335D01*
X91013079Y-98764829D01*
X91031113Y-98758113D01*
X91065873Y-98743274D01*
X91111716Y-98722560D01*
X91164820Y-98697704D01*
X91221359Y-98670439D01*
X91260935Y-98651473D01*
X91326511Y-98621487D01*
X91391343Y-98593364D01*
X91449657Y-98569583D01*
X91495679Y-98552625D01*
X91605055Y-98519981D01*
X91778695Y-98484208D01*
X91952116Y-98467625D01*
X92123944Y-98470031D01*
G37*
X92123944Y-98470031D02*
X92292805Y-98491224D01*
X92457327Y-98531005D01*
X92616136Y-98589171D01*
X92767858Y-98665521D01*
X92911121Y-98759856D01*
X92917090Y-98764321D01*
X93061320Y-98884175D01*
X93188668Y-99014580D01*
X93299345Y-99155920D01*
X93393560Y-99308581D01*
X93471523Y-99472945D01*
X93533444Y-99649399D01*
X93579533Y-99838326D01*
X93610000Y-100040112D01*
X93611871Y-100059939D01*
X93615502Y-100124717D01*
X93617247Y-100202953D01*
X93617220Y-100289827D01*
X93615537Y-100380515D01*
X93612313Y-100470199D01*
X93607664Y-100554055D01*
X93601705Y-100627262D01*
X93594553Y-100685000D01*
X93583629Y-100747597D01*
X93539409Y-100934025D01*
X93479478Y-101111883D01*
X93404609Y-101279759D01*
X93315574Y-101436242D01*
X93213147Y-101579921D01*
X93098100Y-101709386D01*
X92971205Y-101823225D01*
X92876772Y-101892933D01*
X92734180Y-101978507D01*
X92584503Y-102045519D01*
X92426187Y-102094627D01*
X92257679Y-102126493D01*
X92227896Y-102130248D01*
X92039106Y-102142299D01*
X91848660Y-102134575D01*
X91658428Y-102107232D01*
X91470279Y-102060427D01*
X91441026Y-102050195D01*
X91398828Y-102033379D01*
X91347357Y-102011555D01*
X91289406Y-101986031D01*
X91227767Y-101958117D01*
X91165229Y-101929123D01*
X91104585Y-101900357D01*
X91048627Y-101873130D01*
X91000145Y-101848751D01*
X90961931Y-101828529D01*
X90936776Y-101813773D01*
X90927471Y-101805794D01*
X90928308Y-101803893D01*
X90937155Y-101788032D01*
X90954516Y-101758143D01*
X90978968Y-101716596D01*
X91009089Y-101665766D01*
X91043457Y-101608023D01*
X91080651Y-101545740D01*
X91119249Y-101481289D01*
X91157829Y-101417044D01*
X91194969Y-101355375D01*
X91229247Y-101298656D01*
X91259241Y-101249259D01*
X91283530Y-101209555D01*
X91300692Y-101181918D01*
X91309304Y-101168719D01*
X91311985Y-101169624D01*
X91326496Y-101180570D01*
X91350478Y-101201192D01*
X91380522Y-101228621D01*
X91398046Y-101244663D01*
X91503828Y-101327737D01*
X91613137Y-101391702D01*
X91724539Y-101436897D01*
X91836604Y-101463662D01*
X91947898Y-101472335D01*
X92056989Y-101463254D01*
X92162446Y-101436759D01*
X92262836Y-101393188D01*
X92356727Y-101332879D01*
X92442687Y-101256173D01*
X92519283Y-101163407D01*
X92585083Y-101054920D01*
X92638655Y-100931050D01*
X92646893Y-100906899D01*
X92675686Y-100801758D01*
X92698804Y-100682518D01*
X92715757Y-100553623D01*
X92726052Y-100419514D01*
X92729198Y-100284635D01*
X92724704Y-100153428D01*
X92723111Y-100130072D01*
X92716750Y-100051503D01*
X92709217Y-99985077D01*
X92699520Y-99924314D01*
X92686667Y-99862733D01*
X92669665Y-99793852D01*
X92654243Y-99738471D01*
X92605835Y-99601759D01*
X92547255Y-99482068D01*
X92478731Y-99379587D01*
X92400494Y-99294504D01*
X92312770Y-99227008D01*
X92215790Y-99177288D01*
X92109783Y-99145531D01*
X91994976Y-99131926D01*
X91871599Y-99136661D01*
X91867492Y-99137121D01*
X91749259Y-99159760D01*
X91641500Y-99199657D01*
X91543320Y-99257231D01*
X91453828Y-99332901D01*
X91446606Y-99340029D01*
X91420223Y-99365259D01*
X91400428Y-99382937D01*
X91391055Y-99389600D01*
X91389180Y-99387703D01*
X91377590Y-99372418D01*
X91356923Y-99343713D01*
X91328755Y-99303878D01*
X91294667Y-99255204D01*
X91256235Y-99199980D01*
X91215038Y-99140498D01*
X91172654Y-99079048D01*
X91130662Y-99017920D01*
X91090640Y-98959406D01*
X91054165Y-98905796D01*
X91022816Y-98859379D01*
X90998171Y-98822448D01*
X90981809Y-98797291D01*
X90975307Y-98786201D01*
X90975909Y-98783510D01*
X90988703Y-98774335D01*
X91013079Y-98764829D01*
X91031113Y-98758113D01*
X91065873Y-98743274D01*
X91111716Y-98722560D01*
X91164820Y-98697704D01*
X91221359Y-98670439D01*
X91260935Y-98651473D01*
X91326511Y-98621487D01*
X91391343Y-98593364D01*
X91449657Y-98569583D01*
X91495679Y-98552625D01*
X91605055Y-98519981D01*
X91778695Y-98484208D01*
X91952116Y-98467625D01*
X92123944Y-98470031D01*
%TO.C,G\u002A\u002A\u002A*%
G36*
X100396172Y-91373828D02*
G01*
X100396172Y-82733247D01*
X105664390Y-82733247D01*
X105848969Y-82726104D01*
X105849285Y-82726092D01*
X105952131Y-82724560D01*
X106025385Y-82732698D01*
X106090059Y-82755163D01*
X106167164Y-82796609D01*
X106300781Y-82874256D01*
X106300781Y-83891263D01*
X106529839Y-83891263D01*
X106529839Y-83776858D01*
X106809799Y-83776858D01*
X106819988Y-83844025D01*
X106854338Y-83875373D01*
X106925098Y-83891263D01*
X106940056Y-83894622D01*
X107093445Y-83903830D01*
X107178799Y-83891263D01*
X108005992Y-83891263D01*
X108234335Y-83891263D01*
X108241055Y-83087989D01*
X108247775Y-82284716D01*
X108502868Y-82827117D01*
X108583697Y-82999695D01*
X108660914Y-83160933D01*
X108723335Y-83277281D01*
X108775651Y-83348886D01*
X108822553Y-83375895D01*
X108868731Y-83358457D01*
X108918878Y-83296719D01*
X108977684Y-83190828D01*
X109049841Y-83040934D01*
X109140039Y-82847183D01*
X109183163Y-82755361D01*
X109251882Y-82610960D01*
X109312315Y-82486330D01*
X109361201Y-82388083D01*
X109395279Y-82322830D01*
X109411290Y-82297183D01*
X109413956Y-82302731D01*
X109418613Y-82349024D01*
X109422760Y-82437077D01*
X109426246Y-82560948D01*
X109428922Y-82714697D01*
X109430637Y-82892380D01*
X109431242Y-83088057D01*
X109431242Y-83891263D01*
X109634849Y-83891263D01*
X109634849Y-82033347D01*
X109313930Y-82033347D01*
X109077274Y-82536002D01*
X109048597Y-82596772D01*
X108980666Y-82739561D01*
X108920664Y-82864084D01*
X108871989Y-82963374D01*
X108838044Y-83030469D01*
X108822227Y-83058403D01*
X108816447Y-83055112D01*
X108791364Y-83016612D01*
X108750415Y-82941191D01*
X108696798Y-82835084D01*
X108633713Y-82704525D01*
X108564357Y-82555748D01*
X108324879Y-82033347D01*
X108005992Y-82033347D01*
X108005992Y-83891263D01*
X107178799Y-83891263D01*
X107236333Y-83882792D01*
X107352552Y-83832886D01*
X107395910Y-83799512D01*
X107433091Y-83754303D01*
X107460121Y-83693711D01*
X107478513Y-83610645D01*
X107489777Y-83498016D01*
X107495427Y-83348732D01*
X107496974Y-83155703D01*
X107496974Y-82695070D01*
X107586052Y-82695070D01*
X107612337Y-82694843D01*
X107655782Y-82687415D01*
X107672433Y-82658448D01*
X107675130Y-82593267D01*
X107674931Y-82563227D01*
X107668431Y-82513575D01*
X107643085Y-82494545D01*
X107586052Y-82491463D01*
X107496974Y-82491463D01*
X107496974Y-82084249D01*
X107293366Y-82084249D01*
X107293366Y-82491463D01*
X106809799Y-82491463D01*
X106809799Y-82695070D01*
X107293366Y-82695070D01*
X107293366Y-83103102D01*
X107291792Y-83282813D01*
X107284514Y-83437904D01*
X107268426Y-83552443D01*
X107240433Y-83631822D01*
X107197440Y-83681431D01*
X107136353Y-83706661D01*
X107054077Y-83712903D01*
X106947516Y-83705547D01*
X106809799Y-83691333D01*
X106809799Y-83776858D01*
X106529839Y-83776858D01*
X106529839Y-82491463D01*
X106300781Y-82491463D01*
X106300781Y-82593267D01*
X106300453Y-82616010D01*
X106295946Y-82672467D01*
X106287835Y-82695070D01*
X106276653Y-82690265D01*
X106233209Y-82663166D01*
X106171445Y-82620136D01*
X106159173Y-82611617D01*
X106056973Y-82558655D01*
X105938734Y-82520028D01*
X105823674Y-82500725D01*
X105731013Y-82505741D01*
X105729427Y-82506142D01*
X105687320Y-82523797D01*
X105668682Y-82558821D01*
X105664450Y-82627839D01*
X105664390Y-82733247D01*
X100396172Y-82733247D01*
X100396172Y-81371624D01*
X110398376Y-81371624D01*
X110398376Y-91373828D01*
X100396172Y-91373828D01*
G37*
D13*
%TO.C,U6*%
X102421900Y-102082800D02*
X102421900Y-97917200D01*
X107578100Y-97917200D02*
X107578100Y-102082800D01*
D14*
X102141803Y-97000000D02*
G75*
G03*
X102141803Y-97000000I-141803J0D01*
G01*
%TD*%
M02*
