%TF.GenerationSoftware,KiCad,Pcbnew,(6.0.9)*%
%TF.CreationDate,2023-02-04T14:30:42+01:00*%
%TF.ProjectId,MTR_Tiny_MD,4d54525f-5469-46e7-995f-4d442e6b6963,rev?*%
%TF.SameCoordinates,Original*%
%TF.FileFunction,Soldermask,Top*%
%TF.FilePolarity,Negative*%
%FSLAX46Y46*%
G04 Gerber Fmt 4.6, Leading zero omitted, Abs format (unit mm)*
G04 Created by KiCad (PCBNEW (6.0.9)) date 2023-02-04 14:30:42*
%MOMM*%
%LPD*%
G01*
G04 APERTURE LIST*
G04 Aperture macros list*
%AMRoundRect*
0 Rectangle with rounded corners*
0 $1 Rounding radius*
0 $2 $3 $4 $5 $6 $7 $8 $9 X,Y pos of 4 corners*
0 Add a 4 corners polygon primitive as box body*
4,1,4,$2,$3,$4,$5,$6,$7,$8,$9,$2,$3,0*
0 Add four circle primitives for the rounded corners*
1,1,$1+$1,$2,$3*
1,1,$1+$1,$4,$5*
1,1,$1+$1,$6,$7*
1,1,$1+$1,$8,$9*
0 Add four rect primitives between the rounded corners*
20,1,$1+$1,$2,$3,$4,$5,0*
20,1,$1+$1,$4,$5,$6,$7,0*
20,1,$1+$1,$6,$7,$8,$9,0*
20,1,$1+$1,$8,$9,$2,$3,0*%
%AMHorizOval*
0 Thick line with rounded ends*
0 $1 width*
0 $2 $3 position (X,Y) of the first rounded end (center of the circle)*
0 $4 $5 position (X,Y) of the second rounded end (center of the circle)*
0 Add line between two ends*
20,1,$1,$2,$3,$4,$5,0*
0 Add two circle primitives to create the rounded ends*
1,1,$1,$2,$3*
1,1,$1,$4,$5*%
%AMRotRect*
0 Rectangle, with rotation*
0 The origin of the aperture is its center*
0 $1 length*
0 $2 width*
0 $3 Rotation angle, in degrees counterclockwise*
0 Add horizontal line*
21,1,$1,$2,0,0,$3*%
G04 Aperture macros list end*
%ADD10C,0.100000*%
%ADD11RoundRect,0.140000X0.170000X-0.140000X0.170000X0.140000X-0.170000X0.140000X-0.170000X-0.140000X0*%
%ADD12RoundRect,0.140000X-0.170000X0.140000X-0.170000X-0.140000X0.170000X-0.140000X0.170000X0.140000X0*%
%ADD13RoundRect,0.100000X-0.100000X0.130000X-0.100000X-0.130000X0.100000X-0.130000X0.100000X0.130000X0*%
%ADD14RoundRect,0.140000X-0.140000X-0.170000X0.140000X-0.170000X0.140000X0.170000X-0.140000X0.170000X0*%
%ADD15RoundRect,0.225000X-0.225000X-0.250000X0.225000X-0.250000X0.225000X0.250000X-0.225000X0.250000X0*%
%ADD16RoundRect,0.225000X0.250000X-0.225000X0.250000X0.225000X-0.250000X0.225000X-0.250000X-0.225000X0*%
%ADD17RoundRect,0.225000X-0.250000X0.225000X-0.250000X-0.225000X0.250000X-0.225000X0.250000X0.225000X0*%
%ADD18R,1.500000X1.500000*%
%ADD19RoundRect,0.225000X0.225000X0.250000X-0.225000X0.250000X-0.225000X-0.250000X0.225000X-0.250000X0*%
%ADD20R,1.700000X1.700000*%
%ADD21O,1.700000X1.700000*%
%ADD22RoundRect,0.165000X1.210000X-1.210000X1.210000X1.210000X-1.210000X1.210000X-1.210000X-1.210000X0*%
%ADD23RoundRect,0.140000X0.140000X0.170000X-0.140000X0.170000X-0.140000X-0.170000X0.140000X-0.170000X0*%
%ADD24RoundRect,0.218750X0.218750X0.256250X-0.218750X0.256250X-0.218750X-0.256250X0.218750X-0.256250X0*%
%ADD25RoundRect,0.250000X-0.475000X0.250000X-0.475000X-0.250000X0.475000X-0.250000X0.475000X0.250000X0*%
%ADD26C,0.800000*%
%ADD27C,6.400000*%
%ADD28RoundRect,0.200000X-0.200000X-0.275000X0.200000X-0.275000X0.200000X0.275000X-0.200000X0.275000X0*%
%ADD29C,3.200000*%
%ADD30C,0.650000*%
%ADD31R,1.450000X0.600000*%
%ADD32R,1.450000X0.300000*%
%ADD33O,2.100000X1.000000*%
%ADD34O,1.600000X1.000000*%
%ADD35RoundRect,0.250000X-1.075000X0.375000X-1.075000X-0.375000X1.075000X-0.375000X1.075000X0.375000X0*%
%ADD36R,1.500000X0.900000*%
%ADD37R,1.000000X0.900000*%
%ADD38R,0.700000X0.300000*%
%ADD39RoundRect,0.070000X0.300000X-0.650000X0.300000X0.650000X-0.300000X0.650000X-0.300000X-0.650000X0*%
%ADD40RotRect,1.700000X1.700000X315.000000*%
%ADD41HorizOval,1.700000X0.000000X0.000000X0.000000X0.000000X0*%
%ADD42RoundRect,0.050000X-0.050000X0.387500X-0.050000X-0.387500X0.050000X-0.387500X0.050000X0.387500X0*%
%ADD43RoundRect,0.050000X-0.387500X0.050000X-0.387500X-0.050000X0.387500X-0.050000X0.387500X0.050000X0*%
%ADD44R,3.200000X3.200000*%
%ADD45RoundRect,0.256734X0.280766X0.256734X-0.280766X0.256734X-0.280766X-0.256734X0.280766X-0.256734X0*%
%ADD46RoundRect,0.099950X-0.325050X0.062550X-0.325050X-0.062550X0.325050X-0.062550X0.325050X0.062550X0*%
%ADD47RoundRect,0.100000X-0.150000X-0.237500X0.150000X-0.237500X0.150000X0.237500X-0.150000X0.237500X0*%
%ADD48RoundRect,0.100000X-0.250000X0.075000X-0.250000X-0.075000X0.250000X-0.075000X0.250000X0.075000X0*%
%ADD49RoundRect,0.100000X0.150000X0.237500X-0.150000X0.237500X-0.150000X-0.237500X0.150000X-0.237500X0*%
%ADD50RoundRect,0.100050X0.124950X0.599950X-0.124950X0.599950X-0.124950X-0.599950X0.124950X-0.599950X0*%
%ADD51R,0.254800X0.807999*%
%ADD52R,0.807999X0.254800*%
%ADD53R,5.791200X3.810000*%
%ADD54RotRect,1.700000X1.700000X135.000000*%
%ADD55HorizOval,1.700000X0.000000X0.000000X0.000000X0.000000X0*%
%ADD56R,1.600200X0.203200*%
G04 APERTURE END LIST*
%TO.C,U4*%
G36*
X117771500Y-103363600D02*
G01*
X117400000Y-103363600D01*
X117400000Y-101636400D01*
X117771500Y-101636400D01*
X117771500Y-103363600D01*
G37*
D10*
X117771500Y-103363600D02*
X117400000Y-103363600D01*
X117400000Y-101636400D01*
X117771500Y-101636400D01*
X117771500Y-103363600D01*
G36*
X117771500Y-103363600D02*
G01*
X116628500Y-103363600D01*
X116628500Y-103093700D01*
X117771500Y-103093700D01*
X117771500Y-103363600D01*
G37*
X117771500Y-103363600D02*
X116628500Y-103363600D01*
X116628500Y-103093700D01*
X117771500Y-103093700D01*
X117771500Y-103363600D01*
G36*
X117771500Y-102693700D02*
G01*
X116628500Y-102693700D01*
X116628500Y-102306300D01*
X117771500Y-102306300D01*
X117771500Y-102693700D01*
G37*
X117771500Y-102693700D02*
X116628500Y-102693700D01*
X116628500Y-102306300D01*
X117771500Y-102306300D01*
X117771500Y-102693700D01*
G36*
X117771500Y-101906300D02*
G01*
X116628500Y-101906300D01*
X116628500Y-101636400D01*
X117771500Y-101636400D01*
X117771500Y-101906300D01*
G37*
X117771500Y-101906300D02*
X116628500Y-101906300D01*
X116628500Y-101636400D01*
X117771500Y-101636400D01*
X117771500Y-101906300D01*
G36*
X117000000Y-103363600D02*
G01*
X116628500Y-103363600D01*
X116628500Y-101636400D01*
X117000000Y-101636400D01*
X117000000Y-103363600D01*
G37*
X117000000Y-103363600D02*
X116628500Y-103363600D01*
X116628500Y-101636400D01*
X117000000Y-101636400D01*
X117000000Y-103363600D01*
%TD*%
D11*
%TO.C,R9*%
X118600000Y-108330000D03*
X118600000Y-107370000D03*
%TD*%
D12*
%TO.C,R3*%
X98775000Y-93245000D03*
X98775000Y-94205000D03*
%TD*%
D13*
%TO.C,C33*%
X99250000Y-105220000D03*
X99250000Y-105860000D03*
%TD*%
D14*
%TO.C,C6*%
X97340000Y-98386666D03*
X98300000Y-98386666D03*
%TD*%
D15*
%TO.C,C22*%
X110175000Y-104550000D03*
X111725000Y-104550000D03*
%TD*%
D16*
%TO.C,C36*%
X90300000Y-107375000D03*
X90300000Y-105825000D03*
%TD*%
D17*
%TO.C,C21*%
X102750000Y-87775000D03*
X102750000Y-89325000D03*
%TD*%
D18*
%TO.C,H6*%
X94950000Y-81000000D03*
%TD*%
D19*
%TO.C,C28*%
X87500000Y-95325000D03*
X85950000Y-95325000D03*
%TD*%
D15*
%TO.C,C27*%
X90675000Y-94650000D03*
X92225000Y-94650000D03*
%TD*%
D20*
%TO.C,J5*%
X110400000Y-111025000D03*
D21*
X110400000Y-113565000D03*
%TD*%
D22*
%TO.C,H12*%
X82620000Y-105310000D03*
%TD*%
D14*
%TO.C,C34*%
X97340000Y-101584166D03*
X98300000Y-101584166D03*
%TD*%
%TO.C,R2*%
X112620000Y-100500000D03*
X113580000Y-100500000D03*
%TD*%
D23*
%TO.C,R12*%
X123900000Y-112700000D03*
X122940000Y-112700000D03*
%TD*%
%TO.C,C35*%
X98300000Y-103200000D03*
X97340000Y-103200000D03*
%TD*%
D24*
%TO.C,D3*%
X124250000Y-111200000D03*
X122675000Y-111200000D03*
%TD*%
D12*
%TO.C,C32*%
X110200000Y-105870000D03*
X110200000Y-106830000D03*
%TD*%
D25*
%TO.C,C14*%
X111050000Y-83800000D03*
X111050000Y-85700000D03*
%TD*%
D12*
%TO.C,R8*%
X98150000Y-105270000D03*
X98150000Y-106230000D03*
%TD*%
D26*
%TO.C,H1*%
X124650000Y-117250000D03*
X120552944Y-118947056D03*
D27*
X122250000Y-117250000D03*
D26*
X123947056Y-115552944D03*
X122250000Y-114850000D03*
X120552944Y-115552944D03*
X122250000Y-119650000D03*
X119850000Y-117250000D03*
X123947056Y-118947056D03*
%TD*%
D11*
%TO.C,C2*%
X101000000Y-91230000D03*
X101000000Y-90270000D03*
%TD*%
D27*
%TO.C,H3*%
X122250000Y-82750000D03*
D26*
X122250000Y-85150000D03*
X119850000Y-82750000D03*
X124650000Y-82750000D03*
X122250000Y-80350000D03*
X123947056Y-81052944D03*
X120552944Y-81052944D03*
X120552944Y-84447056D03*
X123947056Y-84447056D03*
%TD*%
D23*
%TO.C,R11*%
X123637500Y-87350000D03*
X122677500Y-87350000D03*
%TD*%
D15*
%TO.C,C23*%
X104825000Y-87700000D03*
X106375000Y-87700000D03*
%TD*%
D27*
%TO.C,H8*%
X87750000Y-82750000D03*
D26*
X86052944Y-81052944D03*
X90150000Y-82750000D03*
X87750000Y-85150000D03*
X86052944Y-84447056D03*
X87750000Y-80350000D03*
X89447056Y-84447056D03*
X85350000Y-82750000D03*
X89447056Y-81052944D03*
%TD*%
D28*
%TO.C,R13*%
X93750000Y-94625000D03*
X95400000Y-94625000D03*
%TD*%
D26*
%TO.C,H9*%
X89447056Y-118947056D03*
X90150000Y-117250000D03*
D27*
X87750000Y-117250000D03*
D26*
X87750000Y-119650000D03*
X86052944Y-115552944D03*
X89447056Y-115552944D03*
X85350000Y-117250000D03*
X86052944Y-118947056D03*
X87750000Y-114850000D03*
%TD*%
D23*
%TO.C,C1*%
X110800000Y-99650000D03*
X109840000Y-99650000D03*
%TD*%
D29*
%TO.C,J6*%
X107890000Y-78450000D03*
X102890000Y-78450000D03*
%TD*%
D13*
%TO.C,C29*%
X94850000Y-105220000D03*
X94850000Y-105860000D03*
%TD*%
D11*
%TO.C,C10*%
X103525000Y-107360000D03*
X103525000Y-106400000D03*
%TD*%
D13*
%TO.C,C31*%
X97050000Y-105220000D03*
X97050000Y-105860000D03*
%TD*%
D30*
%TO.C,J1*%
X124810000Y-102940000D03*
X124810000Y-97160000D03*
D31*
X123365000Y-103300000D03*
X123365000Y-102500000D03*
D32*
X123365000Y-101300000D03*
X123365000Y-100300000D03*
X123365000Y-99800000D03*
X123365000Y-98800000D03*
D31*
X123365000Y-97600000D03*
X123365000Y-96800000D03*
X123365000Y-96800000D03*
X123365000Y-97600000D03*
D32*
X123365000Y-98300000D03*
X123365000Y-99300000D03*
X123365000Y-100800000D03*
X123365000Y-101800000D03*
D31*
X123365000Y-102500000D03*
X123365000Y-103300000D03*
D33*
X124280000Y-104370000D03*
X124280000Y-95730000D03*
D34*
X128460000Y-104370000D03*
X128460000Y-95730000D03*
%TD*%
D35*
%TO.C,L1*%
X99550000Y-83930000D03*
X99550000Y-86730000D03*
%TD*%
D36*
%TO.C,D1*%
X102500000Y-110650000D03*
X102500000Y-113950000D03*
X107400000Y-113950000D03*
X107400000Y-110650000D03*
%TD*%
D12*
%TO.C,C8*%
X105700000Y-91950000D03*
X105700000Y-92910000D03*
%TD*%
D19*
%TO.C,C12*%
X111725000Y-103050000D03*
X110175000Y-103050000D03*
%TD*%
D16*
%TO.C,C19*%
X102650000Y-85305000D03*
X102650000Y-83755000D03*
%TD*%
D17*
%TO.C,C37*%
X100450000Y-110675000D03*
X100450000Y-112225000D03*
%TD*%
D37*
%TO.C,Y1*%
X99450000Y-90400000D03*
X97600000Y-90400000D03*
X97600000Y-91950000D03*
X99450000Y-91950000D03*
%TD*%
D19*
%TO.C,C25*%
X87500000Y-93675000D03*
X85950000Y-93675000D03*
%TD*%
D38*
%TO.C,U4*%
X116150000Y-101850001D03*
X116150000Y-102500000D03*
X116150000Y-103149999D03*
X118250000Y-103149999D03*
X118250000Y-102500000D03*
X118250000Y-101850001D03*
%TD*%
D39*
%TO.C,Q1*%
X113350000Y-81500000D03*
X115250000Y-81500000D03*
X114300000Y-79400000D03*
%TD*%
D16*
%TO.C,C26*%
X89100000Y-95350000D03*
X89100000Y-93800000D03*
%TD*%
D11*
%TO.C,C7*%
X101812500Y-107360000D03*
X101812500Y-106400000D03*
%TD*%
D15*
%TO.C,C24*%
X93800000Y-92975000D03*
X95350000Y-92975000D03*
%TD*%
D17*
%TO.C,C15*%
X108750000Y-83755000D03*
X108750000Y-85305000D03*
%TD*%
D12*
%TO.C,C3*%
X97475000Y-93245000D03*
X97475000Y-94205000D03*
%TD*%
D40*
%TO.C,J3*%
X96700000Y-113800000D03*
D41*
X94903949Y-115596051D03*
%TD*%
D42*
%TO.C,U1*%
X107550000Y-96162500D03*
X107150000Y-96162500D03*
X106750000Y-96162500D03*
X106350000Y-96162500D03*
X105950000Y-96162500D03*
X105550000Y-96162500D03*
X105150000Y-96162500D03*
X104750000Y-96162500D03*
X104350000Y-96162500D03*
X103950000Y-96162500D03*
X103550000Y-96162500D03*
X103150000Y-96162500D03*
X102750000Y-96162500D03*
X102350000Y-96162500D03*
D43*
X101512500Y-97000000D03*
X101512500Y-97400000D03*
X101512500Y-97800000D03*
X101512500Y-98200000D03*
X101512500Y-98600000D03*
X101512500Y-99000000D03*
X101512500Y-99400000D03*
X101512500Y-99800000D03*
X101512500Y-100200000D03*
X101512500Y-100600000D03*
X101512500Y-101000000D03*
X101512500Y-101400000D03*
X101512500Y-101800000D03*
X101512500Y-102200000D03*
D42*
X102350000Y-103037500D03*
X102750000Y-103037500D03*
X103150000Y-103037500D03*
X103550000Y-103037500D03*
X103950000Y-103037500D03*
X104350000Y-103037500D03*
X104750000Y-103037500D03*
X105150000Y-103037500D03*
X105550000Y-103037500D03*
X105950000Y-103037500D03*
X106350000Y-103037500D03*
X106750000Y-103037500D03*
X107150000Y-103037500D03*
X107550000Y-103037500D03*
D43*
X108387500Y-102200000D03*
X108387500Y-101800000D03*
X108387500Y-101400000D03*
X108387500Y-101000000D03*
X108387500Y-100600000D03*
X108387500Y-100200000D03*
X108387500Y-99800000D03*
X108387500Y-99400000D03*
X108387500Y-99000000D03*
X108387500Y-98600000D03*
X108387500Y-98200000D03*
X108387500Y-97800000D03*
X108387500Y-97400000D03*
X108387500Y-97000000D03*
D44*
X104950000Y-99600000D03*
%TD*%
D21*
%TO.C,J2*%
X98840000Y-120990000D03*
X98840000Y-118450000D03*
X101380000Y-120990000D03*
X101380000Y-118450000D03*
X103920000Y-120990000D03*
X103920000Y-118450000D03*
X106460000Y-120990000D03*
X106460000Y-118450000D03*
X109000000Y-120990000D03*
X109000000Y-118450000D03*
X111540000Y-120990000D03*
D20*
X111540000Y-118450000D03*
%TD*%
D23*
%TO.C,R16*%
X88550000Y-105850000D03*
X87590000Y-105850000D03*
%TD*%
D18*
%TO.C,H7*%
X86950000Y-89900000D03*
%TD*%
D12*
%TO.C,R6*%
X93750000Y-105270000D03*
X93750000Y-106230000D03*
%TD*%
D22*
%TO.C,H11*%
X81740000Y-100030000D03*
%TD*%
D12*
%TO.C,R5*%
X120800000Y-95450000D03*
X120800000Y-96410000D03*
%TD*%
D45*
%TO.C,SW1*%
X127300000Y-91600000D03*
X120262500Y-91613468D03*
%TD*%
D22*
%TO.C,H10*%
X82440000Y-95030000D03*
%TD*%
D46*
%TO.C,U3*%
X106475000Y-85338000D03*
D47*
X106300000Y-85512500D03*
D48*
X106550000Y-84850000D03*
X106550000Y-84350000D03*
D46*
X106475000Y-83862000D03*
D49*
X106300000Y-83687500D03*
X105000000Y-83687500D03*
D46*
X104825000Y-83862000D03*
D48*
X104750000Y-84350000D03*
X104750000Y-84850000D03*
D46*
X104825000Y-85338000D03*
D47*
X105000000Y-85512500D03*
D50*
X105650000Y-85150000D03*
%TD*%
D12*
%TO.C,R14*%
X113500000Y-87720000D03*
X113500000Y-88680000D03*
%TD*%
%TO.C,R4*%
X118600000Y-91620000D03*
X118600000Y-92580000D03*
%TD*%
D15*
%TO.C,C17*%
X119000000Y-104850000D03*
X120550000Y-104850000D03*
%TD*%
D17*
%TO.C,C16*%
X108700000Y-88150000D03*
X108700000Y-89700000D03*
%TD*%
D51*
%TO.C,U5*%
X92510693Y-97601300D03*
X92010567Y-97601300D03*
X91510441Y-97601300D03*
X91010315Y-97601300D03*
X90510189Y-97601300D03*
X90010063Y-97601300D03*
X89509937Y-97601300D03*
X89009811Y-97601300D03*
X88509685Y-97601300D03*
X88009559Y-97601300D03*
X87509433Y-97601300D03*
X87009307Y-97601300D03*
D52*
X86308000Y-98299559D03*
X86308000Y-98799685D03*
X86308000Y-99299811D03*
X86308000Y-99799937D03*
X86308000Y-100300063D03*
X86308000Y-100800189D03*
X86308000Y-101300315D03*
X86308000Y-101800441D03*
D51*
X87009307Y-102498700D03*
X87509433Y-102498700D03*
X88009559Y-102498700D03*
X88509685Y-102498700D03*
X89009811Y-102498700D03*
X89509937Y-102498700D03*
X90010063Y-102498700D03*
X90510189Y-102498700D03*
X91010315Y-102498700D03*
X91510441Y-102498700D03*
X92010567Y-102498700D03*
X92510693Y-102498700D03*
D52*
X93212000Y-101800441D03*
X93212000Y-101300315D03*
X93212000Y-100800189D03*
X93212000Y-100300063D03*
X93212000Y-99799937D03*
X93212000Y-99299811D03*
X93212000Y-98799685D03*
X93212000Y-98299559D03*
D53*
X89760000Y-100050000D03*
%TD*%
D24*
%TO.C,D2*%
X123925000Y-88800000D03*
X122350000Y-88800000D03*
%TD*%
D12*
%TO.C,C11*%
X104200000Y-91950000D03*
X104200000Y-92910000D03*
%TD*%
%TO.C,R15*%
X112250000Y-87720000D03*
X112250000Y-88680000D03*
%TD*%
%TO.C,R7*%
X95950000Y-105270000D03*
X95950000Y-106230000D03*
%TD*%
D54*
%TO.C,J4*%
X110948439Y-93701562D03*
D55*
X112744490Y-91905511D03*
%TD*%
D12*
%TO.C,C18*%
X119399100Y-95450000D03*
X119399100Y-96410000D03*
%TD*%
D23*
%TO.C,R1*%
X113580000Y-99500000D03*
X112620000Y-99500000D03*
%TD*%
D51*
%TO.C,U2*%
X116550001Y-94504001D03*
X116050000Y-94504001D03*
X115550000Y-94504001D03*
X115049999Y-94504001D03*
X115049999Y-97295999D03*
X115550000Y-97295999D03*
X116050000Y-97295999D03*
X116550001Y-97295999D03*
D56*
X115800000Y-95900000D03*
%TD*%
D11*
%TO.C,C30*%
X102620000Y-92910000D03*
X102620000Y-91950000D03*
%TD*%
D14*
%TO.C,C9*%
X97340000Y-96805000D03*
X98300000Y-96805000D03*
%TD*%
D45*
%TO.C,SW2*%
X127300000Y-108300000D03*
X120262500Y-108313468D03*
%TD*%
D12*
%TO.C,C20*%
X117998200Y-95450000D03*
X117998200Y-96410000D03*
%TD*%
D11*
%TO.C,C13*%
X108600000Y-106810000D03*
X108600000Y-105850000D03*
%TD*%
D23*
%TO.C,C5*%
X113580000Y-101800000D03*
X112620000Y-101800000D03*
%TD*%
D14*
%TO.C,C4*%
X97340000Y-99968332D03*
X98300000Y-99968332D03*
%TD*%
M02*
