%TF.GenerationSoftware,KiCad,Pcbnew,7.0.1*%
%TF.CreationDate,2023-05-14T21:17:26+02:00*%
%TF.ProjectId,MTR_Tiny_MD,4d54525f-5469-46e7-995f-4d442e6b6963,rev?*%
%TF.SameCoordinates,Original*%
%TF.FileFunction,Copper,L1,Top*%
%TF.FilePolarity,Positive*%
%FSLAX46Y46*%
G04 Gerber Fmt 4.6, Leading zero omitted, Abs format (unit mm)*
G04 Created by KiCad (PCBNEW 7.0.1) date 2023-05-14 21:17:26*
%MOMM*%
%LPD*%
G01*
G04 APERTURE LIST*
G04 Aperture macros list*
%AMRoundRect*
0 Rectangle with rounded corners*
0 $1 Rounding radius*
0 $2 $3 $4 $5 $6 $7 $8 $9 X,Y pos of 4 corners*
0 Add a 4 corners polygon primitive as box body*
4,1,4,$2,$3,$4,$5,$6,$7,$8,$9,$2,$3,0*
0 Add four circle primitives for the rounded corners*
1,1,$1+$1,$2,$3*
1,1,$1+$1,$4,$5*
1,1,$1+$1,$6,$7*
1,1,$1+$1,$8,$9*
0 Add four rect primitives between the rounded corners*
20,1,$1+$1,$2,$3,$4,$5,0*
20,1,$1+$1,$4,$5,$6,$7,0*
20,1,$1+$1,$6,$7,$8,$9,0*
20,1,$1+$1,$8,$9,$2,$3,0*%
%AMHorizOval*
0 Thick line with rounded ends*
0 $1 width*
0 $2 $3 position (X,Y) of the first rounded end (center of the circle)*
0 $4 $5 position (X,Y) of the second rounded end (center of the circle)*
0 Add line between two ends*
20,1,$1,$2,$3,$4,$5,0*
0 Add two circle primitives to create the rounded ends*
1,1,$1,$2,$3*
1,1,$1,$4,$5*%
%AMRotRect*
0 Rectangle, with rotation*
0 The origin of the aperture is its center*
0 $1 length*
0 $2 width*
0 $3 Rotation angle, in degrees counterclockwise*
0 Add horizontal line*
21,1,$1,$2,0,0,$3*%
G04 Aperture macros list end*
%TA.AperFunction,NonConductor*%
%ADD10C,0.200000*%
%TD*%
%TA.AperFunction,SMDPad,CuDef*%
%ADD11RoundRect,0.256734X0.280766X0.256734X-0.280766X0.256734X-0.280766X-0.256734X0.280766X-0.256734X0*%
%TD*%
%TA.AperFunction,SMDPad,CuDef*%
%ADD12RoundRect,0.135000X0.185000X-0.135000X0.185000X0.135000X-0.185000X0.135000X-0.185000X-0.135000X0*%
%TD*%
%TA.AperFunction,SMDPad,CuDef*%
%ADD13RoundRect,0.135000X-0.185000X0.135000X-0.185000X-0.135000X0.185000X-0.135000X0.185000X0.135000X0*%
%TD*%
%TA.AperFunction,SMDPad,CuDef*%
%ADD14RoundRect,0.250000X0.325000X0.650000X-0.325000X0.650000X-0.325000X-0.650000X0.325000X-0.650000X0*%
%TD*%
%TA.AperFunction,SMDPad,CuDef*%
%ADD15RoundRect,0.100000X-0.100000X0.130000X-0.100000X-0.130000X0.100000X-0.130000X0.100000X0.130000X0*%
%TD*%
%TA.AperFunction,SMDPad,CuDef*%
%ADD16RoundRect,0.140000X-0.140000X-0.170000X0.140000X-0.170000X0.140000X0.170000X-0.140000X0.170000X0*%
%TD*%
%TA.AperFunction,SMDPad,CuDef*%
%ADD17RoundRect,0.225000X-0.225000X-0.250000X0.225000X-0.250000X0.225000X0.250000X-0.225000X0.250000X0*%
%TD*%
%TA.AperFunction,SMDPad,CuDef*%
%ADD18RoundRect,0.225000X0.250000X-0.225000X0.250000X0.225000X-0.250000X0.225000X-0.250000X-0.225000X0*%
%TD*%
%TA.AperFunction,SMDPad,CuDef*%
%ADD19R,1.500000X1.500000*%
%TD*%
%TA.AperFunction,SMDPad,CuDef*%
%ADD20RoundRect,0.225000X0.225000X0.250000X-0.225000X0.250000X-0.225000X-0.250000X0.225000X-0.250000X0*%
%TD*%
%TA.AperFunction,ComponentPad*%
%ADD21R,1.700000X1.700000*%
%TD*%
%TA.AperFunction,ComponentPad*%
%ADD22O,1.700000X1.700000*%
%TD*%
%TA.AperFunction,SMDPad,CuDef*%
%ADD23RoundRect,0.250000X-0.375000X-1.075000X0.375000X-1.075000X0.375000X1.075000X-0.375000X1.075000X0*%
%TD*%
%TA.AperFunction,ComponentPad*%
%ADD24RoundRect,0.165000X1.210000X-1.210000X1.210000X1.210000X-1.210000X1.210000X-1.210000X-1.210000X0*%
%TD*%
%TA.AperFunction,SMDPad,CuDef*%
%ADD25RoundRect,0.225000X-0.250000X0.225000X-0.250000X-0.225000X0.250000X-0.225000X0.250000X0.225000X0*%
%TD*%
%TA.AperFunction,SMDPad,CuDef*%
%ADD26RoundRect,0.250000X-0.325000X-0.650000X0.325000X-0.650000X0.325000X0.650000X-0.325000X0.650000X0*%
%TD*%
%TA.AperFunction,SMDPad,CuDef*%
%ADD27RoundRect,0.135000X-0.135000X-0.185000X0.135000X-0.185000X0.135000X0.185000X-0.135000X0.185000X0*%
%TD*%
%TA.AperFunction,SMDPad,CuDef*%
%ADD28RoundRect,0.218750X-0.218750X-0.256250X0.218750X-0.256250X0.218750X0.256250X-0.218750X0.256250X0*%
%TD*%
%TA.AperFunction,SMDPad,CuDef*%
%ADD29RoundRect,0.135000X0.135000X0.185000X-0.135000X0.185000X-0.135000X-0.185000X0.135000X-0.185000X0*%
%TD*%
%TA.AperFunction,SMDPad,CuDef*%
%ADD30RoundRect,0.140000X0.140000X0.170000X-0.140000X0.170000X-0.140000X-0.170000X0.140000X-0.170000X0*%
%TD*%
%TA.AperFunction,SMDPad,CuDef*%
%ADD31RoundRect,0.218750X0.218750X0.256250X-0.218750X0.256250X-0.218750X-0.256250X0.218750X-0.256250X0*%
%TD*%
%TA.AperFunction,SMDPad,CuDef*%
%ADD32RoundRect,0.140000X-0.170000X0.140000X-0.170000X-0.140000X0.170000X-0.140000X0.170000X0.140000X0*%
%TD*%
%TA.AperFunction,ComponentPad*%
%ADD33C,0.800000*%
%TD*%
%TA.AperFunction,ComponentPad*%
%ADD34C,6.400000*%
%TD*%
%TA.AperFunction,SMDPad,CuDef*%
%ADD35RoundRect,0.140000X0.170000X-0.140000X0.170000X0.140000X-0.170000X0.140000X-0.170000X-0.140000X0*%
%TD*%
%TA.AperFunction,SMDPad,CuDef*%
%ADD36RoundRect,0.200000X-0.200000X-0.275000X0.200000X-0.275000X0.200000X0.275000X-0.200000X0.275000X0*%
%TD*%
%TA.AperFunction,ComponentPad*%
%ADD37C,3.200000*%
%TD*%
%TA.AperFunction,SMDPad,CuDef*%
%ADD38R,1.450000X0.600000*%
%TD*%
%TA.AperFunction,SMDPad,CuDef*%
%ADD39R,1.450000X0.300000*%
%TD*%
%TA.AperFunction,ComponentPad*%
%ADD40O,2.100000X1.000000*%
%TD*%
%TA.AperFunction,ComponentPad*%
%ADD41O,1.600000X1.000000*%
%TD*%
%TA.AperFunction,SMDPad,CuDef*%
%ADD42R,1.500000X0.900000*%
%TD*%
%TA.AperFunction,SMDPad,CuDef*%
%ADD43R,1.000000X0.900000*%
%TD*%
%TA.AperFunction,SMDPad,CuDef*%
%ADD44R,0.700000X0.300000*%
%TD*%
%TA.AperFunction,SMDPad,CuDef*%
%ADD45R,1.016000X1.600200*%
%TD*%
%TA.AperFunction,SMDPad,CuDef*%
%ADD46R,0.600000X1.300000*%
%TD*%
%TA.AperFunction,ComponentPad*%
%ADD47RotRect,1.700000X1.700000X315.000000*%
%TD*%
%TA.AperFunction,ComponentPad*%
%ADD48HorizOval,1.700000X0.000000X0.000000X0.000000X0.000000X0*%
%TD*%
%TA.AperFunction,SMDPad,CuDef*%
%ADD49RoundRect,0.050000X-0.050000X0.387500X-0.050000X-0.387500X0.050000X-0.387500X0.050000X0.387500X0*%
%TD*%
%TA.AperFunction,SMDPad,CuDef*%
%ADD50RoundRect,0.050000X-0.387500X0.050000X-0.387500X-0.050000X0.387500X-0.050000X0.387500X0.050000X0*%
%TD*%
%TA.AperFunction,SMDPad,CuDef*%
%ADD51R,3.200000X3.200000*%
%TD*%
%TA.AperFunction,SMDPad,CuDef*%
%ADD52R,0.254800X0.807999*%
%TD*%
%TA.AperFunction,SMDPad,CuDef*%
%ADD53R,0.807999X0.254800*%
%TD*%
%TA.AperFunction,SMDPad,CuDef*%
%ADD54R,5.791200X3.810000*%
%TD*%
%TA.AperFunction,ComponentPad*%
%ADD55RotRect,1.700000X1.700000X135.000000*%
%TD*%
%TA.AperFunction,ComponentPad*%
%ADD56HorizOval,1.700000X0.000000X0.000000X0.000000X0.000000X0*%
%TD*%
%TA.AperFunction,SMDPad,CuDef*%
%ADD57R,0.757199X0.254800*%
%TD*%
%TA.AperFunction,SMDPad,CuDef*%
%ADD58R,1.600200X0.203200*%
%TD*%
%TA.AperFunction,ViaPad*%
%ADD59C,0.400000*%
%TD*%
%TA.AperFunction,Conductor*%
%ADD60C,0.300000*%
%TD*%
%TA.AperFunction,Conductor*%
%ADD61C,0.500000*%
%TD*%
%TA.AperFunction,Conductor*%
%ADD62C,0.200000*%
%TD*%
%TA.AperFunction,Conductor*%
%ADD63C,0.750000*%
%TD*%
%TA.AperFunction,Conductor*%
%ADD64C,1.000000*%
%TD*%
G04 APERTURE END LIST*
D10*
X86600000Y-100300000D02*
X85550000Y-100300000D01*
X85550000Y-99800000D01*
X86600000Y-99800000D01*
X86600000Y-100300000D01*
%TA.AperFunction,NonConductor*%
G36*
X86600000Y-100300000D02*
G01*
X85550000Y-100300000D01*
X85550000Y-99800000D01*
X86600000Y-99800000D01*
X86600000Y-100300000D01*
G37*
%TD.AperFunction*%
X86600000Y-101800000D02*
X86000000Y-101800000D01*
X86000000Y-101300000D01*
X86600000Y-101300000D01*
X86600000Y-101800000D01*
%TA.AperFunction,NonConductor*%
G36*
X86600000Y-101800000D02*
G01*
X86000000Y-101800000D01*
X86000000Y-101300000D01*
X86600000Y-101300000D01*
X86600000Y-101800000D01*
G37*
%TD.AperFunction*%
X110200000Y-102250000D02*
X110200000Y-105850000D01*
X108550000Y-105850000D01*
X107550000Y-104800000D01*
X107550000Y-101800000D01*
X109700000Y-101800000D01*
X110200000Y-102250000D01*
%TA.AperFunction,NonConductor*%
G36*
X110200000Y-102250000D02*
G01*
X110200000Y-105850000D01*
X108550000Y-105850000D01*
X107550000Y-104800000D01*
X107550000Y-101800000D01*
X109700000Y-101800000D01*
X110200000Y-102250000D01*
G37*
%TD.AperFunction*%
X86600000Y-98800000D02*
X86000000Y-98800000D01*
X86000000Y-98300000D01*
X86600000Y-98300000D01*
X86600000Y-98800000D01*
%TA.AperFunction,NonConductor*%
G36*
X86600000Y-98800000D02*
G01*
X86000000Y-98800000D01*
X86000000Y-98300000D01*
X86600000Y-98300000D01*
X86600000Y-98800000D01*
G37*
%TD.AperFunction*%
X107550000Y-102250000D02*
X107150000Y-102250000D01*
X107150000Y-99650000D01*
X107550000Y-99650000D01*
X107550000Y-102250000D01*
%TA.AperFunction,NonConductor*%
G36*
X107550000Y-102250000D02*
G01*
X107150000Y-102250000D01*
X107150000Y-99650000D01*
X107550000Y-99650000D01*
X107550000Y-102250000D01*
G37*
%TD.AperFunction*%
D11*
%TO.P,SW1,1,1*%
%TO.N,GND*%
X127300000Y-91600000D03*
%TO.P,SW1,2,2*%
%TO.N,Net-(R4-Pad1)*%
X120262500Y-91613468D03*
%TD*%
%TO.P,SW2,1,1*%
%TO.N,GND*%
X127300000Y-108300000D03*
%TO.P,SW2,2,2*%
%TO.N,Net-(R9-Pad1)*%
X120262500Y-108313468D03*
%TD*%
D12*
%TO.P,R9,1*%
%TO.N,Net-(R9-Pad1)*%
X118600000Y-108360000D03*
%TO.P,R9,2*%
%TO.N,RUN*%
X118600000Y-107340000D03*
%TD*%
D13*
%TO.P,R3,1*%
%TO.N,Net-(Y1-CRYSTAL_2)*%
X98775000Y-93215000D03*
%TO.P,R3,2*%
%TO.N,XOUT*%
X98775000Y-94235000D03*
%TD*%
D14*
%TO.P,C39,1*%
%TO.N,Net-(U7-VCC)*%
X101675000Y-84300000D03*
%TO.P,C39,2*%
%TO.N,GND*%
X98725000Y-84300000D03*
%TD*%
D15*
%TO.P,C33,1*%
%TO.N,Current_C*%
X99250000Y-105220000D03*
%TO.P,C33,2*%
%TO.N,GND*%
X99250000Y-105860000D03*
%TD*%
D16*
%TO.P,C6,1*%
%TO.N,GND*%
X97340000Y-98386666D03*
%TO.P,C6,2*%
%TO.N,3V3_BUCK*%
X98300000Y-98386666D03*
%TD*%
D17*
%TO.P,C22,1*%
%TO.N,3V3_BUCK*%
X110175000Y-104550000D03*
%TO.P,C22,2*%
%TO.N,GND*%
X111725000Y-104550000D03*
%TD*%
D18*
%TO.P,C36,1*%
%TO.N,GND*%
X90300000Y-107375000D03*
%TO.P,C36,2*%
%TO.N,3V3_BUCK*%
X90300000Y-105825000D03*
%TD*%
D19*
%TO.P,H6,1,1*%
%TO.N,3V3_BUCK*%
X94950000Y-81000000D03*
%TD*%
D20*
%TO.P,C28,1*%
%TO.N,ALIM*%
X87500000Y-95325000D03*
%TO.P,C28,2*%
%TO.N,GND*%
X85950000Y-95325000D03*
%TD*%
D17*
%TO.P,C27,1*%
%TO.N,Net-(U5-CPH)*%
X90675000Y-94650000D03*
%TO.P,C27,2*%
%TO.N,Net-(U5-CPL)*%
X92225000Y-94650000D03*
%TD*%
D21*
%TO.P,J5,1*%
%TO.N,GND*%
X110400000Y-111025000D03*
D22*
%TO.P,J5,2*%
%TO.N,DOUT*%
X110400000Y-113565000D03*
%TD*%
D23*
%TO.P,L2,1*%
%TO.N,Net-(U7-LX)*%
X107900000Y-86000000D03*
%TO.P,L2,2*%
%TO.N,FeedBack*%
X110700000Y-86000000D03*
%TD*%
D24*
%TO.P,H12,1,1*%
%TO.N,OUTC*%
X82620000Y-105310000D03*
%TD*%
D25*
%TO.P,C41,1*%
%TO.N,FeedBack*%
X104300000Y-88625000D03*
%TO.P,C41,2*%
%TO.N,GND*%
X104300000Y-90175000D03*
%TD*%
D16*
%TO.P,C34,1*%
%TO.N,VREF*%
X97340000Y-101584166D03*
%TO.P,C34,2*%
%TO.N,GND*%
X98300000Y-101584166D03*
%TD*%
D26*
%TO.P,C38,1*%
%TO.N,ALIM*%
X103625000Y-83100000D03*
%TO.P,C38,2*%
%TO.N,GND*%
X106575000Y-83100000D03*
%TD*%
D27*
%TO.P,R2,1*%
%TO.N,/D-*%
X112590000Y-100500000D03*
%TO.P,R2,2*%
%TO.N,USB_D-*%
X113610000Y-100500000D03*
%TD*%
D28*
%TO.P,F2,1*%
%TO.N,FeedBack*%
X112712500Y-85200000D03*
%TO.P,F2,2*%
%TO.N,3V3_BUCK*%
X114287500Y-85200000D03*
%TD*%
D29*
%TO.P,R12,1*%
%TO.N,Net-(D3-A)*%
X123930000Y-112700000D03*
%TO.P,R12,2*%
%TO.N,V_USB*%
X122910000Y-112700000D03*
%TD*%
D30*
%TO.P,C35,1*%
%TO.N,GND*%
X98300000Y-103200000D03*
%TO.P,C35,2*%
%TO.N,VREF*%
X97340000Y-103200000D03*
%TD*%
D14*
%TO.P,C40,1*%
%TO.N,FeedBack*%
X101675000Y-86900000D03*
%TO.P,C40,2*%
%TO.N,GND*%
X98725000Y-86900000D03*
%TD*%
D31*
%TO.P,D3,1,K*%
%TO.N,GND*%
X124250000Y-111200000D03*
%TO.P,D3,2,A*%
%TO.N,Net-(D3-A)*%
X122675000Y-111200000D03*
%TD*%
D32*
%TO.P,C32,1*%
%TO.N,3V3_BUCK*%
X110200000Y-105870000D03*
%TO.P,C32,2*%
%TO.N,GND*%
X110200000Y-106830000D03*
%TD*%
D13*
%TO.P,R8,1*%
%TO.N,Current_C*%
X98150000Y-105240000D03*
%TO.P,R8,2*%
%TO.N,Net-(U1-GPIO28_ADC2)*%
X98150000Y-106260000D03*
%TD*%
D33*
%TO.P,H1,1,1*%
%TO.N,GND*%
X119850000Y-117250000D03*
X120552944Y-115552944D03*
X120552944Y-118947056D03*
X122250000Y-114850000D03*
D34*
X122250000Y-117250000D03*
D33*
X122250000Y-119650000D03*
X123947056Y-115552944D03*
X123947056Y-118947056D03*
X124650000Y-117250000D03*
%TD*%
D35*
%TO.P,C2,1*%
%TO.N,GND*%
X101000000Y-91230000D03*
%TO.P,C2,2*%
%TO.N,XIN*%
X101000000Y-90270000D03*
%TD*%
D33*
%TO.P,H3,1,1*%
%TO.N,GND*%
X119850000Y-82750000D03*
X120552944Y-81052944D03*
X120552944Y-84447056D03*
X122250000Y-80350000D03*
D34*
X122250000Y-82750000D03*
D33*
X122250000Y-85150000D03*
X123947056Y-81052944D03*
X123947056Y-84447056D03*
X124650000Y-82750000D03*
%TD*%
D29*
%TO.P,R11,1*%
%TO.N,Net-(D2-A)*%
X123667500Y-87350000D03*
%TO.P,R11,2*%
%TO.N,3V3_BUCK*%
X122647500Y-87350000D03*
%TD*%
D33*
%TO.P,H8,1,1*%
%TO.N,GND*%
X85350000Y-82750000D03*
X86052944Y-81052944D03*
X86052944Y-84447056D03*
X87750000Y-80350000D03*
D34*
X87750000Y-82750000D03*
D33*
X87750000Y-85150000D03*
X89447056Y-81052944D03*
X89447056Y-84447056D03*
X90150000Y-82750000D03*
%TD*%
D31*
%TO.P,F1,1*%
%TO.N,Net-(F1-Pad1)*%
X115287500Y-107700000D03*
%TO.P,F1,2*%
%TO.N,V_USB*%
X113712500Y-107700000D03*
%TD*%
D36*
%TO.P,R13,1*%
%TO.N,/SW_BK*%
X93750000Y-94625000D03*
%TO.P,R13,2*%
%TO.N,DRV_BUCK_OUT*%
X95400000Y-94625000D03*
%TD*%
D33*
%TO.P,H9,1,1*%
%TO.N,GND*%
X85350000Y-117250000D03*
X86052944Y-115552944D03*
X86052944Y-118947056D03*
X87750000Y-114850000D03*
D34*
X87750000Y-117250000D03*
D33*
X87750000Y-119650000D03*
X89447056Y-115552944D03*
X89447056Y-118947056D03*
X90150000Y-117250000D03*
%TD*%
D30*
%TO.P,C1,1*%
%TO.N,GND*%
X110800000Y-99650000D03*
%TO.P,C1,2*%
%TO.N,+1V1*%
X109840000Y-99650000D03*
%TD*%
D37*
%TO.P,J6,2,2*%
%TO.N,GND*%
X102890000Y-78450000D03*
%TO.P,J6,1,1*%
%TO.N,/VM*%
X107890000Y-78450000D03*
%TD*%
D15*
%TO.P,C29,1*%
%TO.N,Current_A*%
X94850000Y-105220000D03*
%TO.P,C29,2*%
%TO.N,GND*%
X94850000Y-105860000D03*
%TD*%
D35*
%TO.P,C10,1*%
%TO.N,GND*%
X103525000Y-107360000D03*
%TO.P,C10,2*%
%TO.N,3V3_BUCK*%
X103525000Y-106400000D03*
%TD*%
D15*
%TO.P,C31,1*%
%TO.N,Current_B*%
X97050000Y-105220000D03*
%TO.P,C31,2*%
%TO.N,GND*%
X97050000Y-105860000D03*
%TD*%
D38*
%TO.P,J1,A1,GND*%
%TO.N,GND*%
X123365000Y-103300000D03*
%TO.P,J1,A4,VBUS*%
%TO.N,Net-(F1-Pad1)*%
X123365000Y-102500000D03*
D39*
%TO.P,J1,A5,CC1*%
%TO.N,unconnected-(J1-CC1-PadA5)*%
X123365000Y-101300000D03*
%TO.P,J1,A6,D+*%
%TO.N,USB_D+*%
X123365000Y-100300000D03*
%TO.P,J1,A7,D-*%
%TO.N,USB_D-*%
X123365000Y-99800000D03*
%TO.P,J1,A8,SBU1*%
%TO.N,unconnected-(J1-SBU1-PadA8)*%
X123365000Y-98800000D03*
D38*
%TO.P,J1,A9,VBUS*%
%TO.N,Net-(F1-Pad1)*%
X123365000Y-97600000D03*
%TO.P,J1,A12,GND*%
%TO.N,GND*%
X123365000Y-96800000D03*
%TO.P,J1,B1,GND*%
X123365000Y-96800000D03*
%TO.P,J1,B4,VBUS*%
%TO.N,Net-(F1-Pad1)*%
X123365000Y-97600000D03*
D39*
%TO.P,J1,B5,CC2*%
%TO.N,unconnected-(J1-CC2-PadB5)*%
X123365000Y-98300000D03*
%TO.P,J1,B6,D+*%
%TO.N,USB_D+*%
X123365000Y-99300000D03*
%TO.P,J1,B7,D-*%
%TO.N,USB_D-*%
X123365000Y-100800000D03*
%TO.P,J1,B8,SBU2*%
%TO.N,unconnected-(J1-SBU2-PadB8)*%
X123365000Y-101800000D03*
D38*
%TO.P,J1,B9,VBUS*%
%TO.N,Net-(F1-Pad1)*%
X123365000Y-102500000D03*
%TO.P,J1,B12,GND*%
%TO.N,GND*%
X123365000Y-103300000D03*
D40*
%TO.P,J1,S1,SHIELD*%
X124280000Y-104370000D03*
D41*
X128460000Y-104370000D03*
D40*
X124280000Y-95730000D03*
D41*
X128460000Y-95730000D03*
%TD*%
D42*
%TO.P,D1,1,VDD*%
%TO.N,3V3_BUCK*%
X102500000Y-110650000D03*
%TO.P,D1,2,DOUT*%
%TO.N,DOUT*%
X102500000Y-113950000D03*
%TO.P,D1,3,VSS*%
%TO.N,GND*%
X107400000Y-113950000D03*
%TO.P,D1,4,DIN*%
%TO.N,GPIO25*%
X107400000Y-110650000D03*
%TD*%
D32*
%TO.P,C8,1*%
%TO.N,GND*%
X105700000Y-91950000D03*
%TO.P,C8,2*%
%TO.N,3V3_BUCK*%
X105700000Y-92910000D03*
%TD*%
D20*
%TO.P,C12,1*%
%TO.N,GND*%
X111725000Y-103050000D03*
%TO.P,C12,2*%
%TO.N,3V3_BUCK*%
X110175000Y-103050000D03*
%TD*%
D25*
%TO.P,C37,1*%
%TO.N,3V3_BUCK*%
X100450000Y-110675000D03*
%TO.P,C37,2*%
%TO.N,GND*%
X100450000Y-112225000D03*
%TD*%
D43*
%TO.P,Y1,4,GND_2*%
%TO.N,GND*%
X99450000Y-91950000D03*
%TO.P,Y1,3,CRYSTAL_2*%
%TO.N,Net-(Y1-CRYSTAL_2)*%
X97600000Y-91950000D03*
%TO.P,Y1,2,GND_1*%
%TO.N,GND*%
X97600000Y-90400000D03*
%TO.P,Y1,1,CRYSTAL_1*%
%TO.N,XIN*%
X99450000Y-90400000D03*
%TD*%
D20*
%TO.P,C25,2*%
%TO.N,GND*%
X85950000Y-93675000D03*
%TO.P,C25,1*%
%TO.N,ALIM*%
X87500000Y-93675000D03*
%TD*%
D44*
%TO.P,U4,1,OUT1*%
%TO.N,3V3_BUCK*%
X116150000Y-101850001D03*
%TO.P,U4,2,IN*%
%TO.N,V_USB*%
X116150000Y-102500000D03*
%TO.P,U4,3,OUT2*%
%TO.N,unconnected-(U4-OUT2-Pad3)*%
X116150000Y-103149999D03*
%TO.P,U4,4,EN2*%
%TO.N,unconnected-(U4-EN2-Pad4)*%
X118250000Y-103149999D03*
%TO.P,U4,5,GND*%
%TO.N,GND*%
X118250000Y-102500000D03*
%TO.P,U4,6,EN1*%
%TO.N,V_USB*%
X118250000Y-101850001D03*
D45*
%TO.P,U4,7,EPAD*%
%TO.N,GND*%
X117200000Y-102500000D03*
%TD*%
D46*
%TO.P,Q1,1,G*%
%TO.N,GND*%
X113350000Y-81500000D03*
%TO.P,Q1,2,S*%
%TO.N,ALIM*%
X115250000Y-81500000D03*
%TO.P,Q1,3,D*%
%TO.N,/VM*%
X114300000Y-79400000D03*
%TD*%
D18*
%TO.P,C26,1*%
%TO.N,/CP*%
X89100000Y-95350000D03*
%TO.P,C26,2*%
%TO.N,ALIM*%
X89100000Y-93800000D03*
%TD*%
D35*
%TO.P,C7,1*%
%TO.N,GND*%
X101812500Y-107360000D03*
%TO.P,C7,2*%
%TO.N,3V3_BUCK*%
X101812500Y-106400000D03*
%TD*%
D17*
%TO.P,C24,1*%
%TO.N,GND*%
X93800000Y-92975000D03*
%TO.P,C24,2*%
%TO.N,DRV_BUCK_OUT*%
X95350000Y-92975000D03*
%TD*%
D32*
%TO.P,C3,1*%
%TO.N,Net-(Y1-CRYSTAL_2)*%
X97475000Y-93245000D03*
%TO.P,C3,2*%
%TO.N,GND*%
X97475000Y-94205000D03*
%TD*%
D47*
%TO.P,J3,1*%
%TO.N,SWD*%
X96700000Y-113800000D03*
D48*
%TO.P,J3,2*%
%TO.N,SWCLK*%
X94903949Y-115596051D03*
%TD*%
D49*
%TO.P,U1,1,IOVDD*%
%TO.N,3V3_BUCK*%
X107550000Y-96162500D03*
%TO.P,U1,2,GPIO0*%
%TO.N,UART_TX*%
X107150000Y-96162500D03*
%TO.P,U1,3,GPIO1*%
%TO.N,UART_RX*%
X106750000Y-96162500D03*
%TO.P,U1,4,GPIO2*%
%TO.N,GPIO2*%
X106350000Y-96162500D03*
%TO.P,U1,5,GPIO3*%
%TO.N,GPIO3*%
X105950000Y-96162500D03*
%TO.P,U1,6,GPIO4*%
%TO.N,I2C_SDA*%
X105550000Y-96162500D03*
%TO.P,U1,7,GPIO5*%
%TO.N,I2C_SCL*%
X105150000Y-96162500D03*
%TO.P,U1,8,GPIO6*%
%TO.N,nSLEEP*%
X104750000Y-96162500D03*
%TO.P,U1,9,GPIO7*%
%TO.N,nFAULT*%
X104350000Y-96162500D03*
%TO.P,U1,10,IOVDD*%
%TO.N,3V3_BUCK*%
X103950000Y-96162500D03*
%TO.P,U1,11,GPIO8*%
%TO.N,DRVOFF*%
X103550000Y-96162500D03*
%TO.P,U1,12,GPIO9*%
%TO.N,GPIO9*%
X103150000Y-96162500D03*
%TO.P,U1,13,GPIO10*%
%TO.N,INLC*%
X102750000Y-96162500D03*
%TO.P,U1,14,GPIO11*%
%TO.N,INHC*%
X102350000Y-96162500D03*
D50*
%TO.P,U1,15,GPIO12*%
%TO.N,INLB*%
X101512500Y-97000000D03*
%TO.P,U1,16,GPIO13*%
%TO.N,INHB*%
X101512500Y-97400000D03*
%TO.P,U1,17,GPIO14*%
%TO.N,INLA*%
X101512500Y-97800000D03*
%TO.P,U1,18,GPIO15*%
%TO.N,INHA*%
X101512500Y-98200000D03*
%TO.P,U1,19,TESTEN*%
%TO.N,GND*%
X101512500Y-98600000D03*
%TO.P,U1,20,XIN*%
%TO.N,XIN*%
X101512500Y-99000000D03*
%TO.P,U1,21,XOUT*%
%TO.N,XOUT*%
X101512500Y-99400000D03*
%TO.P,U1,22,IOVDD*%
%TO.N,3V3_BUCK*%
X101512500Y-99800000D03*
%TO.P,U1,23,DVDD*%
%TO.N,+1V1*%
X101512500Y-100200000D03*
%TO.P,U1,24,SWCLK*%
%TO.N,SWCLK*%
X101512500Y-100600000D03*
%TO.P,U1,25,SWD*%
%TO.N,SWD*%
X101512500Y-101000000D03*
%TO.P,U1,26,RUN*%
%TO.N,RUN*%
X101512500Y-101400000D03*
%TO.P,U1,27,GPIO16*%
%TO.N,SPI_MISO*%
X101512500Y-101800000D03*
%TO.P,U1,28,GPIO17*%
%TO.N,SPI_SS*%
X101512500Y-102200000D03*
D49*
%TO.P,U1,29,GPIO18*%
%TO.N,SPI_SCK*%
X102350000Y-103037500D03*
%TO.P,U1,30,GPIO19*%
%TO.N,SPI_MOSI*%
X102750000Y-103037500D03*
%TO.P,U1,31,GPIO20*%
%TO.N,GPIO20*%
X103150000Y-103037500D03*
%TO.P,U1,32,GPIO21*%
%TO.N,GPIO21*%
X103550000Y-103037500D03*
%TO.P,U1,33,IOVDD*%
%TO.N,3V3_BUCK*%
X103950000Y-103037500D03*
%TO.P,U1,34,GPIO22*%
%TO.N,GPIO22*%
X104350000Y-103037500D03*
%TO.P,U1,35,GPIO23*%
%TO.N,unconnected-(U1-GPIO23-Pad35)*%
X104750000Y-103037500D03*
%TO.P,U1,36,GPIO24*%
%TO.N,GPIO24*%
X105150000Y-103037500D03*
%TO.P,U1,37,GPIO25*%
%TO.N,GPIO25*%
X105550000Y-103037500D03*
%TO.P,U1,38,GPIO26_ADC0*%
%TO.N,Net-(U1-GPIO26_ADC0)*%
X105950000Y-103037500D03*
%TO.P,U1,39,GPIO27_ADC1*%
%TO.N,Net-(U1-GPIO27_ADC1)*%
X106350000Y-103037500D03*
%TO.P,U1,40,GPIO28_ADC2*%
%TO.N,Net-(U1-GPIO28_ADC2)*%
X106750000Y-103037500D03*
%TO.P,U1,41,GPIO29_ADC3*%
%TO.N,VREF*%
X107150000Y-103037500D03*
%TO.P,U1,42,IOVDD*%
%TO.N,3V3_BUCK*%
X107550000Y-103037500D03*
D50*
%TO.P,U1,43,ADC_AVDD*%
X108387500Y-102200000D03*
%TO.P,U1,44,VREG_IN*%
X108387500Y-101800000D03*
%TO.P,U1,45,VREG_VOUT*%
%TO.N,+1V1*%
X108387500Y-101400000D03*
%TO.P,U1,46,USB_DM*%
%TO.N,/D-*%
X108387500Y-101000000D03*
%TO.P,U1,47,USB_DP*%
%TO.N,/D+*%
X108387500Y-100600000D03*
%TO.P,U1,48,USB_VDD*%
%TO.N,3V3_BUCK*%
X108387500Y-100200000D03*
%TO.P,U1,49,IOVDD*%
X108387500Y-99800000D03*
%TO.P,U1,50,DVDD*%
%TO.N,+1V1*%
X108387500Y-99400000D03*
%TO.P,U1,51,QSPI_SD3*%
%TO.N,QSPI_SD3*%
X108387500Y-99000000D03*
%TO.P,U1,52,QSPI_SCLK*%
%TO.N,QSPI_CLK*%
X108387500Y-98600000D03*
%TO.P,U1,53,QSPI_SD0*%
%TO.N,QSPI_SD0*%
X108387500Y-98200000D03*
%TO.P,U1,54,QSPI_SD2*%
%TO.N,QSPI_SD2*%
X108387500Y-97800000D03*
%TO.P,U1,55,QSPI_SD1*%
%TO.N,QSPI_SD1*%
X108387500Y-97400000D03*
%TO.P,U1,56,QSPI_SS*%
%TO.N,QSPI_SS*%
X108387500Y-97000000D03*
D51*
%TO.P,U1,57,GND*%
%TO.N,GND*%
X104950000Y-99600000D03*
%TD*%
D21*
%TO.P,J2,1*%
%TO.N,3V3_BUCK*%
X111540000Y-118450000D03*
D22*
%TO.P,J2,2*%
%TO.N,GND*%
X111540000Y-120990000D03*
%TO.P,J2,3*%
%TO.N,V_USB*%
X109000000Y-118450000D03*
%TO.P,J2,4*%
%TO.N,GPIO21*%
X109000000Y-120990000D03*
%TO.P,J2,5*%
%TO.N,GPIO25*%
X106460000Y-118450000D03*
%TO.P,J2,6*%
%TO.N,GPIO20*%
X106460000Y-120990000D03*
%TO.P,J2,7*%
%TO.N,GPIO24*%
X103920000Y-118450000D03*
%TO.P,J2,8*%
%TO.N,GPIO2*%
X103920000Y-120990000D03*
%TO.P,J2,9*%
%TO.N,unconnected-(J2-Pad9)*%
X101380000Y-118450000D03*
%TO.P,J2,10*%
%TO.N,GPIO3*%
X101380000Y-120990000D03*
%TO.P,J2,11*%
%TO.N,GPIO22*%
X98840000Y-118450000D03*
%TO.P,J2,12*%
%TO.N,GPIO9*%
X98840000Y-120990000D03*
%TD*%
D29*
%TO.P,R16,1*%
%TO.N,3V3_BUCK*%
X88580000Y-105850000D03*
%TO.P,R16,2*%
%TO.N,nFAULT*%
X87560000Y-105850000D03*
%TD*%
D19*
%TO.P,H7,1,1*%
%TO.N,DRV_BUCK_OUT*%
X86950000Y-89900000D03*
%TD*%
D13*
%TO.P,R6,1*%
%TO.N,Current_A*%
X93750000Y-105240000D03*
%TO.P,R6,2*%
%TO.N,Net-(U1-GPIO26_ADC0)*%
X93750000Y-106260000D03*
%TD*%
D24*
%TO.P,H11,1,1*%
%TO.N,OUTB*%
X81740000Y-100030000D03*
%TD*%
D13*
%TO.P,R5,1*%
%TO.N,QSPI_SS*%
X120800000Y-95420000D03*
%TO.P,R5,2*%
%TO.N,3V3_BUCK*%
X120800000Y-96440000D03*
%TD*%
D24*
%TO.P,H10,1,1*%
%TO.N,OUTA*%
X82440000Y-95030000D03*
%TD*%
D17*
%TO.P,C42,1*%
%TO.N,FeedBack*%
X106325000Y-88700000D03*
%TO.P,C42,2*%
%TO.N,GND*%
X107875000Y-88700000D03*
%TD*%
D13*
%TO.P,R14,1*%
%TO.N,3V3_BUCK*%
X113500000Y-87690000D03*
%TO.P,R14,2*%
%TO.N,I2C_SDA*%
X113500000Y-88710000D03*
%TD*%
%TO.P,R4,1*%
%TO.N,Net-(R4-Pad1)*%
X118600000Y-91590000D03*
%TO.P,R4,2*%
%TO.N,QSPI_SS*%
X118600000Y-92610000D03*
%TD*%
D17*
%TO.P,C17,1*%
%TO.N,V_USB*%
X116425000Y-104900000D03*
%TO.P,C17,2*%
%TO.N,GND*%
X117975000Y-104900000D03*
%TD*%
D52*
%TO.P,U5,1,NC*%
%TO.N,unconnected-(U5-NC-Pad1)*%
X92510693Y-97601300D03*
%TO.P,U5,2,AGND*%
%TO.N,GND*%
X92010567Y-97601300D03*
%TO.P,U5,3,FB_BK*%
%TO.N,DRV_BUCK_OUT*%
X91510441Y-97601300D03*
%TO.P,U5,4,GND_BK*%
%TO.N,GND*%
X91010315Y-97601300D03*
%TO.P,U5,5,SW_BK*%
%TO.N,/SW_BK*%
X90510189Y-97601300D03*
%TO.P,U5,6,CPL*%
%TO.N,Net-(U5-CPL)*%
X90010063Y-97601300D03*
%TO.P,U5,7,CPH*%
%TO.N,Net-(U5-CPH)*%
X89509937Y-97601300D03*
%TO.P,U5,8,CP*%
%TO.N,/CP*%
X89009811Y-97601300D03*
%TO.P,U5,9,VM*%
%TO.N,ALIM*%
X88509685Y-97601300D03*
%TO.P,U5,10,VM*%
X88009559Y-97601300D03*
%TO.P,U5,11,VM*%
X87509433Y-97601300D03*
%TO.P,U5,12,PGND*%
%TO.N,GND*%
X87009307Y-97601300D03*
D53*
%TO.P,U5,13,OUTA*%
%TO.N,OUTA*%
X86308000Y-98299559D03*
%TO.P,U5,14,OUTA*%
X86308000Y-98799685D03*
%TO.P,U5,15,PGND*%
%TO.N,GND*%
X86308000Y-99299811D03*
%TO.P,U5,16,OUTB*%
%TO.N,OUTB*%
X86308000Y-99799937D03*
%TO.P,U5,17,OUTB*%
X86308000Y-100300063D03*
%TO.P,U5,18,PGND*%
%TO.N,GND*%
X86308000Y-100800189D03*
%TO.P,U5,19,OUTC*%
%TO.N,OUTC*%
X86308000Y-101300315D03*
%TO.P,U5,20,OUTC*%
X86308000Y-101800441D03*
D52*
%TO.P,U5,21,DRVOFF*%
%TO.N,DRVOFF*%
X87009307Y-102498700D03*
%TO.P,U5,22,NFAULT*%
%TO.N,nFAULT*%
X87509433Y-102498700D03*
%TO.P,U5,23,NSLEEP*%
%TO.N,nSLEEP*%
X88009559Y-102498700D03*
%TO.P,U5,24,NC*%
%TO.N,unconnected-(U5-NC-Pad24)*%
X88509685Y-102498700D03*
%TO.P,U5,25,AVDD*%
%TO.N,3V3_BUCK*%
X89009811Y-102498700D03*
%TO.P,U5,26,AGND*%
%TO.N,GND*%
X89509937Y-102498700D03*
%TO.P,U5,27,INHA*%
%TO.N,INHA*%
X90010063Y-102498700D03*
%TO.P,U5,28,INLA*%
%TO.N,INLA*%
X90510189Y-102498700D03*
%TO.P,U5,29,INHB*%
%TO.N,INHB*%
X91010315Y-102498700D03*
%TO.P,U5,30,INLB*%
%TO.N,INLB*%
X91510441Y-102498700D03*
%TO.P,U5,31,INHC*%
%TO.N,INHC*%
X92010567Y-102498700D03*
%TO.P,U5,32,INLC*%
%TO.N,INLC*%
X92510693Y-102498700D03*
D53*
%TO.P,U5,33,SDO*%
%TO.N,SPI_MOSI*%
X93212000Y-101800441D03*
%TO.P,U5,34,SDI*%
%TO.N,SPI_MISO*%
X93212000Y-101300315D03*
%TO.P,U5,35,SCLK*%
%TO.N,SPI_SCK*%
X93212000Y-100800189D03*
%TO.P,U5,36,NSCS*%
%TO.N,SPI_SS*%
X93212000Y-100300063D03*
%TO.P,U5,37,VREF/ILIM*%
%TO.N,VREF*%
X93212000Y-99799937D03*
%TO.P,U5,38,SOC*%
%TO.N,Current_C*%
X93212000Y-99299811D03*
%TO.P,U5,39,SOB*%
%TO.N,Current_B*%
X93212000Y-98799685D03*
%TO.P,U5,40,SOA*%
%TO.N,Current_A*%
X93212000Y-98299559D03*
D54*
%TO.P,U5,41,EPAD*%
%TO.N,GND*%
X89760000Y-100050000D03*
%TD*%
D31*
%TO.P,D2,1,K*%
%TO.N,GND*%
X123925000Y-88800000D03*
%TO.P,D2,2,A*%
%TO.N,Net-(D2-A)*%
X122350000Y-88800000D03*
%TD*%
D32*
%TO.P,C11,1*%
%TO.N,GND*%
X104200000Y-91950000D03*
%TO.P,C11,2*%
%TO.N,3V3_BUCK*%
X104200000Y-92910000D03*
%TD*%
D13*
%TO.P,R15,1*%
%TO.N,3V3_BUCK*%
X112250000Y-87690000D03*
%TO.P,R15,2*%
%TO.N,I2C_SCL*%
X112250000Y-88710000D03*
%TD*%
%TO.P,R7,1*%
%TO.N,Current_B*%
X95950000Y-105240000D03*
%TO.P,R7,2*%
%TO.N,Net-(U1-GPIO27_ADC1)*%
X95950000Y-106260000D03*
%TD*%
D55*
%TO.P,J4,1*%
%TO.N,UART_TX*%
X110948439Y-93701562D03*
D56*
%TO.P,J4,2*%
%TO.N,UART_RX*%
X112744490Y-91905511D03*
%TD*%
D57*
%TO.P,U7,1,VIN*%
%TO.N,ALIM*%
X103949900Y-85349999D03*
%TO.P,U7,2,EN/UVLO*%
X103949900Y-85850000D03*
%TO.P,U7,3,VCC*%
%TO.N,Net-(U7-VCC)*%
X103949900Y-86350000D03*
%TO.P,U7,4,FB/VOUT*%
%TO.N,FeedBack*%
X103949900Y-86850001D03*
%TO.P,U7,5,MODE*%
%TO.N,GND*%
X105850100Y-86850001D03*
%TO.P,U7,6,\u002ARESET*%
X105850100Y-86350000D03*
%TO.P,U7,7,GND*%
X105850100Y-85850000D03*
%TO.P,U7,8,LX*%
%TO.N,Net-(U7-LX)*%
X105850100Y-85349999D03*
%TD*%
D32*
%TO.P,C18,1*%
%TO.N,GND*%
X119399100Y-95450000D03*
%TO.P,C18,2*%
%TO.N,3V3_BUCK*%
X119399100Y-96410000D03*
%TD*%
D29*
%TO.P,R1,1*%
%TO.N,USB_D+*%
X113610000Y-99500000D03*
%TO.P,R1,2*%
%TO.N,/D+*%
X112590000Y-99500000D03*
%TD*%
D52*
%TO.P,U2,1,~{CS}*%
%TO.N,QSPI_SS*%
X116550001Y-94504001D03*
%TO.P,U2,2,DOIO1*%
%TO.N,QSPI_SD1*%
X116050000Y-94504001D03*
%TO.P,U2,3,~{WP}_IO2*%
%TO.N,QSPI_SD2*%
X115550000Y-94504001D03*
%TO.P,U2,4,GND*%
%TO.N,GND*%
X115049999Y-94504001D03*
%TO.P,U2,5,DIIO0*%
%TO.N,QSPI_SD0*%
X115049999Y-97295999D03*
%TO.P,U2,6,CLK*%
%TO.N,QSPI_CLK*%
X115550000Y-97295999D03*
%TO.P,U2,7,~{HOLD}_IO3*%
%TO.N,QSPI_SD3*%
X116050000Y-97295999D03*
%TO.P,U2,8,VCC*%
%TO.N,3V3_BUCK*%
X116550001Y-97295999D03*
D58*
%TO.P,U2,9,EPAD*%
%TO.N,unconnected-(U2-EPAD-Pad9)*%
X115800000Y-95900000D03*
%TD*%
D35*
%TO.P,C30,1*%
%TO.N,3V3_BUCK*%
X102620000Y-92910000D03*
%TO.P,C30,2*%
%TO.N,GND*%
X102620000Y-91950000D03*
%TD*%
D16*
%TO.P,C9,1*%
%TO.N,GND*%
X97340000Y-96805000D03*
%TO.P,C9,2*%
%TO.N,3V3_BUCK*%
X98300000Y-96805000D03*
%TD*%
D32*
%TO.P,C20,1*%
%TO.N,GND*%
X117998200Y-95450000D03*
%TO.P,C20,2*%
%TO.N,3V3_BUCK*%
X117998200Y-96410000D03*
%TD*%
D35*
%TO.P,C13,1*%
%TO.N,GND*%
X108600000Y-106810000D03*
%TO.P,C13,2*%
%TO.N,3V3_BUCK*%
X108600000Y-105850000D03*
%TD*%
D30*
%TO.P,C5,1*%
%TO.N,GND*%
X113580000Y-101800000D03*
%TO.P,C5,2*%
%TO.N,+1V1*%
X112620000Y-101800000D03*
%TD*%
D16*
%TO.P,C4,1*%
%TO.N,GND*%
X97340000Y-99968332D03*
%TO.P,C4,2*%
%TO.N,+1V1*%
X98300000Y-99968332D03*
%TD*%
D59*
%TO.N,GND*%
X104183332Y-100100000D03*
X94850000Y-106500000D03*
X100450000Y-113150000D03*
X89300000Y-107400000D03*
X110150000Y-90100000D03*
X89116666Y-98950000D03*
X106150000Y-113850000D03*
X119150000Y-102500000D03*
X90533332Y-98950000D03*
X119700000Y-102500000D03*
X108950000Y-107550000D03*
X99500000Y-108900000D03*
X103075000Y-89775000D03*
X127300000Y-107350000D03*
X127250000Y-90650000D03*
X102475000Y-89775000D03*
X108900000Y-88100000D03*
X96900000Y-95500000D03*
X101550000Y-92000000D03*
X103500000Y-91250000D03*
X87700000Y-101150000D03*
X119350000Y-94750000D03*
X117150000Y-95450000D03*
X124100000Y-89800000D03*
X99000000Y-110700000D03*
X91950000Y-101150000D03*
X112600000Y-103050000D03*
X104950000Y-91250000D03*
X97350000Y-99150000D03*
X111384089Y-99609511D03*
X97050000Y-106550000D03*
X87850000Y-86750000D03*
X111000000Y-107150000D03*
X89116666Y-100050000D03*
X92750000Y-93000000D03*
X105600000Y-100100000D03*
X90533332Y-101150000D03*
X124950000Y-88850000D03*
X97340000Y-94890000D03*
X119300000Y-105200000D03*
X105600000Y-99000000D03*
X111000000Y-106600000D03*
X100450000Y-108050000D03*
X99450000Y-112200000D03*
X91950000Y-98950000D03*
X86500000Y-92650000D03*
X98650000Y-91950000D03*
X104183332Y-99000000D03*
X90533332Y-100050000D03*
X87700000Y-98950000D03*
X102500000Y-90500000D03*
X98400000Y-90400000D03*
X97650000Y-89600000D03*
X87700000Y-100050000D03*
X99300000Y-106550000D03*
X113600000Y-102450000D03*
X102400000Y-98600000D03*
X100000000Y-108450000D03*
X109100000Y-92150000D03*
X114150000Y-95200000D03*
X91950000Y-100050000D03*
X99000000Y-110000000D03*
X99450000Y-91200000D03*
X126400000Y-91600000D03*
X109650000Y-90550000D03*
X107250000Y-113000000D03*
X96468744Y-96018745D03*
X85450000Y-92650000D03*
X89116666Y-101150000D03*
X90300000Y-108300000D03*
X110600000Y-89700000D03*
X109100000Y-91350000D03*
X119300000Y-104600000D03*
X126450000Y-108300000D03*
%TO.N,+1V1*%
X105600000Y-101500000D03*
X111800000Y-101400000D03*
%TO.N,3V3_BUCK*%
X115700000Y-84600000D03*
X114550000Y-102150000D03*
X108850000Y-102950000D03*
X114388541Y-104488541D03*
X115100000Y-86500000D03*
X98836310Y-99063690D03*
X111170000Y-105520000D03*
X89009811Y-103409811D03*
X119050000Y-97200000D03*
X98300000Y-97650000D03*
X101050000Y-106549500D03*
X102100000Y-109750000D03*
X89009811Y-104340189D03*
X113500000Y-86800000D03*
X103000000Y-109750000D03*
X122650000Y-86700000D03*
X113950000Y-104950000D03*
X94650000Y-82950000D03*
X120750000Y-88800000D03*
X122150000Y-93350000D03*
X106650000Y-90600000D03*
X122200000Y-89900000D03*
X107750000Y-91450000D03*
X91400000Y-105500000D03*
X115700000Y-85200000D03*
X100450000Y-109750000D03*
X108850000Y-104550000D03*
X107561459Y-93138541D03*
X120750000Y-88000000D03*
X113388541Y-105488541D03*
X117350000Y-97800000D03*
X102450000Y-99800000D03*
X105799500Y-108300000D03*
X122150000Y-94150000D03*
X103350000Y-92900000D03*
X121100000Y-97250000D03*
X108850000Y-103750000D03*
X107100000Y-92700000D03*
X122200000Y-91500000D03*
X122150000Y-92550000D03*
X122200000Y-90700000D03*
X112250000Y-86800000D03*
X88550000Y-106700000D03*
X104365000Y-97347100D03*
X104950000Y-92900000D03*
X115700000Y-86000000D03*
X103095000Y-97347100D03*
X114988541Y-101688541D03*
X119650000Y-97200000D03*
X91400000Y-106300000D03*
X120500000Y-97250000D03*
X106200000Y-106650000D03*
X107111459Y-91038541D03*
X117788541Y-97338541D03*
X107400000Y-107600000D03*
%TO.N,V_USB*%
X112600000Y-107300000D03*
X112600000Y-108000000D03*
X118250000Y-100800000D03*
X119300000Y-101850000D03*
%TO.N,DRV_BUCK_OUT*%
X88550000Y-89900000D03*
X93101056Y-96051056D03*
%TO.N,Current_A*%
X93650000Y-104450000D03*
X94500000Y-96200500D03*
%TO.N,Current_B*%
X95950000Y-104450000D03*
X94500500Y-97199500D03*
%TO.N,Current_C*%
X94518744Y-97968744D03*
X98500000Y-104350000D03*
%TO.N,VREF*%
X107746800Y-105703200D03*
X99200000Y-103850000D03*
%TO.N,GPIO25*%
X105416068Y-104250000D03*
X107400000Y-109150000D03*
%TO.N,GPIO24*%
X104811518Y-104732622D03*
%TO.N,GPIO22*%
X104350000Y-104150000D03*
%TO.N,GPIO9*%
X102150000Y-93650000D03*
%TO.N,GPIO3*%
X106349006Y-93600000D03*
%TO.N,GPIO2*%
X106950000Y-93600000D03*
%TO.N,GPIO20*%
X103033932Y-104850000D03*
%TO.N,GPIO21*%
X103650000Y-104700000D03*
%TO.N,SWD*%
X100100000Y-101099500D03*
%TO.N,SWCLK*%
X98895180Y-100699500D03*
%TO.N,UART_TX*%
X107800500Y-94950000D03*
%TO.N,UART_RX*%
X107800500Y-94350000D03*
%TO.N,RUN*%
X102450000Y-101400000D03*
X118600000Y-106650000D03*
%TO.N,nFAULT*%
X87550000Y-104000000D03*
X103920972Y-93885429D03*
%TO.N,I2C_SDA*%
X113500000Y-89550000D03*
X105246928Y-102202956D03*
X105749503Y-93600000D03*
%TO.N,I2C_SCL*%
X103931050Y-102200500D03*
X112250000Y-89500000D03*
X105150000Y-93600000D03*
%TO.N,nSLEEP*%
X104465239Y-93600000D03*
X88149503Y-104000000D03*
%TO.N,DRVOFF*%
X102750000Y-93650000D03*
X86950497Y-104000000D03*
%TO.N,INLC*%
X92797484Y-104649205D03*
X101550000Y-93650000D03*
%TO.N,INHC*%
X100950497Y-93650000D03*
X92197984Y-104651131D03*
%TO.N,INLB*%
X99949500Y-96298051D03*
X91598499Y-104646550D03*
%TO.N,INHB*%
X90998996Y-104646550D03*
X99949500Y-96897554D03*
%TO.N,INLA*%
X90399493Y-104646550D03*
X99949500Y-97497057D03*
%TO.N,INHA*%
X99952950Y-98096550D03*
X89800000Y-104650000D03*
%TO.N,SPI_MISO*%
X95396550Y-101400507D03*
X99400000Y-101700497D03*
%TO.N,SPI_SS*%
X95396550Y-100201501D03*
X99400000Y-102300000D03*
%TO.N,SPI_SCK*%
X95396550Y-100801004D03*
X101750497Y-104700000D03*
%TO.N,SPI_MOSI*%
X102350000Y-104700000D03*
X95400000Y-102000000D03*
%TO.N,QSPI_SD3*%
X111700000Y-99100000D03*
X116050000Y-98150000D03*
%TO.N,Net-(U1-GPIO26_ADC0)*%
X93750000Y-107100000D03*
X105820133Y-105703200D03*
%TO.N,Net-(U1-GPIO27_ADC1)*%
X106462355Y-105703200D03*
X95950000Y-107100000D03*
%TO.N,Net-(U1-GPIO28_ADC2)*%
X107104577Y-105800000D03*
X98150000Y-107100000D03*
%TD*%
D60*
%TO.N,GND*%
X85950000Y-93200000D02*
X85950000Y-93675000D01*
X110200000Y-106830000D02*
X110770000Y-106830000D01*
X124900000Y-88800000D02*
X124950000Y-88850000D01*
X86851300Y-97601300D02*
X85950000Y-96700000D01*
X123925000Y-88800000D02*
X124300000Y-88800000D01*
X110325000Y-111025000D02*
X107400000Y-113950000D01*
D61*
X111725000Y-103050000D02*
X112600000Y-103050000D01*
D62*
X97340000Y-95460000D02*
X96940000Y-95460000D01*
D60*
X119300000Y-105200000D02*
X119000000Y-104900000D01*
X127300000Y-90700000D02*
X127250000Y-90650000D01*
D61*
X113580000Y-101800000D02*
X113580000Y-102430000D01*
D62*
X102400000Y-98600000D02*
X103950000Y-98600000D01*
D60*
X99811250Y-109211250D02*
X99500000Y-108900000D01*
D62*
X119399100Y-94799100D02*
X119350000Y-94750000D01*
D60*
X87750000Y-110850000D02*
X90300000Y-108300000D01*
X104950000Y-91250000D02*
X104950000Y-91900000D01*
D62*
X97340000Y-100624166D02*
X98300000Y-101584166D01*
D60*
X100450000Y-112225000D02*
X99475000Y-112225000D01*
D62*
X115049999Y-94504001D02*
X114845999Y-94504001D01*
D60*
X87850000Y-86750000D02*
X87850000Y-85250000D01*
X123365000Y-103300000D02*
X123365000Y-103455000D01*
D62*
X92010567Y-97601300D02*
X92010567Y-98889433D01*
D60*
X101000000Y-91230000D02*
X101770000Y-91230000D01*
X123925000Y-89625000D02*
X124100000Y-89800000D01*
X127300000Y-108300000D02*
X126450000Y-108300000D01*
X99500000Y-109672500D02*
X99500000Y-109900000D01*
X105000000Y-91950000D02*
X105700000Y-91950000D01*
D62*
X97340000Y-96805000D02*
X97340000Y-95460000D01*
D60*
X108600000Y-106810000D02*
X110180000Y-106810000D01*
X108600000Y-106810000D02*
X108600000Y-107200000D01*
D62*
X97254999Y-96805000D02*
X97340000Y-96805000D01*
D60*
X123925000Y-88800000D02*
X124250000Y-88800000D01*
D63*
X106575000Y-83100000D02*
X106575000Y-81250000D01*
D62*
X89509937Y-102498700D02*
X89509937Y-101543271D01*
D60*
X106250000Y-113950000D02*
X106150000Y-113850000D01*
X125150000Y-112100000D02*
X125150000Y-114350000D01*
X101600000Y-91950000D02*
X103350000Y-91950000D01*
D62*
X92775000Y-92975000D02*
X92750000Y-93000000D01*
D60*
X101000000Y-91230000D02*
X101000000Y-91450000D01*
X101770000Y-91230000D02*
X102750000Y-90250000D01*
X125150000Y-114350000D02*
X122250000Y-117250000D01*
D62*
X86308000Y-99299811D02*
X87350189Y-99299811D01*
D60*
X99100000Y-109900000D02*
X99000000Y-110000000D01*
X100311250Y-108761250D02*
X100411250Y-108761250D01*
X105850100Y-86850001D02*
X106025001Y-86850001D01*
X110680000Y-106830000D02*
X111000000Y-107150000D01*
X104950000Y-90825000D02*
X104300000Y-90175000D01*
X110400000Y-111025000D02*
X110325000Y-111025000D01*
X103350000Y-91400000D02*
X103350000Y-91950000D01*
D62*
X93800000Y-92975000D02*
X92775000Y-92975000D01*
D61*
X111725000Y-104550000D02*
X111725000Y-103050000D01*
D62*
X87700000Y-98950000D02*
X87011999Y-98261999D01*
D60*
X111343600Y-99650000D02*
X111384089Y-99609511D01*
X89325000Y-107375000D02*
X89300000Y-107400000D01*
X108600000Y-107200000D02*
X108950000Y-107550000D01*
X127300000Y-91600000D02*
X126400000Y-91600000D01*
X99450000Y-91950000D02*
X99450000Y-91200000D01*
X110770000Y-106830000D02*
X111000000Y-106600000D01*
D62*
X87011999Y-97603992D02*
X87009307Y-97601300D01*
X92010567Y-98889433D02*
X91950000Y-98950000D01*
D60*
X90300000Y-107375000D02*
X89325000Y-107375000D01*
X99500000Y-109900000D02*
X99100000Y-109900000D01*
X107400000Y-113150000D02*
X107250000Y-113000000D01*
X87009307Y-97601300D02*
X86851300Y-97601300D01*
D62*
X94850000Y-105860000D02*
X94850000Y-106500000D01*
D60*
X90300000Y-107375000D02*
X90300000Y-108300000D01*
D63*
X98725000Y-86900000D02*
X98725000Y-89275000D01*
D60*
X124300000Y-88800000D02*
X127100000Y-91600000D01*
D64*
X112975000Y-81125000D02*
X113350000Y-81500000D01*
D62*
X96468744Y-96018745D02*
X97254999Y-96805000D01*
D60*
X103500000Y-91250000D02*
X103350000Y-91400000D01*
X100450000Y-112225000D02*
X100450000Y-113150000D01*
X118250000Y-102500000D02*
X119150000Y-102500000D01*
X110180000Y-106810000D02*
X110200000Y-106830000D01*
X99450000Y-91950000D02*
X98650000Y-91950000D01*
X99961250Y-109211250D02*
X99811250Y-109211250D01*
X101000000Y-91450000D02*
X101550000Y-92000000D01*
X119150000Y-102500000D02*
X119700000Y-102500000D01*
D64*
X102890000Y-78450000D02*
X105565000Y-81125000D01*
D62*
X86308000Y-100800189D02*
X87350189Y-100800189D01*
D60*
X102700000Y-90000000D02*
X102475000Y-89775000D01*
D63*
X98725000Y-84300000D02*
X98725000Y-86900000D01*
D60*
X123925000Y-88800000D02*
X123925000Y-89625000D01*
D63*
X98725000Y-89275000D02*
X97600000Y-90400000D01*
D60*
X123925000Y-88800000D02*
X124900000Y-88800000D01*
D62*
X99250000Y-106500000D02*
X99300000Y-106550000D01*
D60*
X99500000Y-110650000D02*
X99500000Y-111275000D01*
D62*
X97340000Y-99968332D02*
X97340000Y-100624166D01*
D60*
X119000000Y-104900000D02*
X119300000Y-104600000D01*
X103500000Y-90975000D02*
X104300000Y-90175000D01*
X124250000Y-111200000D02*
X125150000Y-112100000D01*
X123365000Y-103455000D02*
X124280000Y-104370000D01*
X105850100Y-85850000D02*
X105850100Y-86850001D01*
D62*
X87011999Y-98261999D02*
X87011999Y-97603992D01*
D60*
X85950000Y-96700000D02*
X85950000Y-95325000D01*
D62*
X99250000Y-105860000D02*
X99250000Y-106500000D01*
D60*
X85950000Y-95325000D02*
X85950000Y-93150000D01*
X104950000Y-91900000D02*
X105000000Y-91950000D01*
D62*
X97050000Y-105860000D02*
X97050000Y-106550000D01*
D60*
X110200000Y-106830000D02*
X110680000Y-106830000D01*
D62*
X117998200Y-95450000D02*
X117150000Y-95450000D01*
D60*
X104950000Y-91250000D02*
X104950000Y-90825000D01*
X124250000Y-111200000D02*
X126450000Y-109000000D01*
X102750000Y-90250000D02*
X102750000Y-90000000D01*
X97650000Y-90350000D02*
X97600000Y-90400000D01*
X101812500Y-107360000D02*
X100811250Y-108361250D01*
X128460000Y-95730000D02*
X124280000Y-95730000D01*
X127100000Y-91600000D02*
X127300000Y-91600000D01*
X124250000Y-88800000D02*
X125050000Y-88000000D01*
D62*
X97340000Y-96805000D02*
X97340000Y-98386666D01*
X102400000Y-98600000D02*
X101512500Y-98600000D01*
D60*
X87750000Y-117250000D02*
X87750000Y-110850000D01*
X100450000Y-108050000D02*
X100761250Y-108361250D01*
X123365000Y-96800000D02*
X123365000Y-96645000D01*
X124280000Y-104370000D02*
X128460000Y-104370000D01*
X126450000Y-109000000D02*
X126450000Y-108300000D01*
X106025001Y-86850001D02*
X107875000Y-88700000D01*
X110800000Y-99650000D02*
X111343600Y-99650000D01*
X100411250Y-108761250D02*
X99961250Y-109211250D01*
D62*
X99300000Y-106550000D02*
X100110000Y-107360000D01*
X89509937Y-101543271D02*
X89116666Y-101150000D01*
D60*
X103500000Y-91250000D02*
X103500000Y-90975000D01*
D62*
X91010315Y-97601300D02*
X91010315Y-98473017D01*
X91010315Y-98473017D02*
X90533332Y-98950000D01*
X97340000Y-98386666D02*
X97340000Y-99968332D01*
D60*
X101812500Y-107360000D02*
X103525000Y-107360000D01*
X128460000Y-104370000D02*
X128460000Y-95730000D01*
D62*
X87350189Y-99299811D02*
X87700000Y-98950000D01*
D61*
X113580000Y-102430000D02*
X113600000Y-102450000D01*
D60*
X127300000Y-91600000D02*
X127300000Y-90700000D01*
X99475000Y-112225000D02*
X99450000Y-112200000D01*
D63*
X106575000Y-81250000D02*
X106700000Y-81125000D01*
D60*
X108475000Y-88100000D02*
X107875000Y-88700000D01*
D62*
X98300000Y-101584166D02*
X98300000Y-103200000D01*
D60*
X97600000Y-90400000D02*
X98400000Y-90400000D01*
X99050000Y-110650000D02*
X99000000Y-110700000D01*
X100811250Y-108361250D02*
X100411250Y-108761250D01*
X118250000Y-102500000D02*
X117200000Y-102500000D01*
X125050000Y-88000000D02*
X125050000Y-85550000D01*
D62*
X119399100Y-95450000D02*
X119399100Y-94799100D01*
X97340000Y-94340000D02*
X97475000Y-94205000D01*
X117998200Y-95450000D02*
X119399100Y-95450000D01*
D60*
X108900000Y-88100000D02*
X108475000Y-88100000D01*
X119000000Y-104900000D02*
X117975000Y-104900000D01*
X101550000Y-92000000D02*
X101600000Y-91950000D01*
X99500000Y-111275000D02*
X100450000Y-112225000D01*
X100000000Y-108450000D02*
X100311250Y-108761250D01*
D62*
X114845999Y-94504001D02*
X114150000Y-95200000D01*
D60*
X107400000Y-113950000D02*
X106250000Y-113950000D01*
D62*
X96940000Y-95460000D02*
X96900000Y-95500000D01*
D61*
X112600000Y-103050000D02*
X113000000Y-103050000D01*
D62*
X100110000Y-107360000D02*
X101812500Y-107360000D01*
D60*
X103350000Y-91950000D02*
X105000000Y-91950000D01*
D64*
X106700000Y-81125000D02*
X112975000Y-81125000D01*
D60*
X123365000Y-96645000D02*
X124280000Y-95730000D01*
X99961250Y-109211250D02*
X99500000Y-109672500D01*
X86500000Y-92650000D02*
X85950000Y-93200000D01*
X87850000Y-85250000D02*
X87750000Y-85150000D01*
X125050000Y-85550000D02*
X122250000Y-82750000D01*
X107400000Y-113950000D02*
X107400000Y-113150000D01*
D64*
X105565000Y-81125000D02*
X106700000Y-81125000D01*
D62*
X87350189Y-100800189D02*
X87700000Y-101150000D01*
D60*
X100761250Y-108361250D02*
X100811250Y-108361250D01*
X102850000Y-90000000D02*
X102700000Y-90000000D01*
X103075000Y-89775000D02*
X102850000Y-90000000D01*
D61*
X113000000Y-103050000D02*
X113600000Y-102450000D01*
D60*
X97650000Y-89600000D02*
X97650000Y-90350000D01*
X99500000Y-110650000D02*
X99050000Y-110650000D01*
X127300000Y-108300000D02*
X127300000Y-107350000D01*
X99500000Y-109900000D02*
X99500000Y-110650000D01*
D62*
X97340000Y-95460000D02*
X97340000Y-94340000D01*
D60*
X85950000Y-93150000D02*
X85450000Y-92650000D01*
D62*
%TO.N,+1V1*%
X101512500Y-100200000D02*
X102044975Y-100200000D01*
X111800000Y-101400000D02*
X112220000Y-101400000D01*
X109590000Y-99400000D02*
X109840000Y-99650000D01*
X101512500Y-100200000D02*
X98531668Y-100200000D01*
X106850000Y-101500000D02*
X106900000Y-101450000D01*
X103050000Y-101205025D02*
X103050000Y-101500000D01*
X112220000Y-101400000D02*
X112620000Y-101800000D01*
X103050000Y-101500000D02*
X106850000Y-101500000D01*
X102044975Y-100200000D02*
X103050000Y-101205025D01*
X106900000Y-101450000D02*
X106900000Y-99400000D01*
X98531668Y-100200000D02*
X98300000Y-99968332D01*
X108387500Y-99400000D02*
X109590000Y-99400000D01*
X108387500Y-101400000D02*
X111800000Y-101400000D01*
X106900000Y-99400000D02*
X108387500Y-99400000D01*
%TO.N,XIN*%
X99450000Y-90400000D02*
X100670000Y-90400000D01*
X100390000Y-91340000D02*
X100390000Y-92760000D01*
X100670000Y-90400000D02*
X100825000Y-90245000D01*
X99450000Y-98300000D02*
X100150000Y-99000000D01*
X99450000Y-90400000D02*
X100390000Y-91340000D01*
X99450000Y-93700000D02*
X99450000Y-98300000D01*
X100390000Y-92760000D02*
X99450000Y-93700000D01*
X100150000Y-99000000D02*
X101512500Y-99000000D01*
%TO.N,3V3_BUCK*%
X111170000Y-105870000D02*
X112380000Y-105870000D01*
D60*
X103850000Y-106400000D02*
X101812500Y-106400000D01*
D61*
X106700000Y-91450000D02*
X107111459Y-91038541D01*
D62*
X100475000Y-110650000D02*
X102500000Y-110650000D01*
D60*
X90925000Y-105825000D02*
X91400000Y-106300000D01*
D62*
X122050000Y-92450000D02*
X122150000Y-92550000D01*
X110175000Y-103050000D02*
X110175000Y-104550000D01*
X121700000Y-95700000D02*
X120990000Y-96410000D01*
X113000000Y-105250000D02*
X113150000Y-105250000D01*
D61*
X94650000Y-81300000D02*
X94950000Y-81000000D01*
D62*
X108387500Y-102200000D02*
X109600000Y-102200000D01*
X109600000Y-102200000D02*
X110175000Y-102775000D01*
X104150000Y-104907107D02*
X104150000Y-104492893D01*
X110180000Y-105850000D02*
X110200000Y-105870000D01*
D60*
X116550001Y-97295999D02*
X116845999Y-97295999D01*
D62*
X107550000Y-104800000D02*
X107550000Y-103037500D01*
X103510000Y-96932100D02*
X103095000Y-97347100D01*
X101812500Y-106400000D02*
X103525000Y-106400000D01*
D60*
X105610000Y-107360000D02*
X105290000Y-107360000D01*
D62*
X101512500Y-99800000D02*
X102450000Y-99800000D01*
X101812500Y-106400000D02*
X101199500Y-106400000D01*
D60*
X108850000Y-103750000D02*
X108850000Y-104550000D01*
X115700000Y-86000000D02*
X115100000Y-85400000D01*
D62*
X121700000Y-90650000D02*
X121700000Y-91500000D01*
D60*
X106290000Y-106740000D02*
X106200000Y-106650000D01*
D62*
X103400000Y-94134314D02*
X103950000Y-94684315D01*
X121700000Y-94350000D02*
X121950000Y-94350000D01*
X103800000Y-105257107D02*
X104150000Y-104907107D01*
D60*
X117023000Y-96823000D02*
X117538541Y-97338541D01*
D62*
X115325000Y-102125000D02*
X115600000Y-101850001D01*
X121700000Y-90650000D02*
X122150000Y-90650000D01*
X121700000Y-89358623D02*
X121700000Y-89900000D01*
D60*
X112250000Y-87720000D02*
X113500000Y-87720000D01*
D62*
X119399100Y-96410000D02*
X119399100Y-96850900D01*
X110200000Y-105870000D02*
X111170000Y-105870000D01*
X100450000Y-110675000D02*
X100475000Y-110650000D01*
X121700000Y-91500000D02*
X121700000Y-92450000D01*
D60*
X103900000Y-110650000D02*
X102500000Y-110650000D01*
X112250000Y-87720000D02*
X112250000Y-86800000D01*
X90300000Y-105825000D02*
X91075000Y-105825000D01*
D62*
X121700000Y-89900000D02*
X122200000Y-89900000D01*
X119399100Y-96410000D02*
X119399100Y-96949100D01*
D60*
X105237500Y-107360000D02*
X104277500Y-106400000D01*
X108600000Y-105850000D02*
X108550000Y-105850000D01*
D62*
X113000000Y-105250000D02*
X113650000Y-104600000D01*
D61*
X107950000Y-92750000D02*
X108450500Y-93250500D01*
D60*
X88550000Y-105850000D02*
X88550000Y-106700000D01*
D62*
X114100000Y-104150000D02*
X114100000Y-104200000D01*
D60*
X117023000Y-96823000D02*
X116550001Y-97295999D01*
D62*
X104150000Y-104492893D02*
X103950000Y-104292893D01*
X121200000Y-88858623D02*
X121700000Y-89358623D01*
X121700000Y-89900000D02*
X121700000Y-90650000D01*
X121700000Y-93500000D02*
X121700000Y-94350000D01*
X122677500Y-87350000D02*
X122677500Y-86727500D01*
D60*
X105250000Y-109300000D02*
X103900000Y-110650000D01*
D62*
X114450000Y-103800000D02*
X114450000Y-103000000D01*
D60*
X117998200Y-96410000D02*
X117436000Y-96410000D01*
D62*
X111170000Y-105520000D02*
X111170000Y-105870000D01*
X120800000Y-96410000D02*
X120800000Y-96950000D01*
D61*
X106500000Y-91300000D02*
X106700000Y-91500000D01*
D62*
X102500000Y-110650000D02*
X102500000Y-110250000D01*
X115600000Y-101850001D02*
X116150000Y-101850001D01*
X114100000Y-104150000D02*
X114450000Y-103800000D01*
X119399100Y-96949100D02*
X119650000Y-97200000D01*
D60*
X115700000Y-84600000D02*
X115100000Y-85200000D01*
X106290000Y-107360000D02*
X106290000Y-106740000D01*
D61*
X94650000Y-82950000D02*
X94650000Y-81300000D01*
D60*
X90300000Y-105825000D02*
X90925000Y-105825000D01*
D62*
X112380000Y-105870000D02*
X112575000Y-105675000D01*
X121700000Y-92450000D02*
X122050000Y-92450000D01*
D61*
X102620000Y-92910000D02*
X105685614Y-92910000D01*
D60*
X105760000Y-107360000D02*
X105610000Y-107360000D01*
D62*
X120800000Y-96950000D02*
X120500000Y-97250000D01*
X114550000Y-102150000D02*
X114925000Y-102525000D01*
D60*
X117436000Y-96410000D02*
X117023000Y-96823000D01*
D62*
X107500000Y-99800000D02*
X107400000Y-99900000D01*
X104190000Y-92910000D02*
X103400000Y-93700000D01*
X99713334Y-99800000D02*
X98300000Y-98386666D01*
X108387500Y-99800000D02*
X107500000Y-99800000D01*
D61*
X107225000Y-92025000D02*
X107600000Y-92400000D01*
D62*
X113150000Y-105250000D02*
X113388541Y-105488541D01*
D60*
X108850000Y-104550000D02*
X108850000Y-105600000D01*
D62*
X121200000Y-88858623D02*
X120808623Y-88858623D01*
D61*
X106700000Y-91500000D02*
X106700000Y-91450000D01*
D62*
X100450000Y-110675000D02*
X100450000Y-109750000D01*
X121200000Y-88000000D02*
X121200000Y-88858623D01*
X103950000Y-94684315D02*
X103950000Y-96162500D01*
D60*
X117538541Y-97338541D02*
X117788541Y-97338541D01*
X106290000Y-107360000D02*
X105760000Y-107360000D01*
D61*
X105884386Y-92910000D02*
X106460000Y-92334386D01*
D62*
X107550000Y-103037500D02*
X107550000Y-102250000D01*
X103400000Y-93700000D02*
X103400000Y-94134314D01*
X121750000Y-87350000D02*
X121200000Y-87900000D01*
D60*
X115100000Y-85200000D02*
X114700000Y-85200000D01*
X89009811Y-105390189D02*
X88550000Y-105850000D01*
D62*
X103550000Y-106000000D02*
X103800000Y-105750000D01*
X107600000Y-102200000D02*
X107450000Y-102050000D01*
D60*
X115100000Y-85400000D02*
X115100000Y-85200000D01*
X114287500Y-85200000D02*
X114287500Y-86012500D01*
D61*
X108450500Y-95412000D02*
X107700000Y-96162500D01*
D62*
X112575000Y-105675000D02*
X113000000Y-105250000D01*
X107450000Y-102050000D02*
X107450000Y-101800000D01*
X103525000Y-106400000D02*
X103525000Y-106037500D01*
D60*
X89009811Y-102498700D02*
X89009811Y-105390189D01*
D62*
X119399100Y-96850900D02*
X119050000Y-97200000D01*
X98300000Y-98386666D02*
X98300000Y-96805000D01*
X114988541Y-101688541D02*
X114988541Y-101788541D01*
D61*
X107750000Y-92250000D02*
X107600000Y-92400000D01*
D60*
X108550000Y-105850000D02*
X107040000Y-107360000D01*
D62*
X114925000Y-102525000D02*
X115325000Y-102125000D01*
X108387500Y-102200000D02*
X107600000Y-102200000D01*
X107400000Y-100150000D02*
X107450000Y-100200000D01*
X103950000Y-96162500D02*
X103950000Y-96932100D01*
D61*
X106460000Y-92334386D02*
X106460000Y-91260000D01*
D62*
X114988541Y-101788541D02*
X115325000Y-102125000D01*
X108600000Y-105850000D02*
X110180000Y-105850000D01*
D60*
X116845999Y-97295999D02*
X117350000Y-97800000D01*
X108850000Y-102950000D02*
X108850000Y-103750000D01*
D62*
X121950000Y-94350000D02*
X122150000Y-94150000D01*
X114100000Y-104200000D02*
X114388541Y-104488541D01*
X114450000Y-103000000D02*
X114925000Y-102525000D01*
X105799500Y-108300000D02*
X105787000Y-108287500D01*
X110175000Y-102275000D02*
X110175000Y-103050000D01*
D61*
X107750000Y-91450000D02*
X107750000Y-92250000D01*
D62*
X107160000Y-107360000D02*
X107400000Y-107600000D01*
D61*
X105700000Y-92910000D02*
X105884386Y-92910000D01*
D62*
X109700000Y-101800000D02*
X110175000Y-102275000D01*
D61*
X107950000Y-92750000D02*
X107561459Y-93138541D01*
D60*
X113500000Y-87720000D02*
X113500000Y-86800000D01*
X108850000Y-105600000D02*
X108600000Y-105850000D01*
D62*
X108387500Y-101800000D02*
X109700000Y-101800000D01*
X122677500Y-86727500D02*
X122650000Y-86700000D01*
X107450000Y-101800000D02*
X108387500Y-101800000D01*
X108387500Y-100200000D02*
X107450000Y-100200000D01*
D60*
X115100000Y-86500000D02*
X115100000Y-85400000D01*
X104277500Y-106400000D02*
X103850000Y-106400000D01*
D62*
X107400000Y-99900000D02*
X107400000Y-100150000D01*
X108600000Y-105850000D02*
X107550000Y-104800000D01*
D61*
X107600000Y-92400000D02*
X107950000Y-92750000D01*
D62*
X107450000Y-100200000D02*
X107450000Y-101800000D01*
X103950000Y-96932100D02*
X103510000Y-96932100D01*
X110175000Y-102775000D02*
X110175000Y-103050000D01*
X120990000Y-96410000D02*
X120800000Y-96410000D01*
D60*
X114700000Y-85200000D02*
X114287500Y-85200000D01*
D62*
X103800000Y-105750000D02*
X103800000Y-105257107D01*
X121700000Y-93500000D02*
X122000000Y-93500000D01*
X102500000Y-110250000D02*
X103000000Y-109750000D01*
X101512500Y-99800000D02*
X99713334Y-99800000D01*
X121200000Y-88000000D02*
X120750000Y-88000000D01*
D61*
X107400000Y-92400000D02*
X107100000Y-92700000D01*
D62*
X120808623Y-88858623D02*
X120750000Y-88800000D01*
X103950000Y-104292893D02*
X103950000Y-103037500D01*
X121700000Y-94350000D02*
X121700000Y-95700000D01*
X110175000Y-104550000D02*
X110175000Y-105845000D01*
X107550000Y-102250000D02*
X107600000Y-102200000D01*
D60*
X105610000Y-107360000D02*
X105237500Y-107360000D01*
X120800000Y-96410000D02*
X117998200Y-96410000D01*
D61*
X106700000Y-91500000D02*
X107225000Y-92025000D01*
D62*
X113650000Y-104600000D02*
X113950000Y-104900000D01*
D61*
X107600000Y-92400000D02*
X107400000Y-92400000D01*
D62*
X122150000Y-90650000D02*
X122200000Y-90700000D01*
D60*
X89009811Y-105390189D02*
X89865189Y-105390189D01*
X103850000Y-106400000D02*
X103525000Y-106400000D01*
D62*
X113950000Y-104900000D02*
X113950000Y-104950000D01*
X104190000Y-92910000D02*
X105700000Y-92910000D01*
D60*
X89865189Y-105390189D02*
X90300000Y-105825000D01*
X107040000Y-107360000D02*
X106290000Y-107360000D01*
D62*
X105787000Y-108287500D02*
X105237500Y-108287500D01*
D60*
X114287500Y-86012500D02*
X113500000Y-86800000D01*
D62*
X110175000Y-105845000D02*
X110200000Y-105870000D01*
X101199500Y-106400000D02*
X101050000Y-106549500D01*
X120800000Y-96950000D02*
X121100000Y-97250000D01*
D60*
X105250000Y-107400000D02*
X105250000Y-109300000D01*
D62*
X102500000Y-110150000D02*
X102100000Y-109750000D01*
X122000000Y-93500000D02*
X122150000Y-93350000D01*
X121700000Y-92450000D02*
X121700000Y-93500000D01*
X121700000Y-91500000D02*
X122200000Y-91500000D01*
X103950000Y-96932100D02*
X104365000Y-97347100D01*
D60*
X115700000Y-85200000D02*
X114700000Y-85200000D01*
D62*
X113650000Y-104600000D02*
X114100000Y-104150000D01*
D61*
X108450500Y-93250500D02*
X108450500Y-95412000D01*
D62*
X122677500Y-87350000D02*
X121750000Y-87350000D01*
D60*
X105290000Y-107360000D02*
X105250000Y-107400000D01*
D61*
X106225000Y-91025000D02*
X106650000Y-90600000D01*
X106450000Y-91250000D02*
X106225000Y-91025000D01*
D62*
X102500000Y-110650000D02*
X102500000Y-110150000D01*
X121200000Y-87900000D02*
X121200000Y-88000000D01*
D60*
X91075000Y-105825000D02*
X91400000Y-105500000D01*
D63*
%TO.N,ALIM*%
X103625000Y-83100000D02*
X103625000Y-85325000D01*
D64*
X87853259Y-97288700D02*
X88009559Y-97445000D01*
X87625000Y-93800000D02*
X87500000Y-93675000D01*
X89100000Y-93800000D02*
X87625000Y-93800000D01*
X87853259Y-95678259D02*
X87853259Y-97288700D01*
D63*
X103947600Y-85647600D02*
X103949900Y-85647600D01*
D64*
X96306386Y-90125661D02*
X94632047Y-91800000D01*
X87500000Y-95325000D02*
X87853259Y-95678259D01*
X91100000Y-91800000D02*
X89100000Y-93800000D01*
X103225000Y-82700000D02*
X103625000Y-83100000D01*
X94632047Y-91800000D02*
X91100000Y-91800000D01*
X87500000Y-93675000D02*
X87500000Y-95325000D01*
X96306386Y-90125661D02*
X96306386Y-84400111D01*
D63*
X103625000Y-85325000D02*
X103947600Y-85647600D01*
D64*
X98006497Y-82700000D02*
X103225000Y-82700000D01*
X96306386Y-84400111D02*
X98006497Y-82700000D01*
D60*
%TO.N,V_USB*%
X113000000Y-107700000D02*
X112600000Y-107300000D01*
X112900000Y-107700000D02*
X112600000Y-108000000D01*
X113712500Y-107700000D02*
X112900000Y-107700000D01*
X113712500Y-107700000D02*
X113700000Y-107712500D01*
X113700000Y-113750000D02*
X112150000Y-115300000D01*
X109000000Y-118450000D02*
X112150000Y-115300000D01*
X112150000Y-115300000D02*
X119000000Y-115300000D01*
X115400000Y-104900000D02*
X116425000Y-104900000D01*
X116150000Y-102500000D02*
X115599999Y-102500000D01*
X113700000Y-107712500D02*
X113700000Y-113750000D01*
X115300000Y-102799999D02*
X115300000Y-104800000D01*
X115599999Y-102500000D02*
X115300000Y-102799999D01*
X113712500Y-106587500D02*
X113712500Y-107700000D01*
X115400000Y-104900000D02*
X113712500Y-106587500D01*
X119000000Y-115300000D02*
X121600000Y-112700000D01*
X113712500Y-107700000D02*
X113000000Y-107700000D01*
X121600000Y-112700000D02*
X122940000Y-112700000D01*
X118250000Y-101850001D02*
X119300000Y-101850000D01*
X118250000Y-101850001D02*
X118250000Y-100800000D01*
X115300000Y-104800000D02*
X115400000Y-104900000D01*
%TO.N,DRV_BUCK_OUT*%
X95400000Y-93025000D02*
X95350000Y-92975000D01*
X92650000Y-96500000D02*
X93700000Y-95450000D01*
X91510441Y-96870027D02*
X91880468Y-96500000D01*
X95150000Y-95450000D02*
X95400000Y-95200000D01*
X93700000Y-95450000D02*
X95150000Y-95450000D01*
X95400000Y-95200000D02*
X95400000Y-94625000D01*
X91880468Y-96500000D02*
X92650000Y-96500000D01*
D62*
X86950000Y-89900000D02*
X88550000Y-89900000D01*
D60*
X95400000Y-94625000D02*
X95400000Y-93025000D01*
X91510441Y-97601300D02*
X91510441Y-96870027D01*
%TO.N,/CP*%
X89009811Y-95440189D02*
X89100000Y-95350000D01*
X89009811Y-97601300D02*
X89009811Y-95440189D01*
D62*
%TO.N,Current_A*%
X93212000Y-97088000D02*
X93212000Y-98299559D01*
X94500000Y-96200500D02*
X94099500Y-96200500D01*
X93650000Y-105170000D02*
X93750000Y-105270000D01*
X93650000Y-104450000D02*
X93650000Y-105170000D01*
X94800000Y-105270000D02*
X94850000Y-105220000D01*
X93750000Y-105270000D02*
X94800000Y-105270000D01*
X94099500Y-96200500D02*
X93212000Y-97088000D01*
%TO.N,Current_B*%
X94500500Y-97199500D02*
X94018744Y-97681256D01*
X94018744Y-98624214D02*
X93843273Y-98799685D01*
X95950000Y-104450000D02*
X95950000Y-105270000D01*
X93843273Y-98799685D02*
X93212000Y-98799685D01*
X94018744Y-97681256D02*
X94018744Y-98624214D01*
X97000000Y-105270000D02*
X97050000Y-105220000D01*
X95950000Y-105270000D02*
X97000000Y-105270000D01*
%TO.N,Current_C*%
X94100189Y-99299811D02*
X94518744Y-98881256D01*
X98500000Y-104350000D02*
X98500000Y-104920000D01*
X99200000Y-105270000D02*
X99250000Y-105220000D01*
X98150000Y-105270000D02*
X99200000Y-105270000D01*
X98500000Y-104920000D02*
X98150000Y-105270000D01*
X93212000Y-99299811D02*
X94100189Y-99299811D01*
X94518744Y-98881256D02*
X94518744Y-97968744D01*
%TO.N,VREF*%
X97340000Y-103200000D02*
X97990000Y-103850000D01*
X107150000Y-105041516D02*
X107150000Y-103037500D01*
X93212000Y-99799937D02*
X95555771Y-99799937D01*
X97990000Y-103850000D02*
X99200000Y-103850000D01*
X107746800Y-105638316D02*
X107150000Y-105041516D01*
X97340000Y-101584166D02*
X97340000Y-103200000D01*
X107746800Y-105703200D02*
X107746800Y-105638316D01*
X95555771Y-99799937D02*
X97340000Y-101584166D01*
D60*
%TO.N,DOUT*%
X109215000Y-114750000D02*
X103300000Y-114750000D01*
X110400000Y-113565000D02*
X109215000Y-114750000D01*
X103300000Y-114750000D02*
X102500000Y-113950000D01*
D62*
%TO.N,GPIO25*%
X101200000Y-113150000D02*
X100900000Y-113450000D01*
X105050000Y-110650000D02*
X102550000Y-113150000D01*
X100900000Y-115250000D02*
X102200000Y-116550000D01*
X102200000Y-116550000D02*
X104560000Y-116550000D01*
X105550000Y-104116068D02*
X105416068Y-104250000D01*
X107400000Y-109150000D02*
X107400000Y-110650000D01*
X102550000Y-113150000D02*
X101200000Y-113150000D01*
X104560000Y-116550000D02*
X106460000Y-118450000D01*
X107400000Y-110650000D02*
X105050000Y-110650000D01*
X105550000Y-103037500D02*
X105550000Y-104116068D01*
X100900000Y-113450000D02*
X100900000Y-115250000D01*
D64*
%TO.N,OUTA*%
X85649559Y-98299559D02*
X86164400Y-98299559D01*
X82440000Y-95090000D02*
X85649559Y-98299559D01*
X82440000Y-95030000D02*
X82440000Y-95090000D01*
%TO.N,OUTB*%
X81740000Y-100030000D02*
X85070000Y-100030000D01*
D60*
X86308000Y-99799937D02*
X85300063Y-99799937D01*
X86308000Y-99799937D02*
X86308000Y-100300063D01*
X86308000Y-100300063D02*
X85340063Y-100300063D01*
X85300063Y-99799937D02*
X85070000Y-100030000D01*
X85340063Y-100300063D02*
X85070000Y-100030000D01*
D64*
%TO.N,OUTC*%
X82620000Y-105310000D02*
X82798441Y-105310000D01*
X86164400Y-101944041D02*
X86164400Y-101800441D01*
X82798441Y-105310000D02*
X86164400Y-101944041D01*
D62*
%TO.N,USB_D+*%
X122252499Y-99325000D02*
X122277499Y-99300000D01*
X113943603Y-99500000D02*
X114118603Y-99325000D01*
X123365000Y-99300000D02*
X124400000Y-99300000D01*
X124650000Y-99550000D02*
X124650000Y-100100000D01*
X122277499Y-99300000D02*
X123365000Y-99300000D01*
X124450000Y-100300000D02*
X123365000Y-100300000D01*
X124650000Y-100100000D02*
X124450000Y-100300000D01*
X124400000Y-99300000D02*
X124650000Y-99550000D01*
X113580000Y-99500000D02*
X113943603Y-99500000D01*
X114118603Y-99325000D02*
X122252499Y-99325000D01*
%TO.N,USB_D-*%
X123365000Y-100800000D02*
X122250000Y-100800000D01*
X121775000Y-100325000D02*
X121775000Y-99775000D01*
X122277499Y-99800000D02*
X123365000Y-99800000D01*
X114305000Y-99775000D02*
X121775000Y-99775000D01*
X122250000Y-100800000D02*
X121775000Y-100325000D01*
X113580000Y-100500000D02*
X114305000Y-99775000D01*
X121775000Y-99775000D02*
X122252499Y-99775000D01*
X122252499Y-99775000D02*
X122277499Y-99800000D01*
%TO.N,GPIO24*%
X105150000Y-103037500D02*
X105150000Y-103808961D01*
X105150000Y-103808961D02*
X104850000Y-104108961D01*
X104850000Y-104694140D02*
X104811518Y-104732622D01*
X104850000Y-104108961D02*
X104850000Y-104694140D01*
%TO.N,GPIO22*%
X104350000Y-103037500D02*
X104350000Y-104127207D01*
X104350000Y-104127207D02*
X104361397Y-104138604D01*
%TO.N,GPIO9*%
X102150000Y-94184314D02*
X103150000Y-95184314D01*
X103150000Y-95184314D02*
X103150000Y-96162500D01*
X102150000Y-93650000D02*
X102150000Y-94184314D01*
%TO.N,GPIO3*%
X105950000Y-94315685D02*
X105950000Y-96162500D01*
X106349006Y-93916679D02*
X105950000Y-94315685D01*
X106349006Y-93600000D02*
X106349006Y-93916679D01*
%TO.N,GPIO2*%
X106350000Y-94481371D02*
X106350000Y-96162500D01*
X106950000Y-93600000D02*
X106950000Y-93881371D01*
X106950000Y-93881371D02*
X106350000Y-94481371D01*
%TO.N,GPIO20*%
X103033932Y-104850000D02*
X103150000Y-104733932D01*
X103150000Y-104733932D02*
X103150000Y-103037500D01*
%TO.N,GPIO21*%
X103550000Y-103037500D02*
X103550000Y-104600000D01*
X103550000Y-104600000D02*
X103650000Y-104700000D01*
%TO.N,SWD*%
X101512500Y-101000000D02*
X100199500Y-101000000D01*
X100199500Y-101000000D02*
X100100000Y-101099500D01*
%TO.N,SWCLK*%
X98994680Y-100600000D02*
X98895180Y-100699500D01*
X101512500Y-100600000D02*
X98994680Y-100600000D01*
%TO.N,UART_TX*%
X107150000Y-95600500D02*
X107150000Y-96162500D01*
X107800500Y-94950000D02*
X107150000Y-95600500D01*
%TO.N,UART_RX*%
X106750000Y-95293393D02*
X106750000Y-96162500D01*
X107693393Y-94350000D02*
X106750000Y-95293393D01*
X107800500Y-94350000D02*
X107693393Y-94350000D01*
D64*
%TO.N,/VM*%
X107890000Y-78450000D02*
X113350000Y-78450000D01*
X113350000Y-78450000D02*
X114300000Y-79400000D01*
D62*
%TO.N,/D+*%
X112200000Y-99500000D02*
X111100000Y-100600000D01*
X111100000Y-100600000D02*
X108387500Y-100600000D01*
X112620000Y-99500000D02*
X112200000Y-99500000D01*
%TO.N,/D-*%
X111300000Y-101000000D02*
X111800000Y-100500000D01*
X111800000Y-100500000D02*
X112620000Y-100500000D01*
X108387500Y-101000000D02*
X111300000Y-101000000D01*
%TO.N,XOUT*%
X99879020Y-99400000D02*
X101512500Y-99400000D01*
X98880000Y-94310000D02*
X98880000Y-98400980D01*
X98880000Y-98400980D02*
X99879020Y-99400000D01*
X98775000Y-94205000D02*
X98880000Y-94310000D01*
%TO.N,Net-(R4-Pad1)*%
X118600000Y-91620000D02*
X120255968Y-91620000D01*
X120255968Y-91620000D02*
X120262500Y-91613468D01*
%TO.N,QSPI_SS*%
X108387500Y-97000000D02*
X110856915Y-97000000D01*
X120800000Y-95450000D02*
X119150000Y-93800000D01*
X116550001Y-94504001D02*
X118445999Y-94504001D01*
X116000002Y-93400002D02*
X116550001Y-93950001D01*
X118600000Y-93250000D02*
X118600000Y-92580000D01*
X119150000Y-93800000D02*
X118600000Y-93250000D01*
X114456913Y-93400002D02*
X116000002Y-93400002D01*
X116550001Y-93950001D02*
X116550001Y-94504001D01*
X118445999Y-94504001D02*
X119150000Y-93800000D01*
X110856915Y-97000000D02*
X114456913Y-93400002D01*
%TO.N,Net-(R9-Pad1)*%
X120262500Y-108313468D02*
X118616532Y-108313468D01*
X118616532Y-108313468D02*
X118600000Y-108330000D01*
%TO.N,RUN*%
X101512500Y-101400000D02*
X102450000Y-101400000D01*
X118600000Y-106650000D02*
X118600000Y-107370000D01*
D60*
%TO.N,/SW_BK*%
X92375000Y-96000000D02*
X93750000Y-94625000D01*
X90510189Y-97601300D02*
X90510189Y-96870027D01*
X90510189Y-96870027D02*
X91380216Y-96000000D01*
X91380216Y-96000000D02*
X92375000Y-96000000D01*
D62*
%TO.N,nFAULT*%
X87550000Y-105810000D02*
X87590000Y-105850000D01*
X103920972Y-93885429D02*
X104350000Y-94314457D01*
X104350000Y-94314457D02*
X104350000Y-96162500D01*
X87509433Y-102498700D02*
X87509433Y-103959433D01*
X87509433Y-103959433D02*
X87550000Y-104000000D01*
X87550000Y-104000000D02*
X87550000Y-105810000D01*
%TO.N,I2C_SDA*%
X105550000Y-96162500D02*
X105550000Y-94150000D01*
X105550000Y-94150000D02*
X105749503Y-93950497D01*
D60*
X113500000Y-88680000D02*
X113500000Y-89550000D01*
D62*
X105749503Y-93950497D02*
X105749503Y-93600000D01*
%TO.N,I2C_SCL*%
X105150000Y-93600000D02*
X105150000Y-96162500D01*
D60*
X112250000Y-88680000D02*
X112250000Y-89500000D01*
D62*
%TO.N,nSLEEP*%
X104750000Y-94148771D02*
X104750000Y-96162500D01*
X104465239Y-93864010D02*
X104750000Y-94148771D01*
X104465239Y-93579137D02*
X104465239Y-93864010D01*
X88009559Y-102498700D02*
X88009559Y-103609559D01*
X88150000Y-103999503D02*
X88149503Y-104000000D01*
X88150000Y-103750000D02*
X88150000Y-103999503D01*
X88009559Y-103609559D02*
X88150000Y-103750000D01*
%TO.N,DRVOFF*%
X103550000Y-94850000D02*
X103550000Y-96162500D01*
X102750000Y-94049999D02*
X103550000Y-94850000D01*
X102750000Y-93650000D02*
X102750000Y-94049999D01*
X87009307Y-102498700D02*
X87009307Y-103941190D01*
X87009307Y-103941190D02*
X86950497Y-104000000D01*
%TO.N,INLC*%
X101550000Y-93650000D02*
X101550000Y-94150000D01*
X92797484Y-104531798D02*
X92797484Y-104649205D01*
X92510693Y-104245007D02*
X92797484Y-104531798D01*
X101550000Y-94150000D02*
X102750000Y-95350000D01*
X102750000Y-95350000D02*
X102750000Y-96162500D01*
X92510693Y-102498700D02*
X92510693Y-104245007D01*
%TO.N,INHC*%
X101050000Y-93749503D02*
X101050000Y-94862500D01*
X101050000Y-94862500D02*
X102350000Y-96162500D01*
X92010567Y-102498700D02*
X92010567Y-104310567D01*
X100950497Y-93650000D02*
X101050000Y-93749503D01*
X92010567Y-104310567D02*
X92197984Y-104497984D01*
X92197984Y-104497984D02*
X92197984Y-104651131D01*
%TO.N,INLB*%
X101512500Y-97000000D02*
X100759053Y-97000000D01*
X99949500Y-96298051D02*
X100057104Y-96298051D01*
X100057104Y-96298051D02*
X100759053Y-97000000D01*
X91510441Y-104558492D02*
X91598499Y-104646550D01*
X91510441Y-102498700D02*
X91510441Y-104558492D01*
%TO.N,INHB*%
X100559550Y-97400000D02*
X100057104Y-96897554D01*
X100057104Y-96897554D02*
X99949500Y-96897554D01*
X91010315Y-102498700D02*
X91010315Y-104635231D01*
X101512500Y-97400000D02*
X100559550Y-97400000D01*
X91010315Y-104635231D02*
X90998996Y-104646550D01*
%TO.N,INLA*%
X90510189Y-102498700D02*
X90510189Y-104535854D01*
X100363507Y-97800000D02*
X100060564Y-97497057D01*
X101512500Y-97800000D02*
X100363507Y-97800000D01*
X90510189Y-104535854D02*
X90399493Y-104646550D01*
X100060564Y-97497057D02*
X99949500Y-97497057D01*
%TO.N,INHA*%
X90010063Y-102498700D02*
X90010063Y-104328873D01*
X100056400Y-98200000D02*
X99952950Y-98096550D01*
X101512500Y-98200000D02*
X100056400Y-98200000D01*
X90010063Y-104328873D02*
X89800000Y-104538936D01*
X89800000Y-104538936D02*
X89800000Y-104650000D01*
%TO.N,SPI_MISO*%
X99499503Y-101800000D02*
X99400000Y-101700497D01*
X95296358Y-101300315D02*
X95396550Y-101400507D01*
X93212000Y-101300315D02*
X95296358Y-101300315D01*
X101512500Y-101800000D02*
X99499503Y-101800000D01*
%TO.N,SPI_SS*%
X99500000Y-102200000D02*
X99400000Y-102300000D01*
X95297988Y-100300063D02*
X95394100Y-100203951D01*
X101512500Y-102200000D02*
X99500000Y-102200000D01*
X93212000Y-100300063D02*
X95297988Y-100300063D01*
%TO.N,SPI_SCK*%
X102250497Y-104200000D02*
X102142893Y-104200000D01*
X95395735Y-100800189D02*
X95396550Y-100801004D01*
X102350000Y-104100497D02*
X102250497Y-104200000D01*
X93212000Y-100800189D02*
X95395735Y-100800189D01*
X102350000Y-103037500D02*
X102350000Y-104100497D01*
X101750497Y-104592396D02*
X101750497Y-104700000D01*
X102142893Y-104200000D02*
X101750497Y-104592396D01*
%TO.N,SPI_MOSI*%
X102750000Y-104300000D02*
X102350000Y-104700000D01*
X95288936Y-102000000D02*
X95400000Y-102000000D01*
X102750000Y-103037500D02*
X102750000Y-104300000D01*
X93212000Y-101800441D02*
X94950441Y-101800441D01*
X94950441Y-101800441D02*
X94950882Y-101800000D01*
X94950882Y-101800000D02*
X95088936Y-101800000D01*
X95088936Y-101800000D02*
X95288936Y-102000000D01*
%TO.N,QSPI_SD3*%
X116050000Y-98150000D02*
X116050000Y-97295999D01*
X111600000Y-99000000D02*
X111700000Y-99100000D01*
X108387500Y-99000000D02*
X111600000Y-99000000D01*
%TO.N,QSPI_CLK*%
X115550000Y-97927397D02*
X115550000Y-97295999D01*
X108387500Y-98600000D02*
X114877397Y-98600000D01*
X114877397Y-98600000D02*
X115550000Y-97927397D01*
%TO.N,QSPI_SD0*%
X108387500Y-98200000D02*
X114145998Y-98200000D01*
X114145998Y-98200000D02*
X115049999Y-97295999D01*
%TO.N,QSPI_SD2*%
X115492000Y-95208000D02*
X115550000Y-95150000D01*
X115550000Y-95150000D02*
X115550000Y-94504001D01*
X112398300Y-97800000D02*
X114990300Y-95208000D01*
X114990300Y-95208000D02*
X115492000Y-95208000D01*
X108387500Y-97800000D02*
X112398300Y-97800000D01*
%TO.N,QSPI_SD1*%
X108387500Y-97400000D02*
X111022601Y-97400000D01*
X115822603Y-93800002D02*
X116050000Y-94027399D01*
X116050000Y-94027399D02*
X116050000Y-94504001D01*
X114622599Y-93800002D02*
X115822603Y-93800002D01*
X111022601Y-97400000D02*
X114622599Y-93800002D01*
%TO.N,Net-(Y1-CRYSTAL_2)*%
X97475000Y-93245000D02*
X97475000Y-92075000D01*
X97475000Y-92075000D02*
X97600000Y-91950000D01*
X97475000Y-93245000D02*
X98775000Y-93245000D01*
D60*
%TO.N,Net-(U5-CPH)*%
X90675000Y-95063173D02*
X90675000Y-94650000D01*
X89509937Y-97601300D02*
X89509937Y-96228236D01*
X89509937Y-96228236D02*
X90675000Y-95063173D01*
%TO.N,Net-(U5-CPL)*%
X90947640Y-95497639D02*
X91897639Y-95497639D01*
X91897639Y-95497639D02*
X91900000Y-95500000D01*
X90010063Y-97601300D02*
X90010063Y-96435216D01*
X92225000Y-95175000D02*
X92225000Y-94650000D01*
X90010063Y-96435216D02*
X90947640Y-95497639D01*
X91900000Y-95500000D02*
X92225000Y-95175000D01*
D62*
%TO.N,Net-(U7-VCC)*%
X103949900Y-86350000D02*
X103343901Y-86350000D01*
X101675000Y-84681099D02*
X101675000Y-84300000D01*
X103343901Y-86350000D02*
X101675000Y-84681099D01*
D60*
%TO.N,FeedBack*%
X103949900Y-86850001D02*
X101724999Y-86850001D01*
D61*
X106325000Y-88700000D02*
X107250000Y-89625000D01*
X106325000Y-88700000D02*
X104375000Y-88700000D01*
X104300000Y-88625000D02*
X104300000Y-87200101D01*
X104027299Y-86927400D02*
X103949900Y-86927400D01*
X104300000Y-87200101D02*
X104027299Y-86927400D01*
X104375000Y-88700000D02*
X104300000Y-88625000D01*
X112712500Y-85200000D02*
X111500000Y-85200000D01*
X107250000Y-89625000D02*
X108475000Y-89625000D01*
D60*
X101724999Y-86850001D02*
X101675000Y-86900000D01*
D61*
X110700000Y-87400000D02*
X110700000Y-86000000D01*
X108475000Y-89625000D02*
X110700000Y-87400000D01*
X111500000Y-85200000D02*
X110700000Y-86000000D01*
D62*
%TO.N,Net-(D2-A)*%
X123637500Y-87350000D02*
X123637500Y-87512500D01*
X123637500Y-87512500D02*
X122350000Y-88800000D01*
%TO.N,Net-(D3-A)*%
X122675000Y-111200000D02*
X122675000Y-111475000D01*
X122675000Y-111475000D02*
X123900000Y-112700000D01*
D60*
%TO.N,Net-(F1-Pad1)*%
X121300000Y-102500000D02*
X123365000Y-102500000D01*
X117237500Y-105750000D02*
X119527818Y-105750000D01*
X126200000Y-99504596D02*
X126200000Y-100540000D01*
X120500000Y-104777818D02*
X120500000Y-103300000D01*
X120500000Y-103300000D02*
X121300000Y-102500000D01*
X119527818Y-105750000D02*
X120500000Y-104777818D01*
X123365000Y-97600000D02*
X124295404Y-97600000D01*
X124295404Y-97600000D02*
X126200000Y-99504596D01*
X126200000Y-100540000D02*
X124240000Y-102500000D01*
X115287500Y-107700000D02*
X117237500Y-105750000D01*
X124240000Y-102500000D02*
X123365000Y-102500000D01*
%TO.N,Net-(U7-LX)*%
X105850100Y-85349999D02*
X107249999Y-85349999D01*
X107249999Y-85349999D02*
X107900000Y-86000000D01*
D62*
%TO.N,Net-(U1-GPIO26_ADC0)*%
X105820133Y-105703200D02*
X105950000Y-105573333D01*
X93750000Y-106230000D02*
X93750000Y-107100000D01*
X105950000Y-105573333D02*
X105950000Y-103037500D01*
%TO.N,Net-(U1-GPIO27_ADC1)*%
X106419357Y-105703200D02*
X106462355Y-105703200D01*
X106419357Y-105781516D02*
X106419357Y-105624883D01*
X106462355Y-105703200D02*
X106350000Y-105590845D01*
X95950000Y-106230000D02*
X95950000Y-107100000D01*
X106350000Y-105590845D02*
X106350000Y-103037500D01*
%TO.N,Net-(U1-GPIO28_ADC2)*%
X107104577Y-105638315D02*
X106750000Y-105283738D01*
X98150000Y-106230000D02*
X98150000Y-107100000D01*
X106750000Y-105283738D02*
X106750000Y-103037500D01*
X107104577Y-105800000D02*
X107104577Y-105638315D01*
%TD*%
%TA.AperFunction,Conductor*%
%TO.N,ALIM*%
G36*
X105262590Y-75083360D02*
G01*
X105730262Y-75092742D01*
X105732467Y-75092807D01*
X106252482Y-75113006D01*
X106254904Y-75113126D01*
X106721764Y-75141255D01*
X106723902Y-75141402D01*
X107242801Y-75181775D01*
X107245536Y-75182019D01*
X107710496Y-75228810D01*
X107712465Y-75229024D01*
X108229866Y-75289562D01*
X108232630Y-75289918D01*
X108694778Y-75355240D01*
X108696589Y-75355509D01*
X109211896Y-75436185D01*
X109214899Y-75436694D01*
X109673296Y-75520361D01*
X109674838Y-75520654D01*
X110187350Y-75621412D01*
X110190527Y-75622080D01*
X110644313Y-75723866D01*
X110645476Y-75724134D01*
X111154911Y-75844999D01*
X111158139Y-75845812D01*
X111606175Y-75965369D01*
X111607189Y-75965645D01*
X112096846Y-76102095D01*
X112112773Y-76106534D01*
X112116294Y-76107570D01*
X112557236Y-76244399D01*
X112558229Y-76244712D01*
X112884687Y-76349500D01*
X113059693Y-76405674D01*
X113063323Y-76406900D01*
X113496122Y-76560486D01*
X113496790Y-76560727D01*
X113994208Y-76741971D01*
X113997825Y-76743354D01*
X114420921Y-76912896D01*
X114421052Y-76912949D01*
X114914649Y-77114831D01*
X114918414Y-77116444D01*
X115329371Y-77300579D01*
X115329550Y-77300659D01*
X115819735Y-77523730D01*
X115823582Y-77525562D01*
X115965820Y-77596275D01*
X116218816Y-77722051D01*
X116219325Y-77722305D01*
X116230600Y-77727974D01*
X116281256Y-77774424D01*
X116300000Y-77840546D01*
X116300000Y-83915736D01*
X116286948Y-83971582D01*
X116250496Y-84015858D01*
X116198195Y-84039391D01*
X116140882Y-84037306D01*
X116115782Y-84023738D01*
X116114398Y-84026376D01*
X116100853Y-84019267D01*
X116100852Y-84019266D01*
X115950225Y-83940210D01*
X115785056Y-83899500D01*
X115614944Y-83899500D01*
X115449775Y-83940210D01*
X115305641Y-84015858D01*
X115299148Y-84019266D01*
X115171817Y-84132070D01*
X115168415Y-84137000D01*
X115162493Y-84145578D01*
X115117354Y-84185568D01*
X115058799Y-84200000D01*
X111293393Y-84200000D01*
X111253760Y-84193604D01*
X111227800Y-84185001D01*
X111189251Y-84181063D01*
X111125009Y-84174500D01*
X111125004Y-84174500D01*
X110274995Y-84174500D01*
X110172200Y-84185001D01*
X110146241Y-84193604D01*
X110106608Y-84200000D01*
X108493393Y-84200000D01*
X108453760Y-84193604D01*
X108427800Y-84185001D01*
X108389251Y-84181063D01*
X108325009Y-84174500D01*
X108325004Y-84174500D01*
X107724455Y-84174500D01*
X107667089Y-84160683D01*
X107622304Y-84122264D01*
X107599921Y-84067667D01*
X107604851Y-84008867D01*
X107639998Y-83902800D01*
X107639997Y-83902800D01*
X107639999Y-83902797D01*
X107650500Y-83800009D01*
X107650499Y-82399992D01*
X107639999Y-82297203D01*
X107637987Y-82291131D01*
X107633059Y-82232331D01*
X107655441Y-82177735D01*
X107700226Y-82139316D01*
X107757592Y-82125500D01*
X112428540Y-82125500D01*
X112487606Y-82140202D01*
X112532888Y-82180878D01*
X112553818Y-82238034D01*
X112555908Y-82257481D01*
X112606204Y-82392331D01*
X112692453Y-82507546D01*
X112778702Y-82572112D01*
X112807669Y-82593796D01*
X112942517Y-82644091D01*
X113002127Y-82650500D01*
X113697872Y-82650499D01*
X113697874Y-82650499D01*
X113727677Y-82647294D01*
X113757483Y-82644091D01*
X113892331Y-82593796D01*
X114007546Y-82507546D01*
X114093796Y-82392331D01*
X114144091Y-82257483D01*
X114150500Y-82197873D01*
X114150499Y-82141541D01*
X114156765Y-82102302D01*
X114174939Y-82066967D01*
X114216649Y-82010167D01*
X114301605Y-81825268D01*
X114347602Y-81627054D01*
X114352757Y-81423637D01*
X114316858Y-81223347D01*
X114241377Y-81034383D01*
X114171289Y-80928038D01*
X114155809Y-80894900D01*
X114150499Y-80858706D01*
X114150499Y-80802125D01*
X114144091Y-80742518D01*
X114135891Y-80720531D01*
X114128929Y-80660796D01*
X114150448Y-80604638D01*
X114195545Y-80564851D01*
X114253947Y-80550499D01*
X114647875Y-80550499D01*
X114683638Y-80546654D01*
X114707483Y-80544091D01*
X114842331Y-80493796D01*
X114957546Y-80407546D01*
X115043796Y-80292331D01*
X115094091Y-80157483D01*
X115100500Y-80097873D01*
X115100499Y-80041541D01*
X115106765Y-80002302D01*
X115124939Y-79966967D01*
X115166649Y-79910167D01*
X115251605Y-79725268D01*
X115297603Y-79527054D01*
X115302757Y-79323637D01*
X115266858Y-79123347D01*
X115191377Y-78934383D01*
X115121289Y-78828038D01*
X115105809Y-78794900D01*
X115100499Y-78758706D01*
X115100499Y-78702125D01*
X115094904Y-78650079D01*
X115094091Y-78642517D01*
X115043796Y-78507669D01*
X115000625Y-78450000D01*
X114957546Y-78392453D01*
X114842331Y-78306204D01*
X114707483Y-78255909D01*
X114647873Y-78249500D01*
X114647872Y-78249500D01*
X114616610Y-78249500D01*
X114568392Y-78239909D01*
X114527515Y-78212595D01*
X114067602Y-77752682D01*
X114065373Y-77750397D01*
X114005056Y-77686944D01*
X113956708Y-77653293D01*
X113949062Y-77647529D01*
X113903405Y-77610300D01*
X113876555Y-77596275D01*
X113862915Y-77588011D01*
X113838049Y-77570704D01*
X113783915Y-77547473D01*
X113775270Y-77543368D01*
X113741069Y-77525504D01*
X113723049Y-77516091D01*
X113723046Y-77516090D01*
X113693924Y-77507756D01*
X113678906Y-77502409D01*
X113651059Y-77490460D01*
X113593349Y-77478599D01*
X113584054Y-77476318D01*
X113527416Y-77460112D01*
X113497201Y-77457811D01*
X113481412Y-77455596D01*
X113451744Y-77449500D01*
X113451741Y-77449500D01*
X113392832Y-77449500D01*
X113383265Y-77449136D01*
X113324523Y-77444662D01*
X113296099Y-77448283D01*
X113294473Y-77448490D01*
X113278556Y-77449500D01*
X109813938Y-77449500D01*
X109748471Y-77431157D01*
X109702065Y-77381469D01*
X109688899Y-77356060D01*
X109523191Y-77121304D01*
X109327054Y-76911292D01*
X109104147Y-76729945D01*
X108858623Y-76580638D01*
X108595058Y-76466156D01*
X108318352Y-76388627D01*
X108033681Y-76349500D01*
X108033678Y-76349500D01*
X107746322Y-76349500D01*
X107746319Y-76349500D01*
X107461647Y-76388627D01*
X107184941Y-76466156D01*
X106921376Y-76580638D01*
X106675852Y-76729945D01*
X106452945Y-76911292D01*
X106256812Y-77121300D01*
X106173955Y-77238682D01*
X106130205Y-77300664D01*
X106091098Y-77356066D01*
X105958896Y-77611201D01*
X105862666Y-77881966D01*
X105804201Y-78163318D01*
X105784592Y-78450000D01*
X105804201Y-78736681D01*
X105862666Y-79018033D01*
X105958896Y-79288798D01*
X106022758Y-79412045D01*
X106091099Y-79543936D01*
X106240725Y-79755909D01*
X106256812Y-79778699D01*
X106381771Y-79912498D01*
X106410538Y-79962852D01*
X106413705Y-80020756D01*
X106390601Y-80073946D01*
X106346121Y-80111155D01*
X106289686Y-80124500D01*
X106031611Y-80124500D01*
X105983393Y-80114909D01*
X105942516Y-80087595D01*
X104957811Y-79102890D01*
X104926177Y-79049856D01*
X104923541Y-78988160D01*
X104928779Y-78962954D01*
X104975798Y-78736686D01*
X104995408Y-78450000D01*
X104975798Y-78163314D01*
X104917334Y-77881968D01*
X104821104Y-77611203D01*
X104688901Y-77356064D01*
X104523189Y-77121302D01*
X104500296Y-77096790D01*
X104327054Y-76911292D01*
X104104147Y-76729945D01*
X103858623Y-76580638D01*
X103595058Y-76466156D01*
X103318352Y-76388627D01*
X103033681Y-76349500D01*
X103033678Y-76349500D01*
X102746322Y-76349500D01*
X102746319Y-76349500D01*
X102461647Y-76388627D01*
X102184941Y-76466156D01*
X101921376Y-76580638D01*
X101675852Y-76729945D01*
X101452945Y-76911292D01*
X101256812Y-77121300D01*
X101173955Y-77238682D01*
X101130205Y-77300664D01*
X101091098Y-77356066D01*
X100958896Y-77611201D01*
X100862666Y-77881966D01*
X100804201Y-78163318D01*
X100784592Y-78450000D01*
X100804201Y-78736681D01*
X100862666Y-79018033D01*
X100958896Y-79288798D01*
X101022758Y-79412045D01*
X101091099Y-79543936D01*
X101240725Y-79755909D01*
X101256812Y-79778699D01*
X101452945Y-79988707D01*
X101613913Y-80119663D01*
X101675853Y-80170055D01*
X101921375Y-80319361D01*
X102184942Y-80433844D01*
X102461642Y-80511371D01*
X102461644Y-80511371D01*
X102461647Y-80511372D01*
X102746319Y-80550500D01*
X102746322Y-80550500D01*
X103033678Y-80550500D01*
X103033681Y-80550500D01*
X103318353Y-80511372D01*
X103318355Y-80511371D01*
X103318358Y-80511371D01*
X103417747Y-80483522D01*
X103483656Y-80482959D01*
X103540834Y-80515755D01*
X104847414Y-81822335D01*
X104849643Y-81824620D01*
X104909941Y-81888053D01*
X104958299Y-81921711D01*
X104965926Y-81927462D01*
X105011593Y-81964698D01*
X105038454Y-81978729D01*
X105052075Y-81986981D01*
X105076951Y-82004295D01*
X105131093Y-82027529D01*
X105139729Y-82031630D01*
X105191951Y-82058909D01*
X105221081Y-82067243D01*
X105236101Y-82072591D01*
X105263942Y-82084540D01*
X105321675Y-82096403D01*
X105330938Y-82098677D01*
X105387582Y-82114886D01*
X105405168Y-82116225D01*
X105459264Y-82133127D01*
X105500480Y-82172029D01*
X105520476Y-82225060D01*
X105515207Y-82281490D01*
X105510001Y-82297199D01*
X105499500Y-82399995D01*
X105499500Y-83800004D01*
X105510001Y-83902800D01*
X105553599Y-84034367D01*
X105558529Y-84093167D01*
X105536146Y-84147764D01*
X105491361Y-84186183D01*
X105433995Y-84200000D01*
X102876499Y-84200000D01*
X102813499Y-84183119D01*
X102767380Y-84137000D01*
X102750499Y-84074000D01*
X102750499Y-83599995D01*
X102750499Y-83599991D01*
X102739999Y-83497203D01*
X102739998Y-83497199D01*
X102684815Y-83330668D01*
X102659189Y-83289121D01*
X102592712Y-83181344D01*
X102468656Y-83057288D01*
X102319334Y-82965186D01*
X102319331Y-82965184D01*
X102152801Y-82910001D01*
X102107113Y-82905333D01*
X102050009Y-82899500D01*
X102050004Y-82899500D01*
X101299995Y-82899500D01*
X101197199Y-82910001D01*
X101030668Y-82965184D01*
X100881341Y-83057290D01*
X100757290Y-83181341D01*
X100665184Y-83330668D01*
X100610001Y-83497198D01*
X100609755Y-83499610D01*
X100599500Y-83599991D01*
X100599500Y-83599992D01*
X100599500Y-83599996D01*
X100599500Y-84074000D01*
X100582619Y-84137000D01*
X100536500Y-84183119D01*
X100473500Y-84200000D01*
X99926499Y-84200000D01*
X99863499Y-84183119D01*
X99817380Y-84137000D01*
X99800499Y-84074000D01*
X99800499Y-83599995D01*
X99800499Y-83599991D01*
X99789999Y-83497203D01*
X99789998Y-83497199D01*
X99734815Y-83330668D01*
X99709189Y-83289121D01*
X99642712Y-83181344D01*
X99518656Y-83057288D01*
X99369334Y-82965186D01*
X99369331Y-82965184D01*
X99202801Y-82910001D01*
X99157113Y-82905333D01*
X99100009Y-82899500D01*
X99100004Y-82899500D01*
X98349995Y-82899500D01*
X98247199Y-82910001D01*
X98080668Y-82965184D01*
X97931341Y-83057290D01*
X97807290Y-83181341D01*
X97715184Y-83330668D01*
X97660001Y-83497198D01*
X97659755Y-83499610D01*
X97649500Y-83599991D01*
X97649500Y-83599992D01*
X97649500Y-83599996D01*
X97649500Y-84074000D01*
X97632619Y-84137000D01*
X97586500Y-84183119D01*
X97523500Y-84200000D01*
X97100000Y-84200000D01*
X97100000Y-89124415D01*
X97094295Y-89161901D01*
X97077697Y-89195988D01*
X97052792Y-89232071D01*
X97025180Y-89272072D01*
X96969613Y-89418593D01*
X96940652Y-89463253D01*
X96895834Y-89491969D01*
X96857668Y-89506203D01*
X96742452Y-89592455D01*
X96656204Y-89707668D01*
X96605909Y-89842517D01*
X96599500Y-89902128D01*
X96599500Y-90524656D01*
X96591449Y-90568974D01*
X96568325Y-90607628D01*
X95388086Y-91956472D01*
X95345326Y-91988240D01*
X95293262Y-91999500D01*
X95076659Y-91999500D01*
X94977291Y-92009651D01*
X94816302Y-92062997D01*
X94671952Y-92152034D01*
X94664095Y-92159892D01*
X94607611Y-92192504D01*
X94542389Y-92192504D01*
X94485905Y-92159892D01*
X94478047Y-92152034D01*
X94474749Y-92150000D01*
X94402167Y-92105230D01*
X94333698Y-92062997D01*
X94253202Y-92036323D01*
X94172708Y-92009651D01*
X94073345Y-91999500D01*
X94073340Y-91999500D01*
X93526659Y-91999500D01*
X93427291Y-92009651D01*
X93266302Y-92062997D01*
X93121955Y-92152032D01*
X92997166Y-92276821D01*
X92941907Y-92309097D01*
X92877919Y-92310064D01*
X92835057Y-92299500D01*
X92835056Y-92299500D01*
X92664944Y-92299500D01*
X92499775Y-92340210D01*
X92413354Y-92385567D01*
X92354800Y-92400000D01*
X91400000Y-92400000D01*
X90241294Y-93687449D01*
X90187274Y-93722763D01*
X90141303Y-93737996D01*
X89996952Y-93827034D01*
X89877034Y-93946952D01*
X89787996Y-94091304D01*
X89743947Y-94224234D01*
X89717999Y-94268888D01*
X89637541Y-94358288D01*
X89595147Y-94389101D01*
X89543885Y-94400000D01*
X89409661Y-94400000D01*
X89399844Y-94399500D01*
X88800149Y-94399500D01*
X88790351Y-94400000D01*
X86956385Y-94400000D01*
X86899019Y-94386183D01*
X86854234Y-94347764D01*
X86831851Y-94293167D01*
X86836781Y-94234367D01*
X86890348Y-94072712D01*
X86890348Y-94072710D01*
X86890349Y-94072708D01*
X86900500Y-93973345D01*
X86900499Y-93376656D01*
X86893424Y-93307400D01*
X86901390Y-93248801D01*
X86935217Y-93200288D01*
X87028183Y-93117929D01*
X87124818Y-92977930D01*
X87185140Y-92818872D01*
X87205645Y-92650000D01*
X87185140Y-92481128D01*
X87124818Y-92322070D01*
X87028183Y-92182071D01*
X86900852Y-92069266D01*
X86750225Y-91990210D01*
X86585056Y-91949500D01*
X86414944Y-91949500D01*
X86249775Y-91990210D01*
X86099147Y-92069266D01*
X86099148Y-92069266D01*
X86058553Y-92105230D01*
X86005153Y-92133256D01*
X85944847Y-92133256D01*
X85891447Y-92105230D01*
X85850852Y-92069266D01*
X85700225Y-91990210D01*
X85535056Y-91949500D01*
X85364944Y-91949500D01*
X85199775Y-91990210D01*
X85049147Y-92069266D01*
X85049148Y-92069266D01*
X84921816Y-92182072D01*
X84825181Y-92322070D01*
X84764859Y-92481128D01*
X84744355Y-92650000D01*
X84764859Y-92818871D01*
X84825181Y-92977929D01*
X84921817Y-93117930D01*
X84968929Y-93159667D01*
X85002758Y-93208180D01*
X85010724Y-93266784D01*
X85004478Y-93327930D01*
X84999904Y-93372708D01*
X84999500Y-93376658D01*
X84999500Y-93973340D01*
X85004432Y-94021618D01*
X85009651Y-94072708D01*
X85062997Y-94233697D01*
X85062999Y-94233700D01*
X85063220Y-94234367D01*
X85068149Y-94293167D01*
X85045766Y-94347764D01*
X85000981Y-94386183D01*
X84943615Y-94400000D01*
X84441500Y-94400000D01*
X84378500Y-94383119D01*
X84332381Y-94337000D01*
X84315500Y-94274000D01*
X84315500Y-93766211D01*
X84309407Y-93699159D01*
X84297139Y-93659790D01*
X84261327Y-93544864D01*
X84177718Y-93406559D01*
X84063441Y-93292282D01*
X83925136Y-93208673D01*
X83923554Y-93208180D01*
X83770840Y-93160592D01*
X83706519Y-93154748D01*
X83703790Y-93154500D01*
X81176210Y-93154500D01*
X81176208Y-93154500D01*
X81173478Y-93154748D01*
X81171852Y-93154500D01*
X81170497Y-93154500D01*
X81170497Y-93154293D01*
X81113786Y-93145644D01*
X81065185Y-93109812D01*
X81038835Y-93055483D01*
X81040787Y-92995137D01*
X81072965Y-92880798D01*
X81073937Y-92877530D01*
X81212453Y-92435583D01*
X81212752Y-92434645D01*
X81375164Y-91933704D01*
X81376368Y-91930172D01*
X81531844Y-91496475D01*
X81531931Y-91496234D01*
X81714905Y-90999159D01*
X81716260Y-90995656D01*
X81836829Y-90697874D01*
X85699500Y-90697874D01*
X85705908Y-90757481D01*
X85756204Y-90892331D01*
X85842453Y-91007546D01*
X85928702Y-91072112D01*
X85957669Y-91093796D01*
X86092517Y-91144091D01*
X86152127Y-91150500D01*
X87747872Y-91150499D01*
X87747874Y-91150499D01*
X87777677Y-91147294D01*
X87807483Y-91144091D01*
X87942331Y-91093796D01*
X88057546Y-91007546D01*
X88143796Y-90892331D01*
X88194091Y-90757483D01*
X88200500Y-90697873D01*
X88200499Y-90696157D01*
X88200845Y-90694657D01*
X88201222Y-90691157D01*
X88201641Y-90691202D01*
X88213209Y-90640998D01*
X88248787Y-90596966D01*
X88300051Y-90572954D01*
X88356648Y-90573807D01*
X88464944Y-90600500D01*
X88635054Y-90600500D01*
X88635056Y-90600500D01*
X88800225Y-90559790D01*
X88950852Y-90480734D01*
X89078183Y-90367929D01*
X89174818Y-90227930D01*
X89235140Y-90068872D01*
X89255645Y-89900000D01*
X89235140Y-89731128D01*
X89174818Y-89572070D01*
X89078183Y-89432071D01*
X88950852Y-89319266D01*
X88800225Y-89240210D01*
X88635056Y-89199500D01*
X88464944Y-89199500D01*
X88356648Y-89226192D01*
X88300054Y-89227047D01*
X88248793Y-89203038D01*
X88213214Y-89159012D01*
X88201638Y-89108797D01*
X88201221Y-89108842D01*
X88200846Y-89105362D01*
X88200499Y-89103853D01*
X88200499Y-89102125D01*
X88194091Y-89042518D01*
X88194091Y-89042517D01*
X88143796Y-88907669D01*
X88114108Y-88868011D01*
X88057546Y-88792453D01*
X87942331Y-88706204D01*
X87807483Y-88655909D01*
X87747872Y-88649500D01*
X86152125Y-88649500D01*
X86092518Y-88655908D01*
X85957668Y-88706204D01*
X85842453Y-88792453D01*
X85756204Y-88907668D01*
X85705909Y-89042517D01*
X85699500Y-89102127D01*
X85699500Y-90697874D01*
X81836829Y-90697874D01*
X81887889Y-90571765D01*
X82091507Y-90079072D01*
X82093118Y-90075349D01*
X82279588Y-89663567D01*
X82504494Y-89174580D01*
X82506359Y-89170705D01*
X82529624Y-89124415D01*
X82705465Y-88774536D01*
X82705619Y-88774228D01*
X82953181Y-88287206D01*
X82955265Y-88283284D01*
X83162869Y-87908806D01*
X83436859Y-87418369D01*
X83439128Y-87414479D01*
X83643260Y-87079052D01*
X83643277Y-87079024D01*
X83643323Y-87079052D01*
X83643400Y-87078823D01*
X83954716Y-86569522D01*
X83957303Y-86565468D01*
X84075239Y-86388254D01*
X84493276Y-85760988D01*
X84501677Y-85750760D01*
X84500500Y-85737550D01*
X84500500Y-84965986D01*
X84516727Y-84904132D01*
X84561229Y-84858210D01*
X84622542Y-84840048D01*
X84684876Y-84854325D01*
X84732173Y-84897362D01*
X84752127Y-84928089D01*
X84996218Y-85229516D01*
X85270483Y-85503781D01*
X85571910Y-85747872D01*
X85571915Y-85747875D01*
X85571916Y-85747876D01*
X85897211Y-85959125D01*
X86203363Y-86115117D01*
X86242810Y-86135216D01*
X86604907Y-86274212D01*
X86604909Y-86274212D01*
X86604913Y-86274214D01*
X86979567Y-86374602D01*
X87075196Y-86389748D01*
X87126748Y-86410285D01*
X87164477Y-86450976D01*
X87181067Y-86503930D01*
X87173299Y-86558875D01*
X87164859Y-86581128D01*
X87144355Y-86750000D01*
X87164859Y-86918871D01*
X87225181Y-87077929D01*
X87268545Y-87140751D01*
X87321817Y-87217929D01*
X87449148Y-87330734D01*
X87599775Y-87409790D01*
X87764944Y-87450500D01*
X87935054Y-87450500D01*
X87935056Y-87450500D01*
X88100225Y-87409790D01*
X88250852Y-87330734D01*
X88378183Y-87217929D01*
X88474818Y-87077930D01*
X88535140Y-86918872D01*
X88555645Y-86750000D01*
X88535140Y-86581128D01*
X88512104Y-86520388D01*
X88506297Y-86451336D01*
X88537882Y-86389654D01*
X88597303Y-86354004D01*
X88895087Y-86274214D01*
X89130457Y-86183864D01*
X89257189Y-86135216D01*
X89257189Y-86135215D01*
X89257194Y-86135214D01*
X89602789Y-85959125D01*
X89928084Y-85747876D01*
X90095622Y-85612205D01*
X90159989Y-85585014D01*
X90228948Y-85596301D01*
X90281289Y-85642595D01*
X90300914Y-85709660D01*
X90281787Y-85776868D01*
X90230201Y-85859471D01*
X90139116Y-86071766D01*
X90081438Y-86295453D01*
X90058512Y-86525320D01*
X90070872Y-86756000D01*
X90115263Y-86967929D01*
X90118232Y-86982100D01*
X90199485Y-87198347D01*
X90265538Y-87315782D01*
X90311150Y-87396877D01*
X90312733Y-87399690D01*
X90344527Y-87440210D01*
X90455336Y-87581432D01*
X90538028Y-87658838D01*
X90541187Y-87661900D01*
X93229601Y-90360615D01*
X93234566Y-90367853D01*
X93262142Y-90393415D01*
X93265582Y-90396727D01*
X93276696Y-90407842D01*
X93279971Y-90409972D01*
X93348655Y-90473757D01*
X93540211Y-90603479D01*
X93540212Y-90603479D01*
X93540213Y-90603480D01*
X93749317Y-90702470D01*
X93971072Y-90768410D01*
X94200290Y-90799756D01*
X94200290Y-90799755D01*
X94200291Y-90799756D01*
X94238842Y-90799092D01*
X94431607Y-90795775D01*
X94659610Y-90756560D01*
X94878965Y-90683030D01*
X95084539Y-90576903D01*
X95179538Y-90507685D01*
X95271519Y-90440666D01*
X95286186Y-90426075D01*
X95435536Y-90277501D01*
X95572747Y-90091231D01*
X95679943Y-89886212D01*
X95754616Y-89667243D01*
X95795017Y-89439447D01*
X95800203Y-89208154D01*
X95799530Y-89203038D01*
X95786691Y-89105362D01*
X95770051Y-88978776D01*
X95705267Y-88756681D01*
X95607368Y-88547064D01*
X95478643Y-88354832D01*
X95416062Y-88286738D01*
X95413712Y-88283006D01*
X95402280Y-88271574D01*
X95398536Y-88267666D01*
X95373439Y-88240317D01*
X95366014Y-88235186D01*
X92676575Y-85536211D01*
X92673464Y-85532975D01*
X92596453Y-85449958D01*
X92596452Y-85449957D01*
X92415357Y-85306537D01*
X92241904Y-85207942D01*
X92214522Y-85192377D01*
X91998652Y-85110152D01*
X91772765Y-85061771D01*
X91542144Y-85048370D01*
X91312178Y-85070259D01*
X91088226Y-85126928D01*
X90875527Y-85217051D01*
X90782452Y-85274595D01*
X90715272Y-85293420D01*
X90648375Y-85273614D01*
X90602270Y-85221251D01*
X90591095Y-85152384D01*
X90618273Y-85088130D01*
X90747876Y-84928084D01*
X90959125Y-84602789D01*
X91135214Y-84257194D01*
X91274214Y-83895087D01*
X91374602Y-83520433D01*
X91435278Y-83137338D01*
X91455578Y-82750000D01*
X91435278Y-82362662D01*
X91374602Y-81979567D01*
X91325918Y-81797874D01*
X93699500Y-81797874D01*
X93705908Y-81857481D01*
X93745897Y-81964698D01*
X93756204Y-81992331D01*
X93842454Y-82107546D01*
X93849011Y-82112455D01*
X93886173Y-82156922D01*
X93899500Y-82213321D01*
X93899500Y-82993709D01*
X93914758Y-83124252D01*
X93914758Y-83124254D01*
X93914759Y-83124255D01*
X93974763Y-83289117D01*
X93974764Y-83289118D01*
X93974765Y-83289121D01*
X94071169Y-83435696D01*
X94160986Y-83520433D01*
X94198782Y-83556092D01*
X94254394Y-83588199D01*
X94350716Y-83643811D01*
X94350718Y-83643811D01*
X94350719Y-83643812D01*
X94518790Y-83694130D01*
X94693935Y-83704331D01*
X94866711Y-83673865D01*
X95027804Y-83604377D01*
X95168530Y-83499610D01*
X95281302Y-83365214D01*
X95360040Y-83208433D01*
X95400500Y-83037721D01*
X95400500Y-82376499D01*
X95417381Y-82313499D01*
X95463500Y-82267380D01*
X95526500Y-82250499D01*
X95747875Y-82250499D01*
X95783638Y-82246654D01*
X95807483Y-82244091D01*
X95942331Y-82193796D01*
X96057546Y-82107546D01*
X96143796Y-81992331D01*
X96194091Y-81857483D01*
X96200500Y-81797873D01*
X96200499Y-80202128D01*
X96198416Y-80182755D01*
X96194091Y-80142518D01*
X96190471Y-80132811D01*
X96143796Y-80007669D01*
X96110246Y-79962852D01*
X96057546Y-79892453D01*
X95942331Y-79806204D01*
X95868586Y-79778699D01*
X95807483Y-79755909D01*
X95747872Y-79749500D01*
X94152125Y-79749500D01*
X94092518Y-79755908D01*
X93957668Y-79806204D01*
X93842453Y-79892453D01*
X93756204Y-80007668D01*
X93705909Y-80142517D01*
X93699500Y-80202127D01*
X93699500Y-81797874D01*
X91325918Y-81797874D01*
X91274214Y-81604913D01*
X91204629Y-81423637D01*
X91135216Y-81242810D01*
X91029017Y-81034383D01*
X90959125Y-80897211D01*
X90747876Y-80571916D01*
X90747875Y-80571915D01*
X90747872Y-80571910D01*
X90503781Y-80270483D01*
X90229516Y-79996218D01*
X89928089Y-79752127D01*
X89897362Y-79732173D01*
X89854325Y-79684876D01*
X89840048Y-79622542D01*
X89858210Y-79561229D01*
X89904132Y-79516727D01*
X89965986Y-79500500D01*
X90737335Y-79500500D01*
X90750896Y-79501734D01*
X90761547Y-79492994D01*
X91396773Y-79074666D01*
X91434502Y-79049856D01*
X91567367Y-78962480D01*
X91571389Y-78959943D01*
X92084199Y-78650077D01*
X92084429Y-78650001D01*
X92084401Y-78649955D01*
X92084584Y-78649844D01*
X92417997Y-78449262D01*
X92421928Y-78446996D01*
X92914658Y-78174792D01*
X93288121Y-77970051D01*
X93291971Y-77968028D01*
X93780979Y-77722151D01*
X94176532Y-77525504D01*
X94180191Y-77523764D01*
X94670678Y-77300555D01*
X95081629Y-77116424D01*
X95085305Y-77114850D01*
X95579046Y-76912908D01*
X96002215Y-76743337D01*
X96005747Y-76741987D01*
X96503349Y-76560676D01*
X96503739Y-76560536D01*
X96936707Y-76406889D01*
X96940274Y-76405684D01*
X97441896Y-76244672D01*
X97442638Y-76244438D01*
X97883742Y-76107559D01*
X97887191Y-76106543D01*
X98392961Y-75965604D01*
X98393735Y-75965392D01*
X98841894Y-75845803D01*
X98845053Y-75845007D01*
X99354612Y-75724113D01*
X99355613Y-75723882D01*
X99809502Y-75622073D01*
X99812617Y-75621418D01*
X100325218Y-75520643D01*
X100326650Y-75520371D01*
X100785126Y-75436690D01*
X100788078Y-75436189D01*
X101303449Y-75355503D01*
X101305181Y-75355246D01*
X101767390Y-75289915D01*
X101770110Y-75289564D01*
X102287565Y-75229021D01*
X102289477Y-75228812D01*
X102754479Y-75182017D01*
X102757181Y-75181777D01*
X103276116Y-75141401D01*
X103278219Y-75141255D01*
X103745104Y-75113126D01*
X103747510Y-75113006D01*
X104267540Y-75092807D01*
X104269730Y-75092742D01*
X104737409Y-75083360D01*
X104739937Y-75083335D01*
X105260063Y-75083335D01*
X105262590Y-75083360D01*
G37*
%TD.AperFunction*%
%TD*%
M02*
