M48
; DRILL file {KiCad 7.0.1} date Sun May 14 21:15:40 2023
; FORMAT={-:-/ absolute / metric / decimal}
; #@! TF.CreationDate,2023-05-14T21:15:40+02:00
; #@! TF.GenerationSoftware,Kicad,Pcbnew,7.0.1
; #@! TF.FileFunction,MixedPlating,1,6
FMAT,2
METRIC
; #@! TA.AperFunction,Plated,PTH,ViaDrill
T1C0.200
; #@! TA.AperFunction,Plated,PTH,ComponentDrill
T2C0.500
; #@! TA.AperFunction,Plated,PTH,ComponentDrill
T3C0.600
; #@! TA.AperFunction,Plated,PTH,ComponentDrill
T4C1.000
; #@! TA.AperFunction,Plated,PTH,ComponentDrill
T5C1.800
; #@! TA.AperFunction,Plated,PTH,ComponentDrill
T6C2.000
; #@! TA.AperFunction,Plated,PTH,ComponentDrill
T7C3.200
; #@! TA.AperFunction,NonPlated,NPTH,ComponentDrill
T8C0.650
%
G90
G05
T1
X85.45Y-92.65
X86.5Y-92.65
X86.95Y-104.0
X87.55Y-104.0
X87.7Y-98.95
X87.7Y-100.05
X87.7Y-101.15
X87.85Y-86.75
X88.15Y-104.0
X88.55Y-89.9
X88.55Y-106.7
X89.01Y-103.41
X89.01Y-104.34
X89.117Y-98.95
X89.117Y-100.05
X89.117Y-101.15
X89.3Y-107.4
X89.8Y-104.65
X90.3Y-108.3
X90.399Y-104.647
X90.533Y-98.95
X90.533Y-100.05
X90.533Y-101.15
X90.999Y-104.647
X91.4Y-105.5
X91.4Y-106.3
X91.598Y-104.647
X91.95Y-98.95
X91.95Y-100.05
X91.95Y-101.15
X92.198Y-104.651
X92.75Y-93.0
X92.797Y-104.649
X93.101Y-96.051
X93.65Y-104.45
X93.75Y-107.1
X94.5Y-96.2
X94.501Y-97.2
X94.519Y-97.969
X94.65Y-82.95
X94.85Y-106.5
X95.397Y-100.202
X95.397Y-100.801
X95.397Y-101.401
X95.4Y-102.0
X95.95Y-104.45
X95.95Y-107.1
X96.469Y-96.019
X96.9Y-95.5
X97.05Y-106.55
X97.34Y-94.89
X97.35Y-99.15
X97.65Y-89.6
X98.15Y-107.1
X98.3Y-97.65
X98.4Y-90.4
X98.5Y-104.35
X98.65Y-91.95
X98.836Y-99.064
X98.895Y-100.7
X99.0Y-110.0
X99.0Y-110.7
X99.2Y-103.85
X99.3Y-106.55
X99.4Y-101.7
X99.4Y-102.3
X99.45Y-91.2
X99.45Y-112.2
X99.5Y-108.9
X99.95Y-96.298
X99.95Y-96.898
X99.95Y-97.497
X99.953Y-98.097
X100.0Y-108.45
X100.1Y-101.099
X100.45Y-108.05
X100.45Y-109.75
X100.45Y-113.15
X100.95Y-93.65
X101.05Y-106.549
X101.55Y-92.0
X101.55Y-93.65
X101.75Y-104.7
X102.1Y-109.75
X102.15Y-93.65
X102.35Y-104.7
X102.4Y-98.6
X102.45Y-99.8
X102.45Y-101.4
X102.475Y-89.775
X102.5Y-90.5
X102.75Y-93.65
X103.0Y-109.75
X103.034Y-104.85
X103.075Y-89.775
X103.095Y-97.347
X103.35Y-92.9
X103.5Y-91.25
X103.65Y-104.7
X103.921Y-93.885
X103.931Y-102.2
X104.183Y-99.0
X104.183Y-100.1
X104.35Y-104.15
X104.365Y-97.347
X104.465Y-93.6
X104.812Y-104.733
X104.95Y-91.25
X104.95Y-92.9
X105.15Y-93.6
X105.247Y-102.203
X105.416Y-104.25
X105.6Y-99.0
X105.6Y-100.1
X105.6Y-101.5
X105.75Y-93.6
X105.799Y-108.3
X105.82Y-105.703
X106.15Y-113.85
X106.2Y-106.65
X106.349Y-93.6
X106.462Y-105.703
X106.65Y-90.6
X106.95Y-93.6
X107.1Y-92.7
X107.105Y-105.8
X107.111Y-91.039
X107.25Y-113.0
X107.4Y-107.6
X107.4Y-109.15
X107.561Y-93.139
X107.747Y-105.703
X107.75Y-91.45
X107.8Y-94.35
X107.8Y-94.95
X108.85Y-102.95
X108.85Y-103.75
X108.85Y-104.55
X108.9Y-88.1
X108.95Y-107.55
X109.1Y-91.35
X109.1Y-92.15
X109.65Y-90.55
X110.15Y-90.1
X110.6Y-89.7
X111.0Y-106.6
X111.0Y-107.15
X111.17Y-105.52
X111.384Y-99.61
X111.7Y-99.1
X111.8Y-101.4
X112.25Y-86.8
X112.25Y-89.5
X112.6Y-103.05
X112.6Y-107.3
X112.6Y-108.0
X113.389Y-105.489
X113.5Y-86.8
X113.5Y-89.55
X113.6Y-102.45
X113.95Y-104.95
X114.15Y-95.2
X114.389Y-104.489
X114.55Y-102.15
X114.989Y-101.689
X115.1Y-86.5
X115.7Y-84.6
X115.7Y-85.2
X115.7Y-86.0
X116.05Y-98.15
X117.15Y-95.45
X117.35Y-97.8
X117.789Y-97.339
X118.25Y-100.8
X118.6Y-106.65
X119.05Y-97.2
X119.15Y-102.5
X119.3Y-101.85
X119.3Y-104.6
X119.3Y-105.2
X119.35Y-94.75
X119.65Y-97.2
X119.7Y-102.5
X120.5Y-97.25
X120.75Y-88.0
X120.75Y-88.8
X121.1Y-97.25
X122.15Y-92.55
X122.15Y-93.35
X122.15Y-94.15
X122.2Y-89.9
X122.2Y-90.7
X122.2Y-91.5
X122.65Y-86.7
X124.1Y-89.8
X124.95Y-88.85
X126.4Y-91.6
X126.45Y-108.3
X127.25Y-90.65
X127.3Y-107.35
T2
X85.35Y-82.75
X85.35Y-117.25
X86.053Y-81.053
X86.053Y-84.447
X86.053Y-115.553
X86.053Y-118.947
X87.75Y-80.35
X87.75Y-85.15
X87.75Y-114.85
X87.75Y-119.65
X89.447Y-81.053
X89.447Y-84.447
X89.447Y-115.553
X89.447Y-118.947
X90.15Y-82.75
X90.15Y-117.25
X119.85Y-82.75
X119.85Y-117.25
X120.553Y-81.053
X120.553Y-84.447
X120.553Y-115.553
X120.553Y-118.947
X122.25Y-80.35
X122.25Y-85.15
X122.25Y-114.85
X122.25Y-119.65
X123.947Y-81.053
X123.947Y-84.447
X123.947Y-115.553
X123.947Y-118.947
X124.65Y-82.75
X124.65Y-117.25
T4
X94.904Y-115.596
X96.7Y-113.8
X98.84Y-118.45
X98.84Y-120.99
X101.38Y-118.45
X101.38Y-120.99
X103.92Y-118.45
X103.92Y-120.99
X106.46Y-118.45
X106.46Y-120.99
X109.0Y-118.45
X109.0Y-120.99
X110.4Y-111.025
X110.4Y-113.565
X110.948Y-93.702
X111.54Y-118.45
X111.54Y-120.99
X112.744Y-91.906
T5
X102.89Y-78.45
X107.89Y-78.45
T6
X81.74Y-100.03
X82.44Y-95.03
X82.62Y-105.31
T7
X87.75Y-82.75
X87.75Y-117.25
X122.25Y-82.75
X122.25Y-117.25
T8
X124.81Y-97.16
X124.81Y-102.94
T3
G00X123.73Y-95.73
M15
G01X124.83Y-95.73
M16
G05
G00X123.73Y-104.37
M15
G01X124.83Y-104.37
M16
G05
G00X128.16Y-95.73
M15
G01X128.76Y-95.73
M16
G05
G00X128.16Y-104.37
M15
G01X128.76Y-104.37
M16
G05
T0
M30
