%TF.GenerationSoftware,KiCad,Pcbnew,(6.0.9)*%
%TF.CreationDate,2023-02-04T14:30:42+01:00*%
%TF.ProjectId,MTR_Tiny_MD,4d54525f-5469-46e7-995f-4d442e6b6963,rev?*%
%TF.SameCoordinates,Original*%
%TF.FileFunction,Copper,L1,Top*%
%TF.FilePolarity,Positive*%
%FSLAX46Y46*%
G04 Gerber Fmt 4.6, Leading zero omitted, Abs format (unit mm)*
G04 Created by KiCad (PCBNEW (6.0.9)) date 2023-02-04 14:30:42*
%MOMM*%
%LPD*%
G01*
G04 APERTURE LIST*
G04 Aperture macros list*
%AMRoundRect*
0 Rectangle with rounded corners*
0 $1 Rounding radius*
0 $2 $3 $4 $5 $6 $7 $8 $9 X,Y pos of 4 corners*
0 Add a 4 corners polygon primitive as box body*
4,1,4,$2,$3,$4,$5,$6,$7,$8,$9,$2,$3,0*
0 Add four circle primitives for the rounded corners*
1,1,$1+$1,$2,$3*
1,1,$1+$1,$4,$5*
1,1,$1+$1,$6,$7*
1,1,$1+$1,$8,$9*
0 Add four rect primitives between the rounded corners*
20,1,$1+$1,$2,$3,$4,$5,0*
20,1,$1+$1,$4,$5,$6,$7,0*
20,1,$1+$1,$6,$7,$8,$9,0*
20,1,$1+$1,$8,$9,$2,$3,0*%
%AMHorizOval*
0 Thick line with rounded ends*
0 $1 width*
0 $2 $3 position (X,Y) of the first rounded end (center of the circle)*
0 $4 $5 position (X,Y) of the second rounded end (center of the circle)*
0 Add line between two ends*
20,1,$1,$2,$3,$4,$5,0*
0 Add two circle primitives to create the rounded ends*
1,1,$1,$2,$3*
1,1,$1,$4,$5*%
%AMRotRect*
0 Rectangle, with rotation*
0 The origin of the aperture is its center*
0 $1 length*
0 $2 width*
0 $3 Rotation angle, in degrees counterclockwise*
0 Add horizontal line*
21,1,$1,$2,0,0,$3*%
G04 Aperture macros list end*
%TA.AperFunction,NonConductor*%
%ADD10C,0.200000*%
%TD*%
%TA.AperFunction,SMDPad,CuDef*%
%ADD11RoundRect,0.140000X0.170000X-0.140000X0.170000X0.140000X-0.170000X0.140000X-0.170000X-0.140000X0*%
%TD*%
%TA.AperFunction,SMDPad,CuDef*%
%ADD12RoundRect,0.140000X-0.170000X0.140000X-0.170000X-0.140000X0.170000X-0.140000X0.170000X0.140000X0*%
%TD*%
%TA.AperFunction,SMDPad,CuDef*%
%ADD13RoundRect,0.100000X-0.100000X0.130000X-0.100000X-0.130000X0.100000X-0.130000X0.100000X0.130000X0*%
%TD*%
%TA.AperFunction,SMDPad,CuDef*%
%ADD14RoundRect,0.140000X-0.140000X-0.170000X0.140000X-0.170000X0.140000X0.170000X-0.140000X0.170000X0*%
%TD*%
%TA.AperFunction,SMDPad,CuDef*%
%ADD15RoundRect,0.225000X-0.225000X-0.250000X0.225000X-0.250000X0.225000X0.250000X-0.225000X0.250000X0*%
%TD*%
%TA.AperFunction,SMDPad,CuDef*%
%ADD16RoundRect,0.225000X0.250000X-0.225000X0.250000X0.225000X-0.250000X0.225000X-0.250000X-0.225000X0*%
%TD*%
%TA.AperFunction,SMDPad,CuDef*%
%ADD17RoundRect,0.225000X-0.250000X0.225000X-0.250000X-0.225000X0.250000X-0.225000X0.250000X0.225000X0*%
%TD*%
%TA.AperFunction,SMDPad,CuDef*%
%ADD18R,1.500000X1.500000*%
%TD*%
%TA.AperFunction,SMDPad,CuDef*%
%ADD19RoundRect,0.225000X0.225000X0.250000X-0.225000X0.250000X-0.225000X-0.250000X0.225000X-0.250000X0*%
%TD*%
%TA.AperFunction,ComponentPad*%
%ADD20R,1.700000X1.700000*%
%TD*%
%TA.AperFunction,ComponentPad*%
%ADD21O,1.700000X1.700000*%
%TD*%
%TA.AperFunction,ComponentPad*%
%ADD22RoundRect,0.165000X1.210000X-1.210000X1.210000X1.210000X-1.210000X1.210000X-1.210000X-1.210000X0*%
%TD*%
%TA.AperFunction,SMDPad,CuDef*%
%ADD23RoundRect,0.140000X0.140000X0.170000X-0.140000X0.170000X-0.140000X-0.170000X0.140000X-0.170000X0*%
%TD*%
%TA.AperFunction,SMDPad,CuDef*%
%ADD24RoundRect,0.218750X0.218750X0.256250X-0.218750X0.256250X-0.218750X-0.256250X0.218750X-0.256250X0*%
%TD*%
%TA.AperFunction,SMDPad,CuDef*%
%ADD25RoundRect,0.250000X-0.475000X0.250000X-0.475000X-0.250000X0.475000X-0.250000X0.475000X0.250000X0*%
%TD*%
%TA.AperFunction,ComponentPad*%
%ADD26C,0.800000*%
%TD*%
%TA.AperFunction,ComponentPad*%
%ADD27C,6.400000*%
%TD*%
%TA.AperFunction,SMDPad,CuDef*%
%ADD28RoundRect,0.200000X-0.200000X-0.275000X0.200000X-0.275000X0.200000X0.275000X-0.200000X0.275000X0*%
%TD*%
%TA.AperFunction,ComponentPad*%
%ADD29C,3.200000*%
%TD*%
%TA.AperFunction,SMDPad,CuDef*%
%ADD30R,1.450000X0.600000*%
%TD*%
%TA.AperFunction,SMDPad,CuDef*%
%ADD31R,1.450000X0.300000*%
%TD*%
%TA.AperFunction,ComponentPad*%
%ADD32O,2.100000X1.000000*%
%TD*%
%TA.AperFunction,ComponentPad*%
%ADD33O,1.600000X1.000000*%
%TD*%
%TA.AperFunction,SMDPad,CuDef*%
%ADD34RoundRect,0.250000X-1.075000X0.375000X-1.075000X-0.375000X1.075000X-0.375000X1.075000X0.375000X0*%
%TD*%
%TA.AperFunction,SMDPad,CuDef*%
%ADD35R,1.500000X0.900000*%
%TD*%
%TA.AperFunction,SMDPad,CuDef*%
%ADD36R,1.000000X0.900000*%
%TD*%
%TA.AperFunction,SMDPad,CuDef*%
%ADD37R,0.700000X0.300000*%
%TD*%
%TA.AperFunction,SMDPad,CuDef*%
%ADD38R,1.016000X1.600200*%
%TD*%
%TA.AperFunction,SMDPad,CuDef*%
%ADD39R,0.600000X1.300000*%
%TD*%
%TA.AperFunction,ComponentPad*%
%ADD40RotRect,1.700000X1.700000X315.000000*%
%TD*%
%TA.AperFunction,ComponentPad*%
%ADD41HorizOval,1.700000X0.000000X0.000000X0.000000X0.000000X0*%
%TD*%
%TA.AperFunction,SMDPad,CuDef*%
%ADD42RoundRect,0.050000X-0.050000X0.387500X-0.050000X-0.387500X0.050000X-0.387500X0.050000X0.387500X0*%
%TD*%
%TA.AperFunction,SMDPad,CuDef*%
%ADD43RoundRect,0.050000X-0.387500X0.050000X-0.387500X-0.050000X0.387500X-0.050000X0.387500X0.050000X0*%
%TD*%
%TA.AperFunction,SMDPad,CuDef*%
%ADD44R,3.200000X3.200000*%
%TD*%
%TA.AperFunction,SMDPad,CuDef*%
%ADD45RoundRect,0.256734X0.280766X0.256734X-0.280766X0.256734X-0.280766X-0.256734X0.280766X-0.256734X0*%
%TD*%
%TA.AperFunction,SMDPad,CuDef*%
%ADD46RoundRect,0.049950X-0.325050X0.062550X-0.325050X-0.062550X0.325050X-0.062550X0.325050X0.062550X0*%
%TD*%
%TA.AperFunction,SMDPad,CuDef*%
%ADD47RoundRect,0.050000X-0.150000X-0.237500X0.150000X-0.237500X0.150000X0.237500X-0.150000X0.237500X0*%
%TD*%
%TA.AperFunction,SMDPad,CuDef*%
%ADD48RoundRect,0.050000X-0.250000X0.075000X-0.250000X-0.075000X0.250000X-0.075000X0.250000X0.075000X0*%
%TD*%
%TA.AperFunction,SMDPad,CuDef*%
%ADD49RoundRect,0.050000X0.150000X0.237500X-0.150000X0.237500X-0.150000X-0.237500X0.150000X-0.237500X0*%
%TD*%
%TA.AperFunction,SMDPad,CuDef*%
%ADD50RoundRect,0.050050X0.124950X0.599950X-0.124950X0.599950X-0.124950X-0.599950X0.124950X-0.599950X0*%
%TD*%
%TA.AperFunction,SMDPad,CuDef*%
%ADD51R,0.254800X0.807999*%
%TD*%
%TA.AperFunction,SMDPad,CuDef*%
%ADD52R,0.807999X0.254800*%
%TD*%
%TA.AperFunction,SMDPad,CuDef*%
%ADD53R,5.791200X3.810000*%
%TD*%
%TA.AperFunction,ComponentPad*%
%ADD54RotRect,1.700000X1.700000X135.000000*%
%TD*%
%TA.AperFunction,ComponentPad*%
%ADD55HorizOval,1.700000X0.000000X0.000000X0.000000X0.000000X0*%
%TD*%
%TA.AperFunction,SMDPad,CuDef*%
%ADD56R,1.600200X0.203200*%
%TD*%
%TA.AperFunction,ViaPad*%
%ADD57C,0.400000*%
%TD*%
%TA.AperFunction,Conductor*%
%ADD58C,0.200000*%
%TD*%
%TA.AperFunction,Conductor*%
%ADD59C,0.300000*%
%TD*%
%TA.AperFunction,Conductor*%
%ADD60C,0.500000*%
%TD*%
%TA.AperFunction,Conductor*%
%ADD61C,1.000000*%
%TD*%
%TA.AperFunction,Conductor*%
%ADD62C,0.250000*%
%TD*%
G04 APERTURE END LIST*
D10*
G36*
X86600000Y-100300000D02*
G01*
X85550000Y-100300000D01*
X85550000Y-99800000D01*
X86600000Y-99800000D01*
X86600000Y-100300000D01*
G37*
X86600000Y-100300000D02*
X85550000Y-100300000D01*
X85550000Y-99800000D01*
X86600000Y-99800000D01*
X86600000Y-100300000D01*
G36*
X86600000Y-101800000D02*
G01*
X86000000Y-101800000D01*
X86000000Y-101300000D01*
X86600000Y-101300000D01*
X86600000Y-101800000D01*
G37*
X86600000Y-101800000D02*
X86000000Y-101800000D01*
X86000000Y-101300000D01*
X86600000Y-101300000D01*
X86600000Y-101800000D01*
G36*
X110200000Y-102250000D02*
G01*
X110200000Y-105850000D01*
X108550000Y-105850000D01*
X107550000Y-104800000D01*
X107550000Y-101800000D01*
X109700000Y-101800000D01*
X110200000Y-102250000D01*
G37*
X110200000Y-102250000D02*
X110200000Y-105850000D01*
X108550000Y-105850000D01*
X107550000Y-104800000D01*
X107550000Y-101800000D01*
X109700000Y-101800000D01*
X110200000Y-102250000D01*
G36*
X86600000Y-98800000D02*
G01*
X86000000Y-98800000D01*
X86000000Y-98300000D01*
X86600000Y-98300000D01*
X86600000Y-98800000D01*
G37*
X86600000Y-98800000D02*
X86000000Y-98800000D01*
X86000000Y-98300000D01*
X86600000Y-98300000D01*
X86600000Y-98800000D01*
G36*
X107550000Y-102250000D02*
G01*
X107150000Y-102250000D01*
X107150000Y-99650000D01*
X107550000Y-99650000D01*
X107550000Y-102250000D01*
G37*
X107550000Y-102250000D02*
X107150000Y-102250000D01*
X107150000Y-99650000D01*
X107550000Y-99650000D01*
X107550000Y-102250000D01*
D11*
%TO.P,R9,1*%
%TO.N,Net-(R9-Pad1)*%
X118600000Y-108330000D03*
%TO.P,R9,2*%
%TO.N,RUN*%
X118600000Y-107370000D03*
%TD*%
D12*
%TO.P,R3,1*%
%TO.N,Net-(C3-Pad1)*%
X98775000Y-93245000D03*
%TO.P,R3,2*%
%TO.N,XOUT*%
X98775000Y-94205000D03*
%TD*%
D13*
%TO.P,C33,1*%
%TO.N,Current_C*%
X99250000Y-105220000D03*
%TO.P,C33,2*%
%TO.N,GND*%
X99250000Y-105860000D03*
%TD*%
D14*
%TO.P,C6,1*%
%TO.N,GND*%
X97340000Y-98386666D03*
%TO.P,C6,2*%
%TO.N,3V3_BUCK*%
X98300000Y-98386666D03*
%TD*%
D15*
%TO.P,C22,1*%
%TO.N,3V3_BUCK*%
X110175000Y-104550000D03*
%TO.P,C22,2*%
%TO.N,GND*%
X111725000Y-104550000D03*
%TD*%
D16*
%TO.P,C36,1*%
%TO.N,GND*%
X90300000Y-107375000D03*
%TO.P,C36,2*%
%TO.N,3V3_BUCK*%
X90300000Y-105825000D03*
%TD*%
D17*
%TO.P,C21,1*%
%TO.N,3V3_BUCK*%
X102750000Y-87775000D03*
%TO.P,C21,2*%
%TO.N,GND*%
X102750000Y-89325000D03*
%TD*%
D18*
%TO.P,H6,1,1*%
%TO.N,3V3_BUCK*%
X94950000Y-81000000D03*
%TD*%
D19*
%TO.P,C28,1*%
%TO.N,ALIM*%
X87500000Y-95325000D03*
%TO.P,C28,2*%
%TO.N,GND*%
X85950000Y-95325000D03*
%TD*%
D15*
%TO.P,C27,1*%
%TO.N,Net-(C27-Pad1)*%
X90675000Y-94650000D03*
%TO.P,C27,2*%
%TO.N,Net-(C27-Pad2)*%
X92225000Y-94650000D03*
%TD*%
D20*
%TO.P,J5,1*%
%TO.N,GND*%
X110400000Y-111025000D03*
D21*
%TO.P,J5,2*%
%TO.N,DOUT*%
X110400000Y-113565000D03*
%TD*%
D22*
%TO.P,H12,1,1*%
%TO.N,OUTC*%
X82620000Y-105310000D03*
%TD*%
D14*
%TO.P,C34,1*%
%TO.N,VREF*%
X97340000Y-101584166D03*
%TO.P,C34,2*%
%TO.N,GND*%
X98300000Y-101584166D03*
%TD*%
%TO.P,R2,1*%
%TO.N,/D-*%
X112620000Y-100500000D03*
%TO.P,R2,2*%
%TO.N,USB_D-*%
X113580000Y-100500000D03*
%TD*%
D23*
%TO.P,R12,1*%
%TO.N,Net-(D3-Pad2)*%
X123900000Y-112700000D03*
%TO.P,R12,2*%
%TO.N,V_USB*%
X122940000Y-112700000D03*
%TD*%
%TO.P,C35,1*%
%TO.N,GND*%
X98300000Y-103200000D03*
%TO.P,C35,2*%
%TO.N,VREF*%
X97340000Y-103200000D03*
%TD*%
D24*
%TO.P,D3,1,K*%
%TO.N,GND*%
X124250000Y-111200000D03*
%TO.P,D3,2,A*%
%TO.N,Net-(D3-Pad2)*%
X122675000Y-111200000D03*
%TD*%
D12*
%TO.P,C32,1*%
%TO.N,3V3_BUCK*%
X110200000Y-105870000D03*
%TO.P,C32,2*%
%TO.N,GND*%
X110200000Y-106830000D03*
%TD*%
D25*
%TO.P,C14,1*%
%TO.N,ALIM*%
X111050000Y-83800000D03*
%TO.P,C14,2*%
%TO.N,GND*%
X111050000Y-85700000D03*
%TD*%
D12*
%TO.P,R8,1*%
%TO.N,Current_C*%
X98150000Y-105270000D03*
%TO.P,R8,2*%
%TO.N,Net-(R8-Pad2)*%
X98150000Y-106230000D03*
%TD*%
D26*
%TO.P,H1,1,1*%
%TO.N,GND*%
X124650000Y-117250000D03*
X120552944Y-118947056D03*
D27*
X122250000Y-117250000D03*
D26*
X123947056Y-115552944D03*
X122250000Y-114850000D03*
X120552944Y-115552944D03*
X122250000Y-119650000D03*
X119850000Y-117250000D03*
X123947056Y-118947056D03*
%TD*%
D11*
%TO.P,C2,1*%
%TO.N,GND*%
X101000000Y-91230000D03*
%TO.P,C2,2*%
%TO.N,XIN*%
X101000000Y-90270000D03*
%TD*%
D27*
%TO.P,H3,1,1*%
%TO.N,GND*%
X122250000Y-82750000D03*
D26*
X122250000Y-85150000D03*
X119850000Y-82750000D03*
X124650000Y-82750000D03*
X122250000Y-80350000D03*
X123947056Y-81052944D03*
X120552944Y-81052944D03*
X120552944Y-84447056D03*
X123947056Y-84447056D03*
%TD*%
D23*
%TO.P,R11,1*%
%TO.N,Net-(D2-Pad2)*%
X123637500Y-87350000D03*
%TO.P,R11,2*%
%TO.N,3V3_BUCK*%
X122677500Y-87350000D03*
%TD*%
D15*
%TO.P,C23,1*%
%TO.N,3V3_BUCK*%
X104825000Y-87700000D03*
%TO.P,C23,2*%
%TO.N,GND*%
X106375000Y-87700000D03*
%TD*%
D27*
%TO.P,H8,1,1*%
%TO.N,GND*%
X87750000Y-82750000D03*
D26*
X86052944Y-81052944D03*
X90150000Y-82750000D03*
X87750000Y-85150000D03*
X86052944Y-84447056D03*
X87750000Y-80350000D03*
X89447056Y-84447056D03*
X85350000Y-82750000D03*
X89447056Y-81052944D03*
%TD*%
D28*
%TO.P,R13,1*%
%TO.N,/SW_BK*%
X93750000Y-94625000D03*
%TO.P,R13,2*%
%TO.N,DRV_BUCK_OUT*%
X95400000Y-94625000D03*
%TD*%
D26*
%TO.P,H9,1,1*%
%TO.N,GND*%
X89447056Y-118947056D03*
X90150000Y-117250000D03*
D27*
X87750000Y-117250000D03*
D26*
X87750000Y-119650000D03*
X86052944Y-115552944D03*
X89447056Y-115552944D03*
X85350000Y-117250000D03*
X86052944Y-118947056D03*
X87750000Y-114850000D03*
%TD*%
D23*
%TO.P,C1,1*%
%TO.N,GND*%
X110800000Y-99650000D03*
%TO.P,C1,2*%
%TO.N,+1V1*%
X109840000Y-99650000D03*
%TD*%
D29*
%TO.P,J6,1,1*%
%TO.N,/VM*%
X107890000Y-78450000D03*
%TO.P,J6,2,2*%
%TO.N,GND*%
X102890000Y-78450000D03*
%TD*%
D13*
%TO.P,C29,1*%
%TO.N,Current_A*%
X94850000Y-105220000D03*
%TO.P,C29,2*%
%TO.N,GND*%
X94850000Y-105860000D03*
%TD*%
D11*
%TO.P,C10,1*%
%TO.N,GND*%
X103525000Y-107360000D03*
%TO.P,C10,2*%
%TO.N,3V3_BUCK*%
X103525000Y-106400000D03*
%TD*%
D13*
%TO.P,C31,1*%
%TO.N,Current_B*%
X97050000Y-105220000D03*
%TO.P,C31,2*%
%TO.N,GND*%
X97050000Y-105860000D03*
%TD*%
D30*
%TO.P,J1,A1,GND*%
%TO.N,GND*%
X123365000Y-103300000D03*
%TO.P,J1,A4,VBUS*%
%TO.N,V_USB*%
X123365000Y-102500000D03*
D31*
%TO.P,J1,A5,CC1*%
%TO.N,unconnected-(J1-PadA5)*%
X123365000Y-101300000D03*
%TO.P,J1,A6,D+*%
%TO.N,USB_D+*%
X123365000Y-100300000D03*
%TO.P,J1,A7,D-*%
%TO.N,USB_D-*%
X123365000Y-99800000D03*
%TO.P,J1,A8,SBU1*%
%TO.N,unconnected-(J1-PadA8)*%
X123365000Y-98800000D03*
D30*
%TO.P,J1,A9,VBUS*%
%TO.N,V_USB*%
X123365000Y-97600000D03*
%TO.P,J1,A12,GND*%
%TO.N,GND*%
X123365000Y-96800000D03*
%TO.P,J1,B1,GND*%
X123365000Y-96800000D03*
%TO.P,J1,B4,VBUS*%
%TO.N,V_USB*%
X123365000Y-97600000D03*
D31*
%TO.P,J1,B5,CC2*%
%TO.N,unconnected-(J1-PadB5)*%
X123365000Y-98300000D03*
%TO.P,J1,B6,D+*%
%TO.N,USB_D+*%
X123365000Y-99300000D03*
%TO.P,J1,B7,D-*%
%TO.N,USB_D-*%
X123365000Y-100800000D03*
%TO.P,J1,B8,SBU2*%
%TO.N,unconnected-(J1-PadB8)*%
X123365000Y-101800000D03*
D30*
%TO.P,J1,B9,VBUS*%
%TO.N,V_USB*%
X123365000Y-102500000D03*
%TO.P,J1,B12,GND*%
%TO.N,GND*%
X123365000Y-103300000D03*
D32*
%TO.P,J1,S1,SHIELD*%
X124280000Y-104370000D03*
X124280000Y-95730000D03*
D33*
X128460000Y-104370000D03*
X128460000Y-95730000D03*
%TD*%
D34*
%TO.P,L1,1,1*%
%TO.N,Net-(C19-Pad2)*%
X99550000Y-83930000D03*
%TO.P,L1,2,2*%
%TO.N,3V3_BUCK*%
X99550000Y-86730000D03*
%TD*%
D35*
%TO.P,D1,1,VDD*%
%TO.N,3V3_BUCK*%
X102500000Y-110650000D03*
%TO.P,D1,2,DOUT*%
%TO.N,DOUT*%
X102500000Y-113950000D03*
%TO.P,D1,3,VSS*%
%TO.N,GND*%
X107400000Y-113950000D03*
%TO.P,D1,4,DIN*%
%TO.N,GPIO25*%
X107400000Y-110650000D03*
%TD*%
D12*
%TO.P,C8,1*%
%TO.N,GND*%
X105700000Y-91950000D03*
%TO.P,C8,2*%
%TO.N,3V3_BUCK*%
X105700000Y-92910000D03*
%TD*%
D19*
%TO.P,C12,1*%
%TO.N,GND*%
X111725000Y-103050000D03*
%TO.P,C12,2*%
%TO.N,3V3_BUCK*%
X110175000Y-103050000D03*
%TD*%
D16*
%TO.P,C19,1*%
%TO.N,Net-(C19-Pad1)*%
X102650000Y-85305000D03*
%TO.P,C19,2*%
%TO.N,Net-(C19-Pad2)*%
X102650000Y-83755000D03*
%TD*%
D17*
%TO.P,C37,1*%
%TO.N,3V3_BUCK*%
X100450000Y-110675000D03*
%TO.P,C37,2*%
%TO.N,GND*%
X100450000Y-112225000D03*
%TD*%
D36*
%TO.P,Y1,1,CRYSTAL_1*%
%TO.N,XIN*%
X99450000Y-90400000D03*
%TO.P,Y1,2,GND_1*%
%TO.N,GND*%
X97600000Y-90400000D03*
%TO.P,Y1,3,CRYSTAL_2*%
%TO.N,Net-(C3-Pad1)*%
X97600000Y-91950000D03*
%TO.P,Y1,4,GND_2*%
%TO.N,GND*%
X99450000Y-91950000D03*
%TD*%
D19*
%TO.P,C25,1*%
%TO.N,ALIM*%
X87500000Y-93675000D03*
%TO.P,C25,2*%
%TO.N,GND*%
X85950000Y-93675000D03*
%TD*%
D37*
%TO.P,U4,1,OUT1*%
%TO.N,3V3_BUCK*%
X116150000Y-101850001D03*
%TO.P,U4,2,IN*%
%TO.N,V_USB*%
X116150000Y-102500000D03*
%TO.P,U4,3,OUT2*%
%TO.N,unconnected-(U4-Pad3)*%
X116150000Y-103149999D03*
%TO.P,U4,4,EN2*%
%TO.N,unconnected-(U4-Pad4)*%
X118250000Y-103149999D03*
%TO.P,U4,5,GND*%
%TO.N,GND*%
X118250000Y-102500000D03*
%TO.P,U4,6,EN1*%
%TO.N,V_USB*%
X118250000Y-101850001D03*
D38*
%TO.P,U4,7,EPAD*%
%TO.N,GND*%
X117200000Y-102500000D03*
%TD*%
D39*
%TO.P,Q1,1,G*%
%TO.N,GND*%
X113350000Y-81500000D03*
%TO.P,Q1,2,S*%
%TO.N,ALIM*%
X115250000Y-81500000D03*
%TO.P,Q1,3,D*%
%TO.N,/VM*%
X114300000Y-79400000D03*
%TD*%
D16*
%TO.P,C26,1*%
%TO.N,/CP*%
X89100000Y-95350000D03*
%TO.P,C26,2*%
%TO.N,ALIM*%
X89100000Y-93800000D03*
%TD*%
D11*
%TO.P,C7,1*%
%TO.N,GND*%
X101812500Y-107360000D03*
%TO.P,C7,2*%
%TO.N,3V3_BUCK*%
X101812500Y-106400000D03*
%TD*%
D15*
%TO.P,C24,1*%
%TO.N,GND*%
X93800000Y-92975000D03*
%TO.P,C24,2*%
%TO.N,DRV_BUCK_OUT*%
X95350000Y-92975000D03*
%TD*%
D17*
%TO.P,C15,1*%
%TO.N,ALIM*%
X108750000Y-83755000D03*
%TO.P,C15,2*%
%TO.N,GND*%
X108750000Y-85305000D03*
%TD*%
D12*
%TO.P,C3,1*%
%TO.N,Net-(C3-Pad1)*%
X97475000Y-93245000D03*
%TO.P,C3,2*%
%TO.N,GND*%
X97475000Y-94205000D03*
%TD*%
D40*
%TO.P,J3,1*%
%TO.N,SWD*%
X96700000Y-113800000D03*
D41*
%TO.P,J3,2*%
%TO.N,SWCLK*%
X94903949Y-115596051D03*
%TD*%
D42*
%TO.P,U1,1,IOVDD*%
%TO.N,3V3_BUCK*%
X107550000Y-96162500D03*
%TO.P,U1,2,GPIO0*%
%TO.N,UART_TX*%
X107150000Y-96162500D03*
%TO.P,U1,3,GPIO1*%
%TO.N,UART_RX*%
X106750000Y-96162500D03*
%TO.P,U1,4,GPIO2*%
%TO.N,GPIO2*%
X106350000Y-96162500D03*
%TO.P,U1,5,GPIO3*%
%TO.N,GPIO3*%
X105950000Y-96162500D03*
%TO.P,U1,6,GPIO4*%
%TO.N,I2C_SDA*%
X105550000Y-96162500D03*
%TO.P,U1,7,GPIO5*%
%TO.N,I2C_SCL*%
X105150000Y-96162500D03*
%TO.P,U1,8,GPIO6*%
%TO.N,nSLEEP*%
X104750000Y-96162500D03*
%TO.P,U1,9,GPIO7*%
%TO.N,nFAULT*%
X104350000Y-96162500D03*
%TO.P,U1,10,IOVDD*%
%TO.N,3V3_BUCK*%
X103950000Y-96162500D03*
%TO.P,U1,11,GPIO8*%
%TO.N,DRVOFF*%
X103550000Y-96162500D03*
%TO.P,U1,12,GPIO9*%
%TO.N,GPIO9*%
X103150000Y-96162500D03*
%TO.P,U1,13,GPIO10*%
%TO.N,INLC*%
X102750000Y-96162500D03*
%TO.P,U1,14,GPIO11*%
%TO.N,INHC*%
X102350000Y-96162500D03*
D43*
%TO.P,U1,15,GPIO12*%
%TO.N,INLB*%
X101512500Y-97000000D03*
%TO.P,U1,16,GPIO13*%
%TO.N,INHB*%
X101512500Y-97400000D03*
%TO.P,U1,17,GPIO14*%
%TO.N,INLA*%
X101512500Y-97800000D03*
%TO.P,U1,18,GPIO15*%
%TO.N,INHA*%
X101512500Y-98200000D03*
%TO.P,U1,19,TESTEN*%
%TO.N,GND*%
X101512500Y-98600000D03*
%TO.P,U1,20,XIN*%
%TO.N,XIN*%
X101512500Y-99000000D03*
%TO.P,U1,21,XOUT*%
%TO.N,XOUT*%
X101512500Y-99400000D03*
%TO.P,U1,22,IOVDD*%
%TO.N,3V3_BUCK*%
X101512500Y-99800000D03*
%TO.P,U1,23,DVDD*%
%TO.N,+1V1*%
X101512500Y-100200000D03*
%TO.P,U1,24,SWCLK*%
%TO.N,SWCLK*%
X101512500Y-100600000D03*
%TO.P,U1,25,SWD*%
%TO.N,SWD*%
X101512500Y-101000000D03*
%TO.P,U1,26,RUN*%
%TO.N,RUN*%
X101512500Y-101400000D03*
%TO.P,U1,27,GPIO16*%
%TO.N,SPI_MISO*%
X101512500Y-101800000D03*
%TO.P,U1,28,GPIO17*%
%TO.N,SPI_SS*%
X101512500Y-102200000D03*
D42*
%TO.P,U1,29,GPIO18*%
%TO.N,SPI_SCK*%
X102350000Y-103037500D03*
%TO.P,U1,30,GPIO19*%
%TO.N,SPI_MOSI*%
X102750000Y-103037500D03*
%TO.P,U1,31,GPIO20*%
%TO.N,GPIO20*%
X103150000Y-103037500D03*
%TO.P,U1,32,GPIO21*%
%TO.N,GPIO21*%
X103550000Y-103037500D03*
%TO.P,U1,33,IOVDD*%
%TO.N,3V3_BUCK*%
X103950000Y-103037500D03*
%TO.P,U1,34,GPIO22*%
%TO.N,GPIO22*%
X104350000Y-103037500D03*
%TO.P,U1,35,GPIO23*%
%TO.N,unconnected-(U1-Pad35)*%
X104750000Y-103037500D03*
%TO.P,U1,36,GPIO24*%
%TO.N,GPIO24*%
X105150000Y-103037500D03*
%TO.P,U1,37,GPIO25*%
%TO.N,GPIO25*%
X105550000Y-103037500D03*
%TO.P,U1,38,GPIO26_ADC0*%
%TO.N,Net-(R6-Pad2)*%
X105950000Y-103037500D03*
%TO.P,U1,39,GPIO27_ADC1*%
%TO.N,Net-(R7-Pad2)*%
X106350000Y-103037500D03*
%TO.P,U1,40,GPIO28_ADC2*%
%TO.N,Net-(R8-Pad2)*%
X106750000Y-103037500D03*
%TO.P,U1,41,GPIO29_ADC3*%
%TO.N,VREF*%
X107150000Y-103037500D03*
%TO.P,U1,42,IOVDD*%
%TO.N,3V3_BUCK*%
X107550000Y-103037500D03*
D43*
%TO.P,U1,43,ADC_AVDD*%
X108387500Y-102200000D03*
%TO.P,U1,44,VREG_IN*%
X108387500Y-101800000D03*
%TO.P,U1,45,VREG_VOUT*%
%TO.N,+1V1*%
X108387500Y-101400000D03*
%TO.P,U1,46,USB_DM*%
%TO.N,/D-*%
X108387500Y-101000000D03*
%TO.P,U1,47,USB_DP*%
%TO.N,/D+*%
X108387500Y-100600000D03*
%TO.P,U1,48,USB_VDD*%
%TO.N,3V3_BUCK*%
X108387500Y-100200000D03*
%TO.P,U1,49,IOVDD*%
X108387500Y-99800000D03*
%TO.P,U1,50,DVDD*%
%TO.N,+1V1*%
X108387500Y-99400000D03*
%TO.P,U1,51,QSPI_SD3*%
%TO.N,QSPI_SD3*%
X108387500Y-99000000D03*
%TO.P,U1,52,QSPI_SCLK*%
%TO.N,QSPI_CLK*%
X108387500Y-98600000D03*
%TO.P,U1,53,QSPI_SD0*%
%TO.N,QSPI_SD0*%
X108387500Y-98200000D03*
%TO.P,U1,54,QSPI_SD2*%
%TO.N,QSPI_SD2*%
X108387500Y-97800000D03*
%TO.P,U1,55,QSPI_SD1*%
%TO.N,QSPI_SD1*%
X108387500Y-97400000D03*
%TO.P,U1,56,QSPI_SS*%
%TO.N,QSPI_SS*%
X108387500Y-97000000D03*
D44*
%TO.P,U1,57,GND*%
%TO.N,GND*%
X104950000Y-99600000D03*
%TD*%
D21*
%TO.P,J2,12*%
%TO.N,GPIO9*%
X98840000Y-120990000D03*
%TO.P,J2,11*%
%TO.N,GPIO22*%
X98840000Y-118450000D03*
%TO.P,J2,10*%
%TO.N,GPIO3*%
X101380000Y-120990000D03*
%TO.P,J2,9*%
%TO.N,GND*%
X101380000Y-118450000D03*
%TO.P,J2,8*%
%TO.N,GPIO2*%
X103920000Y-120990000D03*
%TO.P,J2,7*%
%TO.N,GPIO24*%
X103920000Y-118450000D03*
%TO.P,J2,6*%
%TO.N,GPIO20*%
X106460000Y-120990000D03*
%TO.P,J2,5*%
%TO.N,GPIO25*%
X106460000Y-118450000D03*
%TO.P,J2,4*%
%TO.N,GPIO21*%
X109000000Y-120990000D03*
%TO.P,J2,3*%
%TO.N,V_USB*%
X109000000Y-118450000D03*
%TO.P,J2,2*%
%TO.N,GND*%
X111540000Y-120990000D03*
D20*
%TO.P,J2,1*%
%TO.N,3V3_BUCK*%
X111540000Y-118450000D03*
%TD*%
D23*
%TO.P,R16,1*%
%TO.N,3V3_BUCK*%
X88550000Y-105850000D03*
%TO.P,R16,2*%
%TO.N,nFAULT*%
X87590000Y-105850000D03*
%TD*%
D18*
%TO.P,H7,1,1*%
%TO.N,DRV_BUCK_OUT*%
X86950000Y-89900000D03*
%TD*%
D12*
%TO.P,R6,1*%
%TO.N,Current_A*%
X93750000Y-105270000D03*
%TO.P,R6,2*%
%TO.N,Net-(R6-Pad2)*%
X93750000Y-106230000D03*
%TD*%
D22*
%TO.P,H11,1,1*%
%TO.N,OUTB*%
X81740000Y-100030000D03*
%TD*%
D12*
%TO.P,R5,1*%
%TO.N,QSPI_SS*%
X120800000Y-95450000D03*
%TO.P,R5,2*%
%TO.N,3V3_BUCK*%
X120800000Y-96410000D03*
%TD*%
D45*
%TO.P,SW1,1,1*%
%TO.N,GND*%
X127300000Y-91600000D03*
%TO.P,SW1,2,2*%
%TO.N,Net-(R4-Pad1)*%
X120262500Y-91613468D03*
%TD*%
D22*
%TO.P,H10,1,1*%
%TO.N,OUTA*%
X82440000Y-95030000D03*
%TD*%
D46*
%TO.P,U3,1,RT*%
%TO.N,Net-(C16-Pad1)*%
X106475000Y-85338000D03*
D47*
X106300000Y-85512500D03*
D48*
%TO.P,U3,2,PGOOD*%
%TO.N,unconnected-(U3-Pad2)*%
X106550000Y-84850000D03*
%TO.P,U3,3,EN/UVLO*%
%TO.N,ALIM*%
X106550000Y-84350000D03*
D46*
%TO.P,U3,4,VIN*%
X106475000Y-83862000D03*
D49*
X106300000Y-83687500D03*
%TO.P,U3,5,SW*%
%TO.N,Net-(C19-Pad2)*%
X105000000Y-83687500D03*
D46*
X104825000Y-83862000D03*
D48*
%TO.P,U3,6,BOOT*%
%TO.N,Net-(C19-Pad1)*%
X104750000Y-84350000D03*
%TO.P,U3,7,VCC*%
%TO.N,Net-(C16-Pad1)*%
X104750000Y-84850000D03*
D46*
%TO.P,U3,8,FB*%
%TO.N,3V3_BUCK*%
X104825000Y-85338000D03*
D47*
X105000000Y-85512500D03*
D50*
%TO.P,U3,9,GND*%
%TO.N,GND*%
X105650000Y-85150000D03*
%TD*%
D12*
%TO.P,R14,1*%
%TO.N,3V3_BUCK*%
X113500000Y-87720000D03*
%TO.P,R14,2*%
%TO.N,I2C_SDA*%
X113500000Y-88680000D03*
%TD*%
%TO.P,R4,1*%
%TO.N,Net-(R4-Pad1)*%
X118600000Y-91620000D03*
%TO.P,R4,2*%
%TO.N,QSPI_SS*%
X118600000Y-92580000D03*
%TD*%
D15*
%TO.P,C17,1*%
%TO.N,V_USB*%
X119000000Y-104850000D03*
%TO.P,C17,2*%
%TO.N,GND*%
X120550000Y-104850000D03*
%TD*%
D17*
%TO.P,C16,1*%
%TO.N,Net-(C16-Pad1)*%
X108700000Y-88150000D03*
%TO.P,C16,2*%
%TO.N,GND*%
X108700000Y-89700000D03*
%TD*%
D51*
%TO.P,U5,1,NC*%
%TO.N,unconnected-(U5-Pad1)*%
X92510693Y-97601300D03*
%TO.P,U5,2,AGND*%
%TO.N,GND*%
X92010567Y-97601300D03*
%TO.P,U5,3,FB_BK*%
%TO.N,DRV_BUCK_OUT*%
X91510441Y-97601300D03*
%TO.P,U5,4,GND_BK*%
%TO.N,GND*%
X91010315Y-97601300D03*
%TO.P,U5,5,SW_BK*%
%TO.N,/SW_BK*%
X90510189Y-97601300D03*
%TO.P,U5,6,CPL*%
%TO.N,Net-(C27-Pad2)*%
X90010063Y-97601300D03*
%TO.P,U5,7,CPH*%
%TO.N,Net-(C27-Pad1)*%
X89509937Y-97601300D03*
%TO.P,U5,8,CP*%
%TO.N,/CP*%
X89009811Y-97601300D03*
%TO.P,U5,9,VM*%
%TO.N,ALIM*%
X88509685Y-97601300D03*
%TO.P,U5,10,VM*%
X88009559Y-97601300D03*
%TO.P,U5,11,VM*%
X87509433Y-97601300D03*
%TO.P,U5,12,PGND*%
%TO.N,GND*%
X87009307Y-97601300D03*
D52*
%TO.P,U5,13,OUTA*%
%TO.N,OUTA*%
X86308000Y-98299559D03*
%TO.P,U5,14,OUTA*%
X86308000Y-98799685D03*
%TO.P,U5,15,PGND*%
%TO.N,GND*%
X86308000Y-99299811D03*
%TO.P,U5,16,OUTB*%
%TO.N,OUTB*%
X86308000Y-99799937D03*
%TO.P,U5,17,OUTB*%
X86308000Y-100300063D03*
%TO.P,U5,18,PGND*%
%TO.N,GND*%
X86308000Y-100800189D03*
%TO.P,U5,19,OUTC*%
%TO.N,OUTC*%
X86308000Y-101300315D03*
%TO.P,U5,20,OUTC*%
X86308000Y-101800441D03*
D51*
%TO.P,U5,21,DRVOFF*%
%TO.N,DRVOFF*%
X87009307Y-102498700D03*
%TO.P,U5,22,NFAULT*%
%TO.N,nFAULT*%
X87509433Y-102498700D03*
%TO.P,U5,23,NSLEEP*%
%TO.N,nSLEEP*%
X88009559Y-102498700D03*
%TO.P,U5,24,NC*%
%TO.N,unconnected-(U5-Pad24)*%
X88509685Y-102498700D03*
%TO.P,U5,25,AVDD*%
%TO.N,3V3_BUCK*%
X89009811Y-102498700D03*
%TO.P,U5,26,AGND*%
%TO.N,GND*%
X89509937Y-102498700D03*
%TO.P,U5,27,INHA*%
%TO.N,INHA*%
X90010063Y-102498700D03*
%TO.P,U5,28,INLA*%
%TO.N,INLA*%
X90510189Y-102498700D03*
%TO.P,U5,29,INHB*%
%TO.N,INHB*%
X91010315Y-102498700D03*
%TO.P,U5,30,INLB*%
%TO.N,INLB*%
X91510441Y-102498700D03*
%TO.P,U5,31,INHC*%
%TO.N,INHC*%
X92010567Y-102498700D03*
%TO.P,U5,32,INLC*%
%TO.N,INLC*%
X92510693Y-102498700D03*
D52*
%TO.P,U5,33,SDO*%
%TO.N,SPI_MOSI*%
X93212000Y-101800441D03*
%TO.P,U5,34,SDI*%
%TO.N,SPI_MISO*%
X93212000Y-101300315D03*
%TO.P,U5,35,SCLK*%
%TO.N,SPI_SCK*%
X93212000Y-100800189D03*
%TO.P,U5,36,NSCS*%
%TO.N,SPI_SS*%
X93212000Y-100300063D03*
%TO.P,U5,37,VREF/ILIM*%
%TO.N,VREF*%
X93212000Y-99799937D03*
%TO.P,U5,38,SOC*%
%TO.N,Current_C*%
X93212000Y-99299811D03*
%TO.P,U5,39,SOB*%
%TO.N,Current_B*%
X93212000Y-98799685D03*
%TO.P,U5,40,SOA*%
%TO.N,Current_A*%
X93212000Y-98299559D03*
D53*
%TO.P,U5,41,EPAD*%
%TO.N,GND*%
X89760000Y-100050000D03*
%TD*%
D24*
%TO.P,D2,1,K*%
%TO.N,GND*%
X123925000Y-88800000D03*
%TO.P,D2,2,A*%
%TO.N,Net-(D2-Pad2)*%
X122350000Y-88800000D03*
%TD*%
D12*
%TO.P,C11,1*%
%TO.N,GND*%
X104200000Y-91950000D03*
%TO.P,C11,2*%
%TO.N,3V3_BUCK*%
X104200000Y-92910000D03*
%TD*%
%TO.P,R15,1*%
%TO.N,3V3_BUCK*%
X112250000Y-87720000D03*
%TO.P,R15,2*%
%TO.N,I2C_SCL*%
X112250000Y-88680000D03*
%TD*%
%TO.P,R7,1*%
%TO.N,Current_B*%
X95950000Y-105270000D03*
%TO.P,R7,2*%
%TO.N,Net-(R7-Pad2)*%
X95950000Y-106230000D03*
%TD*%
D54*
%TO.P,J4,1*%
%TO.N,UART_TX*%
X110948439Y-93701562D03*
D55*
%TO.P,J4,2*%
%TO.N,UART_RX*%
X112744490Y-91905511D03*
%TD*%
D12*
%TO.P,C18,1*%
%TO.N,GND*%
X119399100Y-95450000D03*
%TO.P,C18,2*%
%TO.N,3V3_BUCK*%
X119399100Y-96410000D03*
%TD*%
D23*
%TO.P,R1,1*%
%TO.N,USB_D+*%
X113580000Y-99500000D03*
%TO.P,R1,2*%
%TO.N,/D+*%
X112620000Y-99500000D03*
%TD*%
D51*
%TO.P,U2,1,~{CS}*%
%TO.N,QSPI_SS*%
X116550001Y-94504001D03*
%TO.P,U2,2,DOIO1*%
%TO.N,QSPI_SD1*%
X116050000Y-94504001D03*
%TO.P,U2,3,~{WP}_IO2*%
%TO.N,QSPI_SD2*%
X115550000Y-94504001D03*
%TO.P,U2,4,GND*%
%TO.N,GND*%
X115049999Y-94504001D03*
%TO.P,U2,5,DIIO0*%
%TO.N,QSPI_SD0*%
X115049999Y-97295999D03*
%TO.P,U2,6,CLK*%
%TO.N,QSPI_CLK*%
X115550000Y-97295999D03*
%TO.P,U2,7,~{HOLD}_IO3*%
%TO.N,QSPI_SD3*%
X116050000Y-97295999D03*
%TO.P,U2,8,VCC*%
%TO.N,3V3_BUCK*%
X116550001Y-97295999D03*
D56*
%TO.P,U2,9,EPAD*%
%TO.N,unconnected-(U2-Pad9)*%
X115800000Y-95900000D03*
%TD*%
D11*
%TO.P,C30,1*%
%TO.N,3V3_BUCK*%
X102620000Y-92910000D03*
%TO.P,C30,2*%
%TO.N,GND*%
X102620000Y-91950000D03*
%TD*%
D14*
%TO.P,C9,1*%
%TO.N,GND*%
X97340000Y-96805000D03*
%TO.P,C9,2*%
%TO.N,3V3_BUCK*%
X98300000Y-96805000D03*
%TD*%
D45*
%TO.P,SW2,1,1*%
%TO.N,GND*%
X127300000Y-108300000D03*
%TO.P,SW2,2,2*%
%TO.N,Net-(R9-Pad1)*%
X120262500Y-108313468D03*
%TD*%
D12*
%TO.P,C20,1*%
%TO.N,GND*%
X117998200Y-95450000D03*
%TO.P,C20,2*%
%TO.N,3V3_BUCK*%
X117998200Y-96410000D03*
%TD*%
D11*
%TO.P,C13,1*%
%TO.N,GND*%
X108600000Y-106810000D03*
%TO.P,C13,2*%
%TO.N,3V3_BUCK*%
X108600000Y-105850000D03*
%TD*%
D23*
%TO.P,C5,1*%
%TO.N,GND*%
X113580000Y-101800000D03*
%TO.P,C5,2*%
%TO.N,+1V1*%
X112620000Y-101800000D03*
%TD*%
D14*
%TO.P,C4,1*%
%TO.N,GND*%
X97340000Y-99968332D03*
%TO.P,C4,2*%
%TO.N,+1V1*%
X98300000Y-99968332D03*
%TD*%
D57*
%TO.N,GND*%
X104183332Y-100100000D03*
X94850000Y-106500000D03*
X100450000Y-113150000D03*
X89300000Y-107400000D03*
X110150000Y-90100000D03*
X89116666Y-98950000D03*
X106150000Y-113850000D03*
X119150000Y-102500000D03*
X90533332Y-98950000D03*
X119700000Y-102500000D03*
X108950000Y-107550000D03*
X99500000Y-108900000D03*
X103800000Y-89700000D03*
X127300000Y-107350000D03*
X127250000Y-90650000D03*
X103800000Y-89100000D03*
X106250000Y-86500000D03*
X96900000Y-95500000D03*
X101550000Y-92000000D03*
X112400000Y-86000000D03*
X103500000Y-91250000D03*
X87700000Y-101150000D03*
X121550000Y-104600000D03*
X119350000Y-94750000D03*
X117150000Y-95450000D03*
X124100000Y-89800000D03*
X99000000Y-110700000D03*
X91950000Y-101150000D03*
X106700000Y-88800000D03*
X112600000Y-103050000D03*
X104950000Y-91250000D03*
X97350000Y-99150000D03*
X111384089Y-99609511D03*
X112400000Y-85400000D03*
X97050000Y-106550000D03*
X87850000Y-86750000D03*
X106100000Y-88800000D03*
X111000000Y-107150000D03*
X89116666Y-100050000D03*
X92750000Y-93000000D03*
X105600000Y-100100000D03*
X90533332Y-101150000D03*
X124950000Y-88850000D03*
X97340000Y-94890000D03*
X105600000Y-99000000D03*
X111000000Y-106600000D03*
X100450000Y-108050000D03*
X99450000Y-112200000D03*
X91950000Y-98950000D03*
X86500000Y-92650000D03*
X107550000Y-89400000D03*
X98650000Y-91950000D03*
X104183332Y-99000000D03*
X105450000Y-86500000D03*
X90533332Y-100050000D03*
X87700000Y-98950000D03*
X102500000Y-90500000D03*
X107550000Y-90000000D03*
X98400000Y-90400000D03*
X97650000Y-89600000D03*
X87700000Y-100050000D03*
X99300000Y-106550000D03*
X113600000Y-102450000D03*
X102400000Y-98600000D03*
X111450000Y-86800000D03*
X105650000Y-84050000D03*
X100000000Y-108450000D03*
X109100000Y-92150000D03*
X114150000Y-95200000D03*
X91950000Y-100050000D03*
X99000000Y-110000000D03*
X99450000Y-91200000D03*
X126400000Y-91600000D03*
X109450000Y-86800000D03*
X109650000Y-90550000D03*
X107250000Y-113000000D03*
X96468744Y-96018745D03*
X110850000Y-86800000D03*
X85450000Y-92650000D03*
X110050000Y-86800000D03*
X89116666Y-101150000D03*
X90300000Y-108300000D03*
X110600000Y-89700000D03*
X109100000Y-91350000D03*
X121550000Y-105150000D03*
X126450000Y-108300000D03*
%TO.N,+1V1*%
X105600000Y-101500000D03*
X111800000Y-101400000D03*
%TO.N,3V3_BUCK*%
X114550000Y-102150000D03*
X108850000Y-102950000D03*
X114388541Y-104488541D03*
X98836310Y-99063690D03*
X111170000Y-105520000D03*
X89009811Y-103409811D03*
X119050000Y-97200000D03*
X98300000Y-97650000D03*
X104563541Y-90126152D03*
X101050000Y-106549500D03*
X102100000Y-109750000D03*
X89009811Y-104340189D03*
X113500000Y-86800000D03*
X103000000Y-109750000D03*
X122650000Y-86700000D03*
X113950000Y-104950000D03*
X94650000Y-82950000D03*
X120750000Y-88800000D03*
X122150000Y-93350000D03*
X106650000Y-90600000D03*
X122200000Y-89900000D03*
X107750000Y-91450000D03*
X91400000Y-105500000D03*
X100450000Y-109750000D03*
X105663541Y-89626152D03*
X106125000Y-90064693D03*
X108850000Y-104550000D03*
X107561459Y-93138541D03*
X120750000Y-88000000D03*
X105025000Y-90564693D03*
X101650000Y-87950000D03*
X113388541Y-105488541D03*
X117350000Y-97800000D03*
X102450000Y-99800000D03*
X105799500Y-108300000D03*
X122150000Y-94150000D03*
X103350000Y-92900000D03*
X121100000Y-97250000D03*
X99550000Y-88000000D03*
X108850000Y-103750000D03*
X107100000Y-92700000D03*
X99300000Y-85350000D03*
X122200000Y-91500000D03*
X122150000Y-92550000D03*
X122200000Y-90700000D03*
X112250000Y-86800000D03*
X88550000Y-106700000D03*
X104365000Y-97347100D03*
X104950000Y-92900000D03*
X103095000Y-97347100D03*
X114988541Y-101688541D03*
X119650000Y-97200000D03*
X91400000Y-106300000D03*
X120500000Y-97250000D03*
X106200000Y-106650000D03*
X107111459Y-91038541D03*
X117788541Y-97338541D03*
X107400000Y-107600000D03*
%TO.N,Net-(C16-Pad1)*%
X108600000Y-86700000D03*
X103400000Y-86950000D03*
%TO.N,DRV_BUCK_OUT*%
X88550000Y-89900000D03*
X93101056Y-96051056D03*
%TO.N,Current_A*%
X93650000Y-104450000D03*
X94500000Y-96200500D03*
%TO.N,Current_B*%
X95950000Y-104450000D03*
X94500500Y-97199500D03*
%TO.N,Current_C*%
X94518744Y-97968744D03*
X98500000Y-104350000D03*
%TO.N,VREF*%
X107746800Y-105703200D03*
X99200000Y-103850000D03*
%TO.N,GPIO25*%
X105416068Y-104250000D03*
X107400000Y-109150000D03*
%TO.N,GPIO24*%
X104811518Y-104732622D03*
%TO.N,GPIO22*%
X104350000Y-104150000D03*
%TO.N,GPIO9*%
X102150000Y-93650000D03*
%TO.N,GPIO3*%
X106349006Y-93600000D03*
%TO.N,GPIO2*%
X106950000Y-93600000D03*
%TO.N,GPIO20*%
X103033932Y-104850000D03*
%TO.N,GPIO21*%
X103650000Y-104700000D03*
%TO.N,SWD*%
X100100000Y-101099500D03*
%TO.N,SWCLK*%
X98895180Y-100699500D03*
%TO.N,UART_TX*%
X107800500Y-94950000D03*
%TO.N,UART_RX*%
X107800500Y-94350000D03*
%TO.N,Net-(R6-Pad2)*%
X93750000Y-107100000D03*
X105820133Y-105703200D03*
%TO.N,Net-(R7-Pad2)*%
X106462355Y-105703200D03*
X95950000Y-107100000D03*
%TO.N,Net-(R8-Pad2)*%
X107104577Y-105800000D03*
X98150000Y-107100000D03*
%TO.N,RUN*%
X102450000Y-101400000D03*
X118600000Y-106650000D03*
%TO.N,nFAULT*%
X87550000Y-104000000D03*
X103920972Y-93885429D03*
%TO.N,I2C_SDA*%
X113500000Y-89550000D03*
X105246928Y-102202956D03*
X105749503Y-93600000D03*
%TO.N,I2C_SCL*%
X103931050Y-102200500D03*
X112250000Y-89500000D03*
X105150000Y-93600000D03*
%TO.N,nSLEEP*%
X104465239Y-93600000D03*
X88149503Y-104000000D03*
%TO.N,DRVOFF*%
X102750000Y-93650000D03*
X86950497Y-104000000D03*
%TO.N,INLC*%
X92797484Y-104649205D03*
X101550000Y-93650000D03*
%TO.N,INHC*%
X100950497Y-93650000D03*
X92197984Y-104651131D03*
%TO.N,INLB*%
X99949500Y-96298051D03*
X91598499Y-104646550D03*
%TO.N,INHB*%
X90998996Y-104646550D03*
X99949500Y-96897554D03*
%TO.N,INLA*%
X90399493Y-104646550D03*
X99949500Y-97497057D03*
%TO.N,INHA*%
X99952950Y-98096550D03*
X89800000Y-104650000D03*
%TO.N,SPI_MISO*%
X95396550Y-101400507D03*
X99400000Y-101700497D03*
%TO.N,SPI_SS*%
X95396550Y-100201501D03*
X99400000Y-102300000D03*
%TO.N,SPI_SCK*%
X95396550Y-100801004D03*
X101750497Y-104700000D03*
%TO.N,SPI_MOSI*%
X102350000Y-104700000D03*
X95400000Y-102000000D03*
%TO.N,QSPI_SD3*%
X111700000Y-99100000D03*
X116050000Y-98150000D03*
%TD*%
D58*
%TO.N,QSPI_SD3*%
X111600000Y-99000000D02*
X111700000Y-99100000D01*
X108387500Y-99000000D02*
X111600000Y-99000000D01*
D59*
%TO.N,GND*%
X106375000Y-88525000D02*
X106100000Y-88800000D01*
X85950000Y-93200000D02*
X85950000Y-93675000D01*
X110200000Y-106830000D02*
X110770000Y-106830000D01*
X102750000Y-89325000D02*
X103425000Y-89325000D01*
X106375000Y-87700000D02*
X106375000Y-88525000D01*
X124900000Y-88800000D02*
X124950000Y-88850000D01*
X86851300Y-97601300D02*
X85950000Y-96700000D01*
X105650000Y-85150000D02*
X105650000Y-85950000D01*
X108750000Y-85600000D02*
X109450000Y-86300000D01*
X123925000Y-88800000D02*
X124300000Y-88800000D01*
X106250000Y-87575000D02*
X106375000Y-87700000D01*
X112100000Y-85700000D02*
X112400000Y-85400000D01*
X110325000Y-111025000D02*
X107400000Y-113950000D01*
D60*
X111725000Y-103050000D02*
X112600000Y-103050000D01*
D58*
X97340000Y-95460000D02*
X96940000Y-95460000D01*
D59*
X127300000Y-90700000D02*
X127250000Y-90650000D01*
D60*
X113580000Y-101800000D02*
X113580000Y-102430000D01*
D58*
X102400000Y-98600000D02*
X103950000Y-98600000D01*
D59*
X99811250Y-109211250D02*
X99500000Y-108900000D01*
D58*
X119399100Y-94799100D02*
X119350000Y-94750000D01*
D59*
X87750000Y-110850000D02*
X90300000Y-108300000D01*
X108750000Y-85305000D02*
X108750000Y-85600000D01*
X104950000Y-91250000D02*
X104950000Y-91900000D01*
D58*
X97340000Y-100624166D02*
X98300000Y-101584166D01*
D59*
X100450000Y-112225000D02*
X99475000Y-112225000D01*
D58*
X115049999Y-94504001D02*
X114845999Y-94504001D01*
D59*
X87850000Y-86750000D02*
X87850000Y-85250000D01*
X123365000Y-103300000D02*
X123365000Y-103455000D01*
D58*
X92010567Y-97601300D02*
X92010567Y-98889433D01*
D59*
X123925000Y-89625000D02*
X124100000Y-89800000D01*
X127300000Y-108300000D02*
X126450000Y-108300000D01*
X99500000Y-109672500D02*
X99500000Y-109900000D01*
X105000000Y-91950000D02*
X105700000Y-91950000D01*
X108750000Y-85500000D02*
X110050000Y-86800000D01*
D58*
X97340000Y-96805000D02*
X97340000Y-95460000D01*
D59*
X108600000Y-106810000D02*
X110180000Y-106810000D01*
X108600000Y-106810000D02*
X108600000Y-107200000D01*
D58*
X97254999Y-96805000D02*
X97340000Y-96805000D01*
D59*
X123925000Y-88800000D02*
X124250000Y-88800000D01*
D58*
X89509937Y-102498700D02*
X89509937Y-101543271D01*
D59*
X106250000Y-113950000D02*
X106150000Y-113850000D01*
X125150000Y-112100000D02*
X125150000Y-114350000D01*
X101600000Y-91950000D02*
X103350000Y-91950000D01*
D58*
X92775000Y-92975000D02*
X92750000Y-93000000D01*
D59*
X101000000Y-91230000D02*
X101000000Y-91450000D01*
X108750000Y-85305000D02*
X108750000Y-85500000D01*
X102750000Y-89325000D02*
X103575000Y-89325000D01*
X125150000Y-114350000D02*
X122250000Y-117250000D01*
D58*
X86308000Y-99299811D02*
X87350189Y-99299811D01*
D59*
X99100000Y-109900000D02*
X99000000Y-110000000D01*
X100311250Y-108761250D02*
X100411250Y-108761250D01*
X110680000Y-106830000D02*
X111000000Y-107150000D01*
X110400000Y-111025000D02*
X110325000Y-111025000D01*
X103350000Y-91400000D02*
X103350000Y-91950000D01*
D58*
X93800000Y-92975000D02*
X92775000Y-92975000D01*
D60*
X111725000Y-104550000D02*
X111725000Y-103050000D01*
D58*
X87700000Y-98950000D02*
X87011999Y-98261999D01*
D59*
X111343600Y-99650000D02*
X111384089Y-99609511D01*
X89325000Y-107375000D02*
X89300000Y-107400000D01*
X108600000Y-107200000D02*
X108950000Y-107550000D01*
X127300000Y-91600000D02*
X126400000Y-91600000D01*
X99450000Y-91950000D02*
X99450000Y-91200000D01*
X110770000Y-106830000D02*
X111000000Y-106600000D01*
D61*
X105565000Y-81125000D02*
X112975000Y-81125000D01*
D58*
X87011999Y-97603992D02*
X87009307Y-97601300D01*
X92010567Y-98889433D02*
X91950000Y-98950000D01*
D59*
X105700000Y-85950000D02*
X106250000Y-86500000D01*
X90300000Y-107375000D02*
X89325000Y-107375000D01*
X99500000Y-109900000D02*
X99100000Y-109900000D01*
X107400000Y-113150000D02*
X107250000Y-113000000D01*
X87009307Y-97601300D02*
X86851300Y-97601300D01*
D58*
X94850000Y-105860000D02*
X94850000Y-106500000D01*
D59*
X90300000Y-107375000D02*
X90300000Y-108300000D01*
X101770000Y-91230000D02*
X102750000Y-90250000D01*
X124300000Y-88800000D02*
X127100000Y-91600000D01*
D61*
X112975000Y-81125000D02*
X113350000Y-81500000D01*
D58*
X96468744Y-96018745D02*
X97254999Y-96805000D01*
D59*
X105650000Y-86300000D02*
X105450000Y-86500000D01*
X105650000Y-85150000D02*
X105650000Y-84250000D01*
X103500000Y-91250000D02*
X103350000Y-91400000D01*
X100450000Y-112225000D02*
X100450000Y-113150000D01*
X118250000Y-102500000D02*
X119150000Y-102500000D01*
X110180000Y-106810000D02*
X110200000Y-106830000D01*
X99450000Y-91950000D02*
X98650000Y-91950000D01*
X99961250Y-109211250D02*
X99811250Y-109211250D01*
X120550000Y-104850000D02*
X121300000Y-104850000D01*
X101000000Y-91450000D02*
X101550000Y-92000000D01*
X119150000Y-102500000D02*
X119700000Y-102500000D01*
D61*
X102890000Y-78450000D02*
X105565000Y-81125000D01*
D58*
X86308000Y-100800189D02*
X87350189Y-100800189D01*
D59*
X123925000Y-88800000D02*
X123925000Y-89625000D01*
X123925000Y-88800000D02*
X124900000Y-88800000D01*
D58*
X99250000Y-106500000D02*
X99300000Y-106550000D01*
D59*
X112100000Y-85700000D02*
X112400000Y-86000000D01*
X99500000Y-110650000D02*
X99500000Y-111275000D01*
D58*
X97340000Y-99968332D02*
X97340000Y-100624166D01*
D59*
X101000000Y-91230000D02*
X101770000Y-91230000D01*
X124250000Y-111200000D02*
X125150000Y-112100000D01*
X123365000Y-103455000D02*
X124280000Y-104370000D01*
D58*
X87011999Y-98261999D02*
X87011999Y-97603992D01*
D59*
X106375000Y-87700000D02*
X106375000Y-88475000D01*
X85950000Y-96700000D02*
X85950000Y-95325000D01*
D58*
X99250000Y-105860000D02*
X99250000Y-106500000D01*
D59*
X85950000Y-95325000D02*
X85950000Y-93150000D01*
X106250000Y-86500000D02*
X106250000Y-87575000D01*
X104950000Y-91900000D02*
X105000000Y-91950000D01*
X109450000Y-86300000D02*
X109450000Y-86800000D01*
D58*
X97050000Y-105860000D02*
X97050000Y-106550000D01*
D59*
X110200000Y-106830000D02*
X110680000Y-106830000D01*
D58*
X117998200Y-95450000D02*
X117150000Y-95450000D01*
D59*
X121250000Y-104850000D02*
X121550000Y-105150000D01*
X124250000Y-111200000D02*
X126450000Y-109000000D01*
X97650000Y-90350000D02*
X97600000Y-90400000D01*
X101812500Y-107360000D02*
X100811250Y-108361250D01*
X128460000Y-95730000D02*
X124280000Y-95730000D01*
X111050000Y-86400000D02*
X111450000Y-86800000D01*
X127100000Y-91600000D02*
X127300000Y-91600000D01*
X124250000Y-88800000D02*
X125050000Y-88000000D01*
X103425000Y-89325000D02*
X103800000Y-89700000D01*
X103575000Y-89325000D02*
X103800000Y-89100000D01*
D58*
X97340000Y-96805000D02*
X97340000Y-98386666D01*
D59*
X111050000Y-85700000D02*
X111050000Y-86400000D01*
D58*
X102400000Y-98600000D02*
X101512500Y-98600000D01*
D59*
X108700000Y-89700000D02*
X107850000Y-89700000D01*
X87750000Y-117250000D02*
X87750000Y-110850000D01*
X100450000Y-108050000D02*
X100761250Y-108361250D01*
X123365000Y-96800000D02*
X123365000Y-96645000D01*
X124280000Y-104370000D02*
X128460000Y-104370000D01*
X126450000Y-109000000D02*
X126450000Y-108300000D01*
X110800000Y-99650000D02*
X111343600Y-99650000D01*
X100411250Y-108761250D02*
X99961250Y-109211250D01*
X121300000Y-104850000D02*
X121550000Y-104600000D01*
D58*
X99300000Y-106550000D02*
X100110000Y-107360000D01*
X89509937Y-101543271D02*
X89116666Y-101150000D01*
X91010315Y-97601300D02*
X91010315Y-98473017D01*
X91010315Y-98473017D02*
X90533332Y-98950000D01*
X97340000Y-98386666D02*
X97340000Y-99968332D01*
D59*
X101812500Y-107360000D02*
X103525000Y-107360000D01*
X128460000Y-104370000D02*
X128460000Y-95730000D01*
D58*
X87350189Y-99299811D02*
X87700000Y-98950000D01*
D60*
X113580000Y-102430000D02*
X113600000Y-102450000D01*
D59*
X102750000Y-90250000D02*
X102750000Y-89325000D01*
X127300000Y-91600000D02*
X127300000Y-90700000D01*
X99475000Y-112225000D02*
X99450000Y-112200000D01*
D58*
X98300000Y-101584166D02*
X98300000Y-103200000D01*
D59*
X97600000Y-90400000D02*
X98400000Y-90400000D01*
X99050000Y-110650000D02*
X99000000Y-110700000D01*
X100811250Y-108361250D02*
X100411250Y-108761250D01*
X118250000Y-102500000D02*
X117200000Y-102500000D01*
X125050000Y-88000000D02*
X125050000Y-85550000D01*
D58*
X119399100Y-95450000D02*
X119399100Y-94799100D01*
X97340000Y-94340000D02*
X97475000Y-94205000D01*
X117998200Y-95450000D02*
X119399100Y-95450000D01*
D59*
X101550000Y-92000000D02*
X101600000Y-91950000D01*
X99500000Y-111275000D02*
X100450000Y-112225000D01*
X111050000Y-86600000D02*
X110850000Y-86800000D01*
X100000000Y-108450000D02*
X100311250Y-108761250D01*
D58*
X114845999Y-94504001D02*
X114150000Y-95200000D01*
D59*
X107400000Y-113950000D02*
X106250000Y-113950000D01*
X111050000Y-85700000D02*
X111050000Y-86600000D01*
X107850000Y-89700000D02*
X107550000Y-89400000D01*
D58*
X96940000Y-95460000D02*
X96900000Y-95500000D01*
D60*
X112600000Y-103050000D02*
X113000000Y-103050000D01*
D59*
X106375000Y-88475000D02*
X106700000Y-88800000D01*
X120550000Y-104850000D02*
X121250000Y-104850000D01*
D58*
X100110000Y-107360000D02*
X101812500Y-107360000D01*
D59*
X103350000Y-91950000D02*
X105000000Y-91950000D01*
X105650000Y-85950000D02*
X105700000Y-85950000D01*
X123365000Y-96645000D02*
X124280000Y-95730000D01*
X107850000Y-89700000D02*
X107550000Y-90000000D01*
X99961250Y-109211250D02*
X99500000Y-109672500D01*
X86500000Y-92650000D02*
X85950000Y-93200000D01*
X87850000Y-85250000D02*
X87750000Y-85150000D01*
X125050000Y-85550000D02*
X122250000Y-82750000D01*
X107400000Y-113950000D02*
X107400000Y-113150000D01*
X105650000Y-85950000D02*
X105650000Y-86300000D01*
D58*
X87350189Y-100800189D02*
X87700000Y-101150000D01*
D59*
X100761250Y-108361250D02*
X100811250Y-108361250D01*
X111050000Y-85700000D02*
X112100000Y-85700000D01*
D60*
X113000000Y-103050000D02*
X113600000Y-102450000D01*
D59*
X97650000Y-89600000D02*
X97650000Y-90350000D01*
X99500000Y-110650000D02*
X99050000Y-110650000D01*
X127300000Y-108300000D02*
X127300000Y-107350000D01*
X99500000Y-109900000D02*
X99500000Y-110650000D01*
D58*
X97340000Y-95460000D02*
X97340000Y-94340000D01*
D59*
X85950000Y-93150000D02*
X85450000Y-92650000D01*
D58*
%TO.N,+1V1*%
X101512500Y-100200000D02*
X102044975Y-100200000D01*
X111800000Y-101400000D02*
X112220000Y-101400000D01*
X109590000Y-99400000D02*
X109840000Y-99650000D01*
X101512500Y-100200000D02*
X98531668Y-100200000D01*
X106850000Y-101500000D02*
X106900000Y-101450000D01*
X103050000Y-101205025D02*
X103050000Y-101500000D01*
X112220000Y-101400000D02*
X112620000Y-101800000D01*
X103050000Y-101500000D02*
X106850000Y-101500000D01*
X102044975Y-100200000D02*
X103050000Y-101205025D01*
X106900000Y-101450000D02*
X106900000Y-99400000D01*
X98531668Y-100200000D02*
X98300000Y-99968332D01*
X108387500Y-99400000D02*
X109590000Y-99400000D01*
X108387500Y-101400000D02*
X111800000Y-101400000D01*
X106900000Y-99400000D02*
X108387500Y-99400000D01*
%TO.N,XIN*%
X99450000Y-90400000D02*
X100670000Y-90400000D01*
X100390000Y-91340000D02*
X100390000Y-92760000D01*
X100670000Y-90400000D02*
X100825000Y-90245000D01*
X99450000Y-98300000D02*
X100150000Y-99000000D01*
X99450000Y-90400000D02*
X100390000Y-91340000D01*
X99450000Y-93700000D02*
X99450000Y-98300000D01*
X100390000Y-92760000D02*
X99450000Y-93700000D01*
X100150000Y-99000000D02*
X101512500Y-99000000D01*
%TO.N,Net-(C3-Pad1)*%
X97475000Y-93245000D02*
X97475000Y-92075000D01*
X97475000Y-92075000D02*
X97600000Y-91950000D01*
X97475000Y-93245000D02*
X98775000Y-93245000D01*
%TO.N,3V3_BUCK*%
X111170000Y-105870000D02*
X112380000Y-105870000D01*
D60*
X99550000Y-86730000D02*
X99550000Y-88000000D01*
X104825000Y-87700000D02*
X104825000Y-85687500D01*
D59*
X103850000Y-106400000D02*
X101812500Y-106400000D01*
D60*
X106700000Y-91450000D02*
X107111459Y-91038541D01*
D58*
X100475000Y-110650000D02*
X102500000Y-110650000D01*
D59*
X90925000Y-105825000D02*
X91400000Y-106300000D01*
D58*
X122050000Y-92450000D02*
X122150000Y-92550000D01*
X110175000Y-103050000D02*
X110175000Y-104550000D01*
X121700000Y-95700000D02*
X120990000Y-96410000D01*
X113000000Y-105250000D02*
X113150000Y-105250000D01*
D60*
X94650000Y-81300000D02*
X94950000Y-81000000D01*
D58*
X108387500Y-102200000D02*
X109600000Y-102200000D01*
X109600000Y-102200000D02*
X110175000Y-102775000D01*
D60*
X105677193Y-90462500D02*
X105252193Y-90037500D01*
D58*
X104150000Y-104907107D02*
X104150000Y-104492893D01*
D60*
X101825000Y-87775000D02*
X101650000Y-87950000D01*
D58*
X110180000Y-105850000D02*
X110200000Y-105870000D01*
D59*
X116550001Y-97295999D02*
X116845999Y-97295999D01*
D58*
X107550000Y-104800000D02*
X107550000Y-103037500D01*
X103510000Y-96932100D02*
X103095000Y-97347100D01*
X101812500Y-106400000D02*
X103525000Y-106400000D01*
D59*
X105610000Y-107360000D02*
X105290000Y-107360000D01*
D58*
X101512500Y-99800000D02*
X102450000Y-99800000D01*
X101812500Y-106400000D02*
X101199500Y-106400000D01*
D59*
X108850000Y-103750000D02*
X108850000Y-104550000D01*
D58*
X121700000Y-90650000D02*
X121700000Y-91500000D01*
D59*
X106290000Y-106740000D02*
X106200000Y-106650000D01*
D58*
X103400000Y-94134314D02*
X103950000Y-94684315D01*
X121700000Y-94350000D02*
X121950000Y-94350000D01*
X103800000Y-105257107D02*
X104150000Y-104907107D01*
D59*
X117023000Y-96823000D02*
X117538541Y-97338541D01*
D58*
X115325000Y-102125000D02*
X115600000Y-101850001D01*
X121700000Y-90650000D02*
X122150000Y-90650000D01*
X121700000Y-89358623D02*
X121700000Y-89900000D01*
D59*
X112250000Y-87720000D02*
X113500000Y-87720000D01*
D58*
X119399100Y-96410000D02*
X119399100Y-96850900D01*
X110200000Y-105870000D02*
X111170000Y-105870000D01*
X100450000Y-110675000D02*
X100475000Y-110650000D01*
X121700000Y-91500000D02*
X121700000Y-92450000D01*
D59*
X103900000Y-110650000D02*
X102500000Y-110650000D01*
X112250000Y-87720000D02*
X112250000Y-86800000D01*
X90300000Y-105825000D02*
X91075000Y-105825000D01*
D58*
X121700000Y-89900000D02*
X122200000Y-89900000D01*
X119399100Y-96410000D02*
X119399100Y-96949100D01*
D59*
X105237500Y-107360000D02*
X104277500Y-106400000D01*
X108600000Y-105850000D02*
X108550000Y-105850000D01*
D58*
X113000000Y-105250000D02*
X113650000Y-104600000D01*
D60*
X107950000Y-92750000D02*
X108450500Y-93250500D01*
D59*
X88550000Y-105850000D02*
X88550000Y-106700000D01*
D58*
X114100000Y-104150000D02*
X114100000Y-104200000D01*
D60*
X105025000Y-90264693D02*
X105025000Y-90564693D01*
D59*
X117023000Y-96823000D02*
X116550001Y-97295999D01*
D58*
X104150000Y-104492893D02*
X103950000Y-104292893D01*
X121200000Y-88858623D02*
X121700000Y-89358623D01*
X121700000Y-89900000D02*
X121700000Y-90650000D01*
X121700000Y-93500000D02*
X121700000Y-94350000D01*
X122677500Y-87350000D02*
X122677500Y-86727500D01*
D60*
X105252193Y-90037500D02*
X105163541Y-90126152D01*
D59*
X105250000Y-109300000D02*
X103900000Y-110650000D01*
D60*
X105677193Y-90477193D02*
X105677193Y-90462500D01*
D58*
X114450000Y-103800000D02*
X114450000Y-103000000D01*
D59*
X117998200Y-96410000D02*
X117436000Y-96410000D01*
D60*
X105252193Y-90037500D02*
X105025000Y-90264693D01*
D58*
X111170000Y-105520000D02*
X111170000Y-105870000D01*
X120800000Y-96410000D02*
X120800000Y-96950000D01*
D60*
X106500000Y-91300000D02*
X106700000Y-91500000D01*
D58*
X102500000Y-110650000D02*
X102500000Y-110250000D01*
X115600000Y-101850001D02*
X116150000Y-101850001D01*
X114100000Y-104150000D02*
X114450000Y-103800000D01*
X119399100Y-96949100D02*
X119650000Y-97200000D01*
D59*
X106290000Y-107360000D02*
X106290000Y-106740000D01*
D60*
X94650000Y-82950000D02*
X94650000Y-81300000D01*
D59*
X90300000Y-105825000D02*
X90925000Y-105825000D01*
D58*
X112380000Y-105870000D02*
X112575000Y-105675000D01*
X121700000Y-92450000D02*
X122050000Y-92450000D01*
D60*
X102620000Y-92910000D02*
X105685614Y-92910000D01*
D59*
X105760000Y-107360000D02*
X105610000Y-107360000D01*
D58*
X120800000Y-96950000D02*
X120500000Y-97250000D01*
X114550000Y-102150000D02*
X114925000Y-102525000D01*
D59*
X117436000Y-96410000D02*
X117023000Y-96823000D01*
D60*
X102750000Y-87775000D02*
X101825000Y-87775000D01*
X105163541Y-90126152D02*
X104563541Y-90126152D01*
D58*
X107500000Y-99800000D02*
X107400000Y-99900000D01*
X104190000Y-92910000D02*
X103400000Y-93700000D01*
X99713334Y-99800000D02*
X98300000Y-98386666D01*
X108387500Y-99800000D02*
X107500000Y-99800000D01*
D60*
X101705000Y-86730000D02*
X102750000Y-87775000D01*
X107225000Y-92025000D02*
X107600000Y-92400000D01*
D58*
X113150000Y-105250000D02*
X113388541Y-105488541D01*
D59*
X108850000Y-104550000D02*
X108850000Y-105600000D01*
D58*
X121200000Y-88858623D02*
X120808623Y-88858623D01*
D60*
X106700000Y-91500000D02*
X106700000Y-91450000D01*
D58*
X100450000Y-110675000D02*
X100450000Y-109750000D01*
D60*
X105252193Y-90037500D02*
X105663541Y-89626152D01*
D58*
X121200000Y-88000000D02*
X121200000Y-88858623D01*
X103950000Y-94684315D02*
X103950000Y-96162500D01*
D59*
X117538541Y-97338541D02*
X117788541Y-97338541D01*
X106290000Y-107360000D02*
X105760000Y-107360000D01*
D60*
X105884386Y-92910000D02*
X106460000Y-92334386D01*
D58*
X107550000Y-103037500D02*
X107550000Y-102250000D01*
X103400000Y-93700000D02*
X103400000Y-94134314D01*
X121750000Y-87350000D02*
X121200000Y-87900000D01*
D59*
X89009811Y-105390189D02*
X88550000Y-105850000D01*
D58*
X103550000Y-106000000D02*
X103800000Y-105750000D01*
X107600000Y-102200000D02*
X107450000Y-102050000D01*
D60*
X104800000Y-87114693D02*
X104800000Y-89585307D01*
X108450500Y-95412000D02*
X107700000Y-96162500D01*
D58*
X112575000Y-105675000D02*
X113000000Y-105250000D01*
X107450000Y-102050000D02*
X107450000Y-101800000D01*
X103525000Y-106400000D02*
X103525000Y-106037500D01*
D59*
X89009811Y-102498700D02*
X89009811Y-105390189D01*
D58*
X119399100Y-96850900D02*
X119050000Y-97200000D01*
X98300000Y-98386666D02*
X98300000Y-96805000D01*
X114988541Y-101688541D02*
X114988541Y-101788541D01*
D60*
X99550000Y-86730000D02*
X101705000Y-86730000D01*
X107750000Y-92250000D02*
X107600000Y-92400000D01*
X104800000Y-89585307D02*
X105027193Y-89812500D01*
D59*
X108550000Y-105850000D02*
X107040000Y-107360000D01*
D60*
X99550000Y-86730000D02*
X99550000Y-85600000D01*
X106225000Y-91025000D02*
X105677193Y-90477193D01*
D58*
X114925000Y-102525000D02*
X115325000Y-102125000D01*
X108387500Y-102200000D02*
X107600000Y-102200000D01*
X107400000Y-100150000D02*
X107450000Y-100200000D01*
X103950000Y-96162500D02*
X103950000Y-96932100D01*
D60*
X106460000Y-92334386D02*
X106460000Y-91260000D01*
D58*
X114988541Y-101788541D02*
X115325000Y-102125000D01*
X108600000Y-105850000D02*
X110180000Y-105850000D01*
D59*
X116845999Y-97295999D02*
X117350000Y-97800000D01*
X108850000Y-102950000D02*
X108850000Y-103750000D01*
D58*
X121950000Y-94350000D02*
X122150000Y-94150000D01*
X114100000Y-104200000D02*
X114388541Y-104488541D01*
X114450000Y-103000000D02*
X114925000Y-102525000D01*
X105799500Y-108300000D02*
X105787000Y-108287500D01*
X110175000Y-102275000D02*
X110175000Y-103050000D01*
D60*
X107750000Y-91450000D02*
X107750000Y-92250000D01*
D58*
X107160000Y-107360000D02*
X107400000Y-107600000D01*
D60*
X105700000Y-92910000D02*
X105884386Y-92910000D01*
D58*
X109700000Y-101800000D02*
X110175000Y-102275000D01*
D60*
X107950000Y-92750000D02*
X107561459Y-93138541D01*
D59*
X113500000Y-87720000D02*
X113500000Y-86800000D01*
X108850000Y-105600000D02*
X108600000Y-105850000D01*
D58*
X108387500Y-101800000D02*
X109700000Y-101800000D01*
X122677500Y-86727500D02*
X122650000Y-86700000D01*
X107450000Y-101800000D02*
X108387500Y-101800000D01*
X108387500Y-100200000D02*
X107450000Y-100200000D01*
D59*
X104277500Y-106400000D02*
X103850000Y-106400000D01*
D58*
X107400000Y-99900000D02*
X107400000Y-100150000D01*
X108600000Y-105850000D02*
X107550000Y-104800000D01*
D60*
X107600000Y-92400000D02*
X107950000Y-92750000D01*
D58*
X107450000Y-100200000D02*
X107450000Y-101800000D01*
X103950000Y-96932100D02*
X103510000Y-96932100D01*
X110175000Y-102775000D02*
X110175000Y-103050000D01*
X120990000Y-96410000D02*
X120800000Y-96410000D01*
X103800000Y-105750000D02*
X103800000Y-105257107D01*
X121700000Y-93500000D02*
X122000000Y-93500000D01*
X102500000Y-110250000D02*
X103000000Y-109750000D01*
X101512500Y-99800000D02*
X99713334Y-99800000D01*
X121200000Y-88000000D02*
X120750000Y-88000000D01*
D60*
X107400000Y-92400000D02*
X107100000Y-92700000D01*
D58*
X120808623Y-88858623D02*
X120750000Y-88800000D01*
X103950000Y-104292893D02*
X103950000Y-103037500D01*
D60*
X99550000Y-85600000D02*
X99300000Y-85350000D01*
D58*
X121700000Y-94350000D02*
X121700000Y-95700000D01*
X110175000Y-104550000D02*
X110175000Y-105845000D01*
X107550000Y-102250000D02*
X107600000Y-102200000D01*
D59*
X105610000Y-107360000D02*
X105237500Y-107360000D01*
X120800000Y-96410000D02*
X117998200Y-96410000D01*
D60*
X106700000Y-91500000D02*
X107225000Y-92025000D01*
X104825000Y-85687500D02*
X105000000Y-85512500D01*
D58*
X113650000Y-104600000D02*
X113950000Y-104900000D01*
D60*
X107600000Y-92400000D02*
X107400000Y-92400000D01*
X104750000Y-87775000D02*
X104825000Y-87700000D01*
X102750000Y-87775000D02*
X104750000Y-87775000D01*
D58*
X122150000Y-90650000D02*
X122200000Y-90700000D01*
D59*
X89009811Y-105390189D02*
X89865189Y-105390189D01*
X103850000Y-106400000D02*
X103525000Y-106400000D01*
D58*
X113950000Y-104900000D02*
X113950000Y-104950000D01*
X104190000Y-92910000D02*
X105700000Y-92910000D01*
D59*
X89865189Y-105390189D02*
X90300000Y-105825000D01*
X107040000Y-107360000D02*
X106290000Y-107360000D01*
D58*
X105787000Y-108287500D02*
X105237500Y-108287500D01*
X110175000Y-105845000D02*
X110200000Y-105870000D01*
X101199500Y-106400000D02*
X101050000Y-106549500D01*
D60*
X105677193Y-90477193D02*
X105712500Y-90477193D01*
D58*
X120800000Y-96950000D02*
X121100000Y-97250000D01*
D59*
X105250000Y-107400000D02*
X105250000Y-109300000D01*
D58*
X102500000Y-110150000D02*
X102100000Y-109750000D01*
X122000000Y-93500000D02*
X122150000Y-93350000D01*
X121700000Y-92450000D02*
X121700000Y-93500000D01*
X121700000Y-91500000D02*
X122200000Y-91500000D01*
X103950000Y-96932100D02*
X104365000Y-97347100D01*
X113650000Y-104600000D02*
X114100000Y-104150000D01*
D60*
X108450500Y-93250500D02*
X108450500Y-95412000D01*
D58*
X122677500Y-87350000D02*
X121750000Y-87350000D01*
D60*
X105712500Y-90477193D02*
X106125000Y-90064693D01*
D59*
X105290000Y-107360000D02*
X105250000Y-107400000D01*
D60*
X106225000Y-91025000D02*
X106650000Y-90600000D01*
X106450000Y-91250000D02*
X106225000Y-91025000D01*
D58*
X102500000Y-110650000D02*
X102500000Y-110150000D01*
X121200000Y-87900000D02*
X121200000Y-88000000D01*
D59*
X91075000Y-105825000D02*
X91400000Y-105500000D01*
D61*
%TO.N,ALIM*%
X96306386Y-84380111D02*
X96306386Y-90125661D01*
X115250000Y-83200000D02*
X114588000Y-83862000D01*
X87853259Y-97288700D02*
X88009559Y-97445000D01*
X107320000Y-82325000D02*
X98361497Y-82325000D01*
X87625000Y-93800000D02*
X87500000Y-93675000D01*
X89100000Y-93800000D02*
X87625000Y-93800000D01*
X87853259Y-95678259D02*
X87853259Y-97288700D01*
X108750000Y-83755000D02*
X107320000Y-82325000D01*
X115250000Y-81500000D02*
X115250000Y-83200000D01*
X96306386Y-90125661D02*
X94632047Y-91800000D01*
X87500000Y-95325000D02*
X87853259Y-95678259D01*
X91100000Y-91800000D02*
X89100000Y-93800000D01*
X114588000Y-83862000D02*
X106475000Y-83862000D01*
X94632047Y-91800000D02*
X91100000Y-91800000D01*
X87500000Y-93675000D02*
X87500000Y-95325000D01*
X98361497Y-82325000D02*
X96306386Y-84380111D01*
D60*
%TO.N,Net-(C16-Pad1)*%
X108700000Y-88150000D02*
X108700000Y-87912500D01*
D59*
X103400000Y-86950000D02*
X103475000Y-86875000D01*
D60*
X108700000Y-87912500D02*
X106893750Y-86106250D01*
D59*
X103475000Y-86875000D02*
X103475000Y-85225000D01*
X107487500Y-86700000D02*
X106893750Y-86106250D01*
D60*
X106893750Y-86106250D02*
X106300000Y-85512500D01*
D59*
X103850000Y-84850000D02*
X104750000Y-84850000D01*
X108600000Y-86700000D02*
X107487500Y-86700000D01*
X103475000Y-85225000D02*
X103850000Y-84850000D01*
%TO.N,V_USB*%
X115300000Y-103850000D02*
X115300000Y-102900000D01*
X109000000Y-118450000D02*
X112150000Y-115300000D01*
X112150000Y-115300000D02*
X119000000Y-115300000D01*
X115550000Y-104100000D02*
X115300000Y-103850000D01*
D58*
X121150000Y-107000000D02*
X119000000Y-104850000D01*
X122940000Y-112700000D02*
X121150000Y-110910000D01*
D59*
X126200000Y-99504596D02*
X126200000Y-100540000D01*
X121350000Y-102500000D02*
X119000000Y-104850000D01*
X119000000Y-115300000D02*
X121600000Y-112700000D01*
X119000000Y-104850000D02*
X118250000Y-104100000D01*
X121600000Y-112700000D02*
X122940000Y-112700000D01*
X123365000Y-97600000D02*
X124295404Y-97600000D01*
X123365000Y-102500000D02*
X121350000Y-102500000D01*
X124295404Y-97600000D02*
X126200000Y-99504596D01*
X126200000Y-100540000D02*
X124240000Y-102500000D01*
X118250000Y-104100000D02*
X115550000Y-104100000D01*
D58*
X121150000Y-110910000D02*
X121150000Y-107000000D01*
D59*
X115700000Y-102500000D02*
X116150000Y-102500000D01*
D62*
X121350000Y-102500000D02*
X120700001Y-101850001D01*
D59*
X115300000Y-102900000D02*
X115700000Y-102500000D01*
X124240000Y-102500000D02*
X123365000Y-102500000D01*
D62*
X120700001Y-101850001D02*
X118250000Y-101850001D01*
D58*
%TO.N,Net-(C19-Pad1)*%
X103605000Y-84350000D02*
X102650000Y-85305000D01*
X104750000Y-84350000D02*
X103605000Y-84350000D01*
D61*
%TO.N,Net-(C19-Pad2)*%
X102880000Y-83525000D02*
X105000000Y-83525000D01*
X102475000Y-83930000D02*
X102650000Y-83755000D01*
X102650000Y-83755000D02*
X102880000Y-83525000D01*
X99550000Y-83930000D02*
X102475000Y-83930000D01*
D59*
%TO.N,DRV_BUCK_OUT*%
X95400000Y-93025000D02*
X95350000Y-92975000D01*
X92650000Y-96500000D02*
X93700000Y-95450000D01*
X91510441Y-96870027D02*
X91880468Y-96500000D01*
X95150000Y-95450000D02*
X95400000Y-95200000D01*
X93700000Y-95450000D02*
X95150000Y-95450000D01*
X95400000Y-95200000D02*
X95400000Y-94625000D01*
X91880468Y-96500000D02*
X92650000Y-96500000D01*
D58*
X86950000Y-89900000D02*
X88550000Y-89900000D01*
D59*
X95400000Y-94625000D02*
X95400000Y-93025000D01*
X91510441Y-97601300D02*
X91510441Y-96870027D01*
%TO.N,/CP*%
X89009811Y-95440189D02*
X89100000Y-95350000D01*
X89009811Y-97601300D02*
X89009811Y-95440189D01*
%TO.N,Net-(C27-Pad1)*%
X90675000Y-95063173D02*
X90675000Y-94650000D01*
X89509937Y-97601300D02*
X89509937Y-96228236D01*
X89509937Y-96228236D02*
X90675000Y-95063173D01*
%TO.N,Net-(C27-Pad2)*%
X90947640Y-95497639D02*
X91897639Y-95497639D01*
X91897639Y-95497639D02*
X91900000Y-95500000D01*
X90010063Y-97601300D02*
X90010063Y-96435216D01*
X92225000Y-95175000D02*
X92225000Y-94650000D01*
X90010063Y-96435216D02*
X90947640Y-95497639D01*
X91900000Y-95500000D02*
X92225000Y-95175000D01*
D58*
%TO.N,Current_A*%
X93212000Y-97088000D02*
X93212000Y-98299559D01*
X94500000Y-96200500D02*
X94099500Y-96200500D01*
X93650000Y-105170000D02*
X93750000Y-105270000D01*
X93650000Y-104450000D02*
X93650000Y-105170000D01*
X94800000Y-105270000D02*
X94850000Y-105220000D01*
X93750000Y-105270000D02*
X94800000Y-105270000D01*
X94099500Y-96200500D02*
X93212000Y-97088000D01*
%TO.N,Current_B*%
X94500500Y-97199500D02*
X94018744Y-97681256D01*
X94018744Y-98624214D02*
X93843273Y-98799685D01*
X95950000Y-104450000D02*
X95950000Y-105270000D01*
X93843273Y-98799685D02*
X93212000Y-98799685D01*
X94018744Y-97681256D02*
X94018744Y-98624214D01*
X97000000Y-105270000D02*
X97050000Y-105220000D01*
X95950000Y-105270000D02*
X97000000Y-105270000D01*
%TO.N,Current_C*%
X94100189Y-99299811D02*
X94518744Y-98881256D01*
X98500000Y-104350000D02*
X98500000Y-104920000D01*
X99200000Y-105270000D02*
X99250000Y-105220000D01*
X98150000Y-105270000D02*
X99200000Y-105270000D01*
X98500000Y-104920000D02*
X98150000Y-105270000D01*
X93212000Y-99299811D02*
X94100189Y-99299811D01*
X94518744Y-98881256D02*
X94518744Y-97968744D01*
%TO.N,VREF*%
X97340000Y-103200000D02*
X97990000Y-103850000D01*
X107150000Y-105041516D02*
X107150000Y-103037500D01*
X93212000Y-99799937D02*
X95555771Y-99799937D01*
X97990000Y-103850000D02*
X99200000Y-103850000D01*
X107746800Y-105638316D02*
X107150000Y-105041516D01*
X97340000Y-101584166D02*
X97340000Y-103200000D01*
X107746800Y-105703200D02*
X107746800Y-105638316D01*
X95555771Y-99799937D02*
X97340000Y-101584166D01*
D59*
%TO.N,DOUT*%
X109215000Y-114750000D02*
X103300000Y-114750000D01*
X110400000Y-113565000D02*
X109215000Y-114750000D01*
X103300000Y-114750000D02*
X102500000Y-113950000D01*
D58*
%TO.N,GPIO25*%
X101200000Y-113150000D02*
X100900000Y-113450000D01*
X105050000Y-110650000D02*
X102550000Y-113150000D01*
X100900000Y-115250000D02*
X102200000Y-116550000D01*
X102200000Y-116550000D02*
X104560000Y-116550000D01*
X105550000Y-104116068D02*
X105416068Y-104250000D01*
X107400000Y-109150000D02*
X107400000Y-110650000D01*
X102550000Y-113150000D02*
X101200000Y-113150000D01*
X104560000Y-116550000D02*
X106460000Y-118450000D01*
X107400000Y-110650000D02*
X105050000Y-110650000D01*
X105550000Y-103037500D02*
X105550000Y-104116068D01*
X100900000Y-113450000D02*
X100900000Y-115250000D01*
%TO.N,Net-(D2-Pad2)*%
X123637500Y-87350000D02*
X123637500Y-87512500D01*
X123637500Y-87512500D02*
X122350000Y-88800000D01*
%TO.N,Net-(D3-Pad2)*%
X122675000Y-111200000D02*
X122675000Y-111475000D01*
X122675000Y-111475000D02*
X123900000Y-112700000D01*
D61*
%TO.N,OUTA*%
X85649559Y-98299559D02*
X86164400Y-98299559D01*
X82440000Y-95090000D02*
X85649559Y-98299559D01*
X82440000Y-95030000D02*
X82440000Y-95090000D01*
%TO.N,OUTB*%
X81740000Y-100030000D02*
X85070000Y-100030000D01*
D59*
X86308000Y-99799937D02*
X85300063Y-99799937D01*
X86308000Y-99799937D02*
X86308000Y-100300063D01*
X86308000Y-100300063D02*
X85340063Y-100300063D01*
X85300063Y-99799937D02*
X85070000Y-100030000D01*
X85340063Y-100300063D02*
X85070000Y-100030000D01*
D61*
%TO.N,OUTC*%
X82620000Y-105310000D02*
X82798441Y-105310000D01*
X86164400Y-101944041D02*
X86164400Y-101800441D01*
X82798441Y-105310000D02*
X86164400Y-101944041D01*
D58*
%TO.N,USB_D+*%
X122252499Y-99325000D02*
X122277499Y-99300000D01*
X113943603Y-99500000D02*
X114118603Y-99325000D01*
X123365000Y-99300000D02*
X124400000Y-99300000D01*
X124650000Y-99550000D02*
X124650000Y-100100000D01*
X122277499Y-99300000D02*
X123365000Y-99300000D01*
X124450000Y-100300000D02*
X123365000Y-100300000D01*
X124650000Y-100100000D02*
X124450000Y-100300000D01*
X124400000Y-99300000D02*
X124650000Y-99550000D01*
X113580000Y-99500000D02*
X113943603Y-99500000D01*
X114118603Y-99325000D02*
X122252499Y-99325000D01*
%TO.N,USB_D-*%
X123365000Y-100800000D02*
X122250000Y-100800000D01*
X121775000Y-100325000D02*
X121775000Y-99775000D01*
X122277499Y-99800000D02*
X123365000Y-99800000D01*
X114305000Y-99775000D02*
X121775000Y-99775000D01*
X122250000Y-100800000D02*
X121775000Y-100325000D01*
X113580000Y-100500000D02*
X114305000Y-99775000D01*
X121775000Y-99775000D02*
X122252499Y-99775000D01*
X122252499Y-99775000D02*
X122277499Y-99800000D01*
%TO.N,GPIO24*%
X105150000Y-103037500D02*
X105150000Y-103808961D01*
X105150000Y-103808961D02*
X104850000Y-104108961D01*
X104850000Y-104694140D02*
X104811518Y-104732622D01*
X104850000Y-104108961D02*
X104850000Y-104694140D01*
%TO.N,GPIO22*%
X104350000Y-103037500D02*
X104350000Y-104127207D01*
X104350000Y-104127207D02*
X104361397Y-104138604D01*
%TO.N,GPIO9*%
X102150000Y-94184314D02*
X103150000Y-95184314D01*
X103150000Y-95184314D02*
X103150000Y-96162500D01*
X102150000Y-93650000D02*
X102150000Y-94184314D01*
%TO.N,GPIO3*%
X105950000Y-94315685D02*
X105950000Y-96162500D01*
X106349006Y-93916679D02*
X105950000Y-94315685D01*
X106349006Y-93600000D02*
X106349006Y-93916679D01*
%TO.N,GPIO2*%
X106350000Y-94481371D02*
X106350000Y-96162500D01*
X106950000Y-93600000D02*
X106950000Y-93881371D01*
X106950000Y-93881371D02*
X106350000Y-94481371D01*
%TO.N,GPIO20*%
X103033932Y-104850000D02*
X103150000Y-104733932D01*
X103150000Y-104733932D02*
X103150000Y-103037500D01*
%TO.N,GPIO21*%
X103550000Y-103037500D02*
X103550000Y-104600000D01*
X103550000Y-104600000D02*
X103650000Y-104700000D01*
%TO.N,SWD*%
X101512500Y-101000000D02*
X100199500Y-101000000D01*
X100199500Y-101000000D02*
X100100000Y-101099500D01*
%TO.N,SWCLK*%
X98994680Y-100600000D02*
X98895180Y-100699500D01*
X101512500Y-100600000D02*
X98994680Y-100600000D01*
%TO.N,UART_TX*%
X107150000Y-95600500D02*
X107150000Y-96162500D01*
X107800500Y-94950000D02*
X107150000Y-95600500D01*
%TO.N,UART_RX*%
X106750000Y-95293393D02*
X106750000Y-96162500D01*
X107693393Y-94350000D02*
X106750000Y-95293393D01*
X107800500Y-94350000D02*
X107693393Y-94350000D01*
D61*
%TO.N,/VM*%
X107890000Y-78450000D02*
X113350000Y-78450000D01*
X113350000Y-78450000D02*
X114300000Y-79400000D01*
D58*
%TO.N,/D+*%
X112200000Y-99500000D02*
X111100000Y-100600000D01*
X111100000Y-100600000D02*
X108387500Y-100600000D01*
X112620000Y-99500000D02*
X112200000Y-99500000D01*
%TO.N,/D-*%
X111300000Y-101000000D02*
X111800000Y-100500000D01*
X111800000Y-100500000D02*
X112620000Y-100500000D01*
X108387500Y-101000000D02*
X111300000Y-101000000D01*
%TO.N,XOUT*%
X99879020Y-99400000D02*
X101512500Y-99400000D01*
X98880000Y-94310000D02*
X98880000Y-98400980D01*
X98880000Y-98400980D02*
X99879020Y-99400000D01*
X98775000Y-94205000D02*
X98880000Y-94310000D01*
%TO.N,Net-(R4-Pad1)*%
X118600000Y-91620000D02*
X120255968Y-91620000D01*
X120255968Y-91620000D02*
X120262500Y-91613468D01*
%TO.N,QSPI_SS*%
X108387500Y-97000000D02*
X110856915Y-97000000D01*
X120800000Y-95450000D02*
X119150000Y-93800000D01*
X116550001Y-94504001D02*
X118445999Y-94504001D01*
X116000002Y-93400002D02*
X116550001Y-93950001D01*
X118600000Y-93250000D02*
X118600000Y-92580000D01*
X119150000Y-93800000D02*
X118600000Y-93250000D01*
X114456913Y-93400002D02*
X116000002Y-93400002D01*
X116550001Y-93950001D02*
X116550001Y-94504001D01*
X118445999Y-94504001D02*
X119150000Y-93800000D01*
X110856915Y-97000000D02*
X114456913Y-93400002D01*
%TO.N,Net-(R6-Pad2)*%
X105820133Y-105703200D02*
X105950000Y-105573333D01*
X93750000Y-106230000D02*
X93750000Y-107100000D01*
X105950000Y-105573333D02*
X105950000Y-103037500D01*
%TO.N,Net-(R7-Pad2)*%
X106419357Y-105703200D02*
X106462355Y-105703200D01*
X106419357Y-105781516D02*
X106419357Y-105624883D01*
X106462355Y-105703200D02*
X106350000Y-105590845D01*
X95950000Y-106230000D02*
X95950000Y-107100000D01*
X106350000Y-105590845D02*
X106350000Y-103037500D01*
%TO.N,Net-(R8-Pad2)*%
X107104577Y-105638315D02*
X106750000Y-105283738D01*
X98150000Y-106230000D02*
X98150000Y-107100000D01*
X106750000Y-105283738D02*
X106750000Y-103037500D01*
X107104577Y-105800000D02*
X107104577Y-105638315D01*
%TO.N,Net-(R9-Pad1)*%
X120262500Y-108313468D02*
X118616532Y-108313468D01*
X118616532Y-108313468D02*
X118600000Y-108330000D01*
%TO.N,RUN*%
X101512500Y-101400000D02*
X102450000Y-101400000D01*
X118600000Y-106650000D02*
X118600000Y-107370000D01*
D59*
%TO.N,/SW_BK*%
X92375000Y-96000000D02*
X93750000Y-94625000D01*
X90510189Y-97601300D02*
X90510189Y-96870027D01*
X90510189Y-96870027D02*
X91380216Y-96000000D01*
X91380216Y-96000000D02*
X92375000Y-96000000D01*
D58*
%TO.N,nFAULT*%
X87550000Y-105810000D02*
X87590000Y-105850000D01*
X103920972Y-93885429D02*
X104350000Y-94314457D01*
X104350000Y-94314457D02*
X104350000Y-96162500D01*
X87509433Y-102498700D02*
X87509433Y-103959433D01*
X87509433Y-103959433D02*
X87550000Y-104000000D01*
X87550000Y-104000000D02*
X87550000Y-105810000D01*
%TO.N,I2C_SDA*%
X105550000Y-96162500D02*
X105550000Y-94150000D01*
X105550000Y-94150000D02*
X105749503Y-93950497D01*
D59*
X113500000Y-88680000D02*
X113500000Y-89550000D01*
D58*
X105749503Y-93950497D02*
X105749503Y-93600000D01*
%TO.N,I2C_SCL*%
X105150000Y-93600000D02*
X105150000Y-96162500D01*
D59*
X112250000Y-88680000D02*
X112250000Y-89500000D01*
D58*
%TO.N,nSLEEP*%
X104750000Y-94148771D02*
X104750000Y-96162500D01*
X104465239Y-93864010D02*
X104750000Y-94148771D01*
X104465239Y-93579137D02*
X104465239Y-93864010D01*
X88009559Y-102498700D02*
X88009559Y-103609559D01*
X88150000Y-103999503D02*
X88149503Y-104000000D01*
X88150000Y-103750000D02*
X88150000Y-103999503D01*
X88009559Y-103609559D02*
X88150000Y-103750000D01*
%TO.N,DRVOFF*%
X103550000Y-94850000D02*
X103550000Y-96162500D01*
X102750000Y-94049999D02*
X103550000Y-94850000D01*
X102750000Y-93650000D02*
X102750000Y-94049999D01*
X87009307Y-102498700D02*
X87009307Y-103941190D01*
X87009307Y-103941190D02*
X86950497Y-104000000D01*
%TO.N,INLC*%
X101550000Y-93650000D02*
X101550000Y-94150000D01*
X92797484Y-104531798D02*
X92797484Y-104649205D01*
X92510693Y-104245007D02*
X92797484Y-104531798D01*
X101550000Y-94150000D02*
X102750000Y-95350000D01*
X102750000Y-95350000D02*
X102750000Y-96162500D01*
X92510693Y-102498700D02*
X92510693Y-104245007D01*
%TO.N,INHC*%
X101050000Y-93749503D02*
X101050000Y-94862500D01*
X101050000Y-94862500D02*
X102350000Y-96162500D01*
X92010567Y-102498700D02*
X92010567Y-104310567D01*
X100950497Y-93650000D02*
X101050000Y-93749503D01*
X92010567Y-104310567D02*
X92197984Y-104497984D01*
X92197984Y-104497984D02*
X92197984Y-104651131D01*
%TO.N,INLB*%
X101512500Y-97000000D02*
X100759053Y-97000000D01*
X99949500Y-96298051D02*
X100057104Y-96298051D01*
X100057104Y-96298051D02*
X100759053Y-97000000D01*
X91510441Y-104558492D02*
X91598499Y-104646550D01*
X91510441Y-102498700D02*
X91510441Y-104558492D01*
%TO.N,INHB*%
X100559550Y-97400000D02*
X100057104Y-96897554D01*
X100057104Y-96897554D02*
X99949500Y-96897554D01*
X91010315Y-102498700D02*
X91010315Y-104635231D01*
X101512500Y-97400000D02*
X100559550Y-97400000D01*
X91010315Y-104635231D02*
X90998996Y-104646550D01*
%TO.N,INLA*%
X90510189Y-102498700D02*
X90510189Y-104535854D01*
X100363507Y-97800000D02*
X100060564Y-97497057D01*
X101512500Y-97800000D02*
X100363507Y-97800000D01*
X90510189Y-104535854D02*
X90399493Y-104646550D01*
X100060564Y-97497057D02*
X99949500Y-97497057D01*
%TO.N,INHA*%
X90010063Y-102498700D02*
X90010063Y-104328873D01*
X100056400Y-98200000D02*
X99952950Y-98096550D01*
X101512500Y-98200000D02*
X100056400Y-98200000D01*
X90010063Y-104328873D02*
X89800000Y-104538936D01*
X89800000Y-104538936D02*
X89800000Y-104650000D01*
%TO.N,SPI_MISO*%
X99499503Y-101800000D02*
X99400000Y-101700497D01*
X95296358Y-101300315D02*
X95396550Y-101400507D01*
X93212000Y-101300315D02*
X95296358Y-101300315D01*
X101512500Y-101800000D02*
X99499503Y-101800000D01*
%TO.N,SPI_SS*%
X99500000Y-102200000D02*
X99400000Y-102300000D01*
X95297988Y-100300063D02*
X95394100Y-100203951D01*
X101512500Y-102200000D02*
X99500000Y-102200000D01*
X93212000Y-100300063D02*
X95297988Y-100300063D01*
%TO.N,SPI_SCK*%
X102250497Y-104200000D02*
X102142893Y-104200000D01*
X95395735Y-100800189D02*
X95396550Y-100801004D01*
X102350000Y-104100497D02*
X102250497Y-104200000D01*
X93212000Y-100800189D02*
X95395735Y-100800189D01*
X102350000Y-103037500D02*
X102350000Y-104100497D01*
X101750497Y-104592396D02*
X101750497Y-104700000D01*
X102142893Y-104200000D02*
X101750497Y-104592396D01*
%TO.N,SPI_MOSI*%
X102750000Y-104300000D02*
X102350000Y-104700000D01*
X95288936Y-102000000D02*
X95400000Y-102000000D01*
X102750000Y-103037500D02*
X102750000Y-104300000D01*
X93212000Y-101800441D02*
X94950441Y-101800441D01*
X94950441Y-101800441D02*
X94950882Y-101800000D01*
X94950882Y-101800000D02*
X95088936Y-101800000D01*
X95088936Y-101800000D02*
X95288936Y-102000000D01*
%TO.N,QSPI_SD3*%
X116050000Y-98150000D02*
X116050000Y-97295999D01*
%TO.N,QSPI_CLK*%
X115550000Y-97927397D02*
X115550000Y-97295999D01*
X108387500Y-98600000D02*
X114877397Y-98600000D01*
X114877397Y-98600000D02*
X115550000Y-97927397D01*
%TO.N,QSPI_SD0*%
X108387500Y-98200000D02*
X114145998Y-98200000D01*
X114145998Y-98200000D02*
X115049999Y-97295999D01*
%TO.N,QSPI_SD2*%
X115492000Y-95208000D02*
X115550000Y-95150000D01*
X115550000Y-95150000D02*
X115550000Y-94504001D01*
X112398300Y-97800000D02*
X114990300Y-95208000D01*
X114990300Y-95208000D02*
X115492000Y-95208000D01*
X108387500Y-97800000D02*
X112398300Y-97800000D01*
%TO.N,QSPI_SD1*%
X108387500Y-97400000D02*
X111022601Y-97400000D01*
X115822603Y-93800002D02*
X116050000Y-94027399D01*
X116050000Y-94027399D02*
X116050000Y-94504001D01*
X114622599Y-93800002D02*
X115822603Y-93800002D01*
X111022601Y-97400000D02*
X114622599Y-93800002D01*
%TD*%
%TA.AperFunction,Conductor*%
%TO.N,ALIM*%
G36*
X105481339Y-75583335D02*
G01*
X106433544Y-75620322D01*
X106438388Y-75620605D01*
X107388442Y-75694525D01*
X107393278Y-75694995D01*
X107798359Y-75742391D01*
X108339715Y-75805731D01*
X108344562Y-75806393D01*
X109286028Y-75953786D01*
X109290845Y-75954637D01*
X110225813Y-76138449D01*
X110230593Y-76139485D01*
X110513872Y-76206693D01*
X111157797Y-76359466D01*
X111162493Y-76360678D01*
X111690977Y-76507948D01*
X112080413Y-76616470D01*
X112085099Y-76617874D01*
X112399968Y-76718941D01*
X112992432Y-76909111D01*
X112997022Y-76910684D01*
X113529914Y-77104853D01*
X113892337Y-77236909D01*
X113896900Y-77238672D01*
X114778905Y-77599414D01*
X114783396Y-77601354D01*
X115650693Y-77996040D01*
X115655105Y-77998152D01*
X116230602Y-78287516D01*
X116282477Y-78335987D01*
X116300000Y-78400087D01*
X116300000Y-84074000D01*
X116279998Y-84142121D01*
X116226342Y-84188614D01*
X116174000Y-84200000D01*
X106480882Y-84200000D01*
X106412761Y-84179998D01*
X106366268Y-84126342D01*
X106355408Y-84065356D01*
X106355490Y-84064778D01*
X106355645Y-84050000D01*
X106335276Y-83881680D01*
X106275345Y-83723077D01*
X106221726Y-83645061D01*
X106183614Y-83589608D01*
X106183613Y-83589607D01*
X106179312Y-83583349D01*
X106141889Y-83550006D01*
X106058391Y-83475611D01*
X106058387Y-83475608D01*
X106052721Y-83470560D01*
X106046012Y-83467008D01*
X106042638Y-83464663D01*
X105998116Y-83409361D01*
X105989965Y-83380040D01*
X105989176Y-83374824D01*
X105974065Y-83274903D01*
X105903881Y-83084148D01*
X105872969Y-83034291D01*
X105800137Y-82916824D01*
X105800134Y-82916820D01*
X105796774Y-82911401D01*
X105708014Y-82817540D01*
X105661508Y-82768361D01*
X105661507Y-82768360D01*
X105657119Y-82763720D01*
X105490621Y-82647137D01*
X105304081Y-82566414D01*
X105236708Y-82552339D01*
X105109856Y-82525838D01*
X105109851Y-82525837D01*
X105105120Y-82524849D01*
X105100238Y-82524593D01*
X105100129Y-82524587D01*
X105100113Y-82524587D01*
X105098461Y-82524500D01*
X102896148Y-82524500D01*
X102892630Y-82524451D01*
X102812729Y-82522219D01*
X102812726Y-82522219D01*
X102806347Y-82522041D01*
X102800057Y-82523150D01*
X102800058Y-82523150D01*
X102746944Y-82532515D01*
X102737798Y-82533784D01*
X102684130Y-82539235D01*
X102684126Y-82539236D01*
X102677784Y-82539880D01*
X102650317Y-82548488D01*
X102634518Y-82552339D01*
X102606178Y-82557336D01*
X102600245Y-82559685D01*
X102550099Y-82579539D01*
X102541396Y-82582621D01*
X102489919Y-82598753D01*
X102489917Y-82598754D01*
X102483828Y-82600662D01*
X102478249Y-82603754D01*
X102478243Y-82603757D01*
X102458648Y-82614619D01*
X102443956Y-82621564D01*
X102417195Y-82632160D01*
X102411858Y-82635653D01*
X102411855Y-82635654D01*
X102366721Y-82665189D01*
X102358824Y-82669953D01*
X102306056Y-82699203D01*
X102291303Y-82711848D01*
X102284204Y-82717932D01*
X102271203Y-82727693D01*
X102251171Y-82740802D01*
X102247117Y-82743455D01*
X102242162Y-82747917D01*
X102203257Y-82786822D01*
X102196160Y-82793395D01*
X102167990Y-82817540D01*
X102151729Y-82831477D01*
X102150222Y-82833420D01*
X102103667Y-82862993D01*
X102103724Y-82863114D01*
X102102781Y-82863556D01*
X102100243Y-82865168D01*
X102097103Y-82866216D01*
X102097098Y-82866218D01*
X102090148Y-82868537D01*
X102028376Y-82906763D01*
X102022104Y-82910644D01*
X101955801Y-82929500D01*
X101076273Y-82929500D01*
X101010158Y-82910760D01*
X100995263Y-82901578D01*
X100944334Y-82870186D01*
X100932365Y-82866216D01*
X100784759Y-82817256D01*
X100784757Y-82817255D01*
X100778228Y-82815090D01*
X100674866Y-82804500D01*
X98425134Y-82804500D01*
X98421888Y-82804837D01*
X98421884Y-82804837D01*
X98327339Y-82814647D01*
X98327335Y-82814648D01*
X98320481Y-82815359D01*
X98313945Y-82817540D01*
X98313943Y-82817540D01*
X98177704Y-82862993D01*
X98154471Y-82870744D01*
X98005655Y-82962834D01*
X97882016Y-83086689D01*
X97790186Y-83235666D01*
X97735090Y-83401772D01*
X97724500Y-83505134D01*
X97724500Y-84074000D01*
X97704498Y-84142121D01*
X97650842Y-84188614D01*
X97598500Y-84200000D01*
X97100000Y-84200000D01*
X97100000Y-89124413D01*
X97077087Y-89196864D01*
X97049540Y-89236060D01*
X97028113Y-89266547D01*
X97025354Y-89273623D01*
X97025352Y-89273627D01*
X96968266Y-89420044D01*
X96924885Y-89476246D01*
X96895103Y-89492256D01*
X96857176Y-89506474D01*
X96849997Y-89511854D01*
X96849994Y-89511856D01*
X96776658Y-89566819D01*
X96742454Y-89592454D01*
X96737072Y-89599635D01*
X96661856Y-89699994D01*
X96661854Y-89699997D01*
X96656474Y-89707176D01*
X96606149Y-89841420D01*
X96605296Y-89849270D01*
X96605296Y-89849271D01*
X96602652Y-89873605D01*
X96599500Y-89902623D01*
X96599501Y-90399116D01*
X96599501Y-90524656D01*
X96579499Y-90592777D01*
X96568329Y-90607624D01*
X96326133Y-90884420D01*
X95388086Y-91956472D01*
X95328175Y-91994566D01*
X95293262Y-91999500D01*
X95082151Y-91999501D01*
X95076794Y-91999501D01*
X95073550Y-91999838D01*
X95073542Y-91999838D01*
X95029120Y-92004447D01*
X94975628Y-92009997D01*
X94815148Y-92063537D01*
X94746686Y-92105903D01*
X94677516Y-92148706D01*
X94677513Y-92148709D01*
X94671289Y-92152560D01*
X94664085Y-92159777D01*
X94662352Y-92160725D01*
X94660379Y-92162289D01*
X94660111Y-92161951D01*
X94601803Y-92193858D01*
X94530983Y-92188857D01*
X94485890Y-92159934D01*
X94482891Y-92156940D01*
X94477711Y-92151769D01*
X94401887Y-92105030D01*
X94339927Y-92066837D01*
X94339925Y-92066836D01*
X94333697Y-92062997D01*
X94173124Y-92009737D01*
X94166288Y-92009037D01*
X94166285Y-92009036D01*
X94116203Y-92003905D01*
X94073207Y-91999500D01*
X93802107Y-91999500D01*
X93526794Y-91999501D01*
X93523550Y-91999838D01*
X93523542Y-91999838D01*
X93479120Y-92004447D01*
X93425628Y-92009997D01*
X93265148Y-92063537D01*
X93121289Y-92152560D01*
X93001769Y-92272289D01*
X93000555Y-92271077D01*
X92950021Y-92306901D01*
X92878367Y-92309948D01*
X92845810Y-92301770D01*
X92838441Y-92299919D01*
X92830843Y-92299879D01*
X92830841Y-92299879D01*
X92753668Y-92299475D01*
X92668895Y-92299031D01*
X92661508Y-92300805D01*
X92661504Y-92300805D01*
X92518162Y-92335220D01*
X92504032Y-92338612D01*
X92497288Y-92342093D01*
X92497285Y-92342094D01*
X92412285Y-92385966D01*
X92354495Y-92400000D01*
X91400000Y-92400000D01*
X91393493Y-92407230D01*
X90241230Y-93687522D01*
X90187452Y-93722755D01*
X90147092Y-93736220D01*
X90147090Y-93736221D01*
X90140148Y-93738537D01*
X90133924Y-93742388D01*
X90133923Y-93742389D01*
X90051751Y-93793239D01*
X89996289Y-93827560D01*
X89876769Y-93947289D01*
X89872929Y-93953519D01*
X89872928Y-93953520D01*
X89807529Y-94059617D01*
X89787997Y-94091303D01*
X89751559Y-94201160D01*
X89743870Y-94224342D01*
X89717933Y-94268963D01*
X89666292Y-94326342D01*
X89637539Y-94358290D01*
X89577101Y-94395543D01*
X89543884Y-94400000D01*
X89407996Y-94400000D01*
X89401569Y-94399836D01*
X89401404Y-94399828D01*
X89398207Y-94399500D01*
X89102392Y-94399500D01*
X88801794Y-94399501D01*
X88798583Y-94399834D01*
X88792154Y-94400000D01*
X86956299Y-94400000D01*
X86888178Y-94379998D01*
X86841685Y-94326342D01*
X86831581Y-94256068D01*
X86838141Y-94234074D01*
X86837003Y-94233697D01*
X86847795Y-94201160D01*
X86890263Y-94073124D01*
X86894714Y-94029686D01*
X86900172Y-93976406D01*
X86900500Y-93973207D01*
X86900499Y-93376794D01*
X86900119Y-93373124D01*
X86893263Y-93307050D01*
X86906128Y-93237229D01*
X86936759Y-93198236D01*
X87013651Y-93132564D01*
X87013652Y-93132563D01*
X87019423Y-93127634D01*
X87118361Y-92989947D01*
X87126237Y-92970356D01*
X87178766Y-92839687D01*
X87178767Y-92839685D01*
X87181601Y-92832634D01*
X87205490Y-92664778D01*
X87205645Y-92650000D01*
X87203840Y-92635080D01*
X87186188Y-92489220D01*
X87185276Y-92481680D01*
X87125345Y-92323077D01*
X87116322Y-92309948D01*
X87033614Y-92189608D01*
X87033613Y-92189607D01*
X87029312Y-92183349D01*
X87017514Y-92172837D01*
X86908392Y-92075612D01*
X86908388Y-92075610D01*
X86902721Y-92070560D01*
X86895690Y-92066837D01*
X86769131Y-91999828D01*
X86752881Y-91991224D01*
X86588441Y-91949919D01*
X86580843Y-91949879D01*
X86580841Y-91949879D01*
X86503668Y-91949475D01*
X86418895Y-91949031D01*
X86411508Y-91950805D01*
X86411504Y-91950805D01*
X86282905Y-91981680D01*
X86254032Y-91988612D01*
X86247288Y-91992093D01*
X86247285Y-91992094D01*
X86110117Y-92062892D01*
X86103369Y-92066375D01*
X86097647Y-92071367D01*
X86097645Y-92071368D01*
X86058057Y-92105903D01*
X85993575Y-92135611D01*
X85923268Y-92125741D01*
X85891409Y-92105030D01*
X85858392Y-92075612D01*
X85858388Y-92075609D01*
X85852721Y-92070560D01*
X85845690Y-92066837D01*
X85719131Y-91999828D01*
X85702881Y-91991224D01*
X85538441Y-91949919D01*
X85530843Y-91949879D01*
X85530841Y-91949879D01*
X85453668Y-91949475D01*
X85368895Y-91949031D01*
X85361508Y-91950805D01*
X85361504Y-91950805D01*
X85232905Y-91981680D01*
X85204032Y-91988612D01*
X85197288Y-91992093D01*
X85197285Y-91992094D01*
X85060117Y-92062892D01*
X85053369Y-92066375D01*
X85047647Y-92071367D01*
X85047645Y-92071368D01*
X85042780Y-92075612D01*
X84925604Y-92177831D01*
X84921237Y-92184045D01*
X84832751Y-92309948D01*
X84828113Y-92316547D01*
X84766524Y-92474513D01*
X84765532Y-92482046D01*
X84765532Y-92482047D01*
X84746366Y-92627634D01*
X84744394Y-92642611D01*
X84762999Y-92811135D01*
X84770867Y-92832634D01*
X84808677Y-92935954D01*
X84821266Y-92970356D01*
X84825502Y-92976659D01*
X84825502Y-92976660D01*
X84911596Y-93104783D01*
X84911599Y-93104786D01*
X84915830Y-93111083D01*
X84921444Y-93116191D01*
X84921448Y-93116196D01*
X84971202Y-93161469D01*
X85008124Y-93222109D01*
X85009497Y-93276851D01*
X85009737Y-93276876D01*
X85009036Y-93283714D01*
X85009036Y-93283716D01*
X85005282Y-93320356D01*
X84999500Y-93376793D01*
X84999501Y-93973206D01*
X85009997Y-94074372D01*
X85012178Y-94080909D01*
X85063294Y-94234124D01*
X85065878Y-94305074D01*
X85029694Y-94366158D01*
X84966230Y-94397982D01*
X84943770Y-94400000D01*
X84441499Y-94400000D01*
X84373378Y-94379998D01*
X84326885Y-94326342D01*
X84315499Y-94274000D01*
X84315499Y-93766806D01*
X84309162Y-93697831D01*
X84260994Y-93544126D01*
X84177552Y-93406347D01*
X84063653Y-93292448D01*
X83925874Y-93209006D01*
X83918627Y-93206735D01*
X83918625Y-93206734D01*
X83778555Y-93162839D01*
X83778553Y-93162839D01*
X83772169Y-93160838D01*
X83703195Y-93154500D01*
X83665732Y-93154500D01*
X81681616Y-93154501D01*
X81613495Y-93134499D01*
X81567002Y-93080843D01*
X81556898Y-93010569D01*
X81560328Y-92994367D01*
X81582833Y-92914400D01*
X81584263Y-92909675D01*
X81878434Y-92002335D01*
X81880049Y-91997668D01*
X81881461Y-91993834D01*
X82209534Y-91102580D01*
X82211328Y-91097986D01*
X82213461Y-91092824D01*
X82575634Y-90216480D01*
X82577604Y-90211965D01*
X82580306Y-90206092D01*
X82976167Y-89345413D01*
X82978313Y-89340978D01*
X82986124Y-89325612D01*
X83099473Y-89102623D01*
X85699500Y-89102623D01*
X85699501Y-90697376D01*
X85699870Y-90700770D01*
X85699870Y-90700776D01*
X85703196Y-90731391D01*
X85706149Y-90758580D01*
X85756474Y-90892824D01*
X85761854Y-90900003D01*
X85761856Y-90900006D01*
X85815837Y-90972031D01*
X85842454Y-91007546D01*
X85849635Y-91012928D01*
X85949994Y-91088144D01*
X85949997Y-91088146D01*
X85957176Y-91093526D01*
X86046561Y-91127034D01*
X86084025Y-91141079D01*
X86084027Y-91141079D01*
X86091420Y-91143851D01*
X86099270Y-91144704D01*
X86099271Y-91144704D01*
X86149217Y-91150130D01*
X86152623Y-91150500D01*
X86949883Y-91150500D01*
X87747376Y-91150499D01*
X87750770Y-91150130D01*
X87750776Y-91150130D01*
X87800722Y-91144705D01*
X87800726Y-91144704D01*
X87808580Y-91143851D01*
X87942824Y-91093526D01*
X87950003Y-91088146D01*
X87950006Y-91088144D01*
X88050365Y-91012928D01*
X88057546Y-91007546D01*
X88084163Y-90972031D01*
X88138144Y-90900006D01*
X88138146Y-90900003D01*
X88143526Y-90892824D01*
X88189526Y-90770118D01*
X88191079Y-90765975D01*
X88191079Y-90765973D01*
X88193851Y-90758580D01*
X88200500Y-90697377D01*
X88200500Y-90693958D01*
X88200684Y-90690563D01*
X88202037Y-90690636D01*
X88220502Y-90627749D01*
X88274158Y-90581256D01*
X88344432Y-90571152D01*
X88358473Y-90573994D01*
X88446883Y-90597188D01*
X88446885Y-90597188D01*
X88454233Y-90599116D01*
X88540609Y-90600473D01*
X88616161Y-90601660D01*
X88616164Y-90601660D01*
X88623760Y-90601779D01*
X88631165Y-90600083D01*
X88631166Y-90600083D01*
X88691586Y-90586245D01*
X88789029Y-90563928D01*
X88940498Y-90487747D01*
X89044271Y-90399116D01*
X89063651Y-90382564D01*
X89063652Y-90382563D01*
X89069423Y-90377634D01*
X89168361Y-90239947D01*
X89184775Y-90199116D01*
X89228766Y-90089687D01*
X89228767Y-90089685D01*
X89231601Y-90082634D01*
X89245764Y-89983121D01*
X89254909Y-89918862D01*
X89254909Y-89918859D01*
X89255490Y-89914778D01*
X89255645Y-89900000D01*
X89253544Y-89882634D01*
X89246007Y-89820356D01*
X89235276Y-89731680D01*
X89175345Y-89573077D01*
X89150898Y-89537506D01*
X89083614Y-89439608D01*
X89083613Y-89439607D01*
X89079312Y-89433349D01*
X89069395Y-89424513D01*
X88958392Y-89325612D01*
X88958388Y-89325610D01*
X88952721Y-89320560D01*
X88937633Y-89312571D01*
X88838966Y-89260330D01*
X88802881Y-89241224D01*
X88638441Y-89199919D01*
X88630843Y-89199879D01*
X88630841Y-89199879D01*
X88553668Y-89199475D01*
X88468895Y-89199031D01*
X88461508Y-89200805D01*
X88461504Y-89200805D01*
X88355914Y-89226156D01*
X88285006Y-89222610D01*
X88227272Y-89181291D01*
X88201041Y-89115317D01*
X88200768Y-89109434D01*
X88200683Y-89109439D01*
X88200499Y-89106040D01*
X88200499Y-89102624D01*
X88194978Y-89051793D01*
X88194705Y-89049278D01*
X88194704Y-89049274D01*
X88193851Y-89041420D01*
X88143526Y-88907176D01*
X88138146Y-88899997D01*
X88138144Y-88899994D01*
X88062928Y-88799635D01*
X88057546Y-88792454D01*
X88010773Y-88757399D01*
X87950006Y-88711856D01*
X87950003Y-88711854D01*
X87942824Y-88706474D01*
X87853439Y-88672966D01*
X87815975Y-88658921D01*
X87815973Y-88658921D01*
X87808580Y-88656149D01*
X87800730Y-88655296D01*
X87800729Y-88655296D01*
X87750774Y-88649869D01*
X87750773Y-88649869D01*
X87747377Y-88649500D01*
X86950117Y-88649500D01*
X86152624Y-88649501D01*
X86149230Y-88649870D01*
X86149224Y-88649870D01*
X86099278Y-88655295D01*
X86099274Y-88655296D01*
X86091420Y-88656149D01*
X85957176Y-88706474D01*
X85949997Y-88711854D01*
X85949994Y-88711856D01*
X85889227Y-88757399D01*
X85842454Y-88792454D01*
X85837072Y-88799635D01*
X85761856Y-88899994D01*
X85761854Y-88899997D01*
X85756474Y-88907176D01*
X85706149Y-89041420D01*
X85699500Y-89102623D01*
X83099473Y-89102623D01*
X83410537Y-88490676D01*
X83412854Y-88486331D01*
X83450333Y-88419245D01*
X83878030Y-87653671D01*
X83880521Y-87649410D01*
X83926406Y-87574345D01*
X84182818Y-87154866D01*
X84377983Y-86835584D01*
X84380640Y-86831423D01*
X84885660Y-86073642D01*
X84899339Y-86056546D01*
X84911635Y-86043659D01*
X84915527Y-86036136D01*
X84917019Y-86033957D01*
X84922623Y-86027612D01*
X84947965Y-85973636D01*
X84950109Y-85969290D01*
X84973384Y-85924300D01*
X84973386Y-85924295D01*
X84977510Y-85916323D01*
X84979133Y-85908015D01*
X84979954Y-85905504D01*
X84983553Y-85897837D01*
X84992725Y-85838925D01*
X84993563Y-85834149D01*
X85003277Y-85784428D01*
X85003277Y-85784427D01*
X85004998Y-85775618D01*
X85001028Y-85732381D01*
X85000500Y-85720860D01*
X85000500Y-85537987D01*
X85020502Y-85469866D01*
X85074158Y-85423373D01*
X85144432Y-85413269D01*
X85209012Y-85442763D01*
X85215595Y-85448892D01*
X85270484Y-85503781D01*
X85571916Y-85747876D01*
X85897211Y-85959125D01*
X86242806Y-86135214D01*
X86258463Y-86141224D01*
X86577896Y-86263843D01*
X86604913Y-86274214D01*
X86979567Y-86374602D01*
X87074553Y-86389646D01*
X87138706Y-86420058D01*
X87176233Y-86480326D01*
X87175219Y-86551316D01*
X87172235Y-86559865D01*
X87166524Y-86574513D01*
X87144394Y-86742611D01*
X87162999Y-86911135D01*
X87221266Y-87070356D01*
X87225502Y-87076659D01*
X87225502Y-87076660D01*
X87234552Y-87090128D01*
X87315830Y-87211083D01*
X87321442Y-87216190D01*
X87321445Y-87216193D01*
X87435612Y-87320077D01*
X87435616Y-87320080D01*
X87441233Y-87325191D01*
X87447906Y-87328814D01*
X87447910Y-87328817D01*
X87583558Y-87402467D01*
X87583560Y-87402468D01*
X87590235Y-87406092D01*
X87597584Y-87408020D01*
X87746883Y-87447188D01*
X87746885Y-87447188D01*
X87754233Y-87449116D01*
X87840609Y-87450473D01*
X87916161Y-87451660D01*
X87916164Y-87451660D01*
X87923760Y-87451779D01*
X87931165Y-87450083D01*
X87931166Y-87450083D01*
X88038375Y-87425529D01*
X88089029Y-87413928D01*
X88240498Y-87337747D01*
X88369423Y-87227634D01*
X88468361Y-87089947D01*
X88476237Y-87070356D01*
X88528766Y-86939687D01*
X88528767Y-86939685D01*
X88531601Y-86932634D01*
X88545413Y-86835584D01*
X88554909Y-86768862D01*
X88554909Y-86768859D01*
X88555490Y-86764778D01*
X88555645Y-86750000D01*
X88553840Y-86735080D01*
X88550396Y-86706626D01*
X88535276Y-86581680D01*
X88512062Y-86520246D01*
X88506694Y-86449453D01*
X88540452Y-86386995D01*
X88597317Y-86354001D01*
X88895087Y-86274214D01*
X88922105Y-86263843D01*
X89241537Y-86141224D01*
X89257194Y-86135214D01*
X89415943Y-86054328D01*
X89485718Y-86041224D01*
X89551502Y-86067924D01*
X89592409Y-86125951D01*
X89596984Y-86189826D01*
X89572949Y-86317947D01*
X89572948Y-86317956D01*
X89572173Y-86322087D01*
X89558292Y-86590777D01*
X89558638Y-86594975D01*
X89558638Y-86594982D01*
X89580039Y-86854706D01*
X89580386Y-86858916D01*
X89581291Y-86863039D01*
X89581291Y-86863040D01*
X89629542Y-87082900D01*
X89638059Y-87121710D01*
X89639500Y-87125659D01*
X89639501Y-87125663D01*
X89728833Y-87370496D01*
X89728837Y-87370504D01*
X89730280Y-87374460D01*
X89732243Y-87378196D01*
X89732243Y-87378197D01*
X89853438Y-87608911D01*
X89853442Y-87608917D01*
X89855400Y-87612645D01*
X90011181Y-87832006D01*
X90114752Y-87942884D01*
X90173096Y-88005344D01*
X90181205Y-88014944D01*
X90182525Y-88016674D01*
X90185476Y-88020543D01*
X90188979Y-88023905D01*
X90188983Y-88023909D01*
X90190701Y-88025557D01*
X90194391Y-88029098D01*
X90198384Y-88031891D01*
X90198387Y-88031893D01*
X90207761Y-88038449D01*
X90224812Y-88052776D01*
X92125835Y-89961083D01*
X92862705Y-90700776D01*
X92881151Y-90719293D01*
X92891751Y-90731389D01*
X92911215Y-90756690D01*
X92920165Y-90765207D01*
X92924170Y-90767983D01*
X92924929Y-90768601D01*
X92930952Y-90773123D01*
X92943551Y-90783349D01*
X93128503Y-90933466D01*
X93132089Y-90935658D01*
X93169589Y-90958580D01*
X93356957Y-91073111D01*
X93360802Y-91074807D01*
X93360805Y-91074809D01*
X93423760Y-91102585D01*
X93601927Y-91181193D01*
X93859078Y-91255798D01*
X93863219Y-91256421D01*
X93863221Y-91256421D01*
X93930515Y-91266538D01*
X94123856Y-91295605D01*
X94290273Y-91298281D01*
X94387392Y-91299843D01*
X94387396Y-91299843D01*
X94391575Y-91299910D01*
X94611207Y-91274080D01*
X94653340Y-91269125D01*
X94653342Y-91269125D01*
X94657497Y-91268636D01*
X94770231Y-91239825D01*
X94912845Y-91203378D01*
X94912850Y-91203376D01*
X94916913Y-91202338D01*
X95165231Y-91102188D01*
X95168862Y-91100126D01*
X95168870Y-91100122D01*
X95394411Y-90972031D01*
X95394415Y-90972029D01*
X95398057Y-90969960D01*
X95490145Y-90900006D01*
X95607920Y-90810538D01*
X95607919Y-90810538D01*
X95611269Y-90807994D01*
X95614246Y-90805033D01*
X95614250Y-90805029D01*
X95798114Y-90622120D01*
X95798117Y-90622116D01*
X95801092Y-90619157D01*
X95838495Y-90570448D01*
X95961608Y-90410124D01*
X95961612Y-90410118D01*
X95964166Y-90406792D01*
X96097605Y-90174658D01*
X96167628Y-90003612D01*
X96197457Y-89930748D01*
X96199047Y-89926864D01*
X96201137Y-89918862D01*
X96265633Y-89671865D01*
X96265634Y-89671862D01*
X96266695Y-89667797D01*
X96270915Y-89633457D01*
X96298843Y-89406203D01*
X96298843Y-89406198D01*
X96299354Y-89402042D01*
X96296443Y-89134304D01*
X96264724Y-88915580D01*
X96258617Y-88873465D01*
X96258616Y-88873462D01*
X96258016Y-88869322D01*
X96205537Y-88684852D01*
X96185899Y-88615821D01*
X96185897Y-88615816D01*
X96184751Y-88611787D01*
X96169543Y-88576826D01*
X96079618Y-88370098D01*
X96079617Y-88370096D01*
X96077947Y-88366257D01*
X95939493Y-88137078D01*
X95904413Y-88093394D01*
X95791745Y-87953094D01*
X95784354Y-87942884D01*
X95783228Y-87941152D01*
X95783223Y-87941145D01*
X95780570Y-87937065D01*
X95772322Y-87927866D01*
X95741228Y-87902443D01*
X95731731Y-87893836D01*
X95413369Y-87574345D01*
X93074186Y-85226871D01*
X93058138Y-85207126D01*
X93053584Y-85200195D01*
X93045292Y-85191036D01*
X93041512Y-85187976D01*
X93040865Y-85187364D01*
X93035103Y-85182330D01*
X92849029Y-85006939D01*
X92630374Y-84850169D01*
X92392756Y-84723975D01*
X92388804Y-84722513D01*
X92388800Y-84722511D01*
X92219256Y-84659781D01*
X92140425Y-84630614D01*
X91877894Y-84571756D01*
X91764303Y-84561880D01*
X91614061Y-84548817D01*
X91614053Y-84548817D01*
X91609857Y-84548452D01*
X91444293Y-84556256D01*
X91345324Y-84560921D01*
X91345321Y-84560921D01*
X91341107Y-84561120D01*
X91336956Y-84561879D01*
X91336950Y-84561880D01*
X91193870Y-84588053D01*
X91123262Y-84580635D01*
X91067873Y-84536221D01*
X91045290Y-84468912D01*
X91058931Y-84406909D01*
X91135214Y-84257194D01*
X91274214Y-83895087D01*
X91374602Y-83520433D01*
X91412453Y-83281452D01*
X91434764Y-83140586D01*
X91434765Y-83140578D01*
X91435278Y-83137338D01*
X91455578Y-82750000D01*
X91435278Y-82362662D01*
X91426681Y-82308378D01*
X91397715Y-82125500D01*
X91374602Y-81979567D01*
X91274214Y-81604913D01*
X91135214Y-81242806D01*
X90959125Y-80897211D01*
X90747876Y-80571916D01*
X90503781Y-80270484D01*
X90448892Y-80215595D01*
X90441809Y-80202623D01*
X93699500Y-80202623D01*
X93699501Y-81797376D01*
X93699870Y-81800770D01*
X93699870Y-81800776D01*
X93702207Y-81822284D01*
X93706149Y-81858580D01*
X93756474Y-81992824D01*
X93761854Y-82000003D01*
X93761856Y-82000006D01*
X93836978Y-82100240D01*
X93842454Y-82107546D01*
X93849635Y-82112928D01*
X93855984Y-82119277D01*
X93854925Y-82120336D01*
X93891582Y-82169364D01*
X93899500Y-82213327D01*
X93899500Y-82993822D01*
X93909399Y-83078727D01*
X93911054Y-83092920D01*
X93914657Y-83123828D01*
X93917153Y-83130705D01*
X93917154Y-83130708D01*
X93952990Y-83229434D01*
X93974369Y-83288331D01*
X94070323Y-83434685D01*
X94197372Y-83555040D01*
X94348702Y-83642939D01*
X94516193Y-83693667D01*
X94690862Y-83704503D01*
X94698078Y-83703263D01*
X94698080Y-83703263D01*
X94856125Y-83676106D01*
X94856127Y-83676105D01*
X94863340Y-83674866D01*
X95024373Y-83606346D01*
X95165324Y-83502617D01*
X95170063Y-83497039D01*
X95170066Y-83497036D01*
X95273893Y-83374824D01*
X95273896Y-83374820D01*
X95278632Y-83369245D01*
X95346841Y-83235666D01*
X95354892Y-83219900D01*
X95354893Y-83219898D01*
X95358219Y-83213384D01*
X95376033Y-83140586D01*
X95389221Y-83086689D01*
X95399815Y-83043394D01*
X95400500Y-83032352D01*
X95400500Y-82376499D01*
X95420502Y-82308378D01*
X95474158Y-82261885D01*
X95526500Y-82250499D01*
X95747376Y-82250499D01*
X95750770Y-82250130D01*
X95750776Y-82250130D01*
X95800722Y-82244705D01*
X95800726Y-82244704D01*
X95808580Y-82243851D01*
X95942824Y-82193526D01*
X95950003Y-82188146D01*
X95950006Y-82188144D01*
X96050365Y-82112928D01*
X96057546Y-82107546D01*
X96063022Y-82100240D01*
X96138144Y-82000006D01*
X96138146Y-82000003D01*
X96143526Y-81992824D01*
X96193851Y-81858580D01*
X96200500Y-81797377D01*
X96200499Y-80202624D01*
X96200130Y-80199224D01*
X96194705Y-80149278D01*
X96194704Y-80149274D01*
X96193851Y-80141420D01*
X96143526Y-80007176D01*
X96138146Y-79999997D01*
X96138144Y-79999994D01*
X96062928Y-79899635D01*
X96057546Y-79892454D01*
X96050365Y-79887072D01*
X95950006Y-79811856D01*
X95950003Y-79811854D01*
X95942824Y-79806474D01*
X95821371Y-79760944D01*
X95815975Y-79758921D01*
X95815973Y-79758921D01*
X95808580Y-79756149D01*
X95800730Y-79755296D01*
X95800729Y-79755296D01*
X95750774Y-79749869D01*
X95750773Y-79749869D01*
X95747377Y-79749500D01*
X94950117Y-79749500D01*
X94152624Y-79749501D01*
X94149230Y-79749870D01*
X94149224Y-79749870D01*
X94099278Y-79755295D01*
X94099274Y-79755296D01*
X94091420Y-79756149D01*
X93957176Y-79806474D01*
X93949997Y-79811854D01*
X93949994Y-79811856D01*
X93849635Y-79887072D01*
X93842454Y-79892454D01*
X93837072Y-79899635D01*
X93761856Y-79999994D01*
X93761854Y-79999997D01*
X93756474Y-80007176D01*
X93744233Y-80039829D01*
X93711990Y-80125840D01*
X93706149Y-80141420D01*
X93699500Y-80202623D01*
X90441809Y-80202623D01*
X90414866Y-80153283D01*
X90419931Y-80082468D01*
X90462478Y-80025632D01*
X90528998Y-80000821D01*
X90537987Y-80000500D01*
X90711500Y-80000500D01*
X90726791Y-80001431D01*
X90760407Y-80005541D01*
X90769257Y-80004087D01*
X90769265Y-80004087D01*
X90824893Y-79994948D01*
X90827343Y-79994571D01*
X90891918Y-79985323D01*
X90896691Y-79983153D01*
X90901877Y-79982301D01*
X90960748Y-79954057D01*
X90963098Y-79952959D01*
X90968412Y-79950543D01*
X91022428Y-79925984D01*
X91026404Y-79922558D01*
X91031138Y-79920287D01*
X91050242Y-79903129D01*
X91065135Y-79891639D01*
X91270875Y-79756149D01*
X91624679Y-79523150D01*
X91831219Y-79387133D01*
X91835356Y-79384523D01*
X92157375Y-79189942D01*
X92650939Y-78891706D01*
X92655121Y-78889288D01*
X93489232Y-78428491D01*
X93490252Y-78427953D01*
X100784707Y-78427953D01*
X100801194Y-78713878D01*
X100802019Y-78718083D01*
X100802020Y-78718091D01*
X100814861Y-78783542D01*
X100856332Y-78994920D01*
X100857719Y-78998970D01*
X100857720Y-78998975D01*
X100909345Y-79149758D01*
X100949102Y-79265878D01*
X101077787Y-79521740D01*
X101080213Y-79525269D01*
X101080216Y-79525275D01*
X101118920Y-79581589D01*
X101240006Y-79757770D01*
X101242893Y-79760943D01*
X101242894Y-79760944D01*
X101389951Y-79922558D01*
X101432756Y-79969600D01*
X101652472Y-80153311D01*
X101656098Y-80155586D01*
X101656100Y-80155587D01*
X101691578Y-80177842D01*
X101895088Y-80305503D01*
X101898990Y-80307265D01*
X101898994Y-80307267D01*
X102152202Y-80421595D01*
X102152206Y-80421597D01*
X102156114Y-80423361D01*
X102160233Y-80424581D01*
X102426606Y-80503485D01*
X102426611Y-80503486D01*
X102430719Y-80504703D01*
X102434953Y-80505351D01*
X102434958Y-80505352D01*
X102668418Y-80541076D01*
X102713824Y-80548024D01*
X102859589Y-80550314D01*
X102995898Y-80552456D01*
X102995904Y-80552456D01*
X103000189Y-80552523D01*
X103004441Y-80552008D01*
X103004449Y-80552008D01*
X103280253Y-80518631D01*
X103280258Y-80518630D01*
X103284514Y-80518115D01*
X103419496Y-80482703D01*
X103490461Y-80484764D01*
X103540563Y-80515484D01*
X104846111Y-81821032D01*
X104848564Y-81823554D01*
X104888680Y-81865975D01*
X104907881Y-81886280D01*
X104913111Y-81889942D01*
X104913112Y-81889943D01*
X104957292Y-81920878D01*
X104964657Y-81926448D01*
X105006456Y-81960539D01*
X105006460Y-81960542D01*
X105011403Y-81964573D01*
X105036913Y-81977910D01*
X105050800Y-81986353D01*
X105074379Y-82002863D01*
X105107193Y-82017063D01*
X105129740Y-82026820D01*
X105138072Y-82030795D01*
X105185873Y-82055784D01*
X105185876Y-82055785D01*
X105191530Y-82058741D01*
X105197657Y-82060498D01*
X105197660Y-82060499D01*
X105211358Y-82064426D01*
X105219201Y-82066675D01*
X105234505Y-82072155D01*
X105260919Y-82083586D01*
X105304281Y-82092645D01*
X105319967Y-82095922D01*
X105328930Y-82098140D01*
X105336254Y-82100240D01*
X105386913Y-82114766D01*
X105415612Y-82116974D01*
X105431705Y-82119265D01*
X105459880Y-82125151D01*
X105464719Y-82125405D01*
X105464722Y-82125405D01*
X105464871Y-82125413D01*
X105464887Y-82125413D01*
X105466539Y-82125500D01*
X105521564Y-82125500D01*
X105531231Y-82125871D01*
X105583210Y-82129871D01*
X105583214Y-82129871D01*
X105589570Y-82130360D01*
X105620172Y-82126494D01*
X105635965Y-82125500D01*
X112428639Y-82125500D01*
X112496760Y-82145502D01*
X112543253Y-82199158D01*
X112553902Y-82237893D01*
X112556149Y-82258580D01*
X112606474Y-82392824D01*
X112611854Y-82400003D01*
X112611856Y-82400006D01*
X112687072Y-82500365D01*
X112692454Y-82507546D01*
X112699635Y-82512928D01*
X112799994Y-82588144D01*
X112799997Y-82588146D01*
X112807176Y-82593526D01*
X112873974Y-82618567D01*
X112934025Y-82641079D01*
X112934027Y-82641079D01*
X112941420Y-82643851D01*
X112949270Y-82644704D01*
X112949271Y-82644704D01*
X112971667Y-82647137D01*
X113002623Y-82650500D01*
X113349949Y-82650500D01*
X113697376Y-82650499D01*
X113700770Y-82650130D01*
X113700776Y-82650130D01*
X113750722Y-82644705D01*
X113750726Y-82644704D01*
X113758580Y-82643851D01*
X113892824Y-82593526D01*
X113900003Y-82588146D01*
X113900006Y-82588144D01*
X114000365Y-82512928D01*
X114007546Y-82507546D01*
X114012928Y-82500365D01*
X114088144Y-82400006D01*
X114088146Y-82400003D01*
X114093526Y-82392824D01*
X114143851Y-82258580D01*
X114150500Y-82197377D01*
X114150500Y-82141667D01*
X114170502Y-82073546D01*
X114175084Y-82066896D01*
X114211824Y-82017063D01*
X114211826Y-82017059D01*
X114215613Y-82011923D01*
X114221120Y-82000006D01*
X114286468Y-81858580D01*
X114300870Y-81827411D01*
X114347284Y-81629524D01*
X114352959Y-81426347D01*
X114317664Y-81226178D01*
X114242840Y-81037195D01*
X114171066Y-80927512D01*
X114150499Y-80858519D01*
X114150499Y-80802624D01*
X114143851Y-80741420D01*
X114136095Y-80720730D01*
X114130911Y-80649924D01*
X114164831Y-80587554D01*
X114227086Y-80553425D01*
X114254076Y-80550500D01*
X114637503Y-80550499D01*
X114647376Y-80550499D01*
X114650770Y-80550130D01*
X114650776Y-80550130D01*
X114700722Y-80544705D01*
X114700726Y-80544704D01*
X114708580Y-80543851D01*
X114842824Y-80493526D01*
X114850003Y-80488146D01*
X114850006Y-80488144D01*
X114950365Y-80412928D01*
X114957546Y-80407546D01*
X115015251Y-80330551D01*
X115038144Y-80300006D01*
X115038146Y-80300003D01*
X115043526Y-80292824D01*
X115078614Y-80199226D01*
X115091079Y-80165975D01*
X115091079Y-80165973D01*
X115093851Y-80158580D01*
X115097516Y-80124849D01*
X115100131Y-80100774D01*
X115100131Y-80100773D01*
X115100500Y-80097377D01*
X115100500Y-80041667D01*
X115120502Y-79973546D01*
X115125084Y-79966896D01*
X115161824Y-79917063D01*
X115161826Y-79917059D01*
X115165613Y-79911923D01*
X115250870Y-79727411D01*
X115285883Y-79578134D01*
X115295828Y-79535733D01*
X115295828Y-79535730D01*
X115297284Y-79529524D01*
X115302960Y-79326347D01*
X115286426Y-79232578D01*
X115268772Y-79132460D01*
X115268771Y-79132456D01*
X115267664Y-79126179D01*
X115192840Y-78937195D01*
X115121067Y-78827514D01*
X115100499Y-78758521D01*
X115100499Y-78702624D01*
X115093851Y-78641420D01*
X115043526Y-78507176D01*
X115038146Y-78499997D01*
X115038144Y-78499994D01*
X114962928Y-78399635D01*
X114957546Y-78392454D01*
X114882203Y-78335987D01*
X114850006Y-78311856D01*
X114850003Y-78311854D01*
X114842824Y-78306474D01*
X114753439Y-78272966D01*
X114715975Y-78258921D01*
X114715973Y-78258921D01*
X114708580Y-78256149D01*
X114700730Y-78255296D01*
X114700729Y-78255296D01*
X114650774Y-78249869D01*
X114650773Y-78249869D01*
X114647377Y-78249500D01*
X114616612Y-78249500D01*
X114548491Y-78229498D01*
X114527517Y-78212596D01*
X114068889Y-77753969D01*
X114066436Y-77751446D01*
X114011508Y-77693361D01*
X114011507Y-77693360D01*
X114007119Y-77688720D01*
X113957705Y-77654120D01*
X113950340Y-77648550D01*
X113908541Y-77614459D01*
X113908539Y-77614458D01*
X113903597Y-77610427D01*
X113897945Y-77607472D01*
X113897940Y-77607469D01*
X113878090Y-77597092D01*
X113864192Y-77588642D01*
X113845849Y-77575798D01*
X113840621Y-77572137D01*
X113834770Y-77569605D01*
X113834759Y-77569599D01*
X113785264Y-77548181D01*
X113776928Y-77544205D01*
X113729128Y-77519215D01*
X113729120Y-77519212D01*
X113723470Y-77516258D01*
X113695796Y-77508323D01*
X113680494Y-77502844D01*
X113654081Y-77491414D01*
X113647837Y-77490110D01*
X113647832Y-77490108D01*
X113612795Y-77482789D01*
X113595033Y-77479078D01*
X113586083Y-77476864D01*
X113528087Y-77460234D01*
X113499388Y-77458026D01*
X113483295Y-77455735D01*
X113455120Y-77449849D01*
X113450281Y-77449595D01*
X113450278Y-77449595D01*
X113450129Y-77449587D01*
X113450113Y-77449587D01*
X113448461Y-77449500D01*
X113393435Y-77449500D01*
X113383768Y-77449129D01*
X113331789Y-77445129D01*
X113331785Y-77445129D01*
X113325429Y-77444640D01*
X113300169Y-77447831D01*
X113294827Y-77448506D01*
X113279035Y-77449500D01*
X109814185Y-77449500D01*
X109746064Y-77429498D01*
X109702219Y-77381289D01*
X109692859Y-77363154D01*
X109692856Y-77363149D01*
X109690891Y-77359342D01*
X109688428Y-77355837D01*
X109528673Y-77128529D01*
X109528668Y-77128523D01*
X109526209Y-77125024D01*
X109331251Y-76915224D01*
X109327935Y-76912510D01*
X109327932Y-76912507D01*
X109112941Y-76736539D01*
X109109623Y-76733823D01*
X108865427Y-76584180D01*
X108847419Y-76576275D01*
X108607110Y-76470786D01*
X108607106Y-76470785D01*
X108603182Y-76469062D01*
X108327739Y-76390600D01*
X108108944Y-76359461D01*
X108048448Y-76350851D01*
X108048446Y-76350851D01*
X108044196Y-76350246D01*
X107892333Y-76349451D01*
X107762086Y-76348769D01*
X107762080Y-76348769D01*
X107757800Y-76348747D01*
X107753556Y-76349306D01*
X107753552Y-76349306D01*
X107629031Y-76365699D01*
X107473851Y-76386129D01*
X107469711Y-76387262D01*
X107469709Y-76387262D01*
X107453209Y-76391776D01*
X107197602Y-76461702D01*
X107193654Y-76463386D01*
X106938117Y-76572382D01*
X106938113Y-76572384D01*
X106934165Y-76574068D01*
X106688415Y-76721146D01*
X106464900Y-76900215D01*
X106267755Y-77107962D01*
X106100629Y-77340543D01*
X105966614Y-77593653D01*
X105868190Y-77862610D01*
X105807178Y-78142436D01*
X105784707Y-78427953D01*
X105801194Y-78713878D01*
X105802019Y-78718083D01*
X105802020Y-78718091D01*
X105814861Y-78783542D01*
X105856332Y-78994920D01*
X105857719Y-78998970D01*
X105857720Y-78998975D01*
X105909345Y-79149758D01*
X105949102Y-79265878D01*
X106077787Y-79521740D01*
X106080213Y-79525269D01*
X106080216Y-79525275D01*
X106118920Y-79581589D01*
X106240006Y-79757770D01*
X106357662Y-79887072D01*
X106381892Y-79913701D01*
X106412944Y-79977546D01*
X106404548Y-80048045D01*
X106359372Y-80102813D01*
X106288698Y-80124500D01*
X106031611Y-80124500D01*
X105963490Y-80104498D01*
X105942516Y-80087595D01*
X104956306Y-79101385D01*
X104922280Y-79039073D01*
X104922581Y-78984161D01*
X104968529Y-78783542D01*
X104968530Y-78783538D01*
X104969487Y-78779358D01*
X104976031Y-78706042D01*
X104994726Y-78496558D01*
X104994726Y-78496556D01*
X104994946Y-78494092D01*
X104995408Y-78450000D01*
X104992005Y-78400087D01*
X104976220Y-78168540D01*
X104976219Y-78168534D01*
X104975928Y-78164263D01*
X104917850Y-77883814D01*
X104822248Y-77613842D01*
X104752204Y-77478134D01*
X104692856Y-77363149D01*
X104692856Y-77363148D01*
X104690891Y-77359342D01*
X104688428Y-77355837D01*
X104528673Y-77128529D01*
X104528668Y-77128523D01*
X104526209Y-77125024D01*
X104331251Y-76915224D01*
X104327935Y-76912510D01*
X104327932Y-76912507D01*
X104112941Y-76736539D01*
X104109623Y-76733823D01*
X103865427Y-76584180D01*
X103847419Y-76576275D01*
X103607110Y-76470786D01*
X103607106Y-76470785D01*
X103603182Y-76469062D01*
X103327739Y-76390600D01*
X103108944Y-76359461D01*
X103048448Y-76350851D01*
X103048446Y-76350851D01*
X103044196Y-76350246D01*
X102892333Y-76349451D01*
X102762086Y-76348769D01*
X102762080Y-76348769D01*
X102757800Y-76348747D01*
X102753556Y-76349306D01*
X102753552Y-76349306D01*
X102629031Y-76365699D01*
X102473851Y-76386129D01*
X102469711Y-76387262D01*
X102469709Y-76387262D01*
X102453209Y-76391776D01*
X102197602Y-76461702D01*
X102193654Y-76463386D01*
X101938117Y-76572382D01*
X101938113Y-76572384D01*
X101934165Y-76574068D01*
X101688415Y-76721146D01*
X101464900Y-76900215D01*
X101267755Y-77107962D01*
X101100629Y-77340543D01*
X100966614Y-77593653D01*
X100868190Y-77862610D01*
X100807178Y-78142436D01*
X100784707Y-78427953D01*
X93490252Y-78427953D01*
X93493526Y-78426227D01*
X94014527Y-78164263D01*
X94344895Y-77998152D01*
X94349307Y-77996040D01*
X95216604Y-77601354D01*
X95221095Y-77599414D01*
X96103100Y-77238672D01*
X96107663Y-77236909D01*
X96470086Y-77104853D01*
X97002978Y-76910684D01*
X97007568Y-76909111D01*
X97600032Y-76718941D01*
X97914901Y-76617874D01*
X97919587Y-76616470D01*
X98309023Y-76507948D01*
X98837507Y-76360678D01*
X98842203Y-76359466D01*
X99486128Y-76206693D01*
X99769407Y-76139485D01*
X99774187Y-76138449D01*
X100709155Y-75954637D01*
X100713972Y-75953786D01*
X101655438Y-75806393D01*
X101660285Y-75805731D01*
X102201641Y-75742391D01*
X102606722Y-75694995D01*
X102611558Y-75694525D01*
X103561612Y-75620605D01*
X103566456Y-75620322D01*
X104518661Y-75583335D01*
X104523551Y-75583240D01*
X105476449Y-75583240D01*
X105481339Y-75583335D01*
G37*
%TD.AperFunction*%
%TD*%
M02*
