%TF.GenerationSoftware,KiCad,Pcbnew,7.0.1*%
%TF.CreationDate,2023-05-14T21:17:26+02:00*%
%TF.ProjectId,MTR_Tiny_MD,4d54525f-5469-46e7-995f-4d442e6b6963,rev?*%
%TF.SameCoordinates,Original*%
%TF.FileFunction,Paste,Top*%
%TF.FilePolarity,Positive*%
%FSLAX46Y46*%
G04 Gerber Fmt 4.6, Leading zero omitted, Abs format (unit mm)*
G04 Created by KiCad (PCBNEW 7.0.1) date 2023-05-14 21:17:26*
%MOMM*%
%LPD*%
G01*
G04 APERTURE LIST*
G04 Aperture macros list*
%AMRoundRect*
0 Rectangle with rounded corners*
0 $1 Rounding radius*
0 $2 $3 $4 $5 $6 $7 $8 $9 X,Y pos of 4 corners*
0 Add a 4 corners polygon primitive as box body*
4,1,4,$2,$3,$4,$5,$6,$7,$8,$9,$2,$3,0*
0 Add four circle primitives for the rounded corners*
1,1,$1+$1,$2,$3*
1,1,$1+$1,$4,$5*
1,1,$1+$1,$6,$7*
1,1,$1+$1,$8,$9*
0 Add four rect primitives between the rounded corners*
20,1,$1+$1,$2,$3,$4,$5,0*
20,1,$1+$1,$4,$5,$6,$7,0*
20,1,$1+$1,$6,$7,$8,$9,0*
20,1,$1+$1,$8,$9,$2,$3,0*%
G04 Aperture macros list end*
%ADD10C,0.100000*%
%ADD11RoundRect,0.256734X0.280766X0.256734X-0.280766X0.256734X-0.280766X-0.256734X0.280766X-0.256734X0*%
%ADD12RoundRect,0.135000X0.185000X-0.135000X0.185000X0.135000X-0.185000X0.135000X-0.185000X-0.135000X0*%
%ADD13RoundRect,0.135000X-0.185000X0.135000X-0.185000X-0.135000X0.185000X-0.135000X0.185000X0.135000X0*%
%ADD14RoundRect,0.250000X0.325000X0.650000X-0.325000X0.650000X-0.325000X-0.650000X0.325000X-0.650000X0*%
%ADD15RoundRect,0.079500X-0.100500X0.079500X-0.100500X-0.079500X0.100500X-0.079500X0.100500X0.079500X0*%
%ADD16RoundRect,0.140000X-0.140000X-0.170000X0.140000X-0.170000X0.140000X0.170000X-0.140000X0.170000X0*%
%ADD17RoundRect,0.225000X-0.225000X-0.250000X0.225000X-0.250000X0.225000X0.250000X-0.225000X0.250000X0*%
%ADD18RoundRect,0.225000X0.250000X-0.225000X0.250000X0.225000X-0.250000X0.225000X-0.250000X-0.225000X0*%
%ADD19RoundRect,0.225000X0.225000X0.250000X-0.225000X0.250000X-0.225000X-0.250000X0.225000X-0.250000X0*%
%ADD20RoundRect,0.250000X-0.375000X-1.075000X0.375000X-1.075000X0.375000X1.075000X-0.375000X1.075000X0*%
%ADD21RoundRect,0.225000X-0.250000X0.225000X-0.250000X-0.225000X0.250000X-0.225000X0.250000X0.225000X0*%
%ADD22RoundRect,0.250000X-0.325000X-0.650000X0.325000X-0.650000X0.325000X0.650000X-0.325000X0.650000X0*%
%ADD23RoundRect,0.135000X-0.135000X-0.185000X0.135000X-0.185000X0.135000X0.185000X-0.135000X0.185000X0*%
%ADD24RoundRect,0.218750X-0.218750X-0.256250X0.218750X-0.256250X0.218750X0.256250X-0.218750X0.256250X0*%
%ADD25RoundRect,0.135000X0.135000X0.185000X-0.135000X0.185000X-0.135000X-0.185000X0.135000X-0.185000X0*%
%ADD26RoundRect,0.140000X0.140000X0.170000X-0.140000X0.170000X-0.140000X-0.170000X0.140000X-0.170000X0*%
%ADD27RoundRect,0.218750X0.218750X0.256250X-0.218750X0.256250X-0.218750X-0.256250X0.218750X-0.256250X0*%
%ADD28RoundRect,0.140000X-0.170000X0.140000X-0.170000X-0.140000X0.170000X-0.140000X0.170000X0.140000X0*%
%ADD29RoundRect,0.140000X0.170000X-0.140000X0.170000X0.140000X-0.170000X0.140000X-0.170000X-0.140000X0*%
%ADD30RoundRect,0.200000X-0.200000X-0.275000X0.200000X-0.275000X0.200000X0.275000X-0.200000X0.275000X0*%
%ADD31R,1.450000X0.600000*%
%ADD32R,1.450000X0.300000*%
%ADD33R,1.500000X0.900000*%
%ADD34R,1.000000X0.900000*%
%ADD35R,0.700000X0.300000*%
%ADD36R,0.600000X1.300000*%
%ADD37RoundRect,0.249999X-0.395001X0.395001X-0.395001X-0.395001X0.395001X-0.395001X0.395001X0.395001X0*%
%ADD38RoundRect,0.050000X-0.050000X0.387500X-0.050000X-0.387500X0.050000X-0.387500X0.050000X0.387500X0*%
%ADD39RoundRect,0.050000X-0.387500X0.050000X-0.387500X-0.050000X0.387500X-0.050000X0.387500X0.050000X0*%
%ADD40R,0.254800X0.807999*%
%ADD41R,0.807999X0.254800*%
%ADD42R,0.757199X0.254800*%
%ADD43R,1.600200X0.203200*%
G04 APERTURE END LIST*
%TO.C,U4*%
D10*
X117100000Y-101864879D02*
X116958579Y-102006300D01*
X116766930Y-102006300D01*
X116766930Y-101774830D01*
X117100000Y-101774830D01*
X117100000Y-101864879D01*
G36*
X117100000Y-101864879D02*
G01*
X116958579Y-102006300D01*
X116766930Y-102006300D01*
X116766930Y-101774830D01*
X117100000Y-101774830D01*
X117100000Y-101864879D01*
G37*
X117100000Y-103135121D02*
X117100000Y-103225170D01*
X116766930Y-103225170D01*
X116766930Y-102993700D01*
X116958579Y-102993700D01*
X117100000Y-103135121D01*
G36*
X117100000Y-103135121D02*
G01*
X117100000Y-103225170D01*
X116766930Y-103225170D01*
X116766930Y-102993700D01*
X116958579Y-102993700D01*
X117100000Y-103135121D01*
G37*
X117633070Y-102006300D02*
X117441421Y-102006300D01*
X117300000Y-101864879D01*
X117300000Y-101774830D01*
X117633070Y-101774830D01*
X117633070Y-102006300D01*
G36*
X117633070Y-102006300D02*
G01*
X117441421Y-102006300D01*
X117300000Y-101864879D01*
X117300000Y-101774830D01*
X117633070Y-101774830D01*
X117633070Y-102006300D01*
G37*
X117633070Y-103225170D02*
X117300000Y-103225170D01*
X117300000Y-103135121D01*
X117441421Y-102993700D01*
X117633070Y-102993700D01*
X117633070Y-103225170D01*
G36*
X117633070Y-103225170D02*
G01*
X117300000Y-103225170D01*
X117300000Y-103135121D01*
X117441421Y-102993700D01*
X117633070Y-102993700D01*
X117633070Y-103225170D01*
G37*
X117100000Y-102347721D02*
X117100000Y-102652279D01*
X116958579Y-102793700D01*
X116766930Y-102793700D01*
X116766930Y-102206300D01*
X116958579Y-102206300D01*
X117100000Y-102347721D01*
G36*
X117100000Y-102347721D02*
G01*
X117100000Y-102652279D01*
X116958579Y-102793700D01*
X116766930Y-102793700D01*
X116766930Y-102206300D01*
X116958579Y-102206300D01*
X117100000Y-102347721D01*
G37*
X117633070Y-102793700D02*
X117441421Y-102793700D01*
X117300000Y-102652279D01*
X117300000Y-102347721D01*
X117441421Y-102206300D01*
X117633070Y-102206300D01*
X117633070Y-102793700D01*
G36*
X117633070Y-102793700D02*
G01*
X117441421Y-102793700D01*
X117300000Y-102652279D01*
X117300000Y-102347721D01*
X117441421Y-102206300D01*
X117633070Y-102206300D01*
X117633070Y-102793700D01*
G37*
%TO.C,U5*%
X92555600Y-99315000D02*
X91307800Y-99315000D01*
X91307800Y-98245000D01*
X92555600Y-98245000D01*
X92555600Y-99315000D01*
G36*
X92555600Y-99315000D02*
G01*
X91307800Y-99315000D01*
X91307800Y-98245000D01*
X92555600Y-98245000D01*
X92555600Y-99315000D01*
G37*
X91107800Y-99315000D02*
X89860000Y-99315000D01*
X89860000Y-98245000D01*
X91107800Y-98245000D01*
X91107800Y-99315000D01*
G36*
X91107800Y-99315000D02*
G01*
X89860000Y-99315000D01*
X89860000Y-98245000D01*
X91107800Y-98245000D01*
X91107800Y-99315000D01*
G37*
X89660000Y-99315000D02*
X88412200Y-99315000D01*
X88412200Y-98245000D01*
X89660000Y-98245000D01*
X89660000Y-99315000D01*
G36*
X89660000Y-99315000D02*
G01*
X88412200Y-99315000D01*
X88412200Y-98245000D01*
X89660000Y-98245000D01*
X89660000Y-99315000D01*
G37*
X88212200Y-99315000D02*
X86964400Y-99315000D01*
X86964400Y-98245000D01*
X88212200Y-98245000D01*
X88212200Y-99315000D01*
G36*
X88212200Y-99315000D02*
G01*
X86964400Y-99315000D01*
X86964400Y-98245000D01*
X88212200Y-98245000D01*
X88212200Y-99315000D01*
G37*
X92555600Y-100585000D02*
X91307800Y-100585000D01*
X91307800Y-99515000D01*
X92555600Y-99515000D01*
X92555600Y-100585000D01*
G36*
X92555600Y-100585000D02*
G01*
X91307800Y-100585000D01*
X91307800Y-99515000D01*
X92555600Y-99515000D01*
X92555600Y-100585000D01*
G37*
X91107800Y-100585000D02*
X89860000Y-100585000D01*
X89860000Y-99515000D01*
X91107800Y-99515000D01*
X91107800Y-100585000D01*
G36*
X91107800Y-100585000D02*
G01*
X89860000Y-100585000D01*
X89860000Y-99515000D01*
X91107800Y-99515000D01*
X91107800Y-100585000D01*
G37*
X89660000Y-100585000D02*
X88412200Y-100585000D01*
X88412200Y-99515000D01*
X89660000Y-99515000D01*
X89660000Y-100585000D01*
G36*
X89660000Y-100585000D02*
G01*
X88412200Y-100585000D01*
X88412200Y-99515000D01*
X89660000Y-99515000D01*
X89660000Y-100585000D01*
G37*
X88212200Y-100585000D02*
X86964400Y-100585000D01*
X86964400Y-99515000D01*
X88212200Y-99515000D01*
X88212200Y-100585000D01*
G36*
X88212200Y-100585000D02*
G01*
X86964400Y-100585000D01*
X86964400Y-99515000D01*
X88212200Y-99515000D01*
X88212200Y-100585000D01*
G37*
X92555600Y-101855000D02*
X91307800Y-101855000D01*
X91307800Y-100785000D01*
X92555600Y-100785000D01*
X92555600Y-101855000D01*
G36*
X92555600Y-101855000D02*
G01*
X91307800Y-101855000D01*
X91307800Y-100785000D01*
X92555600Y-100785000D01*
X92555600Y-101855000D01*
G37*
X91107800Y-101855000D02*
X89860000Y-101855000D01*
X89860000Y-100785000D01*
X91107800Y-100785000D01*
X91107800Y-101855000D01*
G36*
X91107800Y-101855000D02*
G01*
X89860000Y-101855000D01*
X89860000Y-100785000D01*
X91107800Y-100785000D01*
X91107800Y-101855000D01*
G37*
X89660000Y-101855000D02*
X88412200Y-101855000D01*
X88412200Y-100785000D01*
X89660000Y-100785000D01*
X89660000Y-101855000D01*
G36*
X89660000Y-101855000D02*
G01*
X88412200Y-101855000D01*
X88412200Y-100785000D01*
X89660000Y-100785000D01*
X89660000Y-101855000D01*
G37*
X88212200Y-101855000D02*
X86964400Y-101855000D01*
X86964400Y-100785000D01*
X88212200Y-100785000D01*
X88212200Y-101855000D01*
G36*
X88212200Y-101855000D02*
G01*
X86964400Y-101855000D01*
X86964400Y-100785000D01*
X88212200Y-100785000D01*
X88212200Y-101855000D01*
G37*
%TD*%
D11*
%TO.C,SW1*%
X127300000Y-91600000D03*
X120262500Y-91613468D03*
%TD*%
%TO.C,SW2*%
X127300000Y-108300000D03*
X120262500Y-108313468D03*
%TD*%
D12*
%TO.C,R9*%
X118600000Y-108360000D03*
X118600000Y-107340000D03*
%TD*%
D13*
%TO.C,R3*%
X98775000Y-93215000D03*
X98775000Y-94235000D03*
%TD*%
D14*
%TO.C,C39*%
X101675000Y-84300000D03*
X98725000Y-84300000D03*
%TD*%
D15*
%TO.C,C33*%
X99250000Y-105195000D03*
X99250000Y-105885000D03*
%TD*%
D16*
%TO.C,C6*%
X97340000Y-98386666D03*
X98300000Y-98386666D03*
%TD*%
D17*
%TO.C,C22*%
X110175000Y-104550000D03*
X111725000Y-104550000D03*
%TD*%
D18*
%TO.C,C36*%
X90300000Y-107375000D03*
X90300000Y-105825000D03*
%TD*%
D19*
%TO.C,C28*%
X87500000Y-95325000D03*
X85950000Y-95325000D03*
%TD*%
D17*
%TO.C,C27*%
X90675000Y-94650000D03*
X92225000Y-94650000D03*
%TD*%
D20*
%TO.C,L2*%
X107900000Y-86000000D03*
X110700000Y-86000000D03*
%TD*%
D21*
%TO.C,C41*%
X104300000Y-88625000D03*
X104300000Y-90175000D03*
%TD*%
D16*
%TO.C,C34*%
X97340000Y-101584166D03*
X98300000Y-101584166D03*
%TD*%
D22*
%TO.C,C38*%
X103625000Y-83100000D03*
X106575000Y-83100000D03*
%TD*%
D23*
%TO.C,R2*%
X112590000Y-100500000D03*
X113610000Y-100500000D03*
%TD*%
D24*
%TO.C,F2*%
X112712500Y-85200000D03*
X114287500Y-85200000D03*
%TD*%
D25*
%TO.C,R12*%
X123930000Y-112700000D03*
X122910000Y-112700000D03*
%TD*%
D26*
%TO.C,C35*%
X98300000Y-103200000D03*
X97340000Y-103200000D03*
%TD*%
D14*
%TO.C,C40*%
X101675000Y-86900000D03*
X98725000Y-86900000D03*
%TD*%
D27*
%TO.C,D3*%
X124250000Y-111200000D03*
X122675000Y-111200000D03*
%TD*%
D28*
%TO.C,C32*%
X110200000Y-105870000D03*
X110200000Y-106830000D03*
%TD*%
D13*
%TO.C,R8*%
X98150000Y-105240000D03*
X98150000Y-106260000D03*
%TD*%
D29*
%TO.C,C2*%
X101000000Y-91230000D03*
X101000000Y-90270000D03*
%TD*%
D25*
%TO.C,R11*%
X123667500Y-87350000D03*
X122647500Y-87350000D03*
%TD*%
D27*
%TO.C,F1*%
X115287500Y-107700000D03*
X113712500Y-107700000D03*
%TD*%
D30*
%TO.C,R13*%
X93750000Y-94625000D03*
X95400000Y-94625000D03*
%TD*%
D26*
%TO.C,C1*%
X110800000Y-99650000D03*
X109840000Y-99650000D03*
%TD*%
D15*
%TO.C,C29*%
X94850000Y-105195000D03*
X94850000Y-105885000D03*
%TD*%
D29*
%TO.C,C10*%
X103525000Y-107360000D03*
X103525000Y-106400000D03*
%TD*%
D15*
%TO.C,C31*%
X97050000Y-105195000D03*
X97050000Y-105885000D03*
%TD*%
D31*
%TO.C,J1*%
X123365000Y-103300000D03*
X123365000Y-102500000D03*
D32*
X123365000Y-101300000D03*
X123365000Y-100300000D03*
X123365000Y-99800000D03*
X123365000Y-98800000D03*
D31*
X123365000Y-97600000D03*
X123365000Y-96800000D03*
X123365000Y-96800000D03*
X123365000Y-97600000D03*
D32*
X123365000Y-98300000D03*
X123365000Y-99300000D03*
X123365000Y-100800000D03*
X123365000Y-101800000D03*
D31*
X123365000Y-102500000D03*
X123365000Y-103300000D03*
%TD*%
D33*
%TO.C,D1*%
X102500000Y-110650000D03*
X102500000Y-113950000D03*
X107400000Y-113950000D03*
X107400000Y-110650000D03*
%TD*%
D28*
%TO.C,C8*%
X105700000Y-91950000D03*
X105700000Y-92910000D03*
%TD*%
D19*
%TO.C,C12*%
X111725000Y-103050000D03*
X110175000Y-103050000D03*
%TD*%
D21*
%TO.C,C37*%
X100450000Y-110675000D03*
X100450000Y-112225000D03*
%TD*%
D34*
%TO.C,Y1*%
X99450000Y-91950000D03*
X97600000Y-91950000D03*
X97600000Y-90400000D03*
X99450000Y-90400000D03*
%TD*%
D19*
%TO.C,C25*%
X85950000Y-93675000D03*
X87500000Y-93675000D03*
%TD*%
D35*
%TO.C,U4*%
X116150000Y-101850001D03*
X116150000Y-102500000D03*
X116150000Y-103149999D03*
X118250000Y-103149999D03*
X118250000Y-102500000D03*
X118250000Y-101850001D03*
%TD*%
D36*
%TO.C,Q1*%
X113350000Y-81500000D03*
X115250000Y-81500000D03*
X114300000Y-79400000D03*
%TD*%
D18*
%TO.C,C26*%
X89100000Y-95350000D03*
X89100000Y-93800000D03*
%TD*%
D29*
%TO.C,C7*%
X101812500Y-107360000D03*
X101812500Y-106400000D03*
%TD*%
D17*
%TO.C,C24*%
X93800000Y-92975000D03*
X95350000Y-92975000D03*
%TD*%
D28*
%TO.C,C3*%
X97475000Y-93245000D03*
X97475000Y-94205000D03*
%TD*%
D37*
%TO.C,U1*%
X105750000Y-98800000D03*
X104150000Y-98800000D03*
X105750000Y-100400000D03*
X104150000Y-100400000D03*
D38*
X107550000Y-96162500D03*
X107150000Y-96162500D03*
X106750000Y-96162500D03*
X106350000Y-96162500D03*
X105950000Y-96162500D03*
X105550000Y-96162500D03*
X105150000Y-96162500D03*
X104750000Y-96162500D03*
X104350000Y-96162500D03*
X103950000Y-96162500D03*
X103550000Y-96162500D03*
X103150000Y-96162500D03*
X102750000Y-96162500D03*
X102350000Y-96162500D03*
D39*
X101512500Y-97000000D03*
X101512500Y-97400000D03*
X101512500Y-97800000D03*
X101512500Y-98200000D03*
X101512500Y-98600000D03*
X101512500Y-99000000D03*
X101512500Y-99400000D03*
X101512500Y-99800000D03*
X101512500Y-100200000D03*
X101512500Y-100600000D03*
X101512500Y-101000000D03*
X101512500Y-101400000D03*
X101512500Y-101800000D03*
X101512500Y-102200000D03*
D38*
X102350000Y-103037500D03*
X102750000Y-103037500D03*
X103150000Y-103037500D03*
X103550000Y-103037500D03*
X103950000Y-103037500D03*
X104350000Y-103037500D03*
X104750000Y-103037500D03*
X105150000Y-103037500D03*
X105550000Y-103037500D03*
X105950000Y-103037500D03*
X106350000Y-103037500D03*
X106750000Y-103037500D03*
X107150000Y-103037500D03*
X107550000Y-103037500D03*
D39*
X108387500Y-102200000D03*
X108387500Y-101800000D03*
X108387500Y-101400000D03*
X108387500Y-101000000D03*
X108387500Y-100600000D03*
X108387500Y-100200000D03*
X108387500Y-99800000D03*
X108387500Y-99400000D03*
X108387500Y-99000000D03*
X108387500Y-98600000D03*
X108387500Y-98200000D03*
X108387500Y-97800000D03*
X108387500Y-97400000D03*
X108387500Y-97000000D03*
%TD*%
D25*
%TO.C,R16*%
X88580000Y-105850000D03*
X87560000Y-105850000D03*
%TD*%
D13*
%TO.C,R6*%
X93750000Y-105240000D03*
X93750000Y-106260000D03*
%TD*%
%TO.C,R5*%
X120800000Y-95420000D03*
X120800000Y-96440000D03*
%TD*%
D17*
%TO.C,C42*%
X106325000Y-88700000D03*
X107875000Y-88700000D03*
%TD*%
D13*
%TO.C,R14*%
X113500000Y-87690000D03*
X113500000Y-88710000D03*
%TD*%
%TO.C,R4*%
X118600000Y-91590000D03*
X118600000Y-92610000D03*
%TD*%
D17*
%TO.C,C17*%
X116425000Y-104900000D03*
X117975000Y-104900000D03*
%TD*%
D40*
%TO.C,U5*%
X92510693Y-97601300D03*
X92010567Y-97601300D03*
X91510441Y-97601300D03*
X91010315Y-97601300D03*
X90510189Y-97601300D03*
X90010063Y-97601300D03*
X89509937Y-97601300D03*
X89009811Y-97601300D03*
X88509685Y-97601300D03*
X88009559Y-97601300D03*
X87509433Y-97601300D03*
X87009307Y-97601300D03*
D41*
X86308000Y-98299559D03*
X86308000Y-98799685D03*
X86308000Y-99299811D03*
X86308000Y-99799937D03*
X86308000Y-100300063D03*
X86308000Y-100800189D03*
X86308000Y-101300315D03*
X86308000Y-101800441D03*
D40*
X87009307Y-102498700D03*
X87509433Y-102498700D03*
X88009559Y-102498700D03*
X88509685Y-102498700D03*
X89009811Y-102498700D03*
X89509937Y-102498700D03*
X90010063Y-102498700D03*
X90510189Y-102498700D03*
X91010315Y-102498700D03*
X91510441Y-102498700D03*
X92010567Y-102498700D03*
X92510693Y-102498700D03*
D41*
X93212000Y-101800441D03*
X93212000Y-101300315D03*
X93212000Y-100800189D03*
X93212000Y-100300063D03*
X93212000Y-99799937D03*
X93212000Y-99299811D03*
X93212000Y-98799685D03*
X93212000Y-98299559D03*
%TD*%
D27*
%TO.C,D2*%
X123925000Y-88800000D03*
X122350000Y-88800000D03*
%TD*%
D28*
%TO.C,C11*%
X104200000Y-91950000D03*
X104200000Y-92910000D03*
%TD*%
D13*
%TO.C,R15*%
X112250000Y-87690000D03*
X112250000Y-88710000D03*
%TD*%
%TO.C,R7*%
X95950000Y-105240000D03*
X95950000Y-106260000D03*
%TD*%
D42*
%TO.C,U7*%
X103949900Y-85349999D03*
X103949900Y-85850000D03*
X103949900Y-86350000D03*
X103949900Y-86850001D03*
X105850100Y-86850001D03*
X105850100Y-86350000D03*
X105850100Y-85850000D03*
X105850100Y-85349999D03*
%TD*%
D28*
%TO.C,C18*%
X119399100Y-95450000D03*
X119399100Y-96410000D03*
%TD*%
D25*
%TO.C,R1*%
X113610000Y-99500000D03*
X112590000Y-99500000D03*
%TD*%
D40*
%TO.C,U2*%
X116550001Y-94504001D03*
X116050000Y-94504001D03*
X115550000Y-94504001D03*
X115049999Y-94504001D03*
X115049999Y-97295999D03*
X115550000Y-97295999D03*
X116050000Y-97295999D03*
X116550001Y-97295999D03*
D43*
X115800000Y-95900000D03*
%TD*%
D29*
%TO.C,C30*%
X102620000Y-92910000D03*
X102620000Y-91950000D03*
%TD*%
D16*
%TO.C,C9*%
X97340000Y-96805000D03*
X98300000Y-96805000D03*
%TD*%
D28*
%TO.C,C20*%
X117998200Y-95450000D03*
X117998200Y-96410000D03*
%TD*%
D29*
%TO.C,C13*%
X108600000Y-106810000D03*
X108600000Y-105850000D03*
%TD*%
D26*
%TO.C,C5*%
X113580000Y-101800000D03*
X112620000Y-101800000D03*
%TD*%
D16*
%TO.C,C4*%
X97340000Y-99968332D03*
X98300000Y-99968332D03*
%TD*%
M02*
