%TF.GenerationSoftware,KiCad,Pcbnew,7.0.1*%
%TF.CreationDate,2023-05-14T21:17:26+02:00*%
%TF.ProjectId,MTR_Tiny_MD,4d54525f-5469-46e7-995f-4d442e6b6963,rev?*%
%TF.SameCoordinates,Original*%
%TF.FileFunction,Copper,L4,Inr*%
%TF.FilePolarity,Positive*%
%FSLAX46Y46*%
G04 Gerber Fmt 4.6, Leading zero omitted, Abs format (unit mm)*
G04 Created by KiCad (PCBNEW 7.0.1) date 2023-05-14 21:17:26*
%MOMM*%
%LPD*%
G01*
G04 APERTURE LIST*
G04 Aperture macros list*
%AMRoundRect*
0 Rectangle with rounded corners*
0 $1 Rounding radius*
0 $2 $3 $4 $5 $6 $7 $8 $9 X,Y pos of 4 corners*
0 Add a 4 corners polygon primitive as box body*
4,1,4,$2,$3,$4,$5,$6,$7,$8,$9,$2,$3,0*
0 Add four circle primitives for the rounded corners*
1,1,$1+$1,$2,$3*
1,1,$1+$1,$4,$5*
1,1,$1+$1,$6,$7*
1,1,$1+$1,$8,$9*
0 Add four rect primitives between the rounded corners*
20,1,$1+$1,$2,$3,$4,$5,0*
20,1,$1+$1,$4,$5,$6,$7,0*
20,1,$1+$1,$6,$7,$8,$9,0*
20,1,$1+$1,$8,$9,$2,$3,0*%
%AMHorizOval*
0 Thick line with rounded ends*
0 $1 width*
0 $2 $3 position (X,Y) of the first rounded end (center of the circle)*
0 $4 $5 position (X,Y) of the second rounded end (center of the circle)*
0 Add line between two ends*
20,1,$1,$2,$3,$4,$5,0*
0 Add two circle primitives to create the rounded ends*
1,1,$1,$2,$3*
1,1,$1,$4,$5*%
%AMRotRect*
0 Rectangle, with rotation*
0 The origin of the aperture is its center*
0 $1 length*
0 $2 width*
0 $3 Rotation angle, in degrees counterclockwise*
0 Add horizontal line*
21,1,$1,$2,0,0,$3*%
G04 Aperture macros list end*
%TA.AperFunction,ComponentPad*%
%ADD10R,1.700000X1.700000*%
%TD*%
%TA.AperFunction,ComponentPad*%
%ADD11O,1.700000X1.700000*%
%TD*%
%TA.AperFunction,ComponentPad*%
%ADD12RoundRect,0.165000X1.210000X-1.210000X1.210000X1.210000X-1.210000X1.210000X-1.210000X-1.210000X0*%
%TD*%
%TA.AperFunction,ComponentPad*%
%ADD13C,0.800000*%
%TD*%
%TA.AperFunction,ComponentPad*%
%ADD14C,6.400000*%
%TD*%
%TA.AperFunction,ComponentPad*%
%ADD15C,3.200000*%
%TD*%
%TA.AperFunction,ComponentPad*%
%ADD16O,2.100000X1.000000*%
%TD*%
%TA.AperFunction,ComponentPad*%
%ADD17O,1.600000X1.000000*%
%TD*%
%TA.AperFunction,ComponentPad*%
%ADD18RotRect,1.700000X1.700000X315.000000*%
%TD*%
%TA.AperFunction,ComponentPad*%
%ADD19HorizOval,1.700000X0.000000X0.000000X0.000000X0.000000X0*%
%TD*%
%TA.AperFunction,ComponentPad*%
%ADD20RotRect,1.700000X1.700000X135.000000*%
%TD*%
%TA.AperFunction,ComponentPad*%
%ADD21HorizOval,1.700000X0.000000X0.000000X0.000000X0.000000X0*%
%TD*%
%TA.AperFunction,ViaPad*%
%ADD22C,0.400000*%
%TD*%
%TA.AperFunction,Conductor*%
%ADD23C,0.300000*%
%TD*%
%TA.AperFunction,Conductor*%
%ADD24C,0.200000*%
%TD*%
G04 APERTURE END LIST*
D10*
%TO.N,GND*%
%TO.C,J5*%
X110400000Y-111025000D03*
D11*
%TO.N,DOUT*%
X110400000Y-113565000D03*
%TD*%
D12*
%TO.N,OUTC*%
%TO.C,H12*%
X82620000Y-105310000D03*
%TD*%
D13*
%TO.N,GND*%
%TO.C,H1*%
X119850000Y-117250000D03*
X120552944Y-115552944D03*
X120552944Y-118947056D03*
X122250000Y-114850000D03*
D14*
X122250000Y-117250000D03*
D13*
X122250000Y-119650000D03*
X123947056Y-115552944D03*
X123947056Y-118947056D03*
X124650000Y-117250000D03*
%TD*%
%TO.N,GND*%
%TO.C,H3*%
X119850000Y-82750000D03*
X120552944Y-81052944D03*
X120552944Y-84447056D03*
X122250000Y-80350000D03*
D14*
X122250000Y-82750000D03*
D13*
X122250000Y-85150000D03*
X123947056Y-81052944D03*
X123947056Y-84447056D03*
X124650000Y-82750000D03*
%TD*%
%TO.N,GND*%
%TO.C,H8*%
X85350000Y-82750000D03*
X86052944Y-81052944D03*
X86052944Y-84447056D03*
X87750000Y-80350000D03*
D14*
X87750000Y-82750000D03*
D13*
X87750000Y-85150000D03*
X89447056Y-81052944D03*
X89447056Y-84447056D03*
X90150000Y-82750000D03*
%TD*%
%TO.N,GND*%
%TO.C,H9*%
X85350000Y-117250000D03*
X86052944Y-115552944D03*
X86052944Y-118947056D03*
X87750000Y-114850000D03*
D14*
X87750000Y-117250000D03*
D13*
X87750000Y-119650000D03*
X89447056Y-115552944D03*
X89447056Y-118947056D03*
X90150000Y-117250000D03*
%TD*%
D15*
%TO.N,GND*%
%TO.C,J6*%
X102890000Y-78450000D03*
%TO.N,/VM*%
X107890000Y-78450000D03*
%TD*%
D16*
%TO.N,GND*%
%TO.C,J1*%
X124280000Y-104370000D03*
D17*
X128460000Y-104370000D03*
D16*
X124280000Y-95730000D03*
D17*
X128460000Y-95730000D03*
%TD*%
D18*
%TO.N,SWD*%
%TO.C,J3*%
X96700000Y-113800000D03*
D19*
%TO.N,SWCLK*%
X94903949Y-115596051D03*
%TD*%
D10*
%TO.N,3V3_BUCK*%
%TO.C,J2*%
X111540000Y-118450000D03*
D11*
%TO.N,GND*%
X111540000Y-120990000D03*
%TO.N,V_USB*%
X109000000Y-118450000D03*
%TO.N,GPIO21*%
X109000000Y-120990000D03*
%TO.N,GPIO25*%
X106460000Y-118450000D03*
%TO.N,GPIO20*%
X106460000Y-120990000D03*
%TO.N,GPIO24*%
X103920000Y-118450000D03*
%TO.N,GPIO2*%
X103920000Y-120990000D03*
%TO.N,unconnected-(J2-Pad9)*%
X101380000Y-118450000D03*
%TO.N,GPIO3*%
X101380000Y-120990000D03*
%TO.N,GPIO22*%
X98840000Y-118450000D03*
%TO.N,GPIO9*%
X98840000Y-120990000D03*
%TD*%
D12*
%TO.N,OUTB*%
%TO.C,H11*%
X81740000Y-100030000D03*
%TD*%
%TO.N,OUTA*%
%TO.C,H10*%
X82440000Y-95030000D03*
%TD*%
D20*
%TO.N,UART_TX*%
%TO.C,J4*%
X110948439Y-93701562D03*
D21*
%TO.N,UART_RX*%
X112744490Y-91905511D03*
%TD*%
D22*
%TO.N,GND*%
X104183332Y-100100000D03*
X94850000Y-106500000D03*
X100450000Y-113150000D03*
X89300000Y-107400000D03*
X110150000Y-90100000D03*
X89116666Y-98950000D03*
X106150000Y-113850000D03*
X119150000Y-102500000D03*
X90533332Y-98950000D03*
X119700000Y-102500000D03*
X108950000Y-107550000D03*
X99500000Y-108900000D03*
X103075000Y-89775000D03*
X127300000Y-107350000D03*
X127250000Y-90650000D03*
X102475000Y-89775000D03*
X108900000Y-88100000D03*
X96900000Y-95500000D03*
X101550000Y-92000000D03*
X103500000Y-91250000D03*
X87700000Y-101150000D03*
X119350000Y-94750000D03*
X117150000Y-95450000D03*
X124100000Y-89800000D03*
X99000000Y-110700000D03*
X91950000Y-101150000D03*
X112600000Y-103050000D03*
X104950000Y-91250000D03*
X97350000Y-99150000D03*
X111384089Y-99609511D03*
X97050000Y-106550000D03*
X87850000Y-86750000D03*
X111000000Y-107150000D03*
X89116666Y-100050000D03*
X92750000Y-93000000D03*
X105600000Y-100100000D03*
X90533332Y-101150000D03*
X124950000Y-88850000D03*
X97340000Y-94890000D03*
X119300000Y-105200000D03*
X105600000Y-99000000D03*
X111000000Y-106600000D03*
X100450000Y-108050000D03*
X99450000Y-112200000D03*
X91950000Y-98950000D03*
X86500000Y-92650000D03*
X98650000Y-91950000D03*
X104183332Y-99000000D03*
X90533332Y-100050000D03*
X87700000Y-98950000D03*
X102500000Y-90500000D03*
X98400000Y-90400000D03*
X97650000Y-89600000D03*
X87700000Y-100050000D03*
X99300000Y-106550000D03*
X113600000Y-102450000D03*
X102400000Y-98600000D03*
X100000000Y-108450000D03*
X109100000Y-92150000D03*
X114150000Y-95200000D03*
X91950000Y-100050000D03*
X99000000Y-110000000D03*
X99450000Y-91200000D03*
X126400000Y-91600000D03*
X109650000Y-90550000D03*
X107250000Y-113000000D03*
X96468744Y-96018745D03*
X85450000Y-92650000D03*
X89116666Y-101150000D03*
X90300000Y-108300000D03*
X110600000Y-89700000D03*
X109100000Y-91350000D03*
X119300000Y-104600000D03*
X126450000Y-108300000D03*
%TO.N,+1V1*%
X105600000Y-101500000D03*
X111800000Y-101400000D03*
%TO.N,3V3_BUCK*%
X115700000Y-84600000D03*
X114550000Y-102150000D03*
X108850000Y-102950000D03*
X114388541Y-104488541D03*
X115100000Y-86500000D03*
X98836310Y-99063690D03*
X111170000Y-105520000D03*
X89009811Y-103409811D03*
X119050000Y-97200000D03*
X98300000Y-97650000D03*
X101050000Y-106549500D03*
X102100000Y-109750000D03*
X89009811Y-104340189D03*
X113500000Y-86800000D03*
X103000000Y-109750000D03*
X122650000Y-86700000D03*
X113950000Y-104950000D03*
X94650000Y-82950000D03*
X120750000Y-88800000D03*
X122150000Y-93350000D03*
X106650000Y-90600000D03*
X122200000Y-89900000D03*
X107750000Y-91450000D03*
X91400000Y-105500000D03*
X115700000Y-85200000D03*
X100450000Y-109750000D03*
X108850000Y-104550000D03*
X107561459Y-93138541D03*
X120750000Y-88000000D03*
X113388541Y-105488541D03*
X117350000Y-97800000D03*
X102450000Y-99800000D03*
X105799500Y-108300000D03*
X122150000Y-94150000D03*
X103350000Y-92900000D03*
X121100000Y-97250000D03*
X108850000Y-103750000D03*
X107100000Y-92700000D03*
X122200000Y-91500000D03*
X122150000Y-92550000D03*
X122200000Y-90700000D03*
X112250000Y-86800000D03*
X88550000Y-106700000D03*
X104365000Y-97347100D03*
X104950000Y-92900000D03*
X115700000Y-86000000D03*
X103095000Y-97347100D03*
X114988541Y-101688541D03*
X119650000Y-97200000D03*
X91400000Y-106300000D03*
X120500000Y-97250000D03*
X106200000Y-106650000D03*
X107111459Y-91038541D03*
X117788541Y-97338541D03*
X107400000Y-107600000D03*
%TO.N,V_USB*%
X112600000Y-107300000D03*
X112600000Y-108000000D03*
X118250000Y-100800000D03*
X119300000Y-101850000D03*
%TO.N,DRV_BUCK_OUT*%
X88550000Y-89900000D03*
X93101056Y-96051056D03*
%TO.N,Current_A*%
X93650000Y-104450000D03*
X94500000Y-96200500D03*
%TO.N,Current_B*%
X95950000Y-104450000D03*
X94500500Y-97199500D03*
%TO.N,Current_C*%
X94518744Y-97968744D03*
X98500000Y-104350000D03*
%TO.N,VREF*%
X107746800Y-105703200D03*
X99200000Y-103850000D03*
%TO.N,GPIO25*%
X105416068Y-104250000D03*
X107400000Y-109150000D03*
%TO.N,GPIO24*%
X104811518Y-104732622D03*
%TO.N,GPIO22*%
X104350000Y-104150000D03*
%TO.N,GPIO9*%
X102150000Y-93650000D03*
%TO.N,GPIO3*%
X106349006Y-93600000D03*
%TO.N,GPIO2*%
X106950000Y-93600000D03*
%TO.N,GPIO20*%
X103033932Y-104850000D03*
%TO.N,GPIO21*%
X103650000Y-104700000D03*
%TO.N,SWD*%
X100100000Y-101099500D03*
%TO.N,SWCLK*%
X98895180Y-100699500D03*
%TO.N,UART_TX*%
X107800500Y-94950000D03*
%TO.N,UART_RX*%
X107800500Y-94350000D03*
%TO.N,RUN*%
X102450000Y-101400000D03*
X118600000Y-106650000D03*
%TO.N,nFAULT*%
X87550000Y-104000000D03*
X103920972Y-93885429D03*
%TO.N,I2C_SDA*%
X113500000Y-89550000D03*
X105246928Y-102202956D03*
X105749503Y-93600000D03*
%TO.N,I2C_SCL*%
X103931050Y-102200500D03*
X112250000Y-89500000D03*
X105150000Y-93600000D03*
%TO.N,nSLEEP*%
X104465239Y-93600000D03*
X88149503Y-104000000D03*
%TO.N,DRVOFF*%
X102750000Y-93650000D03*
X86950497Y-104000000D03*
%TO.N,INLC*%
X92797484Y-104649205D03*
X101550000Y-93650000D03*
%TO.N,INHC*%
X100950497Y-93650000D03*
X92197984Y-104651131D03*
%TO.N,INLB*%
X99949500Y-96298051D03*
X91598499Y-104646550D03*
%TO.N,INHB*%
X90998996Y-104646550D03*
X99949500Y-96897554D03*
%TO.N,INLA*%
X90399493Y-104646550D03*
X99949500Y-97497057D03*
%TO.N,INHA*%
X99952950Y-98096550D03*
X89800000Y-104650000D03*
%TO.N,SPI_MISO*%
X95396550Y-101400507D03*
X99400000Y-101700497D03*
%TO.N,SPI_SS*%
X95396550Y-100201501D03*
X99400000Y-102300000D03*
%TO.N,SPI_SCK*%
X95396550Y-100801004D03*
X101750497Y-104700000D03*
%TO.N,SPI_MOSI*%
X102350000Y-104700000D03*
X95400000Y-102000000D03*
%TO.N,QSPI_SD3*%
X111700000Y-99100000D03*
X116050000Y-98150000D03*
%TO.N,Net-(U1-GPIO26_ADC0)*%
X93750000Y-107100000D03*
X105820133Y-105703200D03*
%TO.N,Net-(U1-GPIO27_ADC1)*%
X106462355Y-105703200D03*
X95950000Y-107100000D03*
%TO.N,Net-(U1-GPIO28_ADC2)*%
X107104577Y-105800000D03*
X98150000Y-107100000D03*
%TD*%
D23*
%TO.N,V_USB*%
X112600000Y-108000000D02*
X118750000Y-101850000D01*
X118750000Y-101850000D02*
X119300000Y-101850000D01*
X112600000Y-107300000D02*
X118250000Y-101650000D01*
X118250000Y-101650000D02*
X118250000Y-100800000D01*
D24*
%TO.N,DRV_BUCK_OUT*%
X88550000Y-91500000D02*
X88550000Y-89900000D01*
X93101056Y-96051056D02*
X88550000Y-91500000D01*
%TO.N,GPIO9*%
X104150000Y-104492893D02*
X104150000Y-104907107D01*
X102950000Y-103292893D02*
X104150000Y-104492893D01*
X102950000Y-97909207D02*
X102950000Y-103292893D01*
X102150000Y-97109207D02*
X102950000Y-97909207D01*
X104000000Y-111650000D02*
X97690000Y-117960000D01*
X97690000Y-117960000D02*
X97690000Y-119840000D01*
X97690000Y-119840000D02*
X98840000Y-120990000D01*
X104000000Y-105057107D02*
X104000000Y-111650000D01*
X104150000Y-104907107D02*
X104000000Y-105057107D01*
X102150000Y-93650000D02*
X102150000Y-97109207D01*
%TO.N,GPIO3*%
X105447340Y-104803200D02*
X104550000Y-105700541D01*
X100200000Y-119810000D02*
X101380000Y-120990000D01*
X100200000Y-117300000D02*
X100200000Y-119810000D01*
X104550000Y-105700541D02*
X104550000Y-112950000D01*
X104550000Y-112950000D02*
X100200000Y-117300000D01*
X105846800Y-104803200D02*
X105447340Y-104803200D01*
X106349006Y-104300994D02*
X105846800Y-104803200D01*
X106349006Y-93600000D02*
X106349006Y-104300994D01*
%TO.N,GPIO2*%
X105300000Y-119610000D02*
X103920000Y-120990000D01*
X106646800Y-105203200D02*
X105613026Y-105203200D01*
X105613026Y-105203200D02*
X105300000Y-105516226D01*
X105300000Y-105516226D02*
X105300000Y-119610000D01*
X106900000Y-93650000D02*
X106900000Y-104950000D01*
X106950000Y-93600000D02*
X106900000Y-93650000D01*
X106900000Y-104950000D02*
X106646800Y-105203200D01*
%TO.N,INLB*%
X91598499Y-104646550D02*
X91598499Y-103292445D01*
X98592893Y-96298051D02*
X99949500Y-96298051D01*
X91598499Y-103292445D02*
X98592893Y-96298051D01*
%TO.N,INHB*%
X90998996Y-104646550D02*
X90998996Y-103326263D01*
X100449500Y-96090944D02*
X100449500Y-96800500D01*
X90998996Y-103326263D02*
X98527208Y-95798051D01*
X100250000Y-97000000D02*
X100051946Y-97000000D01*
X98527208Y-95798051D02*
X100156607Y-95798051D01*
X100449500Y-96800500D02*
X100250000Y-97000000D01*
X100051946Y-97000000D02*
X99949500Y-96897554D01*
X100156607Y-95798051D02*
X100449500Y-96090944D01*
%TO.N,INLA*%
X93209573Y-100550000D02*
X98361523Y-95398051D01*
X91842893Y-100550000D02*
X93209573Y-100550000D01*
X100322293Y-95398051D02*
X100850000Y-95925758D01*
X90399493Y-101993400D02*
X91842893Y-100550000D01*
X98361523Y-95398051D02*
X100322293Y-95398051D01*
X100502943Y-97497057D02*
X99949500Y-97497057D01*
X100850000Y-97150000D02*
X100502943Y-97497057D01*
X100850000Y-95925758D02*
X100850000Y-97150000D01*
X90399493Y-104646550D02*
X90399493Y-101993400D01*
%TO.N,INHA*%
X89800000Y-104650000D02*
X89800000Y-101176225D01*
X100487979Y-94998051D02*
X101250000Y-95760072D01*
X90729290Y-100563603D02*
X91842893Y-99450000D01*
X98195838Y-94998051D02*
X100487979Y-94998051D01*
X101250000Y-95760072D02*
X101250000Y-97350000D01*
X100503450Y-98096550D02*
X99952950Y-98096550D01*
X90412622Y-100563603D02*
X90729290Y-100563603D01*
X91842893Y-99450000D02*
X93743887Y-99450000D01*
X101250000Y-97350000D02*
X100503450Y-98096550D01*
X89800000Y-101176225D02*
X90412622Y-100563603D01*
X93743887Y-99450000D02*
X98195838Y-94998051D01*
%TO.N,SPI_SS*%
X99292396Y-102300000D02*
X99400000Y-102300000D01*
X95396550Y-100201501D02*
X97193897Y-100201501D01*
X97193897Y-100201501D02*
X99292396Y-102300000D01*
%TO.N,SPI_SCK*%
X101092893Y-104700000D02*
X101750497Y-104700000D01*
X97193897Y-100801004D02*
X101092893Y-104700000D01*
X95396550Y-100801004D02*
X97193897Y-100801004D01*
%TD*%
M02*
