%TF.GenerationSoftware,KiCad,Pcbnew,7.0.9*%
%TF.CreationDate,2024-02-12T03:50:36+01:00*%
%TF.ProjectId,MTR_Tiny_MD,4d54525f-5469-46e7-995f-4d442e6b6963,rev?*%
%TF.SameCoordinates,Original*%
%TF.FileFunction,Copper,L4,Inr*%
%TF.FilePolarity,Positive*%
%FSLAX46Y46*%
G04 Gerber Fmt 4.6, Leading zero omitted, Abs format (unit mm)*
G04 Created by KiCad (PCBNEW 7.0.9) date 2024-02-12 03:50:36*
%MOMM*%
%LPD*%
G01*
G04 APERTURE LIST*
G04 Aperture macros list*
%AMRoundRect*
0 Rectangle with rounded corners*
0 $1 Rounding radius*
0 $2 $3 $4 $5 $6 $7 $8 $9 X,Y pos of 4 corners*
0 Add a 4 corners polygon primitive as box body*
4,1,4,$2,$3,$4,$5,$6,$7,$8,$9,$2,$3,0*
0 Add four circle primitives for the rounded corners*
1,1,$1+$1,$2,$3*
1,1,$1+$1,$4,$5*
1,1,$1+$1,$6,$7*
1,1,$1+$1,$8,$9*
0 Add four rect primitives between the rounded corners*
20,1,$1+$1,$2,$3,$4,$5,0*
20,1,$1+$1,$4,$5,$6,$7,0*
20,1,$1+$1,$6,$7,$8,$9,0*
20,1,$1+$1,$8,$9,$2,$3,0*%
%AMHorizOval*
0 Thick line with rounded ends*
0 $1 width*
0 $2 $3 position (X,Y) of the first rounded end (center of the circle)*
0 $4 $5 position (X,Y) of the second rounded end (center of the circle)*
0 Add line between two ends*
20,1,$1,$2,$3,$4,$5,0*
0 Add two circle primitives to create the rounded ends*
1,1,$1,$2,$3*
1,1,$1,$4,$5*%
%AMRotRect*
0 Rectangle, with rotation*
0 The origin of the aperture is its center*
0 $1 length*
0 $2 width*
0 $3 Rotation angle, in degrees counterclockwise*
0 Add horizontal line*
21,1,$1,$2,0,0,$3*%
G04 Aperture macros list end*
%TA.AperFunction,ComponentPad*%
%ADD10R,1.700000X1.700000*%
%TD*%
%TA.AperFunction,ComponentPad*%
%ADD11O,1.700000X1.700000*%
%TD*%
%TA.AperFunction,ComponentPad*%
%ADD12RoundRect,0.165000X1.210000X-1.210000X1.210000X1.210000X-1.210000X1.210000X-1.210000X-1.210000X0*%
%TD*%
%TA.AperFunction,ComponentPad*%
%ADD13C,0.800000*%
%TD*%
%TA.AperFunction,ComponentPad*%
%ADD14C,6.400000*%
%TD*%
%TA.AperFunction,ComponentPad*%
%ADD15C,2.362200*%
%TD*%
%TA.AperFunction,ComponentPad*%
%ADD16O,2.100000X1.000000*%
%TD*%
%TA.AperFunction,ComponentPad*%
%ADD17O,1.600000X1.000000*%
%TD*%
%TA.AperFunction,ComponentPad*%
%ADD18RotRect,1.700000X1.700000X315.000000*%
%TD*%
%TA.AperFunction,ComponentPad*%
%ADD19HorizOval,1.700000X0.000000X0.000000X0.000000X0.000000X0*%
%TD*%
%TA.AperFunction,ViaPad*%
%ADD20C,0.450000*%
%TD*%
%TA.AperFunction,Conductor*%
%ADD21C,0.300000*%
%TD*%
%TA.AperFunction,Conductor*%
%ADD22C,0.500000*%
%TD*%
%TA.AperFunction,Conductor*%
%ADD23C,0.100000*%
%TD*%
%TA.AperFunction,Conductor*%
%ADD24C,0.200000*%
%TD*%
G04 APERTURE END LIST*
D10*
%TO.N,GND*%
%TO.C,J5*%
X110400000Y-111025000D03*
D11*
%TO.N,DOUT*%
X110400000Y-113565000D03*
%TD*%
D12*
%TO.N,OUTC*%
%TO.C,H12*%
X82620000Y-105310000D03*
%TD*%
D13*
%TO.N,GND*%
%TO.C,H1*%
X119850000Y-117250000D03*
X120552944Y-115552944D03*
X120552944Y-118947056D03*
X122250000Y-114850000D03*
D14*
X122250000Y-117250000D03*
D13*
X122250000Y-119650000D03*
X123947056Y-115552944D03*
X123947056Y-118947056D03*
X124650000Y-117250000D03*
%TD*%
%TO.N,GND*%
%TO.C,H3*%
X119850000Y-82750000D03*
X120552944Y-81052944D03*
X120552944Y-84447056D03*
X122250000Y-80350000D03*
D14*
X122250000Y-82750000D03*
D13*
X122250000Y-85150000D03*
X123947056Y-81052944D03*
X123947056Y-84447056D03*
X124650000Y-82750000D03*
%TD*%
%TO.N,GND*%
%TO.C,H8*%
X85350000Y-82750000D03*
X86052944Y-81052944D03*
X86052944Y-84447056D03*
X87750000Y-80350000D03*
D14*
X87750000Y-82750000D03*
D13*
X87750000Y-85150000D03*
X89447056Y-81052944D03*
X89447056Y-84447056D03*
X90150000Y-82750000D03*
%TD*%
%TO.N,GND*%
%TO.C,H9*%
X85350000Y-117250000D03*
X86052944Y-115552944D03*
X86052944Y-118947056D03*
X87750000Y-114850000D03*
D14*
X87750000Y-117250000D03*
D13*
X87750000Y-119650000D03*
X89447056Y-115552944D03*
X89447056Y-118947056D03*
X90150000Y-117250000D03*
%TD*%
D15*
%TO.N,/VM*%
%TO.C,J6*%
X107890000Y-78450000D03*
%TO.N,GND*%
X102890000Y-78450000D03*
%TD*%
D16*
%TO.N,unconnected-(J1-SHIELD-PadS1)*%
%TO.C,J1*%
X124280000Y-104370000D03*
D17*
X128460000Y-104370000D03*
D16*
X124280000Y-95730000D03*
D17*
X128460000Y-95730000D03*
%TD*%
D18*
%TO.N,SWD*%
%TO.C,J3*%
X96700000Y-113800000D03*
D19*
%TO.N,SWCLK*%
X94903949Y-115596051D03*
%TD*%
D10*
%TO.N,3V3_BUCK*%
%TO.C,J2*%
X111540000Y-118450000D03*
D11*
%TO.N,GND*%
X111540000Y-120990000D03*
%TO.N,GPIO23*%
X109000000Y-118450000D03*
%TO.N,GPIO21*%
X109000000Y-120990000D03*
%TO.N,+VBUS_OUT*%
X106460000Y-118450000D03*
%TO.N,GPIO20*%
X106460000Y-120990000D03*
%TO.N,GPIO25*%
X103920000Y-118450000D03*
%TO.N,GPIO2*%
X103920000Y-120990000D03*
%TO.N,GPIO24*%
X101380000Y-118450000D03*
%TO.N,GPIO3*%
X101380000Y-120990000D03*
%TO.N,GPIO22*%
X98840000Y-118450000D03*
%TO.N,GPIO9*%
X98840000Y-120990000D03*
%TD*%
D12*
%TO.N,OUTB*%
%TO.C,H11*%
X81740000Y-100030000D03*
%TD*%
%TO.N,OUTA*%
%TO.C,H10*%
X82440000Y-95030000D03*
%TD*%
D10*
%TO.N,UART_TX*%
%TO.C,J4*%
X111400000Y-91100000D03*
D11*
%TO.N,UART_RX*%
X108860000Y-91100000D03*
%TD*%
D20*
%TO.N,+1V1*%
X102600000Y-100175000D03*
X98300000Y-99325000D03*
X109507082Y-101412452D03*
%TO.N,3V3_BUCK*%
X108775000Y-93900000D03*
X103000000Y-88975000D03*
X109225000Y-94600000D03*
X112725000Y-85850000D03*
X109225000Y-103250000D03*
X108300000Y-103250000D03*
X121425000Y-106575000D03*
X110200000Y-103300000D03*
X112725000Y-86775000D03*
X104275000Y-92450000D03*
X121450000Y-108500000D03*
X114450000Y-93305000D03*
X110600000Y-103950000D03*
X108300000Y-94600000D03*
X113425000Y-84475000D03*
X95800000Y-81625000D03*
X103550000Y-92450000D03*
X88575000Y-106900000D03*
X103775000Y-109925000D03*
X113425000Y-86325000D03*
X98300000Y-98403750D03*
X103750000Y-110675000D03*
X119300469Y-106449000D03*
X120975000Y-87350000D03*
X113425000Y-85400000D03*
X103750000Y-111375000D03*
X104365000Y-97347100D03*
X103095000Y-97347100D03*
X102650000Y-106400000D03*
X101625000Y-88275000D03*
X108750000Y-103950000D03*
X109675000Y-103950000D03*
X102075000Y-88975000D03*
X102550000Y-88275000D03*
X107850000Y-93900000D03*
X112725000Y-84925000D03*
%TO.N,Current_A*%
X95050000Y-97350000D03*
X93750000Y-105050000D03*
%TO.N,Current_B*%
X95950000Y-105150000D03*
X95096127Y-98045630D03*
%TO.N,Current_C*%
X95091757Y-98791757D03*
X98150000Y-105050000D03*
%TO.N,VREF*%
X95100000Y-99550000D03*
X107349500Y-106425000D03*
X96545878Y-103354122D03*
%TO.N,DOUT*%
X103675000Y-112900000D03*
%TO.N,GPIO25*%
X105550000Y-110625000D03*
%TO.N,USB_D+*%
X125500000Y-99700000D03*
X112280000Y-99700000D03*
%TO.N,USB_D-*%
X125500000Y-100400000D03*
X112280000Y-100400000D03*
%TO.N,GPIO24*%
X104665322Y-106162026D03*
%TO.N,GPIO22*%
X103674500Y-105250000D03*
%TO.N,GPIO9*%
X101435523Y-94764477D03*
%TO.N,GPIO3*%
X106100000Y-93500000D03*
%TO.N,GPIO2*%
X106275500Y-94550000D03*
%TO.N,GPIO20*%
X101100000Y-104900000D03*
%TO.N,GPIO21*%
X102250000Y-105100000D03*
%TO.N,SWD*%
X99413337Y-101053153D03*
%TO.N,SWCLK*%
X99403721Y-100403722D03*
%TO.N,RUN*%
X118150000Y-116350000D03*
X120350000Y-111825000D03*
X99398827Y-101702494D03*
%TO.N,nFAULT*%
X102500000Y-92950000D03*
X87550000Y-106950000D03*
%TO.N,I2C_SDA*%
X105850000Y-102025000D03*
X105300000Y-93500000D03*
X119925000Y-98224500D03*
X111950000Y-89575000D03*
%TO.N,I2C_SCL*%
X119175000Y-98224500D03*
X111161833Y-89081555D03*
X104100000Y-102000000D03*
X104250000Y-93500000D03*
%TO.N,nSLEEP*%
X88250000Y-104400000D03*
X103360523Y-93289477D03*
%TO.N,DRVOFF*%
X101100000Y-93750000D03*
X86750000Y-104375000D03*
%TO.N,INLC*%
X92699000Y-104081112D03*
X100250000Y-94100000D03*
%TO.N,INHC*%
X92125000Y-104700000D03*
X99950000Y-95000000D03*
%TO.N,INLB*%
X91649500Y-104100000D03*
X99924500Y-95890475D03*
%TO.N,INHB*%
X91125000Y-104675000D03*
X99924500Y-96539978D03*
%TO.N,INLA*%
X99924500Y-97189481D03*
X90600000Y-104100000D03*
%TO.N,INHA*%
X99924500Y-97838984D03*
X90075000Y-104700000D03*
%TO.N,SPI_MISO*%
X95075000Y-102475000D03*
X99400004Y-102351995D03*
%TO.N,SPI_SS*%
X95100000Y-100300000D03*
X99450000Y-103100000D03*
%TO.N,SPI_SCK*%
X95100000Y-101050000D03*
X100050000Y-103700000D03*
%TO.N,SPI_MOSI*%
X100600000Y-104250000D03*
X95075000Y-101775000D03*
%TO.N,DIR_Pin*%
X103025000Y-101975000D03*
%TO.N,GPIO23*%
X104500000Y-105250000D03*
X124400000Y-112700000D03*
%TO.N,Net-(U1-GPIO26_ADC0)*%
X106024500Y-104850000D03*
X93750000Y-107675000D03*
%TO.N,Net-(U1-GPIO27_ADC1)*%
X106062250Y-105553151D03*
X95975000Y-107575000D03*
%TO.N,Net-(U1-GPIO28_ADC2)*%
X98125000Y-107600000D03*
X106100000Y-106300000D03*
%TO.N,+VBUS_OUT*%
X114105885Y-108505885D03*
X113524500Y-109075000D03*
X114225000Y-109075000D03*
X114796947Y-108505885D03*
%TO.N,VBUS_MIN*%
X115816207Y-104735585D03*
%TO.N,ISNK_FINE*%
X119603575Y-103625500D03*
X119000000Y-110675000D03*
%TO.N,ALIM*%
X99275000Y-81675000D03*
X99725000Y-82375000D03*
X89100000Y-91900000D03*
X101575000Y-82375000D03*
X101125000Y-81675000D03*
X88650000Y-91200000D03*
X100200000Y-81675000D03*
X100650000Y-82375000D03*
X117725000Y-81475000D03*
X117725000Y-82400000D03*
X90025000Y-91900000D03*
X117025000Y-81925000D03*
X89575000Y-91200000D03*
X117025000Y-81000000D03*
X120775709Y-106558511D03*
X90950000Y-91900000D03*
X117025000Y-82850000D03*
X90500000Y-91200000D03*
X117725000Y-80550000D03*
%TO.N,+VBUS_FET_EN*%
X116927796Y-104214207D03*
X119925500Y-105924500D03*
%TO.N,GATE*%
X118686622Y-109711622D03*
X113908148Y-104246945D03*
%TO.N,SAFE_PWR_EN*%
X117825000Y-103625500D03*
%TO.N,SOURCE*%
X112050000Y-107725000D03*
X114625000Y-104500000D03*
%TO.N,/CC1*%
X117575081Y-98224500D03*
X125525000Y-101300000D03*
%TO.N,/CC2*%
X118302241Y-98224500D03*
X125525000Y-98300000D03*
%TO.N,GND*%
X84600000Y-98425000D03*
X103725000Y-90025000D03*
X104650000Y-90025000D03*
X97450000Y-85325000D03*
X110675000Y-107725000D03*
X84725000Y-91875000D03*
X115965500Y-107124500D03*
X96750000Y-84850000D03*
X92325000Y-93450000D03*
X108400000Y-83400000D03*
X105550000Y-98900000D03*
X99423819Y-108849500D03*
X113000000Y-97700000D03*
X104325000Y-99475000D03*
X96750000Y-86700000D03*
X107950000Y-82700000D03*
X100150000Y-109550000D03*
X89534311Y-104075626D03*
X112050000Y-104050000D03*
X84600000Y-99075000D03*
X108875000Y-82700000D03*
X105550000Y-100750000D03*
X84650000Y-101050000D03*
X85650000Y-91875000D03*
X110925000Y-88450000D03*
X84525000Y-101675000D03*
X105575000Y-90025000D03*
X106875000Y-97350000D03*
X83875000Y-101675000D03*
X96750000Y-85775000D03*
X100053721Y-98475500D03*
X105550000Y-99825000D03*
X90825000Y-93449500D03*
X83800000Y-91875000D03*
X92594990Y-96369990D03*
X97450000Y-84400000D03*
X83350000Y-91175000D03*
X84275000Y-91175000D03*
X110250000Y-83400000D03*
X85200000Y-91175000D03*
X104325000Y-98550000D03*
X115075000Y-98175000D03*
X104325000Y-100400000D03*
X109800000Y-82700000D03*
X91575000Y-93450000D03*
X114500000Y-92375000D03*
X84000000Y-101050000D03*
X99625000Y-107125500D03*
X83975000Y-98950000D03*
X83975000Y-98300000D03*
X121450000Y-109775000D03*
X91491622Y-96366622D03*
X97450000Y-86250000D03*
X109325000Y-83400000D03*
%TO.N,ISNK_COARSE*%
X121425000Y-104600000D03*
X118544319Y-103614638D03*
%TO.N,VBUS_MAX*%
X116278490Y-104198242D03*
%TO.N,+VBUS*%
X118425000Y-96924500D03*
X117650000Y-96924500D03*
X119250000Y-96925000D03*
X116825000Y-96924000D03*
%TO.N,DRAIN_1*%
X118075000Y-109100000D03*
X113300000Y-104475000D03*
%TD*%
D21*
%TO.N,3V3_BUCK*%
X103750000Y-111375000D02*
X103750000Y-110675000D01*
D22*
X102650000Y-106400000D02*
X102650000Y-108800000D01*
X102650000Y-108800000D02*
X103775000Y-109925000D01*
D21*
X103775000Y-109925000D02*
X103775000Y-110650000D01*
X103775000Y-110650000D02*
X103750000Y-110675000D01*
%TO.N,VREF*%
X100861827Y-105475000D02*
X98740949Y-103354122D01*
X98740949Y-103354122D02*
X96545878Y-103354122D01*
X101338173Y-105475000D02*
X100861827Y-105475000D01*
X106637250Y-105712750D02*
X106637250Y-104649577D01*
X102261827Y-104275000D02*
X101675000Y-104861827D01*
X106262673Y-104275000D02*
X102261827Y-104275000D01*
X107349500Y-106425000D02*
X106637250Y-105712750D01*
X101675000Y-105138173D02*
X101338173Y-105475000D01*
X101675000Y-104861827D02*
X101675000Y-105138173D01*
X106637250Y-104649577D02*
X106262673Y-104275000D01*
D23*
%TO.N,GPIO21*%
X102075000Y-117589365D02*
X102075000Y-105275000D01*
X102075000Y-105275000D02*
X102250000Y-105100000D01*
X102480000Y-118905635D02*
X102480000Y-117994365D01*
X103124365Y-119550000D02*
X102480000Y-118905635D01*
X109000000Y-120990000D02*
X107560000Y-119550000D01*
X107560000Y-119550000D02*
X103124365Y-119550000D01*
X102480000Y-117994365D02*
X102075000Y-117589365D01*
D24*
%TO.N,INLC*%
X92699000Y-104081112D02*
X94984574Y-104081112D01*
X100271184Y-99000500D02*
X100578721Y-98692963D01*
X100578721Y-98692963D02*
X100578721Y-94428721D01*
X100065186Y-99000500D02*
X100271184Y-99000500D01*
X100578721Y-94428721D02*
X100250000Y-94100000D01*
X94984574Y-104081112D02*
X100065186Y-99000500D01*
%TO.N,INHC*%
X89857537Y-105225000D02*
X89009311Y-104376774D01*
X96650000Y-95000000D02*
X99950000Y-95000000D01*
X89009311Y-104376774D02*
X89009311Y-102640689D01*
X89009311Y-102640689D02*
X96650000Y-95000000D01*
X90682537Y-105200000D02*
X90657537Y-105225000D01*
X92125000Y-104700000D02*
X91625000Y-105200000D01*
X90657537Y-105225000D02*
X89857537Y-105225000D01*
X91625000Y-105200000D02*
X90682537Y-105200000D01*
%TO.N,INLB*%
X92193388Y-103556112D02*
X94943888Y-103556112D01*
X99399500Y-96322515D02*
X99831540Y-95890475D01*
X99831540Y-95890475D02*
X99924500Y-95890475D01*
X94943888Y-103556112D02*
X99399500Y-99100500D01*
X99399500Y-99100500D02*
X99399500Y-96322515D01*
X91649500Y-104100000D02*
X92193388Y-103556112D01*
%TD*%
M02*
