%TF.GenerationSoftware,KiCad,Pcbnew,7.0.9*%
%TF.CreationDate,2024-02-12T03:50:36+01:00*%
%TF.ProjectId,MTR_Tiny_MD,4d54525f-5469-46e7-995f-4d442e6b6963,rev?*%
%TF.SameCoordinates,Original*%
%TF.FileFunction,Copper,L5,Inr*%
%TF.FilePolarity,Positive*%
%FSLAX46Y46*%
G04 Gerber Fmt 4.6, Leading zero omitted, Abs format (unit mm)*
G04 Created by KiCad (PCBNEW 7.0.9) date 2024-02-12 03:50:36*
%MOMM*%
%LPD*%
G01*
G04 APERTURE LIST*
G04 Aperture macros list*
%AMRoundRect*
0 Rectangle with rounded corners*
0 $1 Rounding radius*
0 $2 $3 $4 $5 $6 $7 $8 $9 X,Y pos of 4 corners*
0 Add a 4 corners polygon primitive as box body*
4,1,4,$2,$3,$4,$5,$6,$7,$8,$9,$2,$3,0*
0 Add four circle primitives for the rounded corners*
1,1,$1+$1,$2,$3*
1,1,$1+$1,$4,$5*
1,1,$1+$1,$6,$7*
1,1,$1+$1,$8,$9*
0 Add four rect primitives between the rounded corners*
20,1,$1+$1,$2,$3,$4,$5,0*
20,1,$1+$1,$4,$5,$6,$7,0*
20,1,$1+$1,$6,$7,$8,$9,0*
20,1,$1+$1,$8,$9,$2,$3,0*%
%AMHorizOval*
0 Thick line with rounded ends*
0 $1 width*
0 $2 $3 position (X,Y) of the first rounded end (center of the circle)*
0 $4 $5 position (X,Y) of the second rounded end (center of the circle)*
0 Add line between two ends*
20,1,$1,$2,$3,$4,$5,0*
0 Add two circle primitives to create the rounded ends*
1,1,$1,$2,$3*
1,1,$1,$4,$5*%
%AMRotRect*
0 Rectangle, with rotation*
0 The origin of the aperture is its center*
0 $1 length*
0 $2 width*
0 $3 Rotation angle, in degrees counterclockwise*
0 Add horizontal line*
21,1,$1,$2,0,0,$3*%
G04 Aperture macros list end*
%TA.AperFunction,NonConductor*%
%ADD10C,0.200000*%
%TD*%
%TA.AperFunction,ComponentPad*%
%ADD11R,1.700000X1.700000*%
%TD*%
%TA.AperFunction,ComponentPad*%
%ADD12O,1.700000X1.700000*%
%TD*%
%TA.AperFunction,ComponentPad*%
%ADD13RoundRect,0.165000X1.210000X-1.210000X1.210000X1.210000X-1.210000X1.210000X-1.210000X-1.210000X0*%
%TD*%
%TA.AperFunction,ComponentPad*%
%ADD14C,0.800000*%
%TD*%
%TA.AperFunction,ComponentPad*%
%ADD15C,6.400000*%
%TD*%
%TA.AperFunction,ComponentPad*%
%ADD16C,2.362200*%
%TD*%
%TA.AperFunction,ComponentPad*%
%ADD17O,2.100000X1.000000*%
%TD*%
%TA.AperFunction,ComponentPad*%
%ADD18O,1.600000X1.000000*%
%TD*%
%TA.AperFunction,ComponentPad*%
%ADD19RotRect,1.700000X1.700000X315.000000*%
%TD*%
%TA.AperFunction,ComponentPad*%
%ADD20HorizOval,1.700000X0.000000X0.000000X0.000000X0.000000X0*%
%TD*%
%TA.AperFunction,ViaPad*%
%ADD21C,0.450000*%
%TD*%
%TA.AperFunction,Conductor*%
%ADD22C,0.100000*%
%TD*%
%TA.AperFunction,Conductor*%
%ADD23C,0.200000*%
%TD*%
%TA.AperFunction,Conductor*%
%ADD24C,0.300000*%
%TD*%
%TA.AperFunction,Conductor*%
%ADD25C,1.000000*%
%TD*%
%TA.AperFunction,Conductor*%
%ADD26C,0.700000*%
%TD*%
G04 APERTURE END LIST*
D10*
X116600000Y-79950000D02*
X118225000Y-79950000D01*
X118225000Y-83250000D01*
X116600000Y-83250000D01*
X116600000Y-79950000D01*
%TA.AperFunction,NonConductor*%
G36*
X116600000Y-79950000D02*
G01*
X118225000Y-79950000D01*
X118225000Y-83250000D01*
X116600000Y-83250000D01*
X116600000Y-79950000D01*
G37*
%TD.AperFunction*%
X101425000Y-87725000D02*
X95450000Y-92650000D01*
X88150000Y-92650000D01*
X88150000Y-90475000D01*
X91750000Y-90475000D01*
X94725000Y-91325000D01*
X98775000Y-88050000D01*
X98775000Y-81300000D01*
X101425000Y-81300000D01*
X101425000Y-87725000D01*
%TA.AperFunction,NonConductor*%
G36*
X101425000Y-87725000D02*
G01*
X95450000Y-92650000D01*
X88150000Y-92650000D01*
X88150000Y-90475000D01*
X91750000Y-90475000D01*
X94725000Y-91325000D01*
X98775000Y-88050000D01*
X98775000Y-81300000D01*
X101425000Y-81300000D01*
X101425000Y-87725000D01*
G37*
%TD.AperFunction*%
D11*
%TO.N,GND*%
%TO.C,J5*%
X110400000Y-111025000D03*
D12*
%TO.N,DOUT*%
X110400000Y-113565000D03*
%TD*%
D13*
%TO.N,OUTC*%
%TO.C,H12*%
X82620000Y-105310000D03*
%TD*%
D14*
%TO.N,GND*%
%TO.C,H1*%
X119850000Y-117250000D03*
X120552944Y-115552944D03*
X120552944Y-118947056D03*
X122250000Y-114850000D03*
D15*
X122250000Y-117250000D03*
D14*
X122250000Y-119650000D03*
X123947056Y-115552944D03*
X123947056Y-118947056D03*
X124650000Y-117250000D03*
%TD*%
%TO.N,GND*%
%TO.C,H3*%
X119850000Y-82750000D03*
X120552944Y-81052944D03*
X120552944Y-84447056D03*
X122250000Y-80350000D03*
D15*
X122250000Y-82750000D03*
D14*
X122250000Y-85150000D03*
X123947056Y-81052944D03*
X123947056Y-84447056D03*
X124650000Y-82750000D03*
%TD*%
%TO.N,GND*%
%TO.C,H8*%
X85350000Y-82750000D03*
X86052944Y-81052944D03*
X86052944Y-84447056D03*
X87750000Y-80350000D03*
D15*
X87750000Y-82750000D03*
D14*
X87750000Y-85150000D03*
X89447056Y-81052944D03*
X89447056Y-84447056D03*
X90150000Y-82750000D03*
%TD*%
%TO.N,GND*%
%TO.C,H9*%
X85350000Y-117250000D03*
X86052944Y-115552944D03*
X86052944Y-118947056D03*
X87750000Y-114850000D03*
D15*
X87750000Y-117250000D03*
D14*
X87750000Y-119650000D03*
X89447056Y-115552944D03*
X89447056Y-118947056D03*
X90150000Y-117250000D03*
%TD*%
D16*
%TO.N,/VM*%
%TO.C,J6*%
X107890000Y-78450000D03*
%TO.N,GND*%
X102890000Y-78450000D03*
%TD*%
D17*
%TO.N,unconnected-(J1-SHIELD-PadS1)*%
%TO.C,J1*%
X124280000Y-104370000D03*
D18*
X128460000Y-104370000D03*
D17*
X124280000Y-95730000D03*
D18*
X128460000Y-95730000D03*
%TD*%
D19*
%TO.N,SWD*%
%TO.C,J3*%
X96700000Y-113800000D03*
D20*
%TO.N,SWCLK*%
X94903949Y-115596051D03*
%TD*%
D11*
%TO.N,3V3_BUCK*%
%TO.C,J2*%
X111540000Y-118450000D03*
D12*
%TO.N,GND*%
X111540000Y-120990000D03*
%TO.N,GPIO23*%
X109000000Y-118450000D03*
%TO.N,GPIO21*%
X109000000Y-120990000D03*
%TO.N,+VBUS_OUT*%
X106460000Y-118450000D03*
%TO.N,GPIO20*%
X106460000Y-120990000D03*
%TO.N,GPIO25*%
X103920000Y-118450000D03*
%TO.N,GPIO2*%
X103920000Y-120990000D03*
%TO.N,GPIO24*%
X101380000Y-118450000D03*
%TO.N,GPIO3*%
X101380000Y-120990000D03*
%TO.N,GPIO22*%
X98840000Y-118450000D03*
%TO.N,GPIO9*%
X98840000Y-120990000D03*
%TD*%
D13*
%TO.N,OUTB*%
%TO.C,H11*%
X81740000Y-100030000D03*
%TD*%
%TO.N,OUTA*%
%TO.C,H10*%
X82440000Y-95030000D03*
%TD*%
D11*
%TO.N,UART_TX*%
%TO.C,J4*%
X111400000Y-91100000D03*
D12*
%TO.N,UART_RX*%
X108860000Y-91100000D03*
%TD*%
D21*
%TO.N,+1V1*%
X102600000Y-100175000D03*
X98300000Y-99325000D03*
X109507082Y-101412452D03*
%TO.N,3V3_BUCK*%
X108775000Y-93900000D03*
X103000000Y-88975000D03*
X109225000Y-94600000D03*
X112725000Y-85850000D03*
X109225000Y-103250000D03*
X108300000Y-103250000D03*
X121425000Y-106575000D03*
X110200000Y-103300000D03*
X112725000Y-86775000D03*
X104275000Y-92450000D03*
X121450000Y-108500000D03*
X114450000Y-93305000D03*
X110600000Y-103950000D03*
X108300000Y-94600000D03*
X113425000Y-84475000D03*
X95800000Y-81625000D03*
X103550000Y-92450000D03*
X88575000Y-106900000D03*
X103775000Y-109925000D03*
X113425000Y-86325000D03*
X98300000Y-98403750D03*
X103750000Y-110675000D03*
X119300469Y-106449000D03*
X120975000Y-87350000D03*
X113425000Y-85400000D03*
X103750000Y-111375000D03*
X104365000Y-97347100D03*
X103095000Y-97347100D03*
X102650000Y-106400000D03*
X101625000Y-88275000D03*
X108750000Y-103950000D03*
X109675000Y-103950000D03*
X102075000Y-88975000D03*
X102550000Y-88275000D03*
X107850000Y-93900000D03*
X112725000Y-84925000D03*
%TO.N,Current_A*%
X95050000Y-97350000D03*
X93750000Y-105050000D03*
%TO.N,Current_B*%
X95950000Y-105150000D03*
X95096127Y-98045630D03*
%TO.N,Current_C*%
X95091757Y-98791757D03*
X98150000Y-105050000D03*
%TO.N,VREF*%
X95100000Y-99550000D03*
X107349500Y-106425000D03*
X96545878Y-103354122D03*
%TO.N,DOUT*%
X103675000Y-112900000D03*
%TO.N,GPIO25*%
X105550000Y-110625000D03*
%TO.N,USB_D+*%
X125500000Y-99700000D03*
X112280000Y-99700000D03*
%TO.N,USB_D-*%
X125500000Y-100400000D03*
X112280000Y-100400000D03*
%TO.N,GPIO24*%
X104665322Y-106162026D03*
%TO.N,GPIO22*%
X103674500Y-105250000D03*
%TO.N,GPIO9*%
X101435523Y-94764477D03*
%TO.N,GPIO3*%
X106100000Y-93500000D03*
%TO.N,GPIO2*%
X106275500Y-94550000D03*
%TO.N,GPIO20*%
X101100000Y-104900000D03*
%TO.N,GPIO21*%
X102250000Y-105100000D03*
%TO.N,SWD*%
X99413337Y-101053153D03*
%TO.N,SWCLK*%
X99403721Y-100403722D03*
%TO.N,RUN*%
X118150000Y-116350000D03*
X120350000Y-111825000D03*
X99398827Y-101702494D03*
%TO.N,nFAULT*%
X102500000Y-92950000D03*
X87550000Y-106950000D03*
%TO.N,I2C_SDA*%
X105850000Y-102025000D03*
X105300000Y-93500000D03*
X119925000Y-98224500D03*
X111950000Y-89575000D03*
%TO.N,I2C_SCL*%
X119175000Y-98224500D03*
X111161833Y-89081555D03*
X104100000Y-102000000D03*
X104250000Y-93500000D03*
%TO.N,nSLEEP*%
X88250000Y-104400000D03*
X103360523Y-93289477D03*
%TO.N,DRVOFF*%
X101100000Y-93750000D03*
X86750000Y-104375000D03*
%TO.N,INLC*%
X92699000Y-104081112D03*
X100250000Y-94100000D03*
%TO.N,INHC*%
X92125000Y-104700000D03*
X99950000Y-95000000D03*
%TO.N,INLB*%
X91649500Y-104100000D03*
X99924500Y-95890475D03*
%TO.N,INHB*%
X91125000Y-104675000D03*
X99924500Y-96539978D03*
%TO.N,INLA*%
X99924500Y-97189481D03*
X90600000Y-104100000D03*
%TO.N,INHA*%
X99924500Y-97838984D03*
X90075000Y-104700000D03*
%TO.N,SPI_MISO*%
X95075000Y-102475000D03*
X99400004Y-102351995D03*
%TO.N,SPI_SS*%
X95100000Y-100300000D03*
X99450000Y-103100000D03*
%TO.N,SPI_SCK*%
X95100000Y-101050000D03*
X100050000Y-103700000D03*
%TO.N,SPI_MOSI*%
X100600000Y-104250000D03*
X95075000Y-101775000D03*
%TO.N,DIR_Pin*%
X103025000Y-101975000D03*
%TO.N,GPIO23*%
X104500000Y-105250000D03*
X124400000Y-112700000D03*
%TO.N,Net-(U1-GPIO26_ADC0)*%
X106024500Y-104850000D03*
X93750000Y-107675000D03*
%TO.N,Net-(U1-GPIO27_ADC1)*%
X106062250Y-105553151D03*
X95975000Y-107575000D03*
%TO.N,Net-(U1-GPIO28_ADC2)*%
X98125000Y-107600000D03*
X106100000Y-106300000D03*
%TO.N,+VBUS_OUT*%
X114105885Y-108505885D03*
X113524500Y-109075000D03*
X114225000Y-109075000D03*
X114796947Y-108505885D03*
%TO.N,VBUS_MIN*%
X115816207Y-104735585D03*
%TO.N,ISNK_FINE*%
X119603575Y-103625500D03*
X119000000Y-110675000D03*
%TO.N,ALIM*%
X99275000Y-81675000D03*
X99725000Y-82375000D03*
X89100000Y-91900000D03*
X101575000Y-82375000D03*
X101125000Y-81675000D03*
X88650000Y-91200000D03*
X100200000Y-81675000D03*
X100650000Y-82375000D03*
X117725000Y-81475000D03*
X117725000Y-82400000D03*
X90025000Y-91900000D03*
X117025000Y-81925000D03*
X89575000Y-91200000D03*
X117025000Y-81000000D03*
X120775709Y-106558511D03*
X90950000Y-91900000D03*
X117025000Y-82850000D03*
X90500000Y-91200000D03*
X117725000Y-80550000D03*
%TO.N,+VBUS_FET_EN*%
X116927796Y-104214207D03*
X119925500Y-105924500D03*
%TO.N,GATE*%
X118686622Y-109711622D03*
X113908148Y-104246945D03*
%TO.N,SAFE_PWR_EN*%
X117825000Y-103625500D03*
%TO.N,SOURCE*%
X112050000Y-107725000D03*
X114625000Y-104500000D03*
%TO.N,/CC1*%
X117575081Y-98224500D03*
X125525000Y-101300000D03*
%TO.N,/CC2*%
X118302241Y-98224500D03*
X125525000Y-98300000D03*
%TO.N,GND*%
X84600000Y-98425000D03*
X103725000Y-90025000D03*
X104650000Y-90025000D03*
X97450000Y-85325000D03*
X110675000Y-107725000D03*
X84725000Y-91875000D03*
X115965500Y-107124500D03*
X96750000Y-84850000D03*
X92325000Y-93450000D03*
X108400000Y-83400000D03*
X105550000Y-98900000D03*
X99423819Y-108849500D03*
X113000000Y-97700000D03*
X104325000Y-99475000D03*
X96750000Y-86700000D03*
X107950000Y-82700000D03*
X100150000Y-109550000D03*
X89534311Y-104075626D03*
X112050000Y-104050000D03*
X84600000Y-99075000D03*
X108875000Y-82700000D03*
X105550000Y-100750000D03*
X84650000Y-101050000D03*
X85650000Y-91875000D03*
X110925000Y-88450000D03*
X84525000Y-101675000D03*
X105575000Y-90025000D03*
X106875000Y-97350000D03*
X83875000Y-101675000D03*
X96750000Y-85775000D03*
X100053721Y-98475500D03*
X105550000Y-99825000D03*
X90825000Y-93449500D03*
X83800000Y-91875000D03*
X92594990Y-96369990D03*
X97450000Y-84400000D03*
X83350000Y-91175000D03*
X84275000Y-91175000D03*
X110250000Y-83400000D03*
X85200000Y-91175000D03*
X104325000Y-98550000D03*
X115075000Y-98175000D03*
X104325000Y-100400000D03*
X109800000Y-82700000D03*
X91575000Y-93450000D03*
X114500000Y-92375000D03*
X84000000Y-101050000D03*
X99625000Y-107125500D03*
X83975000Y-98950000D03*
X83975000Y-98300000D03*
X121450000Y-109775000D03*
X91491622Y-96366622D03*
X97450000Y-86250000D03*
X109325000Y-83400000D03*
%TO.N,ISNK_COARSE*%
X121425000Y-104600000D03*
X118544319Y-103614638D03*
%TO.N,VBUS_MAX*%
X116278490Y-104198242D03*
%TO.N,+VBUS*%
X118425000Y-96924500D03*
X117650000Y-96924500D03*
X119250000Y-96925000D03*
X116825000Y-96924000D03*
%TO.N,DRAIN_1*%
X118075000Y-109100000D03*
X113300000Y-104475000D03*
%TD*%
D22*
%TO.N,SWD*%
X103100000Y-107400000D02*
X103100000Y-106621752D01*
X103125000Y-106596752D02*
X103125000Y-103453249D01*
X98928721Y-100703721D02*
X99278153Y-101053153D01*
X96700000Y-113800000D02*
X103100000Y-107400000D01*
X99600473Y-99928722D02*
X99206969Y-99928722D01*
X99278153Y-101053153D02*
X99413337Y-101053153D01*
X98928721Y-100206970D02*
X98928721Y-100703721D01*
X99206969Y-99928722D02*
X98928721Y-100206970D01*
X103100000Y-106621752D02*
X103125000Y-106596752D01*
X103125000Y-103453249D02*
X99600473Y-99928722D01*
%TO.N,SWCLK*%
X101575000Y-102375000D02*
X99603722Y-100403722D01*
X94903949Y-114040415D02*
X101575000Y-107369364D01*
X94903949Y-115596051D02*
X94903949Y-114040415D01*
X99603722Y-100403722D02*
X99403721Y-100403722D01*
X101575000Y-107369364D02*
X101575000Y-102375000D01*
%TO.N,I2C_SDA*%
X105140000Y-101315000D02*
X105140000Y-93660000D01*
X117378829Y-98700000D02*
X119449500Y-98700000D01*
X105775000Y-93025000D02*
X111703829Y-93025000D01*
X105140000Y-93660000D02*
X105300000Y-93500000D01*
X105300000Y-93500000D02*
X105775000Y-93025000D01*
X119449500Y-98700000D02*
X119925000Y-98224500D01*
X105850000Y-102025000D02*
X105140000Y-101315000D01*
X111703829Y-93025000D02*
X117378829Y-98700000D01*
%TO.N,I2C_SCL*%
X118700000Y-97749500D02*
X119175000Y-98224500D01*
X105178248Y-92571752D02*
X111801000Y-92571752D01*
X104840000Y-101260000D02*
X104840000Y-94090000D01*
X111801000Y-92571752D02*
X116978748Y-97749500D01*
X104250000Y-93500000D02*
X105178248Y-92571752D01*
X104100000Y-102000000D02*
X104840000Y-101260000D01*
X116978748Y-97749500D02*
X118700000Y-97749500D01*
X104840000Y-94090000D02*
X104250000Y-93500000D01*
D23*
%TO.N,SPI_MISO*%
X99276999Y-102475000D02*
X99400004Y-102351995D01*
X95075000Y-102475000D02*
X99276999Y-102475000D01*
%TO.N,SPI_MOSI*%
X95032537Y-101775000D02*
X94550000Y-102257537D01*
X96107537Y-104250000D02*
X100600000Y-104250000D01*
X94550000Y-102692463D02*
X96107537Y-104250000D01*
X95075000Y-101775000D02*
X95032537Y-101775000D01*
X94550000Y-102257537D02*
X94550000Y-102692463D01*
%TO.N,ALIM*%
X100150000Y-82875000D02*
X100650000Y-82375000D01*
D24*
X120775709Y-106558511D02*
X120775709Y-103649291D01*
D23*
X100150000Y-87950000D02*
X100150000Y-82875000D01*
D25*
X113846969Y-88519749D02*
X117725000Y-84641718D01*
X120775709Y-96709737D02*
X115550000Y-91484028D01*
X115266170Y-91484028D02*
X113846969Y-90064827D01*
X113846969Y-90064827D02*
X113846969Y-88519749D01*
D23*
X96200000Y-91900000D02*
X100150000Y-87950000D01*
X90950000Y-91900000D02*
X96200000Y-91900000D01*
D26*
X120775709Y-103649291D02*
X120775000Y-103650000D01*
X120775709Y-103649291D02*
X120775709Y-96709737D01*
X115550000Y-91484028D02*
X115266170Y-91484028D01*
D25*
X117725000Y-84641718D02*
X117725000Y-80550000D01*
%TD*%
%TA.AperFunction,Conductor*%
%TO.N,3V3_BUCK*%
G36*
X105731344Y-75092763D02*
G01*
X106253709Y-75113054D01*
X106722801Y-75141317D01*
X107244218Y-75181886D01*
X107597524Y-75217441D01*
X107711451Y-75228906D01*
X108231275Y-75289726D01*
X108695656Y-75355363D01*
X109213410Y-75436422D01*
X109642886Y-75514811D01*
X109674061Y-75520501D01*
X110188973Y-75621731D01*
X110644886Y-75723994D01*
X111156528Y-75845382D01*
X111605685Y-75965238D01*
X111606662Y-75965499D01*
X112114559Y-76107031D01*
X112557759Y-76244561D01*
X112970941Y-76377186D01*
X113061528Y-76406263D01*
X113496370Y-76560574D01*
X113996059Y-76742645D01*
X114420953Y-76912908D01*
X114916548Y-77115608D01*
X115182106Y-77234595D01*
X115329458Y-77300618D01*
X115821675Y-77524613D01*
X116161279Y-77693446D01*
X116219196Y-77722240D01*
X116709980Y-77969010D01*
X117085388Y-78174818D01*
X117580078Y-78448105D01*
X117843908Y-78606826D01*
X117915598Y-78649955D01*
X118411188Y-78949416D01*
X118430641Y-78961170D01*
X118603493Y-79074842D01*
X119238448Y-79492992D01*
X119238845Y-79493253D01*
X119249253Y-79501728D01*
X119262699Y-79500500D01*
X120019325Y-79500500D01*
X120087446Y-79520502D01*
X120133939Y-79574158D01*
X120144043Y-79644432D01*
X120114549Y-79709012D01*
X120087950Y-79732172D01*
X120067208Y-79745641D01*
X120067200Y-79745647D01*
X119765137Y-79990253D01*
X119765122Y-79990267D01*
X119490267Y-80265122D01*
X119490253Y-80265137D01*
X119245647Y-80567200D01*
X119245645Y-80567204D01*
X119065173Y-80845107D01*
X119011296Y-80891344D01*
X118940975Y-80901114D01*
X118876535Y-80871314D01*
X118838436Y-80811406D01*
X118833500Y-80776483D01*
X118833500Y-79994018D01*
X118834040Y-79985786D01*
X118838751Y-79950000D01*
X118838751Y-79949999D01*
X118817838Y-79791151D01*
X118811019Y-79774687D01*
X118756524Y-79643125D01*
X118729552Y-79607975D01*
X118658988Y-79516014D01*
X118637952Y-79499872D01*
X118531882Y-79418480D01*
X118531874Y-79418475D01*
X118383848Y-79357161D01*
X118225000Y-79336249D01*
X118224999Y-79336249D01*
X118189214Y-79340960D01*
X118180982Y-79341500D01*
X116644018Y-79341500D01*
X116635786Y-79340960D01*
X116600001Y-79336249D01*
X116600000Y-79336249D01*
X116560115Y-79341500D01*
X116544454Y-79343561D01*
X116441151Y-79357161D01*
X116293126Y-79418475D01*
X116293118Y-79418480D01*
X116166014Y-79516011D01*
X116068477Y-79643121D01*
X116007161Y-79791151D01*
X115986249Y-79949999D01*
X115986249Y-79950000D01*
X115990960Y-79985786D01*
X115991500Y-79994018D01*
X115991500Y-83205981D01*
X115990960Y-83214213D01*
X115986249Y-83249999D01*
X115991500Y-83289884D01*
X116007161Y-83408848D01*
X116068475Y-83556873D01*
X116068480Y-83556881D01*
X116149033Y-83661859D01*
X116166013Y-83683987D01*
X116293124Y-83781524D01*
X116441150Y-83842838D01*
X116600000Y-83863751D01*
X116600001Y-83863750D01*
X116606946Y-83864665D01*
X116671873Y-83893387D01*
X116710965Y-83952652D01*
X116716500Y-83989587D01*
X116716500Y-84171793D01*
X116696498Y-84239914D01*
X116679595Y-84260888D01*
X113171084Y-87769399D01*
X113166501Y-87773553D01*
X113130401Y-87803179D01*
X113004374Y-87956744D01*
X112923072Y-88108851D01*
X112910728Y-88131943D01*
X112910727Y-88131945D01*
X112853060Y-88322044D01*
X112853058Y-88322056D01*
X112833589Y-88519744D01*
X112833589Y-88519751D01*
X112838165Y-88566213D01*
X112838469Y-88572392D01*
X112838469Y-89172958D01*
X112818467Y-89241079D01*
X112764811Y-89287572D01*
X112694537Y-89297676D01*
X112629957Y-89268182D01*
X112605782Y-89239994D01*
X112527102Y-89114777D01*
X112527100Y-89114774D01*
X112410223Y-88997897D01*
X112270269Y-88909959D01*
X112270267Y-88909958D01*
X112150389Y-88868011D01*
X112114252Y-88855366D01*
X111950000Y-88836859D01*
X111949998Y-88836859D01*
X111949997Y-88836859D01*
X111942924Y-88836859D01*
X111942924Y-88833772D01*
X111886411Y-88823756D01*
X111834300Y-88775538D01*
X111828939Y-88765575D01*
X111826876Y-88761292D01*
X111826875Y-88761288D01*
X111758393Y-88652299D01*
X111738935Y-88621331D01*
X111696373Y-88578769D01*
X111662347Y-88516457D01*
X111660260Y-88475566D01*
X111663141Y-88450000D01*
X111644634Y-88285748D01*
X111590042Y-88129733D01*
X111528552Y-88031872D01*
X111502102Y-87989776D01*
X111385223Y-87872897D01*
X111245269Y-87784959D01*
X111245267Y-87784958D01*
X111089252Y-87730366D01*
X110925000Y-87711859D01*
X110760748Y-87730366D01*
X110760745Y-87730366D01*
X110760745Y-87730367D01*
X110604732Y-87784958D01*
X110604730Y-87784959D01*
X110464776Y-87872897D01*
X110347897Y-87989776D01*
X110259959Y-88129730D01*
X110259958Y-88129732D01*
X110211119Y-88269307D01*
X110205366Y-88285748D01*
X110186859Y-88450000D01*
X110205366Y-88614252D01*
X110218679Y-88652299D01*
X110259958Y-88770267D01*
X110259959Y-88770269D01*
X110347897Y-88910223D01*
X110390459Y-88952785D01*
X110424485Y-89015097D01*
X110426572Y-89055983D01*
X110423692Y-89081551D01*
X110423692Y-89081555D01*
X110442199Y-89245807D01*
X110456564Y-89286859D01*
X110496791Y-89401822D01*
X110496792Y-89401824D01*
X110588495Y-89547769D01*
X110586321Y-89549134D01*
X110608673Y-89603874D01*
X110595716Y-89673678D01*
X110547077Y-89725396D01*
X110496798Y-89741990D01*
X110440802Y-89748010D01*
X110440795Y-89748011D01*
X110303797Y-89799110D01*
X110303792Y-89799112D01*
X110186738Y-89886738D01*
X110099112Y-90003792D01*
X110099111Y-90003795D01*
X110055000Y-90122058D01*
X110012453Y-90178893D01*
X109945932Y-90203703D01*
X109876558Y-90188611D01*
X109844246Y-90163363D01*
X109783240Y-90097094D01*
X109783239Y-90097093D01*
X109783237Y-90097091D01*
X109680149Y-90016854D01*
X109605576Y-89958811D01*
X109407574Y-89851658D01*
X109407572Y-89851657D01*
X109407571Y-89851656D01*
X109194639Y-89778557D01*
X109194630Y-89778555D01*
X109150476Y-89771187D01*
X108972569Y-89741500D01*
X108747431Y-89741500D01*
X108599211Y-89766233D01*
X108525369Y-89778555D01*
X108525360Y-89778557D01*
X108312428Y-89851656D01*
X108312426Y-89851658D01*
X108114426Y-89958810D01*
X108114424Y-89958811D01*
X107936762Y-90097091D01*
X107784279Y-90262729D01*
X107784275Y-90262734D01*
X107661141Y-90451206D01*
X107570703Y-90657386D01*
X107570702Y-90657387D01*
X107515437Y-90875624D01*
X107515436Y-90875630D01*
X107515436Y-90875632D01*
X107496844Y-91100000D01*
X107514302Y-91310687D01*
X107515437Y-91324375D01*
X107570702Y-91542612D01*
X107570703Y-91542613D01*
X107661141Y-91748793D01*
X107706576Y-91818337D01*
X107727089Y-91886306D01*
X107707600Y-91954575D01*
X107654295Y-92001469D01*
X107601093Y-92013252D01*
X105187786Y-92013252D01*
X105120596Y-92010957D01*
X105076975Y-92021586D01*
X105070637Y-92022790D01*
X105063447Y-92023778D01*
X105026153Y-92028905D01*
X105026151Y-92028905D01*
X105026150Y-92028906D01*
X105009467Y-92036152D01*
X104989111Y-92042997D01*
X104971434Y-92047305D01*
X104932295Y-92069311D01*
X104926518Y-92072180D01*
X104885335Y-92090069D01*
X104885330Y-92090072D01*
X104871221Y-92101551D01*
X104853463Y-92113637D01*
X104837611Y-92122550D01*
X104805856Y-92154303D01*
X104801067Y-92158625D01*
X104766239Y-92186960D01*
X104766234Y-92186965D01*
X104755746Y-92201823D01*
X104741908Y-92218251D01*
X104222913Y-92737247D01*
X104160600Y-92771272D01*
X104147930Y-92773359D01*
X104085748Y-92780366D01*
X104085742Y-92780367D01*
X104014533Y-92805285D01*
X103943628Y-92808904D01*
X103883823Y-92775451D01*
X103820746Y-92712374D01*
X103680792Y-92624436D01*
X103680790Y-92624435D01*
X103651577Y-92614213D01*
X103524775Y-92569843D01*
X103360523Y-92551336D01*
X103360522Y-92551336D01*
X103339238Y-92553734D01*
X103210634Y-92568224D01*
X103140705Y-92555976D01*
X103089841Y-92510051D01*
X103077102Y-92489777D01*
X103077100Y-92489774D01*
X102960223Y-92372897D01*
X102820269Y-92284959D01*
X102820267Y-92284958D01*
X102748255Y-92259760D01*
X102664252Y-92230366D01*
X102500000Y-92211859D01*
X102335748Y-92230366D01*
X102335745Y-92230366D01*
X102335745Y-92230367D01*
X102179732Y-92284958D01*
X102179730Y-92284959D01*
X102039776Y-92372897D01*
X101922897Y-92489776D01*
X101834959Y-92629730D01*
X101834958Y-92629732D01*
X101806040Y-92712375D01*
X101780366Y-92785748D01*
X101761859Y-92950000D01*
X101773430Y-93052698D01*
X101775450Y-93070618D01*
X101763201Y-93140550D01*
X101715088Y-93192758D01*
X101646387Y-93210667D01*
X101578910Y-93188590D01*
X101561147Y-93173821D01*
X101560223Y-93172897D01*
X101420269Y-93084959D01*
X101420267Y-93084958D01*
X101400788Y-93078142D01*
X101264252Y-93030366D01*
X101100000Y-93011859D01*
X100935748Y-93030366D01*
X100935745Y-93030366D01*
X100935745Y-93030367D01*
X100779732Y-93084958D01*
X100779730Y-93084959D01*
X100639776Y-93172897D01*
X100522901Y-93289772D01*
X100504677Y-93318775D01*
X100451497Y-93365811D01*
X100383884Y-93376944D01*
X100250000Y-93361859D01*
X100085748Y-93380366D01*
X100085745Y-93380366D01*
X100085745Y-93380367D01*
X99929732Y-93434958D01*
X99929730Y-93434959D01*
X99789776Y-93522897D01*
X99672897Y-93639776D01*
X99584959Y-93779730D01*
X99584958Y-93779732D01*
X99537888Y-93914252D01*
X99530366Y-93935748D01*
X99511859Y-94100000D01*
X99530366Y-94264252D01*
X99530366Y-94264254D01*
X99530367Y-94264255D01*
X99530367Y-94264256D01*
X99535385Y-94278597D01*
X99539003Y-94349501D01*
X99503712Y-94411105D01*
X99495021Y-94418714D01*
X99489779Y-94422894D01*
X99372897Y-94539776D01*
X99284959Y-94679730D01*
X99284958Y-94679732D01*
X99237679Y-94814848D01*
X99230366Y-94835748D01*
X99211859Y-95000000D01*
X99230366Y-95164252D01*
X99242603Y-95199224D01*
X99284957Y-95320266D01*
X99308610Y-95357909D01*
X99327916Y-95426230D01*
X99308611Y-95491980D01*
X99259458Y-95570207D01*
X99213489Y-95701580D01*
X99204866Y-95726223D01*
X99186359Y-95890475D01*
X99204866Y-96054727D01*
X99204867Y-96054729D01*
X99246465Y-96173611D01*
X99250084Y-96244515D01*
X99246467Y-96256834D01*
X99204866Y-96375726D01*
X99186359Y-96539978D01*
X99204866Y-96704230D01*
X99206792Y-96709733D01*
X99246465Y-96823114D01*
X99250084Y-96894018D01*
X99246467Y-96906337D01*
X99204866Y-97025229D01*
X99186359Y-97189481D01*
X99204866Y-97353733D01*
X99213964Y-97379733D01*
X99246465Y-97472617D01*
X99250084Y-97543521D01*
X99246467Y-97555840D01*
X99204866Y-97674732D01*
X99186359Y-97838984D01*
X99204866Y-98003236D01*
X99210826Y-98020269D01*
X99258051Y-98155232D01*
X99259458Y-98159251D01*
X99291271Y-98209882D01*
X99313804Y-98245743D01*
X99333109Y-98314064D01*
X99332324Y-98326885D01*
X99319789Y-98438141D01*
X99315580Y-98475500D01*
X99334087Y-98639752D01*
X99387227Y-98791616D01*
X99388679Y-98795767D01*
X99388680Y-98795769D01*
X99476618Y-98935723D01*
X99593495Y-99052600D01*
X99593498Y-99052602D01*
X99728667Y-99137535D01*
X99775705Y-99190714D01*
X99786525Y-99260881D01*
X99757692Y-99325759D01*
X99698360Y-99364750D01*
X99661631Y-99370222D01*
X99632341Y-99370222D01*
X99625893Y-99369891D01*
X99581227Y-99365298D01*
X99563299Y-99368390D01*
X99541891Y-99370222D01*
X99216507Y-99370222D01*
X99211272Y-99370043D01*
X99151290Y-99367994D01*
X99083892Y-99345677D01*
X99039259Y-99290465D01*
X99030386Y-99256181D01*
X99019634Y-99160748D01*
X98965042Y-99004733D01*
X98907491Y-98913141D01*
X98877102Y-98864776D01*
X98760223Y-98747897D01*
X98620269Y-98659959D01*
X98620267Y-98659958D01*
X98562527Y-98639754D01*
X98464252Y-98605366D01*
X98300000Y-98586859D01*
X98135748Y-98605366D01*
X98135745Y-98605366D01*
X98135745Y-98605367D01*
X97979732Y-98659958D01*
X97979730Y-98659959D01*
X97839776Y-98747897D01*
X97722897Y-98864776D01*
X97634959Y-99004730D01*
X97634958Y-99004732D01*
X97587437Y-99140540D01*
X97580366Y-99160748D01*
X97561859Y-99325000D01*
X97580366Y-99489252D01*
X97587612Y-99509959D01*
X97634958Y-99645267D01*
X97634959Y-99645269D01*
X97722897Y-99785223D01*
X97839776Y-99902102D01*
X97900723Y-99940397D01*
X97979733Y-99990042D01*
X98135748Y-100044634D01*
X98257133Y-100058311D01*
X98322584Y-100085814D01*
X98362777Y-100144338D01*
X98368363Y-100196402D01*
X98365298Y-100226217D01*
X98368389Y-100244144D01*
X98370221Y-100265552D01*
X98370221Y-100694182D01*
X98367926Y-100761373D01*
X98378555Y-100804995D01*
X98379760Y-100811334D01*
X98385873Y-100855813D01*
X98385876Y-100855824D01*
X98393120Y-100872501D01*
X98399966Y-100892857D01*
X98404275Y-100910537D01*
X98404276Y-100910539D01*
X98426280Y-100949674D01*
X98429151Y-100955453D01*
X98447041Y-100996638D01*
X98458520Y-101010747D01*
X98470609Y-101028509D01*
X98479522Y-101044360D01*
X98511269Y-101076107D01*
X98515584Y-101080887D01*
X98524772Y-101092182D01*
X98543932Y-101115732D01*
X98543933Y-101115733D01*
X98558793Y-101126222D01*
X98575228Y-101140066D01*
X98695507Y-101260345D01*
X98725341Y-101307823D01*
X98728018Y-101315473D01*
X98731638Y-101386377D01*
X98728019Y-101398704D01*
X98679193Y-101538241D01*
X98660686Y-101702494D01*
X98663379Y-101726392D01*
X98651130Y-101796324D01*
X98603017Y-101848532D01*
X98538171Y-101866500D01*
X95936051Y-101866500D01*
X95867930Y-101846498D01*
X95821437Y-101792842D01*
X95810843Y-101754608D01*
X95808377Y-101732721D01*
X95794634Y-101610748D01*
X95750040Y-101483308D01*
X95746421Y-101412405D01*
X95762285Y-101374654D01*
X95765042Y-101370267D01*
X95819634Y-101214252D01*
X95838141Y-101050000D01*
X95819634Y-100885748D01*
X95765042Y-100729733D01*
X95765040Y-100729729D01*
X95765012Y-100729671D01*
X95765004Y-100729625D01*
X95762705Y-100723054D01*
X95763855Y-100722651D01*
X95753475Y-100659618D01*
X95763035Y-100627061D01*
X95762705Y-100626946D01*
X95764968Y-100620477D01*
X95765012Y-100620329D01*
X95765040Y-100620270D01*
X95765042Y-100620267D01*
X95819634Y-100464252D01*
X95838141Y-100300000D01*
X95819634Y-100135748D01*
X95765042Y-99979733D01*
X95765040Y-99979729D01*
X95765012Y-99979671D01*
X95765004Y-99979625D01*
X95762705Y-99973054D01*
X95763855Y-99972651D01*
X95753475Y-99909618D01*
X95763035Y-99877061D01*
X95762705Y-99876946D01*
X95764968Y-99870477D01*
X95765012Y-99870329D01*
X95765040Y-99870270D01*
X95765042Y-99870267D01*
X95819634Y-99714252D01*
X95838141Y-99550000D01*
X95819634Y-99385748D01*
X95765042Y-99229733D01*
X95765039Y-99229729D01*
X95761970Y-99223353D01*
X95763229Y-99222746D01*
X95746028Y-99161878D01*
X95755994Y-99119239D01*
X95754462Y-99118703D01*
X95765146Y-99088169D01*
X95811391Y-98956009D01*
X95829898Y-98791757D01*
X95811391Y-98627505D01*
X95756799Y-98471490D01*
X95754476Y-98464851D01*
X95750856Y-98393947D01*
X95759886Y-98368560D01*
X95761163Y-98365906D01*
X95761169Y-98365897D01*
X95815761Y-98209882D01*
X95834268Y-98045630D01*
X95815761Y-97881378D01*
X95761169Y-97725363D01*
X95761167Y-97725360D01*
X95761167Y-97725359D01*
X95751441Y-97709880D01*
X95732135Y-97641559D01*
X95739198Y-97601231D01*
X95769634Y-97514252D01*
X95788141Y-97350000D01*
X95769634Y-97185748D01*
X95715042Y-97029733D01*
X95701437Y-97008081D01*
X95627102Y-96889776D01*
X95510223Y-96772897D01*
X95370269Y-96684959D01*
X95370267Y-96684958D01*
X95294400Y-96658411D01*
X95214252Y-96630366D01*
X95050000Y-96611859D01*
X94885748Y-96630366D01*
X94885745Y-96630366D01*
X94885745Y-96630367D01*
X94729732Y-96684958D01*
X94729730Y-96684959D01*
X94589776Y-96772897D01*
X94472897Y-96889776D01*
X94384959Y-97029730D01*
X94384958Y-97029732D01*
X94352358Y-97122898D01*
X94330366Y-97185748D01*
X94311859Y-97350000D01*
X94330366Y-97514252D01*
X94347165Y-97562261D01*
X94380841Y-97658503D01*
X94384958Y-97670267D01*
X94394686Y-97685749D01*
X94413991Y-97754071D01*
X94406928Y-97794398D01*
X94376493Y-97881377D01*
X94371341Y-97927102D01*
X94357986Y-98045630D01*
X94376493Y-98209882D01*
X94376493Y-98209884D01*
X94376494Y-98209885D01*
X94433407Y-98372535D01*
X94437026Y-98443440D01*
X94428007Y-98468806D01*
X94426715Y-98471489D01*
X94399243Y-98550000D01*
X94372123Y-98627505D01*
X94353616Y-98791757D01*
X94372123Y-98956009D01*
X94399749Y-99034959D01*
X94426715Y-99112024D01*
X94429787Y-99118404D01*
X94428528Y-99119010D01*
X94445728Y-99179884D01*
X94435770Y-99222520D01*
X94437295Y-99223054D01*
X94387704Y-99364777D01*
X94380366Y-99385748D01*
X94361859Y-99550000D01*
X94380366Y-99714252D01*
X94403964Y-99781692D01*
X94434959Y-99870270D01*
X94434994Y-99870343D01*
X94435002Y-99870394D01*
X94437295Y-99876946D01*
X94436146Y-99877347D01*
X94446522Y-99940397D01*
X94436966Y-99972939D01*
X94437295Y-99973054D01*
X94435043Y-99979488D01*
X94434994Y-99979657D01*
X94434959Y-99979729D01*
X94395809Y-100091615D01*
X94380366Y-100135748D01*
X94361859Y-100300000D01*
X94380366Y-100464252D01*
X94415358Y-100564252D01*
X94434959Y-100620270D01*
X94434994Y-100620343D01*
X94435002Y-100620394D01*
X94437295Y-100626946D01*
X94436146Y-100627347D01*
X94446522Y-100690397D01*
X94436966Y-100722939D01*
X94437295Y-100723054D01*
X94435043Y-100729488D01*
X94434994Y-100729657D01*
X94434959Y-100729729D01*
X94386686Y-100867686D01*
X94380366Y-100885748D01*
X94362494Y-101044361D01*
X94361859Y-101050000D01*
X94380366Y-101214252D01*
X94424959Y-101341692D01*
X94428577Y-101412596D01*
X94412721Y-101450334D01*
X94409960Y-101454728D01*
X94409959Y-101454729D01*
X94375157Y-101554185D01*
X94345323Y-101601663D01*
X94150852Y-101796135D01*
X94144651Y-101801573D01*
X94116011Y-101823551D01*
X94090460Y-101856848D01*
X94090440Y-101856876D01*
X94018477Y-101950659D01*
X94018475Y-101950662D01*
X93957162Y-102098686D01*
X93957161Y-102098687D01*
X93955984Y-102107632D01*
X93955806Y-102108987D01*
X93941500Y-102217652D01*
X93941500Y-102217657D01*
X93941500Y-102217658D01*
X93936250Y-102257536D01*
X93936250Y-102257537D01*
X93940960Y-102293316D01*
X93941500Y-102301548D01*
X93941500Y-102648451D01*
X93940960Y-102656682D01*
X93936250Y-102692461D01*
X93936250Y-102692464D01*
X93936710Y-102695961D01*
X93941500Y-102732342D01*
X93941500Y-102732348D01*
X93948032Y-102781962D01*
X93950003Y-102796934D01*
X93957161Y-102851312D01*
X94018475Y-102999337D01*
X94018480Y-102999345D01*
X94056120Y-103048397D01*
X94091523Y-103094535D01*
X94091525Y-103094537D01*
X94113287Y-103122898D01*
X94116014Y-103126451D01*
X94144651Y-103148425D01*
X94150844Y-103153856D01*
X94844767Y-103847778D01*
X95440736Y-104443747D01*
X95474761Y-104506059D01*
X95469697Y-104576874D01*
X95440737Y-104621937D01*
X95372897Y-104689777D01*
X95284959Y-104829730D01*
X95284958Y-104829732D01*
X95231087Y-104983687D01*
X95230366Y-104985748D01*
X95211859Y-105150000D01*
X95230366Y-105314252D01*
X95282862Y-105464276D01*
X95284958Y-105470267D01*
X95284959Y-105470269D01*
X95372897Y-105610223D01*
X95489776Y-105727102D01*
X95586920Y-105788141D01*
X95629733Y-105815042D01*
X95785748Y-105869634D01*
X95950000Y-105888141D01*
X96114252Y-105869634D01*
X96270267Y-105815042D01*
X96410223Y-105727102D01*
X96466861Y-105670464D01*
X96527102Y-105610224D01*
X96527102Y-105610223D01*
X96555491Y-105565042D01*
X96615042Y-105470267D01*
X96669634Y-105314252D01*
X96688141Y-105150000D01*
X96671082Y-104998604D01*
X96683331Y-104928676D01*
X96731444Y-104876468D01*
X96796290Y-104858500D01*
X97292442Y-104858500D01*
X97360563Y-104878502D01*
X97407056Y-104932158D01*
X97417649Y-104998606D01*
X97411859Y-105050000D01*
X97430366Y-105214252D01*
X97474382Y-105340042D01*
X97484958Y-105370267D01*
X97484959Y-105370269D01*
X97572897Y-105510223D01*
X97689776Y-105627102D01*
X97727818Y-105651005D01*
X97829733Y-105715042D01*
X97985748Y-105769634D01*
X98150000Y-105788141D01*
X98314252Y-105769634D01*
X98470267Y-105715042D01*
X98610223Y-105627102D01*
X98727102Y-105510223D01*
X98815042Y-105370267D01*
X98869634Y-105214252D01*
X98888141Y-105050000D01*
X98882350Y-104998606D01*
X98894599Y-104928676D01*
X98942712Y-104876468D01*
X99007558Y-104858500D01*
X100153447Y-104858500D01*
X100220483Y-104877813D01*
X100255534Y-104899837D01*
X100279733Y-104915042D01*
X100292264Y-104919426D01*
X100349956Y-104960803D01*
X100375858Y-105024244D01*
X100380366Y-105064252D01*
X100380366Y-105064254D01*
X100380367Y-105064255D01*
X100434958Y-105220267D01*
X100434959Y-105220269D01*
X100522897Y-105360223D01*
X100639776Y-105477102D01*
X100758081Y-105551437D01*
X100779733Y-105565042D01*
X100932117Y-105618363D01*
X100989807Y-105659740D01*
X101015969Y-105725740D01*
X101016500Y-105737291D01*
X101016500Y-107085835D01*
X100996498Y-107153956D01*
X100979595Y-107174930D01*
X99953917Y-108200607D01*
X99891605Y-108234633D01*
X99820789Y-108229568D01*
X99797786Y-108218200D01*
X99745932Y-108185618D01*
X99744086Y-108184458D01*
X99744085Y-108184457D01*
X99744084Y-108184457D01*
X99603380Y-108135223D01*
X99588071Y-108129866D01*
X99423819Y-108111359D01*
X99259567Y-108129866D01*
X99259564Y-108129866D01*
X99259564Y-108129867D01*
X99103551Y-108184458D01*
X99103549Y-108184459D01*
X98963595Y-108272397D01*
X98846716Y-108389276D01*
X98758778Y-108529230D01*
X98758777Y-108529232D01*
X98709472Y-108670139D01*
X98704185Y-108685248D01*
X98685678Y-108849500D01*
X98704185Y-109013752D01*
X98718747Y-109055367D01*
X98746443Y-109134520D01*
X98758777Y-109169767D01*
X98783151Y-109208558D01*
X98792519Y-109223467D01*
X98811824Y-109291789D01*
X98791128Y-109359702D01*
X98774926Y-109379598D01*
X94515779Y-113638746D01*
X94466641Y-113684638D01*
X94443311Y-113722998D01*
X94439683Y-113728329D01*
X94412549Y-113764113D01*
X94412548Y-113764115D01*
X94405873Y-113781041D01*
X94396319Y-113800277D01*
X94386869Y-113815817D01*
X94378226Y-113846664D01*
X94375200Y-113857467D01*
X94374756Y-113859050D01*
X94372699Y-113865165D01*
X94356226Y-113906941D01*
X94356226Y-113906943D01*
X94354366Y-113925034D01*
X94350356Y-113946136D01*
X94345449Y-113963651D01*
X94345449Y-114008546D01*
X94345118Y-114014994D01*
X94340525Y-114059660D01*
X94343617Y-114077589D01*
X94345449Y-114098997D01*
X94345449Y-114278541D01*
X94325447Y-114346662D01*
X94279419Y-114389354D01*
X94158379Y-114454858D01*
X94158373Y-114454862D01*
X93980711Y-114593142D01*
X93828228Y-114758780D01*
X93828224Y-114758785D01*
X93705090Y-114947257D01*
X93614652Y-115153437D01*
X93614651Y-115153438D01*
X93559386Y-115371675D01*
X93559385Y-115371681D01*
X93559385Y-115371683D01*
X93540793Y-115596051D01*
X93555447Y-115772898D01*
X93559386Y-115820426D01*
X93614651Y-116038663D01*
X93614652Y-116038664D01*
X93614653Y-116038667D01*
X93679167Y-116185745D01*
X93705090Y-116244844D01*
X93828224Y-116433316D01*
X93828228Y-116433321D01*
X93980711Y-116598959D01*
X94035280Y-116641432D01*
X94158373Y-116737240D01*
X94356375Y-116844393D01*
X94356376Y-116844393D01*
X94356377Y-116844394D01*
X94407173Y-116861832D01*
X94569314Y-116917495D01*
X94791380Y-116954551D01*
X94791384Y-116954551D01*
X95016514Y-116954551D01*
X95016518Y-116954551D01*
X95238584Y-116917495D01*
X95451523Y-116844393D01*
X95649525Y-116737240D01*
X95827189Y-116598957D01*
X95979671Y-116433319D01*
X96102809Y-116244842D01*
X96193245Y-116038667D01*
X96248513Y-115820419D01*
X96267105Y-115596051D01*
X96264833Y-115568633D01*
X96279140Y-115499094D01*
X96328772Y-115448328D01*
X96397971Y-115432455D01*
X96442742Y-115443613D01*
X96555266Y-115495001D01*
X96700000Y-115515810D01*
X96844734Y-115495001D01*
X96977743Y-115434258D01*
X97025172Y-115396038D01*
X98296038Y-114125172D01*
X98334258Y-114077743D01*
X98395001Y-113944734D01*
X98415810Y-113800000D01*
X98395001Y-113655266D01*
X98334258Y-113522257D01*
X98296038Y-113474828D01*
X98296031Y-113474821D01*
X98296023Y-113474812D01*
X98144619Y-113323408D01*
X98110593Y-113261096D01*
X98115658Y-113190281D01*
X98144617Y-113145220D01*
X98389837Y-112900000D01*
X102936859Y-112900000D01*
X102955366Y-113064252D01*
X103006284Y-113209768D01*
X103009958Y-113220267D01*
X103009959Y-113220269D01*
X103097897Y-113360223D01*
X103214776Y-113477102D01*
X103286639Y-113522256D01*
X103354733Y-113565042D01*
X103510748Y-113619634D01*
X103675000Y-113638141D01*
X103839252Y-113619634D01*
X103995267Y-113565042D01*
X103995334Y-113565000D01*
X109036844Y-113565000D01*
X109053343Y-113764115D01*
X109055437Y-113789375D01*
X109110702Y-114007612D01*
X109110703Y-114007613D01*
X109110704Y-114007616D01*
X109162275Y-114125187D01*
X109201141Y-114213793D01*
X109324275Y-114402265D01*
X109324279Y-114402270D01*
X109476762Y-114567908D01*
X109530068Y-114609398D01*
X109654424Y-114706189D01*
X109852426Y-114813342D01*
X109852427Y-114813342D01*
X109852428Y-114813343D01*
X109891342Y-114826702D01*
X110065365Y-114886444D01*
X110287431Y-114923500D01*
X110287435Y-114923500D01*
X110512565Y-114923500D01*
X110512569Y-114923500D01*
X110734635Y-114886444D01*
X110947574Y-114813342D01*
X111145576Y-114706189D01*
X111323240Y-114567906D01*
X111475722Y-114402268D01*
X111598860Y-114213791D01*
X111689296Y-114007616D01*
X111744564Y-113789368D01*
X111763156Y-113565000D01*
X111744564Y-113340632D01*
X111714084Y-113220269D01*
X111689297Y-113122387D01*
X111689296Y-113122386D01*
X111689296Y-113122384D01*
X111598860Y-112916209D01*
X111580375Y-112887915D01*
X111475724Y-112727734D01*
X111475719Y-112727729D01*
X111450192Y-112700000D01*
X111332524Y-112572179D01*
X111301103Y-112508514D01*
X111309090Y-112437968D01*
X111353948Y-112382939D01*
X111381183Y-112368789D01*
X111496204Y-112325889D01*
X111500200Y-112322898D01*
X111613261Y-112238261D01*
X111700887Y-112121207D01*
X111700887Y-112121206D01*
X111700889Y-112121204D01*
X111751989Y-111984201D01*
X111752402Y-111980367D01*
X111758499Y-111923649D01*
X111758500Y-111923632D01*
X111758500Y-110126367D01*
X111758499Y-110126350D01*
X111751990Y-110065803D01*
X111751988Y-110065795D01*
X111712512Y-109959958D01*
X111700889Y-109928796D01*
X111700888Y-109928794D01*
X111700887Y-109928792D01*
X111613261Y-109811738D01*
X111496207Y-109724112D01*
X111496202Y-109724110D01*
X111359204Y-109673011D01*
X111359196Y-109673009D01*
X111298649Y-109666500D01*
X111298638Y-109666500D01*
X109501362Y-109666500D01*
X109501350Y-109666500D01*
X109440803Y-109673009D01*
X109440795Y-109673011D01*
X109303797Y-109724110D01*
X109303792Y-109724112D01*
X109186738Y-109811738D01*
X109099112Y-109928792D01*
X109099110Y-109928797D01*
X109048011Y-110065795D01*
X109048009Y-110065803D01*
X109041500Y-110126350D01*
X109041500Y-111923649D01*
X109048009Y-111984196D01*
X109048011Y-111984204D01*
X109099110Y-112121202D01*
X109099112Y-112121207D01*
X109186738Y-112238261D01*
X109303791Y-112325886D01*
X109303792Y-112325886D01*
X109303796Y-112325889D01*
X109418810Y-112368787D01*
X109475642Y-112411332D01*
X109500453Y-112477852D01*
X109485362Y-112547226D01*
X109467475Y-112572179D01*
X109324280Y-112727729D01*
X109324275Y-112727734D01*
X109201141Y-112916206D01*
X109110703Y-113122386D01*
X109110702Y-113122387D01*
X109055437Y-113340624D01*
X109055436Y-113340630D01*
X109055436Y-113340632D01*
X109036844Y-113565000D01*
X103995334Y-113565000D01*
X104135223Y-113477102D01*
X104252102Y-113360223D01*
X104340042Y-113220267D01*
X104394634Y-113064252D01*
X104413141Y-112900000D01*
X104394634Y-112735748D01*
X104340042Y-112579733D01*
X104317987Y-112544632D01*
X104252102Y-112439776D01*
X104135223Y-112322897D01*
X103995269Y-112234959D01*
X103995267Y-112234958D01*
X103839252Y-112180366D01*
X103675000Y-112161859D01*
X103510748Y-112180366D01*
X103510745Y-112180366D01*
X103510745Y-112180367D01*
X103354732Y-112234958D01*
X103354730Y-112234959D01*
X103214776Y-112322897D01*
X103097897Y-112439776D01*
X103009959Y-112579730D01*
X103009958Y-112579732D01*
X103009958Y-112579733D01*
X102955366Y-112735748D01*
X102936859Y-112900000D01*
X98389837Y-112900000D01*
X100664837Y-110625000D01*
X104811859Y-110625000D01*
X104830366Y-110789252D01*
X104860238Y-110874621D01*
X104884958Y-110945267D01*
X104884959Y-110945269D01*
X104972897Y-111085223D01*
X105089776Y-111202102D01*
X105208081Y-111276437D01*
X105229733Y-111290042D01*
X105385748Y-111344634D01*
X105550000Y-111363141D01*
X105714252Y-111344634D01*
X105870267Y-111290042D01*
X106010223Y-111202102D01*
X106127102Y-111085223D01*
X106215042Y-110945267D01*
X106269634Y-110789252D01*
X106288141Y-110625000D01*
X106269634Y-110460748D01*
X106215042Y-110304733D01*
X106158519Y-110214777D01*
X106127102Y-110164776D01*
X106010223Y-110047897D01*
X105870269Y-109959959D01*
X105870267Y-109959958D01*
X105811098Y-109939254D01*
X105714252Y-109905366D01*
X105550000Y-109886859D01*
X105385748Y-109905366D01*
X105385745Y-109905366D01*
X105385745Y-109905367D01*
X105229732Y-109959958D01*
X105229730Y-109959959D01*
X105089776Y-110047897D01*
X104972897Y-110164776D01*
X104884959Y-110304730D01*
X104884958Y-110304732D01*
X104830367Y-110460745D01*
X104830366Y-110460748D01*
X104811859Y-110625000D01*
X100664837Y-110625000D01*
X103488169Y-107801668D01*
X103537308Y-107755776D01*
X103556022Y-107725000D01*
X109936859Y-107725000D01*
X109955366Y-107889252D01*
X109977565Y-107952693D01*
X110009958Y-108045267D01*
X110009959Y-108045269D01*
X110097897Y-108185223D01*
X110214776Y-108302102D01*
X110333081Y-108376437D01*
X110354733Y-108390042D01*
X110510748Y-108444634D01*
X110675000Y-108463141D01*
X110839252Y-108444634D01*
X110995267Y-108390042D01*
X111135223Y-108302102D01*
X111252102Y-108185223D01*
X111255812Y-108179317D01*
X111308989Y-108132280D01*
X111379156Y-108121459D01*
X111444035Y-108150290D01*
X111469186Y-108179315D01*
X111472418Y-108184459D01*
X111472901Y-108185227D01*
X111589776Y-108302102D01*
X111708081Y-108376437D01*
X111729733Y-108390042D01*
X111885748Y-108444634D01*
X112050000Y-108463141D01*
X112214252Y-108444634D01*
X112370267Y-108390042D01*
X112510223Y-108302102D01*
X112627102Y-108185223D01*
X112715042Y-108045267D01*
X112769634Y-107889252D01*
X112788141Y-107725000D01*
X112769634Y-107560748D01*
X112715042Y-107404733D01*
X112683625Y-107354733D01*
X112627102Y-107264776D01*
X112510223Y-107147897D01*
X112472986Y-107124500D01*
X115227359Y-107124500D01*
X115245866Y-107288752D01*
X115288371Y-107410223D01*
X115300458Y-107444767D01*
X115300459Y-107444769D01*
X115388397Y-107584723D01*
X115505276Y-107701602D01*
X115623581Y-107775937D01*
X115645233Y-107789542D01*
X115801248Y-107844134D01*
X115965500Y-107862641D01*
X116129752Y-107844134D01*
X116285767Y-107789542D01*
X116425723Y-107701602D01*
X116542602Y-107584723D01*
X116627254Y-107450000D01*
X124369534Y-107450000D01*
X124389312Y-107600234D01*
X124447301Y-107740231D01*
X124447306Y-107740239D01*
X124539548Y-107860451D01*
X124659760Y-107952693D01*
X124659767Y-107952698D01*
X124799764Y-108010687D01*
X124912280Y-108025500D01*
X124912287Y-108025500D01*
X124987713Y-108025500D01*
X124987720Y-108025500D01*
X125100236Y-108010687D01*
X125240233Y-107952698D01*
X125360451Y-107860451D01*
X125452698Y-107740233D01*
X125510687Y-107600236D01*
X125530466Y-107450000D01*
X125524506Y-107404733D01*
X125517169Y-107348999D01*
X125510687Y-107299764D01*
X125452698Y-107159767D01*
X125441086Y-107144634D01*
X125360451Y-107039548D01*
X125240239Y-106947306D01*
X125240231Y-106947301D01*
X125100234Y-106889312D01*
X124987722Y-106874500D01*
X124987720Y-106874500D01*
X124912280Y-106874500D01*
X124912277Y-106874500D01*
X124799765Y-106889312D01*
X124659768Y-106947301D01*
X124659760Y-106947306D01*
X124539548Y-107039548D01*
X124447306Y-107159760D01*
X124447301Y-107159768D01*
X124389312Y-107299765D01*
X124369534Y-107449999D01*
X124369534Y-107450000D01*
X116627254Y-107450000D01*
X116630542Y-107444767D01*
X116685134Y-107288752D01*
X116703641Y-107124500D01*
X116685134Y-106960248D01*
X116630542Y-106804233D01*
X116589633Y-106739126D01*
X116542602Y-106664276D01*
X116425723Y-106547397D01*
X116285769Y-106459459D01*
X116285767Y-106459458D01*
X116265053Y-106452210D01*
X116129752Y-106404866D01*
X115965500Y-106386359D01*
X115801248Y-106404866D01*
X115801245Y-106404866D01*
X115801245Y-106404867D01*
X115645232Y-106459458D01*
X115645230Y-106459459D01*
X115505276Y-106547397D01*
X115388397Y-106664276D01*
X115300459Y-106804230D01*
X115300458Y-106804232D01*
X115266889Y-106900167D01*
X115245866Y-106960248D01*
X115227359Y-107124500D01*
X112472986Y-107124500D01*
X112370269Y-107059959D01*
X112370267Y-107059958D01*
X112311941Y-107039549D01*
X112214252Y-107005366D01*
X112050000Y-106986859D01*
X111885748Y-107005366D01*
X111885745Y-107005366D01*
X111885745Y-107005367D01*
X111729732Y-107059958D01*
X111729730Y-107059959D01*
X111589776Y-107147897D01*
X111472899Y-107264774D01*
X111472898Y-107264776D01*
X111469186Y-107270684D01*
X111416007Y-107317721D01*
X111345839Y-107328540D01*
X111280962Y-107299706D01*
X111255814Y-107270684D01*
X111252101Y-107264776D01*
X111252100Y-107264774D01*
X111135223Y-107147897D01*
X110995269Y-107059959D01*
X110995267Y-107059958D01*
X110936941Y-107039549D01*
X110839252Y-107005366D01*
X110675000Y-106986859D01*
X110510748Y-107005366D01*
X110510745Y-107005366D01*
X110510745Y-107005367D01*
X110354732Y-107059958D01*
X110354730Y-107059959D01*
X110214776Y-107147897D01*
X110097897Y-107264776D01*
X110009959Y-107404730D01*
X110009958Y-107404732D01*
X109967139Y-107527102D01*
X109955366Y-107560748D01*
X109936859Y-107725000D01*
X103556022Y-107725000D01*
X103560638Y-107717409D01*
X103564268Y-107712077D01*
X103591400Y-107676300D01*
X103598070Y-107659382D01*
X103607627Y-107640140D01*
X103617079Y-107624599D01*
X103629194Y-107581356D01*
X103631248Y-107575250D01*
X103636968Y-107560745D01*
X103647722Y-107533476D01*
X103649582Y-107515378D01*
X103653594Y-107494271D01*
X103658500Y-107476764D01*
X103658500Y-107431867D01*
X103658831Y-107425419D01*
X103663423Y-107380753D01*
X103660332Y-107362823D01*
X103658500Y-107341416D01*
X103658500Y-106790240D01*
X103667285Y-106744015D01*
X103672722Y-106730229D01*
X103674581Y-106712136D01*
X103678595Y-106691019D01*
X103683500Y-106673516D01*
X103683500Y-106628611D01*
X103683831Y-106622163D01*
X103684337Y-106617246D01*
X103686487Y-106596331D01*
X103688422Y-106577506D01*
X103685332Y-106559582D01*
X103683500Y-106538175D01*
X103683500Y-106242932D01*
X103703502Y-106174811D01*
X103757158Y-106128318D01*
X103827432Y-106118214D01*
X103892012Y-106147708D01*
X103930396Y-106207434D01*
X103934706Y-106228817D01*
X103945688Y-106326278D01*
X103989754Y-106452210D01*
X104000280Y-106482293D01*
X104000281Y-106482295D01*
X104088219Y-106622249D01*
X104205098Y-106739128D01*
X104279294Y-106785748D01*
X104345055Y-106827068D01*
X104501070Y-106881660D01*
X104665322Y-106900167D01*
X104829574Y-106881660D01*
X104985589Y-106827068D01*
X105125545Y-106739128D01*
X105184339Y-106680334D01*
X105247428Y-106617246D01*
X105249065Y-106618883D01*
X105298168Y-106584401D01*
X105369105Y-106581488D01*
X105430356Y-106617389D01*
X105445284Y-106636702D01*
X105522900Y-106760226D01*
X105639776Y-106877102D01*
X105731854Y-106934958D01*
X105779733Y-106965042D01*
X105935748Y-107019634D01*
X106100000Y-107038141D01*
X106264252Y-107019634D01*
X106420267Y-106965042D01*
X106560223Y-106877102D01*
X106575667Y-106861657D01*
X106637977Y-106827632D01*
X106708793Y-106832695D01*
X106765629Y-106875241D01*
X106771450Y-106883715D01*
X106772398Y-106885224D01*
X106889276Y-107002102D01*
X106971963Y-107054057D01*
X107029233Y-107090042D01*
X107185248Y-107144634D01*
X107349500Y-107163141D01*
X107513752Y-107144634D01*
X107669767Y-107090042D01*
X107809723Y-107002102D01*
X107926602Y-106885223D01*
X108014542Y-106745267D01*
X108069134Y-106589252D01*
X108087641Y-106425000D01*
X108069134Y-106260748D01*
X108014542Y-106104733D01*
X108000937Y-106083081D01*
X107926602Y-105964776D01*
X107809723Y-105847897D01*
X107669769Y-105759959D01*
X107669767Y-105759958D01*
X107604988Y-105737291D01*
X107513752Y-105705366D01*
X107349500Y-105686859D01*
X107185248Y-105705366D01*
X107185245Y-105705366D01*
X107185245Y-105705367D01*
X107029232Y-105759958D01*
X106979415Y-105791260D01*
X106911094Y-105810565D01*
X106843181Y-105789869D01*
X106797238Y-105735742D01*
X106787172Y-105670467D01*
X106800391Y-105553151D01*
X106781884Y-105388899D01*
X106727292Y-105232884D01*
X106721255Y-105223276D01*
X106701948Y-105154959D01*
X106709012Y-105114624D01*
X106709531Y-105113141D01*
X106744134Y-105014252D01*
X106762641Y-104850000D01*
X106744134Y-104685748D01*
X106689542Y-104529733D01*
X106632813Y-104439449D01*
X106601602Y-104389776D01*
X106484723Y-104272897D01*
X106344769Y-104184959D01*
X106344767Y-104184958D01*
X106308607Y-104172305D01*
X106188752Y-104130366D01*
X106024500Y-104111859D01*
X105860248Y-104130366D01*
X105860245Y-104130366D01*
X105860245Y-104130367D01*
X105704232Y-104184958D01*
X105704230Y-104184959D01*
X105564276Y-104272897D01*
X105447397Y-104389776D01*
X105359459Y-104529730D01*
X105359458Y-104529732D01*
X105304866Y-104685745D01*
X105304865Y-104685752D01*
X105300457Y-104724872D01*
X105272953Y-104790324D01*
X105214428Y-104830516D01*
X105143465Y-104832687D01*
X105082593Y-104796148D01*
X105077288Y-104789962D01*
X104960223Y-104672897D01*
X104820269Y-104584959D01*
X104820267Y-104584958D01*
X104770929Y-104567694D01*
X104664252Y-104530366D01*
X104500000Y-104511859D01*
X104335748Y-104530366D01*
X104335745Y-104530366D01*
X104335745Y-104530367D01*
X104179734Y-104584957D01*
X104179731Y-104584959D01*
X104155794Y-104600000D01*
X104154285Y-104600948D01*
X104085964Y-104620253D01*
X104020215Y-104600948D01*
X103994767Y-104584958D01*
X103994766Y-104584957D01*
X103994765Y-104584957D01*
X103838754Y-104530366D01*
X103838748Y-104530365D01*
X103795389Y-104525479D01*
X103729937Y-104497974D01*
X103689746Y-104439449D01*
X103683500Y-104400272D01*
X103683500Y-103462787D01*
X103683989Y-103448463D01*
X103685795Y-103395597D01*
X103675161Y-103351960D01*
X103673960Y-103345641D01*
X103667846Y-103301151D01*
X103660598Y-103284465D01*
X103653751Y-103264102D01*
X103649446Y-103246434D01*
X103645703Y-103239777D01*
X103627441Y-103207298D01*
X103624569Y-103201517D01*
X103606682Y-103160337D01*
X103606678Y-103160330D01*
X103595203Y-103146226D01*
X103583113Y-103128462D01*
X103574200Y-103112610D01*
X103542446Y-103080856D01*
X103538130Y-103076073D01*
X103509793Y-103041242D01*
X103509790Y-103041239D01*
X103494928Y-103030748D01*
X103478495Y-103016905D01*
X103306391Y-102844801D01*
X103272365Y-102782489D01*
X103277430Y-102711674D01*
X103319977Y-102654838D01*
X103340830Y-102642178D01*
X103345259Y-102640044D01*
X103345267Y-102640042D01*
X103479707Y-102555567D01*
X103548024Y-102536263D01*
X103615938Y-102556958D01*
X103635835Y-102573161D01*
X103639776Y-102577102D01*
X103758081Y-102651437D01*
X103779733Y-102665042D01*
X103935748Y-102719634D01*
X104100000Y-102738141D01*
X104264252Y-102719634D01*
X104420267Y-102665042D01*
X104560223Y-102577102D01*
X104677102Y-102460223D01*
X104765042Y-102320267D01*
X104819634Y-102164252D01*
X104826639Y-102102073D01*
X104854141Y-102036621D01*
X104862744Y-102027092D01*
X104873409Y-102016427D01*
X104935723Y-101982406D01*
X105006538Y-101987474D01*
X105051595Y-102016433D01*
X105087246Y-102052084D01*
X105121272Y-102114396D01*
X105123358Y-102127069D01*
X105130364Y-102189243D01*
X105130367Y-102189257D01*
X105184958Y-102345267D01*
X105184959Y-102345269D01*
X105272897Y-102485223D01*
X105389776Y-102602102D01*
X105501436Y-102672262D01*
X105529733Y-102690042D01*
X105685748Y-102744634D01*
X105850000Y-102763141D01*
X106014252Y-102744634D01*
X106170267Y-102690042D01*
X106310223Y-102602102D01*
X106427102Y-102485223D01*
X106515042Y-102345267D01*
X106569634Y-102189252D01*
X106588141Y-102025000D01*
X106569634Y-101860748D01*
X106515042Y-101704733D01*
X106496359Y-101674999D01*
X106427102Y-101564776D01*
X106310225Y-101447899D01*
X106310222Y-101447897D01*
X106253812Y-101412452D01*
X108768941Y-101412452D01*
X108787448Y-101576704D01*
X108831464Y-101702494D01*
X108842040Y-101732719D01*
X108842041Y-101732721D01*
X108929979Y-101872675D01*
X109046858Y-101989554D01*
X109124183Y-102038140D01*
X109186815Y-102077494D01*
X109342830Y-102132086D01*
X109507082Y-102150593D01*
X109671334Y-102132086D01*
X109827349Y-102077494D01*
X109967305Y-101989554D01*
X110084184Y-101872675D01*
X110172124Y-101732719D01*
X110226716Y-101576704D01*
X110245223Y-101412452D01*
X110226716Y-101248200D01*
X110172124Y-101092185D01*
X110155068Y-101065040D01*
X110084184Y-100952228D01*
X109967305Y-100835349D01*
X109827351Y-100747411D01*
X109827349Y-100747410D01*
X109776822Y-100729730D01*
X109671334Y-100692818D01*
X109507082Y-100674311D01*
X109342830Y-100692818D01*
X109342827Y-100692818D01*
X109342827Y-100692819D01*
X109186814Y-100747410D01*
X109186812Y-100747411D01*
X109046858Y-100835349D01*
X108929979Y-100952228D01*
X108842041Y-101092182D01*
X108842040Y-101092184D01*
X108813780Y-101172947D01*
X108787448Y-101248200D01*
X108768941Y-101412452D01*
X106253812Y-101412452D01*
X106178554Y-101365164D01*
X106131516Y-101311985D01*
X106120696Y-101241818D01*
X106138901Y-101191444D01*
X106215042Y-101070267D01*
X106269634Y-100914252D01*
X106288141Y-100750000D01*
X106269634Y-100585748D01*
X106215042Y-100429733D01*
X106196360Y-100400000D01*
X111541859Y-100400000D01*
X111560366Y-100564252D01*
X111614958Y-100720266D01*
X111614958Y-100720267D01*
X111614959Y-100720269D01*
X111702897Y-100860223D01*
X111819776Y-100977102D01*
X111886632Y-101019110D01*
X111959733Y-101065042D01*
X112115748Y-101119634D01*
X112280000Y-101138141D01*
X112444252Y-101119634D01*
X112600267Y-101065042D01*
X112740223Y-100977102D01*
X112857102Y-100860223D01*
X112945042Y-100720267D01*
X112999634Y-100564252D01*
X113018141Y-100400000D01*
X112999634Y-100235748D01*
X112949198Y-100091612D01*
X112945579Y-100020711D01*
X112949193Y-100008402D01*
X112999634Y-99864252D01*
X113018141Y-99700000D01*
X112999634Y-99535748D01*
X112945042Y-99379733D01*
X112901694Y-99310745D01*
X112857102Y-99239776D01*
X112740223Y-99122897D01*
X112600269Y-99034959D01*
X112600267Y-99034958D01*
X112539761Y-99013786D01*
X112444252Y-98980366D01*
X112280000Y-98961859D01*
X112115748Y-98980366D01*
X112115745Y-98980366D01*
X112115745Y-98980367D01*
X111959732Y-99034958D01*
X111959730Y-99034959D01*
X111819776Y-99122897D01*
X111702897Y-99239776D01*
X111614959Y-99379730D01*
X111614958Y-99379732D01*
X111576636Y-99489252D01*
X111560366Y-99535748D01*
X111541859Y-99700000D01*
X111560366Y-99864252D01*
X111562515Y-99870394D01*
X111610800Y-100008385D01*
X111614419Y-100079289D01*
X111610800Y-100091615D01*
X111580457Y-100178331D01*
X111560366Y-100235748D01*
X111541859Y-100400000D01*
X106196360Y-100400000D01*
X106167793Y-100354536D01*
X106148487Y-100286215D01*
X106167793Y-100220464D01*
X106182912Y-100196402D01*
X106215042Y-100145267D01*
X106269634Y-99989252D01*
X106288141Y-99825000D01*
X106269634Y-99660748D01*
X106215042Y-99504733D01*
X106189734Y-99464455D01*
X106167793Y-99429536D01*
X106148487Y-99361215D01*
X106167793Y-99295464D01*
X106185366Y-99267496D01*
X106215042Y-99220267D01*
X106269634Y-99064252D01*
X106288141Y-98900000D01*
X106269634Y-98735748D01*
X106215042Y-98579733D01*
X106196360Y-98550000D01*
X106127102Y-98439776D01*
X106010223Y-98322897D01*
X105870269Y-98234959D01*
X105870268Y-98234958D01*
X105870267Y-98234958D01*
X105805740Y-98212379D01*
X105782884Y-98204381D01*
X105725193Y-98163002D01*
X105699030Y-98097002D01*
X105698500Y-98085452D01*
X105698500Y-97350000D01*
X106136859Y-97350000D01*
X106155366Y-97514252D01*
X106175387Y-97571468D01*
X106209958Y-97670267D01*
X106209959Y-97670269D01*
X106297897Y-97810223D01*
X106414776Y-97927102D01*
X106487659Y-97972897D01*
X106554733Y-98015042D01*
X106710748Y-98069634D01*
X106875000Y-98088141D01*
X107039252Y-98069634D01*
X107195267Y-98015042D01*
X107335223Y-97927102D01*
X107452102Y-97810223D01*
X107521360Y-97700000D01*
X112261859Y-97700000D01*
X112280366Y-97864252D01*
X112320774Y-97979732D01*
X112334958Y-98020267D01*
X112334959Y-98020269D01*
X112422897Y-98160223D01*
X112539776Y-98277102D01*
X112658081Y-98351437D01*
X112679733Y-98365042D01*
X112835748Y-98419634D01*
X113000000Y-98438141D01*
X113164252Y-98419634D01*
X113320267Y-98365042D01*
X113460223Y-98277102D01*
X113577102Y-98160223D01*
X113665042Y-98020267D01*
X113719634Y-97864252D01*
X113738141Y-97700000D01*
X113719634Y-97535748D01*
X113665042Y-97379733D01*
X113607880Y-97288760D01*
X113577102Y-97239776D01*
X113460223Y-97122897D01*
X113320269Y-97034959D01*
X113320267Y-97034958D01*
X113292463Y-97025229D01*
X113164252Y-96980366D01*
X113000000Y-96961859D01*
X112835748Y-96980366D01*
X112835745Y-96980366D01*
X112835745Y-96980367D01*
X112679732Y-97034958D01*
X112679730Y-97034959D01*
X112539776Y-97122897D01*
X112422897Y-97239776D01*
X112334959Y-97379730D01*
X112334958Y-97379732D01*
X112304808Y-97465896D01*
X112280366Y-97535748D01*
X112261859Y-97700000D01*
X107521360Y-97700000D01*
X107540042Y-97670267D01*
X107594634Y-97514252D01*
X107613141Y-97350000D01*
X107594634Y-97185748D01*
X107540042Y-97029733D01*
X107526437Y-97008081D01*
X107452102Y-96889776D01*
X107335223Y-96772897D01*
X107195269Y-96684959D01*
X107195267Y-96684958D01*
X107119400Y-96658411D01*
X107039252Y-96630366D01*
X106875000Y-96611859D01*
X106710748Y-96630366D01*
X106710745Y-96630366D01*
X106710745Y-96630367D01*
X106554732Y-96684958D01*
X106554730Y-96684959D01*
X106414776Y-96772897D01*
X106297897Y-96889776D01*
X106209959Y-97029730D01*
X106209958Y-97029732D01*
X106177358Y-97122898D01*
X106155366Y-97185748D01*
X106136859Y-97350000D01*
X105698500Y-97350000D01*
X105698500Y-95281706D01*
X105718502Y-95213585D01*
X105772158Y-95167092D01*
X105842432Y-95156988D01*
X105891536Y-95175019D01*
X105910179Y-95186733D01*
X105955233Y-95215042D01*
X106111248Y-95269634D01*
X106275500Y-95288141D01*
X106439752Y-95269634D01*
X106595767Y-95215042D01*
X106735723Y-95127102D01*
X106852602Y-95010223D01*
X106940542Y-94870267D01*
X106995134Y-94714252D01*
X107013641Y-94550000D01*
X106995134Y-94385748D01*
X106940542Y-94229733D01*
X106914408Y-94188141D01*
X106852602Y-94089776D01*
X106765883Y-94003057D01*
X106731857Y-93940745D01*
X106736922Y-93869930D01*
X106748292Y-93846924D01*
X106754115Y-93837657D01*
X106765042Y-93820267D01*
X106817751Y-93669634D01*
X106818363Y-93667885D01*
X106859741Y-93610193D01*
X106925742Y-93584031D01*
X106937292Y-93583500D01*
X111420301Y-93583500D01*
X111488422Y-93603502D01*
X111509396Y-93620405D01*
X115115439Y-97226448D01*
X115149465Y-97288760D01*
X115144400Y-97359575D01*
X115101853Y-97416411D01*
X115040453Y-97440751D01*
X114974774Y-97448151D01*
X114910748Y-97455366D01*
X114910745Y-97455366D01*
X114910744Y-97455367D01*
X114754732Y-97509958D01*
X114754730Y-97509959D01*
X114614776Y-97597897D01*
X114497897Y-97714776D01*
X114409959Y-97854730D01*
X114409958Y-97854732D01*
X114357994Y-98003238D01*
X114355366Y-98010748D01*
X114336859Y-98175000D01*
X114355366Y-98339252D01*
X114389969Y-98438141D01*
X114409958Y-98495267D01*
X114409959Y-98495269D01*
X114497897Y-98635223D01*
X114614776Y-98752102D01*
X114733081Y-98826437D01*
X114754733Y-98840042D01*
X114910748Y-98894634D01*
X115075000Y-98913141D01*
X115239252Y-98894634D01*
X115395267Y-98840042D01*
X115535223Y-98752102D01*
X115652102Y-98635223D01*
X115740042Y-98495267D01*
X115794634Y-98339252D01*
X115809248Y-98209543D01*
X115836750Y-98144095D01*
X115895274Y-98103902D01*
X115966237Y-98101729D01*
X116023550Y-98134560D01*
X116977160Y-99088169D01*
X117023049Y-99137305D01*
X117023051Y-99137306D01*
X117023053Y-99137308D01*
X117061418Y-99160639D01*
X117066741Y-99164262D01*
X117078921Y-99173498D01*
X117102526Y-99191399D01*
X117102527Y-99191399D01*
X117102528Y-99191400D01*
X117119446Y-99198071D01*
X117138695Y-99207631D01*
X117154230Y-99217079D01*
X117197476Y-99229195D01*
X117203567Y-99231244D01*
X117245353Y-99247722D01*
X117252708Y-99248478D01*
X117263445Y-99249582D01*
X117284558Y-99253595D01*
X117300860Y-99258162D01*
X117302065Y-99258500D01*
X117346961Y-99258500D01*
X117353409Y-99258831D01*
X117398074Y-99263423D01*
X117398074Y-99263422D01*
X117398076Y-99263423D01*
X117416003Y-99260332D01*
X117437411Y-99258500D01*
X119439962Y-99258500D01*
X119507152Y-99260795D01*
X119550775Y-99250164D01*
X119557114Y-99248960D01*
X119560610Y-99248479D01*
X119601598Y-99242846D01*
X119618280Y-99235599D01*
X119638644Y-99228751D01*
X119656315Y-99224446D01*
X119695467Y-99202430D01*
X119701224Y-99199571D01*
X119741014Y-99182288D01*
X119811463Y-99173498D01*
X119875483Y-99204190D01*
X119912746Y-99264621D01*
X119917209Y-99297859D01*
X119917209Y-102781962D01*
X119897207Y-102850083D01*
X119843551Y-102896576D01*
X119774881Y-102906449D01*
X119774858Y-102906659D01*
X119774053Y-102906568D01*
X119773277Y-102906680D01*
X119770544Y-102906172D01*
X119603575Y-102887359D01*
X119439323Y-102905866D01*
X119439320Y-102905866D01*
X119439320Y-102905867D01*
X119283309Y-102960457D01*
X119149030Y-103044830D01*
X119080708Y-103064135D01*
X119012795Y-103043439D01*
X119005368Y-103038054D01*
X118864588Y-102949597D01*
X118864586Y-102949596D01*
X118708571Y-102895004D01*
X118544319Y-102876497D01*
X118380067Y-102895004D01*
X118380064Y-102895004D01*
X118380064Y-102895005D01*
X118217373Y-102951933D01*
X118216879Y-102950523D01*
X118154796Y-102960744D01*
X118128572Y-102954616D01*
X117989252Y-102905866D01*
X117825000Y-102887359D01*
X117660748Y-102905866D01*
X117660745Y-102905866D01*
X117660745Y-102905867D01*
X117504732Y-102960458D01*
X117504730Y-102960459D01*
X117364776Y-103048397D01*
X117247897Y-103165276D01*
X117159959Y-103305229D01*
X117126829Y-103399910D01*
X117085451Y-103457601D01*
X117019450Y-103483763D01*
X116993793Y-103483502D01*
X116927796Y-103476066D01*
X116763544Y-103494573D01*
X116763542Y-103494573D01*
X116763539Y-103494574D01*
X116667567Y-103528155D01*
X116596662Y-103531773D01*
X116584338Y-103528154D01*
X116488367Y-103494573D01*
X116442742Y-103478608D01*
X116278490Y-103460101D01*
X116114238Y-103478608D01*
X116114235Y-103478608D01*
X116114235Y-103478609D01*
X115958222Y-103533200D01*
X115958220Y-103533201D01*
X115818266Y-103621139D01*
X115701387Y-103738018D01*
X115613449Y-103877972D01*
X115573099Y-103993283D01*
X115531720Y-104050975D01*
X115502146Y-104067125D01*
X115502314Y-104067473D01*
X115495941Y-104070541D01*
X115405820Y-104127168D01*
X115337499Y-104146473D01*
X115269586Y-104125777D01*
X115232098Y-104087517D01*
X115202102Y-104039777D01*
X115202101Y-104039776D01*
X115202100Y-104039774D01*
X115085223Y-103922897D01*
X114945269Y-103834959D01*
X114945267Y-103834958D01*
X114910801Y-103822898D01*
X114789252Y-103780366D01*
X114625000Y-103761859D01*
X114624998Y-103761859D01*
X114537350Y-103771734D01*
X114467419Y-103759484D01*
X114434151Y-103735623D01*
X114368371Y-103669843D01*
X114368370Y-103669842D01*
X114368369Y-103669841D01*
X114228417Y-103581904D01*
X114228415Y-103581903D01*
X114182801Y-103565942D01*
X114072400Y-103527311D01*
X113908148Y-103508804D01*
X113743896Y-103527311D01*
X113743893Y-103527311D01*
X113743893Y-103527312D01*
X113587880Y-103581903D01*
X113587878Y-103581904D01*
X113447928Y-103669840D01*
X113415619Y-103702148D01*
X113353306Y-103736171D01*
X113312422Y-103738258D01*
X113300003Y-103736859D01*
X113300001Y-103736859D01*
X113300000Y-103736859D01*
X113135748Y-103755366D01*
X113135745Y-103755366D01*
X113135745Y-103755367D01*
X112979732Y-103809958D01*
X112979731Y-103809958D01*
X112919541Y-103847778D01*
X112851220Y-103867083D01*
X112783307Y-103846387D01*
X112737364Y-103792259D01*
X112733587Y-103782733D01*
X112715042Y-103729733D01*
X112696479Y-103700190D01*
X112627102Y-103589776D01*
X112510223Y-103472897D01*
X112370269Y-103384959D01*
X112370267Y-103384958D01*
X112344924Y-103376090D01*
X112214252Y-103330366D01*
X112050000Y-103311859D01*
X111885748Y-103330366D01*
X111885745Y-103330366D01*
X111885745Y-103330367D01*
X111729732Y-103384958D01*
X111729730Y-103384959D01*
X111589776Y-103472897D01*
X111472897Y-103589776D01*
X111384959Y-103729730D01*
X111384958Y-103729732D01*
X111352358Y-103822898D01*
X111330366Y-103885748D01*
X111311859Y-104050000D01*
X111330366Y-104214252D01*
X111372210Y-104333836D01*
X111384958Y-104370267D01*
X111384959Y-104370269D01*
X111472897Y-104510223D01*
X111589776Y-104627102D01*
X111671753Y-104678611D01*
X111729733Y-104715042D01*
X111885748Y-104769634D01*
X112050000Y-104788141D01*
X112214252Y-104769634D01*
X112370267Y-104715042D01*
X112430458Y-104677221D01*
X112498777Y-104657916D01*
X112566691Y-104678611D01*
X112612634Y-104732738D01*
X112616421Y-104742292D01*
X112632464Y-104788140D01*
X112634958Y-104795267D01*
X112634959Y-104795269D01*
X112722897Y-104935223D01*
X112839776Y-105052102D01*
X112936920Y-105113141D01*
X112979733Y-105140042D01*
X113135748Y-105194634D01*
X113300000Y-105213141D01*
X113464252Y-105194634D01*
X113620267Y-105140042D01*
X113760223Y-105052102D01*
X113792525Y-105019799D01*
X113854836Y-104985774D01*
X113895732Y-104983687D01*
X113897587Y-104983895D01*
X113908148Y-104985086D01*
X113995797Y-104975209D01*
X114065725Y-104987458D01*
X114098994Y-105011319D01*
X114137674Y-105049999D01*
X114164778Y-105077103D01*
X114216825Y-105109806D01*
X114304733Y-105165042D01*
X114460748Y-105219634D01*
X114625000Y-105238141D01*
X114789252Y-105219634D01*
X114945267Y-105165042D01*
X115035387Y-105108415D01*
X115103704Y-105089111D01*
X115171617Y-105109806D01*
X115209107Y-105148067D01*
X115239107Y-105195811D01*
X115355983Y-105312687D01*
X115447622Y-105370267D01*
X115495940Y-105400627D01*
X115651955Y-105455219D01*
X115816207Y-105473726D01*
X115980459Y-105455219D01*
X116136474Y-105400627D01*
X116276430Y-105312687D01*
X116393309Y-105195808D01*
X116481249Y-105055852D01*
X116508464Y-104978074D01*
X116549842Y-104920383D01*
X116615842Y-104894221D01*
X116669005Y-104900760D01*
X116763544Y-104933841D01*
X116927796Y-104952348D01*
X117092048Y-104933841D01*
X117248063Y-104879249D01*
X117388019Y-104791309D01*
X117504898Y-104674430D01*
X117592838Y-104534474D01*
X117625967Y-104439797D01*
X117667345Y-104382105D01*
X117733345Y-104355943D01*
X117758994Y-104356203D01*
X117825000Y-104363641D01*
X117989252Y-104345134D01*
X118145267Y-104290542D01*
X118145266Y-104290542D01*
X118151946Y-104288205D01*
X118152439Y-104289615D01*
X118214513Y-104279393D01*
X118240747Y-104285522D01*
X118254311Y-104290268D01*
X118380067Y-104334272D01*
X118544319Y-104352779D01*
X118708571Y-104334272D01*
X118864586Y-104279680D01*
X118998863Y-104195307D01*
X119067184Y-104176002D01*
X119135097Y-104196697D01*
X119142530Y-104202086D01*
X119211407Y-104245364D01*
X119283308Y-104290542D01*
X119439323Y-104345134D01*
X119603575Y-104363641D01*
X119767827Y-104345134D01*
X119923842Y-104290542D01*
X119924168Y-104290337D01*
X119924409Y-104290268D01*
X119930222Y-104287470D01*
X119930711Y-104288487D01*
X119992485Y-104271027D01*
X120060400Y-104291718D01*
X120106347Y-104345842D01*
X120117209Y-104397021D01*
X120117209Y-105066965D01*
X120097207Y-105135086D01*
X120043551Y-105181579D01*
X119977102Y-105192173D01*
X119925500Y-105186359D01*
X119761248Y-105204866D01*
X119761245Y-105204866D01*
X119761245Y-105204867D01*
X119605232Y-105259458D01*
X119605230Y-105259459D01*
X119465276Y-105347397D01*
X119348397Y-105464276D01*
X119260459Y-105604230D01*
X119260458Y-105604232D01*
X119221684Y-105715042D01*
X119205866Y-105760248D01*
X119187359Y-105924500D01*
X119205866Y-106088752D01*
X119205867Y-106088754D01*
X119260458Y-106244767D01*
X119260459Y-106244769D01*
X119348397Y-106384723D01*
X119465276Y-106501602D01*
X119540642Y-106548957D01*
X119605233Y-106589542D01*
X119761248Y-106644134D01*
X119925500Y-106662641D01*
X119931028Y-106662018D01*
X120000960Y-106674264D01*
X120053170Y-106722375D01*
X120064069Y-106745610D01*
X120110667Y-106878778D01*
X120110668Y-106878780D01*
X120198606Y-107018734D01*
X120315485Y-107135613D01*
X120398204Y-107187588D01*
X120455442Y-107223553D01*
X120611457Y-107278145D01*
X120775709Y-107296652D01*
X120939961Y-107278145D01*
X121095976Y-107223553D01*
X121235932Y-107135613D01*
X121352811Y-107018734D01*
X121440751Y-106878778D01*
X121495343Y-106722763D01*
X121513850Y-106558511D01*
X121495343Y-106394259D01*
X121441279Y-106239755D01*
X121434209Y-106198141D01*
X121434209Y-105449703D01*
X121454211Y-105381582D01*
X121507867Y-105335089D01*
X121546097Y-105324496D01*
X121589252Y-105319634D01*
X121745267Y-105265042D01*
X121885223Y-105177102D01*
X122002102Y-105060223D01*
X122090042Y-104920267D01*
X122144634Y-104764252D01*
X122163141Y-104600000D01*
X122144634Y-104435748D01*
X122121629Y-104370003D01*
X122716620Y-104370003D01*
X122736090Y-104567694D01*
X122736091Y-104567700D01*
X122736092Y-104567701D01*
X122793759Y-104757804D01*
X122887405Y-104933004D01*
X123013432Y-105086568D01*
X123166996Y-105212595D01*
X123342196Y-105306241D01*
X123532299Y-105363908D01*
X123532303Y-105363908D01*
X123532305Y-105363909D01*
X123616513Y-105372202D01*
X123680453Y-105378500D01*
X123680462Y-105378500D01*
X124879538Y-105378500D01*
X124879547Y-105378500D01*
X124963761Y-105370205D01*
X125027694Y-105363909D01*
X125027695Y-105363908D01*
X125027701Y-105363908D01*
X125217804Y-105306241D01*
X125393004Y-105212595D01*
X125546568Y-105086568D01*
X125672595Y-104933004D01*
X125766241Y-104757804D01*
X125823908Y-104567701D01*
X125824146Y-104565292D01*
X125843380Y-104370003D01*
X125843380Y-104369996D01*
X125823909Y-104172305D01*
X125823908Y-104172303D01*
X125823908Y-104172299D01*
X125766241Y-103982196D01*
X125672595Y-103806996D01*
X125546568Y-103653432D01*
X125393004Y-103527405D01*
X125375506Y-103518052D01*
X125261487Y-103457107D01*
X125210839Y-103407354D01*
X125195129Y-103338118D01*
X125217944Y-103273324D01*
X125280971Y-103184037D01*
X125329346Y-103047921D01*
X125339204Y-102903801D01*
X125309814Y-102762366D01*
X125309813Y-102762364D01*
X125309813Y-102762363D01*
X125263634Y-102673243D01*
X125243354Y-102634105D01*
X125232479Y-102622460D01*
X125144757Y-102528532D01*
X125144755Y-102528531D01*
X125021327Y-102453473D01*
X124882230Y-102414500D01*
X124882228Y-102414500D01*
X124774051Y-102414500D01*
X124774037Y-102414500D01*
X124666897Y-102429227D01*
X124666888Y-102429229D01*
X124534389Y-102486781D01*
X124422337Y-102577944D01*
X124422331Y-102577950D01*
X124339029Y-102695961D01*
X124339026Y-102695967D01*
X124290653Y-102832080D01*
X124281853Y-102960744D01*
X124280796Y-102976199D01*
X124285606Y-102999345D01*
X124310186Y-103117636D01*
X124341222Y-103177531D01*
X124354803Y-103247217D01*
X124328553Y-103313182D01*
X124270806Y-103354484D01*
X124229349Y-103361500D01*
X123680446Y-103361500D01*
X123532305Y-103376090D01*
X123342195Y-103433759D01*
X123166995Y-103527405D01*
X123013432Y-103653432D01*
X122887405Y-103806995D01*
X122793759Y-103982195D01*
X122736090Y-104172305D01*
X122716620Y-104369996D01*
X122716620Y-104370003D01*
X122121629Y-104370003D01*
X122090042Y-104279733D01*
X122062646Y-104236132D01*
X122002102Y-104139776D01*
X121885223Y-104022897D01*
X121752930Y-103939773D01*
X121745267Y-103934958D01*
X121710801Y-103922898D01*
X121710167Y-103922676D01*
X121652476Y-103881297D01*
X121626314Y-103815296D01*
X121629508Y-103773341D01*
X121631366Y-103765872D01*
X121631366Y-103765865D01*
X121631367Y-103765862D01*
X121631591Y-103764218D01*
X121634027Y-103744324D01*
X121634209Y-103742654D01*
X121634209Y-103660908D01*
X121635293Y-103620888D01*
X121636422Y-103579205D01*
X121636421Y-103579204D01*
X121636422Y-103579202D01*
X121636290Y-103577581D01*
X121634209Y-103555692D01*
X121634209Y-97274546D01*
X121649086Y-97215151D01*
X121711951Y-97097541D01*
X121769618Y-96907438D01*
X121769628Y-96907342D01*
X121789090Y-96709740D01*
X121789090Y-96709733D01*
X121769619Y-96512043D01*
X121769618Y-96512041D01*
X121769618Y-96512037D01*
X121711951Y-96321934D01*
X121618304Y-96146734D01*
X121523862Y-96031655D01*
X121523860Y-96031653D01*
X121523845Y-96031637D01*
X121222211Y-95730003D01*
X122716620Y-95730003D01*
X122736090Y-95927694D01*
X122736091Y-95927700D01*
X122736092Y-95927701D01*
X122793759Y-96117804D01*
X122887405Y-96293004D01*
X123013432Y-96446568D01*
X123166996Y-96572595D01*
X123342196Y-96666241D01*
X123532299Y-96723908D01*
X123532303Y-96723908D01*
X123532305Y-96723909D01*
X123616513Y-96732202D01*
X123680453Y-96738500D01*
X124223784Y-96738500D01*
X124291905Y-96758502D01*
X124338398Y-96812158D01*
X124348502Y-96882432D01*
X124340513Y-96907342D01*
X124341915Y-96907841D01*
X124290653Y-97052080D01*
X124280796Y-97196197D01*
X124280796Y-97196199D01*
X124290518Y-97242985D01*
X124310186Y-97337636D01*
X124376645Y-97465893D01*
X124376647Y-97465896D01*
X124475242Y-97571467D01*
X124475244Y-97571468D01*
X124475245Y-97571469D01*
X124518706Y-97597898D01*
X124598672Y-97646526D01*
X124737770Y-97685500D01*
X124816857Y-97685500D01*
X124884978Y-97705502D01*
X124931471Y-97759158D01*
X124941575Y-97829432D01*
X124923544Y-97878536D01*
X124859959Y-97979730D01*
X124859958Y-97979732D01*
X124818924Y-98097002D01*
X124805366Y-98135748D01*
X124786859Y-98300000D01*
X124805366Y-98464252D01*
X124845774Y-98579732D01*
X124859958Y-98620267D01*
X124859959Y-98620269D01*
X124947897Y-98760223D01*
X125064774Y-98877100D01*
X125064776Y-98877101D01*
X125064777Y-98877102D01*
X125078073Y-98885456D01*
X125125112Y-98938633D01*
X125135934Y-99008800D01*
X125107103Y-99073679D01*
X125078077Y-99098831D01*
X125039779Y-99122895D01*
X125039774Y-99122899D01*
X124922897Y-99239776D01*
X124834959Y-99379730D01*
X124834958Y-99379732D01*
X124796636Y-99489252D01*
X124780366Y-99535748D01*
X124761859Y-99700000D01*
X124780366Y-99864252D01*
X124782515Y-99870394D01*
X124830800Y-100008385D01*
X124834419Y-100079289D01*
X124830800Y-100091615D01*
X124800457Y-100178331D01*
X124780366Y-100235748D01*
X124761859Y-100400000D01*
X124780366Y-100564252D01*
X124834958Y-100720266D01*
X124834958Y-100720267D01*
X124834959Y-100720270D01*
X124886852Y-100802857D01*
X124906158Y-100871178D01*
X124886854Y-100936927D01*
X124859957Y-100979735D01*
X124808699Y-101126222D01*
X124805366Y-101135748D01*
X124786859Y-101300000D01*
X124805366Y-101464252D01*
X124831256Y-101538241D01*
X124859958Y-101620267D01*
X124859959Y-101620269D01*
X124947897Y-101760223D01*
X125064776Y-101877102D01*
X125122704Y-101913500D01*
X125204733Y-101965042D01*
X125360748Y-102019634D01*
X125525000Y-102038141D01*
X125689252Y-102019634D01*
X125845267Y-101965042D01*
X125985223Y-101877102D01*
X126102102Y-101760223D01*
X126190042Y-101620267D01*
X126244634Y-101464252D01*
X126263141Y-101300000D01*
X126244634Y-101135748D01*
X126190042Y-100979733D01*
X126172760Y-100952229D01*
X126138147Y-100897142D01*
X126118841Y-100828821D01*
X126138147Y-100763069D01*
X126139213Y-100761373D01*
X126165042Y-100720267D01*
X126219634Y-100564252D01*
X126238141Y-100400000D01*
X126219634Y-100235748D01*
X126169198Y-100091612D01*
X126165579Y-100020711D01*
X126169193Y-100008402D01*
X126219634Y-99864252D01*
X126238141Y-99700000D01*
X126219634Y-99535748D01*
X126165042Y-99379733D01*
X126121694Y-99310745D01*
X126077102Y-99239776D01*
X125960225Y-99122899D01*
X125946924Y-99114542D01*
X125899886Y-99061364D01*
X125889065Y-98991197D01*
X125917897Y-98926318D01*
X125946920Y-98901168D01*
X125985223Y-98877102D01*
X126102102Y-98760223D01*
X126190042Y-98620267D01*
X126244634Y-98464252D01*
X126263141Y-98300000D01*
X126244634Y-98135748D01*
X126190042Y-97979733D01*
X126117481Y-97864252D01*
X126102102Y-97839776D01*
X125985223Y-97722897D01*
X125845269Y-97634959D01*
X125845267Y-97634958D01*
X125748872Y-97601228D01*
X125689252Y-97580366D01*
X125525000Y-97561859D01*
X125524999Y-97561859D01*
X125412711Y-97574511D01*
X125342779Y-97562261D01*
X125290571Y-97514149D01*
X125272663Y-97445448D01*
X125279879Y-97407109D01*
X125287657Y-97385223D01*
X125329346Y-97267921D01*
X125339204Y-97123801D01*
X125309814Y-96982366D01*
X125309813Y-96982364D01*
X125309813Y-96982363D01*
X125270989Y-96907438D01*
X125243354Y-96854105D01*
X125229729Y-96839516D01*
X125197852Y-96776079D01*
X125205332Y-96705477D01*
X125249794Y-96650127D01*
X125262415Y-96642395D01*
X125393004Y-96572595D01*
X125546568Y-96446568D01*
X125672595Y-96293004D01*
X125766241Y-96117804D01*
X125823908Y-95927701D01*
X125825675Y-95909767D01*
X125843380Y-95730003D01*
X125843380Y-95729996D01*
X125823909Y-95532305D01*
X125823908Y-95532303D01*
X125823908Y-95532299D01*
X125766241Y-95342196D01*
X125672595Y-95166996D01*
X125546568Y-95013432D01*
X125393004Y-94887405D01*
X125217804Y-94793759D01*
X125027701Y-94736092D01*
X125027700Y-94736091D01*
X125027694Y-94736090D01*
X124879553Y-94721500D01*
X124879547Y-94721500D01*
X123680453Y-94721500D01*
X123680446Y-94721500D01*
X123532305Y-94736090D01*
X123342195Y-94793759D01*
X123166995Y-94887405D01*
X123013432Y-95013432D01*
X122887405Y-95166995D01*
X122793759Y-95342195D01*
X122736090Y-95532305D01*
X122716620Y-95729996D01*
X122716620Y-95730003D01*
X121222211Y-95730003D01*
X118042207Y-92550000D01*
X124294534Y-92550000D01*
X124314312Y-92700234D01*
X124372301Y-92840231D01*
X124372306Y-92840239D01*
X124464548Y-92960451D01*
X124568272Y-93040041D01*
X124584767Y-93052698D01*
X124724764Y-93110687D01*
X124837280Y-93125500D01*
X124837287Y-93125500D01*
X124912713Y-93125500D01*
X124912720Y-93125500D01*
X125025236Y-93110687D01*
X125165233Y-93052698D01*
X125285451Y-92960451D01*
X125377698Y-92840233D01*
X125435687Y-92700236D01*
X125455466Y-92550000D01*
X125435687Y-92399764D01*
X125377698Y-92259767D01*
X125377693Y-92259760D01*
X125285451Y-92139548D01*
X125165239Y-92047306D01*
X125165231Y-92047301D01*
X125025234Y-91989312D01*
X124912722Y-91974500D01*
X124912720Y-91974500D01*
X124837280Y-91974500D01*
X124837277Y-91974500D01*
X124724765Y-91989312D01*
X124584768Y-92047301D01*
X124584760Y-92047306D01*
X124464548Y-92139548D01*
X124372306Y-92259760D01*
X124372301Y-92259768D01*
X124314312Y-92399765D01*
X124294534Y-92549999D01*
X124294534Y-92550000D01*
X118042207Y-92550000D01*
X116338530Y-90846323D01*
X116304504Y-90784011D01*
X116306937Y-90750000D01*
X124294534Y-90750000D01*
X124314312Y-90900234D01*
X124372301Y-91040231D01*
X124372306Y-91040239D01*
X124464548Y-91160451D01*
X124529067Y-91209958D01*
X124584767Y-91252698D01*
X124724764Y-91310687D01*
X124837280Y-91325500D01*
X124837287Y-91325500D01*
X124912713Y-91325500D01*
X124912720Y-91325500D01*
X125025236Y-91310687D01*
X125165233Y-91252698D01*
X125285451Y-91160451D01*
X125377698Y-91040233D01*
X125435687Y-90900236D01*
X125455466Y-90750000D01*
X125450579Y-90712883D01*
X125439382Y-90627831D01*
X125435687Y-90599764D01*
X125377698Y-90459767D01*
X125374321Y-90455366D01*
X125285451Y-90339548D01*
X125165239Y-90247306D01*
X125165231Y-90247301D01*
X125025234Y-90189312D01*
X124912722Y-90174500D01*
X124912720Y-90174500D01*
X124837280Y-90174500D01*
X124837277Y-90174500D01*
X124724765Y-90189312D01*
X124584768Y-90247301D01*
X124584760Y-90247306D01*
X124464548Y-90339548D01*
X124372306Y-90459760D01*
X124372301Y-90459768D01*
X124314312Y-90599765D01*
X124294534Y-90749999D01*
X124294534Y-90750000D01*
X116306937Y-90750000D01*
X116309569Y-90713196D01*
X116352116Y-90656360D01*
X116369150Y-90645619D01*
X116515098Y-90569172D01*
X116706893Y-90426075D01*
X116790325Y-90340379D01*
X119466096Y-87655822D01*
X119550305Y-87576960D01*
X119692665Y-87395354D01*
X119805602Y-87194127D01*
X119886463Y-86978005D01*
X119933351Y-86752066D01*
X119945162Y-86521615D01*
X119921619Y-86292066D01*
X119921618Y-86292064D01*
X119921618Y-86292060D01*
X119863279Y-86068818D01*
X119863279Y-86068816D01*
X119863277Y-86068813D01*
X119863277Y-86068810D01*
X119771504Y-85857091D01*
X119737313Y-85802849D01*
X119717910Y-85734557D01*
X119738509Y-85666614D01*
X119792570Y-85620594D01*
X119862930Y-85611107D01*
X119923200Y-85637742D01*
X120067207Y-85754357D01*
X120067214Y-85754362D01*
X120229070Y-85859472D01*
X120393205Y-85966062D01*
X120739547Y-86142532D01*
X120739551Y-86142533D01*
X120739556Y-86142536D01*
X121102431Y-86281831D01*
X121102436Y-86281832D01*
X121102438Y-86281833D01*
X121477901Y-86382438D01*
X121861824Y-86443246D01*
X121861826Y-86443246D01*
X121861832Y-86443247D01*
X122249994Y-86463589D01*
X122250000Y-86463589D01*
X122250006Y-86463589D01*
X122638167Y-86443247D01*
X122638171Y-86443246D01*
X122638176Y-86443246D01*
X123022099Y-86382438D01*
X123397562Y-86281833D01*
X123397565Y-86281831D01*
X123397568Y-86281831D01*
X123760443Y-86142536D01*
X123760444Y-86142535D01*
X123760453Y-86142532D01*
X124106795Y-85966062D01*
X124432793Y-85754357D01*
X124437675Y-85750404D01*
X124734862Y-85509746D01*
X124734867Y-85509740D01*
X124734876Y-85509734D01*
X125009734Y-85234876D01*
X125009740Y-85234867D01*
X125009746Y-85234862D01*
X125254350Y-84932802D01*
X125254351Y-84932799D01*
X125254357Y-84932793D01*
X125267826Y-84912051D01*
X125321702Y-84865814D01*
X125392023Y-84856044D01*
X125456463Y-84885843D01*
X125494563Y-84945750D01*
X125499500Y-84980675D01*
X125499500Y-85737597D01*
X125498331Y-85750764D01*
X125506707Y-85760967D01*
X125924369Y-86387667D01*
X126044029Y-86567472D01*
X126356722Y-87079024D01*
X126562034Y-87416389D01*
X126837003Y-87908581D01*
X127045823Y-88285249D01*
X127294423Y-88774314D01*
X127494612Y-89172639D01*
X127720387Y-89663516D01*
X127907711Y-90077183D01*
X128112091Y-90571718D01*
X128284451Y-90997414D01*
X128300213Y-91040233D01*
X128468077Y-91496259D01*
X128624257Y-91931919D01*
X128787408Y-92435142D01*
X128926570Y-92879153D01*
X129069387Y-93386629D01*
X129190929Y-93837657D01*
X129313431Y-94348994D01*
X129389939Y-94686796D01*
X129385478Y-94757652D01*
X129343418Y-94814848D01*
X129277111Y-94840226D01*
X129207655Y-94825750D01*
X129147804Y-94793759D01*
X128957694Y-94736090D01*
X128809553Y-94721500D01*
X128809547Y-94721500D01*
X128110453Y-94721500D01*
X128110446Y-94721500D01*
X127962305Y-94736090D01*
X127772195Y-94793759D01*
X127596995Y-94887405D01*
X127443432Y-95013432D01*
X127317405Y-95166995D01*
X127223759Y-95342195D01*
X127166090Y-95532305D01*
X127146620Y-95729996D01*
X127146620Y-95730003D01*
X127166090Y-95927694D01*
X127166091Y-95927700D01*
X127166092Y-95927701D01*
X127223759Y-96117804D01*
X127317405Y-96293004D01*
X127443432Y-96446568D01*
X127596996Y-96572595D01*
X127772196Y-96666241D01*
X127962299Y-96723908D01*
X127962303Y-96723908D01*
X127962305Y-96723909D01*
X128046513Y-96732202D01*
X128110453Y-96738500D01*
X128110462Y-96738500D01*
X128809538Y-96738500D01*
X128809547Y-96738500D01*
X128893761Y-96730205D01*
X128957694Y-96723909D01*
X128957695Y-96723908D01*
X128957701Y-96723908D01*
X129147804Y-96666241D01*
X129323004Y-96572595D01*
X129476568Y-96446568D01*
X129491101Y-96428858D01*
X129549778Y-96388890D01*
X129620749Y-96386989D01*
X129681482Y-96423759D01*
X129712694Y-96487527D01*
X129713238Y-96490993D01*
X129752390Y-96765373D01*
X129813779Y-97285113D01*
X129861361Y-97753494D01*
X129902311Y-98274876D01*
X129930910Y-98745111D01*
X129951393Y-99267496D01*
X129960934Y-99738630D01*
X129960934Y-100261369D01*
X129951393Y-100732503D01*
X129930910Y-101254888D01*
X129902311Y-101725123D01*
X129861361Y-102246505D01*
X129813779Y-102714886D01*
X129752390Y-103234626D01*
X129701081Y-103594194D01*
X129671657Y-103658806D01*
X129611972Y-103697253D01*
X129540975Y-103697329D01*
X129481208Y-103659009D01*
X129478949Y-103656333D01*
X129476568Y-103653432D01*
X129323004Y-103527405D01*
X129147804Y-103433759D01*
X129138903Y-103431059D01*
X128957701Y-103376092D01*
X128957700Y-103376091D01*
X128957694Y-103376090D01*
X128809553Y-103361500D01*
X128809547Y-103361500D01*
X128110453Y-103361500D01*
X128110446Y-103361500D01*
X127962305Y-103376090D01*
X127772195Y-103433759D01*
X127596995Y-103527405D01*
X127443432Y-103653432D01*
X127317405Y-103806995D01*
X127223759Y-103982195D01*
X127166090Y-104172305D01*
X127146620Y-104369996D01*
X127146620Y-104370003D01*
X127166090Y-104567694D01*
X127166091Y-104567700D01*
X127166092Y-104567701D01*
X127223759Y-104757804D01*
X127317405Y-104933004D01*
X127443432Y-105086568D01*
X127596996Y-105212595D01*
X127772196Y-105306241D01*
X127962299Y-105363908D01*
X127962303Y-105363908D01*
X127962305Y-105363909D01*
X128046513Y-105372202D01*
X128110453Y-105378500D01*
X128110462Y-105378500D01*
X128809538Y-105378500D01*
X128809547Y-105378500D01*
X128893761Y-105370205D01*
X128957694Y-105363909D01*
X128957695Y-105363908D01*
X128957701Y-105363908D01*
X129147804Y-105306241D01*
X129181886Y-105288023D01*
X129251390Y-105273551D01*
X129317686Y-105298953D01*
X129359725Y-105356166D01*
X129364170Y-105426977D01*
X129313431Y-105651005D01*
X129190929Y-106162342D01*
X129069387Y-106613370D01*
X128926570Y-107120846D01*
X128787408Y-107564857D01*
X128624257Y-108068080D01*
X128468077Y-108503740D01*
X128284453Y-109002581D01*
X128112091Y-109428281D01*
X127907711Y-109922816D01*
X127720387Y-110336483D01*
X127494612Y-110827360D01*
X127294423Y-111225685D01*
X127045823Y-111714750D01*
X126837003Y-112091418D01*
X126562034Y-112583610D01*
X126356722Y-112920975D01*
X126044029Y-113432527D01*
X125924471Y-113612178D01*
X125506459Y-114239404D01*
X125498317Y-114249392D01*
X125499500Y-114262538D01*
X125499500Y-115019325D01*
X125479498Y-115087446D01*
X125425842Y-115133939D01*
X125355568Y-115144043D01*
X125290988Y-115114549D01*
X125267828Y-115087950D01*
X125254358Y-115067208D01*
X125254352Y-115067200D01*
X125009746Y-114765137D01*
X125009732Y-114765122D01*
X124734877Y-114490267D01*
X124734862Y-114490253D01*
X124432802Y-114245649D01*
X124432785Y-114245637D01*
X124106795Y-114033938D01*
X123775559Y-113865165D01*
X123760453Y-113857468D01*
X123760452Y-113857467D01*
X123760451Y-113857467D01*
X123760443Y-113857463D01*
X123397568Y-113718168D01*
X123022097Y-113617561D01*
X122638167Y-113556752D01*
X122250006Y-113536411D01*
X122249994Y-113536411D01*
X121861832Y-113556752D01*
X121477902Y-113617561D01*
X121102431Y-113718168D01*
X120739556Y-113857463D01*
X120739548Y-113857467D01*
X120393205Y-114033938D01*
X120067208Y-114245642D01*
X119909871Y-114373051D01*
X119844344Y-114400376D01*
X119774445Y-114387936D01*
X119722368Y-114339682D01*
X119704647Y-114270932D01*
X119723553Y-114208633D01*
X119776315Y-114123719D01*
X119867045Y-113910132D01*
X119923876Y-113685140D01*
X119945458Y-113454086D01*
X119931279Y-113222461D01*
X119881674Y-112995765D01*
X119876226Y-112981707D01*
X119797824Y-112779386D01*
X119797821Y-112779380D01*
X119751951Y-112700000D01*
X123661859Y-112700000D01*
X123680366Y-112864252D01*
X123698547Y-112916209D01*
X123734958Y-113020267D01*
X123734959Y-113020269D01*
X123822897Y-113160223D01*
X123939776Y-113277102D01*
X124058081Y-113351437D01*
X124079733Y-113365042D01*
X124235748Y-113419634D01*
X124400000Y-113438141D01*
X124564252Y-113419634D01*
X124720267Y-113365042D01*
X124860223Y-113277102D01*
X124977102Y-113160223D01*
X125065042Y-113020267D01*
X125119634Y-112864252D01*
X125138141Y-112700000D01*
X125119634Y-112535748D01*
X125065042Y-112379733D01*
X125031210Y-112325889D01*
X124977102Y-112239776D01*
X124860223Y-112122897D01*
X124720269Y-112034959D01*
X124720267Y-112034958D01*
X124589652Y-111989254D01*
X124564252Y-111980366D01*
X124400000Y-111961859D01*
X124235748Y-111980366D01*
X124235745Y-111980366D01*
X124235745Y-111980367D01*
X124079732Y-112034958D01*
X124079730Y-112034959D01*
X123939776Y-112122897D01*
X123822897Y-112239776D01*
X123734959Y-112379730D01*
X123734958Y-112379732D01*
X123680367Y-112535745D01*
X123680366Y-112535748D01*
X123661859Y-112700000D01*
X119751951Y-112700000D01*
X119681721Y-112578464D01*
X119681718Y-112578459D01*
X119536115Y-112397761D01*
X119457204Y-112325886D01*
X119451478Y-112320670D01*
X119449277Y-112318566D01*
X119435634Y-112304870D01*
X118957619Y-111825000D01*
X119611859Y-111825000D01*
X119630366Y-111989252D01*
X119676537Y-112121202D01*
X119684958Y-112145267D01*
X119684959Y-112145269D01*
X119772897Y-112285223D01*
X119889776Y-112402102D01*
X120008081Y-112476437D01*
X120029733Y-112490042D01*
X120185748Y-112544634D01*
X120350000Y-112563141D01*
X120514252Y-112544634D01*
X120670267Y-112490042D01*
X120810223Y-112402102D01*
X120927102Y-112285223D01*
X121015042Y-112145267D01*
X121069634Y-111989252D01*
X121088141Y-111825000D01*
X121069634Y-111660748D01*
X121015042Y-111504733D01*
X120980364Y-111449543D01*
X120927102Y-111364776D01*
X120810223Y-111247897D01*
X120670269Y-111159959D01*
X120670267Y-111159958D01*
X120620678Y-111142606D01*
X120514252Y-111105366D01*
X120350000Y-111086859D01*
X120185748Y-111105366D01*
X120185745Y-111105366D01*
X120185745Y-111105367D01*
X120029732Y-111159958D01*
X120029730Y-111159959D01*
X119889776Y-111247897D01*
X119772897Y-111364776D01*
X119684959Y-111504730D01*
X119684958Y-111504732D01*
X119637576Y-111640143D01*
X119630366Y-111660748D01*
X119611859Y-111825000D01*
X118957619Y-111825000D01*
X118743463Y-111610013D01*
X118709560Y-111547636D01*
X118714762Y-111476830D01*
X118757419Y-111420077D01*
X118823987Y-111395395D01*
X118846831Y-111395882D01*
X119000000Y-111413141D01*
X119164252Y-111394634D01*
X119320267Y-111340042D01*
X119460223Y-111252102D01*
X119577102Y-111135223D01*
X119665042Y-110995267D01*
X119719634Y-110839252D01*
X119738141Y-110675000D01*
X119719634Y-110510748D01*
X119665042Y-110354733D01*
X119633625Y-110304733D01*
X119577102Y-110214776D01*
X119460226Y-110097900D01*
X119437374Y-110083541D01*
X119390337Y-110030362D01*
X119379517Y-109960195D01*
X119385480Y-109935244D01*
X119406256Y-109875874D01*
X119417622Y-109775000D01*
X120711859Y-109775000D01*
X120730366Y-109939252D01*
X120746649Y-109985785D01*
X120784958Y-110095267D01*
X120784959Y-110095269D01*
X120872897Y-110235223D01*
X120989776Y-110352102D01*
X121108058Y-110426423D01*
X121129733Y-110440042D01*
X121285748Y-110494634D01*
X121450000Y-110513141D01*
X121614252Y-110494634D01*
X121770267Y-110440042D01*
X121910223Y-110352102D01*
X122027102Y-110235223D01*
X122115042Y-110095267D01*
X122169634Y-109939252D01*
X122188141Y-109775000D01*
X122169634Y-109610748D01*
X122115042Y-109454733D01*
X122093386Y-109420267D01*
X122027102Y-109314776D01*
X121962326Y-109250000D01*
X124369534Y-109250000D01*
X124389312Y-109400234D01*
X124447301Y-109540231D01*
X124447306Y-109540239D01*
X124539548Y-109660451D01*
X124659760Y-109752693D01*
X124659767Y-109752698D01*
X124799764Y-109810687D01*
X124912280Y-109825500D01*
X124912287Y-109825500D01*
X124987713Y-109825500D01*
X124987720Y-109825500D01*
X125100236Y-109810687D01*
X125240233Y-109752698D01*
X125360451Y-109660451D01*
X125452698Y-109540233D01*
X125510687Y-109400236D01*
X125530466Y-109250000D01*
X125529569Y-109243190D01*
X125510687Y-109099765D01*
X125503738Y-109082987D01*
X125452698Y-108959767D01*
X125449863Y-108956072D01*
X125360451Y-108839548D01*
X125240239Y-108747306D01*
X125240231Y-108747301D01*
X125100234Y-108689312D01*
X124987722Y-108674500D01*
X124987720Y-108674500D01*
X124912280Y-108674500D01*
X124912277Y-108674500D01*
X124799765Y-108689312D01*
X124659768Y-108747301D01*
X124659760Y-108747306D01*
X124539548Y-108839548D01*
X124447306Y-108959760D01*
X124447301Y-108959768D01*
X124389312Y-109099765D01*
X124369534Y-109249999D01*
X124369534Y-109250000D01*
X121962326Y-109250000D01*
X121910223Y-109197897D01*
X121770269Y-109109959D01*
X121770267Y-109109958D01*
X121689264Y-109081614D01*
X121614252Y-109055366D01*
X121450000Y-109036859D01*
X121285748Y-109055366D01*
X121285745Y-109055366D01*
X121285745Y-109055367D01*
X121129732Y-109109958D01*
X121129730Y-109109959D01*
X120989776Y-109197897D01*
X120872897Y-109314776D01*
X120784959Y-109454730D01*
X120784958Y-109454732D01*
X120730367Y-109610745D01*
X120730366Y-109610748D01*
X120711859Y-109775000D01*
X119417622Y-109775000D01*
X119424763Y-109711622D01*
X119406256Y-109547370D01*
X119351664Y-109391355D01*
X119303547Y-109314777D01*
X119263724Y-109251398D01*
X119146845Y-109134519D01*
X119006891Y-109046581D01*
X119006889Y-109046580D01*
X118866485Y-108997450D01*
X118808793Y-108956072D01*
X118789171Y-108920136D01*
X118785885Y-108910745D01*
X118740042Y-108779733D01*
X118726437Y-108758081D01*
X118652102Y-108639776D01*
X118535223Y-108522897D01*
X118395269Y-108434959D01*
X118395267Y-108434958D01*
X118239252Y-108380366D01*
X118075000Y-108361859D01*
X117910748Y-108380366D01*
X117910745Y-108380366D01*
X117910745Y-108380367D01*
X117754732Y-108434958D01*
X117754730Y-108434959D01*
X117614776Y-108522897D01*
X117497897Y-108639776D01*
X117409959Y-108779730D01*
X117409958Y-108779732D01*
X117389028Y-108839548D01*
X117355366Y-108935748D01*
X117336859Y-109100000D01*
X117355366Y-109264252D01*
X117395061Y-109377693D01*
X117409958Y-109420267D01*
X117409959Y-109420269D01*
X117497897Y-109560223D01*
X117614776Y-109677102D01*
X117715662Y-109740492D01*
X117754733Y-109765042D01*
X117892192Y-109813141D01*
X117895136Y-109814171D01*
X117952828Y-109855549D01*
X117972450Y-109891485D01*
X118021580Y-110031889D01*
X118021581Y-110031891D01*
X118109519Y-110171845D01*
X118226396Y-110288722D01*
X118249244Y-110303078D01*
X118296282Y-110356256D01*
X118307103Y-110426423D01*
X118301139Y-110451379D01*
X118286005Y-110494632D01*
X118280366Y-110510748D01*
X118261859Y-110675000D01*
X118278781Y-110825190D01*
X118266533Y-110895121D01*
X118218420Y-110947329D01*
X118149719Y-110965238D01*
X118082242Y-110943161D01*
X118064306Y-110928220D01*
X116815018Y-109674083D01*
X116735655Y-109591616D01*
X116735645Y-109591607D01*
X116553725Y-109452692D01*
X116553717Y-109452687D01*
X116352900Y-109342833D01*
X116352889Y-109342828D01*
X116137795Y-109264563D01*
X116137786Y-109264560D01*
X116011234Y-109239252D01*
X115913323Y-109219671D01*
X115874925Y-109217911D01*
X115684652Y-109209192D01*
X115684651Y-109209192D01*
X115457031Y-109233365D01*
X115432427Y-109239842D01*
X115361459Y-109237838D01*
X115302840Y-109197784D01*
X115275181Y-109132397D01*
X115287264Y-109062436D01*
X115311257Y-109028899D01*
X115374049Y-108966108D01*
X115461989Y-108826152D01*
X115516581Y-108670137D01*
X115535088Y-108505885D01*
X115516581Y-108341633D01*
X115461989Y-108185618D01*
X115428475Y-108132280D01*
X115374049Y-108045661D01*
X115257170Y-107928782D01*
X115117216Y-107840844D01*
X115117214Y-107840843D01*
X115005258Y-107801668D01*
X114961199Y-107786251D01*
X114796947Y-107767744D01*
X114632695Y-107786251D01*
X114632692Y-107786251D01*
X114632691Y-107786252D01*
X114493031Y-107835121D01*
X114422126Y-107838740D01*
X114409801Y-107835121D01*
X114314196Y-107801668D01*
X114270137Y-107786251D01*
X114105885Y-107767744D01*
X113941633Y-107786251D01*
X113941630Y-107786251D01*
X113941630Y-107786252D01*
X113785617Y-107840843D01*
X113785615Y-107840844D01*
X113645661Y-107928782D01*
X113528782Y-108045661D01*
X113440844Y-108185615D01*
X113404443Y-108289641D01*
X113363064Y-108347333D01*
X113327130Y-108366954D01*
X113204230Y-108409959D01*
X113064276Y-108497897D01*
X112947397Y-108614776D01*
X112859459Y-108754730D01*
X112859458Y-108754732D01*
X112804867Y-108910745D01*
X112804866Y-108910748D01*
X112786359Y-109075000D01*
X112804866Y-109239252D01*
X112831293Y-109314776D01*
X112859458Y-109395267D01*
X112859459Y-109395269D01*
X112947397Y-109535223D01*
X113064276Y-109652102D01*
X113104064Y-109677102D01*
X113204233Y-109740042D01*
X113360248Y-109794634D01*
X113524500Y-109813141D01*
X113688752Y-109794634D01*
X113833135Y-109744111D01*
X113904039Y-109740492D01*
X113916361Y-109744110D01*
X114060748Y-109794634D01*
X114225000Y-109813141D01*
X114282950Y-109806611D01*
X114352880Y-109818860D01*
X114405088Y-109866972D01*
X114422997Y-109935673D01*
X114404115Y-109998260D01*
X114389077Y-110022490D01*
X114299130Y-110232966D01*
X114299123Y-110232985D01*
X114241987Y-110454649D01*
X114218981Y-110682395D01*
X114230629Y-110911006D01*
X114276670Y-111135241D01*
X114276670Y-111135243D01*
X114356037Y-111349936D01*
X114356042Y-111349948D01*
X114466921Y-111550195D01*
X114466924Y-111550200D01*
X114466926Y-111550203D01*
X114593915Y-111714750D01*
X114606783Y-111731423D01*
X114606783Y-111731424D01*
X114689639Y-111810345D01*
X117324454Y-114434750D01*
X117326739Y-114437149D01*
X117374734Y-114490266D01*
X117403405Y-114521996D01*
X117583520Y-114668316D01*
X117583524Y-114668318D01*
X117583526Y-114668320D01*
X117783971Y-114785216D01*
X117783976Y-114785218D01*
X117783981Y-114785221D01*
X118000026Y-114869933D01*
X118226522Y-114920440D01*
X118458089Y-114935542D01*
X118689227Y-114914881D01*
X118914444Y-114858946D01*
X119128391Y-114769068D01*
X119215363Y-114715505D01*
X119283852Y-114696816D01*
X119351576Y-114718122D01*
X119397030Y-114772661D01*
X119405783Y-114843116D01*
X119379354Y-114902087D01*
X119245642Y-115067208D01*
X119033938Y-115393205D01*
X118857467Y-115739548D01*
X118857464Y-115739553D01*
X118849163Y-115761178D01*
X118806075Y-115817604D01*
X118739320Y-115841777D01*
X118670094Y-115826023D01*
X118642439Y-115805113D01*
X118610223Y-115772897D01*
X118470269Y-115684959D01*
X118470267Y-115684958D01*
X118314252Y-115630366D01*
X118150000Y-115611859D01*
X117985748Y-115630366D01*
X117985745Y-115630366D01*
X117985745Y-115630367D01*
X117829732Y-115684958D01*
X117829730Y-115684959D01*
X117689776Y-115772897D01*
X117572897Y-115889776D01*
X117484959Y-116029730D01*
X117484958Y-116029732D01*
X117484958Y-116029733D01*
X117430366Y-116185748D01*
X117411859Y-116350000D01*
X117430366Y-116514252D01*
X117430367Y-116514254D01*
X117484958Y-116670267D01*
X117484959Y-116670269D01*
X117572897Y-116810223D01*
X117689776Y-116927102D01*
X117748603Y-116964065D01*
X117829733Y-117015042D01*
X117985748Y-117069634D01*
X118150000Y-117088141D01*
X118314252Y-117069634D01*
X118372921Y-117049104D01*
X118443821Y-117045485D01*
X118505426Y-117080774D01*
X118538174Y-117143766D01*
X118540360Y-117174627D01*
X118536411Y-117249992D01*
X118536411Y-117250006D01*
X118556752Y-117638167D01*
X118617561Y-118022097D01*
X118718168Y-118397568D01*
X118857463Y-118760443D01*
X118857467Y-118760451D01*
X119033938Y-119106795D01*
X119245637Y-119432785D01*
X119245649Y-119432802D01*
X119490253Y-119734862D01*
X119490267Y-119734877D01*
X119765122Y-120009732D01*
X119765137Y-120009746D01*
X120067197Y-120254350D01*
X120067219Y-120254365D01*
X120087949Y-120267828D01*
X120134186Y-120321704D01*
X120143955Y-120392025D01*
X120114154Y-120456465D01*
X120054246Y-120494564D01*
X120019324Y-120499500D01*
X119262539Y-120499500D01*
X119249392Y-120498317D01*
X119239404Y-120506459D01*
X118612731Y-120924103D01*
X118432516Y-121044037D01*
X117921291Y-121356530D01*
X117583591Y-121562046D01*
X117091513Y-121836951D01*
X116714750Y-122045823D01*
X116225685Y-122294423D01*
X115827360Y-122494612D01*
X115336547Y-122720358D01*
X114922793Y-122907721D01*
X114428348Y-123112063D01*
X114002578Y-123284454D01*
X113503740Y-123468077D01*
X113068081Y-123624257D01*
X112564906Y-123787393D01*
X112120811Y-123926580D01*
X111613436Y-124069368D01*
X111162336Y-124190931D01*
X110651005Y-124313431D01*
X110194128Y-124416907D01*
X109679387Y-124519082D01*
X109217712Y-124604159D01*
X108700157Y-124685962D01*
X108234626Y-124752390D01*
X107714886Y-124813779D01*
X107246505Y-124861361D01*
X106725123Y-124902311D01*
X106254888Y-124930910D01*
X105732503Y-124951393D01*
X105261370Y-124960934D01*
X104738630Y-124960934D01*
X104267496Y-124951393D01*
X103745111Y-124930910D01*
X103274876Y-124902311D01*
X102753494Y-124861361D01*
X102285113Y-124813779D01*
X101765373Y-124752390D01*
X101299842Y-124685962D01*
X100782287Y-124604159D01*
X100320612Y-124519082D01*
X99805871Y-124416907D01*
X99348994Y-124313431D01*
X98837663Y-124190931D01*
X98386563Y-124069368D01*
X97879188Y-123926580D01*
X97546191Y-123822213D01*
X97435074Y-123787386D01*
X96931925Y-123624259D01*
X96759309Y-123562378D01*
X96496259Y-123468077D01*
X95997421Y-123284454D01*
X95571651Y-123112063D01*
X95309655Y-123003786D01*
X95077203Y-122907719D01*
X94663419Y-122720342D01*
X94172639Y-122494612D01*
X93774314Y-122294423D01*
X93285249Y-122045823D01*
X92908486Y-121836951D01*
X92416416Y-121562050D01*
X92078708Y-121356530D01*
X91567483Y-121044037D01*
X91486286Y-120990000D01*
X97476844Y-120990000D01*
X97495437Y-121214375D01*
X97550702Y-121432612D01*
X97550703Y-121432613D01*
X97641141Y-121638793D01*
X97764275Y-121827265D01*
X97764279Y-121827270D01*
X97916762Y-121992908D01*
X97963845Y-122029554D01*
X98094424Y-122131189D01*
X98292426Y-122238342D01*
X98292427Y-122238342D01*
X98292428Y-122238343D01*
X98357465Y-122260670D01*
X98505365Y-122311444D01*
X98727431Y-122348500D01*
X98727435Y-122348500D01*
X98952565Y-122348500D01*
X98952569Y-122348500D01*
X99174635Y-122311444D01*
X99387574Y-122238342D01*
X99585576Y-122131189D01*
X99763240Y-121992906D01*
X99915722Y-121827268D01*
X100004518Y-121691354D01*
X100058520Y-121645268D01*
X100128868Y-121635692D01*
X100193225Y-121665669D01*
X100215480Y-121691353D01*
X100248607Y-121742058D01*
X100304275Y-121827265D01*
X100304279Y-121827270D01*
X100456762Y-121992908D01*
X100503845Y-122029554D01*
X100634424Y-122131189D01*
X100832426Y-122238342D01*
X100832427Y-122238342D01*
X100832428Y-122238343D01*
X100897465Y-122260670D01*
X101045365Y-122311444D01*
X101267431Y-122348500D01*
X101267435Y-122348500D01*
X101492565Y-122348500D01*
X101492569Y-122348500D01*
X101714635Y-122311444D01*
X101927574Y-122238342D01*
X102125576Y-122131189D01*
X102303240Y-121992906D01*
X102455722Y-121827268D01*
X102544518Y-121691354D01*
X102598520Y-121645268D01*
X102668868Y-121635692D01*
X102733225Y-121665669D01*
X102755480Y-121691353D01*
X102788607Y-121742058D01*
X102844275Y-121827265D01*
X102844279Y-121827270D01*
X102996762Y-121992908D01*
X103043845Y-122029554D01*
X103174424Y-122131189D01*
X103372426Y-122238342D01*
X103372427Y-122238342D01*
X103372428Y-122238343D01*
X103437465Y-122260670D01*
X103585365Y-122311444D01*
X103807431Y-122348500D01*
X103807435Y-122348500D01*
X104032565Y-122348500D01*
X104032569Y-122348500D01*
X104254635Y-122311444D01*
X104467574Y-122238342D01*
X104665576Y-122131189D01*
X104843240Y-121992906D01*
X104995722Y-121827268D01*
X105084518Y-121691354D01*
X105138520Y-121645268D01*
X105208868Y-121635692D01*
X105273225Y-121665669D01*
X105295480Y-121691353D01*
X105328607Y-121742058D01*
X105384275Y-121827265D01*
X105384279Y-121827270D01*
X105536762Y-121992908D01*
X105583845Y-122029554D01*
X105714424Y-122131189D01*
X105912426Y-122238342D01*
X105912427Y-122238342D01*
X105912428Y-122238343D01*
X105977465Y-122260670D01*
X106125365Y-122311444D01*
X106347431Y-122348500D01*
X106347435Y-122348500D01*
X106572565Y-122348500D01*
X106572569Y-122348500D01*
X106794635Y-122311444D01*
X107007574Y-122238342D01*
X107205576Y-122131189D01*
X107383240Y-121992906D01*
X107535722Y-121827268D01*
X107624518Y-121691354D01*
X107678520Y-121645268D01*
X107748868Y-121635692D01*
X107813225Y-121665669D01*
X107835480Y-121691353D01*
X107868607Y-121742058D01*
X107924275Y-121827265D01*
X107924279Y-121827270D01*
X108076762Y-121992908D01*
X108123845Y-122029554D01*
X108254424Y-122131189D01*
X108452426Y-122238342D01*
X108452427Y-122238342D01*
X108452428Y-122238343D01*
X108517465Y-122260670D01*
X108665365Y-122311444D01*
X108887431Y-122348500D01*
X108887435Y-122348500D01*
X109112565Y-122348500D01*
X109112569Y-122348500D01*
X109334635Y-122311444D01*
X109547574Y-122238342D01*
X109745576Y-122131189D01*
X109923240Y-121992906D01*
X110075722Y-121827268D01*
X110164518Y-121691354D01*
X110218520Y-121645268D01*
X110288868Y-121635692D01*
X110353225Y-121665669D01*
X110375480Y-121691353D01*
X110408607Y-121742058D01*
X110464275Y-121827265D01*
X110464279Y-121827270D01*
X110616762Y-121992908D01*
X110663845Y-122029554D01*
X110794424Y-122131189D01*
X110992426Y-122238342D01*
X110992427Y-122238342D01*
X110992428Y-122238343D01*
X111057465Y-122260670D01*
X111205365Y-122311444D01*
X111427431Y-122348500D01*
X111427435Y-122348500D01*
X111652565Y-122348500D01*
X111652569Y-122348500D01*
X111874635Y-122311444D01*
X112087574Y-122238342D01*
X112285576Y-122131189D01*
X112463240Y-121992906D01*
X112615722Y-121827268D01*
X112738860Y-121638791D01*
X112829296Y-121432616D01*
X112884564Y-121214368D01*
X112903156Y-120990000D01*
X112884564Y-120765632D01*
X112829296Y-120547384D01*
X112738860Y-120341209D01*
X112726117Y-120321704D01*
X112615724Y-120152734D01*
X112615714Y-120152722D01*
X112472159Y-119996782D01*
X112440737Y-119933117D01*
X112448723Y-119862571D01*
X112493582Y-119807542D01*
X112520827Y-119793388D01*
X112635965Y-119750444D01*
X112752904Y-119662904D01*
X112840444Y-119545965D01*
X112840444Y-119545964D01*
X112891494Y-119409093D01*
X112897999Y-119348597D01*
X112898000Y-119348585D01*
X112898000Y-118704000D01*
X111971116Y-118704000D01*
X111999493Y-118659844D01*
X112040000Y-118521889D01*
X112040000Y-118378111D01*
X111999493Y-118240156D01*
X111971116Y-118196000D01*
X112898000Y-118196000D01*
X112898000Y-117551414D01*
X112897999Y-117551402D01*
X112891494Y-117490906D01*
X112840444Y-117354035D01*
X112840444Y-117354034D01*
X112752904Y-117237095D01*
X112635965Y-117149555D01*
X112499093Y-117098505D01*
X112438597Y-117092000D01*
X111794000Y-117092000D01*
X111794000Y-118016325D01*
X111682315Y-117965320D01*
X111575763Y-117950000D01*
X111504237Y-117950000D01*
X111397685Y-117965320D01*
X111286000Y-118016325D01*
X111286000Y-117092000D01*
X110641402Y-117092000D01*
X110580906Y-117098505D01*
X110444035Y-117149555D01*
X110444034Y-117149555D01*
X110327095Y-117237095D01*
X110239555Y-117354034D01*
X110239553Y-117354039D01*
X110195380Y-117472470D01*
X110152833Y-117529306D01*
X110086313Y-117554116D01*
X110016939Y-117539024D01*
X109984626Y-117513777D01*
X109923240Y-117447094D01*
X109923239Y-117447093D01*
X109923237Y-117447091D01*
X109803679Y-117354035D01*
X109745576Y-117308811D01*
X109547574Y-117201658D01*
X109547572Y-117201657D01*
X109547571Y-117201656D01*
X109334639Y-117128557D01*
X109334630Y-117128555D01*
X109290476Y-117121187D01*
X109112569Y-117091500D01*
X108887431Y-117091500D01*
X108739211Y-117116233D01*
X108665369Y-117128555D01*
X108665360Y-117128557D01*
X108452428Y-117201656D01*
X108452426Y-117201658D01*
X108363087Y-117250006D01*
X108254426Y-117308810D01*
X108254424Y-117308811D01*
X108076762Y-117447091D01*
X107924279Y-117612729D01*
X107835483Y-117748643D01*
X107781479Y-117794731D01*
X107711131Y-117804306D01*
X107646774Y-117774329D01*
X107624517Y-117748643D01*
X107535720Y-117612729D01*
X107383237Y-117447091D01*
X107263679Y-117354035D01*
X107205576Y-117308811D01*
X107007574Y-117201658D01*
X107007572Y-117201657D01*
X107007571Y-117201656D01*
X106794639Y-117128557D01*
X106794630Y-117128555D01*
X106750476Y-117121187D01*
X106572569Y-117091500D01*
X106347431Y-117091500D01*
X106199211Y-117116233D01*
X106125369Y-117128555D01*
X106125360Y-117128557D01*
X105912428Y-117201656D01*
X105912426Y-117201658D01*
X105823087Y-117250006D01*
X105714426Y-117308810D01*
X105714424Y-117308811D01*
X105536762Y-117447091D01*
X105384279Y-117612729D01*
X105295483Y-117748643D01*
X105241479Y-117794731D01*
X105171131Y-117804306D01*
X105106774Y-117774329D01*
X105084517Y-117748643D01*
X104995720Y-117612729D01*
X104843237Y-117447091D01*
X104723679Y-117354035D01*
X104665576Y-117308811D01*
X104467574Y-117201658D01*
X104467572Y-117201657D01*
X104467571Y-117201656D01*
X104254639Y-117128557D01*
X104254630Y-117128555D01*
X104210476Y-117121187D01*
X104032569Y-117091500D01*
X103807431Y-117091500D01*
X103659211Y-117116233D01*
X103585369Y-117128555D01*
X103585360Y-117128557D01*
X103372428Y-117201656D01*
X103372426Y-117201658D01*
X103283087Y-117250006D01*
X103174426Y-117308810D01*
X103174424Y-117308811D01*
X102996762Y-117447091D01*
X102844279Y-117612729D01*
X102755483Y-117748643D01*
X102701479Y-117794731D01*
X102631131Y-117804306D01*
X102566774Y-117774329D01*
X102544517Y-117748643D01*
X102455720Y-117612729D01*
X102303237Y-117447091D01*
X102183679Y-117354035D01*
X102125576Y-117308811D01*
X101927574Y-117201658D01*
X101927572Y-117201657D01*
X101927571Y-117201656D01*
X101714639Y-117128557D01*
X101714630Y-117128555D01*
X101670476Y-117121187D01*
X101492569Y-117091500D01*
X101267431Y-117091500D01*
X101119211Y-117116233D01*
X101045369Y-117128555D01*
X101045360Y-117128557D01*
X100832428Y-117201656D01*
X100832426Y-117201658D01*
X100743087Y-117250006D01*
X100634426Y-117308810D01*
X100634424Y-117308811D01*
X100456762Y-117447091D01*
X100304279Y-117612729D01*
X100215483Y-117748643D01*
X100161479Y-117794731D01*
X100091131Y-117804306D01*
X100026774Y-117774329D01*
X100004517Y-117748643D01*
X99915720Y-117612729D01*
X99763237Y-117447091D01*
X99643679Y-117354035D01*
X99585576Y-117308811D01*
X99387574Y-117201658D01*
X99387572Y-117201657D01*
X99387571Y-117201656D01*
X99174639Y-117128557D01*
X99174630Y-117128555D01*
X99130476Y-117121187D01*
X98952569Y-117091500D01*
X98727431Y-117091500D01*
X98579211Y-117116233D01*
X98505369Y-117128555D01*
X98505360Y-117128557D01*
X98292428Y-117201656D01*
X98292426Y-117201658D01*
X98203087Y-117250006D01*
X98094426Y-117308810D01*
X98094424Y-117308811D01*
X97916762Y-117447091D01*
X97764279Y-117612729D01*
X97764275Y-117612734D01*
X97641141Y-117801206D01*
X97550703Y-118007386D01*
X97550702Y-118007387D01*
X97495437Y-118225624D01*
X97495436Y-118225630D01*
X97495436Y-118225632D01*
X97476844Y-118450000D01*
X97494232Y-118659844D01*
X97495437Y-118674375D01*
X97550702Y-118892612D01*
X97550703Y-118892613D01*
X97641141Y-119098793D01*
X97764275Y-119287265D01*
X97764279Y-119287270D01*
X97876427Y-119409093D01*
X97898244Y-119432793D01*
X97916762Y-119452908D01*
X97971331Y-119495381D01*
X98094424Y-119591189D01*
X98127680Y-119609186D01*
X98178071Y-119659200D01*
X98193423Y-119728516D01*
X98168862Y-119795129D01*
X98127680Y-119830813D01*
X98094426Y-119848810D01*
X98094424Y-119848811D01*
X97916762Y-119987091D01*
X97764279Y-120152729D01*
X97764275Y-120152734D01*
X97641141Y-120341206D01*
X97550703Y-120547386D01*
X97550702Y-120547387D01*
X97495437Y-120765624D01*
X97495436Y-120765630D01*
X97495436Y-120765632D01*
X97480718Y-120943246D01*
X97476844Y-120990000D01*
X91486286Y-120990000D01*
X91387114Y-120924001D01*
X90760967Y-120506707D01*
X90750742Y-120498312D01*
X90737498Y-120499500D01*
X89980676Y-120499500D01*
X89912555Y-120479498D01*
X89866062Y-120425842D01*
X89855958Y-120355568D01*
X89885452Y-120290988D01*
X89912051Y-120267828D01*
X89926529Y-120258424D01*
X89932793Y-120254357D01*
X89932802Y-120254350D01*
X90234862Y-120009746D01*
X90234867Y-120009740D01*
X90234876Y-120009734D01*
X90509734Y-119734876D01*
X90509740Y-119734867D01*
X90509746Y-119734862D01*
X90754350Y-119432802D01*
X90754351Y-119432799D01*
X90754357Y-119432793D01*
X90966062Y-119106795D01*
X91142532Y-118760453D01*
X91164202Y-118704000D01*
X91281831Y-118397568D01*
X91281833Y-118397562D01*
X91382438Y-118022099D01*
X91443246Y-117638176D01*
X91443246Y-117638171D01*
X91443247Y-117638167D01*
X91463589Y-117250006D01*
X91463589Y-117249993D01*
X91443247Y-116861832D01*
X91423513Y-116737240D01*
X91382438Y-116477901D01*
X91281833Y-116102438D01*
X91281832Y-116102436D01*
X91281831Y-116102431D01*
X91142536Y-115739556D01*
X91142532Y-115739548D01*
X91142532Y-115739547D01*
X90966062Y-115393206D01*
X90754357Y-115067207D01*
X90640517Y-114926627D01*
X90613192Y-114861101D01*
X90625631Y-114791203D01*
X90673886Y-114739126D01*
X90742635Y-114721404D01*
X90805297Y-114740536D01*
X90834440Y-114758780D01*
X90861296Y-114775593D01*
X91076373Y-114867731D01*
X91303073Y-114925650D01*
X91535988Y-114947968D01*
X91769562Y-114934154D01*
X91769564Y-114934154D01*
X91883892Y-114909345D01*
X91998222Y-114884536D01*
X92216515Y-114800298D01*
X92419232Y-114683451D01*
X92601537Y-114536780D01*
X92679346Y-114451454D01*
X92681377Y-114449330D01*
X95320128Y-111820109D01*
X95403850Y-111741068D01*
X95545350Y-111559349D01*
X95655044Y-111363141D01*
X95657737Y-111358324D01*
X95657737Y-111358322D01*
X95657739Y-111358320D01*
X95738431Y-111142606D01*
X95785570Y-110917169D01*
X95798072Y-110687196D01*
X95775648Y-110457977D01*
X95749817Y-110356538D01*
X95718815Y-110234788D01*
X95628880Y-110022761D01*
X95628877Y-110022756D01*
X95507911Y-109826775D01*
X95507910Y-109826773D01*
X95358692Y-109651337D01*
X95184657Y-109500487D01*
X95108816Y-109452692D01*
X94989809Y-109377693D01*
X94778631Y-109285781D01*
X94778627Y-109285780D01*
X94555979Y-109226864D01*
X94326990Y-109202301D01*
X94326984Y-109202301D01*
X94326983Y-109202301D01*
X94317862Y-109202711D01*
X94096901Y-109212653D01*
X93871040Y-109257683D01*
X93852111Y-109264563D01*
X93654576Y-109336359D01*
X93654575Y-109336359D01*
X93654571Y-109336361D01*
X93452509Y-109446863D01*
X93452500Y-109446869D01*
X93269480Y-109586656D01*
X93269470Y-109586665D01*
X93189641Y-109669654D01*
X90560100Y-112304205D01*
X90557412Y-112306745D01*
X90472355Y-112382505D01*
X90472352Y-112382508D01*
X90323564Y-112563073D01*
X90323551Y-112563092D01*
X90204351Y-112764402D01*
X90204344Y-112764415D01*
X90117554Y-112981708D01*
X90065262Y-113209768D01*
X90065260Y-113209779D01*
X90048711Y-113443163D01*
X90068300Y-113676324D01*
X90123560Y-113903690D01*
X90213171Y-114119831D01*
X90258969Y-114194928D01*
X90277360Y-114263502D01*
X90255758Y-114331132D01*
X90201022Y-114376347D01*
X90130529Y-114384792D01*
X90072100Y-114358452D01*
X89932792Y-114245642D01*
X89932785Y-114245637D01*
X89606795Y-114033938D01*
X89275559Y-113865165D01*
X89260453Y-113857468D01*
X89260452Y-113857467D01*
X89260451Y-113857467D01*
X89260443Y-113857463D01*
X88897568Y-113718168D01*
X88522097Y-113617561D01*
X88138167Y-113556752D01*
X87750006Y-113536411D01*
X87749994Y-113536411D01*
X87361832Y-113556752D01*
X86977902Y-113617561D01*
X86602431Y-113718168D01*
X86239556Y-113857463D01*
X86239548Y-113857467D01*
X85893205Y-114033938D01*
X85567203Y-114245645D01*
X85567200Y-114245647D01*
X85265137Y-114490253D01*
X85265122Y-114490267D01*
X84990267Y-114765122D01*
X84990253Y-114765137D01*
X84745647Y-115067200D01*
X84745641Y-115067208D01*
X84732172Y-115087950D01*
X84678296Y-115134187D01*
X84607975Y-115143956D01*
X84543535Y-115114155D01*
X84505436Y-115054247D01*
X84500500Y-115019325D01*
X84500500Y-114262484D01*
X84501672Y-114249372D01*
X84493520Y-114239375D01*
X84356607Y-114033938D01*
X84075145Y-113611604D01*
X84013050Y-113518297D01*
X83955970Y-113432527D01*
X83643277Y-112920975D01*
X83608758Y-112864254D01*
X83437965Y-112583610D01*
X83211912Y-112178978D01*
X83162996Y-112091418D01*
X83007173Y-111810345D01*
X82954186Y-111714770D01*
X82705576Y-111225685D01*
X82505387Y-110827360D01*
X82406757Y-110612921D01*
X82279590Y-110336434D01*
X82257984Y-110288722D01*
X82092284Y-109922806D01*
X82085077Y-109905367D01*
X81887885Y-109428225D01*
X81884664Y-109420269D01*
X81715547Y-109002581D01*
X81531913Y-108503715D01*
X81375750Y-108068103D01*
X81212590Y-107564856D01*
X81190468Y-107494271D01*
X81144936Y-107348999D01*
X81143650Y-107278018D01*
X81180945Y-107217606D01*
X81244981Y-107186947D01*
X81280989Y-107187588D01*
X81281067Y-107186731D01*
X81298448Y-107188310D01*
X81355561Y-107193500D01*
X83884438Y-107193499D01*
X83952293Y-107187334D01*
X84108443Y-107138676D01*
X84248411Y-107054062D01*
X84352473Y-106950000D01*
X86811859Y-106950000D01*
X86830366Y-107114252D01*
X86865541Y-107214776D01*
X86884958Y-107270267D01*
X86884959Y-107270269D01*
X86972897Y-107410223D01*
X87089776Y-107527102D01*
X87166006Y-107575000D01*
X87229733Y-107615042D01*
X87385748Y-107669634D01*
X87550000Y-107688141D01*
X87666628Y-107675000D01*
X93011859Y-107675000D01*
X93030366Y-107839252D01*
X93079996Y-107981085D01*
X93084958Y-107995267D01*
X93084959Y-107995269D01*
X93172897Y-108135223D01*
X93289776Y-108252102D01*
X93386920Y-108313141D01*
X93429733Y-108340042D01*
X93585748Y-108394634D01*
X93750000Y-108413141D01*
X93914252Y-108394634D01*
X94070267Y-108340042D01*
X94210223Y-108252102D01*
X94327102Y-108135223D01*
X94415042Y-107995267D01*
X94469634Y-107839252D01*
X94488141Y-107675000D01*
X94476874Y-107575000D01*
X95236859Y-107575000D01*
X95255366Y-107739252D01*
X95273313Y-107790541D01*
X95309958Y-107895267D01*
X95309959Y-107895269D01*
X95397897Y-108035223D01*
X95514776Y-108152102D01*
X95633081Y-108226437D01*
X95654733Y-108240042D01*
X95810748Y-108294634D01*
X95975000Y-108313141D01*
X96139252Y-108294634D01*
X96295267Y-108240042D01*
X96435223Y-108152102D01*
X96552102Y-108035223D01*
X96640042Y-107895267D01*
X96694634Y-107739252D01*
X96710324Y-107600000D01*
X97386859Y-107600000D01*
X97405366Y-107764252D01*
X97439794Y-107862641D01*
X97459958Y-107920267D01*
X97459959Y-107920269D01*
X97547897Y-108060223D01*
X97664776Y-108177102D01*
X97783081Y-108251437D01*
X97804733Y-108265042D01*
X97960748Y-108319634D01*
X98125000Y-108338141D01*
X98289252Y-108319634D01*
X98445267Y-108265042D01*
X98585223Y-108177102D01*
X98702102Y-108060223D01*
X98790042Y-107920267D01*
X98844634Y-107764252D01*
X98854001Y-107681113D01*
X98881503Y-107615664D01*
X98940027Y-107575471D01*
X99010990Y-107573298D01*
X99068303Y-107606129D01*
X99164776Y-107702602D01*
X99262896Y-107764254D01*
X99304733Y-107790542D01*
X99460748Y-107845134D01*
X99625000Y-107863641D01*
X99789252Y-107845134D01*
X99945267Y-107790542D01*
X100085223Y-107702602D01*
X100202102Y-107585723D01*
X100290042Y-107445767D01*
X100344634Y-107289752D01*
X100363141Y-107125500D01*
X100344634Y-106961248D01*
X100290042Y-106805233D01*
X100276437Y-106783581D01*
X100202102Y-106665276D01*
X100085223Y-106548397D01*
X99945269Y-106460459D01*
X99945267Y-106460458D01*
X99942409Y-106459458D01*
X99789252Y-106405866D01*
X99625000Y-106387359D01*
X99460748Y-106405866D01*
X99460745Y-106405866D01*
X99460745Y-106405867D01*
X99304732Y-106460458D01*
X99304730Y-106460459D01*
X99164776Y-106548397D01*
X99047897Y-106665276D01*
X98959959Y-106805230D01*
X98959958Y-106805232D01*
X98907424Y-106955367D01*
X98905366Y-106961248D01*
X98895999Y-107044384D01*
X98868495Y-107109836D01*
X98809971Y-107150029D01*
X98739007Y-107152200D01*
X98681696Y-107119370D01*
X98585223Y-107022897D01*
X98445269Y-106934959D01*
X98445267Y-106934958D01*
X98373821Y-106909958D01*
X98289252Y-106880366D01*
X98125000Y-106861859D01*
X97960748Y-106880366D01*
X97960745Y-106880366D01*
X97960745Y-106880367D01*
X97804732Y-106934958D01*
X97804730Y-106934959D01*
X97664776Y-107022897D01*
X97547897Y-107139776D01*
X97459959Y-107279730D01*
X97459958Y-107279732D01*
X97414115Y-107410745D01*
X97405366Y-107435748D01*
X97386859Y-107600000D01*
X96710324Y-107600000D01*
X96713141Y-107575000D01*
X96694634Y-107410748D01*
X96640042Y-107254733D01*
X96614936Y-107214777D01*
X96552102Y-107114776D01*
X96435223Y-106997897D01*
X96295269Y-106909959D01*
X96295267Y-106909958D01*
X96224578Y-106885223D01*
X96139252Y-106855366D01*
X95975000Y-106836859D01*
X95810748Y-106855366D01*
X95810745Y-106855366D01*
X95810745Y-106855367D01*
X95654732Y-106909958D01*
X95654730Y-106909959D01*
X95514776Y-106997897D01*
X95397897Y-107114776D01*
X95309959Y-107254730D01*
X95309958Y-107254732D01*
X95274967Y-107354732D01*
X95255366Y-107410748D01*
X95236859Y-107575000D01*
X94476874Y-107575000D01*
X94469634Y-107510748D01*
X94415042Y-107354733D01*
X94391786Y-107317721D01*
X94327102Y-107214776D01*
X94210223Y-107097897D01*
X94070269Y-107009959D01*
X94070267Y-107009958D01*
X94035801Y-106997898D01*
X93914252Y-106955366D01*
X93750000Y-106936859D01*
X93585748Y-106955366D01*
X93585745Y-106955366D01*
X93585745Y-106955367D01*
X93429732Y-107009958D01*
X93429730Y-107009959D01*
X93289776Y-107097897D01*
X93172897Y-107214776D01*
X93084959Y-107354730D01*
X93084958Y-107354732D01*
X93033133Y-107502840D01*
X93030366Y-107510748D01*
X93011859Y-107675000D01*
X87666628Y-107675000D01*
X87714252Y-107669634D01*
X87870267Y-107615042D01*
X88010223Y-107527102D01*
X88127102Y-107410223D01*
X88215042Y-107270267D01*
X88269634Y-107114252D01*
X88288141Y-106950000D01*
X88269634Y-106785748D01*
X88215042Y-106629733D01*
X88189787Y-106589540D01*
X88127102Y-106489776D01*
X88010223Y-106372897D01*
X87870269Y-106284959D01*
X87870267Y-106284958D01*
X87714252Y-106230366D01*
X87550000Y-106211859D01*
X87385748Y-106230366D01*
X87385745Y-106230366D01*
X87385745Y-106230367D01*
X87229732Y-106284958D01*
X87229730Y-106284959D01*
X87089776Y-106372897D01*
X86972897Y-106489776D01*
X86884959Y-106629730D01*
X86884958Y-106629732D01*
X86837683Y-106764837D01*
X86830366Y-106785748D01*
X86811859Y-106950000D01*
X84352473Y-106950000D01*
X84364062Y-106938411D01*
X84448676Y-106798443D01*
X84497334Y-106642293D01*
X84503500Y-106574439D01*
X84503499Y-104375000D01*
X86011859Y-104375000D01*
X86030366Y-104539252D01*
X86077130Y-104672897D01*
X86084958Y-104695267D01*
X86084959Y-104695269D01*
X86172897Y-104835223D01*
X86289776Y-104952102D01*
X86397518Y-105019800D01*
X86429733Y-105040042D01*
X86585748Y-105094634D01*
X86750000Y-105113141D01*
X86914252Y-105094634D01*
X87070267Y-105040042D01*
X87210223Y-104952102D01*
X87327102Y-104835223D01*
X87385458Y-104742348D01*
X87438636Y-104695312D01*
X87508803Y-104684491D01*
X87573681Y-104713323D01*
X87598832Y-104742349D01*
X87672897Y-104860222D01*
X87672899Y-104860225D01*
X87789776Y-104977102D01*
X87905792Y-105049999D01*
X87929733Y-105065042D01*
X88085748Y-105119634D01*
X88250000Y-105138141D01*
X88414252Y-105119634D01*
X88570267Y-105065042D01*
X88710223Y-104977102D01*
X88827102Y-104860223D01*
X88902223Y-104740668D01*
X88915037Y-104720275D01*
X88915037Y-104720274D01*
X88915042Y-104720267D01*
X88915045Y-104720258D01*
X88915773Y-104718747D01*
X88916512Y-104717927D01*
X88918807Y-104714276D01*
X88919445Y-104714677D01*
X88963341Y-104666043D01*
X89031853Y-104647423D01*
X89096340Y-104666710D01*
X89141792Y-104695269D01*
X89214044Y-104740668D01*
X89271942Y-104760927D01*
X89329633Y-104802305D01*
X89352252Y-104857705D01*
X89353792Y-104857354D01*
X89355366Y-104864254D01*
X89409958Y-105020267D01*
X89409959Y-105020269D01*
X89497897Y-105160223D01*
X89614776Y-105277102D01*
X89726651Y-105347397D01*
X89754733Y-105365042D01*
X89910748Y-105419634D01*
X90075000Y-105438141D01*
X90239252Y-105419634D01*
X90395267Y-105365042D01*
X90535223Y-105277102D01*
X90535235Y-105277089D01*
X90539944Y-105273335D01*
X90605672Y-105246496D01*
X90675477Y-105259452D01*
X90685543Y-105265150D01*
X90804733Y-105340042D01*
X90960748Y-105394634D01*
X91125000Y-105413141D01*
X91289252Y-105394634D01*
X91445267Y-105340042D01*
X91538071Y-105281729D01*
X91606391Y-105262424D01*
X91672142Y-105281730D01*
X91721410Y-105312687D01*
X91804733Y-105365042D01*
X91960748Y-105419634D01*
X92125000Y-105438141D01*
X92289252Y-105419634D01*
X92445267Y-105365042D01*
X92585223Y-105277102D01*
X92702102Y-105160223D01*
X92783713Y-105030338D01*
X92836890Y-104983303D01*
X92907057Y-104972482D01*
X92971935Y-105001314D01*
X93010926Y-105060646D01*
X93015607Y-105083267D01*
X93018973Y-105113140D01*
X93030366Y-105214252D01*
X93030366Y-105214254D01*
X93030367Y-105214255D01*
X93084958Y-105370267D01*
X93084959Y-105370269D01*
X93172897Y-105510223D01*
X93289776Y-105627102D01*
X93327818Y-105651005D01*
X93429733Y-105715042D01*
X93585748Y-105769634D01*
X93750000Y-105788141D01*
X93914252Y-105769634D01*
X94070267Y-105715042D01*
X94210223Y-105627102D01*
X94327102Y-105510223D01*
X94415042Y-105370267D01*
X94469634Y-105214252D01*
X94488141Y-105050000D01*
X94469634Y-104885748D01*
X94415042Y-104729733D01*
X94389936Y-104689777D01*
X94327102Y-104589776D01*
X94210223Y-104472897D01*
X94070269Y-104384959D01*
X94070267Y-104384958D01*
X94028288Y-104370269D01*
X93914252Y-104330366D01*
X93750000Y-104311859D01*
X93585748Y-104330366D01*
X93585745Y-104330366D01*
X93585744Y-104330367D01*
X93578849Y-104331941D01*
X93578217Y-104329172D01*
X93520090Y-104332099D01*
X93458509Y-104296768D01*
X93425805Y-104233753D01*
X93424255Y-104195472D01*
X93437141Y-104081112D01*
X93418634Y-103916860D01*
X93364042Y-103760845D01*
X93332068Y-103709958D01*
X93276102Y-103620888D01*
X93159223Y-103504009D01*
X93019269Y-103416071D01*
X93019267Y-103416070D01*
X92973084Y-103399910D01*
X92863252Y-103361478D01*
X92699000Y-103342971D01*
X92534748Y-103361478D01*
X92534745Y-103361478D01*
X92534745Y-103361479D01*
X92378732Y-103416070D01*
X92378730Y-103416071D01*
X92238772Y-103504012D01*
X92238541Y-103504197D01*
X92238363Y-103504269D01*
X92232786Y-103507774D01*
X92232171Y-103506796D01*
X92172807Y-103531023D01*
X92103005Y-103518052D01*
X92092958Y-103512363D01*
X91969770Y-103434959D01*
X91969767Y-103434958D01*
X91945595Y-103426500D01*
X91813752Y-103380366D01*
X91649500Y-103361859D01*
X91485248Y-103380366D01*
X91485245Y-103380366D01*
X91485245Y-103380367D01*
X91329232Y-103434958D01*
X91329229Y-103434959D01*
X91191786Y-103521321D01*
X91123465Y-103540627D01*
X91057714Y-103521321D01*
X90920270Y-103434959D01*
X90920267Y-103434958D01*
X90896095Y-103426500D01*
X90764252Y-103380366D01*
X90600000Y-103361859D01*
X90435748Y-103380366D01*
X90435745Y-103380366D01*
X90435745Y-103380367D01*
X90279732Y-103434958D01*
X90150627Y-103516079D01*
X90082306Y-103535384D01*
X90014393Y-103514688D01*
X89994976Y-103498876D01*
X89994534Y-103498523D01*
X89854580Y-103410585D01*
X89854578Y-103410584D01*
X89824073Y-103399910D01*
X89698563Y-103355992D01*
X89534311Y-103337485D01*
X89370059Y-103355992D01*
X89370056Y-103355992D01*
X89370056Y-103355993D01*
X89214043Y-103410584D01*
X89214041Y-103410585D01*
X89074087Y-103498523D01*
X88957208Y-103615402D01*
X88869269Y-103755357D01*
X88868529Y-103756895D01*
X88867786Y-103757717D01*
X88865504Y-103761350D01*
X88864867Y-103760950D01*
X88820952Y-103809592D01*
X88752438Y-103828202D01*
X88687970Y-103808915D01*
X88570270Y-103734959D01*
X88570267Y-103734958D01*
X88555326Y-103729730D01*
X88414252Y-103680366D01*
X88250000Y-103661859D01*
X88085748Y-103680366D01*
X88085745Y-103680366D01*
X88085745Y-103680367D01*
X87929732Y-103734958D01*
X87929730Y-103734959D01*
X87789776Y-103822897D01*
X87672900Y-103939773D01*
X87614541Y-104032651D01*
X87561362Y-104079688D01*
X87491195Y-104090508D01*
X87426317Y-104061675D01*
X87401167Y-104032650D01*
X87327102Y-103914777D01*
X87327100Y-103914774D01*
X87210223Y-103797897D01*
X87070269Y-103709959D01*
X87070267Y-103709958D01*
X87033958Y-103697253D01*
X86914252Y-103655366D01*
X86750000Y-103636859D01*
X86585748Y-103655366D01*
X86585745Y-103655366D01*
X86585745Y-103655367D01*
X86429732Y-103709958D01*
X86429730Y-103709959D01*
X86289776Y-103797897D01*
X86172897Y-103914776D01*
X86084959Y-104054730D01*
X86084958Y-104054732D01*
X86055200Y-104139776D01*
X86030366Y-104210748D01*
X86011859Y-104375000D01*
X84503499Y-104375000D01*
X84503499Y-104045562D01*
X84497334Y-103977707D01*
X84448676Y-103821557D01*
X84364062Y-103681589D01*
X84364061Y-103681588D01*
X84364057Y-103681583D01*
X84248416Y-103565942D01*
X84248411Y-103565938D01*
X84108443Y-103481324D01*
X84081403Y-103472898D01*
X83952293Y-103432666D01*
X83952291Y-103432665D01*
X83952289Y-103432665D01*
X83909099Y-103428740D01*
X83884439Y-103426500D01*
X83884435Y-103426500D01*
X81355564Y-103426500D01*
X81287710Y-103432665D01*
X81131557Y-103481324D01*
X81131556Y-103481324D01*
X80991588Y-103565938D01*
X80991583Y-103565942D01*
X80875942Y-103681583D01*
X80875938Y-103681588D01*
X80791324Y-103821556D01*
X80791324Y-103821557D01*
X80742665Y-103977708D01*
X80742665Y-103977711D01*
X80738559Y-104022898D01*
X80737552Y-104033990D01*
X80736500Y-104045564D01*
X80736500Y-104685052D01*
X80716498Y-104753173D01*
X80662842Y-104799666D01*
X80592568Y-104809770D01*
X80527988Y-104780276D01*
X80489604Y-104720550D01*
X80486911Y-104709584D01*
X80482979Y-104689777D01*
X80480912Y-104679364D01*
X80478458Y-104666043D01*
X80395843Y-104217727D01*
X80314035Y-103700142D01*
X80247609Y-103234626D01*
X80186221Y-102714886D01*
X80138638Y-102246505D01*
X80119151Y-101998396D01*
X80133757Y-101928922D01*
X80183608Y-101878371D01*
X80252875Y-101862795D01*
X80282239Y-101868237D01*
X80407707Y-101907334D01*
X80475561Y-101913500D01*
X83004438Y-101913499D01*
X83072293Y-101907334D01*
X83072294Y-101907333D01*
X83078023Y-101906813D01*
X83147674Y-101920569D01*
X83198831Y-101969798D01*
X83208353Y-101990679D01*
X83209959Y-101995270D01*
X83297897Y-102135223D01*
X83414776Y-102252102D01*
X83486894Y-102297416D01*
X83554733Y-102340042D01*
X83710748Y-102394634D01*
X83875000Y-102413141D01*
X84039252Y-102394634D01*
X84158387Y-102352946D01*
X84229289Y-102349327D01*
X84241599Y-102352942D01*
X84360748Y-102394634D01*
X84525000Y-102413141D01*
X84689252Y-102394634D01*
X84845267Y-102340042D01*
X84985223Y-102252102D01*
X85102102Y-102135223D01*
X85190042Y-101995267D01*
X85244634Y-101839252D01*
X85263141Y-101675000D01*
X85246854Y-101530453D01*
X85259103Y-101460523D01*
X85265375Y-101449310D01*
X85266262Y-101447899D01*
X85315042Y-101370267D01*
X85369634Y-101214252D01*
X85388141Y-101050000D01*
X85369634Y-100885748D01*
X85315042Y-100729733D01*
X85292704Y-100694182D01*
X85227102Y-100589776D01*
X85110223Y-100472897D01*
X84970269Y-100384959D01*
X84970267Y-100384958D01*
X84933384Y-100372052D01*
X84814252Y-100330366D01*
X84650000Y-100311859D01*
X84485747Y-100330366D01*
X84366614Y-100372052D01*
X84295710Y-100375670D01*
X84283386Y-100372052D01*
X84164252Y-100330366D01*
X84000000Y-100311859D01*
X83835748Y-100330366D01*
X83835745Y-100330366D01*
X83835745Y-100330367D01*
X83791114Y-100345984D01*
X83720209Y-100349603D01*
X83658604Y-100314314D01*
X83625858Y-100251321D01*
X83623499Y-100227055D01*
X83623499Y-99781692D01*
X83643501Y-99713571D01*
X83697157Y-99667078D01*
X83767431Y-99656974D01*
X83791109Y-99662762D01*
X83810748Y-99669634D01*
X83975000Y-99688141D01*
X84119546Y-99671854D01*
X84189476Y-99684103D01*
X84200688Y-99690375D01*
X84238692Y-99714254D01*
X84279733Y-99740042D01*
X84435748Y-99794634D01*
X84600000Y-99813141D01*
X84764252Y-99794634D01*
X84920267Y-99740042D01*
X85060223Y-99652102D01*
X85177102Y-99535223D01*
X85265042Y-99395267D01*
X85319634Y-99239252D01*
X85338141Y-99075000D01*
X85319634Y-98910748D01*
X85277946Y-98791612D01*
X85274327Y-98720711D01*
X85277942Y-98708400D01*
X85319634Y-98589252D01*
X85338141Y-98425000D01*
X85319634Y-98260748D01*
X85265042Y-98104733D01*
X85208685Y-98015041D01*
X85177102Y-97964776D01*
X85060223Y-97847897D01*
X84920269Y-97759959D01*
X84920267Y-97759958D01*
X84903443Y-97754071D01*
X84764252Y-97705366D01*
X84600000Y-97686859D01*
X84599999Y-97686859D01*
X84576742Y-97689479D01*
X84455453Y-97703145D01*
X84385524Y-97690897D01*
X84374312Y-97684625D01*
X84295269Y-97634959D01*
X84295267Y-97634958D01*
X84198872Y-97601228D01*
X84139252Y-97580366D01*
X83975000Y-97561859D01*
X83810748Y-97580366D01*
X83810745Y-97580366D01*
X83810745Y-97580367D01*
X83654732Y-97634958D01*
X83654730Y-97634959D01*
X83514776Y-97722897D01*
X83397897Y-97839776D01*
X83309959Y-97979730D01*
X83272231Y-98087549D01*
X83230852Y-98145240D01*
X83164852Y-98171403D01*
X83115819Y-98166229D01*
X83096544Y-98160223D01*
X83072293Y-98152666D01*
X83072290Y-98152665D01*
X83072288Y-98152665D01*
X83031563Y-98148964D01*
X83004439Y-98146500D01*
X83004435Y-98146500D01*
X80475564Y-98146500D01*
X80407709Y-98152665D01*
X80407708Y-98152665D01*
X80277417Y-98193265D01*
X80206431Y-98194434D01*
X80146080Y-98157039D01*
X80115528Y-98092953D01*
X80114320Y-98063115D01*
X80138639Y-97753484D01*
X80186214Y-97285163D01*
X80247610Y-96765361D01*
X80309954Y-96328455D01*
X80339378Y-96263847D01*
X80399063Y-96225400D01*
X80470060Y-96225324D01*
X80529827Y-96263644D01*
X80559388Y-96328194D01*
X80560173Y-96334857D01*
X80562665Y-96362289D01*
X80562665Y-96362291D01*
X80562666Y-96362293D01*
X80602770Y-96490993D01*
X80611324Y-96518442D01*
X80611324Y-96518443D01*
X80695938Y-96658411D01*
X80695942Y-96658416D01*
X80811583Y-96774057D01*
X80811588Y-96774061D01*
X80811589Y-96774062D01*
X80951557Y-96858676D01*
X81107707Y-96907334D01*
X81175561Y-96913500D01*
X83704438Y-96913499D01*
X83772293Y-96907334D01*
X83928443Y-96858676D01*
X84068411Y-96774062D01*
X84184062Y-96658411D01*
X84268676Y-96518443D01*
X84315985Y-96366622D01*
X90753481Y-96366622D01*
X90771988Y-96530874D01*
X90800326Y-96611859D01*
X90826580Y-96686889D01*
X90826581Y-96686891D01*
X90914519Y-96826845D01*
X91031398Y-96943724D01*
X91149703Y-97018059D01*
X91171355Y-97031664D01*
X91327370Y-97086256D01*
X91491622Y-97104763D01*
X91655874Y-97086256D01*
X91811889Y-97031664D01*
X91951845Y-96943724D01*
X91952521Y-96943047D01*
X91953067Y-96942749D01*
X91957378Y-96939312D01*
X91957979Y-96940066D01*
X92014828Y-96909019D01*
X92085644Y-96914077D01*
X92130719Y-96943044D01*
X92134767Y-96947092D01*
X92274723Y-97035032D01*
X92430738Y-97089624D01*
X92594990Y-97108131D01*
X92759242Y-97089624D01*
X92915257Y-97035032D01*
X93055213Y-96947092D01*
X93172092Y-96830213D01*
X93260032Y-96690257D01*
X93314624Y-96534242D01*
X93333131Y-96369990D01*
X93314624Y-96205738D01*
X93260032Y-96049723D01*
X93183361Y-95927701D01*
X93172092Y-95909766D01*
X93055213Y-95792887D01*
X92915259Y-95704949D01*
X92915257Y-95704948D01*
X92905632Y-95701580D01*
X92759242Y-95650356D01*
X92594990Y-95631849D01*
X92430738Y-95650356D01*
X92430735Y-95650356D01*
X92430735Y-95650357D01*
X92274722Y-95704948D01*
X92274720Y-95704949D01*
X92134766Y-95792887D01*
X92134764Y-95792889D01*
X92134077Y-95793577D01*
X92133523Y-95793878D01*
X92129234Y-95797300D01*
X92128634Y-95796548D01*
X92071761Y-95827597D01*
X92000946Y-95822526D01*
X91955891Y-95793566D01*
X91951845Y-95789520D01*
X91951844Y-95789519D01*
X91951842Y-95789517D01*
X91811891Y-95701581D01*
X91811889Y-95701580D01*
X91655874Y-95646988D01*
X91491622Y-95628481D01*
X91327370Y-95646988D01*
X91327367Y-95646988D01*
X91327367Y-95646989D01*
X91171354Y-95701580D01*
X91171352Y-95701581D01*
X91031398Y-95789519D01*
X90914519Y-95906398D01*
X90826581Y-96046352D01*
X90826580Y-96046354D01*
X90782051Y-96173611D01*
X90771988Y-96202370D01*
X90753481Y-96366622D01*
X84315985Y-96366622D01*
X84317334Y-96362293D01*
X84323500Y-96294439D01*
X84323499Y-93765562D01*
X84317334Y-93697707D01*
X84268676Y-93541557D01*
X84184062Y-93401589D01*
X84184061Y-93401588D01*
X84184057Y-93401583D01*
X84068416Y-93285942D01*
X84068411Y-93285938D01*
X83928443Y-93201324D01*
X83901201Y-93192835D01*
X83772293Y-93152666D01*
X83772291Y-93152665D01*
X83772289Y-93152665D01*
X83729099Y-93148740D01*
X83704439Y-93146500D01*
X83704435Y-93146500D01*
X81175560Y-93146500D01*
X81172720Y-93146630D01*
X81172714Y-93146500D01*
X81172707Y-93146501D01*
X81172707Y-93146343D01*
X81172685Y-93145865D01*
X81106144Y-93132718D01*
X81054991Y-93083485D01*
X81038576Y-93014412D01*
X81043114Y-92986868D01*
X81073429Y-92879153D01*
X81212560Y-92435238D01*
X81375748Y-91931902D01*
X81531901Y-91496316D01*
X81650178Y-91175000D01*
X82611859Y-91175000D01*
X82630366Y-91339252D01*
X82630367Y-91339254D01*
X82684958Y-91495267D01*
X82684959Y-91495269D01*
X82772897Y-91635223D01*
X82889772Y-91752098D01*
X82889774Y-91752099D01*
X82889777Y-91752102D01*
X83008691Y-91826820D01*
X83055727Y-91879997D01*
X83066861Y-91919397D01*
X83080366Y-92039252D01*
X83080366Y-92039254D01*
X83080367Y-92039255D01*
X83134958Y-92195267D01*
X83134959Y-92195269D01*
X83222897Y-92335223D01*
X83339776Y-92452102D01*
X83404536Y-92492793D01*
X83479733Y-92540042D01*
X83635748Y-92594634D01*
X83800000Y-92613141D01*
X83964252Y-92594634D01*
X84120267Y-92540042D01*
X84195464Y-92492793D01*
X84263785Y-92473487D01*
X84329536Y-92492793D01*
X84404733Y-92540042D01*
X84560748Y-92594634D01*
X84725000Y-92613141D01*
X84889252Y-92594634D01*
X85045267Y-92540042D01*
X85120464Y-92492793D01*
X85188785Y-92473487D01*
X85254536Y-92492793D01*
X85329733Y-92540042D01*
X85485748Y-92594634D01*
X85650000Y-92613141D01*
X85814252Y-92594634D01*
X85970267Y-92540042D01*
X86110223Y-92452102D01*
X86227102Y-92335223D01*
X86315042Y-92195267D01*
X86369634Y-92039252D01*
X86388141Y-91875000D01*
X86369634Y-91710748D01*
X86315042Y-91554733D01*
X86301437Y-91533081D01*
X86227102Y-91414776D01*
X86110223Y-91297897D01*
X85991309Y-91223179D01*
X85944271Y-91170001D01*
X85933138Y-91130605D01*
X85919634Y-91010748D01*
X85865042Y-90854733D01*
X85807491Y-90763141D01*
X85777102Y-90714776D01*
X85660223Y-90597897D01*
X85520269Y-90509959D01*
X85520267Y-90509958D01*
X85449578Y-90485223D01*
X85364252Y-90455366D01*
X85200000Y-90436859D01*
X85035748Y-90455366D01*
X85035745Y-90455366D01*
X85035745Y-90455367D01*
X84879732Y-90509958D01*
X84804535Y-90557207D01*
X84736214Y-90576512D01*
X84670465Y-90557207D01*
X84595267Y-90509958D01*
X84524578Y-90485223D01*
X84439252Y-90455366D01*
X84275000Y-90436859D01*
X84110748Y-90455366D01*
X84110745Y-90455366D01*
X84110745Y-90455367D01*
X83954732Y-90509958D01*
X83879535Y-90557207D01*
X83811214Y-90576512D01*
X83745465Y-90557207D01*
X83670267Y-90509958D01*
X83599578Y-90485223D01*
X83514252Y-90455366D01*
X83350000Y-90436859D01*
X83185748Y-90455366D01*
X83185745Y-90455366D01*
X83185745Y-90455367D01*
X83029732Y-90509958D01*
X83029730Y-90509959D01*
X82889776Y-90597897D01*
X82772897Y-90714776D01*
X82684959Y-90854730D01*
X82684958Y-90854732D01*
X82630367Y-91010745D01*
X82630366Y-91010748D01*
X82611859Y-91175000D01*
X81650178Y-91175000D01*
X81715552Y-90997402D01*
X81887889Y-90571765D01*
X82092296Y-90077164D01*
X82279579Y-89663589D01*
X82505389Y-89172634D01*
X82705469Y-88774523D01*
X82954185Y-88285231D01*
X83162851Y-87908840D01*
X83437970Y-87416381D01*
X83643068Y-87079366D01*
X83955972Y-86567468D01*
X84075244Y-86388247D01*
X84493276Y-85760988D01*
X84501659Y-85750782D01*
X84500500Y-85737649D01*
X84500500Y-84980675D01*
X84520502Y-84912554D01*
X84574158Y-84866061D01*
X84644432Y-84855957D01*
X84709012Y-84885451D01*
X84732174Y-84912052D01*
X84745641Y-84932790D01*
X84745649Y-84932802D01*
X84990253Y-85234862D01*
X84990267Y-85234877D01*
X85265122Y-85509732D01*
X85265137Y-85509746D01*
X85567197Y-85754350D01*
X85567214Y-85754362D01*
X85729070Y-85859472D01*
X85893205Y-85966062D01*
X86239547Y-86142532D01*
X86239551Y-86142533D01*
X86239556Y-86142536D01*
X86602431Y-86281831D01*
X86602436Y-86281832D01*
X86602438Y-86281833D01*
X86977901Y-86382438D01*
X87361824Y-86443246D01*
X87361826Y-86443246D01*
X87361832Y-86443247D01*
X87749994Y-86463589D01*
X87750000Y-86463589D01*
X87750006Y-86463589D01*
X88138167Y-86443247D01*
X88138171Y-86443246D01*
X88138176Y-86443246D01*
X88522099Y-86382438D01*
X88897562Y-86281833D01*
X88897565Y-86281831D01*
X88897568Y-86281831D01*
X89260443Y-86142536D01*
X89260444Y-86142535D01*
X89260453Y-86142532D01*
X89606795Y-85966062D01*
X89932793Y-85754357D01*
X90082616Y-85633032D01*
X90148141Y-85605707D01*
X90218040Y-85618146D01*
X90270117Y-85666401D01*
X90287839Y-85735150D01*
X90268782Y-85797693D01*
X90230200Y-85859474D01*
X90139118Y-86071761D01*
X90139114Y-86071772D01*
X90081438Y-86295452D01*
X90081437Y-86295457D01*
X90058512Y-86525319D01*
X90058512Y-86525323D01*
X90070872Y-86756000D01*
X90118232Y-86982100D01*
X90118233Y-86982102D01*
X90199486Y-87198350D01*
X90199487Y-87198351D01*
X90293244Y-87365042D01*
X90312733Y-87399690D01*
X90380099Y-87485545D01*
X90455336Y-87581432D01*
X90539639Y-87660347D01*
X91999080Y-89125379D01*
X92752974Y-89882162D01*
X92754478Y-89883671D01*
X92788383Y-89946048D01*
X92783183Y-90016854D01*
X92740528Y-90073608D01*
X92673960Y-90098292D01*
X92630597Y-90093748D01*
X91954139Y-89900475D01*
X91947341Y-89898105D01*
X91908850Y-89882162D01*
X91834407Y-89872361D01*
X91760126Y-89861332D01*
X91760125Y-89861332D01*
X91730480Y-89864739D01*
X91718738Y-89866088D01*
X91711550Y-89866500D01*
X88194018Y-89866500D01*
X88185786Y-89865960D01*
X88150001Y-89861249D01*
X88150000Y-89861249D01*
X88110115Y-89866500D01*
X88094454Y-89868561D01*
X87991151Y-89882161D01*
X87843126Y-89943475D01*
X87843118Y-89943480D01*
X87716014Y-90041011D01*
X87618477Y-90168121D01*
X87557161Y-90316151D01*
X87536249Y-90474999D01*
X87536249Y-90475000D01*
X87540960Y-90510786D01*
X87541500Y-90519018D01*
X87541500Y-92605981D01*
X87540960Y-92614213D01*
X87538917Y-92629732D01*
X87536249Y-92650000D01*
X87541500Y-92689885D01*
X87542863Y-92700236D01*
X87557161Y-92808848D01*
X87618475Y-92956873D01*
X87618480Y-92956881D01*
X87716011Y-93083985D01*
X87716013Y-93083987D01*
X87754007Y-93113141D01*
X87831882Y-93172898D01*
X87843124Y-93181524D01*
X87991150Y-93242838D01*
X88150000Y-93263751D01*
X88150001Y-93263751D01*
X88185786Y-93259040D01*
X88194018Y-93258500D01*
X89967386Y-93258500D01*
X90035507Y-93278502D01*
X90082000Y-93332158D01*
X90092593Y-93398605D01*
X90086859Y-93449500D01*
X90105366Y-93613752D01*
X90131396Y-93688141D01*
X90159958Y-93769767D01*
X90159959Y-93769769D01*
X90247897Y-93909723D01*
X90364776Y-94026602D01*
X90476546Y-94096831D01*
X90504733Y-94114542D01*
X90660748Y-94169134D01*
X90825000Y-94187641D01*
X90989252Y-94169134D01*
X91145267Y-94114542D01*
X91145266Y-94114542D01*
X91151946Y-94112205D01*
X91152403Y-94113512D01*
X91214854Y-94103224D01*
X91247969Y-94112945D01*
X91248054Y-94112705D01*
X91252767Y-94114354D01*
X91254146Y-94114759D01*
X91254729Y-94115040D01*
X91254733Y-94115042D01*
X91410748Y-94169634D01*
X91575000Y-94188141D01*
X91739252Y-94169634D01*
X91895267Y-94115042D01*
X91895272Y-94115038D01*
X91895329Y-94115012D01*
X91895374Y-94115004D01*
X91901946Y-94112705D01*
X91902348Y-94113855D01*
X91965382Y-94103475D01*
X91997938Y-94113035D01*
X91998054Y-94112705D01*
X92004522Y-94114968D01*
X92004671Y-94115012D01*
X92004729Y-94115040D01*
X92004733Y-94115042D01*
X92160748Y-94169634D01*
X92325000Y-94188141D01*
X92489252Y-94169634D01*
X92645267Y-94115042D01*
X92785223Y-94027102D01*
X92902102Y-93910223D01*
X92990042Y-93770267D01*
X93044634Y-93614252D01*
X93063141Y-93450000D01*
X93057350Y-93398606D01*
X93069599Y-93328676D01*
X93117712Y-93276468D01*
X93182558Y-93258500D01*
X95366301Y-93258500D01*
X95382899Y-93260391D01*
X95382925Y-93260130D01*
X95391149Y-93260921D01*
X95391150Y-93260922D01*
X95391150Y-93260921D01*
X95391151Y-93260922D01*
X95460602Y-93258500D01*
X95489886Y-93258500D01*
X95492030Y-93258217D01*
X95497426Y-93257506D01*
X95503454Y-93257004D01*
X95551274Y-93255338D01*
X95569542Y-93249753D01*
X95589925Y-93245329D01*
X95608850Y-93242838D01*
X95653056Y-93224525D01*
X95658724Y-93222490D01*
X95704496Y-93208500D01*
X95720687Y-93198382D01*
X95739241Y-93188828D01*
X95744068Y-93186828D01*
X95756875Y-93181524D01*
X95794840Y-93152390D01*
X95799787Y-93148959D01*
X95806257Y-93144918D01*
X95828849Y-93126295D01*
X95883987Y-93083987D01*
X95883988Y-93083984D01*
X95883991Y-93083983D01*
X95889833Y-93078142D01*
X95890018Y-93078327D01*
X95901621Y-93066310D01*
X99591334Y-90025000D01*
X102986859Y-90025000D01*
X103005366Y-90189252D01*
X103049770Y-90316150D01*
X103059958Y-90345267D01*
X103059959Y-90345269D01*
X103147897Y-90485223D01*
X103264776Y-90602102D01*
X103345884Y-90653065D01*
X103404733Y-90690042D01*
X103560748Y-90744634D01*
X103725000Y-90763141D01*
X103889252Y-90744634D01*
X104045267Y-90690042D01*
X104120464Y-90642793D01*
X104188785Y-90623487D01*
X104254536Y-90642793D01*
X104299192Y-90670852D01*
X104329733Y-90690042D01*
X104485748Y-90744634D01*
X104650000Y-90763141D01*
X104814252Y-90744634D01*
X104970267Y-90690042D01*
X105045464Y-90642793D01*
X105113785Y-90623487D01*
X105179536Y-90642793D01*
X105224192Y-90670852D01*
X105254733Y-90690042D01*
X105410748Y-90744634D01*
X105575000Y-90763141D01*
X105739252Y-90744634D01*
X105895267Y-90690042D01*
X106035223Y-90602102D01*
X106152102Y-90485223D01*
X106240042Y-90345267D01*
X106294634Y-90189252D01*
X106313141Y-90025000D01*
X106294634Y-89860748D01*
X106240042Y-89704733D01*
X106211091Y-89658657D01*
X106152102Y-89564776D01*
X106035223Y-89447897D01*
X105895269Y-89359959D01*
X105895267Y-89359958D01*
X105791870Y-89323778D01*
X105739252Y-89305366D01*
X105575000Y-89286859D01*
X105410748Y-89305366D01*
X105410745Y-89305366D01*
X105410745Y-89305367D01*
X105254732Y-89359958D01*
X105179535Y-89407207D01*
X105111214Y-89426512D01*
X105045465Y-89407207D01*
X104970267Y-89359958D01*
X104866870Y-89323778D01*
X104814252Y-89305366D01*
X104650000Y-89286859D01*
X104485748Y-89305366D01*
X104485745Y-89305366D01*
X104485745Y-89305367D01*
X104329732Y-89359958D01*
X104254535Y-89407207D01*
X104186214Y-89426512D01*
X104120465Y-89407207D01*
X104045267Y-89359958D01*
X103941870Y-89323778D01*
X103889252Y-89305366D01*
X103725000Y-89286859D01*
X103560748Y-89305366D01*
X103560745Y-89305366D01*
X103560745Y-89305367D01*
X103404732Y-89359958D01*
X103404730Y-89359959D01*
X103264776Y-89447897D01*
X103147897Y-89564776D01*
X103059959Y-89704730D01*
X103059958Y-89704732D01*
X103034126Y-89778556D01*
X103005366Y-89860748D01*
X102986859Y-90025000D01*
X99591334Y-90025000D01*
X101803863Y-88201284D01*
X101858987Y-88158987D01*
X101888115Y-88121025D01*
X101892002Y-88116434D01*
X101924649Y-88081428D01*
X101933615Y-88064565D01*
X101944897Y-88047026D01*
X101956524Y-88031875D01*
X101974839Y-87987654D01*
X101977409Y-87982206D01*
X101999874Y-87939964D01*
X102004170Y-87921355D01*
X102010525Y-87901502D01*
X102017838Y-87883850D01*
X102024084Y-87836392D01*
X102025159Y-87830455D01*
X102035922Y-87783850D01*
X102033500Y-87714398D01*
X102033500Y-83006016D01*
X102053502Y-82937895D01*
X102070405Y-82916921D01*
X102152100Y-82835225D01*
X102152102Y-82835223D01*
X102206795Y-82748179D01*
X102237068Y-82700000D01*
X107211859Y-82700000D01*
X107230366Y-82864252D01*
X107230367Y-82864254D01*
X107284958Y-83020267D01*
X107284959Y-83020269D01*
X107372897Y-83160223D01*
X107489772Y-83277098D01*
X107489774Y-83277099D01*
X107489777Y-83277102D01*
X107608691Y-83351820D01*
X107655727Y-83404997D01*
X107666861Y-83444397D01*
X107680366Y-83564252D01*
X107680366Y-83564254D01*
X107680367Y-83564255D01*
X107734958Y-83720267D01*
X107734959Y-83720269D01*
X107822897Y-83860223D01*
X107939776Y-83977102D01*
X108004536Y-84017793D01*
X108079733Y-84065042D01*
X108235748Y-84119634D01*
X108400000Y-84138141D01*
X108564252Y-84119634D01*
X108720267Y-84065042D01*
X108795464Y-84017793D01*
X108863785Y-83998487D01*
X108929536Y-84017793D01*
X109004733Y-84065042D01*
X109160748Y-84119634D01*
X109325000Y-84138141D01*
X109489252Y-84119634D01*
X109645267Y-84065042D01*
X109720464Y-84017793D01*
X109788785Y-83998487D01*
X109854536Y-84017793D01*
X109929733Y-84065042D01*
X110085748Y-84119634D01*
X110250000Y-84138141D01*
X110414252Y-84119634D01*
X110570267Y-84065042D01*
X110710223Y-83977102D01*
X110827102Y-83860223D01*
X110915042Y-83720267D01*
X110969634Y-83564252D01*
X110988141Y-83400000D01*
X110969634Y-83235748D01*
X110915042Y-83079733D01*
X110901437Y-83058081D01*
X110827102Y-82939776D01*
X110710223Y-82822897D01*
X110591309Y-82748179D01*
X110544271Y-82695001D01*
X110533138Y-82655605D01*
X110519634Y-82535748D01*
X110465042Y-82379733D01*
X110451437Y-82358081D01*
X110377102Y-82239776D01*
X110260223Y-82122897D01*
X110120269Y-82034959D01*
X110120267Y-82034958D01*
X109964252Y-81980366D01*
X109800000Y-81961859D01*
X109635748Y-81980366D01*
X109635745Y-81980366D01*
X109635745Y-81980367D01*
X109479732Y-82034958D01*
X109404535Y-82082207D01*
X109336214Y-82101512D01*
X109270465Y-82082207D01*
X109195267Y-82034958D01*
X109039252Y-81980366D01*
X108875000Y-81961859D01*
X108710748Y-81980366D01*
X108710745Y-81980366D01*
X108710745Y-81980367D01*
X108554732Y-82034958D01*
X108479535Y-82082207D01*
X108411214Y-82101512D01*
X108345465Y-82082207D01*
X108270267Y-82034958D01*
X108114252Y-81980366D01*
X107950000Y-81961859D01*
X107785748Y-81980366D01*
X107785745Y-81980366D01*
X107785745Y-81980367D01*
X107629732Y-82034958D01*
X107629730Y-82034959D01*
X107489776Y-82122897D01*
X107372897Y-82239776D01*
X107284959Y-82379730D01*
X107284958Y-82379732D01*
X107284958Y-82379733D01*
X107230366Y-82535748D01*
X107211859Y-82700000D01*
X102237068Y-82700000D01*
X102240042Y-82695267D01*
X102294634Y-82539252D01*
X102313141Y-82375000D01*
X102294634Y-82210748D01*
X102240042Y-82054733D01*
X102191766Y-81977902D01*
X102152102Y-81914776D01*
X102070405Y-81833079D01*
X102036379Y-81770767D01*
X102033500Y-81743984D01*
X102033500Y-81344018D01*
X102034040Y-81335786D01*
X102038751Y-81300000D01*
X102038751Y-81299999D01*
X102017838Y-81141151D01*
X101956524Y-80993126D01*
X101956524Y-80993125D01*
X101858987Y-80866013D01*
X101855081Y-80863016D01*
X101742311Y-80776483D01*
X101731878Y-80768477D01*
X101731873Y-80768475D01*
X101583850Y-80707162D01*
X101583848Y-80707161D01*
X101425000Y-80686249D01*
X101424999Y-80686249D01*
X101389214Y-80690960D01*
X101380982Y-80691500D01*
X98819018Y-80691500D01*
X98810786Y-80690960D01*
X98775001Y-80686249D01*
X98775000Y-80686249D01*
X98735115Y-80691500D01*
X98719454Y-80693561D01*
X98616151Y-80707161D01*
X98468126Y-80768475D01*
X98468118Y-80768480D01*
X98341014Y-80866011D01*
X98243477Y-80993121D01*
X98182161Y-81141151D01*
X98161249Y-81299999D01*
X98161249Y-81300000D01*
X98165960Y-81335786D01*
X98166500Y-81344018D01*
X98166500Y-83774984D01*
X98146498Y-83843105D01*
X98092842Y-83889598D01*
X98022568Y-83899702D01*
X97957988Y-83870208D01*
X97951405Y-83864079D01*
X97910223Y-83822897D01*
X97770269Y-83734959D01*
X97770267Y-83734958D01*
X97728288Y-83720269D01*
X97614252Y-83680366D01*
X97450000Y-83661859D01*
X97285748Y-83680366D01*
X97285745Y-83680366D01*
X97285745Y-83680367D01*
X97129732Y-83734958D01*
X97129730Y-83734959D01*
X96989776Y-83822897D01*
X96872899Y-83939774D01*
X96872897Y-83939777D01*
X96798179Y-84058690D01*
X96745000Y-84105728D01*
X96705601Y-84116861D01*
X96585748Y-84130366D01*
X96585745Y-84130366D01*
X96585745Y-84130367D01*
X96429732Y-84184958D01*
X96429730Y-84184959D01*
X96289776Y-84272897D01*
X96172897Y-84389776D01*
X96084959Y-84529730D01*
X96084958Y-84529732D01*
X96069745Y-84573208D01*
X96030366Y-84685748D01*
X96011859Y-84850000D01*
X96030366Y-85014252D01*
X96051757Y-85075383D01*
X96084958Y-85170267D01*
X96132207Y-85245465D01*
X96151512Y-85313786D01*
X96132207Y-85379535D01*
X96084958Y-85454732D01*
X96042282Y-85576694D01*
X96030366Y-85610748D01*
X96011859Y-85775000D01*
X96030366Y-85939252D01*
X96030367Y-85939254D01*
X96084958Y-86095267D01*
X96132207Y-86170465D01*
X96151512Y-86238786D01*
X96132207Y-86304535D01*
X96084958Y-86379732D01*
X96035314Y-86521607D01*
X96030366Y-86535748D01*
X96011859Y-86700000D01*
X96030366Y-86864252D01*
X96071966Y-86983137D01*
X96084958Y-87020267D01*
X96084959Y-87020269D01*
X96172897Y-87160223D01*
X96289776Y-87277102D01*
X96408081Y-87351437D01*
X96429733Y-87365042D01*
X96585748Y-87419634D01*
X96750000Y-87438141D01*
X96914252Y-87419634D01*
X97070267Y-87365042D01*
X97210223Y-87277102D01*
X97327102Y-87160223D01*
X97401822Y-87041306D01*
X97454996Y-86994272D01*
X97494390Y-86983139D01*
X97614252Y-86969634D01*
X97770267Y-86915042D01*
X97910223Y-86827102D01*
X97910225Y-86827100D01*
X97951405Y-86785921D01*
X98013717Y-86751895D01*
X98084532Y-86756960D01*
X98141368Y-86799507D01*
X98166179Y-86866027D01*
X98166500Y-86875016D01*
X98166500Y-87699349D01*
X98146498Y-87767470D01*
X98119727Y-87797324D01*
X96000874Y-89510717D01*
X95935327Y-89537997D01*
X95865438Y-89525510D01*
X95813394Y-89477219D01*
X95795679Y-89409917D01*
X95795861Y-89401824D01*
X95800203Y-89208154D01*
X95770051Y-88978776D01*
X95705267Y-88756681D01*
X95607368Y-88547064D01*
X95478643Y-88354832D01*
X95438795Y-88311474D01*
X95407283Y-88277185D01*
X95405112Y-88274405D01*
X95400424Y-88269718D01*
X95400424Y-88269717D01*
X95400353Y-88269646D01*
X95400030Y-88269294D01*
X95400029Y-88269294D01*
X95378663Y-88246008D01*
X95366016Y-88235188D01*
X92674994Y-85534625D01*
X92596452Y-85449957D01*
X92480700Y-85358286D01*
X92415356Y-85306536D01*
X92415354Y-85306535D01*
X92214533Y-85192383D01*
X92214523Y-85192378D01*
X92131464Y-85160741D01*
X91998649Y-85110152D01*
X91998650Y-85110152D01*
X91885707Y-85085962D01*
X91772765Y-85061772D01*
X91542146Y-85048371D01*
X91542144Y-85048371D01*
X91542143Y-85048371D01*
X91542138Y-85048371D01*
X91312178Y-85070259D01*
X91088228Y-85126927D01*
X90875527Y-85217051D01*
X90875526Y-85217052D01*
X90803066Y-85261850D01*
X90734606Y-85280659D01*
X90666845Y-85259469D01*
X90621297Y-85205009D01*
X90612423Y-85134569D01*
X90638886Y-85075386D01*
X90754357Y-84932793D01*
X90966062Y-84606795D01*
X91142532Y-84260453D01*
X91156531Y-84223984D01*
X91281831Y-83897568D01*
X91281833Y-83897562D01*
X91382438Y-83522099D01*
X91443246Y-83138176D01*
X91443246Y-83138171D01*
X91443247Y-83138167D01*
X91463589Y-82750006D01*
X91463589Y-82749993D01*
X91443247Y-82361832D01*
X91419317Y-82210748D01*
X91382438Y-81977901D01*
X91281833Y-81602438D01*
X91281832Y-81602436D01*
X91281831Y-81602431D01*
X91142536Y-81239556D01*
X91142532Y-81239548D01*
X91142532Y-81239547D01*
X90966062Y-80893206D01*
X90754357Y-80567207D01*
X90754354Y-80567203D01*
X90754352Y-80567200D01*
X90509746Y-80265137D01*
X90509732Y-80265122D01*
X90234877Y-79990267D01*
X90234862Y-79990253D01*
X89932802Y-79745649D01*
X89932780Y-79745634D01*
X89912051Y-79732172D01*
X89865814Y-79678296D01*
X89856045Y-79607975D01*
X89885846Y-79543535D01*
X89945754Y-79505436D01*
X89980676Y-79500500D01*
X90737335Y-79500500D01*
X90750896Y-79501734D01*
X90761547Y-79492994D01*
X91397027Y-79074499D01*
X91569347Y-78961177D01*
X92084847Y-78649685D01*
X92416769Y-78450000D01*
X101195662Y-78450000D01*
X101214586Y-78702531D01*
X101270937Y-78949416D01*
X101270938Y-78949418D01*
X101363454Y-79185148D01*
X101490069Y-79404451D01*
X101490071Y-79404454D01*
X101490072Y-79404455D01*
X101501257Y-79418480D01*
X101647965Y-79602447D01*
X101762817Y-79709012D01*
X101833598Y-79774687D01*
X102042831Y-79917340D01*
X102174365Y-79980683D01*
X102270984Y-80027213D01*
X102270997Y-80027218D01*
X102512963Y-80101854D01*
X102512965Y-80101854D01*
X102512974Y-80101857D01*
X102763382Y-80139600D01*
X102763386Y-80139600D01*
X103016614Y-80139600D01*
X103016618Y-80139600D01*
X103267026Y-80101857D01*
X103267036Y-80101854D01*
X103509002Y-80027218D01*
X103509004Y-80027216D01*
X103509011Y-80027215D01*
X103737169Y-79917340D01*
X103946402Y-79774687D01*
X104132038Y-79602443D01*
X104289928Y-79404455D01*
X104416546Y-79185146D01*
X104509063Y-78949415D01*
X104565414Y-78702528D01*
X104584338Y-78450000D01*
X106195662Y-78450000D01*
X106214586Y-78702531D01*
X106270937Y-78949416D01*
X106270938Y-78949418D01*
X106363454Y-79185148D01*
X106490069Y-79404451D01*
X106490071Y-79404454D01*
X106490072Y-79404455D01*
X106501257Y-79418480D01*
X106647965Y-79602447D01*
X106762817Y-79709012D01*
X106833598Y-79774687D01*
X107042831Y-79917340D01*
X107174365Y-79980683D01*
X107270984Y-80027213D01*
X107270997Y-80027218D01*
X107512963Y-80101854D01*
X107512965Y-80101854D01*
X107512974Y-80101857D01*
X107763382Y-80139600D01*
X107763386Y-80139600D01*
X108016614Y-80139600D01*
X108016618Y-80139600D01*
X108267026Y-80101857D01*
X108267036Y-80101854D01*
X108509002Y-80027218D01*
X108509004Y-80027216D01*
X108509011Y-80027215D01*
X108737169Y-79917340D01*
X108946402Y-79774687D01*
X109132038Y-79602443D01*
X109289928Y-79404455D01*
X109416546Y-79185146D01*
X109509063Y-78949415D01*
X109565414Y-78702528D01*
X109584338Y-78450000D01*
X109565414Y-78197472D01*
X109509063Y-77950585D01*
X109443560Y-77783686D01*
X109416545Y-77714851D01*
X109289930Y-77495548D01*
X109161221Y-77334152D01*
X109132038Y-77297557D01*
X109132037Y-77297556D01*
X109132034Y-77297552D01*
X108987004Y-77162986D01*
X108946402Y-77125313D01*
X108932167Y-77115608D01*
X108876657Y-77077762D01*
X108737171Y-76982661D01*
X108509015Y-76872786D01*
X108509002Y-76872781D01*
X108267036Y-76798145D01*
X108267028Y-76798143D01*
X108267026Y-76798143D01*
X108016618Y-76760400D01*
X107763382Y-76760400D01*
X107512974Y-76798143D01*
X107512972Y-76798143D01*
X107512963Y-76798145D01*
X107270997Y-76872781D01*
X107270984Y-76872786D01*
X107042828Y-76982661D01*
X107042828Y-76982662D01*
X106833598Y-77125312D01*
X106833592Y-77125318D01*
X106647965Y-77297552D01*
X106490069Y-77495548D01*
X106363454Y-77714851D01*
X106270938Y-77950581D01*
X106270937Y-77950583D01*
X106214586Y-78197468D01*
X106195662Y-78450000D01*
X104584338Y-78450000D01*
X104565414Y-78197472D01*
X104509063Y-77950585D01*
X104443560Y-77783686D01*
X104416545Y-77714851D01*
X104289930Y-77495548D01*
X104161221Y-77334152D01*
X104132038Y-77297557D01*
X104132037Y-77297556D01*
X104132034Y-77297552D01*
X103987004Y-77162986D01*
X103946402Y-77125313D01*
X103932167Y-77115608D01*
X103876657Y-77077762D01*
X103737171Y-76982661D01*
X103509015Y-76872786D01*
X103509002Y-76872781D01*
X103267036Y-76798145D01*
X103267028Y-76798143D01*
X103267026Y-76798143D01*
X103016618Y-76760400D01*
X102763382Y-76760400D01*
X102512974Y-76798143D01*
X102512972Y-76798143D01*
X102512963Y-76798145D01*
X102270997Y-76872781D01*
X102270984Y-76872786D01*
X102042828Y-76982661D01*
X102042828Y-76982662D01*
X101833598Y-77125312D01*
X101833592Y-77125318D01*
X101647965Y-77297552D01*
X101490069Y-77495548D01*
X101363454Y-77714851D01*
X101270938Y-77950581D01*
X101270937Y-77950583D01*
X101214586Y-78197468D01*
X101195662Y-78450000D01*
X92416769Y-78450000D01*
X92419901Y-78448116D01*
X92914698Y-78174770D01*
X93290008Y-77969015D01*
X93780921Y-77722180D01*
X94178324Y-77524613D01*
X94670635Y-77300575D01*
X95083424Y-77115619D01*
X95579050Y-76912907D01*
X96003930Y-76742649D01*
X96503612Y-76560580D01*
X96938469Y-76406263D01*
X97442298Y-76244543D01*
X97885446Y-76107030D01*
X98393372Y-75965489D01*
X98843466Y-75845383D01*
X99355150Y-75723985D01*
X99811039Y-75621728D01*
X100325965Y-75520496D01*
X100786586Y-75436422D01*
X101304314Y-75355368D01*
X101768700Y-75289729D01*
X102288585Y-75228901D01*
X102755794Y-75181885D01*
X103277215Y-75141316D01*
X103746293Y-75113054D01*
X104268658Y-75092763D01*
X104738656Y-75083335D01*
X105261344Y-75083335D01*
X105731344Y-75092763D01*
G37*
%TD.AperFunction*%
%TA.AperFunction,Conductor*%
G36*
X102421482Y-105820598D02*
G01*
X102483306Y-105824376D01*
X102540580Y-105866331D01*
X102566079Y-105932591D01*
X102566500Y-105942882D01*
X102566500Y-106428264D01*
X102557716Y-106474485D01*
X102552278Y-106488274D01*
X102552277Y-106488279D01*
X102550417Y-106506371D01*
X102546407Y-106527473D01*
X102541500Y-106544988D01*
X102541500Y-106589883D01*
X102541169Y-106596331D01*
X102536576Y-106640997D01*
X102539668Y-106658926D01*
X102541500Y-106680334D01*
X102541500Y-107116469D01*
X102521498Y-107184590D01*
X102504595Y-107205564D01*
X102348595Y-107361564D01*
X102286283Y-107395590D01*
X102215468Y-107390525D01*
X102158632Y-107347978D01*
X102133821Y-107281458D01*
X102133500Y-107272469D01*
X102133500Y-105963867D01*
X102153502Y-105895746D01*
X102207158Y-105849253D01*
X102245393Y-105838659D01*
X102249995Y-105838140D01*
X102250000Y-105838141D01*
X102414252Y-105819634D01*
X102414254Y-105819632D01*
X102421284Y-105818841D01*
X102421482Y-105820598D01*
G37*
%TD.AperFunction*%
%TA.AperFunction,Conductor*%
G36*
X102021088Y-93511408D02*
G01*
X102038852Y-93526178D01*
X102039776Y-93527102D01*
X102129534Y-93583500D01*
X102179733Y-93615042D01*
X102335748Y-93669634D01*
X102500000Y-93688141D01*
X102649890Y-93671252D01*
X102719816Y-93683500D01*
X102770681Y-93729424D01*
X102783422Y-93749702D01*
X102900299Y-93866579D01*
X102968963Y-93909723D01*
X103040256Y-93954519D01*
X103196271Y-94009111D01*
X103360523Y-94027618D01*
X103524775Y-94009111D01*
X103595991Y-93984190D01*
X103666891Y-93980571D01*
X103726699Y-94014025D01*
X103789776Y-94077102D01*
X103908081Y-94151437D01*
X103929733Y-94165042D01*
X104085748Y-94219634D01*
X104147926Y-94226639D01*
X104213378Y-94254141D01*
X104222914Y-94262752D01*
X104244595Y-94284433D01*
X104278621Y-94346745D01*
X104281500Y-94373528D01*
X104281500Y-97704160D01*
X104261498Y-97772281D01*
X104207842Y-97818774D01*
X104169612Y-97829367D01*
X104160751Y-97830365D01*
X104160745Y-97830366D01*
X104004732Y-97884958D01*
X104004730Y-97884959D01*
X103864776Y-97972897D01*
X103747897Y-98089776D01*
X103659959Y-98229730D01*
X103659958Y-98229732D01*
X103627358Y-98322898D01*
X103605366Y-98385748D01*
X103586859Y-98550000D01*
X103605366Y-98714252D01*
X103649382Y-98840042D01*
X103659958Y-98870267D01*
X103707207Y-98945465D01*
X103726512Y-99013786D01*
X103707207Y-99079535D01*
X103659958Y-99154732D01*
X103612463Y-99290465D01*
X103605366Y-99310748D01*
X103586859Y-99475000D01*
X103605366Y-99639252D01*
X103611567Y-99656974D01*
X103659958Y-99795267D01*
X103707207Y-99870465D01*
X103726512Y-99938786D01*
X103707207Y-100004535D01*
X103659958Y-100079732D01*
X103625457Y-100178331D01*
X103605366Y-100235748D01*
X103586859Y-100400000D01*
X103605366Y-100564252D01*
X103659958Y-100720266D01*
X103659958Y-100720267D01*
X103659959Y-100720269D01*
X103747897Y-100860223D01*
X103864776Y-100977102D01*
X103980160Y-101049602D01*
X104027198Y-101102780D01*
X104038018Y-101172947D01*
X104009185Y-101237826D01*
X103949854Y-101276817D01*
X103941170Y-101279128D01*
X103935749Y-101280365D01*
X103779732Y-101334958D01*
X103779729Y-101334959D01*
X103645295Y-101419430D01*
X103576974Y-101438736D01*
X103509060Y-101418040D01*
X103489164Y-101401838D01*
X103485223Y-101397897D01*
X103345269Y-101309959D01*
X103345267Y-101309958D01*
X103345258Y-101309955D01*
X103189252Y-101255366D01*
X103025000Y-101236859D01*
X102860748Y-101255366D01*
X102860745Y-101255366D01*
X102860745Y-101255367D01*
X102704732Y-101309958D01*
X102704730Y-101309959D01*
X102564776Y-101397897D01*
X102447897Y-101514776D01*
X102359957Y-101654732D01*
X102357815Y-101659182D01*
X102310238Y-101711878D01*
X102241723Y-101730487D01*
X102174025Y-101709100D01*
X102155198Y-101693608D01*
X100636589Y-100175000D01*
X101861859Y-100175000D01*
X101880366Y-100339252D01*
X101880367Y-100339254D01*
X101934958Y-100495267D01*
X101934959Y-100495269D01*
X102022897Y-100635223D01*
X102139776Y-100752102D01*
X102220553Y-100802857D01*
X102279733Y-100840042D01*
X102435748Y-100894634D01*
X102600000Y-100913141D01*
X102764252Y-100894634D01*
X102920267Y-100840042D01*
X103060223Y-100752102D01*
X103177102Y-100635223D01*
X103265042Y-100495267D01*
X103319634Y-100339252D01*
X103338141Y-100175000D01*
X103319634Y-100010748D01*
X103265042Y-99854733D01*
X103238908Y-99813141D01*
X103177102Y-99714776D01*
X103060223Y-99597897D01*
X102920269Y-99509959D01*
X102920267Y-99509958D01*
X102867271Y-99491414D01*
X102764252Y-99455366D01*
X102600000Y-99436859D01*
X102435748Y-99455366D01*
X102435745Y-99455366D01*
X102435745Y-99455367D01*
X102279732Y-99509958D01*
X102279730Y-99509959D01*
X102139776Y-99597897D01*
X102022897Y-99714776D01*
X101934959Y-99854730D01*
X101934958Y-99854732D01*
X101905200Y-99939777D01*
X101880366Y-100010748D01*
X101861859Y-100175000D01*
X100636589Y-100175000D01*
X100002141Y-99540552D01*
X99997164Y-99535223D01*
X99956249Y-99491414D01*
X99956248Y-99491413D01*
X99956247Y-99491412D01*
X99917890Y-99468086D01*
X99912555Y-99464455D01*
X99876773Y-99437321D01*
X99876704Y-99437282D01*
X99876652Y-99437229D01*
X99869907Y-99432114D01*
X99870674Y-99431101D01*
X99827126Y-99386463D01*
X99812894Y-99316908D01*
X99838525Y-99250700D01*
X99895883Y-99208859D01*
X99952556Y-99202242D01*
X100053721Y-99213641D01*
X100217973Y-99195134D01*
X100373988Y-99140542D01*
X100513944Y-99052602D01*
X100630823Y-98935723D01*
X100718763Y-98795767D01*
X100773355Y-98639752D01*
X100791862Y-98475500D01*
X100773355Y-98311248D01*
X100718763Y-98155233D01*
X100664415Y-98068739D01*
X100645110Y-98000419D01*
X100645893Y-97987619D01*
X100662641Y-97838984D01*
X100644134Y-97674732D01*
X100602533Y-97555845D01*
X100598914Y-97484943D01*
X100602528Y-97472634D01*
X100644134Y-97353733D01*
X100662641Y-97189481D01*
X100644134Y-97025229D01*
X100602533Y-96906342D01*
X100598914Y-96835440D01*
X100602528Y-96823131D01*
X100644134Y-96704230D01*
X100662641Y-96539978D01*
X100644134Y-96375726D01*
X100602533Y-96256839D01*
X100598914Y-96185937D01*
X100602528Y-96173628D01*
X100644134Y-96054727D01*
X100662641Y-95890475D01*
X100644134Y-95726223D01*
X100589542Y-95570208D01*
X100565889Y-95532564D01*
X100546584Y-95464242D01*
X100565890Y-95398493D01*
X100615039Y-95320271D01*
X100615042Y-95320267D01*
X100637210Y-95256911D01*
X100678586Y-95199224D01*
X100744586Y-95173061D01*
X100814254Y-95186733D01*
X100854647Y-95219968D01*
X100858423Y-95224703D01*
X100975299Y-95341579D01*
X101065878Y-95398493D01*
X101115256Y-95429519D01*
X101271271Y-95484111D01*
X101435523Y-95502618D01*
X101599775Y-95484111D01*
X101755790Y-95429519D01*
X101895746Y-95341579D01*
X102012625Y-95224700D01*
X102100565Y-95084744D01*
X102155157Y-94928729D01*
X102173664Y-94764477D01*
X102155157Y-94600225D01*
X102100565Y-94444210D01*
X102056153Y-94373528D01*
X102012625Y-94304253D01*
X101895746Y-94187374D01*
X101840087Y-94152402D01*
X101793049Y-94099224D01*
X101782229Y-94029057D01*
X101788191Y-94004109D01*
X101819634Y-93914252D01*
X101838141Y-93750000D01*
X101824549Y-93629377D01*
X101836798Y-93559450D01*
X101884910Y-93507241D01*
X101953611Y-93489332D01*
X102021088Y-93511408D01*
G37*
%TD.AperFunction*%
%TA.AperFunction,Conductor*%
G36*
X112967012Y-90575628D02*
G01*
X112995621Y-90611456D01*
X113002052Y-90623487D01*
X113004374Y-90627831D01*
X113075300Y-90714255D01*
X113130401Y-90781395D01*
X113166500Y-90811021D01*
X113171069Y-90815161D01*
X113608601Y-91252693D01*
X114007696Y-91651788D01*
X114041722Y-91714100D01*
X114036657Y-91784915D01*
X114007696Y-91829978D01*
X113922899Y-91914774D01*
X113922897Y-91914776D01*
X113834959Y-92054730D01*
X113834958Y-92054732D01*
X113788690Y-92186960D01*
X113780366Y-92210748D01*
X113761859Y-92375000D01*
X113780366Y-92539252D01*
X113805162Y-92610114D01*
X113834958Y-92695267D01*
X113834959Y-92695269D01*
X113922897Y-92835223D01*
X114039776Y-92952102D01*
X114095097Y-92986862D01*
X114179733Y-93040042D01*
X114335748Y-93094634D01*
X114500000Y-93113141D01*
X114664252Y-93094634D01*
X114820267Y-93040042D01*
X114960223Y-92952102D01*
X115077102Y-92835223D01*
X115146569Y-92724666D01*
X115199743Y-92677632D01*
X115269910Y-92666811D01*
X115334789Y-92695643D01*
X115342348Y-92702610D01*
X118622409Y-95982671D01*
X118656435Y-96044983D01*
X118651370Y-96115798D01*
X118608823Y-96172634D01*
X118542303Y-96197445D01*
X118519210Y-96196974D01*
X118425000Y-96186359D01*
X118260748Y-96204866D01*
X118260745Y-96204866D01*
X118260745Y-96204867D01*
X118104733Y-96259457D01*
X118104732Y-96259458D01*
X118104526Y-96259588D01*
X118104373Y-96259631D01*
X118098358Y-96262528D01*
X118097850Y-96261473D01*
X118036203Y-96278887D01*
X117977118Y-96261538D01*
X117976642Y-96262528D01*
X117970635Y-96259635D01*
X117970474Y-96259588D01*
X117970267Y-96259458D01*
X117970266Y-96259457D01*
X117863535Y-96222111D01*
X117814252Y-96204866D01*
X117650000Y-96186359D01*
X117485748Y-96204866D01*
X117485745Y-96204866D01*
X117485745Y-96204867D01*
X117329735Y-96259457D01*
X117329733Y-96259457D01*
X117329733Y-96259458D01*
X117304934Y-96275040D01*
X117304931Y-96275042D01*
X117236609Y-96294346D01*
X117170862Y-96275040D01*
X117148076Y-96260723D01*
X117145264Y-96258956D01*
X117020288Y-96215226D01*
X116989252Y-96204366D01*
X116825000Y-96185859D01*
X116660748Y-96204366D01*
X116660745Y-96204366D01*
X116660745Y-96204367D01*
X116504733Y-96258957D01*
X116504732Y-96258958D01*
X116450598Y-96292973D01*
X116382276Y-96312279D01*
X116314363Y-96291583D01*
X116294467Y-96275381D01*
X112555431Y-92536345D01*
X112521405Y-92474033D01*
X112526470Y-92403218D01*
X112569017Y-92346382D01*
X112613261Y-92313261D01*
X112700887Y-92196207D01*
X112700887Y-92196206D01*
X112700889Y-92196204D01*
X112751989Y-92059201D01*
X112752470Y-92054733D01*
X112758499Y-91998649D01*
X112758500Y-91998632D01*
X112758500Y-90670852D01*
X112778502Y-90602731D01*
X112832158Y-90556238D01*
X112902432Y-90546134D01*
X112967012Y-90575628D01*
G37*
%TD.AperFunction*%
%TD*%
M02*
