M48
; DRILL file {KiCad 7.0.9} date Mon Feb 12 03:50:36 2024
; FORMAT={-:-/ absolute / inch / decimal}
; #@! TF.CreationDate,2024-02-12T03:50:36+01:00
; #@! TF.GenerationSoftware,Kicad,Pcbnew,7.0.9
; #@! TF.FileFunction,Plated,1,6,PTH
FMAT,2
INCH
; #@! TA.AperFunction,Plated,PTH,ViaDrill
T1C0.0079
; #@! TA.AperFunction,Plated,PTH,ComponentDrill
T2C0.0197
; #@! TA.AperFunction,Plated,PTH,ComponentDrill
T3C0.0236
; #@! TA.AperFunction,Plated,PTH,ComponentDrill
T4C0.0394
; #@! TA.AperFunction,Plated,PTH,ComponentDrill
T5C0.0730
; #@! TA.AperFunction,Plated,PTH,ComponentDrill
T6C0.0787
; #@! TA.AperFunction,Plated,PTH,ComponentDrill
T7C0.1260
%
G90
G05
T1
X3.2815Y-3.5896
X3.2992Y-3.6171
X3.3022Y-4.003
X3.3061Y-3.8701
X3.3061Y-3.8957
X3.3071Y-3.9783
X3.3179Y-3.5896
X3.3278Y-4.003
X3.3307Y-3.875
X3.3307Y-3.9006
X3.3327Y-3.9783
X3.3356Y-3.6171
X3.3543Y-3.5896
X3.372Y-3.6171
X3.4154Y-4.1093
X3.4469Y-4.2106
X3.4744Y-4.1102
X3.4872Y-4.2087
X3.4902Y-3.5906
X3.5079Y-3.6181
X3.525Y-4.0975
X3.5266Y-3.5906
X3.5443Y-3.6181
X3.5463Y-4.122
X3.563Y-3.5906
X3.5669Y-4.0984
X3.5758Y-3.6791
X3.5807Y-3.6181
X3.5876Y-4.1211
X3.602Y-3.794
X3.6053Y-3.6791
X3.6082Y-4.0984
X3.627Y-4.122
X3.6348Y-3.6791
X3.6455Y-3.7941
X3.6496Y-4.0977
X3.6909Y-4.1358
X3.6909Y-4.2392
X3.7421Y-3.8327
X3.7431Y-4.0069
X3.7431Y-4.0344
X3.7438Y-3.8894
X3.7439Y-3.8601
X3.7441Y-3.9193
X3.7441Y-3.9488
X3.7441Y-3.9783
X3.7717Y-3.2136
X3.7776Y-4.1398
X3.7785Y-4.2352
X3.801Y-4.0691
X3.8091Y-3.3406
X3.8091Y-3.377
X3.8091Y-3.4134
X3.8366Y-3.3228
X3.8366Y-3.3593
X3.8366Y-3.3957
X3.8632Y-4.2362
X3.8642Y-4.1358
X3.8701Y-3.8742
X3.8701Y-3.9104
X3.9085Y-3.2156
X3.9133Y-4.004
X3.9134Y-4.0296
X3.9135Y-3.9529
X3.9139Y-3.9785
X3.9143Y-4.2854
X3.9154Y-4.0591
X3.9222Y-4.2175
X3.9262Y-3.2431
X3.934Y-3.7752
X3.934Y-3.8008
X3.934Y-3.8264
X3.934Y-3.8519
X3.935Y-3.7402
X3.939Y-4.0827
X3.9391Y-3.877
X3.9429Y-4.313
X3.9449Y-3.2156
X3.9469Y-3.7047
X3.9606Y-4.1043
X3.9626Y-3.2431
X3.9803Y-3.6909
X3.9803Y-4.1299
X3.9813Y-3.2156
X3.9935Y-3.7309
X3.999Y-3.2431
X4.001Y-3.4754
X4.0187Y-3.503
X4.0256Y-4.1378
X4.0354Y-3.6594
X4.0374Y-3.4754
X4.0394Y-3.9439
X4.0413Y-4.189
X4.0551Y-3.503
X4.0561Y-4.0148
X4.0589Y-3.8326
X4.0693Y-3.6728
X4.0768Y-3.6398
X4.0817Y-4.1437
X4.0817Y-4.4449
X4.0837Y-3.5443
X4.0846Y-4.3573
X4.0846Y-4.3848
X4.0856Y-4.3278
X4.0984Y-4.0157
X4.1043Y-3.6811
X4.1053Y-3.6398
X4.1073Y-3.8799
X4.1073Y-3.9163
X4.1073Y-3.9528
X4.1089Y-3.8326
X4.1142Y-4.1437
X4.1201Y-3.5443
X4.1207Y-4.1796
X4.1457Y-3.6811
X4.1555Y-3.8937
X4.1555Y-3.9301
X4.1555Y-3.9665
X4.1555Y-4.3553
X4.1565Y-3.5443
X4.1673Y-4.0167
X4.1742Y-4.128
X4.1757Y-4.1556
X4.1772Y-3.6811
X4.1772Y-4.185
X4.1841Y-3.7224
X4.2077Y-3.8327
X4.2264Y-4.19
X4.2461Y-3.6969
X4.25Y-3.2559
X4.2638Y-3.7244
X4.2638Y-4.065
X4.2677Y-3.2835
X4.2815Y-4.0925
X4.2825Y-3.6969
X4.2864Y-3.2559
X4.3002Y-3.7244
X4.3002Y-4.065
X4.3041Y-3.2835
X4.3113Y-3.9926
X4.3179Y-4.0925
X4.3228Y-3.2559
X4.3386Y-4.0669
X4.3406Y-3.2835
X4.3543Y-4.0925
X4.3573Y-4.2411
X4.3671Y-3.4823
X4.3765Y-3.5071
X4.4075Y-3.5266
X4.4114Y-4.0965
X4.4114Y-4.2411
X4.4205Y-3.9252
X4.4205Y-3.9528
X4.438Y-3.3435
X4.438Y-3.3799
X4.438Y-3.4163
X4.4488Y-3.8465
X4.4606Y-4.1132
X4.4656Y-3.3258
X4.4656Y-3.3622
X4.4656Y-3.3986
X4.4695Y-4.2943
X4.4846Y-4.1042
X4.4924Y-4.2719
X4.497Y-4.2943
X4.5059Y-3.6734
X4.5079Y-3.6368
X4.5128Y-4.1142
X4.5196Y-4.2719
X4.5305Y-3.8652
X4.5597Y-4.1234
X4.5656Y-4.2175
X4.5779Y-4.1023
X4.5994Y-3.8159
X4.6035Y-4.1029
X4.6073Y-3.189
X4.6073Y-3.2254
X4.6073Y-3.2618
X4.6289Y-3.8671
X4.6319Y-3.8159
X4.6348Y-3.1713
X4.6348Y-3.2077
X4.6348Y-3.2441
X4.6388Y-4.0797
X4.6486Y-4.2953
X4.6516Y-4.5807
X4.6576Y-3.8671
X4.6624Y-3.8159
X4.6671Y-4.0793
X4.6727Y-4.3194
X4.685Y-4.3573
X4.6919Y-3.8671
X4.6949Y-3.8159
X4.6969Y-4.1909
X4.7088Y-4.0797
X4.7215Y-3.8671
X4.7215Y-4.1703
X4.7382Y-4.4026
X4.7549Y-4.1952
X4.7628Y-3.439
X4.7805Y-4.1181
X4.7805Y-4.1959
X4.7815Y-4.2717
X4.7815Y-4.3219
X4.8976Y-4.437
X4.9409Y-3.9252
X4.9409Y-3.9528
X4.9419Y-3.8701
X4.9419Y-3.9882
T2
X3.3602Y-3.2579
X3.3602Y-4.6161
X3.3879Y-3.1911
X3.3879Y-3.3247
X3.3879Y-4.5493
X3.3879Y-4.683
X3.4547Y-3.1634
X3.4547Y-3.3524
X3.4547Y-4.5217
X3.4547Y-4.7106
X3.5215Y-3.1911
X3.5215Y-3.3247
X3.5215Y-4.5493
X3.5215Y-4.683
X3.5492Y-3.2579
X3.5492Y-4.6161
X4.7185Y-3.2579
X4.7185Y-4.6161
X4.7462Y-3.1911
X4.7462Y-3.3247
X4.7462Y-4.5493
X4.7462Y-4.683
X4.813Y-3.1634
X4.813Y-3.3524
X4.813Y-4.5217
X4.813Y-4.7106
X4.8798Y-3.1911
X4.8798Y-3.3247
X4.8798Y-4.5493
X4.8798Y-4.683
X4.9075Y-3.2579
X4.9075Y-4.6161
T4
X3.7364Y-4.551
X3.8071Y-4.4803
X3.8913Y-4.6634
X3.8913Y-4.7634
X3.9913Y-4.6634
X3.9913Y-4.7634
X4.0913Y-4.6634
X4.0913Y-4.7634
X4.1913Y-4.6634
X4.1913Y-4.7634
X4.2858Y-3.5866
X4.2913Y-4.6634
X4.2913Y-4.7634
X4.3465Y-4.3711
X4.3465Y-4.4711
X4.3858Y-3.5866
X4.3913Y-4.6634
X4.3913Y-4.7634
T5
X4.0508Y-3.0886
X4.2476Y-3.0886
T6
X3.2181Y-3.9382
X3.2457Y-3.7413
X3.2528Y-4.1461
T7
X3.4547Y-3.2579
X3.4547Y-4.6161
X4.813Y-3.2579
X4.813Y-4.6161
T3
G00X4.8713Y-3.7689
M15
G01X4.9146Y-3.7689
M16
G05
G00X4.8713Y-4.1091
M15
G01X4.9146Y-4.1091
M16
G05
G00X5.0457Y-3.7689
M15
G01X5.0693Y-3.7689
M16
G05
G00X5.0457Y-4.1091
M15
G01X5.0693Y-4.1091
M16
G05
T0
M30
