%TF.GenerationSoftware,KiCad,Pcbnew,7.0.9*%
%TF.CreationDate,2024-02-12T03:50:36+01:00*%
%TF.ProjectId,MTR_Tiny_MD,4d54525f-5469-46e7-995f-4d442e6b6963,rev?*%
%TF.SameCoordinates,Original*%
%TF.FileFunction,Other,Comment*%
%FSLAX46Y46*%
G04 Gerber Fmt 4.6, Leading zero omitted, Abs format (unit mm)*
G04 Created by KiCad (PCBNEW 7.0.9) date 2024-02-12 03:50:36*
%MOMM*%
%LPD*%
G01*
G04 APERTURE LIST*
%ADD10C,0.150000*%
%ADD11C,0.254000*%
%ADD12C,0.125000*%
%ADD13C,0.002000*%
%ADD14C,0.100000*%
G04 APERTURE END LIST*
D10*
X110066666Y-108149819D02*
X110066666Y-108864104D01*
X110066666Y-108864104D02*
X110019047Y-109006961D01*
X110019047Y-109006961D02*
X109923809Y-109102200D01*
X109923809Y-109102200D02*
X109780952Y-109149819D01*
X109780952Y-109149819D02*
X109685714Y-109149819D01*
X111019047Y-108149819D02*
X110542857Y-108149819D01*
X110542857Y-108149819D02*
X110495238Y-108626009D01*
X110495238Y-108626009D02*
X110542857Y-108578390D01*
X110542857Y-108578390D02*
X110638095Y-108530771D01*
X110638095Y-108530771D02*
X110876190Y-108530771D01*
X110876190Y-108530771D02*
X110971428Y-108578390D01*
X110971428Y-108578390D02*
X111019047Y-108626009D01*
X111019047Y-108626009D02*
X111066666Y-108721247D01*
X111066666Y-108721247D02*
X111066666Y-108959342D01*
X111066666Y-108959342D02*
X111019047Y-109054580D01*
X111019047Y-109054580D02*
X110971428Y-109102200D01*
X110971428Y-109102200D02*
X110876190Y-109149819D01*
X110876190Y-109149819D02*
X110638095Y-109149819D01*
X110638095Y-109149819D02*
X110542857Y-109102200D01*
X110542857Y-109102200D02*
X110495238Y-109054580D01*
X80494819Y-106548094D02*
X79494819Y-106548094D01*
X79971009Y-106548094D02*
X79971009Y-105976666D01*
X80494819Y-105976666D02*
X79494819Y-105976666D01*
X80494819Y-104976666D02*
X80494819Y-105548094D01*
X80494819Y-105262380D02*
X79494819Y-105262380D01*
X79494819Y-105262380D02*
X79637676Y-105357618D01*
X79637676Y-105357618D02*
X79732914Y-105452856D01*
X79732914Y-105452856D02*
X79780533Y-105548094D01*
X79590057Y-104595713D02*
X79542438Y-104548094D01*
X79542438Y-104548094D02*
X79494819Y-104452856D01*
X79494819Y-104452856D02*
X79494819Y-104214761D01*
X79494819Y-104214761D02*
X79542438Y-104119523D01*
X79542438Y-104119523D02*
X79590057Y-104071904D01*
X79590057Y-104071904D02*
X79685295Y-104024285D01*
X79685295Y-104024285D02*
X79780533Y-104024285D01*
X79780533Y-104024285D02*
X79923390Y-104071904D01*
X79923390Y-104071904D02*
X80494819Y-104643332D01*
X80494819Y-104643332D02*
X80494819Y-104024285D01*
X121488095Y-113504819D02*
X121488095Y-112504819D01*
X121488095Y-112981009D02*
X122059523Y-112981009D01*
X122059523Y-113504819D02*
X122059523Y-112504819D01*
X123059523Y-113504819D02*
X122488095Y-113504819D01*
X122773809Y-113504819D02*
X122773809Y-112504819D01*
X122773809Y-112504819D02*
X122678571Y-112647676D01*
X122678571Y-112647676D02*
X122583333Y-112742914D01*
X122583333Y-112742914D02*
X122488095Y-112790533D01*
X121488095Y-79004819D02*
X121488095Y-78004819D01*
X121488095Y-78481009D02*
X122059523Y-78481009D01*
X122059523Y-79004819D02*
X122059523Y-78004819D01*
X122440476Y-78004819D02*
X123059523Y-78004819D01*
X123059523Y-78004819D02*
X122726190Y-78385771D01*
X122726190Y-78385771D02*
X122869047Y-78385771D01*
X122869047Y-78385771D02*
X122964285Y-78433390D01*
X122964285Y-78433390D02*
X123011904Y-78481009D01*
X123011904Y-78481009D02*
X123059523Y-78576247D01*
X123059523Y-78576247D02*
X123059523Y-78814342D01*
X123059523Y-78814342D02*
X123011904Y-78909580D01*
X123011904Y-78909580D02*
X122964285Y-78957200D01*
X122964285Y-78957200D02*
X122869047Y-79004819D01*
X122869047Y-79004819D02*
X122583333Y-79004819D01*
X122583333Y-79004819D02*
X122488095Y-78957200D01*
X122488095Y-78957200D02*
X122440476Y-78909580D01*
X86988095Y-79004819D02*
X86988095Y-78004819D01*
X86988095Y-78481009D02*
X87559523Y-78481009D01*
X87559523Y-79004819D02*
X87559523Y-78004819D01*
X88178571Y-78433390D02*
X88083333Y-78385771D01*
X88083333Y-78385771D02*
X88035714Y-78338152D01*
X88035714Y-78338152D02*
X87988095Y-78242914D01*
X87988095Y-78242914D02*
X87988095Y-78195295D01*
X87988095Y-78195295D02*
X88035714Y-78100057D01*
X88035714Y-78100057D02*
X88083333Y-78052438D01*
X88083333Y-78052438D02*
X88178571Y-78004819D01*
X88178571Y-78004819D02*
X88369047Y-78004819D01*
X88369047Y-78004819D02*
X88464285Y-78052438D01*
X88464285Y-78052438D02*
X88511904Y-78100057D01*
X88511904Y-78100057D02*
X88559523Y-78195295D01*
X88559523Y-78195295D02*
X88559523Y-78242914D01*
X88559523Y-78242914D02*
X88511904Y-78338152D01*
X88511904Y-78338152D02*
X88464285Y-78385771D01*
X88464285Y-78385771D02*
X88369047Y-78433390D01*
X88369047Y-78433390D02*
X88178571Y-78433390D01*
X88178571Y-78433390D02*
X88083333Y-78481009D01*
X88083333Y-78481009D02*
X88035714Y-78528628D01*
X88035714Y-78528628D02*
X87988095Y-78623866D01*
X87988095Y-78623866D02*
X87988095Y-78814342D01*
X87988095Y-78814342D02*
X88035714Y-78909580D01*
X88035714Y-78909580D02*
X88083333Y-78957200D01*
X88083333Y-78957200D02*
X88178571Y-79004819D01*
X88178571Y-79004819D02*
X88369047Y-79004819D01*
X88369047Y-79004819D02*
X88464285Y-78957200D01*
X88464285Y-78957200D02*
X88511904Y-78909580D01*
X88511904Y-78909580D02*
X88559523Y-78814342D01*
X88559523Y-78814342D02*
X88559523Y-78623866D01*
X88559523Y-78623866D02*
X88511904Y-78528628D01*
X88511904Y-78528628D02*
X88464285Y-78481009D01*
X88464285Y-78481009D02*
X88369047Y-78433390D01*
X86988095Y-113504819D02*
X86988095Y-112504819D01*
X86988095Y-112981009D02*
X87559523Y-112981009D01*
X87559523Y-113504819D02*
X87559523Y-112504819D01*
X88083333Y-113504819D02*
X88273809Y-113504819D01*
X88273809Y-113504819D02*
X88369047Y-113457200D01*
X88369047Y-113457200D02*
X88416666Y-113409580D01*
X88416666Y-113409580D02*
X88511904Y-113266723D01*
X88511904Y-113266723D02*
X88559523Y-113076247D01*
X88559523Y-113076247D02*
X88559523Y-112695295D01*
X88559523Y-112695295D02*
X88511904Y-112600057D01*
X88511904Y-112600057D02*
X88464285Y-112552438D01*
X88464285Y-112552438D02*
X88369047Y-112504819D01*
X88369047Y-112504819D02*
X88178571Y-112504819D01*
X88178571Y-112504819D02*
X88083333Y-112552438D01*
X88083333Y-112552438D02*
X88035714Y-112600057D01*
X88035714Y-112600057D02*
X87988095Y-112695295D01*
X87988095Y-112695295D02*
X87988095Y-112933390D01*
X87988095Y-112933390D02*
X88035714Y-113028628D01*
X88035714Y-113028628D02*
X88083333Y-113076247D01*
X88083333Y-113076247D02*
X88178571Y-113123866D01*
X88178571Y-113123866D02*
X88369047Y-113123866D01*
X88369047Y-113123866D02*
X88464285Y-113076247D01*
X88464285Y-113076247D02*
X88511904Y-113028628D01*
X88511904Y-113028628D02*
X88559523Y-112933390D01*
X121219819Y-100383333D02*
X121934104Y-100383333D01*
X121934104Y-100383333D02*
X122076961Y-100430952D01*
X122076961Y-100430952D02*
X122172200Y-100526190D01*
X122172200Y-100526190D02*
X122219819Y-100669047D01*
X122219819Y-100669047D02*
X122219819Y-100764285D01*
X122219819Y-99383333D02*
X122219819Y-99954761D01*
X122219819Y-99669047D02*
X121219819Y-99669047D01*
X121219819Y-99669047D02*
X121362676Y-99764285D01*
X121362676Y-99764285D02*
X121457914Y-99859523D01*
X121457914Y-99859523D02*
X121505533Y-99954761D01*
X104211905Y-109254819D02*
X104211905Y-108254819D01*
X104211905Y-108254819D02*
X104450000Y-108254819D01*
X104450000Y-108254819D02*
X104592857Y-108302438D01*
X104592857Y-108302438D02*
X104688095Y-108397676D01*
X104688095Y-108397676D02*
X104735714Y-108492914D01*
X104735714Y-108492914D02*
X104783333Y-108683390D01*
X104783333Y-108683390D02*
X104783333Y-108826247D01*
X104783333Y-108826247D02*
X104735714Y-109016723D01*
X104735714Y-109016723D02*
X104688095Y-109111961D01*
X104688095Y-109111961D02*
X104592857Y-109207200D01*
X104592857Y-109207200D02*
X104450000Y-109254819D01*
X104450000Y-109254819D02*
X104211905Y-109254819D01*
X105735714Y-109254819D02*
X105164286Y-109254819D01*
X105450000Y-109254819D02*
X105450000Y-108254819D01*
X105450000Y-108254819D02*
X105354762Y-108397676D01*
X105354762Y-108397676D02*
X105259524Y-108492914D01*
X105259524Y-108492914D02*
X105164286Y-108540533D01*
D11*
X97920238Y-90856556D02*
X97920238Y-91461318D01*
X97496905Y-90191318D02*
X97920238Y-90856556D01*
X97920238Y-90856556D02*
X98343572Y-90191318D01*
X99432143Y-91461318D02*
X98706428Y-91461318D01*
X99069285Y-91461318D02*
X99069285Y-90191318D01*
X99069285Y-90191318D02*
X98948333Y-90372746D01*
X98948333Y-90372746D02*
X98827381Y-90493699D01*
X98827381Y-90493699D02*
X98706428Y-90554175D01*
D10*
X98497357Y-111531237D02*
X97992281Y-112036313D01*
X97992281Y-112036313D02*
X97857594Y-112103657D01*
X97857594Y-112103657D02*
X97722907Y-112103657D01*
X97722907Y-112103657D02*
X97588220Y-112036313D01*
X97588220Y-112036313D02*
X97520876Y-111968970D01*
X98766731Y-111800611D02*
X99204464Y-112238344D01*
X99204464Y-112238344D02*
X98699388Y-112272016D01*
X98699388Y-112272016D02*
X98800403Y-112373031D01*
X98800403Y-112373031D02*
X98834075Y-112474046D01*
X98834075Y-112474046D02*
X98834075Y-112541390D01*
X98834075Y-112541390D02*
X98800403Y-112642405D01*
X98800403Y-112642405D02*
X98632044Y-112810764D01*
X98632044Y-112810764D02*
X98531029Y-112844435D01*
X98531029Y-112844435D02*
X98463686Y-112844435D01*
X98463686Y-112844435D02*
X98362670Y-112810764D01*
X98362670Y-112810764D02*
X98160640Y-112608733D01*
X98160640Y-112608733D02*
X98126968Y-112507718D01*
X98126968Y-112507718D02*
X98126968Y-112440374D01*
X109224819Y-100361904D02*
X110034342Y-100361904D01*
X110034342Y-100361904D02*
X110129580Y-100314285D01*
X110129580Y-100314285D02*
X110177200Y-100266666D01*
X110177200Y-100266666D02*
X110224819Y-100171428D01*
X110224819Y-100171428D02*
X110224819Y-99980952D01*
X110224819Y-99980952D02*
X110177200Y-99885714D01*
X110177200Y-99885714D02*
X110129580Y-99838095D01*
X110129580Y-99838095D02*
X110034342Y-99790476D01*
X110034342Y-99790476D02*
X109224819Y-99790476D01*
X110224819Y-98790476D02*
X110224819Y-99361904D01*
X110224819Y-99076190D02*
X109224819Y-99076190D01*
X109224819Y-99076190D02*
X109367676Y-99171428D01*
X109367676Y-99171428D02*
X109462914Y-99266666D01*
X109462914Y-99266666D02*
X109510533Y-99361904D01*
X113324819Y-120053333D02*
X114039104Y-120053333D01*
X114039104Y-120053333D02*
X114181961Y-120100952D01*
X114181961Y-120100952D02*
X114277200Y-120196190D01*
X114277200Y-120196190D02*
X114324819Y-120339047D01*
X114324819Y-120339047D02*
X114324819Y-120434285D01*
X113420057Y-119624761D02*
X113372438Y-119577142D01*
X113372438Y-119577142D02*
X113324819Y-119481904D01*
X113324819Y-119481904D02*
X113324819Y-119243809D01*
X113324819Y-119243809D02*
X113372438Y-119148571D01*
X113372438Y-119148571D02*
X113420057Y-119100952D01*
X113420057Y-119100952D02*
X113515295Y-119053333D01*
X113515295Y-119053333D02*
X113610533Y-119053333D01*
X113610533Y-119053333D02*
X113753390Y-119100952D01*
X113753390Y-119100952D02*
X114324819Y-119672380D01*
X114324819Y-119672380D02*
X114324819Y-119053333D01*
D12*
X81130952Y-98224809D02*
X81130952Y-97724809D01*
X81130952Y-97962904D02*
X81416666Y-97962904D01*
X81416666Y-98224809D02*
X81416666Y-97724809D01*
X81916667Y-98224809D02*
X81630953Y-98224809D01*
X81773810Y-98224809D02*
X81773810Y-97724809D01*
X81773810Y-97724809D02*
X81726191Y-97796238D01*
X81726191Y-97796238D02*
X81678572Y-97843857D01*
X81678572Y-97843857D02*
X81630953Y-97867666D01*
X82392857Y-98224809D02*
X82107143Y-98224809D01*
X82250000Y-98224809D02*
X82250000Y-97724809D01*
X82250000Y-97724809D02*
X82202381Y-97796238D01*
X82202381Y-97796238D02*
X82154762Y-97843857D01*
X82154762Y-97843857D02*
X82107143Y-97867666D01*
X81880952Y-93274809D02*
X81880952Y-92774809D01*
X81880952Y-93012904D02*
X82166666Y-93012904D01*
X82166666Y-93274809D02*
X82166666Y-92774809D01*
X82666667Y-93274809D02*
X82380953Y-93274809D01*
X82523810Y-93274809D02*
X82523810Y-92774809D01*
X82523810Y-92774809D02*
X82476191Y-92846238D01*
X82476191Y-92846238D02*
X82428572Y-92893857D01*
X82428572Y-92893857D02*
X82380953Y-92917666D01*
X82976190Y-92774809D02*
X83023809Y-92774809D01*
X83023809Y-92774809D02*
X83071428Y-92798619D01*
X83071428Y-92798619D02*
X83095238Y-92822428D01*
X83095238Y-92822428D02*
X83119047Y-92870047D01*
X83119047Y-92870047D02*
X83142857Y-92965285D01*
X83142857Y-92965285D02*
X83142857Y-93084333D01*
X83142857Y-93084333D02*
X83119047Y-93179571D01*
X83119047Y-93179571D02*
X83095238Y-93227190D01*
X83095238Y-93227190D02*
X83071428Y-93251000D01*
X83071428Y-93251000D02*
X83023809Y-93274809D01*
X83023809Y-93274809D02*
X82976190Y-93274809D01*
X82976190Y-93274809D02*
X82928571Y-93251000D01*
X82928571Y-93251000D02*
X82904762Y-93227190D01*
X82904762Y-93227190D02*
X82880952Y-93179571D01*
X82880952Y-93179571D02*
X82857143Y-93084333D01*
X82857143Y-93084333D02*
X82857143Y-92965285D01*
X82857143Y-92965285D02*
X82880952Y-92870047D01*
X82880952Y-92870047D02*
X82904762Y-92822428D01*
X82904762Y-92822428D02*
X82928571Y-92798619D01*
X82928571Y-92798619D02*
X82976190Y-92774809D01*
D10*
X90214819Y-107097618D02*
X89214819Y-107097618D01*
X89214819Y-107097618D02*
X89214819Y-106859523D01*
X89214819Y-106859523D02*
X89262438Y-106716666D01*
X89262438Y-106716666D02*
X89357676Y-106621428D01*
X89357676Y-106621428D02*
X89452914Y-106573809D01*
X89452914Y-106573809D02*
X89643390Y-106526190D01*
X89643390Y-106526190D02*
X89786247Y-106526190D01*
X89786247Y-106526190D02*
X89976723Y-106573809D01*
X89976723Y-106573809D02*
X90071961Y-106621428D01*
X90071961Y-106621428D02*
X90167200Y-106716666D01*
X90167200Y-106716666D02*
X90214819Y-106859523D01*
X90214819Y-106859523D02*
X90214819Y-107097618D01*
X90214819Y-105526190D02*
X89738628Y-105859523D01*
X90214819Y-106097618D02*
X89214819Y-106097618D01*
X89214819Y-106097618D02*
X89214819Y-105716666D01*
X89214819Y-105716666D02*
X89262438Y-105621428D01*
X89262438Y-105621428D02*
X89310057Y-105573809D01*
X89310057Y-105573809D02*
X89405295Y-105526190D01*
X89405295Y-105526190D02*
X89548152Y-105526190D01*
X89548152Y-105526190D02*
X89643390Y-105573809D01*
X89643390Y-105573809D02*
X89691009Y-105621428D01*
X89691009Y-105621428D02*
X89738628Y-105716666D01*
X89738628Y-105716666D02*
X89738628Y-106097618D01*
X89214819Y-105240475D02*
X90214819Y-104907142D01*
X90214819Y-104907142D02*
X89214819Y-104573809D01*
X89643390Y-104097618D02*
X89595771Y-104192856D01*
X89595771Y-104192856D02*
X89548152Y-104240475D01*
X89548152Y-104240475D02*
X89452914Y-104288094D01*
X89452914Y-104288094D02*
X89405295Y-104288094D01*
X89405295Y-104288094D02*
X89310057Y-104240475D01*
X89310057Y-104240475D02*
X89262438Y-104192856D01*
X89262438Y-104192856D02*
X89214819Y-104097618D01*
X89214819Y-104097618D02*
X89214819Y-103907142D01*
X89214819Y-103907142D02*
X89262438Y-103811904D01*
X89262438Y-103811904D02*
X89310057Y-103764285D01*
X89310057Y-103764285D02*
X89405295Y-103716666D01*
X89405295Y-103716666D02*
X89452914Y-103716666D01*
X89452914Y-103716666D02*
X89548152Y-103764285D01*
X89548152Y-103764285D02*
X89595771Y-103811904D01*
X89595771Y-103811904D02*
X89643390Y-103907142D01*
X89643390Y-103907142D02*
X89643390Y-104097618D01*
X89643390Y-104097618D02*
X89691009Y-104192856D01*
X89691009Y-104192856D02*
X89738628Y-104240475D01*
X89738628Y-104240475D02*
X89833866Y-104288094D01*
X89833866Y-104288094D02*
X90024342Y-104288094D01*
X90024342Y-104288094D02*
X90119580Y-104240475D01*
X90119580Y-104240475D02*
X90167200Y-104192856D01*
X90167200Y-104192856D02*
X90214819Y-104097618D01*
X90214819Y-104097618D02*
X90214819Y-103907142D01*
X90214819Y-103907142D02*
X90167200Y-103811904D01*
X90167200Y-103811904D02*
X90119580Y-103764285D01*
X90119580Y-103764285D02*
X90024342Y-103716666D01*
X90024342Y-103716666D02*
X89833866Y-103716666D01*
X89833866Y-103716666D02*
X89738628Y-103764285D01*
X89738628Y-103764285D02*
X89691009Y-103811904D01*
X89691009Y-103811904D02*
X89643390Y-103907142D01*
X89214819Y-103383332D02*
X89214819Y-102764285D01*
X89214819Y-102764285D02*
X89595771Y-103097618D01*
X89595771Y-103097618D02*
X89595771Y-102954761D01*
X89595771Y-102954761D02*
X89643390Y-102859523D01*
X89643390Y-102859523D02*
X89691009Y-102811904D01*
X89691009Y-102811904D02*
X89786247Y-102764285D01*
X89786247Y-102764285D02*
X90024342Y-102764285D01*
X90024342Y-102764285D02*
X90119580Y-102811904D01*
X90119580Y-102811904D02*
X90167200Y-102859523D01*
X90167200Y-102859523D02*
X90214819Y-102954761D01*
X90214819Y-102954761D02*
X90214819Y-103240475D01*
X90214819Y-103240475D02*
X90167200Y-103335713D01*
X90167200Y-103335713D02*
X90119580Y-103383332D01*
X90214819Y-101811904D02*
X90214819Y-102383332D01*
X90214819Y-102097618D02*
X89214819Y-102097618D01*
X89214819Y-102097618D02*
X89357676Y-102192856D01*
X89357676Y-102192856D02*
X89452914Y-102288094D01*
X89452914Y-102288094D02*
X89500533Y-102383332D01*
X89214819Y-100954761D02*
X89214819Y-101145237D01*
X89214819Y-101145237D02*
X89262438Y-101240475D01*
X89262438Y-101240475D02*
X89310057Y-101288094D01*
X89310057Y-101288094D02*
X89452914Y-101383332D01*
X89452914Y-101383332D02*
X89643390Y-101430951D01*
X89643390Y-101430951D02*
X90024342Y-101430951D01*
X90024342Y-101430951D02*
X90119580Y-101383332D01*
X90119580Y-101383332D02*
X90167200Y-101335713D01*
X90167200Y-101335713D02*
X90214819Y-101240475D01*
X90214819Y-101240475D02*
X90214819Y-101049999D01*
X90214819Y-101049999D02*
X90167200Y-100954761D01*
X90167200Y-100954761D02*
X90119580Y-100907142D01*
X90119580Y-100907142D02*
X90024342Y-100859523D01*
X90024342Y-100859523D02*
X89786247Y-100859523D01*
X89786247Y-100859523D02*
X89691009Y-100907142D01*
X89691009Y-100907142D02*
X89643390Y-100954761D01*
X89643390Y-100954761D02*
X89595771Y-101049999D01*
X89595771Y-101049999D02*
X89595771Y-101240475D01*
X89595771Y-101240475D02*
X89643390Y-101335713D01*
X89643390Y-101335713D02*
X89691009Y-101383332D01*
X89691009Y-101383332D02*
X89786247Y-101430951D01*
X90214819Y-99859523D02*
X89738628Y-100192856D01*
X90214819Y-100430951D02*
X89214819Y-100430951D01*
X89214819Y-100430951D02*
X89214819Y-100049999D01*
X89214819Y-100049999D02*
X89262438Y-99954761D01*
X89262438Y-99954761D02*
X89310057Y-99907142D01*
X89310057Y-99907142D02*
X89405295Y-99859523D01*
X89405295Y-99859523D02*
X89548152Y-99859523D01*
X89548152Y-99859523D02*
X89643390Y-99907142D01*
X89643390Y-99907142D02*
X89691009Y-99954761D01*
X89691009Y-99954761D02*
X89738628Y-100049999D01*
X89738628Y-100049999D02*
X89738628Y-100430951D01*
X90310057Y-98764285D02*
X90262438Y-98859523D01*
X90262438Y-98859523D02*
X90167200Y-98954761D01*
X90167200Y-98954761D02*
X90024342Y-99097618D01*
X90024342Y-99097618D02*
X89976723Y-99192856D01*
X89976723Y-99192856D02*
X89976723Y-99288094D01*
X90214819Y-99240475D02*
X90167200Y-99335713D01*
X90167200Y-99335713D02*
X90071961Y-99430951D01*
X90071961Y-99430951D02*
X89881485Y-99478570D01*
X89881485Y-99478570D02*
X89548152Y-99478570D01*
X89548152Y-99478570D02*
X89357676Y-99430951D01*
X89357676Y-99430951D02*
X89262438Y-99335713D01*
X89262438Y-99335713D02*
X89214819Y-99240475D01*
X89214819Y-99240475D02*
X89214819Y-99049999D01*
X89214819Y-99049999D02*
X89262438Y-98954761D01*
X89262438Y-98954761D02*
X89357676Y-98859523D01*
X89357676Y-98859523D02*
X89548152Y-98811904D01*
X89548152Y-98811904D02*
X89881485Y-98811904D01*
X89881485Y-98811904D02*
X90071961Y-98859523D01*
X90071961Y-98859523D02*
X90167200Y-98954761D01*
X90167200Y-98954761D02*
X90214819Y-99049999D01*
X90214819Y-99049999D02*
X90214819Y-99240475D01*
X90214819Y-97811904D02*
X89738628Y-98145237D01*
X90214819Y-98383332D02*
X89214819Y-98383332D01*
X89214819Y-98383332D02*
X89214819Y-98002380D01*
X89214819Y-98002380D02*
X89262438Y-97907142D01*
X89262438Y-97907142D02*
X89310057Y-97859523D01*
X89310057Y-97859523D02*
X89405295Y-97811904D01*
X89405295Y-97811904D02*
X89548152Y-97811904D01*
X89548152Y-97811904D02*
X89643390Y-97859523D01*
X89643390Y-97859523D02*
X89691009Y-97907142D01*
X89691009Y-97907142D02*
X89738628Y-98002380D01*
X89738628Y-98002380D02*
X89738628Y-98383332D01*
X89262438Y-96859523D02*
X89214819Y-96954761D01*
X89214819Y-96954761D02*
X89214819Y-97097618D01*
X89214819Y-97097618D02*
X89262438Y-97240475D01*
X89262438Y-97240475D02*
X89357676Y-97335713D01*
X89357676Y-97335713D02*
X89452914Y-97383332D01*
X89452914Y-97383332D02*
X89643390Y-97430951D01*
X89643390Y-97430951D02*
X89786247Y-97430951D01*
X89786247Y-97430951D02*
X89976723Y-97383332D01*
X89976723Y-97383332D02*
X90071961Y-97335713D01*
X90071961Y-97335713D02*
X90167200Y-97240475D01*
X90167200Y-97240475D02*
X90214819Y-97097618D01*
X90214819Y-97097618D02*
X90214819Y-97002380D01*
X90214819Y-97002380D02*
X90167200Y-96859523D01*
X90167200Y-96859523D02*
X90119580Y-96811904D01*
X90119580Y-96811904D02*
X89786247Y-96811904D01*
X89786247Y-96811904D02*
X89786247Y-97002380D01*
X89691009Y-96049999D02*
X89691009Y-96383332D01*
X90214819Y-96383332D02*
X89214819Y-96383332D01*
X89214819Y-96383332D02*
X89214819Y-95907142D01*
X90214819Y-94954761D02*
X89738628Y-95288094D01*
X90214819Y-95526189D02*
X89214819Y-95526189D01*
X89214819Y-95526189D02*
X89214819Y-95145237D01*
X89214819Y-95145237D02*
X89262438Y-95049999D01*
X89262438Y-95049999D02*
X89310057Y-95002380D01*
X89310057Y-95002380D02*
X89405295Y-94954761D01*
X89405295Y-94954761D02*
X89548152Y-94954761D01*
X89548152Y-94954761D02*
X89643390Y-95002380D01*
X89643390Y-95002380D02*
X89691009Y-95049999D01*
X89691009Y-95049999D02*
X89738628Y-95145237D01*
X89738628Y-95145237D02*
X89738628Y-95526189D01*
X90310057Y-93859523D02*
X90262438Y-93954761D01*
X90262438Y-93954761D02*
X90167200Y-94049999D01*
X90167200Y-94049999D02*
X90024342Y-94192856D01*
X90024342Y-94192856D02*
X89976723Y-94288094D01*
X89976723Y-94288094D02*
X89976723Y-94383332D01*
X90214819Y-94335713D02*
X90167200Y-94430951D01*
X90167200Y-94430951D02*
X90071961Y-94526189D01*
X90071961Y-94526189D02*
X89881485Y-94573808D01*
X89881485Y-94573808D02*
X89548152Y-94573808D01*
X89548152Y-94573808D02*
X89357676Y-94526189D01*
X89357676Y-94526189D02*
X89262438Y-94430951D01*
X89262438Y-94430951D02*
X89214819Y-94335713D01*
X89214819Y-94335713D02*
X89214819Y-94145237D01*
X89214819Y-94145237D02*
X89262438Y-94049999D01*
X89262438Y-94049999D02*
X89357676Y-93954761D01*
X89357676Y-93954761D02*
X89548152Y-93907142D01*
X89548152Y-93907142D02*
X89881485Y-93907142D01*
X89881485Y-93907142D02*
X90071961Y-93954761D01*
X90071961Y-93954761D02*
X90167200Y-94049999D01*
X90167200Y-94049999D02*
X90214819Y-94145237D01*
X90214819Y-94145237D02*
X90214819Y-94335713D01*
X90214819Y-92954761D02*
X90214819Y-93526189D01*
X90214819Y-93240475D02*
X89214819Y-93240475D01*
X89214819Y-93240475D02*
X89357676Y-93335713D01*
X89357676Y-93335713D02*
X89452914Y-93430951D01*
X89452914Y-93430951D02*
X89500533Y-93526189D01*
X91715449Y-100545489D02*
X91715449Y-100450251D01*
X91715449Y-100450251D02*
X91763068Y-100355013D01*
X91763068Y-100355013D02*
X91810687Y-100307394D01*
X91810687Y-100307394D02*
X91905925Y-100259775D01*
X91905925Y-100259775D02*
X92096401Y-100212156D01*
X92096401Y-100212156D02*
X92334496Y-100212156D01*
X92334496Y-100212156D02*
X92524972Y-100259775D01*
X92524972Y-100259775D02*
X92620210Y-100307394D01*
X92620210Y-100307394D02*
X92667830Y-100355013D01*
X92667830Y-100355013D02*
X92715449Y-100450251D01*
X92715449Y-100450251D02*
X92715449Y-100545489D01*
X92715449Y-100545489D02*
X92667830Y-100640727D01*
X92667830Y-100640727D02*
X92620210Y-100688346D01*
X92620210Y-100688346D02*
X92524972Y-100735965D01*
X92524972Y-100735965D02*
X92334496Y-100783584D01*
X92334496Y-100783584D02*
X92096401Y-100783584D01*
X92096401Y-100783584D02*
X91905925Y-100735965D01*
X91905925Y-100735965D02*
X91810687Y-100688346D01*
X91810687Y-100688346D02*
X91763068Y-100640727D01*
X91763068Y-100640727D02*
X91715449Y-100545489D01*
X92620210Y-99783584D02*
X92667830Y-99735965D01*
X92667830Y-99735965D02*
X92715449Y-99783584D01*
X92715449Y-99783584D02*
X92667830Y-99831203D01*
X92667830Y-99831203D02*
X92620210Y-99783584D01*
X92620210Y-99783584D02*
X92715449Y-99783584D01*
X91715449Y-99116918D02*
X91715449Y-99021680D01*
X91715449Y-99021680D02*
X91763068Y-98926442D01*
X91763068Y-98926442D02*
X91810687Y-98878823D01*
X91810687Y-98878823D02*
X91905925Y-98831204D01*
X91905925Y-98831204D02*
X92096401Y-98783585D01*
X92096401Y-98783585D02*
X92334496Y-98783585D01*
X92334496Y-98783585D02*
X92524972Y-98831204D01*
X92524972Y-98831204D02*
X92620210Y-98878823D01*
X92620210Y-98878823D02*
X92667830Y-98926442D01*
X92667830Y-98926442D02*
X92715449Y-99021680D01*
X92715449Y-99021680D02*
X92715449Y-99116918D01*
X92715449Y-99116918D02*
X92667830Y-99212156D01*
X92667830Y-99212156D02*
X92620210Y-99259775D01*
X92620210Y-99259775D02*
X92524972Y-99307394D01*
X92524972Y-99307394D02*
X92334496Y-99355013D01*
X92334496Y-99355013D02*
X92096401Y-99355013D01*
X92096401Y-99355013D02*
X91905925Y-99307394D01*
X91905925Y-99307394D02*
X91810687Y-99259775D01*
X91810687Y-99259775D02*
X91763068Y-99212156D01*
X91763068Y-99212156D02*
X91715449Y-99116918D01*
X91810687Y-98402632D02*
X91763068Y-98355013D01*
X91763068Y-98355013D02*
X91715449Y-98259775D01*
X91715449Y-98259775D02*
X91715449Y-98021680D01*
X91715449Y-98021680D02*
X91763068Y-97926442D01*
X91763068Y-97926442D02*
X91810687Y-97878823D01*
X91810687Y-97878823D02*
X91905925Y-97831204D01*
X91905925Y-97831204D02*
X92001163Y-97831204D01*
X92001163Y-97831204D02*
X92144020Y-97878823D01*
X92144020Y-97878823D02*
X92715449Y-98450251D01*
X92715449Y-98450251D02*
X92715449Y-97831204D01*
X92715449Y-97402632D02*
X92048782Y-97402632D01*
X91715449Y-97402632D02*
X91763068Y-97450251D01*
X91763068Y-97450251D02*
X91810687Y-97402632D01*
X91810687Y-97402632D02*
X91763068Y-97355013D01*
X91763068Y-97355013D02*
X91715449Y-97402632D01*
X91715449Y-97402632D02*
X91810687Y-97402632D01*
X92048782Y-96926442D02*
X92715449Y-96926442D01*
X92144020Y-96926442D02*
X92096401Y-96878823D01*
X92096401Y-96878823D02*
X92048782Y-96783585D01*
X92048782Y-96783585D02*
X92048782Y-96640728D01*
X92048782Y-96640728D02*
X92096401Y-96545490D01*
X92096401Y-96545490D02*
X92191639Y-96497871D01*
X92191639Y-96497871D02*
X92715449Y-96497871D01*
X91667830Y-95307395D02*
X92953544Y-96164537D01*
X91715449Y-94783585D02*
X91715449Y-94688347D01*
X91715449Y-94688347D02*
X91763068Y-94593109D01*
X91763068Y-94593109D02*
X91810687Y-94545490D01*
X91810687Y-94545490D02*
X91905925Y-94497871D01*
X91905925Y-94497871D02*
X92096401Y-94450252D01*
X92096401Y-94450252D02*
X92334496Y-94450252D01*
X92334496Y-94450252D02*
X92524972Y-94497871D01*
X92524972Y-94497871D02*
X92620210Y-94545490D01*
X92620210Y-94545490D02*
X92667830Y-94593109D01*
X92667830Y-94593109D02*
X92715449Y-94688347D01*
X92715449Y-94688347D02*
X92715449Y-94783585D01*
X92715449Y-94783585D02*
X92667830Y-94878823D01*
X92667830Y-94878823D02*
X92620210Y-94926442D01*
X92620210Y-94926442D02*
X92524972Y-94974061D01*
X92524972Y-94974061D02*
X92334496Y-95021680D01*
X92334496Y-95021680D02*
X92096401Y-95021680D01*
X92096401Y-95021680D02*
X91905925Y-94974061D01*
X91905925Y-94974061D02*
X91810687Y-94926442D01*
X91810687Y-94926442D02*
X91763068Y-94878823D01*
X91763068Y-94878823D02*
X91715449Y-94783585D01*
X92620210Y-94021680D02*
X92667830Y-93974061D01*
X92667830Y-93974061D02*
X92715449Y-94021680D01*
X92715449Y-94021680D02*
X92667830Y-94069299D01*
X92667830Y-94069299D02*
X92620210Y-94021680D01*
X92620210Y-94021680D02*
X92715449Y-94021680D01*
X91715449Y-93069300D02*
X91715449Y-93545490D01*
X91715449Y-93545490D02*
X92191639Y-93593109D01*
X92191639Y-93593109D02*
X92144020Y-93545490D01*
X92144020Y-93545490D02*
X92096401Y-93450252D01*
X92096401Y-93450252D02*
X92096401Y-93212157D01*
X92096401Y-93212157D02*
X92144020Y-93116919D01*
X92144020Y-93116919D02*
X92191639Y-93069300D01*
X92191639Y-93069300D02*
X92286877Y-93021681D01*
X92286877Y-93021681D02*
X92524972Y-93021681D01*
X92524972Y-93021681D02*
X92620210Y-93069300D01*
X92620210Y-93069300D02*
X92667830Y-93116919D01*
X92667830Y-93116919D02*
X92715449Y-93212157D01*
X92715449Y-93212157D02*
X92715449Y-93450252D01*
X92715449Y-93450252D02*
X92667830Y-93545490D01*
X92667830Y-93545490D02*
X92620210Y-93593109D01*
X92715449Y-92593109D02*
X92048782Y-92593109D01*
X92144020Y-92593109D02*
X92096401Y-92545490D01*
X92096401Y-92545490D02*
X92048782Y-92450252D01*
X92048782Y-92450252D02*
X92048782Y-92307395D01*
X92048782Y-92307395D02*
X92096401Y-92212157D01*
X92096401Y-92212157D02*
X92191639Y-92164538D01*
X92191639Y-92164538D02*
X92715449Y-92164538D01*
X92191639Y-92164538D02*
X92096401Y-92116919D01*
X92096401Y-92116919D02*
X92048782Y-92021681D01*
X92048782Y-92021681D02*
X92048782Y-91878824D01*
X92048782Y-91878824D02*
X92096401Y-91783585D01*
X92096401Y-91783585D02*
X92191639Y-91735966D01*
X92191639Y-91735966D02*
X92715449Y-91735966D01*
X92715449Y-91259776D02*
X92048782Y-91259776D01*
X92144020Y-91259776D02*
X92096401Y-91212157D01*
X92096401Y-91212157D02*
X92048782Y-91116919D01*
X92048782Y-91116919D02*
X92048782Y-90974062D01*
X92048782Y-90974062D02*
X92096401Y-90878824D01*
X92096401Y-90878824D02*
X92191639Y-90831205D01*
X92191639Y-90831205D02*
X92715449Y-90831205D01*
X92191639Y-90831205D02*
X92096401Y-90783586D01*
X92096401Y-90783586D02*
X92048782Y-90688348D01*
X92048782Y-90688348D02*
X92048782Y-90545491D01*
X92048782Y-90545491D02*
X92096401Y-90450252D01*
X92096401Y-90450252D02*
X92191639Y-90402633D01*
X92191639Y-90402633D02*
X92715449Y-90402633D01*
X88579819Y-114491459D02*
X88579819Y-114396221D01*
X88579819Y-114396221D02*
X88627438Y-114300983D01*
X88627438Y-114300983D02*
X88675057Y-114253364D01*
X88675057Y-114253364D02*
X88770295Y-114205745D01*
X88770295Y-114205745D02*
X88960771Y-114158126D01*
X88960771Y-114158126D02*
X89198866Y-114158126D01*
X89198866Y-114158126D02*
X89389342Y-114205745D01*
X89389342Y-114205745D02*
X89484580Y-114253364D01*
X89484580Y-114253364D02*
X89532200Y-114300983D01*
X89532200Y-114300983D02*
X89579819Y-114396221D01*
X89579819Y-114396221D02*
X89579819Y-114491459D01*
X89579819Y-114491459D02*
X89532200Y-114586697D01*
X89532200Y-114586697D02*
X89484580Y-114634316D01*
X89484580Y-114634316D02*
X89389342Y-114681935D01*
X89389342Y-114681935D02*
X89198866Y-114729554D01*
X89198866Y-114729554D02*
X88960771Y-114729554D01*
X88960771Y-114729554D02*
X88770295Y-114681935D01*
X88770295Y-114681935D02*
X88675057Y-114634316D01*
X88675057Y-114634316D02*
X88627438Y-114586697D01*
X88627438Y-114586697D02*
X88579819Y-114491459D01*
X89484580Y-113729554D02*
X89532200Y-113681935D01*
X89532200Y-113681935D02*
X89579819Y-113729554D01*
X89579819Y-113729554D02*
X89532200Y-113777173D01*
X89532200Y-113777173D02*
X89484580Y-113729554D01*
X89484580Y-113729554D02*
X89579819Y-113729554D01*
X88675057Y-113300983D02*
X88627438Y-113253364D01*
X88627438Y-113253364D02*
X88579819Y-113158126D01*
X88579819Y-113158126D02*
X88579819Y-112920031D01*
X88579819Y-112920031D02*
X88627438Y-112824793D01*
X88627438Y-112824793D02*
X88675057Y-112777174D01*
X88675057Y-112777174D02*
X88770295Y-112729555D01*
X88770295Y-112729555D02*
X88865533Y-112729555D01*
X88865533Y-112729555D02*
X89008390Y-112777174D01*
X89008390Y-112777174D02*
X89579819Y-113348602D01*
X89579819Y-113348602D02*
X89579819Y-112729555D01*
X88579819Y-112396221D02*
X88579819Y-111729555D01*
X88579819Y-111729555D02*
X89579819Y-112158126D01*
X88675057Y-111396221D02*
X88627438Y-111348602D01*
X88627438Y-111348602D02*
X88579819Y-111253364D01*
X88579819Y-111253364D02*
X88579819Y-111015269D01*
X88579819Y-111015269D02*
X88627438Y-110920031D01*
X88627438Y-110920031D02*
X88675057Y-110872412D01*
X88675057Y-110872412D02*
X88770295Y-110824793D01*
X88770295Y-110824793D02*
X88865533Y-110824793D01*
X88865533Y-110824793D02*
X89008390Y-110872412D01*
X89008390Y-110872412D02*
X89579819Y-111443840D01*
X89579819Y-111443840D02*
X89579819Y-110824793D01*
X89579819Y-110396221D02*
X88913152Y-110396221D01*
X88579819Y-110396221D02*
X88627438Y-110443840D01*
X88627438Y-110443840D02*
X88675057Y-110396221D01*
X88675057Y-110396221D02*
X88627438Y-110348602D01*
X88627438Y-110348602D02*
X88579819Y-110396221D01*
X88579819Y-110396221D02*
X88675057Y-110396221D01*
X88913152Y-109920031D02*
X89579819Y-109920031D01*
X89008390Y-109920031D02*
X88960771Y-109872412D01*
X88960771Y-109872412D02*
X88913152Y-109777174D01*
X88913152Y-109777174D02*
X88913152Y-109634317D01*
X88913152Y-109634317D02*
X88960771Y-109539079D01*
X88960771Y-109539079D02*
X89056009Y-109491460D01*
X89056009Y-109491460D02*
X89579819Y-109491460D01*
X88532200Y-108300984D02*
X89817914Y-109158126D01*
X88579819Y-107539079D02*
X88579819Y-107729555D01*
X88579819Y-107729555D02*
X88627438Y-107824793D01*
X88627438Y-107824793D02*
X88675057Y-107872412D01*
X88675057Y-107872412D02*
X88817914Y-107967650D01*
X88817914Y-107967650D02*
X89008390Y-108015269D01*
X89008390Y-108015269D02*
X89389342Y-108015269D01*
X89389342Y-108015269D02*
X89484580Y-107967650D01*
X89484580Y-107967650D02*
X89532200Y-107920031D01*
X89532200Y-107920031D02*
X89579819Y-107824793D01*
X89579819Y-107824793D02*
X89579819Y-107634317D01*
X89579819Y-107634317D02*
X89532200Y-107539079D01*
X89532200Y-107539079D02*
X89484580Y-107491460D01*
X89484580Y-107491460D02*
X89389342Y-107443841D01*
X89389342Y-107443841D02*
X89151247Y-107443841D01*
X89151247Y-107443841D02*
X89056009Y-107491460D01*
X89056009Y-107491460D02*
X89008390Y-107539079D01*
X89008390Y-107539079D02*
X88960771Y-107634317D01*
X88960771Y-107634317D02*
X88960771Y-107824793D01*
X88960771Y-107824793D02*
X89008390Y-107920031D01*
X89008390Y-107920031D02*
X89056009Y-107967650D01*
X89056009Y-107967650D02*
X89151247Y-108015269D01*
X89484580Y-107015269D02*
X89532200Y-106967650D01*
X89532200Y-106967650D02*
X89579819Y-107015269D01*
X89579819Y-107015269D02*
X89532200Y-107062888D01*
X89532200Y-107062888D02*
X89484580Y-107015269D01*
X89484580Y-107015269D02*
X89579819Y-107015269D01*
X89579819Y-106491460D02*
X89579819Y-106300984D01*
X89579819Y-106300984D02*
X89532200Y-106205746D01*
X89532200Y-106205746D02*
X89484580Y-106158127D01*
X89484580Y-106158127D02*
X89341723Y-106062889D01*
X89341723Y-106062889D02*
X89151247Y-106015270D01*
X89151247Y-106015270D02*
X88770295Y-106015270D01*
X88770295Y-106015270D02*
X88675057Y-106062889D01*
X88675057Y-106062889D02*
X88627438Y-106110508D01*
X88627438Y-106110508D02*
X88579819Y-106205746D01*
X88579819Y-106205746D02*
X88579819Y-106396222D01*
X88579819Y-106396222D02*
X88627438Y-106491460D01*
X88627438Y-106491460D02*
X88675057Y-106539079D01*
X88675057Y-106539079D02*
X88770295Y-106586698D01*
X88770295Y-106586698D02*
X89008390Y-106586698D01*
X89008390Y-106586698D02*
X89103628Y-106539079D01*
X89103628Y-106539079D02*
X89151247Y-106491460D01*
X89151247Y-106491460D02*
X89198866Y-106396222D01*
X89198866Y-106396222D02*
X89198866Y-106205746D01*
X89198866Y-106205746D02*
X89151247Y-106110508D01*
X89151247Y-106110508D02*
X89103628Y-106062889D01*
X89103628Y-106062889D02*
X89008390Y-106015270D01*
X88579819Y-105396222D02*
X88579819Y-105300984D01*
X88579819Y-105300984D02*
X88627438Y-105205746D01*
X88627438Y-105205746D02*
X88675057Y-105158127D01*
X88675057Y-105158127D02*
X88770295Y-105110508D01*
X88770295Y-105110508D02*
X88960771Y-105062889D01*
X88960771Y-105062889D02*
X89198866Y-105062889D01*
X89198866Y-105062889D02*
X89389342Y-105110508D01*
X89389342Y-105110508D02*
X89484580Y-105158127D01*
X89484580Y-105158127D02*
X89532200Y-105205746D01*
X89532200Y-105205746D02*
X89579819Y-105300984D01*
X89579819Y-105300984D02*
X89579819Y-105396222D01*
X89579819Y-105396222D02*
X89532200Y-105491460D01*
X89532200Y-105491460D02*
X89484580Y-105539079D01*
X89484580Y-105539079D02*
X89389342Y-105586698D01*
X89389342Y-105586698D02*
X89198866Y-105634317D01*
X89198866Y-105634317D02*
X88960771Y-105634317D01*
X88960771Y-105634317D02*
X88770295Y-105586698D01*
X88770295Y-105586698D02*
X88675057Y-105539079D01*
X88675057Y-105539079D02*
X88627438Y-105491460D01*
X88627438Y-105491460D02*
X88579819Y-105396222D01*
X88913152Y-104205746D02*
X89579819Y-104205746D01*
X88532200Y-104443841D02*
X89246485Y-104681936D01*
X89246485Y-104681936D02*
X89246485Y-104062889D01*
X89579819Y-103681936D02*
X88913152Y-103681936D01*
X89008390Y-103681936D02*
X88960771Y-103634317D01*
X88960771Y-103634317D02*
X88913152Y-103539079D01*
X88913152Y-103539079D02*
X88913152Y-103396222D01*
X88913152Y-103396222D02*
X88960771Y-103300984D01*
X88960771Y-103300984D02*
X89056009Y-103253365D01*
X89056009Y-103253365D02*
X89579819Y-103253365D01*
X89056009Y-103253365D02*
X88960771Y-103205746D01*
X88960771Y-103205746D02*
X88913152Y-103110508D01*
X88913152Y-103110508D02*
X88913152Y-102967651D01*
X88913152Y-102967651D02*
X88960771Y-102872412D01*
X88960771Y-102872412D02*
X89056009Y-102824793D01*
X89056009Y-102824793D02*
X89579819Y-102824793D01*
X89579819Y-102348603D02*
X88913152Y-102348603D01*
X89008390Y-102348603D02*
X88960771Y-102300984D01*
X88960771Y-102300984D02*
X88913152Y-102205746D01*
X88913152Y-102205746D02*
X88913152Y-102062889D01*
X88913152Y-102062889D02*
X88960771Y-101967651D01*
X88960771Y-101967651D02*
X89056009Y-101920032D01*
X89056009Y-101920032D02*
X89579819Y-101920032D01*
X89056009Y-101920032D02*
X88960771Y-101872413D01*
X88960771Y-101872413D02*
X88913152Y-101777175D01*
X88913152Y-101777175D02*
X88913152Y-101634318D01*
X88913152Y-101634318D02*
X88960771Y-101539079D01*
X88960771Y-101539079D02*
X89056009Y-101491460D01*
X89056009Y-101491460D02*
X89579819Y-101491460D01*
X85762819Y-100481870D02*
X85762819Y-100386632D01*
X85762819Y-100386632D02*
X85810438Y-100291394D01*
X85810438Y-100291394D02*
X85858057Y-100243775D01*
X85858057Y-100243775D02*
X85953295Y-100196156D01*
X85953295Y-100196156D02*
X86143771Y-100148537D01*
X86143771Y-100148537D02*
X86381866Y-100148537D01*
X86381866Y-100148537D02*
X86572342Y-100196156D01*
X86572342Y-100196156D02*
X86667580Y-100243775D01*
X86667580Y-100243775D02*
X86715200Y-100291394D01*
X86715200Y-100291394D02*
X86762819Y-100386632D01*
X86762819Y-100386632D02*
X86762819Y-100481870D01*
X86762819Y-100481870D02*
X86715200Y-100577108D01*
X86715200Y-100577108D02*
X86667580Y-100624727D01*
X86667580Y-100624727D02*
X86572342Y-100672346D01*
X86572342Y-100672346D02*
X86381866Y-100719965D01*
X86381866Y-100719965D02*
X86143771Y-100719965D01*
X86143771Y-100719965D02*
X85953295Y-100672346D01*
X85953295Y-100672346D02*
X85858057Y-100624727D01*
X85858057Y-100624727D02*
X85810438Y-100577108D01*
X85810438Y-100577108D02*
X85762819Y-100481870D01*
X86667580Y-99719965D02*
X86715200Y-99672346D01*
X86715200Y-99672346D02*
X86762819Y-99719965D01*
X86762819Y-99719965D02*
X86715200Y-99767584D01*
X86715200Y-99767584D02*
X86667580Y-99719965D01*
X86667580Y-99719965D02*
X86762819Y-99719965D01*
X85762819Y-99053299D02*
X85762819Y-98958061D01*
X85762819Y-98958061D02*
X85810438Y-98862823D01*
X85810438Y-98862823D02*
X85858057Y-98815204D01*
X85858057Y-98815204D02*
X85953295Y-98767585D01*
X85953295Y-98767585D02*
X86143771Y-98719966D01*
X86143771Y-98719966D02*
X86381866Y-98719966D01*
X86381866Y-98719966D02*
X86572342Y-98767585D01*
X86572342Y-98767585D02*
X86667580Y-98815204D01*
X86667580Y-98815204D02*
X86715200Y-98862823D01*
X86715200Y-98862823D02*
X86762819Y-98958061D01*
X86762819Y-98958061D02*
X86762819Y-99053299D01*
X86762819Y-99053299D02*
X86715200Y-99148537D01*
X86715200Y-99148537D02*
X86667580Y-99196156D01*
X86667580Y-99196156D02*
X86572342Y-99243775D01*
X86572342Y-99243775D02*
X86381866Y-99291394D01*
X86381866Y-99291394D02*
X86143771Y-99291394D01*
X86143771Y-99291394D02*
X85953295Y-99243775D01*
X85953295Y-99243775D02*
X85858057Y-99196156D01*
X85858057Y-99196156D02*
X85810438Y-99148537D01*
X85810438Y-99148537D02*
X85762819Y-99053299D01*
X86762819Y-97767585D02*
X86762819Y-98339013D01*
X86762819Y-98053299D02*
X85762819Y-98053299D01*
X85762819Y-98053299D02*
X85905676Y-98148537D01*
X85905676Y-98148537D02*
X86000914Y-98243775D01*
X86000914Y-98243775D02*
X86048533Y-98339013D01*
X86762819Y-97339013D02*
X86096152Y-97339013D01*
X85762819Y-97339013D02*
X85810438Y-97386632D01*
X85810438Y-97386632D02*
X85858057Y-97339013D01*
X85858057Y-97339013D02*
X85810438Y-97291394D01*
X85810438Y-97291394D02*
X85762819Y-97339013D01*
X85762819Y-97339013D02*
X85858057Y-97339013D01*
X86096152Y-96862823D02*
X86762819Y-96862823D01*
X86191390Y-96862823D02*
X86143771Y-96815204D01*
X86143771Y-96815204D02*
X86096152Y-96719966D01*
X86096152Y-96719966D02*
X86096152Y-96577109D01*
X86096152Y-96577109D02*
X86143771Y-96481871D01*
X86143771Y-96481871D02*
X86239009Y-96434252D01*
X86239009Y-96434252D02*
X86762819Y-96434252D01*
X85715200Y-95243776D02*
X87000914Y-96100918D01*
X85762819Y-94719966D02*
X85762819Y-94624728D01*
X85762819Y-94624728D02*
X85810438Y-94529490D01*
X85810438Y-94529490D02*
X85858057Y-94481871D01*
X85858057Y-94481871D02*
X85953295Y-94434252D01*
X85953295Y-94434252D02*
X86143771Y-94386633D01*
X86143771Y-94386633D02*
X86381866Y-94386633D01*
X86381866Y-94386633D02*
X86572342Y-94434252D01*
X86572342Y-94434252D02*
X86667580Y-94481871D01*
X86667580Y-94481871D02*
X86715200Y-94529490D01*
X86715200Y-94529490D02*
X86762819Y-94624728D01*
X86762819Y-94624728D02*
X86762819Y-94719966D01*
X86762819Y-94719966D02*
X86715200Y-94815204D01*
X86715200Y-94815204D02*
X86667580Y-94862823D01*
X86667580Y-94862823D02*
X86572342Y-94910442D01*
X86572342Y-94910442D02*
X86381866Y-94958061D01*
X86381866Y-94958061D02*
X86143771Y-94958061D01*
X86143771Y-94958061D02*
X85953295Y-94910442D01*
X85953295Y-94910442D02*
X85858057Y-94862823D01*
X85858057Y-94862823D02*
X85810438Y-94815204D01*
X85810438Y-94815204D02*
X85762819Y-94719966D01*
X86667580Y-93958061D02*
X86715200Y-93910442D01*
X86715200Y-93910442D02*
X86762819Y-93958061D01*
X86762819Y-93958061D02*
X86715200Y-94005680D01*
X86715200Y-94005680D02*
X86667580Y-93958061D01*
X86667580Y-93958061D02*
X86762819Y-93958061D01*
X85858057Y-93529490D02*
X85810438Y-93481871D01*
X85810438Y-93481871D02*
X85762819Y-93386633D01*
X85762819Y-93386633D02*
X85762819Y-93148538D01*
X85762819Y-93148538D02*
X85810438Y-93053300D01*
X85810438Y-93053300D02*
X85858057Y-93005681D01*
X85858057Y-93005681D02*
X85953295Y-92958062D01*
X85953295Y-92958062D02*
X86048533Y-92958062D01*
X86048533Y-92958062D02*
X86191390Y-93005681D01*
X86191390Y-93005681D02*
X86762819Y-93577109D01*
X86762819Y-93577109D02*
X86762819Y-92958062D01*
X85762819Y-92053300D02*
X85762819Y-92529490D01*
X85762819Y-92529490D02*
X86239009Y-92577109D01*
X86239009Y-92577109D02*
X86191390Y-92529490D01*
X86191390Y-92529490D02*
X86143771Y-92434252D01*
X86143771Y-92434252D02*
X86143771Y-92196157D01*
X86143771Y-92196157D02*
X86191390Y-92100919D01*
X86191390Y-92100919D02*
X86239009Y-92053300D01*
X86239009Y-92053300D02*
X86334247Y-92005681D01*
X86334247Y-92005681D02*
X86572342Y-92005681D01*
X86572342Y-92005681D02*
X86667580Y-92053300D01*
X86667580Y-92053300D02*
X86715200Y-92100919D01*
X86715200Y-92100919D02*
X86762819Y-92196157D01*
X86762819Y-92196157D02*
X86762819Y-92434252D01*
X86762819Y-92434252D02*
X86715200Y-92529490D01*
X86715200Y-92529490D02*
X86667580Y-92577109D01*
X85762819Y-91100919D02*
X85762819Y-91577109D01*
X85762819Y-91577109D02*
X86239009Y-91624728D01*
X86239009Y-91624728D02*
X86191390Y-91577109D01*
X86191390Y-91577109D02*
X86143771Y-91481871D01*
X86143771Y-91481871D02*
X86143771Y-91243776D01*
X86143771Y-91243776D02*
X86191390Y-91148538D01*
X86191390Y-91148538D02*
X86239009Y-91100919D01*
X86239009Y-91100919D02*
X86334247Y-91053300D01*
X86334247Y-91053300D02*
X86572342Y-91053300D01*
X86572342Y-91053300D02*
X86667580Y-91100919D01*
X86667580Y-91100919D02*
X86715200Y-91148538D01*
X86715200Y-91148538D02*
X86762819Y-91243776D01*
X86762819Y-91243776D02*
X86762819Y-91481871D01*
X86762819Y-91481871D02*
X86715200Y-91577109D01*
X86715200Y-91577109D02*
X86667580Y-91624728D01*
X86762819Y-90624728D02*
X86096152Y-90624728D01*
X86191390Y-90624728D02*
X86143771Y-90577109D01*
X86143771Y-90577109D02*
X86096152Y-90481871D01*
X86096152Y-90481871D02*
X86096152Y-90339014D01*
X86096152Y-90339014D02*
X86143771Y-90243776D01*
X86143771Y-90243776D02*
X86239009Y-90196157D01*
X86239009Y-90196157D02*
X86762819Y-90196157D01*
X86239009Y-90196157D02*
X86143771Y-90148538D01*
X86143771Y-90148538D02*
X86096152Y-90053300D01*
X86096152Y-90053300D02*
X86096152Y-89910443D01*
X86096152Y-89910443D02*
X86143771Y-89815204D01*
X86143771Y-89815204D02*
X86239009Y-89767585D01*
X86239009Y-89767585D02*
X86762819Y-89767585D01*
X86762819Y-89291395D02*
X86096152Y-89291395D01*
X86191390Y-89291395D02*
X86143771Y-89243776D01*
X86143771Y-89243776D02*
X86096152Y-89148538D01*
X86096152Y-89148538D02*
X86096152Y-89005681D01*
X86096152Y-89005681D02*
X86143771Y-88910443D01*
X86143771Y-88910443D02*
X86239009Y-88862824D01*
X86239009Y-88862824D02*
X86762819Y-88862824D01*
X86239009Y-88862824D02*
X86143771Y-88815205D01*
X86143771Y-88815205D02*
X86096152Y-88719967D01*
X86096152Y-88719967D02*
X86096152Y-88577110D01*
X86096152Y-88577110D02*
X86143771Y-88481871D01*
X86143771Y-88481871D02*
X86239009Y-88434252D01*
X86239009Y-88434252D02*
X86762819Y-88434252D01*
X95714819Y-104006060D02*
X95714819Y-103910822D01*
X95714819Y-103910822D02*
X95762438Y-103815584D01*
X95762438Y-103815584D02*
X95810057Y-103767965D01*
X95810057Y-103767965D02*
X95905295Y-103720346D01*
X95905295Y-103720346D02*
X96095771Y-103672727D01*
X96095771Y-103672727D02*
X96333866Y-103672727D01*
X96333866Y-103672727D02*
X96524342Y-103720346D01*
X96524342Y-103720346D02*
X96619580Y-103767965D01*
X96619580Y-103767965D02*
X96667200Y-103815584D01*
X96667200Y-103815584D02*
X96714819Y-103910822D01*
X96714819Y-103910822D02*
X96714819Y-104006060D01*
X96714819Y-104006060D02*
X96667200Y-104101298D01*
X96667200Y-104101298D02*
X96619580Y-104148917D01*
X96619580Y-104148917D02*
X96524342Y-104196536D01*
X96524342Y-104196536D02*
X96333866Y-104244155D01*
X96333866Y-104244155D02*
X96095771Y-104244155D01*
X96095771Y-104244155D02*
X95905295Y-104196536D01*
X95905295Y-104196536D02*
X95810057Y-104148917D01*
X95810057Y-104148917D02*
X95762438Y-104101298D01*
X95762438Y-104101298D02*
X95714819Y-104006060D01*
X96619580Y-103244155D02*
X96667200Y-103196536D01*
X96667200Y-103196536D02*
X96714819Y-103244155D01*
X96714819Y-103244155D02*
X96667200Y-103291774D01*
X96667200Y-103291774D02*
X96619580Y-103244155D01*
X96619580Y-103244155D02*
X96714819Y-103244155D01*
X95714819Y-102577489D02*
X95714819Y-102482251D01*
X95714819Y-102482251D02*
X95762438Y-102387013D01*
X95762438Y-102387013D02*
X95810057Y-102339394D01*
X95810057Y-102339394D02*
X95905295Y-102291775D01*
X95905295Y-102291775D02*
X96095771Y-102244156D01*
X96095771Y-102244156D02*
X96333866Y-102244156D01*
X96333866Y-102244156D02*
X96524342Y-102291775D01*
X96524342Y-102291775D02*
X96619580Y-102339394D01*
X96619580Y-102339394D02*
X96667200Y-102387013D01*
X96667200Y-102387013D02*
X96714819Y-102482251D01*
X96714819Y-102482251D02*
X96714819Y-102577489D01*
X96714819Y-102577489D02*
X96667200Y-102672727D01*
X96667200Y-102672727D02*
X96619580Y-102720346D01*
X96619580Y-102720346D02*
X96524342Y-102767965D01*
X96524342Y-102767965D02*
X96333866Y-102815584D01*
X96333866Y-102815584D02*
X96095771Y-102815584D01*
X96095771Y-102815584D02*
X95905295Y-102767965D01*
X95905295Y-102767965D02*
X95810057Y-102720346D01*
X95810057Y-102720346D02*
X95762438Y-102672727D01*
X95762438Y-102672727D02*
X95714819Y-102577489D01*
X95714819Y-101910822D02*
X95714819Y-101291775D01*
X95714819Y-101291775D02*
X96095771Y-101625108D01*
X96095771Y-101625108D02*
X96095771Y-101482251D01*
X96095771Y-101482251D02*
X96143390Y-101387013D01*
X96143390Y-101387013D02*
X96191009Y-101339394D01*
X96191009Y-101339394D02*
X96286247Y-101291775D01*
X96286247Y-101291775D02*
X96524342Y-101291775D01*
X96524342Y-101291775D02*
X96619580Y-101339394D01*
X96619580Y-101339394D02*
X96667200Y-101387013D01*
X96667200Y-101387013D02*
X96714819Y-101482251D01*
X96714819Y-101482251D02*
X96714819Y-101767965D01*
X96714819Y-101767965D02*
X96667200Y-101863203D01*
X96667200Y-101863203D02*
X96619580Y-101910822D01*
X95810057Y-100910822D02*
X95762438Y-100863203D01*
X95762438Y-100863203D02*
X95714819Y-100767965D01*
X95714819Y-100767965D02*
X95714819Y-100529870D01*
X95714819Y-100529870D02*
X95762438Y-100434632D01*
X95762438Y-100434632D02*
X95810057Y-100387013D01*
X95810057Y-100387013D02*
X95905295Y-100339394D01*
X95905295Y-100339394D02*
X96000533Y-100339394D01*
X96000533Y-100339394D02*
X96143390Y-100387013D01*
X96143390Y-100387013D02*
X96714819Y-100958441D01*
X96714819Y-100958441D02*
X96714819Y-100339394D01*
X96714819Y-99910822D02*
X96048152Y-99910822D01*
X95714819Y-99910822D02*
X95762438Y-99958441D01*
X95762438Y-99958441D02*
X95810057Y-99910822D01*
X95810057Y-99910822D02*
X95762438Y-99863203D01*
X95762438Y-99863203D02*
X95714819Y-99910822D01*
X95714819Y-99910822D02*
X95810057Y-99910822D01*
X96048152Y-99434632D02*
X96714819Y-99434632D01*
X96143390Y-99434632D02*
X96095771Y-99387013D01*
X96095771Y-99387013D02*
X96048152Y-99291775D01*
X96048152Y-99291775D02*
X96048152Y-99148918D01*
X96048152Y-99148918D02*
X96095771Y-99053680D01*
X96095771Y-99053680D02*
X96191009Y-99006061D01*
X96191009Y-99006061D02*
X96714819Y-99006061D01*
X95667200Y-97815585D02*
X96952914Y-98672727D01*
X95714819Y-97291775D02*
X95714819Y-97196537D01*
X95714819Y-97196537D02*
X95762438Y-97101299D01*
X95762438Y-97101299D02*
X95810057Y-97053680D01*
X95810057Y-97053680D02*
X95905295Y-97006061D01*
X95905295Y-97006061D02*
X96095771Y-96958442D01*
X96095771Y-96958442D02*
X96333866Y-96958442D01*
X96333866Y-96958442D02*
X96524342Y-97006061D01*
X96524342Y-97006061D02*
X96619580Y-97053680D01*
X96619580Y-97053680D02*
X96667200Y-97101299D01*
X96667200Y-97101299D02*
X96714819Y-97196537D01*
X96714819Y-97196537D02*
X96714819Y-97291775D01*
X96714819Y-97291775D02*
X96667200Y-97387013D01*
X96667200Y-97387013D02*
X96619580Y-97434632D01*
X96619580Y-97434632D02*
X96524342Y-97482251D01*
X96524342Y-97482251D02*
X96333866Y-97529870D01*
X96333866Y-97529870D02*
X96095771Y-97529870D01*
X96095771Y-97529870D02*
X95905295Y-97482251D01*
X95905295Y-97482251D02*
X95810057Y-97434632D01*
X95810057Y-97434632D02*
X95762438Y-97387013D01*
X95762438Y-97387013D02*
X95714819Y-97291775D01*
X96619580Y-96529870D02*
X96667200Y-96482251D01*
X96667200Y-96482251D02*
X96714819Y-96529870D01*
X96714819Y-96529870D02*
X96667200Y-96577489D01*
X96667200Y-96577489D02*
X96619580Y-96529870D01*
X96619580Y-96529870D02*
X96714819Y-96529870D01*
X96143390Y-95910823D02*
X96095771Y-96006061D01*
X96095771Y-96006061D02*
X96048152Y-96053680D01*
X96048152Y-96053680D02*
X95952914Y-96101299D01*
X95952914Y-96101299D02*
X95905295Y-96101299D01*
X95905295Y-96101299D02*
X95810057Y-96053680D01*
X95810057Y-96053680D02*
X95762438Y-96006061D01*
X95762438Y-96006061D02*
X95714819Y-95910823D01*
X95714819Y-95910823D02*
X95714819Y-95720347D01*
X95714819Y-95720347D02*
X95762438Y-95625109D01*
X95762438Y-95625109D02*
X95810057Y-95577490D01*
X95810057Y-95577490D02*
X95905295Y-95529871D01*
X95905295Y-95529871D02*
X95952914Y-95529871D01*
X95952914Y-95529871D02*
X96048152Y-95577490D01*
X96048152Y-95577490D02*
X96095771Y-95625109D01*
X96095771Y-95625109D02*
X96143390Y-95720347D01*
X96143390Y-95720347D02*
X96143390Y-95910823D01*
X96143390Y-95910823D02*
X96191009Y-96006061D01*
X96191009Y-96006061D02*
X96238628Y-96053680D01*
X96238628Y-96053680D02*
X96333866Y-96101299D01*
X96333866Y-96101299D02*
X96524342Y-96101299D01*
X96524342Y-96101299D02*
X96619580Y-96053680D01*
X96619580Y-96053680D02*
X96667200Y-96006061D01*
X96667200Y-96006061D02*
X96714819Y-95910823D01*
X96714819Y-95910823D02*
X96714819Y-95720347D01*
X96714819Y-95720347D02*
X96667200Y-95625109D01*
X96667200Y-95625109D02*
X96619580Y-95577490D01*
X96619580Y-95577490D02*
X96524342Y-95529871D01*
X96524342Y-95529871D02*
X96333866Y-95529871D01*
X96333866Y-95529871D02*
X96238628Y-95577490D01*
X96238628Y-95577490D02*
X96191009Y-95625109D01*
X96191009Y-95625109D02*
X96143390Y-95720347D01*
X95714819Y-94910823D02*
X95714819Y-94815585D01*
X95714819Y-94815585D02*
X95762438Y-94720347D01*
X95762438Y-94720347D02*
X95810057Y-94672728D01*
X95810057Y-94672728D02*
X95905295Y-94625109D01*
X95905295Y-94625109D02*
X96095771Y-94577490D01*
X96095771Y-94577490D02*
X96333866Y-94577490D01*
X96333866Y-94577490D02*
X96524342Y-94625109D01*
X96524342Y-94625109D02*
X96619580Y-94672728D01*
X96619580Y-94672728D02*
X96667200Y-94720347D01*
X96667200Y-94720347D02*
X96714819Y-94815585D01*
X96714819Y-94815585D02*
X96714819Y-94910823D01*
X96714819Y-94910823D02*
X96667200Y-95006061D01*
X96667200Y-95006061D02*
X96619580Y-95053680D01*
X96619580Y-95053680D02*
X96524342Y-95101299D01*
X96524342Y-95101299D02*
X96333866Y-95148918D01*
X96333866Y-95148918D02*
X96095771Y-95148918D01*
X96095771Y-95148918D02*
X95905295Y-95101299D01*
X95905295Y-95101299D02*
X95810057Y-95053680D01*
X95810057Y-95053680D02*
X95762438Y-95006061D01*
X95762438Y-95006061D02*
X95714819Y-94910823D01*
X96143390Y-94006061D02*
X96095771Y-94101299D01*
X96095771Y-94101299D02*
X96048152Y-94148918D01*
X96048152Y-94148918D02*
X95952914Y-94196537D01*
X95952914Y-94196537D02*
X95905295Y-94196537D01*
X95905295Y-94196537D02*
X95810057Y-94148918D01*
X95810057Y-94148918D02*
X95762438Y-94101299D01*
X95762438Y-94101299D02*
X95714819Y-94006061D01*
X95714819Y-94006061D02*
X95714819Y-93815585D01*
X95714819Y-93815585D02*
X95762438Y-93720347D01*
X95762438Y-93720347D02*
X95810057Y-93672728D01*
X95810057Y-93672728D02*
X95905295Y-93625109D01*
X95905295Y-93625109D02*
X95952914Y-93625109D01*
X95952914Y-93625109D02*
X96048152Y-93672728D01*
X96048152Y-93672728D02*
X96095771Y-93720347D01*
X96095771Y-93720347D02*
X96143390Y-93815585D01*
X96143390Y-93815585D02*
X96143390Y-94006061D01*
X96143390Y-94006061D02*
X96191009Y-94101299D01*
X96191009Y-94101299D02*
X96238628Y-94148918D01*
X96238628Y-94148918D02*
X96333866Y-94196537D01*
X96333866Y-94196537D02*
X96524342Y-94196537D01*
X96524342Y-94196537D02*
X96619580Y-94148918D01*
X96619580Y-94148918D02*
X96667200Y-94101299D01*
X96667200Y-94101299D02*
X96714819Y-94006061D01*
X96714819Y-94006061D02*
X96714819Y-93815585D01*
X96714819Y-93815585D02*
X96667200Y-93720347D01*
X96667200Y-93720347D02*
X96619580Y-93672728D01*
X96619580Y-93672728D02*
X96524342Y-93625109D01*
X96524342Y-93625109D02*
X96333866Y-93625109D01*
X96333866Y-93625109D02*
X96238628Y-93672728D01*
X96238628Y-93672728D02*
X96191009Y-93720347D01*
X96191009Y-93720347D02*
X96143390Y-93815585D01*
X96714819Y-93196537D02*
X96048152Y-93196537D01*
X96143390Y-93196537D02*
X96095771Y-93148918D01*
X96095771Y-93148918D02*
X96048152Y-93053680D01*
X96048152Y-93053680D02*
X96048152Y-92910823D01*
X96048152Y-92910823D02*
X96095771Y-92815585D01*
X96095771Y-92815585D02*
X96191009Y-92767966D01*
X96191009Y-92767966D02*
X96714819Y-92767966D01*
X96191009Y-92767966D02*
X96095771Y-92720347D01*
X96095771Y-92720347D02*
X96048152Y-92625109D01*
X96048152Y-92625109D02*
X96048152Y-92482252D01*
X96048152Y-92482252D02*
X96095771Y-92387013D01*
X96095771Y-92387013D02*
X96191009Y-92339394D01*
X96191009Y-92339394D02*
X96714819Y-92339394D01*
X96714819Y-91863204D02*
X96048152Y-91863204D01*
X96143390Y-91863204D02*
X96095771Y-91815585D01*
X96095771Y-91815585D02*
X96048152Y-91720347D01*
X96048152Y-91720347D02*
X96048152Y-91577490D01*
X96048152Y-91577490D02*
X96095771Y-91482252D01*
X96095771Y-91482252D02*
X96191009Y-91434633D01*
X96191009Y-91434633D02*
X96714819Y-91434633D01*
X96191009Y-91434633D02*
X96095771Y-91387014D01*
X96095771Y-91387014D02*
X96048152Y-91291776D01*
X96048152Y-91291776D02*
X96048152Y-91148919D01*
X96048152Y-91148919D02*
X96095771Y-91053680D01*
X96095771Y-91053680D02*
X96191009Y-91006061D01*
X96191009Y-91006061D02*
X96714819Y-91006061D01*
X80174820Y-106454760D02*
X80174820Y-106359522D01*
X80174820Y-106359522D02*
X80222439Y-106264284D01*
X80222439Y-106264284D02*
X80270058Y-106216665D01*
X80270058Y-106216665D02*
X80365296Y-106169046D01*
X80365296Y-106169046D02*
X80555772Y-106121427D01*
X80555772Y-106121427D02*
X80793867Y-106121427D01*
X80793867Y-106121427D02*
X80984343Y-106169046D01*
X80984343Y-106169046D02*
X81079581Y-106216665D01*
X81079581Y-106216665D02*
X81127201Y-106264284D01*
X81127201Y-106264284D02*
X81174820Y-106359522D01*
X81174820Y-106359522D02*
X81174820Y-106454760D01*
X81174820Y-106454760D02*
X81127201Y-106549998D01*
X81127201Y-106549998D02*
X81079581Y-106597617D01*
X81079581Y-106597617D02*
X80984343Y-106645236D01*
X80984343Y-106645236D02*
X80793867Y-106692855D01*
X80793867Y-106692855D02*
X80555772Y-106692855D01*
X80555772Y-106692855D02*
X80365296Y-106645236D01*
X80365296Y-106645236D02*
X80270058Y-106597617D01*
X80270058Y-106597617D02*
X80222439Y-106549998D01*
X80222439Y-106549998D02*
X80174820Y-106454760D01*
X81079581Y-105692855D02*
X81127201Y-105645236D01*
X81127201Y-105645236D02*
X81174820Y-105692855D01*
X81174820Y-105692855D02*
X81127201Y-105740474D01*
X81127201Y-105740474D02*
X81079581Y-105692855D01*
X81079581Y-105692855D02*
X81174820Y-105692855D01*
X81174820Y-104692856D02*
X81174820Y-105264284D01*
X81174820Y-104978570D02*
X80174820Y-104978570D01*
X80174820Y-104978570D02*
X80317677Y-105073808D01*
X80317677Y-105073808D02*
X80412915Y-105169046D01*
X80412915Y-105169046D02*
X80460534Y-105264284D01*
X81174820Y-104216665D02*
X81174820Y-104026189D01*
X81174820Y-104026189D02*
X81127201Y-103930951D01*
X81127201Y-103930951D02*
X81079581Y-103883332D01*
X81079581Y-103883332D02*
X80936724Y-103788094D01*
X80936724Y-103788094D02*
X80746248Y-103740475D01*
X80746248Y-103740475D02*
X80365296Y-103740475D01*
X80365296Y-103740475D02*
X80270058Y-103788094D01*
X80270058Y-103788094D02*
X80222439Y-103835713D01*
X80222439Y-103835713D02*
X80174820Y-103930951D01*
X80174820Y-103930951D02*
X80174820Y-104121427D01*
X80174820Y-104121427D02*
X80222439Y-104216665D01*
X80222439Y-104216665D02*
X80270058Y-104264284D01*
X80270058Y-104264284D02*
X80365296Y-104311903D01*
X80365296Y-104311903D02*
X80603391Y-104311903D01*
X80603391Y-104311903D02*
X80698629Y-104264284D01*
X80698629Y-104264284D02*
X80746248Y-104216665D01*
X80746248Y-104216665D02*
X80793867Y-104121427D01*
X80793867Y-104121427D02*
X80793867Y-103930951D01*
X80793867Y-103930951D02*
X80746248Y-103835713D01*
X80746248Y-103835713D02*
X80698629Y-103788094D01*
X80698629Y-103788094D02*
X80603391Y-103740475D01*
X80174820Y-103407141D02*
X80174820Y-102788094D01*
X80174820Y-102788094D02*
X80555772Y-103121427D01*
X80555772Y-103121427D02*
X80555772Y-102978570D01*
X80555772Y-102978570D02*
X80603391Y-102883332D01*
X80603391Y-102883332D02*
X80651010Y-102835713D01*
X80651010Y-102835713D02*
X80746248Y-102788094D01*
X80746248Y-102788094D02*
X80984343Y-102788094D01*
X80984343Y-102788094D02*
X81079581Y-102835713D01*
X81079581Y-102835713D02*
X81127201Y-102883332D01*
X81127201Y-102883332D02*
X81174820Y-102978570D01*
X81174820Y-102978570D02*
X81174820Y-103264284D01*
X81174820Y-103264284D02*
X81127201Y-103359522D01*
X81127201Y-103359522D02*
X81079581Y-103407141D01*
X81174820Y-102359522D02*
X80508153Y-102359522D01*
X80174820Y-102359522D02*
X80222439Y-102407141D01*
X80222439Y-102407141D02*
X80270058Y-102359522D01*
X80270058Y-102359522D02*
X80222439Y-102311903D01*
X80222439Y-102311903D02*
X80174820Y-102359522D01*
X80174820Y-102359522D02*
X80270058Y-102359522D01*
X80508153Y-101883332D02*
X81174820Y-101883332D01*
X80603391Y-101883332D02*
X80555772Y-101835713D01*
X80555772Y-101835713D02*
X80508153Y-101740475D01*
X80508153Y-101740475D02*
X80508153Y-101597618D01*
X80508153Y-101597618D02*
X80555772Y-101502380D01*
X80555772Y-101502380D02*
X80651010Y-101454761D01*
X80651010Y-101454761D02*
X81174820Y-101454761D01*
X80127201Y-100264285D02*
X81412915Y-101121427D01*
X80508153Y-99502380D02*
X81174820Y-99502380D01*
X80127201Y-99740475D02*
X80841486Y-99978570D01*
X80841486Y-99978570D02*
X80841486Y-99359523D01*
X81079581Y-98978570D02*
X81127201Y-98930951D01*
X81127201Y-98930951D02*
X81174820Y-98978570D01*
X81174820Y-98978570D02*
X81127201Y-99026189D01*
X81127201Y-99026189D02*
X81079581Y-98978570D01*
X81079581Y-98978570D02*
X81174820Y-98978570D01*
X80603391Y-98359523D02*
X80555772Y-98454761D01*
X80555772Y-98454761D02*
X80508153Y-98502380D01*
X80508153Y-98502380D02*
X80412915Y-98549999D01*
X80412915Y-98549999D02*
X80365296Y-98549999D01*
X80365296Y-98549999D02*
X80270058Y-98502380D01*
X80270058Y-98502380D02*
X80222439Y-98454761D01*
X80222439Y-98454761D02*
X80174820Y-98359523D01*
X80174820Y-98359523D02*
X80174820Y-98169047D01*
X80174820Y-98169047D02*
X80222439Y-98073809D01*
X80222439Y-98073809D02*
X80270058Y-98026190D01*
X80270058Y-98026190D02*
X80365296Y-97978571D01*
X80365296Y-97978571D02*
X80412915Y-97978571D01*
X80412915Y-97978571D02*
X80508153Y-98026190D01*
X80508153Y-98026190D02*
X80555772Y-98073809D01*
X80555772Y-98073809D02*
X80603391Y-98169047D01*
X80603391Y-98169047D02*
X80603391Y-98359523D01*
X80603391Y-98359523D02*
X80651010Y-98454761D01*
X80651010Y-98454761D02*
X80698629Y-98502380D01*
X80698629Y-98502380D02*
X80793867Y-98549999D01*
X80793867Y-98549999D02*
X80984343Y-98549999D01*
X80984343Y-98549999D02*
X81079581Y-98502380D01*
X81079581Y-98502380D02*
X81127201Y-98454761D01*
X81127201Y-98454761D02*
X81174820Y-98359523D01*
X81174820Y-98359523D02*
X81174820Y-98169047D01*
X81174820Y-98169047D02*
X81127201Y-98073809D01*
X81127201Y-98073809D02*
X81079581Y-98026190D01*
X81079581Y-98026190D02*
X80984343Y-97978571D01*
X80984343Y-97978571D02*
X80793867Y-97978571D01*
X80793867Y-97978571D02*
X80698629Y-98026190D01*
X80698629Y-98026190D02*
X80651010Y-98073809D01*
X80651010Y-98073809D02*
X80603391Y-98169047D01*
X81174820Y-97502380D02*
X81174820Y-97311904D01*
X81174820Y-97311904D02*
X81127201Y-97216666D01*
X81127201Y-97216666D02*
X81079581Y-97169047D01*
X81079581Y-97169047D02*
X80936724Y-97073809D01*
X80936724Y-97073809D02*
X80746248Y-97026190D01*
X80746248Y-97026190D02*
X80365296Y-97026190D01*
X80365296Y-97026190D02*
X80270058Y-97073809D01*
X80270058Y-97073809D02*
X80222439Y-97121428D01*
X80222439Y-97121428D02*
X80174820Y-97216666D01*
X80174820Y-97216666D02*
X80174820Y-97407142D01*
X80174820Y-97407142D02*
X80222439Y-97502380D01*
X80222439Y-97502380D02*
X80270058Y-97549999D01*
X80270058Y-97549999D02*
X80365296Y-97597618D01*
X80365296Y-97597618D02*
X80603391Y-97597618D01*
X80603391Y-97597618D02*
X80698629Y-97549999D01*
X80698629Y-97549999D02*
X80746248Y-97502380D01*
X80746248Y-97502380D02*
X80793867Y-97407142D01*
X80793867Y-97407142D02*
X80793867Y-97216666D01*
X80793867Y-97216666D02*
X80746248Y-97121428D01*
X80746248Y-97121428D02*
X80698629Y-97073809D01*
X80698629Y-97073809D02*
X80603391Y-97026190D01*
X80174820Y-96692856D02*
X80174820Y-96026190D01*
X80174820Y-96026190D02*
X81174820Y-96454761D01*
X81174820Y-95645237D02*
X80508153Y-95645237D01*
X80603391Y-95645237D02*
X80555772Y-95597618D01*
X80555772Y-95597618D02*
X80508153Y-95502380D01*
X80508153Y-95502380D02*
X80508153Y-95359523D01*
X80508153Y-95359523D02*
X80555772Y-95264285D01*
X80555772Y-95264285D02*
X80651010Y-95216666D01*
X80651010Y-95216666D02*
X81174820Y-95216666D01*
X80651010Y-95216666D02*
X80555772Y-95169047D01*
X80555772Y-95169047D02*
X80508153Y-95073809D01*
X80508153Y-95073809D02*
X80508153Y-94930952D01*
X80508153Y-94930952D02*
X80555772Y-94835713D01*
X80555772Y-94835713D02*
X80651010Y-94788094D01*
X80651010Y-94788094D02*
X81174820Y-94788094D01*
X81174820Y-94311904D02*
X80508153Y-94311904D01*
X80603391Y-94311904D02*
X80555772Y-94264285D01*
X80555772Y-94264285D02*
X80508153Y-94169047D01*
X80508153Y-94169047D02*
X80508153Y-94026190D01*
X80508153Y-94026190D02*
X80555772Y-93930952D01*
X80555772Y-93930952D02*
X80651010Y-93883333D01*
X80651010Y-93883333D02*
X81174820Y-93883333D01*
X80651010Y-93883333D02*
X80555772Y-93835714D01*
X80555772Y-93835714D02*
X80508153Y-93740476D01*
X80508153Y-93740476D02*
X80508153Y-93597619D01*
X80508153Y-93597619D02*
X80555772Y-93502380D01*
X80555772Y-93502380D02*
X80651010Y-93454761D01*
X80651010Y-93454761D02*
X81174820Y-93454761D01*
X89849819Y-111407760D02*
X89849819Y-111312522D01*
X89849819Y-111312522D02*
X89897438Y-111217284D01*
X89897438Y-111217284D02*
X89945057Y-111169665D01*
X89945057Y-111169665D02*
X90040295Y-111122046D01*
X90040295Y-111122046D02*
X90230771Y-111074427D01*
X90230771Y-111074427D02*
X90468866Y-111074427D01*
X90468866Y-111074427D02*
X90659342Y-111122046D01*
X90659342Y-111122046D02*
X90754580Y-111169665D01*
X90754580Y-111169665D02*
X90802200Y-111217284D01*
X90802200Y-111217284D02*
X90849819Y-111312522D01*
X90849819Y-111312522D02*
X90849819Y-111407760D01*
X90849819Y-111407760D02*
X90802200Y-111502998D01*
X90802200Y-111502998D02*
X90754580Y-111550617D01*
X90754580Y-111550617D02*
X90659342Y-111598236D01*
X90659342Y-111598236D02*
X90468866Y-111645855D01*
X90468866Y-111645855D02*
X90230771Y-111645855D01*
X90230771Y-111645855D02*
X90040295Y-111598236D01*
X90040295Y-111598236D02*
X89945057Y-111550617D01*
X89945057Y-111550617D02*
X89897438Y-111502998D01*
X89897438Y-111502998D02*
X89849819Y-111407760D01*
X90754580Y-110645855D02*
X90802200Y-110598236D01*
X90802200Y-110598236D02*
X90849819Y-110645855D01*
X90849819Y-110645855D02*
X90802200Y-110693474D01*
X90802200Y-110693474D02*
X90754580Y-110645855D01*
X90754580Y-110645855D02*
X90849819Y-110645855D01*
X89945057Y-110217284D02*
X89897438Y-110169665D01*
X89897438Y-110169665D02*
X89849819Y-110074427D01*
X89849819Y-110074427D02*
X89849819Y-109836332D01*
X89849819Y-109836332D02*
X89897438Y-109741094D01*
X89897438Y-109741094D02*
X89945057Y-109693475D01*
X89945057Y-109693475D02*
X90040295Y-109645856D01*
X90040295Y-109645856D02*
X90135533Y-109645856D01*
X90135533Y-109645856D02*
X90278390Y-109693475D01*
X90278390Y-109693475D02*
X90849819Y-110264903D01*
X90849819Y-110264903D02*
X90849819Y-109645856D01*
X89945057Y-109264903D02*
X89897438Y-109217284D01*
X89897438Y-109217284D02*
X89849819Y-109122046D01*
X89849819Y-109122046D02*
X89849819Y-108883951D01*
X89849819Y-108883951D02*
X89897438Y-108788713D01*
X89897438Y-108788713D02*
X89945057Y-108741094D01*
X89945057Y-108741094D02*
X90040295Y-108693475D01*
X90040295Y-108693475D02*
X90135533Y-108693475D01*
X90135533Y-108693475D02*
X90278390Y-108741094D01*
X90278390Y-108741094D02*
X90849819Y-109312522D01*
X90849819Y-109312522D02*
X90849819Y-108693475D01*
X90278390Y-108122046D02*
X90230771Y-108217284D01*
X90230771Y-108217284D02*
X90183152Y-108264903D01*
X90183152Y-108264903D02*
X90087914Y-108312522D01*
X90087914Y-108312522D02*
X90040295Y-108312522D01*
X90040295Y-108312522D02*
X89945057Y-108264903D01*
X89945057Y-108264903D02*
X89897438Y-108217284D01*
X89897438Y-108217284D02*
X89849819Y-108122046D01*
X89849819Y-108122046D02*
X89849819Y-107931570D01*
X89849819Y-107931570D02*
X89897438Y-107836332D01*
X89897438Y-107836332D02*
X89945057Y-107788713D01*
X89945057Y-107788713D02*
X90040295Y-107741094D01*
X90040295Y-107741094D02*
X90087914Y-107741094D01*
X90087914Y-107741094D02*
X90183152Y-107788713D01*
X90183152Y-107788713D02*
X90230771Y-107836332D01*
X90230771Y-107836332D02*
X90278390Y-107931570D01*
X90278390Y-107931570D02*
X90278390Y-108122046D01*
X90278390Y-108122046D02*
X90326009Y-108217284D01*
X90326009Y-108217284D02*
X90373628Y-108264903D01*
X90373628Y-108264903D02*
X90468866Y-108312522D01*
X90468866Y-108312522D02*
X90659342Y-108312522D01*
X90659342Y-108312522D02*
X90754580Y-108264903D01*
X90754580Y-108264903D02*
X90802200Y-108217284D01*
X90802200Y-108217284D02*
X90849819Y-108122046D01*
X90849819Y-108122046D02*
X90849819Y-107931570D01*
X90849819Y-107931570D02*
X90802200Y-107836332D01*
X90802200Y-107836332D02*
X90754580Y-107788713D01*
X90754580Y-107788713D02*
X90659342Y-107741094D01*
X90659342Y-107741094D02*
X90468866Y-107741094D01*
X90468866Y-107741094D02*
X90373628Y-107788713D01*
X90373628Y-107788713D02*
X90326009Y-107836332D01*
X90326009Y-107836332D02*
X90278390Y-107931570D01*
X90849819Y-107312522D02*
X90183152Y-107312522D01*
X89849819Y-107312522D02*
X89897438Y-107360141D01*
X89897438Y-107360141D02*
X89945057Y-107312522D01*
X89945057Y-107312522D02*
X89897438Y-107264903D01*
X89897438Y-107264903D02*
X89849819Y-107312522D01*
X89849819Y-107312522D02*
X89945057Y-107312522D01*
X90183152Y-106836332D02*
X90849819Y-106836332D01*
X90278390Y-106836332D02*
X90230771Y-106788713D01*
X90230771Y-106788713D02*
X90183152Y-106693475D01*
X90183152Y-106693475D02*
X90183152Y-106550618D01*
X90183152Y-106550618D02*
X90230771Y-106455380D01*
X90230771Y-106455380D02*
X90326009Y-106407761D01*
X90326009Y-106407761D02*
X90849819Y-106407761D01*
X89802200Y-105217285D02*
X91087914Y-106074427D01*
X89849819Y-104407761D02*
X89849819Y-104883951D01*
X89849819Y-104883951D02*
X90326009Y-104931570D01*
X90326009Y-104931570D02*
X90278390Y-104883951D01*
X90278390Y-104883951D02*
X90230771Y-104788713D01*
X90230771Y-104788713D02*
X90230771Y-104550618D01*
X90230771Y-104550618D02*
X90278390Y-104455380D01*
X90278390Y-104455380D02*
X90326009Y-104407761D01*
X90326009Y-104407761D02*
X90421247Y-104360142D01*
X90421247Y-104360142D02*
X90659342Y-104360142D01*
X90659342Y-104360142D02*
X90754580Y-104407761D01*
X90754580Y-104407761D02*
X90802200Y-104455380D01*
X90802200Y-104455380D02*
X90849819Y-104550618D01*
X90849819Y-104550618D02*
X90849819Y-104788713D01*
X90849819Y-104788713D02*
X90802200Y-104883951D01*
X90802200Y-104883951D02*
X90754580Y-104931570D01*
X90754580Y-103931570D02*
X90802200Y-103883951D01*
X90802200Y-103883951D02*
X90849819Y-103931570D01*
X90849819Y-103931570D02*
X90802200Y-103979189D01*
X90802200Y-103979189D02*
X90754580Y-103931570D01*
X90754580Y-103931570D02*
X90849819Y-103931570D01*
X89849819Y-103550618D02*
X89849819Y-102883952D01*
X89849819Y-102883952D02*
X90849819Y-103312523D01*
X90849819Y-102455380D02*
X90849819Y-102264904D01*
X90849819Y-102264904D02*
X90802200Y-102169666D01*
X90802200Y-102169666D02*
X90754580Y-102122047D01*
X90754580Y-102122047D02*
X90611723Y-102026809D01*
X90611723Y-102026809D02*
X90421247Y-101979190D01*
X90421247Y-101979190D02*
X90040295Y-101979190D01*
X90040295Y-101979190D02*
X89945057Y-102026809D01*
X89945057Y-102026809D02*
X89897438Y-102074428D01*
X89897438Y-102074428D02*
X89849819Y-102169666D01*
X89849819Y-102169666D02*
X89849819Y-102360142D01*
X89849819Y-102360142D02*
X89897438Y-102455380D01*
X89897438Y-102455380D02*
X89945057Y-102502999D01*
X89945057Y-102502999D02*
X90040295Y-102550618D01*
X90040295Y-102550618D02*
X90278390Y-102550618D01*
X90278390Y-102550618D02*
X90373628Y-102502999D01*
X90373628Y-102502999D02*
X90421247Y-102455380D01*
X90421247Y-102455380D02*
X90468866Y-102360142D01*
X90468866Y-102360142D02*
X90468866Y-102169666D01*
X90468866Y-102169666D02*
X90421247Y-102074428D01*
X90421247Y-102074428D02*
X90373628Y-102026809D01*
X90373628Y-102026809D02*
X90278390Y-101979190D01*
X90849819Y-101026809D02*
X90849819Y-101598237D01*
X90849819Y-101312523D02*
X89849819Y-101312523D01*
X89849819Y-101312523D02*
X89992676Y-101407761D01*
X89992676Y-101407761D02*
X90087914Y-101502999D01*
X90087914Y-101502999D02*
X90135533Y-101598237D01*
X90849819Y-100598237D02*
X90183152Y-100598237D01*
X90278390Y-100598237D02*
X90230771Y-100550618D01*
X90230771Y-100550618D02*
X90183152Y-100455380D01*
X90183152Y-100455380D02*
X90183152Y-100312523D01*
X90183152Y-100312523D02*
X90230771Y-100217285D01*
X90230771Y-100217285D02*
X90326009Y-100169666D01*
X90326009Y-100169666D02*
X90849819Y-100169666D01*
X90326009Y-100169666D02*
X90230771Y-100122047D01*
X90230771Y-100122047D02*
X90183152Y-100026809D01*
X90183152Y-100026809D02*
X90183152Y-99883952D01*
X90183152Y-99883952D02*
X90230771Y-99788713D01*
X90230771Y-99788713D02*
X90326009Y-99741094D01*
X90326009Y-99741094D02*
X90849819Y-99741094D01*
X90849819Y-99264904D02*
X90183152Y-99264904D01*
X90278390Y-99264904D02*
X90230771Y-99217285D01*
X90230771Y-99217285D02*
X90183152Y-99122047D01*
X90183152Y-99122047D02*
X90183152Y-98979190D01*
X90183152Y-98979190D02*
X90230771Y-98883952D01*
X90230771Y-98883952D02*
X90326009Y-98836333D01*
X90326009Y-98836333D02*
X90849819Y-98836333D01*
X90326009Y-98836333D02*
X90230771Y-98788714D01*
X90230771Y-98788714D02*
X90183152Y-98693476D01*
X90183152Y-98693476D02*
X90183152Y-98550619D01*
X90183152Y-98550619D02*
X90230771Y-98455380D01*
X90230771Y-98455380D02*
X90326009Y-98407761D01*
X90326009Y-98407761D02*
X90849819Y-98407761D01*
X83271219Y-105502379D02*
X83271219Y-105407141D01*
X83271219Y-105407141D02*
X83318838Y-105311903D01*
X83318838Y-105311903D02*
X83366457Y-105264284D01*
X83366457Y-105264284D02*
X83461695Y-105216665D01*
X83461695Y-105216665D02*
X83652171Y-105169046D01*
X83652171Y-105169046D02*
X83890266Y-105169046D01*
X83890266Y-105169046D02*
X84080742Y-105216665D01*
X84080742Y-105216665D02*
X84175980Y-105264284D01*
X84175980Y-105264284D02*
X84223600Y-105311903D01*
X84223600Y-105311903D02*
X84271219Y-105407141D01*
X84271219Y-105407141D02*
X84271219Y-105502379D01*
X84271219Y-105502379D02*
X84223600Y-105597617D01*
X84223600Y-105597617D02*
X84175980Y-105645236D01*
X84175980Y-105645236D02*
X84080742Y-105692855D01*
X84080742Y-105692855D02*
X83890266Y-105740474D01*
X83890266Y-105740474D02*
X83652171Y-105740474D01*
X83652171Y-105740474D02*
X83461695Y-105692855D01*
X83461695Y-105692855D02*
X83366457Y-105645236D01*
X83366457Y-105645236D02*
X83318838Y-105597617D01*
X83318838Y-105597617D02*
X83271219Y-105502379D01*
X84175980Y-104740474D02*
X84223600Y-104692855D01*
X84223600Y-104692855D02*
X84271219Y-104740474D01*
X84271219Y-104740474D02*
X84223600Y-104788093D01*
X84223600Y-104788093D02*
X84175980Y-104740474D01*
X84175980Y-104740474D02*
X84271219Y-104740474D01*
X84271219Y-103740475D02*
X84271219Y-104311903D01*
X84271219Y-104026189D02*
X83271219Y-104026189D01*
X83271219Y-104026189D02*
X83414076Y-104121427D01*
X83414076Y-104121427D02*
X83509314Y-104216665D01*
X83509314Y-104216665D02*
X83556933Y-104311903D01*
X83271219Y-102835713D02*
X83271219Y-103311903D01*
X83271219Y-103311903D02*
X83747409Y-103359522D01*
X83747409Y-103359522D02*
X83699790Y-103311903D01*
X83699790Y-103311903D02*
X83652171Y-103216665D01*
X83652171Y-103216665D02*
X83652171Y-102978570D01*
X83652171Y-102978570D02*
X83699790Y-102883332D01*
X83699790Y-102883332D02*
X83747409Y-102835713D01*
X83747409Y-102835713D02*
X83842647Y-102788094D01*
X83842647Y-102788094D02*
X84080742Y-102788094D01*
X84080742Y-102788094D02*
X84175980Y-102835713D01*
X84175980Y-102835713D02*
X84223600Y-102883332D01*
X84223600Y-102883332D02*
X84271219Y-102978570D01*
X84271219Y-102978570D02*
X84271219Y-103216665D01*
X84271219Y-103216665D02*
X84223600Y-103311903D01*
X84223600Y-103311903D02*
X84175980Y-103359522D01*
X84271219Y-102359522D02*
X83604552Y-102359522D01*
X83271219Y-102359522D02*
X83318838Y-102407141D01*
X83318838Y-102407141D02*
X83366457Y-102359522D01*
X83366457Y-102359522D02*
X83318838Y-102311903D01*
X83318838Y-102311903D02*
X83271219Y-102359522D01*
X83271219Y-102359522D02*
X83366457Y-102359522D01*
X83604552Y-101883332D02*
X84271219Y-101883332D01*
X83699790Y-101883332D02*
X83652171Y-101835713D01*
X83652171Y-101835713D02*
X83604552Y-101740475D01*
X83604552Y-101740475D02*
X83604552Y-101597618D01*
X83604552Y-101597618D02*
X83652171Y-101502380D01*
X83652171Y-101502380D02*
X83747409Y-101454761D01*
X83747409Y-101454761D02*
X84271219Y-101454761D01*
X83223600Y-100264285D02*
X84509314Y-101121427D01*
X83271219Y-100026189D02*
X83271219Y-99407142D01*
X83271219Y-99407142D02*
X83652171Y-99740475D01*
X83652171Y-99740475D02*
X83652171Y-99597618D01*
X83652171Y-99597618D02*
X83699790Y-99502380D01*
X83699790Y-99502380D02*
X83747409Y-99454761D01*
X83747409Y-99454761D02*
X83842647Y-99407142D01*
X83842647Y-99407142D02*
X84080742Y-99407142D01*
X84080742Y-99407142D02*
X84175980Y-99454761D01*
X84175980Y-99454761D02*
X84223600Y-99502380D01*
X84223600Y-99502380D02*
X84271219Y-99597618D01*
X84271219Y-99597618D02*
X84271219Y-99883332D01*
X84271219Y-99883332D02*
X84223600Y-99978570D01*
X84223600Y-99978570D02*
X84175980Y-100026189D01*
X84175980Y-98978570D02*
X84223600Y-98930951D01*
X84223600Y-98930951D02*
X84271219Y-98978570D01*
X84271219Y-98978570D02*
X84223600Y-99026189D01*
X84223600Y-99026189D02*
X84175980Y-98978570D01*
X84175980Y-98978570D02*
X84271219Y-98978570D01*
X83699790Y-98359523D02*
X83652171Y-98454761D01*
X83652171Y-98454761D02*
X83604552Y-98502380D01*
X83604552Y-98502380D02*
X83509314Y-98549999D01*
X83509314Y-98549999D02*
X83461695Y-98549999D01*
X83461695Y-98549999D02*
X83366457Y-98502380D01*
X83366457Y-98502380D02*
X83318838Y-98454761D01*
X83318838Y-98454761D02*
X83271219Y-98359523D01*
X83271219Y-98359523D02*
X83271219Y-98169047D01*
X83271219Y-98169047D02*
X83318838Y-98073809D01*
X83318838Y-98073809D02*
X83366457Y-98026190D01*
X83366457Y-98026190D02*
X83461695Y-97978571D01*
X83461695Y-97978571D02*
X83509314Y-97978571D01*
X83509314Y-97978571D02*
X83604552Y-98026190D01*
X83604552Y-98026190D02*
X83652171Y-98073809D01*
X83652171Y-98073809D02*
X83699790Y-98169047D01*
X83699790Y-98169047D02*
X83699790Y-98359523D01*
X83699790Y-98359523D02*
X83747409Y-98454761D01*
X83747409Y-98454761D02*
X83795028Y-98502380D01*
X83795028Y-98502380D02*
X83890266Y-98549999D01*
X83890266Y-98549999D02*
X84080742Y-98549999D01*
X84080742Y-98549999D02*
X84175980Y-98502380D01*
X84175980Y-98502380D02*
X84223600Y-98454761D01*
X84223600Y-98454761D02*
X84271219Y-98359523D01*
X84271219Y-98359523D02*
X84271219Y-98169047D01*
X84271219Y-98169047D02*
X84223600Y-98073809D01*
X84223600Y-98073809D02*
X84175980Y-98026190D01*
X84175980Y-98026190D02*
X84080742Y-97978571D01*
X84080742Y-97978571D02*
X83890266Y-97978571D01*
X83890266Y-97978571D02*
X83795028Y-98026190D01*
X83795028Y-98026190D02*
X83747409Y-98073809D01*
X83747409Y-98073809D02*
X83699790Y-98169047D01*
X84271219Y-97026190D02*
X84271219Y-97597618D01*
X84271219Y-97311904D02*
X83271219Y-97311904D01*
X83271219Y-97311904D02*
X83414076Y-97407142D01*
X83414076Y-97407142D02*
X83509314Y-97502380D01*
X83509314Y-97502380D02*
X83556933Y-97597618D01*
X84271219Y-96597618D02*
X83604552Y-96597618D01*
X83699790Y-96597618D02*
X83652171Y-96549999D01*
X83652171Y-96549999D02*
X83604552Y-96454761D01*
X83604552Y-96454761D02*
X83604552Y-96311904D01*
X83604552Y-96311904D02*
X83652171Y-96216666D01*
X83652171Y-96216666D02*
X83747409Y-96169047D01*
X83747409Y-96169047D02*
X84271219Y-96169047D01*
X83747409Y-96169047D02*
X83652171Y-96121428D01*
X83652171Y-96121428D02*
X83604552Y-96026190D01*
X83604552Y-96026190D02*
X83604552Y-95883333D01*
X83604552Y-95883333D02*
X83652171Y-95788094D01*
X83652171Y-95788094D02*
X83747409Y-95740475D01*
X83747409Y-95740475D02*
X84271219Y-95740475D01*
X84271219Y-95264285D02*
X83604552Y-95264285D01*
X83699790Y-95264285D02*
X83652171Y-95216666D01*
X83652171Y-95216666D02*
X83604552Y-95121428D01*
X83604552Y-95121428D02*
X83604552Y-94978571D01*
X83604552Y-94978571D02*
X83652171Y-94883333D01*
X83652171Y-94883333D02*
X83747409Y-94835714D01*
X83747409Y-94835714D02*
X84271219Y-94835714D01*
X83747409Y-94835714D02*
X83652171Y-94788095D01*
X83652171Y-94788095D02*
X83604552Y-94692857D01*
X83604552Y-94692857D02*
X83604552Y-94550000D01*
X83604552Y-94550000D02*
X83652171Y-94454761D01*
X83652171Y-94454761D02*
X83747409Y-94407142D01*
X83747409Y-94407142D02*
X84271219Y-94407142D01*
D13*
X89806553Y-102695833D02*
X89812601Y-102701881D01*
X89812601Y-102701881D02*
X89818648Y-102720023D01*
X89818648Y-102720023D02*
X89818648Y-102732119D01*
X89818648Y-102732119D02*
X89812601Y-102750262D01*
X89812601Y-102750262D02*
X89800505Y-102762357D01*
X89800505Y-102762357D02*
X89788410Y-102768404D01*
X89788410Y-102768404D02*
X89764220Y-102774452D01*
X89764220Y-102774452D02*
X89746077Y-102774452D01*
X89746077Y-102774452D02*
X89721886Y-102768404D01*
X89721886Y-102768404D02*
X89709791Y-102762357D01*
X89709791Y-102762357D02*
X89697696Y-102750262D01*
X89697696Y-102750262D02*
X89691648Y-102732119D01*
X89691648Y-102732119D02*
X89691648Y-102720023D01*
X89691648Y-102720023D02*
X89697696Y-102701881D01*
X89697696Y-102701881D02*
X89703743Y-102695833D01*
X89818648Y-102623262D02*
X89812601Y-102635357D01*
X89812601Y-102635357D02*
X89806553Y-102641404D01*
X89806553Y-102641404D02*
X89794458Y-102647452D01*
X89794458Y-102647452D02*
X89758172Y-102647452D01*
X89758172Y-102647452D02*
X89746077Y-102641404D01*
X89746077Y-102641404D02*
X89740029Y-102635357D01*
X89740029Y-102635357D02*
X89733981Y-102623262D01*
X89733981Y-102623262D02*
X89733981Y-102605119D01*
X89733981Y-102605119D02*
X89740029Y-102593023D01*
X89740029Y-102593023D02*
X89746077Y-102586976D01*
X89746077Y-102586976D02*
X89758172Y-102580928D01*
X89758172Y-102580928D02*
X89794458Y-102580928D01*
X89794458Y-102580928D02*
X89806553Y-102586976D01*
X89806553Y-102586976D02*
X89812601Y-102593023D01*
X89812601Y-102593023D02*
X89818648Y-102605119D01*
X89818648Y-102605119D02*
X89818648Y-102623262D01*
X89733981Y-102526499D02*
X89860981Y-102526499D01*
X89740029Y-102526499D02*
X89733981Y-102514404D01*
X89733981Y-102514404D02*
X89733981Y-102490214D01*
X89733981Y-102490214D02*
X89740029Y-102478118D01*
X89740029Y-102478118D02*
X89746077Y-102472071D01*
X89746077Y-102472071D02*
X89758172Y-102466023D01*
X89758172Y-102466023D02*
X89794458Y-102466023D01*
X89794458Y-102466023D02*
X89806553Y-102472071D01*
X89806553Y-102472071D02*
X89812601Y-102478118D01*
X89812601Y-102478118D02*
X89818648Y-102490214D01*
X89818648Y-102490214D02*
X89818648Y-102514404D01*
X89818648Y-102514404D02*
X89812601Y-102526499D01*
X89733981Y-102423690D02*
X89818648Y-102393452D01*
X89733981Y-102363213D02*
X89818648Y-102393452D01*
X89818648Y-102393452D02*
X89848886Y-102405547D01*
X89848886Y-102405547D02*
X89854934Y-102411594D01*
X89854934Y-102411594D02*
X89860981Y-102423690D01*
X89818648Y-102314832D02*
X89733981Y-102314832D01*
X89758172Y-102314832D02*
X89746077Y-102308785D01*
X89746077Y-102308785D02*
X89740029Y-102302737D01*
X89740029Y-102302737D02*
X89733981Y-102290642D01*
X89733981Y-102290642D02*
X89733981Y-102278547D01*
X89818648Y-102236213D02*
X89733981Y-102236213D01*
X89691648Y-102236213D02*
X89697696Y-102242261D01*
X89697696Y-102242261D02*
X89703743Y-102236213D01*
X89703743Y-102236213D02*
X89697696Y-102230166D01*
X89697696Y-102230166D02*
X89691648Y-102236213D01*
X89691648Y-102236213D02*
X89703743Y-102236213D01*
X89733981Y-102121309D02*
X89836791Y-102121309D01*
X89836791Y-102121309D02*
X89848886Y-102127356D01*
X89848886Y-102127356D02*
X89854934Y-102133404D01*
X89854934Y-102133404D02*
X89860981Y-102145499D01*
X89860981Y-102145499D02*
X89860981Y-102163642D01*
X89860981Y-102163642D02*
X89854934Y-102175737D01*
X89812601Y-102121309D02*
X89818648Y-102133404D01*
X89818648Y-102133404D02*
X89818648Y-102157595D01*
X89818648Y-102157595D02*
X89812601Y-102169690D01*
X89812601Y-102169690D02*
X89806553Y-102175737D01*
X89806553Y-102175737D02*
X89794458Y-102181785D01*
X89794458Y-102181785D02*
X89758172Y-102181785D01*
X89758172Y-102181785D02*
X89746077Y-102175737D01*
X89746077Y-102175737D02*
X89740029Y-102169690D01*
X89740029Y-102169690D02*
X89733981Y-102157595D01*
X89733981Y-102157595D02*
X89733981Y-102133404D01*
X89733981Y-102133404D02*
X89740029Y-102121309D01*
X89818648Y-102060832D02*
X89691648Y-102060832D01*
X89818648Y-102006404D02*
X89752124Y-102006404D01*
X89752124Y-102006404D02*
X89740029Y-102012451D01*
X89740029Y-102012451D02*
X89733981Y-102024547D01*
X89733981Y-102024547D02*
X89733981Y-102042690D01*
X89733981Y-102042690D02*
X89740029Y-102054785D01*
X89740029Y-102054785D02*
X89746077Y-102060832D01*
X89733981Y-101964070D02*
X89733981Y-101915689D01*
X89691648Y-101945927D02*
X89800505Y-101945927D01*
X89800505Y-101945927D02*
X89812601Y-101939880D01*
X89812601Y-101939880D02*
X89818648Y-101927785D01*
X89818648Y-101927785D02*
X89818648Y-101915689D01*
X89703743Y-101782642D02*
X89697696Y-101776594D01*
X89697696Y-101776594D02*
X89691648Y-101764499D01*
X89691648Y-101764499D02*
X89691648Y-101734261D01*
X89691648Y-101734261D02*
X89697696Y-101722166D01*
X89697696Y-101722166D02*
X89703743Y-101716118D01*
X89703743Y-101716118D02*
X89715839Y-101710071D01*
X89715839Y-101710071D02*
X89727934Y-101710071D01*
X89727934Y-101710071D02*
X89746077Y-101716118D01*
X89746077Y-101716118D02*
X89818648Y-101788690D01*
X89818648Y-101788690D02*
X89818648Y-101710071D01*
X89691648Y-101631452D02*
X89691648Y-101619357D01*
X89691648Y-101619357D02*
X89697696Y-101607261D01*
X89697696Y-101607261D02*
X89703743Y-101601214D01*
X89703743Y-101601214D02*
X89715839Y-101595166D01*
X89715839Y-101595166D02*
X89740029Y-101589119D01*
X89740029Y-101589119D02*
X89770267Y-101589119D01*
X89770267Y-101589119D02*
X89794458Y-101595166D01*
X89794458Y-101595166D02*
X89806553Y-101601214D01*
X89806553Y-101601214D02*
X89812601Y-101607261D01*
X89812601Y-101607261D02*
X89818648Y-101619357D01*
X89818648Y-101619357D02*
X89818648Y-101631452D01*
X89818648Y-101631452D02*
X89812601Y-101643547D01*
X89812601Y-101643547D02*
X89806553Y-101649595D01*
X89806553Y-101649595D02*
X89794458Y-101655642D01*
X89794458Y-101655642D02*
X89770267Y-101661690D01*
X89770267Y-101661690D02*
X89740029Y-101661690D01*
X89740029Y-101661690D02*
X89715839Y-101655642D01*
X89715839Y-101655642D02*
X89703743Y-101649595D01*
X89703743Y-101649595D02*
X89697696Y-101643547D01*
X89697696Y-101643547D02*
X89691648Y-101631452D01*
X89703743Y-101540738D02*
X89697696Y-101534690D01*
X89697696Y-101534690D02*
X89691648Y-101522595D01*
X89691648Y-101522595D02*
X89691648Y-101492357D01*
X89691648Y-101492357D02*
X89697696Y-101480262D01*
X89697696Y-101480262D02*
X89703743Y-101474214D01*
X89703743Y-101474214D02*
X89715839Y-101468167D01*
X89715839Y-101468167D02*
X89727934Y-101468167D01*
X89727934Y-101468167D02*
X89746077Y-101474214D01*
X89746077Y-101474214D02*
X89818648Y-101546786D01*
X89818648Y-101546786D02*
X89818648Y-101468167D01*
X89818648Y-101347215D02*
X89818648Y-101419786D01*
X89818648Y-101383500D02*
X89691648Y-101383500D01*
X89691648Y-101383500D02*
X89709791Y-101395596D01*
X89709791Y-101395596D02*
X89721886Y-101407691D01*
X89721886Y-101407691D02*
X89727934Y-101419786D01*
X89782362Y-101202072D02*
X89782362Y-101141596D01*
X89818648Y-101214167D02*
X89691648Y-101171834D01*
X89691648Y-101171834D02*
X89818648Y-101129501D01*
X89812601Y-101032739D02*
X89818648Y-101044834D01*
X89818648Y-101044834D02*
X89818648Y-101069025D01*
X89818648Y-101069025D02*
X89812601Y-101081120D01*
X89812601Y-101081120D02*
X89806553Y-101087167D01*
X89806553Y-101087167D02*
X89794458Y-101093215D01*
X89794458Y-101093215D02*
X89758172Y-101093215D01*
X89758172Y-101093215D02*
X89746077Y-101087167D01*
X89746077Y-101087167D02*
X89740029Y-101081120D01*
X89740029Y-101081120D02*
X89733981Y-101069025D01*
X89733981Y-101069025D02*
X89733981Y-101044834D01*
X89733981Y-101044834D02*
X89740029Y-101032739D01*
X89812601Y-100923882D02*
X89818648Y-100935977D01*
X89818648Y-100935977D02*
X89818648Y-100960168D01*
X89818648Y-100960168D02*
X89812601Y-100972263D01*
X89812601Y-100972263D02*
X89806553Y-100978310D01*
X89806553Y-100978310D02*
X89794458Y-100984358D01*
X89794458Y-100984358D02*
X89758172Y-100984358D01*
X89758172Y-100984358D02*
X89746077Y-100978310D01*
X89746077Y-100978310D02*
X89740029Y-100972263D01*
X89740029Y-100972263D02*
X89733981Y-100960168D01*
X89733981Y-100960168D02*
X89733981Y-100935977D01*
X89733981Y-100935977D02*
X89740029Y-100923882D01*
X89812601Y-100821072D02*
X89818648Y-100833168D01*
X89818648Y-100833168D02*
X89818648Y-100857358D01*
X89818648Y-100857358D02*
X89812601Y-100869453D01*
X89812601Y-100869453D02*
X89800505Y-100875501D01*
X89800505Y-100875501D02*
X89752124Y-100875501D01*
X89752124Y-100875501D02*
X89740029Y-100869453D01*
X89740029Y-100869453D02*
X89733981Y-100857358D01*
X89733981Y-100857358D02*
X89733981Y-100833168D01*
X89733981Y-100833168D02*
X89740029Y-100821072D01*
X89740029Y-100821072D02*
X89752124Y-100815025D01*
X89752124Y-100815025D02*
X89764220Y-100815025D01*
X89764220Y-100815025D02*
X89776315Y-100875501D01*
X89818648Y-100742454D02*
X89812601Y-100754549D01*
X89812601Y-100754549D02*
X89800505Y-100760596D01*
X89800505Y-100760596D02*
X89691648Y-100760596D01*
X89812601Y-100645691D02*
X89818648Y-100657787D01*
X89818648Y-100657787D02*
X89818648Y-100681977D01*
X89818648Y-100681977D02*
X89812601Y-100694072D01*
X89812601Y-100694072D02*
X89800505Y-100700120D01*
X89800505Y-100700120D02*
X89752124Y-100700120D01*
X89752124Y-100700120D02*
X89740029Y-100694072D01*
X89740029Y-100694072D02*
X89733981Y-100681977D01*
X89733981Y-100681977D02*
X89733981Y-100657787D01*
X89733981Y-100657787D02*
X89740029Y-100645691D01*
X89740029Y-100645691D02*
X89752124Y-100639644D01*
X89752124Y-100639644D02*
X89764220Y-100639644D01*
X89764220Y-100639644D02*
X89776315Y-100700120D01*
X89818648Y-100585215D02*
X89733981Y-100585215D01*
X89758172Y-100585215D02*
X89746077Y-100579168D01*
X89746077Y-100579168D02*
X89740029Y-100573120D01*
X89740029Y-100573120D02*
X89733981Y-100561025D01*
X89733981Y-100561025D02*
X89733981Y-100548930D01*
X89818648Y-100452168D02*
X89752124Y-100452168D01*
X89752124Y-100452168D02*
X89740029Y-100458215D01*
X89740029Y-100458215D02*
X89733981Y-100470311D01*
X89733981Y-100470311D02*
X89733981Y-100494501D01*
X89733981Y-100494501D02*
X89740029Y-100506596D01*
X89812601Y-100452168D02*
X89818648Y-100464263D01*
X89818648Y-100464263D02*
X89818648Y-100494501D01*
X89818648Y-100494501D02*
X89812601Y-100506596D01*
X89812601Y-100506596D02*
X89800505Y-100512644D01*
X89800505Y-100512644D02*
X89788410Y-100512644D01*
X89788410Y-100512644D02*
X89776315Y-100506596D01*
X89776315Y-100506596D02*
X89770267Y-100494501D01*
X89770267Y-100494501D02*
X89770267Y-100464263D01*
X89770267Y-100464263D02*
X89764220Y-100452168D01*
X89733981Y-100409834D02*
X89733981Y-100361453D01*
X89691648Y-100391691D02*
X89800505Y-100391691D01*
X89800505Y-100391691D02*
X89812601Y-100385644D01*
X89812601Y-100385644D02*
X89818648Y-100373549D01*
X89818648Y-100373549D02*
X89818648Y-100361453D01*
X89812601Y-100270739D02*
X89818648Y-100282835D01*
X89818648Y-100282835D02*
X89818648Y-100307025D01*
X89818648Y-100307025D02*
X89812601Y-100319120D01*
X89812601Y-100319120D02*
X89800505Y-100325168D01*
X89800505Y-100325168D02*
X89752124Y-100325168D01*
X89752124Y-100325168D02*
X89740029Y-100319120D01*
X89740029Y-100319120D02*
X89733981Y-100307025D01*
X89733981Y-100307025D02*
X89733981Y-100282835D01*
X89733981Y-100282835D02*
X89740029Y-100270739D01*
X89740029Y-100270739D02*
X89752124Y-100264692D01*
X89752124Y-100264692D02*
X89764220Y-100264692D01*
X89764220Y-100264692D02*
X89776315Y-100325168D01*
X89818648Y-100155835D02*
X89691648Y-100155835D01*
X89812601Y-100155835D02*
X89818648Y-100167930D01*
X89818648Y-100167930D02*
X89818648Y-100192121D01*
X89818648Y-100192121D02*
X89812601Y-100204216D01*
X89812601Y-100204216D02*
X89806553Y-100210263D01*
X89806553Y-100210263D02*
X89794458Y-100216311D01*
X89794458Y-100216311D02*
X89758172Y-100216311D01*
X89758172Y-100216311D02*
X89746077Y-100210263D01*
X89746077Y-100210263D02*
X89740029Y-100204216D01*
X89740029Y-100204216D02*
X89733981Y-100192121D01*
X89733981Y-100192121D02*
X89733981Y-100167930D01*
X89733981Y-100167930D02*
X89740029Y-100155835D01*
X89818648Y-99998596D02*
X89691648Y-99998596D01*
X89691648Y-99998596D02*
X89691648Y-99968358D01*
X89691648Y-99968358D02*
X89697696Y-99950215D01*
X89697696Y-99950215D02*
X89709791Y-99938120D01*
X89709791Y-99938120D02*
X89721886Y-99932073D01*
X89721886Y-99932073D02*
X89746077Y-99926025D01*
X89746077Y-99926025D02*
X89764220Y-99926025D01*
X89764220Y-99926025D02*
X89788410Y-99932073D01*
X89788410Y-99932073D02*
X89800505Y-99938120D01*
X89800505Y-99938120D02*
X89812601Y-99950215D01*
X89812601Y-99950215D02*
X89818648Y-99968358D01*
X89818648Y-99968358D02*
X89818648Y-99998596D01*
X89812601Y-99823215D02*
X89818648Y-99835311D01*
X89818648Y-99835311D02*
X89818648Y-99859501D01*
X89818648Y-99859501D02*
X89812601Y-99871596D01*
X89812601Y-99871596D02*
X89800505Y-99877644D01*
X89800505Y-99877644D02*
X89752124Y-99877644D01*
X89752124Y-99877644D02*
X89740029Y-99871596D01*
X89740029Y-99871596D02*
X89733981Y-99859501D01*
X89733981Y-99859501D02*
X89733981Y-99835311D01*
X89733981Y-99835311D02*
X89740029Y-99823215D01*
X89740029Y-99823215D02*
X89752124Y-99817168D01*
X89752124Y-99817168D02*
X89764220Y-99817168D01*
X89764220Y-99817168D02*
X89776315Y-99877644D01*
X89812601Y-99768787D02*
X89818648Y-99756692D01*
X89818648Y-99756692D02*
X89818648Y-99732501D01*
X89818648Y-99732501D02*
X89812601Y-99720406D01*
X89812601Y-99720406D02*
X89800505Y-99714358D01*
X89800505Y-99714358D02*
X89794458Y-99714358D01*
X89794458Y-99714358D02*
X89782362Y-99720406D01*
X89782362Y-99720406D02*
X89776315Y-99732501D01*
X89776315Y-99732501D02*
X89776315Y-99750644D01*
X89776315Y-99750644D02*
X89770267Y-99762739D01*
X89770267Y-99762739D02*
X89758172Y-99768787D01*
X89758172Y-99768787D02*
X89752124Y-99768787D01*
X89752124Y-99768787D02*
X89740029Y-99762739D01*
X89740029Y-99762739D02*
X89733981Y-99750644D01*
X89733981Y-99750644D02*
X89733981Y-99732501D01*
X89733981Y-99732501D02*
X89740029Y-99720406D01*
X89818648Y-99659929D02*
X89733981Y-99659929D01*
X89691648Y-99659929D02*
X89697696Y-99665977D01*
X89697696Y-99665977D02*
X89703743Y-99659929D01*
X89703743Y-99659929D02*
X89697696Y-99653882D01*
X89697696Y-99653882D02*
X89691648Y-99659929D01*
X89691648Y-99659929D02*
X89703743Y-99659929D01*
X89733981Y-99545025D02*
X89836791Y-99545025D01*
X89836791Y-99545025D02*
X89848886Y-99551072D01*
X89848886Y-99551072D02*
X89854934Y-99557120D01*
X89854934Y-99557120D02*
X89860981Y-99569215D01*
X89860981Y-99569215D02*
X89860981Y-99587358D01*
X89860981Y-99587358D02*
X89854934Y-99599453D01*
X89812601Y-99545025D02*
X89818648Y-99557120D01*
X89818648Y-99557120D02*
X89818648Y-99581311D01*
X89818648Y-99581311D02*
X89812601Y-99593406D01*
X89812601Y-99593406D02*
X89806553Y-99599453D01*
X89806553Y-99599453D02*
X89794458Y-99605501D01*
X89794458Y-99605501D02*
X89758172Y-99605501D01*
X89758172Y-99605501D02*
X89746077Y-99599453D01*
X89746077Y-99599453D02*
X89740029Y-99593406D01*
X89740029Y-99593406D02*
X89733981Y-99581311D01*
X89733981Y-99581311D02*
X89733981Y-99557120D01*
X89733981Y-99557120D02*
X89740029Y-99545025D01*
X89733981Y-99484548D02*
X89818648Y-99484548D01*
X89746077Y-99484548D02*
X89740029Y-99478501D01*
X89740029Y-99478501D02*
X89733981Y-99466406D01*
X89733981Y-99466406D02*
X89733981Y-99448263D01*
X89733981Y-99448263D02*
X89740029Y-99436167D01*
X89740029Y-99436167D02*
X89752124Y-99430120D01*
X89752124Y-99430120D02*
X89818648Y-99430120D01*
X89812601Y-99375691D02*
X89818648Y-99363596D01*
X89818648Y-99363596D02*
X89818648Y-99339405D01*
X89818648Y-99339405D02*
X89812601Y-99327310D01*
X89812601Y-99327310D02*
X89800505Y-99321262D01*
X89800505Y-99321262D02*
X89794458Y-99321262D01*
X89794458Y-99321262D02*
X89782362Y-99327310D01*
X89782362Y-99327310D02*
X89776315Y-99339405D01*
X89776315Y-99339405D02*
X89776315Y-99357548D01*
X89776315Y-99357548D02*
X89770267Y-99369643D01*
X89770267Y-99369643D02*
X89758172Y-99375691D01*
X89758172Y-99375691D02*
X89752124Y-99375691D01*
X89752124Y-99375691D02*
X89740029Y-99369643D01*
X89740029Y-99369643D02*
X89733981Y-99357548D01*
X89733981Y-99357548D02*
X89733981Y-99339405D01*
X89733981Y-99339405D02*
X89740029Y-99327310D01*
X89806553Y-99266833D02*
X89812601Y-99260786D01*
X89812601Y-99260786D02*
X89818648Y-99266833D01*
X89818648Y-99266833D02*
X89812601Y-99272881D01*
X89812601Y-99272881D02*
X89806553Y-99266833D01*
X89806553Y-99266833D02*
X89818648Y-99266833D01*
X89782362Y-99115643D02*
X89782362Y-99055167D01*
X89818648Y-99127738D02*
X89691648Y-99085405D01*
X89691648Y-99085405D02*
X89818648Y-99043072D01*
X89818648Y-98982596D02*
X89812601Y-98994691D01*
X89812601Y-98994691D02*
X89800505Y-99000738D01*
X89800505Y-99000738D02*
X89691648Y-99000738D01*
X89818648Y-98916072D02*
X89812601Y-98928167D01*
X89812601Y-98928167D02*
X89800505Y-98934214D01*
X89800505Y-98934214D02*
X89691648Y-98934214D01*
X89818648Y-98770928D02*
X89733981Y-98770928D01*
X89758172Y-98770928D02*
X89746077Y-98764881D01*
X89746077Y-98764881D02*
X89740029Y-98758833D01*
X89740029Y-98758833D02*
X89733981Y-98746738D01*
X89733981Y-98746738D02*
X89733981Y-98734643D01*
X89818648Y-98692309D02*
X89733981Y-98692309D01*
X89691648Y-98692309D02*
X89697696Y-98698357D01*
X89697696Y-98698357D02*
X89703743Y-98692309D01*
X89703743Y-98692309D02*
X89697696Y-98686262D01*
X89697696Y-98686262D02*
X89691648Y-98692309D01*
X89691648Y-98692309D02*
X89703743Y-98692309D01*
X89733981Y-98577405D02*
X89836791Y-98577405D01*
X89836791Y-98577405D02*
X89848886Y-98583452D01*
X89848886Y-98583452D02*
X89854934Y-98589500D01*
X89854934Y-98589500D02*
X89860981Y-98601595D01*
X89860981Y-98601595D02*
X89860981Y-98619738D01*
X89860981Y-98619738D02*
X89854934Y-98631833D01*
X89812601Y-98577405D02*
X89818648Y-98589500D01*
X89818648Y-98589500D02*
X89818648Y-98613691D01*
X89818648Y-98613691D02*
X89812601Y-98625786D01*
X89812601Y-98625786D02*
X89806553Y-98631833D01*
X89806553Y-98631833D02*
X89794458Y-98637881D01*
X89794458Y-98637881D02*
X89758172Y-98637881D01*
X89758172Y-98637881D02*
X89746077Y-98631833D01*
X89746077Y-98631833D02*
X89740029Y-98625786D01*
X89740029Y-98625786D02*
X89733981Y-98613691D01*
X89733981Y-98613691D02*
X89733981Y-98589500D01*
X89733981Y-98589500D02*
X89740029Y-98577405D01*
X89818648Y-98516928D02*
X89691648Y-98516928D01*
X89818648Y-98462500D02*
X89752124Y-98462500D01*
X89752124Y-98462500D02*
X89740029Y-98468547D01*
X89740029Y-98468547D02*
X89733981Y-98480643D01*
X89733981Y-98480643D02*
X89733981Y-98498786D01*
X89733981Y-98498786D02*
X89740029Y-98510881D01*
X89740029Y-98510881D02*
X89746077Y-98516928D01*
X89733981Y-98420166D02*
X89733981Y-98371785D01*
X89691648Y-98402023D02*
X89800505Y-98402023D01*
X89800505Y-98402023D02*
X89812601Y-98395976D01*
X89812601Y-98395976D02*
X89818648Y-98383881D01*
X89818648Y-98383881D02*
X89818648Y-98371785D01*
X89812601Y-98335500D02*
X89818648Y-98323405D01*
X89818648Y-98323405D02*
X89818648Y-98299214D01*
X89818648Y-98299214D02*
X89812601Y-98287119D01*
X89812601Y-98287119D02*
X89800505Y-98281071D01*
X89800505Y-98281071D02*
X89794458Y-98281071D01*
X89794458Y-98281071D02*
X89782362Y-98287119D01*
X89782362Y-98287119D02*
X89776315Y-98299214D01*
X89776315Y-98299214D02*
X89776315Y-98317357D01*
X89776315Y-98317357D02*
X89770267Y-98329452D01*
X89770267Y-98329452D02*
X89758172Y-98335500D01*
X89758172Y-98335500D02*
X89752124Y-98335500D01*
X89752124Y-98335500D02*
X89740029Y-98329452D01*
X89740029Y-98329452D02*
X89733981Y-98317357D01*
X89733981Y-98317357D02*
X89733981Y-98299214D01*
X89733981Y-98299214D02*
X89740029Y-98287119D01*
X89818648Y-98129880D02*
X89733981Y-98129880D01*
X89758172Y-98129880D02*
X89746077Y-98123833D01*
X89746077Y-98123833D02*
X89740029Y-98117785D01*
X89740029Y-98117785D02*
X89733981Y-98105690D01*
X89733981Y-98105690D02*
X89733981Y-98093595D01*
X89812601Y-98002880D02*
X89818648Y-98014976D01*
X89818648Y-98014976D02*
X89818648Y-98039166D01*
X89818648Y-98039166D02*
X89812601Y-98051261D01*
X89812601Y-98051261D02*
X89800505Y-98057309D01*
X89800505Y-98057309D02*
X89752124Y-98057309D01*
X89752124Y-98057309D02*
X89740029Y-98051261D01*
X89740029Y-98051261D02*
X89733981Y-98039166D01*
X89733981Y-98039166D02*
X89733981Y-98014976D01*
X89733981Y-98014976D02*
X89740029Y-98002880D01*
X89740029Y-98002880D02*
X89752124Y-97996833D01*
X89752124Y-97996833D02*
X89764220Y-97996833D01*
X89764220Y-97996833D02*
X89776315Y-98057309D01*
X89812601Y-97948452D02*
X89818648Y-97936357D01*
X89818648Y-97936357D02*
X89818648Y-97912166D01*
X89818648Y-97912166D02*
X89812601Y-97900071D01*
X89812601Y-97900071D02*
X89800505Y-97894023D01*
X89800505Y-97894023D02*
X89794458Y-97894023D01*
X89794458Y-97894023D02*
X89782362Y-97900071D01*
X89782362Y-97900071D02*
X89776315Y-97912166D01*
X89776315Y-97912166D02*
X89776315Y-97930309D01*
X89776315Y-97930309D02*
X89770267Y-97942404D01*
X89770267Y-97942404D02*
X89758172Y-97948452D01*
X89758172Y-97948452D02*
X89752124Y-97948452D01*
X89752124Y-97948452D02*
X89740029Y-97942404D01*
X89740029Y-97942404D02*
X89733981Y-97930309D01*
X89733981Y-97930309D02*
X89733981Y-97912166D01*
X89733981Y-97912166D02*
X89740029Y-97900071D01*
X89812601Y-97791213D02*
X89818648Y-97803309D01*
X89818648Y-97803309D02*
X89818648Y-97827499D01*
X89818648Y-97827499D02*
X89812601Y-97839594D01*
X89812601Y-97839594D02*
X89800505Y-97845642D01*
X89800505Y-97845642D02*
X89752124Y-97845642D01*
X89752124Y-97845642D02*
X89740029Y-97839594D01*
X89740029Y-97839594D02*
X89733981Y-97827499D01*
X89733981Y-97827499D02*
X89733981Y-97803309D01*
X89733981Y-97803309D02*
X89740029Y-97791213D01*
X89740029Y-97791213D02*
X89752124Y-97785166D01*
X89752124Y-97785166D02*
X89764220Y-97785166D01*
X89764220Y-97785166D02*
X89776315Y-97845642D01*
X89818648Y-97730737D02*
X89733981Y-97730737D01*
X89758172Y-97730737D02*
X89746077Y-97724690D01*
X89746077Y-97724690D02*
X89740029Y-97718642D01*
X89740029Y-97718642D02*
X89733981Y-97706547D01*
X89733981Y-97706547D02*
X89733981Y-97694452D01*
X89733981Y-97664214D02*
X89818648Y-97633976D01*
X89818648Y-97633976D02*
X89733981Y-97603737D01*
X89812601Y-97506975D02*
X89818648Y-97519071D01*
X89818648Y-97519071D02*
X89818648Y-97543261D01*
X89818648Y-97543261D02*
X89812601Y-97555356D01*
X89812601Y-97555356D02*
X89800505Y-97561404D01*
X89800505Y-97561404D02*
X89752124Y-97561404D01*
X89752124Y-97561404D02*
X89740029Y-97555356D01*
X89740029Y-97555356D02*
X89733981Y-97543261D01*
X89733981Y-97543261D02*
X89733981Y-97519071D01*
X89733981Y-97519071D02*
X89740029Y-97506975D01*
X89740029Y-97506975D02*
X89752124Y-97500928D01*
X89752124Y-97500928D02*
X89764220Y-97500928D01*
X89764220Y-97500928D02*
X89776315Y-97561404D01*
X89818648Y-97392071D02*
X89691648Y-97392071D01*
X89812601Y-97392071D02*
X89818648Y-97404166D01*
X89818648Y-97404166D02*
X89818648Y-97428357D01*
X89818648Y-97428357D02*
X89812601Y-97440452D01*
X89812601Y-97440452D02*
X89806553Y-97446499D01*
X89806553Y-97446499D02*
X89794458Y-97452547D01*
X89794458Y-97452547D02*
X89758172Y-97452547D01*
X89758172Y-97452547D02*
X89746077Y-97446499D01*
X89746077Y-97446499D02*
X89740029Y-97440452D01*
X89740029Y-97440452D02*
X89733981Y-97428357D01*
X89733981Y-97428357D02*
X89733981Y-97404166D01*
X89733981Y-97404166D02*
X89740029Y-97392071D01*
X89806553Y-97331594D02*
X89812601Y-97325547D01*
X89812601Y-97325547D02*
X89818648Y-97331594D01*
X89818648Y-97331594D02*
X89812601Y-97337642D01*
X89812601Y-97337642D02*
X89806553Y-97331594D01*
X89806553Y-97331594D02*
X89818648Y-97331594D01*
D10*
X113184819Y-91433333D02*
X113899104Y-91433333D01*
X113899104Y-91433333D02*
X114041961Y-91480952D01*
X114041961Y-91480952D02*
X114137200Y-91576190D01*
X114137200Y-91576190D02*
X114184819Y-91719047D01*
X114184819Y-91719047D02*
X114184819Y-91814285D01*
X113518152Y-90528571D02*
X114184819Y-90528571D01*
X113137200Y-90766666D02*
X113851485Y-91004761D01*
X113851485Y-91004761D02*
X113851485Y-90385714D01*
X104138095Y-85554819D02*
X104138095Y-86364342D01*
X104138095Y-86364342D02*
X104185714Y-86459580D01*
X104185714Y-86459580D02*
X104233333Y-86507200D01*
X104233333Y-86507200D02*
X104328571Y-86554819D01*
X104328571Y-86554819D02*
X104519047Y-86554819D01*
X104519047Y-86554819D02*
X104614285Y-86507200D01*
X104614285Y-86507200D02*
X104661904Y-86459580D01*
X104661904Y-86459580D02*
X104709523Y-86364342D01*
X104709523Y-86364342D02*
X104709523Y-85554819D01*
X105090476Y-85554819D02*
X105757142Y-85554819D01*
X105757142Y-85554819D02*
X105328571Y-86554819D01*
X111584094Y-94829820D02*
X111584094Y-95639343D01*
X111584094Y-95639343D02*
X111631713Y-95734581D01*
X111631713Y-95734581D02*
X111679332Y-95782201D01*
X111679332Y-95782201D02*
X111774570Y-95829820D01*
X111774570Y-95829820D02*
X111965046Y-95829820D01*
X111965046Y-95829820D02*
X112060284Y-95782201D01*
X112060284Y-95782201D02*
X112107903Y-95734581D01*
X112107903Y-95734581D02*
X112155522Y-95639343D01*
X112155522Y-95639343D02*
X112155522Y-94829820D01*
X112584094Y-94925058D02*
X112631713Y-94877439D01*
X112631713Y-94877439D02*
X112726951Y-94829820D01*
X112726951Y-94829820D02*
X112965046Y-94829820D01*
X112965046Y-94829820D02*
X113060284Y-94877439D01*
X113060284Y-94877439D02*
X113107903Y-94925058D01*
X113107903Y-94925058D02*
X113155522Y-95020296D01*
X113155522Y-95020296D02*
X113155522Y-95115534D01*
X113155522Y-95115534D02*
X113107903Y-95258391D01*
X113107903Y-95258391D02*
X112536475Y-95829820D01*
X112536475Y-95829820D02*
X113155522Y-95829820D01*
D13*
X109700165Y-95421554D02*
X109694117Y-95427602D01*
X109694117Y-95427602D02*
X109675975Y-95433649D01*
X109675975Y-95433649D02*
X109663879Y-95433649D01*
X109663879Y-95433649D02*
X109645736Y-95427602D01*
X109645736Y-95427602D02*
X109633641Y-95415506D01*
X109633641Y-95415506D02*
X109627594Y-95403411D01*
X109627594Y-95403411D02*
X109621546Y-95379221D01*
X109621546Y-95379221D02*
X109621546Y-95361078D01*
X109621546Y-95361078D02*
X109627594Y-95336887D01*
X109627594Y-95336887D02*
X109633641Y-95324792D01*
X109633641Y-95324792D02*
X109645736Y-95312697D01*
X109645736Y-95312697D02*
X109663879Y-95306649D01*
X109663879Y-95306649D02*
X109675975Y-95306649D01*
X109675975Y-95306649D02*
X109694117Y-95312697D01*
X109694117Y-95312697D02*
X109700165Y-95318744D01*
X109772736Y-95433649D02*
X109760641Y-95427602D01*
X109760641Y-95427602D02*
X109754594Y-95421554D01*
X109754594Y-95421554D02*
X109748546Y-95409459D01*
X109748546Y-95409459D02*
X109748546Y-95373173D01*
X109748546Y-95373173D02*
X109754594Y-95361078D01*
X109754594Y-95361078D02*
X109760641Y-95355030D01*
X109760641Y-95355030D02*
X109772736Y-95348982D01*
X109772736Y-95348982D02*
X109790879Y-95348982D01*
X109790879Y-95348982D02*
X109802975Y-95355030D01*
X109802975Y-95355030D02*
X109809022Y-95361078D01*
X109809022Y-95361078D02*
X109815070Y-95373173D01*
X109815070Y-95373173D02*
X109815070Y-95409459D01*
X109815070Y-95409459D02*
X109809022Y-95421554D01*
X109809022Y-95421554D02*
X109802975Y-95427602D01*
X109802975Y-95427602D02*
X109790879Y-95433649D01*
X109790879Y-95433649D02*
X109772736Y-95433649D01*
X109869499Y-95348982D02*
X109869499Y-95475982D01*
X109869499Y-95355030D02*
X109881594Y-95348982D01*
X109881594Y-95348982D02*
X109905784Y-95348982D01*
X109905784Y-95348982D02*
X109917880Y-95355030D01*
X109917880Y-95355030D02*
X109923927Y-95361078D01*
X109923927Y-95361078D02*
X109929975Y-95373173D01*
X109929975Y-95373173D02*
X109929975Y-95409459D01*
X109929975Y-95409459D02*
X109923927Y-95421554D01*
X109923927Y-95421554D02*
X109917880Y-95427602D01*
X109917880Y-95427602D02*
X109905784Y-95433649D01*
X109905784Y-95433649D02*
X109881594Y-95433649D01*
X109881594Y-95433649D02*
X109869499Y-95427602D01*
X109972308Y-95348982D02*
X110002546Y-95433649D01*
X110032785Y-95348982D02*
X110002546Y-95433649D01*
X110002546Y-95433649D02*
X109990451Y-95463887D01*
X109990451Y-95463887D02*
X109984404Y-95469935D01*
X109984404Y-95469935D02*
X109972308Y-95475982D01*
X110081166Y-95433649D02*
X110081166Y-95348982D01*
X110081166Y-95373173D02*
X110087213Y-95361078D01*
X110087213Y-95361078D02*
X110093261Y-95355030D01*
X110093261Y-95355030D02*
X110105356Y-95348982D01*
X110105356Y-95348982D02*
X110117451Y-95348982D01*
X110159785Y-95433649D02*
X110159785Y-95348982D01*
X110159785Y-95306649D02*
X110153737Y-95312697D01*
X110153737Y-95312697D02*
X110159785Y-95318744D01*
X110159785Y-95318744D02*
X110165832Y-95312697D01*
X110165832Y-95312697D02*
X110159785Y-95306649D01*
X110159785Y-95306649D02*
X110159785Y-95318744D01*
X110274689Y-95348982D02*
X110274689Y-95451792D01*
X110274689Y-95451792D02*
X110268642Y-95463887D01*
X110268642Y-95463887D02*
X110262594Y-95469935D01*
X110262594Y-95469935D02*
X110250499Y-95475982D01*
X110250499Y-95475982D02*
X110232356Y-95475982D01*
X110232356Y-95475982D02*
X110220261Y-95469935D01*
X110274689Y-95427602D02*
X110262594Y-95433649D01*
X110262594Y-95433649D02*
X110238403Y-95433649D01*
X110238403Y-95433649D02*
X110226308Y-95427602D01*
X110226308Y-95427602D02*
X110220261Y-95421554D01*
X110220261Y-95421554D02*
X110214213Y-95409459D01*
X110214213Y-95409459D02*
X110214213Y-95373173D01*
X110214213Y-95373173D02*
X110220261Y-95361078D01*
X110220261Y-95361078D02*
X110226308Y-95355030D01*
X110226308Y-95355030D02*
X110238403Y-95348982D01*
X110238403Y-95348982D02*
X110262594Y-95348982D01*
X110262594Y-95348982D02*
X110274689Y-95355030D01*
X110335166Y-95433649D02*
X110335166Y-95306649D01*
X110389594Y-95433649D02*
X110389594Y-95367125D01*
X110389594Y-95367125D02*
X110383547Y-95355030D01*
X110383547Y-95355030D02*
X110371451Y-95348982D01*
X110371451Y-95348982D02*
X110353308Y-95348982D01*
X110353308Y-95348982D02*
X110341213Y-95355030D01*
X110341213Y-95355030D02*
X110335166Y-95361078D01*
X110431928Y-95348982D02*
X110480309Y-95348982D01*
X110450071Y-95306649D02*
X110450071Y-95415506D01*
X110450071Y-95415506D02*
X110456118Y-95427602D01*
X110456118Y-95427602D02*
X110468213Y-95433649D01*
X110468213Y-95433649D02*
X110480309Y-95433649D01*
X110613356Y-95318744D02*
X110619404Y-95312697D01*
X110619404Y-95312697D02*
X110631499Y-95306649D01*
X110631499Y-95306649D02*
X110661737Y-95306649D01*
X110661737Y-95306649D02*
X110673832Y-95312697D01*
X110673832Y-95312697D02*
X110679880Y-95318744D01*
X110679880Y-95318744D02*
X110685927Y-95330840D01*
X110685927Y-95330840D02*
X110685927Y-95342935D01*
X110685927Y-95342935D02*
X110679880Y-95361078D01*
X110679880Y-95361078D02*
X110607308Y-95433649D01*
X110607308Y-95433649D02*
X110685927Y-95433649D01*
X110764546Y-95306649D02*
X110776641Y-95306649D01*
X110776641Y-95306649D02*
X110788737Y-95312697D01*
X110788737Y-95312697D02*
X110794784Y-95318744D01*
X110794784Y-95318744D02*
X110800832Y-95330840D01*
X110800832Y-95330840D02*
X110806879Y-95355030D01*
X110806879Y-95355030D02*
X110806879Y-95385268D01*
X110806879Y-95385268D02*
X110800832Y-95409459D01*
X110800832Y-95409459D02*
X110794784Y-95421554D01*
X110794784Y-95421554D02*
X110788737Y-95427602D01*
X110788737Y-95427602D02*
X110776641Y-95433649D01*
X110776641Y-95433649D02*
X110764546Y-95433649D01*
X110764546Y-95433649D02*
X110752451Y-95427602D01*
X110752451Y-95427602D02*
X110746403Y-95421554D01*
X110746403Y-95421554D02*
X110740356Y-95409459D01*
X110740356Y-95409459D02*
X110734308Y-95385268D01*
X110734308Y-95385268D02*
X110734308Y-95355030D01*
X110734308Y-95355030D02*
X110740356Y-95330840D01*
X110740356Y-95330840D02*
X110746403Y-95318744D01*
X110746403Y-95318744D02*
X110752451Y-95312697D01*
X110752451Y-95312697D02*
X110764546Y-95306649D01*
X110855260Y-95318744D02*
X110861308Y-95312697D01*
X110861308Y-95312697D02*
X110873403Y-95306649D01*
X110873403Y-95306649D02*
X110903641Y-95306649D01*
X110903641Y-95306649D02*
X110915736Y-95312697D01*
X110915736Y-95312697D02*
X110921784Y-95318744D01*
X110921784Y-95318744D02*
X110927831Y-95330840D01*
X110927831Y-95330840D02*
X110927831Y-95342935D01*
X110927831Y-95342935D02*
X110921784Y-95361078D01*
X110921784Y-95361078D02*
X110849212Y-95433649D01*
X110849212Y-95433649D02*
X110927831Y-95433649D01*
X111048783Y-95433649D02*
X110976212Y-95433649D01*
X111012498Y-95433649D02*
X111012498Y-95306649D01*
X111012498Y-95306649D02*
X111000402Y-95324792D01*
X111000402Y-95324792D02*
X110988307Y-95336887D01*
X110988307Y-95336887D02*
X110976212Y-95342935D01*
X111193926Y-95397363D02*
X111254402Y-95397363D01*
X111181831Y-95433649D02*
X111224164Y-95306649D01*
X111224164Y-95306649D02*
X111266497Y-95433649D01*
X111363259Y-95427602D02*
X111351164Y-95433649D01*
X111351164Y-95433649D02*
X111326973Y-95433649D01*
X111326973Y-95433649D02*
X111314878Y-95427602D01*
X111314878Y-95427602D02*
X111308831Y-95421554D01*
X111308831Y-95421554D02*
X111302783Y-95409459D01*
X111302783Y-95409459D02*
X111302783Y-95373173D01*
X111302783Y-95373173D02*
X111308831Y-95361078D01*
X111308831Y-95361078D02*
X111314878Y-95355030D01*
X111314878Y-95355030D02*
X111326973Y-95348982D01*
X111326973Y-95348982D02*
X111351164Y-95348982D01*
X111351164Y-95348982D02*
X111363259Y-95355030D01*
X111472116Y-95427602D02*
X111460021Y-95433649D01*
X111460021Y-95433649D02*
X111435830Y-95433649D01*
X111435830Y-95433649D02*
X111423735Y-95427602D01*
X111423735Y-95427602D02*
X111417688Y-95421554D01*
X111417688Y-95421554D02*
X111411640Y-95409459D01*
X111411640Y-95409459D02*
X111411640Y-95373173D01*
X111411640Y-95373173D02*
X111417688Y-95361078D01*
X111417688Y-95361078D02*
X111423735Y-95355030D01*
X111423735Y-95355030D02*
X111435830Y-95348982D01*
X111435830Y-95348982D02*
X111460021Y-95348982D01*
X111460021Y-95348982D02*
X111472116Y-95355030D01*
X111574926Y-95427602D02*
X111562830Y-95433649D01*
X111562830Y-95433649D02*
X111538640Y-95433649D01*
X111538640Y-95433649D02*
X111526545Y-95427602D01*
X111526545Y-95427602D02*
X111520497Y-95415506D01*
X111520497Y-95415506D02*
X111520497Y-95367125D01*
X111520497Y-95367125D02*
X111526545Y-95355030D01*
X111526545Y-95355030D02*
X111538640Y-95348982D01*
X111538640Y-95348982D02*
X111562830Y-95348982D01*
X111562830Y-95348982D02*
X111574926Y-95355030D01*
X111574926Y-95355030D02*
X111580973Y-95367125D01*
X111580973Y-95367125D02*
X111580973Y-95379221D01*
X111580973Y-95379221D02*
X111520497Y-95391316D01*
X111653544Y-95433649D02*
X111641449Y-95427602D01*
X111641449Y-95427602D02*
X111635402Y-95415506D01*
X111635402Y-95415506D02*
X111635402Y-95306649D01*
X111750307Y-95427602D02*
X111738211Y-95433649D01*
X111738211Y-95433649D02*
X111714021Y-95433649D01*
X111714021Y-95433649D02*
X111701926Y-95427602D01*
X111701926Y-95427602D02*
X111695878Y-95415506D01*
X111695878Y-95415506D02*
X111695878Y-95367125D01*
X111695878Y-95367125D02*
X111701926Y-95355030D01*
X111701926Y-95355030D02*
X111714021Y-95348982D01*
X111714021Y-95348982D02*
X111738211Y-95348982D01*
X111738211Y-95348982D02*
X111750307Y-95355030D01*
X111750307Y-95355030D02*
X111756354Y-95367125D01*
X111756354Y-95367125D02*
X111756354Y-95379221D01*
X111756354Y-95379221D02*
X111695878Y-95391316D01*
X111810783Y-95433649D02*
X111810783Y-95348982D01*
X111810783Y-95373173D02*
X111816830Y-95361078D01*
X111816830Y-95361078D02*
X111822878Y-95355030D01*
X111822878Y-95355030D02*
X111834973Y-95348982D01*
X111834973Y-95348982D02*
X111847068Y-95348982D01*
X111943830Y-95433649D02*
X111943830Y-95367125D01*
X111943830Y-95367125D02*
X111937783Y-95355030D01*
X111937783Y-95355030D02*
X111925687Y-95348982D01*
X111925687Y-95348982D02*
X111901497Y-95348982D01*
X111901497Y-95348982D02*
X111889402Y-95355030D01*
X111943830Y-95427602D02*
X111931735Y-95433649D01*
X111931735Y-95433649D02*
X111901497Y-95433649D01*
X111901497Y-95433649D02*
X111889402Y-95427602D01*
X111889402Y-95427602D02*
X111883354Y-95415506D01*
X111883354Y-95415506D02*
X111883354Y-95403411D01*
X111883354Y-95403411D02*
X111889402Y-95391316D01*
X111889402Y-95391316D02*
X111901497Y-95385268D01*
X111901497Y-95385268D02*
X111931735Y-95385268D01*
X111931735Y-95385268D02*
X111943830Y-95379221D01*
X111986164Y-95348982D02*
X112034545Y-95348982D01*
X112004307Y-95306649D02*
X112004307Y-95415506D01*
X112004307Y-95415506D02*
X112010354Y-95427602D01*
X112010354Y-95427602D02*
X112022449Y-95433649D01*
X112022449Y-95433649D02*
X112034545Y-95433649D01*
X112125259Y-95427602D02*
X112113163Y-95433649D01*
X112113163Y-95433649D02*
X112088973Y-95433649D01*
X112088973Y-95433649D02*
X112076878Y-95427602D01*
X112076878Y-95427602D02*
X112070830Y-95415506D01*
X112070830Y-95415506D02*
X112070830Y-95367125D01*
X112070830Y-95367125D02*
X112076878Y-95355030D01*
X112076878Y-95355030D02*
X112088973Y-95348982D01*
X112088973Y-95348982D02*
X112113163Y-95348982D01*
X112113163Y-95348982D02*
X112125259Y-95355030D01*
X112125259Y-95355030D02*
X112131306Y-95367125D01*
X112131306Y-95367125D02*
X112131306Y-95379221D01*
X112131306Y-95379221D02*
X112070830Y-95391316D01*
X112240163Y-95433649D02*
X112240163Y-95306649D01*
X112240163Y-95427602D02*
X112228068Y-95433649D01*
X112228068Y-95433649D02*
X112203877Y-95433649D01*
X112203877Y-95433649D02*
X112191782Y-95427602D01*
X112191782Y-95427602D02*
X112185735Y-95421554D01*
X112185735Y-95421554D02*
X112179687Y-95409459D01*
X112179687Y-95409459D02*
X112179687Y-95373173D01*
X112179687Y-95373173D02*
X112185735Y-95361078D01*
X112185735Y-95361078D02*
X112191782Y-95355030D01*
X112191782Y-95355030D02*
X112203877Y-95348982D01*
X112203877Y-95348982D02*
X112228068Y-95348982D01*
X112228068Y-95348982D02*
X112240163Y-95355030D01*
X112397402Y-95433649D02*
X112397402Y-95306649D01*
X112397402Y-95306649D02*
X112427640Y-95306649D01*
X112427640Y-95306649D02*
X112445783Y-95312697D01*
X112445783Y-95312697D02*
X112457878Y-95324792D01*
X112457878Y-95324792D02*
X112463925Y-95336887D01*
X112463925Y-95336887D02*
X112469973Y-95361078D01*
X112469973Y-95361078D02*
X112469973Y-95379221D01*
X112469973Y-95379221D02*
X112463925Y-95403411D01*
X112463925Y-95403411D02*
X112457878Y-95415506D01*
X112457878Y-95415506D02*
X112445783Y-95427602D01*
X112445783Y-95427602D02*
X112427640Y-95433649D01*
X112427640Y-95433649D02*
X112397402Y-95433649D01*
X112572783Y-95427602D02*
X112560687Y-95433649D01*
X112560687Y-95433649D02*
X112536497Y-95433649D01*
X112536497Y-95433649D02*
X112524402Y-95427602D01*
X112524402Y-95427602D02*
X112518354Y-95415506D01*
X112518354Y-95415506D02*
X112518354Y-95367125D01*
X112518354Y-95367125D02*
X112524402Y-95355030D01*
X112524402Y-95355030D02*
X112536497Y-95348982D01*
X112536497Y-95348982D02*
X112560687Y-95348982D01*
X112560687Y-95348982D02*
X112572783Y-95355030D01*
X112572783Y-95355030D02*
X112578830Y-95367125D01*
X112578830Y-95367125D02*
X112578830Y-95379221D01*
X112578830Y-95379221D02*
X112518354Y-95391316D01*
X112627211Y-95427602D02*
X112639306Y-95433649D01*
X112639306Y-95433649D02*
X112663497Y-95433649D01*
X112663497Y-95433649D02*
X112675592Y-95427602D01*
X112675592Y-95427602D02*
X112681640Y-95415506D01*
X112681640Y-95415506D02*
X112681640Y-95409459D01*
X112681640Y-95409459D02*
X112675592Y-95397363D01*
X112675592Y-95397363D02*
X112663497Y-95391316D01*
X112663497Y-95391316D02*
X112645354Y-95391316D01*
X112645354Y-95391316D02*
X112633259Y-95385268D01*
X112633259Y-95385268D02*
X112627211Y-95373173D01*
X112627211Y-95373173D02*
X112627211Y-95367125D01*
X112627211Y-95367125D02*
X112633259Y-95355030D01*
X112633259Y-95355030D02*
X112645354Y-95348982D01*
X112645354Y-95348982D02*
X112663497Y-95348982D01*
X112663497Y-95348982D02*
X112675592Y-95355030D01*
X112736069Y-95433649D02*
X112736069Y-95348982D01*
X112736069Y-95306649D02*
X112730021Y-95312697D01*
X112730021Y-95312697D02*
X112736069Y-95318744D01*
X112736069Y-95318744D02*
X112742116Y-95312697D01*
X112742116Y-95312697D02*
X112736069Y-95306649D01*
X112736069Y-95306649D02*
X112736069Y-95318744D01*
X112850973Y-95348982D02*
X112850973Y-95451792D01*
X112850973Y-95451792D02*
X112844926Y-95463887D01*
X112844926Y-95463887D02*
X112838878Y-95469935D01*
X112838878Y-95469935D02*
X112826783Y-95475982D01*
X112826783Y-95475982D02*
X112808640Y-95475982D01*
X112808640Y-95475982D02*
X112796545Y-95469935D01*
X112850973Y-95427602D02*
X112838878Y-95433649D01*
X112838878Y-95433649D02*
X112814687Y-95433649D01*
X112814687Y-95433649D02*
X112802592Y-95427602D01*
X112802592Y-95427602D02*
X112796545Y-95421554D01*
X112796545Y-95421554D02*
X112790497Y-95409459D01*
X112790497Y-95409459D02*
X112790497Y-95373173D01*
X112790497Y-95373173D02*
X112796545Y-95361078D01*
X112796545Y-95361078D02*
X112802592Y-95355030D01*
X112802592Y-95355030D02*
X112814687Y-95348982D01*
X112814687Y-95348982D02*
X112838878Y-95348982D01*
X112838878Y-95348982D02*
X112850973Y-95355030D01*
X112911450Y-95348982D02*
X112911450Y-95433649D01*
X112911450Y-95361078D02*
X112917497Y-95355030D01*
X112917497Y-95355030D02*
X112929592Y-95348982D01*
X112929592Y-95348982D02*
X112947735Y-95348982D01*
X112947735Y-95348982D02*
X112959831Y-95355030D01*
X112959831Y-95355030D02*
X112965878Y-95367125D01*
X112965878Y-95367125D02*
X112965878Y-95433649D01*
X113020307Y-95427602D02*
X113032402Y-95433649D01*
X113032402Y-95433649D02*
X113056593Y-95433649D01*
X113056593Y-95433649D02*
X113068688Y-95427602D01*
X113068688Y-95427602D02*
X113074736Y-95415506D01*
X113074736Y-95415506D02*
X113074736Y-95409459D01*
X113074736Y-95409459D02*
X113068688Y-95397363D01*
X113068688Y-95397363D02*
X113056593Y-95391316D01*
X113056593Y-95391316D02*
X113038450Y-95391316D01*
X113038450Y-95391316D02*
X113026355Y-95385268D01*
X113026355Y-95385268D02*
X113020307Y-95373173D01*
X113020307Y-95373173D02*
X113020307Y-95367125D01*
X113020307Y-95367125D02*
X113026355Y-95355030D01*
X113026355Y-95355030D02*
X113038450Y-95348982D01*
X113038450Y-95348982D02*
X113056593Y-95348982D01*
X113056593Y-95348982D02*
X113068688Y-95355030D01*
X113129165Y-95421554D02*
X113135212Y-95427602D01*
X113135212Y-95427602D02*
X113129165Y-95433649D01*
X113129165Y-95433649D02*
X113123117Y-95427602D01*
X113123117Y-95427602D02*
X113129165Y-95421554D01*
X113129165Y-95421554D02*
X113129165Y-95433649D01*
X113280355Y-95397363D02*
X113340831Y-95397363D01*
X113268260Y-95433649D02*
X113310593Y-95306649D01*
X113310593Y-95306649D02*
X113352926Y-95433649D01*
X113413402Y-95433649D02*
X113401307Y-95427602D01*
X113401307Y-95427602D02*
X113395260Y-95415506D01*
X113395260Y-95415506D02*
X113395260Y-95306649D01*
X113479926Y-95433649D02*
X113467831Y-95427602D01*
X113467831Y-95427602D02*
X113461784Y-95415506D01*
X113461784Y-95415506D02*
X113461784Y-95306649D01*
X113625070Y-95433649D02*
X113625070Y-95348982D01*
X113625070Y-95373173D02*
X113631117Y-95361078D01*
X113631117Y-95361078D02*
X113637165Y-95355030D01*
X113637165Y-95355030D02*
X113649260Y-95348982D01*
X113649260Y-95348982D02*
X113661355Y-95348982D01*
X113703689Y-95433649D02*
X113703689Y-95348982D01*
X113703689Y-95306649D02*
X113697641Y-95312697D01*
X113697641Y-95312697D02*
X113703689Y-95318744D01*
X113703689Y-95318744D02*
X113709736Y-95312697D01*
X113709736Y-95312697D02*
X113703689Y-95306649D01*
X113703689Y-95306649D02*
X113703689Y-95318744D01*
X113818593Y-95348982D02*
X113818593Y-95451792D01*
X113818593Y-95451792D02*
X113812546Y-95463887D01*
X113812546Y-95463887D02*
X113806498Y-95469935D01*
X113806498Y-95469935D02*
X113794403Y-95475982D01*
X113794403Y-95475982D02*
X113776260Y-95475982D01*
X113776260Y-95475982D02*
X113764165Y-95469935D01*
X113818593Y-95427602D02*
X113806498Y-95433649D01*
X113806498Y-95433649D02*
X113782307Y-95433649D01*
X113782307Y-95433649D02*
X113770212Y-95427602D01*
X113770212Y-95427602D02*
X113764165Y-95421554D01*
X113764165Y-95421554D02*
X113758117Y-95409459D01*
X113758117Y-95409459D02*
X113758117Y-95373173D01*
X113758117Y-95373173D02*
X113764165Y-95361078D01*
X113764165Y-95361078D02*
X113770212Y-95355030D01*
X113770212Y-95355030D02*
X113782307Y-95348982D01*
X113782307Y-95348982D02*
X113806498Y-95348982D01*
X113806498Y-95348982D02*
X113818593Y-95355030D01*
X113879070Y-95433649D02*
X113879070Y-95306649D01*
X113933498Y-95433649D02*
X113933498Y-95367125D01*
X113933498Y-95367125D02*
X113927451Y-95355030D01*
X113927451Y-95355030D02*
X113915355Y-95348982D01*
X113915355Y-95348982D02*
X113897212Y-95348982D01*
X113897212Y-95348982D02*
X113885117Y-95355030D01*
X113885117Y-95355030D02*
X113879070Y-95361078D01*
X113975832Y-95348982D02*
X114024213Y-95348982D01*
X113993975Y-95306649D02*
X113993975Y-95415506D01*
X113993975Y-95415506D02*
X114000022Y-95427602D01*
X114000022Y-95427602D02*
X114012117Y-95433649D01*
X114012117Y-95433649D02*
X114024213Y-95433649D01*
X114060498Y-95427602D02*
X114072593Y-95433649D01*
X114072593Y-95433649D02*
X114096784Y-95433649D01*
X114096784Y-95433649D02*
X114108879Y-95427602D01*
X114108879Y-95427602D02*
X114114927Y-95415506D01*
X114114927Y-95415506D02*
X114114927Y-95409459D01*
X114114927Y-95409459D02*
X114108879Y-95397363D01*
X114108879Y-95397363D02*
X114096784Y-95391316D01*
X114096784Y-95391316D02*
X114078641Y-95391316D01*
X114078641Y-95391316D02*
X114066546Y-95385268D01*
X114066546Y-95385268D02*
X114060498Y-95373173D01*
X114060498Y-95373173D02*
X114060498Y-95367125D01*
X114060498Y-95367125D02*
X114066546Y-95355030D01*
X114066546Y-95355030D02*
X114078641Y-95348982D01*
X114078641Y-95348982D02*
X114096784Y-95348982D01*
X114096784Y-95348982D02*
X114108879Y-95355030D01*
X114266118Y-95433649D02*
X114266118Y-95348982D01*
X114266118Y-95373173D02*
X114272165Y-95361078D01*
X114272165Y-95361078D02*
X114278213Y-95355030D01*
X114278213Y-95355030D02*
X114290308Y-95348982D01*
X114290308Y-95348982D02*
X114302403Y-95348982D01*
X114393118Y-95427602D02*
X114381022Y-95433649D01*
X114381022Y-95433649D02*
X114356832Y-95433649D01*
X114356832Y-95433649D02*
X114344737Y-95427602D01*
X114344737Y-95427602D02*
X114338689Y-95415506D01*
X114338689Y-95415506D02*
X114338689Y-95367125D01*
X114338689Y-95367125D02*
X114344737Y-95355030D01*
X114344737Y-95355030D02*
X114356832Y-95348982D01*
X114356832Y-95348982D02*
X114381022Y-95348982D01*
X114381022Y-95348982D02*
X114393118Y-95355030D01*
X114393118Y-95355030D02*
X114399165Y-95367125D01*
X114399165Y-95367125D02*
X114399165Y-95379221D01*
X114399165Y-95379221D02*
X114338689Y-95391316D01*
X114447546Y-95427602D02*
X114459641Y-95433649D01*
X114459641Y-95433649D02*
X114483832Y-95433649D01*
X114483832Y-95433649D02*
X114495927Y-95427602D01*
X114495927Y-95427602D02*
X114501975Y-95415506D01*
X114501975Y-95415506D02*
X114501975Y-95409459D01*
X114501975Y-95409459D02*
X114495927Y-95397363D01*
X114495927Y-95397363D02*
X114483832Y-95391316D01*
X114483832Y-95391316D02*
X114465689Y-95391316D01*
X114465689Y-95391316D02*
X114453594Y-95385268D01*
X114453594Y-95385268D02*
X114447546Y-95373173D01*
X114447546Y-95373173D02*
X114447546Y-95367125D01*
X114447546Y-95367125D02*
X114453594Y-95355030D01*
X114453594Y-95355030D02*
X114465689Y-95348982D01*
X114465689Y-95348982D02*
X114483832Y-95348982D01*
X114483832Y-95348982D02*
X114495927Y-95355030D01*
X114604785Y-95427602D02*
X114592689Y-95433649D01*
X114592689Y-95433649D02*
X114568499Y-95433649D01*
X114568499Y-95433649D02*
X114556404Y-95427602D01*
X114556404Y-95427602D02*
X114550356Y-95415506D01*
X114550356Y-95415506D02*
X114550356Y-95367125D01*
X114550356Y-95367125D02*
X114556404Y-95355030D01*
X114556404Y-95355030D02*
X114568499Y-95348982D01*
X114568499Y-95348982D02*
X114592689Y-95348982D01*
X114592689Y-95348982D02*
X114604785Y-95355030D01*
X114604785Y-95355030D02*
X114610832Y-95367125D01*
X114610832Y-95367125D02*
X114610832Y-95379221D01*
X114610832Y-95379221D02*
X114550356Y-95391316D01*
X114665261Y-95433649D02*
X114665261Y-95348982D01*
X114665261Y-95373173D02*
X114671308Y-95361078D01*
X114671308Y-95361078D02*
X114677356Y-95355030D01*
X114677356Y-95355030D02*
X114689451Y-95348982D01*
X114689451Y-95348982D02*
X114701546Y-95348982D01*
X114731784Y-95348982D02*
X114762022Y-95433649D01*
X114762022Y-95433649D02*
X114792261Y-95348982D01*
X114889023Y-95427602D02*
X114876927Y-95433649D01*
X114876927Y-95433649D02*
X114852737Y-95433649D01*
X114852737Y-95433649D02*
X114840642Y-95427602D01*
X114840642Y-95427602D02*
X114834594Y-95415506D01*
X114834594Y-95415506D02*
X114834594Y-95367125D01*
X114834594Y-95367125D02*
X114840642Y-95355030D01*
X114840642Y-95355030D02*
X114852737Y-95348982D01*
X114852737Y-95348982D02*
X114876927Y-95348982D01*
X114876927Y-95348982D02*
X114889023Y-95355030D01*
X114889023Y-95355030D02*
X114895070Y-95367125D01*
X114895070Y-95367125D02*
X114895070Y-95379221D01*
X114895070Y-95379221D02*
X114834594Y-95391316D01*
X115003927Y-95433649D02*
X115003927Y-95306649D01*
X115003927Y-95427602D02*
X114991832Y-95433649D01*
X114991832Y-95433649D02*
X114967641Y-95433649D01*
X114967641Y-95433649D02*
X114955546Y-95427602D01*
X114955546Y-95427602D02*
X114949499Y-95421554D01*
X114949499Y-95421554D02*
X114943451Y-95409459D01*
X114943451Y-95409459D02*
X114943451Y-95373173D01*
X114943451Y-95373173D02*
X114949499Y-95361078D01*
X114949499Y-95361078D02*
X114955546Y-95355030D01*
X114955546Y-95355030D02*
X114967641Y-95348982D01*
X114967641Y-95348982D02*
X114991832Y-95348982D01*
X114991832Y-95348982D02*
X115003927Y-95355030D01*
X115064404Y-95421554D02*
X115070451Y-95427602D01*
X115070451Y-95427602D02*
X115064404Y-95433649D01*
X115064404Y-95433649D02*
X115058356Y-95427602D01*
X115058356Y-95427602D02*
X115064404Y-95421554D01*
X115064404Y-95421554D02*
X115064404Y-95433649D01*
X105046553Y-102645833D02*
X105052601Y-102651881D01*
X105052601Y-102651881D02*
X105058648Y-102670023D01*
X105058648Y-102670023D02*
X105058648Y-102682119D01*
X105058648Y-102682119D02*
X105052601Y-102700262D01*
X105052601Y-102700262D02*
X105040505Y-102712357D01*
X105040505Y-102712357D02*
X105028410Y-102718404D01*
X105028410Y-102718404D02*
X105004220Y-102724452D01*
X105004220Y-102724452D02*
X104986077Y-102724452D01*
X104986077Y-102724452D02*
X104961886Y-102718404D01*
X104961886Y-102718404D02*
X104949791Y-102712357D01*
X104949791Y-102712357D02*
X104937696Y-102700262D01*
X104937696Y-102700262D02*
X104931648Y-102682119D01*
X104931648Y-102682119D02*
X104931648Y-102670023D01*
X104931648Y-102670023D02*
X104937696Y-102651881D01*
X104937696Y-102651881D02*
X104943743Y-102645833D01*
X105058648Y-102573262D02*
X105052601Y-102585357D01*
X105052601Y-102585357D02*
X105046553Y-102591404D01*
X105046553Y-102591404D02*
X105034458Y-102597452D01*
X105034458Y-102597452D02*
X104998172Y-102597452D01*
X104998172Y-102597452D02*
X104986077Y-102591404D01*
X104986077Y-102591404D02*
X104980029Y-102585357D01*
X104980029Y-102585357D02*
X104973981Y-102573262D01*
X104973981Y-102573262D02*
X104973981Y-102555119D01*
X104973981Y-102555119D02*
X104980029Y-102543023D01*
X104980029Y-102543023D02*
X104986077Y-102536976D01*
X104986077Y-102536976D02*
X104998172Y-102530928D01*
X104998172Y-102530928D02*
X105034458Y-102530928D01*
X105034458Y-102530928D02*
X105046553Y-102536976D01*
X105046553Y-102536976D02*
X105052601Y-102543023D01*
X105052601Y-102543023D02*
X105058648Y-102555119D01*
X105058648Y-102555119D02*
X105058648Y-102573262D01*
X104973981Y-102476499D02*
X105100981Y-102476499D01*
X104980029Y-102476499D02*
X104973981Y-102464404D01*
X104973981Y-102464404D02*
X104973981Y-102440214D01*
X104973981Y-102440214D02*
X104980029Y-102428118D01*
X104980029Y-102428118D02*
X104986077Y-102422071D01*
X104986077Y-102422071D02*
X104998172Y-102416023D01*
X104998172Y-102416023D02*
X105034458Y-102416023D01*
X105034458Y-102416023D02*
X105046553Y-102422071D01*
X105046553Y-102422071D02*
X105052601Y-102428118D01*
X105052601Y-102428118D02*
X105058648Y-102440214D01*
X105058648Y-102440214D02*
X105058648Y-102464404D01*
X105058648Y-102464404D02*
X105052601Y-102476499D01*
X104973981Y-102373690D02*
X105058648Y-102343452D01*
X104973981Y-102313213D02*
X105058648Y-102343452D01*
X105058648Y-102343452D02*
X105088886Y-102355547D01*
X105088886Y-102355547D02*
X105094934Y-102361594D01*
X105094934Y-102361594D02*
X105100981Y-102373690D01*
X105058648Y-102264832D02*
X104973981Y-102264832D01*
X104998172Y-102264832D02*
X104986077Y-102258785D01*
X104986077Y-102258785D02*
X104980029Y-102252737D01*
X104980029Y-102252737D02*
X104973981Y-102240642D01*
X104973981Y-102240642D02*
X104973981Y-102228547D01*
X105058648Y-102186213D02*
X104973981Y-102186213D01*
X104931648Y-102186213D02*
X104937696Y-102192261D01*
X104937696Y-102192261D02*
X104943743Y-102186213D01*
X104943743Y-102186213D02*
X104937696Y-102180166D01*
X104937696Y-102180166D02*
X104931648Y-102186213D01*
X104931648Y-102186213D02*
X104943743Y-102186213D01*
X104973981Y-102071309D02*
X105076791Y-102071309D01*
X105076791Y-102071309D02*
X105088886Y-102077356D01*
X105088886Y-102077356D02*
X105094934Y-102083404D01*
X105094934Y-102083404D02*
X105100981Y-102095499D01*
X105100981Y-102095499D02*
X105100981Y-102113642D01*
X105100981Y-102113642D02*
X105094934Y-102125737D01*
X105052601Y-102071309D02*
X105058648Y-102083404D01*
X105058648Y-102083404D02*
X105058648Y-102107595D01*
X105058648Y-102107595D02*
X105052601Y-102119690D01*
X105052601Y-102119690D02*
X105046553Y-102125737D01*
X105046553Y-102125737D02*
X105034458Y-102131785D01*
X105034458Y-102131785D02*
X104998172Y-102131785D01*
X104998172Y-102131785D02*
X104986077Y-102125737D01*
X104986077Y-102125737D02*
X104980029Y-102119690D01*
X104980029Y-102119690D02*
X104973981Y-102107595D01*
X104973981Y-102107595D02*
X104973981Y-102083404D01*
X104973981Y-102083404D02*
X104980029Y-102071309D01*
X105058648Y-102010832D02*
X104931648Y-102010832D01*
X105058648Y-101956404D02*
X104992124Y-101956404D01*
X104992124Y-101956404D02*
X104980029Y-101962451D01*
X104980029Y-101962451D02*
X104973981Y-101974547D01*
X104973981Y-101974547D02*
X104973981Y-101992690D01*
X104973981Y-101992690D02*
X104980029Y-102004785D01*
X104980029Y-102004785D02*
X104986077Y-102010832D01*
X104973981Y-101914070D02*
X104973981Y-101865689D01*
X104931648Y-101895927D02*
X105040505Y-101895927D01*
X105040505Y-101895927D02*
X105052601Y-101889880D01*
X105052601Y-101889880D02*
X105058648Y-101877785D01*
X105058648Y-101877785D02*
X105058648Y-101865689D01*
X104943743Y-101732642D02*
X104937696Y-101726594D01*
X104937696Y-101726594D02*
X104931648Y-101714499D01*
X104931648Y-101714499D02*
X104931648Y-101684261D01*
X104931648Y-101684261D02*
X104937696Y-101672166D01*
X104937696Y-101672166D02*
X104943743Y-101666118D01*
X104943743Y-101666118D02*
X104955839Y-101660071D01*
X104955839Y-101660071D02*
X104967934Y-101660071D01*
X104967934Y-101660071D02*
X104986077Y-101666118D01*
X104986077Y-101666118D02*
X105058648Y-101738690D01*
X105058648Y-101738690D02*
X105058648Y-101660071D01*
X104931648Y-101581452D02*
X104931648Y-101569357D01*
X104931648Y-101569357D02*
X104937696Y-101557261D01*
X104937696Y-101557261D02*
X104943743Y-101551214D01*
X104943743Y-101551214D02*
X104955839Y-101545166D01*
X104955839Y-101545166D02*
X104980029Y-101539119D01*
X104980029Y-101539119D02*
X105010267Y-101539119D01*
X105010267Y-101539119D02*
X105034458Y-101545166D01*
X105034458Y-101545166D02*
X105046553Y-101551214D01*
X105046553Y-101551214D02*
X105052601Y-101557261D01*
X105052601Y-101557261D02*
X105058648Y-101569357D01*
X105058648Y-101569357D02*
X105058648Y-101581452D01*
X105058648Y-101581452D02*
X105052601Y-101593547D01*
X105052601Y-101593547D02*
X105046553Y-101599595D01*
X105046553Y-101599595D02*
X105034458Y-101605642D01*
X105034458Y-101605642D02*
X105010267Y-101611690D01*
X105010267Y-101611690D02*
X104980029Y-101611690D01*
X104980029Y-101611690D02*
X104955839Y-101605642D01*
X104955839Y-101605642D02*
X104943743Y-101599595D01*
X104943743Y-101599595D02*
X104937696Y-101593547D01*
X104937696Y-101593547D02*
X104931648Y-101581452D01*
X104943743Y-101490738D02*
X104937696Y-101484690D01*
X104937696Y-101484690D02*
X104931648Y-101472595D01*
X104931648Y-101472595D02*
X104931648Y-101442357D01*
X104931648Y-101442357D02*
X104937696Y-101430262D01*
X104937696Y-101430262D02*
X104943743Y-101424214D01*
X104943743Y-101424214D02*
X104955839Y-101418167D01*
X104955839Y-101418167D02*
X104967934Y-101418167D01*
X104967934Y-101418167D02*
X104986077Y-101424214D01*
X104986077Y-101424214D02*
X105058648Y-101496786D01*
X105058648Y-101496786D02*
X105058648Y-101418167D01*
X105058648Y-101297215D02*
X105058648Y-101369786D01*
X105058648Y-101333500D02*
X104931648Y-101333500D01*
X104931648Y-101333500D02*
X104949791Y-101345596D01*
X104949791Y-101345596D02*
X104961886Y-101357691D01*
X104961886Y-101357691D02*
X104967934Y-101369786D01*
X105022362Y-101152072D02*
X105022362Y-101091596D01*
X105058648Y-101164167D02*
X104931648Y-101121834D01*
X104931648Y-101121834D02*
X105058648Y-101079501D01*
X105052601Y-100982739D02*
X105058648Y-100994834D01*
X105058648Y-100994834D02*
X105058648Y-101019025D01*
X105058648Y-101019025D02*
X105052601Y-101031120D01*
X105052601Y-101031120D02*
X105046553Y-101037167D01*
X105046553Y-101037167D02*
X105034458Y-101043215D01*
X105034458Y-101043215D02*
X104998172Y-101043215D01*
X104998172Y-101043215D02*
X104986077Y-101037167D01*
X104986077Y-101037167D02*
X104980029Y-101031120D01*
X104980029Y-101031120D02*
X104973981Y-101019025D01*
X104973981Y-101019025D02*
X104973981Y-100994834D01*
X104973981Y-100994834D02*
X104980029Y-100982739D01*
X105052601Y-100873882D02*
X105058648Y-100885977D01*
X105058648Y-100885977D02*
X105058648Y-100910168D01*
X105058648Y-100910168D02*
X105052601Y-100922263D01*
X105052601Y-100922263D02*
X105046553Y-100928310D01*
X105046553Y-100928310D02*
X105034458Y-100934358D01*
X105034458Y-100934358D02*
X104998172Y-100934358D01*
X104998172Y-100934358D02*
X104986077Y-100928310D01*
X104986077Y-100928310D02*
X104980029Y-100922263D01*
X104980029Y-100922263D02*
X104973981Y-100910168D01*
X104973981Y-100910168D02*
X104973981Y-100885977D01*
X104973981Y-100885977D02*
X104980029Y-100873882D01*
X105052601Y-100771072D02*
X105058648Y-100783168D01*
X105058648Y-100783168D02*
X105058648Y-100807358D01*
X105058648Y-100807358D02*
X105052601Y-100819453D01*
X105052601Y-100819453D02*
X105040505Y-100825501D01*
X105040505Y-100825501D02*
X104992124Y-100825501D01*
X104992124Y-100825501D02*
X104980029Y-100819453D01*
X104980029Y-100819453D02*
X104973981Y-100807358D01*
X104973981Y-100807358D02*
X104973981Y-100783168D01*
X104973981Y-100783168D02*
X104980029Y-100771072D01*
X104980029Y-100771072D02*
X104992124Y-100765025D01*
X104992124Y-100765025D02*
X105004220Y-100765025D01*
X105004220Y-100765025D02*
X105016315Y-100825501D01*
X105058648Y-100692454D02*
X105052601Y-100704549D01*
X105052601Y-100704549D02*
X105040505Y-100710596D01*
X105040505Y-100710596D02*
X104931648Y-100710596D01*
X105052601Y-100595691D02*
X105058648Y-100607787D01*
X105058648Y-100607787D02*
X105058648Y-100631977D01*
X105058648Y-100631977D02*
X105052601Y-100644072D01*
X105052601Y-100644072D02*
X105040505Y-100650120D01*
X105040505Y-100650120D02*
X104992124Y-100650120D01*
X104992124Y-100650120D02*
X104980029Y-100644072D01*
X104980029Y-100644072D02*
X104973981Y-100631977D01*
X104973981Y-100631977D02*
X104973981Y-100607787D01*
X104973981Y-100607787D02*
X104980029Y-100595691D01*
X104980029Y-100595691D02*
X104992124Y-100589644D01*
X104992124Y-100589644D02*
X105004220Y-100589644D01*
X105004220Y-100589644D02*
X105016315Y-100650120D01*
X105058648Y-100535215D02*
X104973981Y-100535215D01*
X104998172Y-100535215D02*
X104986077Y-100529168D01*
X104986077Y-100529168D02*
X104980029Y-100523120D01*
X104980029Y-100523120D02*
X104973981Y-100511025D01*
X104973981Y-100511025D02*
X104973981Y-100498930D01*
X105058648Y-100402168D02*
X104992124Y-100402168D01*
X104992124Y-100402168D02*
X104980029Y-100408215D01*
X104980029Y-100408215D02*
X104973981Y-100420311D01*
X104973981Y-100420311D02*
X104973981Y-100444501D01*
X104973981Y-100444501D02*
X104980029Y-100456596D01*
X105052601Y-100402168D02*
X105058648Y-100414263D01*
X105058648Y-100414263D02*
X105058648Y-100444501D01*
X105058648Y-100444501D02*
X105052601Y-100456596D01*
X105052601Y-100456596D02*
X105040505Y-100462644D01*
X105040505Y-100462644D02*
X105028410Y-100462644D01*
X105028410Y-100462644D02*
X105016315Y-100456596D01*
X105016315Y-100456596D02*
X105010267Y-100444501D01*
X105010267Y-100444501D02*
X105010267Y-100414263D01*
X105010267Y-100414263D02*
X105004220Y-100402168D01*
X104973981Y-100359834D02*
X104973981Y-100311453D01*
X104931648Y-100341691D02*
X105040505Y-100341691D01*
X105040505Y-100341691D02*
X105052601Y-100335644D01*
X105052601Y-100335644D02*
X105058648Y-100323549D01*
X105058648Y-100323549D02*
X105058648Y-100311453D01*
X105052601Y-100220739D02*
X105058648Y-100232835D01*
X105058648Y-100232835D02*
X105058648Y-100257025D01*
X105058648Y-100257025D02*
X105052601Y-100269120D01*
X105052601Y-100269120D02*
X105040505Y-100275168D01*
X105040505Y-100275168D02*
X104992124Y-100275168D01*
X104992124Y-100275168D02*
X104980029Y-100269120D01*
X104980029Y-100269120D02*
X104973981Y-100257025D01*
X104973981Y-100257025D02*
X104973981Y-100232835D01*
X104973981Y-100232835D02*
X104980029Y-100220739D01*
X104980029Y-100220739D02*
X104992124Y-100214692D01*
X104992124Y-100214692D02*
X105004220Y-100214692D01*
X105004220Y-100214692D02*
X105016315Y-100275168D01*
X105058648Y-100105835D02*
X104931648Y-100105835D01*
X105052601Y-100105835D02*
X105058648Y-100117930D01*
X105058648Y-100117930D02*
X105058648Y-100142121D01*
X105058648Y-100142121D02*
X105052601Y-100154216D01*
X105052601Y-100154216D02*
X105046553Y-100160263D01*
X105046553Y-100160263D02*
X105034458Y-100166311D01*
X105034458Y-100166311D02*
X104998172Y-100166311D01*
X104998172Y-100166311D02*
X104986077Y-100160263D01*
X104986077Y-100160263D02*
X104980029Y-100154216D01*
X104980029Y-100154216D02*
X104973981Y-100142121D01*
X104973981Y-100142121D02*
X104973981Y-100117930D01*
X104973981Y-100117930D02*
X104980029Y-100105835D01*
X105058648Y-99948596D02*
X104931648Y-99948596D01*
X104931648Y-99948596D02*
X104931648Y-99918358D01*
X104931648Y-99918358D02*
X104937696Y-99900215D01*
X104937696Y-99900215D02*
X104949791Y-99888120D01*
X104949791Y-99888120D02*
X104961886Y-99882073D01*
X104961886Y-99882073D02*
X104986077Y-99876025D01*
X104986077Y-99876025D02*
X105004220Y-99876025D01*
X105004220Y-99876025D02*
X105028410Y-99882073D01*
X105028410Y-99882073D02*
X105040505Y-99888120D01*
X105040505Y-99888120D02*
X105052601Y-99900215D01*
X105052601Y-99900215D02*
X105058648Y-99918358D01*
X105058648Y-99918358D02*
X105058648Y-99948596D01*
X105052601Y-99773215D02*
X105058648Y-99785311D01*
X105058648Y-99785311D02*
X105058648Y-99809501D01*
X105058648Y-99809501D02*
X105052601Y-99821596D01*
X105052601Y-99821596D02*
X105040505Y-99827644D01*
X105040505Y-99827644D02*
X104992124Y-99827644D01*
X104992124Y-99827644D02*
X104980029Y-99821596D01*
X104980029Y-99821596D02*
X104973981Y-99809501D01*
X104973981Y-99809501D02*
X104973981Y-99785311D01*
X104973981Y-99785311D02*
X104980029Y-99773215D01*
X104980029Y-99773215D02*
X104992124Y-99767168D01*
X104992124Y-99767168D02*
X105004220Y-99767168D01*
X105004220Y-99767168D02*
X105016315Y-99827644D01*
X105052601Y-99718787D02*
X105058648Y-99706692D01*
X105058648Y-99706692D02*
X105058648Y-99682501D01*
X105058648Y-99682501D02*
X105052601Y-99670406D01*
X105052601Y-99670406D02*
X105040505Y-99664358D01*
X105040505Y-99664358D02*
X105034458Y-99664358D01*
X105034458Y-99664358D02*
X105022362Y-99670406D01*
X105022362Y-99670406D02*
X105016315Y-99682501D01*
X105016315Y-99682501D02*
X105016315Y-99700644D01*
X105016315Y-99700644D02*
X105010267Y-99712739D01*
X105010267Y-99712739D02*
X104998172Y-99718787D01*
X104998172Y-99718787D02*
X104992124Y-99718787D01*
X104992124Y-99718787D02*
X104980029Y-99712739D01*
X104980029Y-99712739D02*
X104973981Y-99700644D01*
X104973981Y-99700644D02*
X104973981Y-99682501D01*
X104973981Y-99682501D02*
X104980029Y-99670406D01*
X105058648Y-99609929D02*
X104973981Y-99609929D01*
X104931648Y-99609929D02*
X104937696Y-99615977D01*
X104937696Y-99615977D02*
X104943743Y-99609929D01*
X104943743Y-99609929D02*
X104937696Y-99603882D01*
X104937696Y-99603882D02*
X104931648Y-99609929D01*
X104931648Y-99609929D02*
X104943743Y-99609929D01*
X104973981Y-99495025D02*
X105076791Y-99495025D01*
X105076791Y-99495025D02*
X105088886Y-99501072D01*
X105088886Y-99501072D02*
X105094934Y-99507120D01*
X105094934Y-99507120D02*
X105100981Y-99519215D01*
X105100981Y-99519215D02*
X105100981Y-99537358D01*
X105100981Y-99537358D02*
X105094934Y-99549453D01*
X105052601Y-99495025D02*
X105058648Y-99507120D01*
X105058648Y-99507120D02*
X105058648Y-99531311D01*
X105058648Y-99531311D02*
X105052601Y-99543406D01*
X105052601Y-99543406D02*
X105046553Y-99549453D01*
X105046553Y-99549453D02*
X105034458Y-99555501D01*
X105034458Y-99555501D02*
X104998172Y-99555501D01*
X104998172Y-99555501D02*
X104986077Y-99549453D01*
X104986077Y-99549453D02*
X104980029Y-99543406D01*
X104980029Y-99543406D02*
X104973981Y-99531311D01*
X104973981Y-99531311D02*
X104973981Y-99507120D01*
X104973981Y-99507120D02*
X104980029Y-99495025D01*
X104973981Y-99434548D02*
X105058648Y-99434548D01*
X104986077Y-99434548D02*
X104980029Y-99428501D01*
X104980029Y-99428501D02*
X104973981Y-99416406D01*
X104973981Y-99416406D02*
X104973981Y-99398263D01*
X104973981Y-99398263D02*
X104980029Y-99386167D01*
X104980029Y-99386167D02*
X104992124Y-99380120D01*
X104992124Y-99380120D02*
X105058648Y-99380120D01*
X105052601Y-99325691D02*
X105058648Y-99313596D01*
X105058648Y-99313596D02*
X105058648Y-99289405D01*
X105058648Y-99289405D02*
X105052601Y-99277310D01*
X105052601Y-99277310D02*
X105040505Y-99271262D01*
X105040505Y-99271262D02*
X105034458Y-99271262D01*
X105034458Y-99271262D02*
X105022362Y-99277310D01*
X105022362Y-99277310D02*
X105016315Y-99289405D01*
X105016315Y-99289405D02*
X105016315Y-99307548D01*
X105016315Y-99307548D02*
X105010267Y-99319643D01*
X105010267Y-99319643D02*
X104998172Y-99325691D01*
X104998172Y-99325691D02*
X104992124Y-99325691D01*
X104992124Y-99325691D02*
X104980029Y-99319643D01*
X104980029Y-99319643D02*
X104973981Y-99307548D01*
X104973981Y-99307548D02*
X104973981Y-99289405D01*
X104973981Y-99289405D02*
X104980029Y-99277310D01*
X105046553Y-99216833D02*
X105052601Y-99210786D01*
X105052601Y-99210786D02*
X105058648Y-99216833D01*
X105058648Y-99216833D02*
X105052601Y-99222881D01*
X105052601Y-99222881D02*
X105046553Y-99216833D01*
X105046553Y-99216833D02*
X105058648Y-99216833D01*
X105022362Y-99065643D02*
X105022362Y-99005167D01*
X105058648Y-99077738D02*
X104931648Y-99035405D01*
X104931648Y-99035405D02*
X105058648Y-98993072D01*
X105058648Y-98932596D02*
X105052601Y-98944691D01*
X105052601Y-98944691D02*
X105040505Y-98950738D01*
X105040505Y-98950738D02*
X104931648Y-98950738D01*
X105058648Y-98866072D02*
X105052601Y-98878167D01*
X105052601Y-98878167D02*
X105040505Y-98884214D01*
X105040505Y-98884214D02*
X104931648Y-98884214D01*
X105058648Y-98720928D02*
X104973981Y-98720928D01*
X104998172Y-98720928D02*
X104986077Y-98714881D01*
X104986077Y-98714881D02*
X104980029Y-98708833D01*
X104980029Y-98708833D02*
X104973981Y-98696738D01*
X104973981Y-98696738D02*
X104973981Y-98684643D01*
X105058648Y-98642309D02*
X104973981Y-98642309D01*
X104931648Y-98642309D02*
X104937696Y-98648357D01*
X104937696Y-98648357D02*
X104943743Y-98642309D01*
X104943743Y-98642309D02*
X104937696Y-98636262D01*
X104937696Y-98636262D02*
X104931648Y-98642309D01*
X104931648Y-98642309D02*
X104943743Y-98642309D01*
X104973981Y-98527405D02*
X105076791Y-98527405D01*
X105076791Y-98527405D02*
X105088886Y-98533452D01*
X105088886Y-98533452D02*
X105094934Y-98539500D01*
X105094934Y-98539500D02*
X105100981Y-98551595D01*
X105100981Y-98551595D02*
X105100981Y-98569738D01*
X105100981Y-98569738D02*
X105094934Y-98581833D01*
X105052601Y-98527405D02*
X105058648Y-98539500D01*
X105058648Y-98539500D02*
X105058648Y-98563691D01*
X105058648Y-98563691D02*
X105052601Y-98575786D01*
X105052601Y-98575786D02*
X105046553Y-98581833D01*
X105046553Y-98581833D02*
X105034458Y-98587881D01*
X105034458Y-98587881D02*
X104998172Y-98587881D01*
X104998172Y-98587881D02*
X104986077Y-98581833D01*
X104986077Y-98581833D02*
X104980029Y-98575786D01*
X104980029Y-98575786D02*
X104973981Y-98563691D01*
X104973981Y-98563691D02*
X104973981Y-98539500D01*
X104973981Y-98539500D02*
X104980029Y-98527405D01*
X105058648Y-98466928D02*
X104931648Y-98466928D01*
X105058648Y-98412500D02*
X104992124Y-98412500D01*
X104992124Y-98412500D02*
X104980029Y-98418547D01*
X104980029Y-98418547D02*
X104973981Y-98430643D01*
X104973981Y-98430643D02*
X104973981Y-98448786D01*
X104973981Y-98448786D02*
X104980029Y-98460881D01*
X104980029Y-98460881D02*
X104986077Y-98466928D01*
X104973981Y-98370166D02*
X104973981Y-98321785D01*
X104931648Y-98352023D02*
X105040505Y-98352023D01*
X105040505Y-98352023D02*
X105052601Y-98345976D01*
X105052601Y-98345976D02*
X105058648Y-98333881D01*
X105058648Y-98333881D02*
X105058648Y-98321785D01*
X105052601Y-98285500D02*
X105058648Y-98273405D01*
X105058648Y-98273405D02*
X105058648Y-98249214D01*
X105058648Y-98249214D02*
X105052601Y-98237119D01*
X105052601Y-98237119D02*
X105040505Y-98231071D01*
X105040505Y-98231071D02*
X105034458Y-98231071D01*
X105034458Y-98231071D02*
X105022362Y-98237119D01*
X105022362Y-98237119D02*
X105016315Y-98249214D01*
X105016315Y-98249214D02*
X105016315Y-98267357D01*
X105016315Y-98267357D02*
X105010267Y-98279452D01*
X105010267Y-98279452D02*
X104998172Y-98285500D01*
X104998172Y-98285500D02*
X104992124Y-98285500D01*
X104992124Y-98285500D02*
X104980029Y-98279452D01*
X104980029Y-98279452D02*
X104973981Y-98267357D01*
X104973981Y-98267357D02*
X104973981Y-98249214D01*
X104973981Y-98249214D02*
X104980029Y-98237119D01*
X105058648Y-98079880D02*
X104973981Y-98079880D01*
X104998172Y-98079880D02*
X104986077Y-98073833D01*
X104986077Y-98073833D02*
X104980029Y-98067785D01*
X104980029Y-98067785D02*
X104973981Y-98055690D01*
X104973981Y-98055690D02*
X104973981Y-98043595D01*
X105052601Y-97952880D02*
X105058648Y-97964976D01*
X105058648Y-97964976D02*
X105058648Y-97989166D01*
X105058648Y-97989166D02*
X105052601Y-98001261D01*
X105052601Y-98001261D02*
X105040505Y-98007309D01*
X105040505Y-98007309D02*
X104992124Y-98007309D01*
X104992124Y-98007309D02*
X104980029Y-98001261D01*
X104980029Y-98001261D02*
X104973981Y-97989166D01*
X104973981Y-97989166D02*
X104973981Y-97964976D01*
X104973981Y-97964976D02*
X104980029Y-97952880D01*
X104980029Y-97952880D02*
X104992124Y-97946833D01*
X104992124Y-97946833D02*
X105004220Y-97946833D01*
X105004220Y-97946833D02*
X105016315Y-98007309D01*
X105052601Y-97898452D02*
X105058648Y-97886357D01*
X105058648Y-97886357D02*
X105058648Y-97862166D01*
X105058648Y-97862166D02*
X105052601Y-97850071D01*
X105052601Y-97850071D02*
X105040505Y-97844023D01*
X105040505Y-97844023D02*
X105034458Y-97844023D01*
X105034458Y-97844023D02*
X105022362Y-97850071D01*
X105022362Y-97850071D02*
X105016315Y-97862166D01*
X105016315Y-97862166D02*
X105016315Y-97880309D01*
X105016315Y-97880309D02*
X105010267Y-97892404D01*
X105010267Y-97892404D02*
X104998172Y-97898452D01*
X104998172Y-97898452D02*
X104992124Y-97898452D01*
X104992124Y-97898452D02*
X104980029Y-97892404D01*
X104980029Y-97892404D02*
X104973981Y-97880309D01*
X104973981Y-97880309D02*
X104973981Y-97862166D01*
X104973981Y-97862166D02*
X104980029Y-97850071D01*
X105052601Y-97741213D02*
X105058648Y-97753309D01*
X105058648Y-97753309D02*
X105058648Y-97777499D01*
X105058648Y-97777499D02*
X105052601Y-97789594D01*
X105052601Y-97789594D02*
X105040505Y-97795642D01*
X105040505Y-97795642D02*
X104992124Y-97795642D01*
X104992124Y-97795642D02*
X104980029Y-97789594D01*
X104980029Y-97789594D02*
X104973981Y-97777499D01*
X104973981Y-97777499D02*
X104973981Y-97753309D01*
X104973981Y-97753309D02*
X104980029Y-97741213D01*
X104980029Y-97741213D02*
X104992124Y-97735166D01*
X104992124Y-97735166D02*
X105004220Y-97735166D01*
X105004220Y-97735166D02*
X105016315Y-97795642D01*
X105058648Y-97680737D02*
X104973981Y-97680737D01*
X104998172Y-97680737D02*
X104986077Y-97674690D01*
X104986077Y-97674690D02*
X104980029Y-97668642D01*
X104980029Y-97668642D02*
X104973981Y-97656547D01*
X104973981Y-97656547D02*
X104973981Y-97644452D01*
X104973981Y-97614214D02*
X105058648Y-97583976D01*
X105058648Y-97583976D02*
X104973981Y-97553737D01*
X105052601Y-97456975D02*
X105058648Y-97469071D01*
X105058648Y-97469071D02*
X105058648Y-97493261D01*
X105058648Y-97493261D02*
X105052601Y-97505356D01*
X105052601Y-97505356D02*
X105040505Y-97511404D01*
X105040505Y-97511404D02*
X104992124Y-97511404D01*
X104992124Y-97511404D02*
X104980029Y-97505356D01*
X104980029Y-97505356D02*
X104973981Y-97493261D01*
X104973981Y-97493261D02*
X104973981Y-97469071D01*
X104973981Y-97469071D02*
X104980029Y-97456975D01*
X104980029Y-97456975D02*
X104992124Y-97450928D01*
X104992124Y-97450928D02*
X105004220Y-97450928D01*
X105004220Y-97450928D02*
X105016315Y-97511404D01*
X105058648Y-97342071D02*
X104931648Y-97342071D01*
X105052601Y-97342071D02*
X105058648Y-97354166D01*
X105058648Y-97354166D02*
X105058648Y-97378357D01*
X105058648Y-97378357D02*
X105052601Y-97390452D01*
X105052601Y-97390452D02*
X105046553Y-97396499D01*
X105046553Y-97396499D02*
X105034458Y-97402547D01*
X105034458Y-97402547D02*
X104998172Y-97402547D01*
X104998172Y-97402547D02*
X104986077Y-97396499D01*
X104986077Y-97396499D02*
X104980029Y-97390452D01*
X104980029Y-97390452D02*
X104973981Y-97378357D01*
X104973981Y-97378357D02*
X104973981Y-97354166D01*
X104973981Y-97354166D02*
X104980029Y-97342071D01*
X105046553Y-97281594D02*
X105052601Y-97275547D01*
X105052601Y-97275547D02*
X105058648Y-97281594D01*
X105058648Y-97281594D02*
X105052601Y-97287642D01*
X105052601Y-97287642D02*
X105046553Y-97281594D01*
X105046553Y-97281594D02*
X105058648Y-97281594D01*
D10*
%TO.C,H1*%
X125450000Y-117250000D02*
G75*
G03*
X125450000Y-117250000I-3200000J0D01*
G01*
%TO.C,H3*%
X125450000Y-82750000D02*
G75*
G03*
X125450000Y-82750000I-3200000J0D01*
G01*
%TO.C,H8*%
X90950000Y-82750000D02*
G75*
G03*
X90950000Y-82750000I-3200000J0D01*
G01*
%TO.C,H9*%
X90950000Y-117250000D02*
G75*
G03*
X90950000Y-117250000I-3200000J0D01*
G01*
D14*
%TO.C,U5*%
X93062000Y-94045300D02*
X93062000Y-94299300D01*
X86458000Y-94045300D02*
X86458000Y-94299300D01*
X93316000Y-94172300D02*
X93062000Y-94045300D01*
X93316000Y-94172300D02*
X86204000Y-94172300D01*
X93316000Y-94172300D02*
X93062000Y-94299300D01*
X86204000Y-94172300D02*
X86458000Y-94045300D01*
X86204000Y-94172300D02*
X86458000Y-94299300D01*
X97910999Y-97497300D02*
X98037999Y-97751300D01*
X97910999Y-97497300D02*
X97783999Y-97751300D01*
X97910999Y-97497300D02*
X97910999Y-102602700D01*
X93316000Y-97497300D02*
X82498001Y-97497300D01*
X92510693Y-97497300D02*
X98291999Y-97497300D01*
X82879001Y-97497300D02*
X83006001Y-97751300D01*
X82879001Y-97497300D02*
X82752001Y-97751300D01*
X82879001Y-97497300D02*
X82879001Y-102602700D01*
X98037999Y-97751300D02*
X97783999Y-97751300D01*
X83006001Y-97751300D02*
X82752001Y-97751300D01*
X93316000Y-101800441D02*
X93316000Y-107578699D01*
X86204000Y-101800441D02*
X86204000Y-107578699D01*
X96133000Y-101840700D02*
X95879000Y-101840700D01*
X96006000Y-102094700D02*
X96006000Y-100824700D01*
X96006000Y-102094700D02*
X96133000Y-101840700D01*
X96006000Y-102094700D02*
X95879000Y-101840700D01*
X92510693Y-102094700D02*
X96387000Y-102094700D01*
X98037999Y-102348700D02*
X97783999Y-102348700D01*
X83006001Y-102348700D02*
X82752001Y-102348700D01*
X92510693Y-102498700D02*
X92510693Y-105673700D01*
X92010567Y-102498700D02*
X92010567Y-105673700D01*
X97910999Y-102602700D02*
X98037999Y-102348700D01*
X97910999Y-102602700D02*
X97783999Y-102348700D01*
X96006000Y-102602700D02*
X96133000Y-102856700D01*
X96006000Y-102602700D02*
X95879000Y-102856700D01*
X96006000Y-102602700D02*
X96006000Y-103872700D01*
X93316000Y-102602700D02*
X93316000Y-93791300D01*
X93316000Y-102602700D02*
X82498001Y-102602700D01*
X92510693Y-102602700D02*
X98291999Y-102602700D01*
X92510693Y-102602700D02*
X96387000Y-102602700D01*
X86204000Y-102602700D02*
X86204000Y-93791300D01*
X82879001Y-102602700D02*
X83006001Y-102348700D01*
X82879001Y-102602700D02*
X82752001Y-102348700D01*
X96133000Y-102856700D02*
X95879000Y-102856700D01*
X92764693Y-105165700D02*
X92764693Y-105419700D01*
X91756567Y-105165700D02*
X91756567Y-105419700D01*
X92510693Y-105292700D02*
X92764693Y-105165700D01*
X92510693Y-105292700D02*
X93780693Y-105292700D01*
X92510693Y-105292700D02*
X92764693Y-105419700D01*
X92010567Y-105292700D02*
X91756567Y-105165700D01*
X92010567Y-105292700D02*
X90740567Y-105292700D01*
X92010567Y-105292700D02*
X91756567Y-105419700D01*
X93062000Y-107070699D02*
X93062000Y-107324699D01*
X86458000Y-107070699D02*
X86458000Y-107324699D01*
X93316000Y-107197699D02*
X93062000Y-107070699D01*
X93316000Y-107197699D02*
X86204000Y-107197699D01*
X93316000Y-107197699D02*
X93062000Y-107324699D01*
X86204000Y-107197699D02*
X86458000Y-107070699D01*
X86204000Y-107197699D02*
X86458000Y-107324699D01*
%TD*%
M02*
