%TF.GenerationSoftware,KiCad,Pcbnew,7.0.9*%
%TF.CreationDate,2024-02-12T03:50:36+01:00*%
%TF.ProjectId,MTR_Tiny_MD,4d54525f-5469-46e7-995f-4d442e6b6963,rev?*%
%TF.SameCoordinates,Original*%
%TF.FileFunction,Soldermask,Top*%
%TF.FilePolarity,Negative*%
%FSLAX46Y46*%
G04 Gerber Fmt 4.6, Leading zero omitted, Abs format (unit mm)*
G04 Created by KiCad (PCBNEW 7.0.9) date 2024-02-12 03:50:36*
%MOMM*%
%LPD*%
G01*
G04 APERTURE LIST*
G04 Aperture macros list*
%AMRoundRect*
0 Rectangle with rounded corners*
0 $1 Rounding radius*
0 $2 $3 $4 $5 $6 $7 $8 $9 X,Y pos of 4 corners*
0 Add a 4 corners polygon primitive as box body*
4,1,4,$2,$3,$4,$5,$6,$7,$8,$9,$2,$3,0*
0 Add four circle primitives for the rounded corners*
1,1,$1+$1,$2,$3*
1,1,$1+$1,$4,$5*
1,1,$1+$1,$6,$7*
1,1,$1+$1,$8,$9*
0 Add four rect primitives between the rounded corners*
20,1,$1+$1,$2,$3,$4,$5,0*
20,1,$1+$1,$4,$5,$6,$7,0*
20,1,$1+$1,$6,$7,$8,$9,0*
20,1,$1+$1,$8,$9,$2,$3,0*%
%AMHorizOval*
0 Thick line with rounded ends*
0 $1 width*
0 $2 $3 position (X,Y) of the first rounded end (center of the circle)*
0 $4 $5 position (X,Y) of the second rounded end (center of the circle)*
0 Add line between two ends*
20,1,$1,$2,$3,$4,$5,0*
0 Add two circle primitives to create the rounded ends*
1,1,$1,$2,$3*
1,1,$1,$4,$5*%
%AMRotRect*
0 Rectangle, with rotation*
0 The origin of the aperture is its center*
0 $1 length*
0 $2 width*
0 $3 Rotation angle, in degrees counterclockwise*
0 Add horizontal line*
21,1,$1,$2,0,0,$3*%
G04 Aperture macros list end*
%ADD10RoundRect,0.135000X-0.185000X0.135000X-0.185000X-0.135000X0.185000X-0.135000X0.185000X0.135000X0*%
%ADD11RoundRect,0.250000X0.325000X0.650000X-0.325000X0.650000X-0.325000X-0.650000X0.325000X-0.650000X0*%
%ADD12RoundRect,0.100000X-0.100000X0.130000X-0.100000X-0.130000X0.100000X-0.130000X0.100000X0.130000X0*%
%ADD13RoundRect,0.140000X0.170000X-0.140000X0.170000X0.140000X-0.170000X0.140000X-0.170000X-0.140000X0*%
%ADD14RoundRect,0.140000X-0.140000X-0.170000X0.140000X-0.170000X0.140000X0.170000X-0.140000X0.170000X0*%
%ADD15RoundRect,0.225000X0.250000X-0.225000X0.250000X0.225000X-0.250000X0.225000X-0.250000X-0.225000X0*%
%ADD16C,1.000000*%
%ADD17RoundRect,0.225000X0.225000X0.250000X-0.225000X0.250000X-0.225000X-0.250000X0.225000X-0.250000X0*%
%ADD18RoundRect,0.225000X-0.225000X-0.250000X0.225000X-0.250000X0.225000X0.250000X-0.225000X0.250000X0*%
%ADD19R,1.700000X1.700000*%
%ADD20O,1.700000X1.700000*%
%ADD21RoundRect,0.250000X-0.375000X-1.075000X0.375000X-1.075000X0.375000X1.075000X-0.375000X1.075000X0*%
%ADD22RoundRect,0.165000X1.210000X-1.210000X1.210000X1.210000X-1.210000X1.210000X-1.210000X-1.210000X0*%
%ADD23RoundRect,0.135000X0.135000X0.185000X-0.135000X0.185000X-0.135000X-0.185000X0.135000X-0.185000X0*%
%ADD24RoundRect,0.135000X-0.135000X-0.185000X0.135000X-0.185000X0.135000X0.185000X-0.135000X0.185000X0*%
%ADD25RoundRect,0.250000X-0.325000X-0.650000X0.325000X-0.650000X0.325000X0.650000X-0.325000X0.650000X0*%
%ADD26RoundRect,0.140000X0.140000X0.170000X-0.140000X0.170000X-0.140000X-0.170000X0.140000X-0.170000X0*%
%ADD27RoundRect,0.218750X0.218750X0.256250X-0.218750X0.256250X-0.218750X-0.256250X0.218750X-0.256250X0*%
%ADD28RoundRect,0.140000X-0.170000X0.140000X-0.170000X-0.140000X0.170000X-0.140000X0.170000X0.140000X0*%
%ADD29C,0.800000*%
%ADD30C,6.400000*%
%ADD31RoundRect,0.135000X-0.226274X-0.035355X-0.035355X-0.226274X0.226274X0.035355X0.035355X0.226274X0*%
%ADD32RoundRect,0.200000X-0.200000X-0.275000X0.200000X-0.275000X0.200000X0.275000X-0.200000X0.275000X0*%
%ADD33C,2.362200*%
%ADD34C,0.650000*%
%ADD35R,1.450000X0.600000*%
%ADD36R,1.450000X0.300000*%
%ADD37O,2.100000X1.000000*%
%ADD38O,1.600000X1.000000*%
%ADD39R,1.500000X0.900000*%
%ADD40RoundRect,0.225000X-0.250000X0.225000X-0.250000X-0.225000X0.250000X-0.225000X0.250000X0.225000X0*%
%ADD41R,1.000000X0.900000*%
%ADD42RoundRect,0.070000X0.300000X-0.650000X0.300000X0.650000X-0.300000X0.650000X-0.300000X-0.650000X0*%
%ADD43RotRect,1.700000X1.700000X315.000000*%
%ADD44HorizOval,1.700000X0.000000X0.000000X0.000000X0.000000X0*%
%ADD45RoundRect,0.050000X-0.050000X0.387500X-0.050000X-0.387500X0.050000X-0.387500X0.050000X0.387500X0*%
%ADD46RoundRect,0.050000X-0.387500X0.050000X-0.387500X-0.050000X0.387500X-0.050000X0.387500X0.050000X0*%
%ADD47R,3.200000X3.200000*%
%ADD48R,0.331000X0.680999*%
%ADD49R,0.711200X1.041400*%
%ADD50RoundRect,0.135000X0.185000X-0.135000X0.185000X0.135000X-0.185000X0.135000X-0.185000X-0.135000X0*%
%ADD51C,0.750000*%
%ADD52RoundRect,0.131250X0.393750X-0.668750X0.393750X0.668750X-0.393750X0.668750X-0.393750X-0.668750X0*%
%ADD53R,0.254800X0.807999*%
%ADD54R,0.807999X0.254800*%
%ADD55R,5.791200X3.810000*%
%ADD56R,0.757199X0.254800*%
%ADD57R,2.743200X2.743200*%
%ADD58R,0.203200X1.600200*%
G04 APERTURE END LIST*
D10*
%TO.C,R9*%
X121425000Y-111765000D03*
X121425000Y-112785000D03*
%TD*%
%TO.C,R3*%
X98775000Y-93215000D03*
X98775000Y-94235000D03*
%TD*%
D11*
%TO.C,C39*%
X101675000Y-84300000D03*
X98725000Y-84300000D03*
%TD*%
D12*
%TO.C,C33*%
X99250000Y-105770000D03*
X99250000Y-106410000D03*
%TD*%
D13*
%TO.C,C44*%
X117100000Y-118555000D03*
X117100000Y-117595000D03*
%TD*%
D14*
%TO.C,C6*%
X97340000Y-98403750D03*
X98300000Y-98403750D03*
%TD*%
D15*
%TO.C,C36*%
X90300000Y-107375000D03*
X90300000Y-105825000D03*
%TD*%
D16*
%TO.C,H6*%
X94325000Y-81625000D03*
%TD*%
D17*
%TO.C,C28*%
X87500000Y-95325000D03*
X85950000Y-95325000D03*
%TD*%
D18*
%TO.C,C27*%
X90675000Y-94650000D03*
X92225000Y-94650000D03*
%TD*%
D19*
%TO.C,J5*%
X110400000Y-111025000D03*
D20*
X110400000Y-113565000D03*
%TD*%
D21*
%TO.C,L2*%
X107900000Y-86000000D03*
X110700000Y-86000000D03*
%TD*%
D22*
%TO.C,H12*%
X82620000Y-105310000D03*
%TD*%
D23*
%TO.C,R22*%
X120585000Y-110750000D03*
X119565000Y-110750000D03*
%TD*%
D18*
%TO.C,C41*%
X104075000Y-88775000D03*
X105625000Y-88775000D03*
%TD*%
D14*
%TO.C,C34*%
X97340000Y-101601250D03*
X98300000Y-101601250D03*
%TD*%
D24*
%TO.C,R23*%
X119565000Y-109575000D03*
X120585000Y-109575000D03*
%TD*%
D25*
%TO.C,C38*%
X103625000Y-83100000D03*
X106575000Y-83100000D03*
%TD*%
D23*
%TO.C,R12*%
X123635000Y-112750000D03*
X122615000Y-112750000D03*
%TD*%
D26*
%TO.C,C35*%
X98300000Y-103200000D03*
X97340000Y-103200000D03*
%TD*%
D11*
%TO.C,C40*%
X101675000Y-86900000D03*
X98725000Y-86900000D03*
%TD*%
D27*
%TO.C,D3*%
X124437500Y-111175000D03*
X122862500Y-111175000D03*
%TD*%
D28*
%TO.C,C32*%
X109065000Y-104700000D03*
X109065000Y-105660000D03*
%TD*%
D10*
%TO.C,R8*%
X98150000Y-105790000D03*
X98150000Y-106810000D03*
%TD*%
D29*
%TO.C,H1*%
X119850000Y-117250000D03*
X120552944Y-115552944D03*
X120552944Y-118947056D03*
X122250000Y-114850000D03*
D30*
X122250000Y-117250000D03*
D29*
X122250000Y-119650000D03*
X123947056Y-115552944D03*
X123947056Y-118947056D03*
X124650000Y-117250000D03*
%TD*%
D13*
%TO.C,C2*%
X101000000Y-91230000D03*
X101000000Y-90270000D03*
%TD*%
D29*
%TO.C,H3*%
X119850000Y-82750000D03*
X120552944Y-81052944D03*
X120552944Y-84447056D03*
X122250000Y-80350000D03*
D30*
X122250000Y-82750000D03*
D29*
X122250000Y-85150000D03*
X123947056Y-81052944D03*
X123947056Y-84447056D03*
X124650000Y-82750000D03*
%TD*%
D23*
%TO.C,R1*%
X111485000Y-99525000D03*
X110465000Y-99525000D03*
%TD*%
D31*
%TO.C,R19*%
X115939376Y-115325000D03*
X116660624Y-116046248D03*
%TD*%
D23*
%TO.C,R11*%
X123460000Y-87350000D03*
X122440000Y-87350000D03*
%TD*%
D29*
%TO.C,H8*%
X85350000Y-82750000D03*
X86052944Y-81052944D03*
X86052944Y-84447056D03*
X87750000Y-80350000D03*
D30*
X87750000Y-82750000D03*
D29*
X87750000Y-85150000D03*
X89447056Y-81052944D03*
X89447056Y-84447056D03*
X90150000Y-82750000D03*
%TD*%
D32*
%TO.C,R13*%
X93750000Y-94625000D03*
X95400000Y-94625000D03*
%TD*%
D29*
%TO.C,H9*%
X85350000Y-117250000D03*
X86052944Y-115552944D03*
X86052944Y-118947056D03*
X87750000Y-114850000D03*
D30*
X87750000Y-117250000D03*
D29*
X87750000Y-119650000D03*
X89447056Y-115552944D03*
X89447056Y-118947056D03*
X90150000Y-117250000D03*
%TD*%
D26*
%TO.C,C1*%
X111805000Y-98175000D03*
X110845000Y-98175000D03*
%TD*%
D33*
%TO.C,J6*%
X107890000Y-78450000D03*
X102890000Y-78450000D03*
%TD*%
D12*
%TO.C,C29*%
X94850000Y-105770000D03*
X94850000Y-106410000D03*
%TD*%
D13*
%TO.C,C10*%
X103525000Y-107360000D03*
X103525000Y-106400000D03*
%TD*%
D12*
%TO.C,C31*%
X97050000Y-105770000D03*
X97050000Y-106410000D03*
%TD*%
D28*
%TO.C,C21*%
X121375000Y-96620000D03*
X121375000Y-97580000D03*
%TD*%
D34*
%TO.C,J1*%
X124810000Y-102940000D03*
X124810000Y-97160000D03*
D35*
X123365000Y-103300000D03*
X123365000Y-102500000D03*
D36*
X123365000Y-101300000D03*
X123365000Y-100300000D03*
X123365000Y-99800000D03*
X123365000Y-98800000D03*
D35*
X123365000Y-97600000D03*
X123365000Y-96800000D03*
X123365000Y-96800000D03*
X123365000Y-97600000D03*
D36*
X123365000Y-98300000D03*
X123365000Y-99300000D03*
X123365000Y-100800000D03*
X123365000Y-101800000D03*
D35*
X123365000Y-102500000D03*
X123365000Y-103300000D03*
D37*
X124280000Y-104370000D03*
D38*
X128460000Y-104370000D03*
D37*
X124280000Y-95730000D03*
D38*
X128460000Y-95730000D03*
%TD*%
D24*
%TO.C,R2*%
X110465000Y-100550000D03*
X111485000Y-100550000D03*
%TD*%
D26*
%TO.C,C15*%
X114055000Y-100425000D03*
X113095000Y-100425000D03*
%TD*%
D39*
%TO.C,D1*%
X102500000Y-110650000D03*
X102500000Y-113950000D03*
X107400000Y-113950000D03*
X107400000Y-110650000D03*
%TD*%
D28*
%TO.C,C8*%
X106190000Y-90820000D03*
X106190000Y-91780000D03*
%TD*%
D15*
%TO.C,C12*%
X110650000Y-106525000D03*
X110650000Y-104975000D03*
%TD*%
D26*
%TO.C,C17*%
X114055000Y-98800000D03*
X113095000Y-98800000D03*
%TD*%
D10*
%TO.C,R26*%
X120475000Y-107300000D03*
X120475000Y-108320000D03*
%TD*%
D40*
%TO.C,C37*%
X100450000Y-110675000D03*
X100450000Y-112225000D03*
%TD*%
D41*
%TO.C,Y1*%
X99450000Y-90400000D03*
X97600000Y-90400000D03*
X97600000Y-91950000D03*
X99450000Y-91950000D03*
%TD*%
D13*
%TO.C,C19*%
X121425000Y-103455000D03*
X121425000Y-102495000D03*
%TD*%
D17*
%TO.C,C25*%
X87500000Y-93675000D03*
X85950000Y-93675000D03*
%TD*%
D12*
%TO.C,3v3ToVddd1*%
X115400000Y-94255000D03*
X115400000Y-94895000D03*
%TD*%
D42*
%TO.C,Q1*%
X113350000Y-81500000D03*
X115250000Y-81500000D03*
X114300000Y-79400000D03*
%TD*%
D15*
%TO.C,C26*%
X89100000Y-95350000D03*
X89100000Y-93800000D03*
%TD*%
D13*
%TO.C,C7*%
X101812500Y-107360000D03*
X101812500Y-106400000D03*
%TD*%
D18*
%TO.C,C24*%
X93800000Y-92975000D03*
X95350000Y-92975000D03*
%TD*%
D26*
%TO.C,C23*%
X117630000Y-107175000D03*
X116670000Y-107175000D03*
%TD*%
D28*
%TO.C,C3*%
X97475000Y-93245000D03*
X97475000Y-94205000D03*
%TD*%
D43*
%TO.C,J3*%
X96700000Y-113800000D03*
D44*
X94903949Y-115596051D03*
%TD*%
D26*
%TO.C,C22*%
X117630000Y-108250000D03*
X116670000Y-108250000D03*
%TD*%
D45*
%TO.C,U1*%
X107550000Y-96162500D03*
X107150000Y-96162500D03*
X106750000Y-96162500D03*
X106350000Y-96162500D03*
X105950000Y-96162500D03*
X105550000Y-96162500D03*
X105150000Y-96162500D03*
X104750000Y-96162500D03*
X104350000Y-96162500D03*
X103950000Y-96162500D03*
X103550000Y-96162500D03*
X103150000Y-96162500D03*
X102750000Y-96162500D03*
X102350000Y-96162500D03*
D46*
X101512500Y-97000000D03*
X101512500Y-97400000D03*
X101512500Y-97800000D03*
X101512500Y-98200000D03*
X101512500Y-98600000D03*
X101512500Y-99000000D03*
X101512500Y-99400000D03*
X101512500Y-99800000D03*
X101512500Y-100200000D03*
X101512500Y-100600000D03*
X101512500Y-101000000D03*
X101512500Y-101400000D03*
X101512500Y-101800000D03*
X101512500Y-102200000D03*
D45*
X102350000Y-103037500D03*
X102750000Y-103037500D03*
X103150000Y-103037500D03*
X103550000Y-103037500D03*
X103950000Y-103037500D03*
X104350000Y-103037500D03*
X104750000Y-103037500D03*
X105150000Y-103037500D03*
X105550000Y-103037500D03*
X105950000Y-103037500D03*
X106350000Y-103037500D03*
X106750000Y-103037500D03*
X107150000Y-103037500D03*
X107550000Y-103037500D03*
D46*
X108387500Y-102200000D03*
X108387500Y-101800000D03*
X108387500Y-101400000D03*
X108387500Y-101000000D03*
X108387500Y-100600000D03*
X108387500Y-100200000D03*
X108387500Y-99800000D03*
X108387500Y-99400000D03*
X108387500Y-99000000D03*
X108387500Y-98600000D03*
X108387500Y-98200000D03*
X108387500Y-97800000D03*
X108387500Y-97400000D03*
X108387500Y-97000000D03*
D47*
X104950000Y-99600000D03*
%TD*%
D48*
%TO.C,U9*%
X113275014Y-107489000D03*
X113925000Y-107489000D03*
X114574986Y-107489000D03*
X114574986Y-105411000D03*
X113925000Y-105411000D03*
X113275014Y-105411000D03*
D49*
X113404300Y-106450000D03*
X114445700Y-106450000D03*
%TD*%
D19*
%TO.C,J2*%
X111540000Y-118450000D03*
D20*
X111540000Y-120990000D03*
X109000000Y-118450000D03*
X109000000Y-120990000D03*
X106460000Y-118450000D03*
X106460000Y-120990000D03*
X103920000Y-118450000D03*
X103920000Y-120990000D03*
X101380000Y-118450000D03*
X101380000Y-120990000D03*
X98840000Y-118450000D03*
X98840000Y-120990000D03*
%TD*%
D23*
%TO.C,R16*%
X88580000Y-105850000D03*
X87560000Y-105850000D03*
%TD*%
D16*
%TO.C,H7*%
X87325000Y-88500000D03*
%TD*%
D10*
%TO.C,R6*%
X93750000Y-105790000D03*
X93750000Y-106810000D03*
%TD*%
D22*
%TO.C,H11*%
X81740000Y-100030000D03*
%TD*%
D50*
%TO.C,R5*%
X120975000Y-89485000D03*
X120975000Y-88465000D03*
%TD*%
D51*
%TO.C,SW1*%
X124875000Y-92550000D03*
X124875000Y-90750000D03*
D52*
X127100000Y-91650000D03*
X122650000Y-91650000D03*
%TD*%
D22*
%TO.C,H10*%
X82440000Y-95030000D03*
%TD*%
D18*
%TO.C,C42*%
X107725000Y-88450000D03*
X109275000Y-88450000D03*
%TD*%
D10*
%TO.C,R14*%
X113500000Y-87690000D03*
X113500000Y-88710000D03*
%TD*%
D50*
%TO.C,R4*%
X120975000Y-91660000D03*
X120975000Y-90640000D03*
%TD*%
D26*
%TO.C,C14*%
X114055000Y-101475000D03*
X113095000Y-101475000D03*
%TD*%
D50*
%TO.C,R24*%
X119175000Y-108295000D03*
X119175000Y-107275000D03*
%TD*%
D53*
%TO.C,U5*%
X92510693Y-97601300D03*
X92010567Y-97601300D03*
X91510441Y-97601300D03*
X91010315Y-97601300D03*
X90510189Y-97601300D03*
X90010063Y-97601300D03*
X89509937Y-97601300D03*
X89009811Y-97601300D03*
X88509685Y-97601300D03*
X88009559Y-97601300D03*
X87509433Y-97601300D03*
X87009307Y-97601300D03*
D54*
X86308000Y-98299559D03*
X86308000Y-98799685D03*
X86308000Y-99299811D03*
X86308000Y-99799937D03*
X86308000Y-100300063D03*
X86308000Y-100800189D03*
X86308000Y-101300315D03*
X86308000Y-101800441D03*
D53*
X87009307Y-102498700D03*
X87509433Y-102498700D03*
X88009559Y-102498700D03*
X88509685Y-102498700D03*
X89009811Y-102498700D03*
X89509937Y-102498700D03*
X90010063Y-102498700D03*
X90510189Y-102498700D03*
X91010315Y-102498700D03*
X91510441Y-102498700D03*
X92010567Y-102498700D03*
X92510693Y-102498700D03*
D54*
X93212000Y-101800441D03*
X93212000Y-101300315D03*
X93212000Y-100800189D03*
X93212000Y-100300063D03*
X93212000Y-99799937D03*
X93212000Y-99299811D03*
X93212000Y-98799685D03*
X93212000Y-98299559D03*
D55*
X89760000Y-100050000D03*
%TD*%
D27*
%TO.C,D2*%
X124312500Y-88975000D03*
X122737500Y-88975000D03*
%TD*%
D28*
%TO.C,C11*%
X104650000Y-90820000D03*
X104650000Y-91780000D03*
%TD*%
D10*
%TO.C,R15*%
X112250000Y-87690000D03*
X112250000Y-88710000D03*
%TD*%
%TO.C,R7*%
X95950000Y-105790000D03*
X95950000Y-106810000D03*
%TD*%
D19*
%TO.C,J4*%
X111400000Y-91100000D03*
D20*
X108860000Y-91100000D03*
%TD*%
D56*
%TO.C,U7*%
X103949900Y-85349999D03*
X103949900Y-85850000D03*
X103949900Y-86350000D03*
X103949900Y-86850001D03*
X105850100Y-86850001D03*
X105850100Y-86350000D03*
X105850100Y-85850000D03*
X105850100Y-85349999D03*
%TD*%
D28*
%TO.C,C18*%
X113750000Y-92345000D03*
X113750000Y-93305000D03*
%TD*%
D26*
%TO.C,C16*%
X114055000Y-103000000D03*
X113095000Y-103000000D03*
%TD*%
D53*
%TO.C,U8*%
X116324685Y-102814900D03*
X116824811Y-102814900D03*
X117324937Y-102814900D03*
X117825063Y-102814900D03*
X118325189Y-102814900D03*
X118825315Y-102814900D03*
D54*
X119464900Y-102175315D03*
X119464900Y-101675189D03*
X119464900Y-101175063D03*
X119464900Y-100674937D03*
X119464900Y-100174811D03*
X119464900Y-99674685D03*
D53*
X118825315Y-99035100D03*
X118325189Y-99035100D03*
X117825063Y-99035100D03*
X117324937Y-99035100D03*
X116824811Y-99035100D03*
X116324685Y-99035100D03*
D54*
X115685100Y-99674685D03*
X115685100Y-100174811D03*
X115685100Y-100674937D03*
X115685100Y-101175063D03*
X115685100Y-101675189D03*
X115685100Y-102175315D03*
D57*
X117575000Y-100925000D03*
%TD*%
D12*
%TO.C,JP8*%
X120550000Y-105250000D03*
X120550000Y-105890000D03*
%TD*%
D54*
%TO.C,U2*%
X110950000Y-94625000D03*
X110950000Y-95125001D03*
X110950000Y-95625001D03*
X110950000Y-96125002D03*
X113741998Y-96125002D03*
X113741998Y-95625001D03*
X113741998Y-95125001D03*
X113741998Y-94625000D03*
D58*
X112345999Y-95375001D03*
%TD*%
D13*
%TO.C,C30*%
X103110000Y-91780000D03*
X103110000Y-90820000D03*
%TD*%
D14*
%TO.C,C9*%
X97340000Y-96805000D03*
X98300000Y-96805000D03*
%TD*%
D51*
%TO.C,SW2*%
X124950000Y-109250000D03*
X124950000Y-107450000D03*
D52*
X127175000Y-108350000D03*
X122725000Y-108350000D03*
%TD*%
D28*
%TO.C,C20*%
X115400000Y-92345000D03*
X115400000Y-93305000D03*
%TD*%
D13*
%TO.C,C13*%
X107750000Y-105660000D03*
X107750000Y-104700000D03*
%TD*%
D26*
%TO.C,C5*%
X111780000Y-101800000D03*
X110820000Y-101800000D03*
%TD*%
D14*
%TO.C,C4*%
X97340000Y-100002500D03*
X98300000Y-100002500D03*
%TD*%
M02*
