%TF.GenerationSoftware,KiCad,Pcbnew,7.0.9*%
%TF.CreationDate,2024-02-12T03:50:36+01:00*%
%TF.ProjectId,MTR_Tiny_MD,4d54525f-5469-46e7-995f-4d442e6b6963,rev?*%
%TF.SameCoordinates,Original*%
%TF.FileFunction,Legend,Bot*%
%TF.FilePolarity,Positive*%
%FSLAX46Y46*%
G04 Gerber Fmt 4.6, Leading zero omitted, Abs format (unit mm)*
G04 Created by KiCad (PCBNEW 7.0.9) date 2024-02-12 03:50:36*
%MOMM*%
%LPD*%
G01*
G04 APERTURE LIST*
G04 Aperture macros list*
%AMRoundRect*
0 Rectangle with rounded corners*
0 $1 Rounding radius*
0 $2 $3 $4 $5 $6 $7 $8 $9 X,Y pos of 4 corners*
0 Add a 4 corners polygon primitive as box body*
4,1,4,$2,$3,$4,$5,$6,$7,$8,$9,$2,$3,0*
0 Add four circle primitives for the rounded corners*
1,1,$1+$1,$2,$3*
1,1,$1+$1,$4,$5*
1,1,$1+$1,$6,$7*
1,1,$1+$1,$8,$9*
0 Add four rect primitives between the rounded corners*
20,1,$1+$1,$2,$3,$4,$5,0*
20,1,$1+$1,$4,$5,$6,$7,0*
20,1,$1+$1,$6,$7,$8,$9,0*
20,1,$1+$1,$8,$9,$2,$3,0*%
%AMHorizOval*
0 Thick line with rounded ends*
0 $1 width*
0 $2 $3 position (X,Y) of the first rounded end (center of the circle)*
0 $4 $5 position (X,Y) of the second rounded end (center of the circle)*
0 Add line between two ends*
20,1,$1,$2,$3,$4,$5,0*
0 Add two circle primitives to create the rounded ends*
1,1,$1,$2,$3*
1,1,$1,$4,$5*%
%AMRotRect*
0 Rectangle, with rotation*
0 The origin of the aperture is its center*
0 $1 length*
0 $2 width*
0 $3 Rotation angle, in degrees counterclockwise*
0 Add horizontal line*
21,1,$1,$2,0,0,$3*%
G04 Aperture macros list end*
%ADD10C,0.125000*%
%ADD11C,0.500000*%
%ADD12C,0.100000*%
%ADD13C,0.150000*%
%ADD14C,0.075000*%
%ADD15C,0.010000*%
%ADD16C,0.120000*%
%ADD17R,1.700000X1.700000*%
%ADD18O,1.700000X1.700000*%
%ADD19RoundRect,0.165000X1.210000X-1.210000X1.210000X1.210000X-1.210000X1.210000X-1.210000X-1.210000X0*%
%ADD20C,0.800000*%
%ADD21C,6.400000*%
%ADD22C,2.362200*%
%ADD23C,0.650000*%
%ADD24O,2.100000X1.000000*%
%ADD25O,1.600000X1.000000*%
%ADD26RotRect,1.700000X1.700000X315.000000*%
%ADD27HorizOval,1.700000X0.000000X0.000000X0.000000X0.000000X0*%
%ADD28C,0.750000*%
%ADD29RoundRect,0.100000X0.100000X-0.130000X0.100000X0.130000X-0.100000X0.130000X-0.100000X-0.130000X0*%
%ADD30RoundRect,0.100000X0.130000X0.100000X-0.130000X0.100000X-0.130000X-0.100000X0.130000X-0.100000X0*%
%ADD31R,0.558000X1.394200*%
G04 APERTURE END LIST*
D10*
X128566666Y-99624809D02*
X128566666Y-99981952D01*
X128566666Y-99981952D02*
X128590475Y-100053380D01*
X128590475Y-100053380D02*
X128638094Y-100101000D01*
X128638094Y-100101000D02*
X128709523Y-100124809D01*
X128709523Y-100124809D02*
X128757142Y-100124809D01*
X128090476Y-100124809D02*
X128328571Y-100124809D01*
X128328571Y-100124809D02*
X128328571Y-99624809D01*
X127638095Y-100077190D02*
X127661904Y-100101000D01*
X127661904Y-100101000D02*
X127733333Y-100124809D01*
X127733333Y-100124809D02*
X127780952Y-100124809D01*
X127780952Y-100124809D02*
X127852380Y-100101000D01*
X127852380Y-100101000D02*
X127899999Y-100053380D01*
X127899999Y-100053380D02*
X127923809Y-100005761D01*
X127923809Y-100005761D02*
X127947618Y-99910523D01*
X127947618Y-99910523D02*
X127947618Y-99839095D01*
X127947618Y-99839095D02*
X127923809Y-99743857D01*
X127923809Y-99743857D02*
X127899999Y-99696238D01*
X127899999Y-99696238D02*
X127852380Y-99648619D01*
X127852380Y-99648619D02*
X127780952Y-99624809D01*
X127780952Y-99624809D02*
X127733333Y-99624809D01*
X127733333Y-99624809D02*
X127661904Y-99648619D01*
X127661904Y-99648619D02*
X127638095Y-99672428D01*
X127280952Y-99624809D02*
X127280952Y-99981952D01*
X127280952Y-99981952D02*
X127304761Y-100053380D01*
X127304761Y-100053380D02*
X127352380Y-100101000D01*
X127352380Y-100101000D02*
X127423809Y-100124809D01*
X127423809Y-100124809D02*
X127471428Y-100124809D01*
X126804762Y-100124809D02*
X127042857Y-100124809D01*
X127042857Y-100124809D02*
X127042857Y-99624809D01*
X126352381Y-100077190D02*
X126376190Y-100101000D01*
X126376190Y-100101000D02*
X126447619Y-100124809D01*
X126447619Y-100124809D02*
X126495238Y-100124809D01*
X126495238Y-100124809D02*
X126566666Y-100101000D01*
X126566666Y-100101000D02*
X126614285Y-100053380D01*
X126614285Y-100053380D02*
X126638095Y-100005761D01*
X126638095Y-100005761D02*
X126661904Y-99910523D01*
X126661904Y-99910523D02*
X126661904Y-99839095D01*
X126661904Y-99839095D02*
X126638095Y-99743857D01*
X126638095Y-99743857D02*
X126614285Y-99696238D01*
X126614285Y-99696238D02*
X126566666Y-99648619D01*
X126566666Y-99648619D02*
X126495238Y-99624809D01*
X126495238Y-99624809D02*
X126447619Y-99624809D01*
X126447619Y-99624809D02*
X126376190Y-99648619D01*
X126376190Y-99648619D02*
X126352381Y-99672428D01*
X125995238Y-99624809D02*
X125995238Y-99981952D01*
X125995238Y-99981952D02*
X126019047Y-100053380D01*
X126019047Y-100053380D02*
X126066666Y-100101000D01*
X126066666Y-100101000D02*
X126138095Y-100124809D01*
X126138095Y-100124809D02*
X126185714Y-100124809D01*
X125519048Y-100124809D02*
X125757143Y-100124809D01*
X125757143Y-100124809D02*
X125757143Y-99624809D01*
X125066667Y-100077190D02*
X125090476Y-100101000D01*
X125090476Y-100101000D02*
X125161905Y-100124809D01*
X125161905Y-100124809D02*
X125209524Y-100124809D01*
X125209524Y-100124809D02*
X125280952Y-100101000D01*
X125280952Y-100101000D02*
X125328571Y-100053380D01*
X125328571Y-100053380D02*
X125352381Y-100005761D01*
X125352381Y-100005761D02*
X125376190Y-99910523D01*
X125376190Y-99910523D02*
X125376190Y-99839095D01*
X125376190Y-99839095D02*
X125352381Y-99743857D01*
X125352381Y-99743857D02*
X125328571Y-99696238D01*
X125328571Y-99696238D02*
X125280952Y-99648619D01*
X125280952Y-99648619D02*
X125209524Y-99624809D01*
X125209524Y-99624809D02*
X125161905Y-99624809D01*
X125161905Y-99624809D02*
X125090476Y-99648619D01*
X125090476Y-99648619D02*
X125066667Y-99672428D01*
D11*
X111740100Y-83034000D02*
X111466291Y-83129238D01*
X111466291Y-83129238D02*
X110990100Y-83129238D01*
X110990100Y-83129238D02*
X110787719Y-83034000D01*
X110787719Y-83034000D02*
X110680576Y-82938761D01*
X110680576Y-82938761D02*
X110561529Y-82748285D01*
X110561529Y-82748285D02*
X110537719Y-82557809D01*
X110537719Y-82557809D02*
X110609148Y-82367333D01*
X110609148Y-82367333D02*
X110692481Y-82272095D01*
X110692481Y-82272095D02*
X110871053Y-82176857D01*
X110871053Y-82176857D02*
X111240100Y-82081619D01*
X111240100Y-82081619D02*
X111418672Y-81986380D01*
X111418672Y-81986380D02*
X111502005Y-81891142D01*
X111502005Y-81891142D02*
X111573433Y-81700666D01*
X111573433Y-81700666D02*
X111549624Y-81510190D01*
X111549624Y-81510190D02*
X111430576Y-81319714D01*
X111430576Y-81319714D02*
X111323433Y-81224476D01*
X111323433Y-81224476D02*
X111121053Y-81129238D01*
X111121053Y-81129238D02*
X110644862Y-81129238D01*
X110644862Y-81129238D02*
X110371053Y-81224476D01*
X109752005Y-83129238D02*
X109585338Y-81795904D01*
X109502005Y-81129238D02*
X109609148Y-81224476D01*
X109609148Y-81224476D02*
X109525814Y-81319714D01*
X109525814Y-81319714D02*
X109418671Y-81224476D01*
X109418671Y-81224476D02*
X109502005Y-81129238D01*
X109502005Y-81129238D02*
X109525814Y-81319714D01*
X108799624Y-83129238D02*
X108632957Y-81795904D01*
X108656767Y-81986380D02*
X108549624Y-81891142D01*
X108549624Y-81891142D02*
X108347243Y-81795904D01*
X108347243Y-81795904D02*
X108061529Y-81795904D01*
X108061529Y-81795904D02*
X107882957Y-81891142D01*
X107882957Y-81891142D02*
X107811529Y-82081619D01*
X107811529Y-82081619D02*
X107942481Y-83129238D01*
X107811529Y-82081619D02*
X107692481Y-81891142D01*
X107692481Y-81891142D02*
X107490100Y-81795904D01*
X107490100Y-81795904D02*
X107204386Y-81795904D01*
X107204386Y-81795904D02*
X107025814Y-81891142D01*
X107025814Y-81891142D02*
X106954386Y-82081619D01*
X106954386Y-82081619D02*
X107085338Y-83129238D01*
X105966290Y-81795904D02*
X106216290Y-83795904D01*
X105978195Y-81891142D02*
X105775814Y-81795904D01*
X105775814Y-81795904D02*
X105394862Y-81795904D01*
X105394862Y-81795904D02*
X105216290Y-81891142D01*
X105216290Y-81891142D02*
X105132957Y-81986380D01*
X105132957Y-81986380D02*
X105061528Y-82176857D01*
X105061528Y-82176857D02*
X105132957Y-82748285D01*
X105132957Y-82748285D02*
X105252004Y-82938761D01*
X105252004Y-82938761D02*
X105359147Y-83034000D01*
X105359147Y-83034000D02*
X105561528Y-83129238D01*
X105561528Y-83129238D02*
X105942481Y-83129238D01*
X105942481Y-83129238D02*
X106121052Y-83034000D01*
X104037719Y-83129238D02*
X104216290Y-83034000D01*
X104216290Y-83034000D02*
X104287719Y-82843523D01*
X104287719Y-82843523D02*
X104073433Y-81129238D01*
X102502004Y-83034000D02*
X102704385Y-83129238D01*
X102704385Y-83129238D02*
X103085338Y-83129238D01*
X103085338Y-83129238D02*
X103263909Y-83034000D01*
X103263909Y-83034000D02*
X103335338Y-82843523D01*
X103335338Y-82843523D02*
X103240100Y-82081619D01*
X103240100Y-82081619D02*
X103121052Y-81891142D01*
X103121052Y-81891142D02*
X102918671Y-81795904D01*
X102918671Y-81795904D02*
X102537719Y-81795904D01*
X102537719Y-81795904D02*
X102359147Y-81891142D01*
X102359147Y-81891142D02*
X102287719Y-82081619D01*
X102287719Y-82081619D02*
X102311528Y-82272095D01*
X102311528Y-82272095D02*
X103287719Y-82462571D01*
X100763909Y-82081619D02*
X101430575Y-82081619D01*
X101561528Y-83129238D02*
X101311528Y-81129238D01*
X101311528Y-81129238D02*
X100359147Y-81129238D01*
X99216289Y-81129238D02*
X98835337Y-81129238D01*
X98835337Y-81129238D02*
X98656766Y-81224476D01*
X98656766Y-81224476D02*
X98490099Y-81414952D01*
X98490099Y-81414952D02*
X98442480Y-81795904D01*
X98442480Y-81795904D02*
X98525813Y-82462571D01*
X98525813Y-82462571D02*
X98668670Y-82843523D01*
X98668670Y-82843523D02*
X98882956Y-83034000D01*
X98882956Y-83034000D02*
X99085337Y-83129238D01*
X99085337Y-83129238D02*
X99466289Y-83129238D01*
X99466289Y-83129238D02*
X99644861Y-83034000D01*
X99644861Y-83034000D02*
X99811528Y-82843523D01*
X99811528Y-82843523D02*
X99859147Y-82462571D01*
X99859147Y-82462571D02*
X99775813Y-81795904D01*
X99775813Y-81795904D02*
X99632956Y-81414952D01*
X99632956Y-81414952D02*
X99418670Y-81224476D01*
X99418670Y-81224476D02*
X99216289Y-81129238D01*
X96585337Y-82938761D02*
X96692480Y-83034000D01*
X96692480Y-83034000D02*
X96990099Y-83129238D01*
X96990099Y-83129238D02*
X97180575Y-83129238D01*
X97180575Y-83129238D02*
X97454385Y-83034000D01*
X97454385Y-83034000D02*
X97621051Y-82843523D01*
X97621051Y-82843523D02*
X97692480Y-82653047D01*
X97692480Y-82653047D02*
X97740099Y-82272095D01*
X97740099Y-82272095D02*
X97704385Y-81986380D01*
X97704385Y-81986380D02*
X97561528Y-81605428D01*
X97561528Y-81605428D02*
X97442480Y-81414952D01*
X97442480Y-81414952D02*
X97228194Y-81224476D01*
X97228194Y-81224476D02*
X96930575Y-81129238D01*
X96930575Y-81129238D02*
X96740099Y-81129238D01*
X96740099Y-81129238D02*
X96466290Y-81224476D01*
X96466290Y-81224476D02*
X96382956Y-81319714D01*
D12*
G36*
X104430952Y-76289371D02*
G01*
X104340374Y-76289371D01*
X104320094Y-76279230D01*
X104312522Y-76271659D01*
X104302381Y-76251376D01*
X104302381Y-76217841D01*
X104312522Y-76197558D01*
X104320094Y-76189987D01*
X104340374Y-76179847D01*
X104430952Y-76179847D01*
X104430952Y-76289371D01*
G37*
G36*
X104794191Y-76189987D02*
G01*
X104801763Y-76197559D01*
X104814728Y-76223490D01*
X104830952Y-76288383D01*
X104830952Y-76371310D01*
X104814728Y-76436204D01*
X104801762Y-76462136D01*
X104794191Y-76469707D01*
X104773911Y-76479847D01*
X104759422Y-76479847D01*
X104739140Y-76469706D01*
X104731568Y-76462134D01*
X104718603Y-76436204D01*
X104702381Y-76371312D01*
X104702381Y-76288381D01*
X104718603Y-76223490D01*
X104731569Y-76197558D01*
X104739141Y-76189987D01*
X104759422Y-76179847D01*
X104773911Y-76179847D01*
X104794191Y-76189987D01*
G37*
G36*
X106072837Y-76636990D02*
G01*
X104145238Y-76636990D01*
X104145238Y-76263180D01*
X104202381Y-76263180D01*
X104206834Y-76273932D01*
X104207660Y-76285541D01*
X104226708Y-76323637D01*
X104232924Y-76329028D01*
X104236074Y-76336631D01*
X104255121Y-76355679D01*
X104262724Y-76358828D01*
X104268115Y-76365044D01*
X104306210Y-76384092D01*
X104317818Y-76384917D01*
X104328571Y-76389371D01*
X104430952Y-76389371D01*
X104430952Y-76529847D01*
X104445597Y-76565202D01*
X104480952Y-76579847D01*
X104516307Y-76565202D01*
X104530952Y-76529847D01*
X104530952Y-76377466D01*
X104602381Y-76377466D01*
X104604807Y-76383322D01*
X104603874Y-76389592D01*
X104622921Y-76465784D01*
X104626304Y-76470349D01*
X104626707Y-76476018D01*
X104645755Y-76514113D01*
X104651971Y-76519504D01*
X104655120Y-76527106D01*
X104674167Y-76546154D01*
X104681769Y-76549303D01*
X104687163Y-76555522D01*
X104725259Y-76574569D01*
X104736867Y-76575393D01*
X104747619Y-76579847D01*
X104785714Y-76579847D01*
X104796464Y-76575393D01*
X104808074Y-76574569D01*
X104846169Y-76555522D01*
X104851561Y-76549304D01*
X104859164Y-76546155D01*
X104878212Y-76527107D01*
X104881360Y-76519504D01*
X104887579Y-76514112D01*
X104906625Y-76476017D01*
X104907027Y-76470350D01*
X104910411Y-76465784D01*
X104913443Y-76453657D01*
X104983333Y-76453657D01*
X104987786Y-76464407D01*
X104988611Y-76476017D01*
X105007658Y-76514112D01*
X105013875Y-76519504D01*
X105017025Y-76527107D01*
X105036073Y-76546155D01*
X105043675Y-76549303D01*
X105049068Y-76555522D01*
X105087163Y-76574568D01*
X105098769Y-76575392D01*
X105109523Y-76579847D01*
X105223809Y-76579847D01*
X105234559Y-76575393D01*
X105246169Y-76574569D01*
X105284264Y-76555522D01*
X105289656Y-76549304D01*
X105297259Y-76546155D01*
X105316307Y-76527107D01*
X105330952Y-76491752D01*
X105316307Y-76456397D01*
X105280952Y-76441752D01*
X105245597Y-76456397D01*
X105232286Y-76469707D01*
X105212006Y-76479847D01*
X105121327Y-76479847D01*
X105101043Y-76469705D01*
X105093472Y-76462134D01*
X105083333Y-76441853D01*
X105083333Y-76370222D01*
X105093474Y-76349939D01*
X105101044Y-76342369D01*
X105121326Y-76332228D01*
X105166666Y-76332228D01*
X105182920Y-76325494D01*
X105199591Y-76319857D01*
X105200379Y-76318263D01*
X105202021Y-76317583D01*
X105208754Y-76301327D01*
X105216555Y-76285554D01*
X105215985Y-76283870D01*
X105216666Y-76282228D01*
X105209932Y-76265973D01*
X105204295Y-76249303D01*
X105143521Y-76179847D01*
X105280952Y-76179847D01*
X105316307Y-76165202D01*
X105328571Y-76135595D01*
X105340835Y-76165202D01*
X105376190Y-76179847D01*
X105440476Y-76179847D01*
X105440476Y-76529847D01*
X105455121Y-76565202D01*
X105490476Y-76579847D01*
X105525831Y-76565202D01*
X105540476Y-76529847D01*
X105540476Y-76179847D01*
X105604761Y-76179847D01*
X105640116Y-76165202D01*
X105653508Y-76132871D01*
X105658397Y-76157582D01*
X105773240Y-76329847D01*
X105658397Y-76502112D01*
X105650970Y-76539653D01*
X105672264Y-76571449D01*
X105709805Y-76578876D01*
X105741601Y-76557582D01*
X105833332Y-76419985D01*
X105925063Y-76557582D01*
X105956860Y-76578875D01*
X105994401Y-76571449D01*
X106015694Y-76539652D01*
X106008268Y-76502112D01*
X105893424Y-76329847D01*
X106008268Y-76157582D01*
X106015694Y-76120042D01*
X105994401Y-76088245D01*
X105956860Y-76080819D01*
X105925063Y-76102112D01*
X105833332Y-76239708D01*
X105741601Y-76102112D01*
X105709805Y-76080818D01*
X105672264Y-76088245D01*
X105650970Y-76120041D01*
X105651217Y-76121292D01*
X105640116Y-76094492D01*
X105604761Y-76079847D01*
X105376190Y-76079847D01*
X105340835Y-76094492D01*
X105328571Y-76124098D01*
X105316307Y-76094492D01*
X105280952Y-76079847D01*
X105033333Y-76079847D01*
X105017078Y-76086580D01*
X105000408Y-76092218D01*
X104999619Y-76093811D01*
X104997978Y-76094492D01*
X104991244Y-76110747D01*
X104983444Y-76126521D01*
X104984013Y-76128204D01*
X104983333Y-76129847D01*
X104990066Y-76146101D01*
X104995704Y-76162772D01*
X105069029Y-76246573D01*
X105049067Y-76256555D01*
X105043675Y-76262771D01*
X105036073Y-76265920D01*
X105017026Y-76284967D01*
X105013876Y-76292569D01*
X105007658Y-76297963D01*
X104988611Y-76336059D01*
X104987786Y-76347667D01*
X104983333Y-76358419D01*
X104983333Y-76453657D01*
X104913443Y-76453657D01*
X104929459Y-76389593D01*
X104928525Y-76383322D01*
X104930952Y-76377466D01*
X104930952Y-76282228D01*
X104928525Y-76276371D01*
X104929459Y-76270101D01*
X104910411Y-76193911D01*
X104907028Y-76189346D01*
X104906626Y-76183678D01*
X104887579Y-76145582D01*
X104881360Y-76140188D01*
X104878211Y-76132586D01*
X104859163Y-76113539D01*
X104851561Y-76110390D01*
X104846170Y-76104174D01*
X104808075Y-76085126D01*
X104796466Y-76084300D01*
X104785714Y-76079847D01*
X104747619Y-76079847D01*
X104736868Y-76084300D01*
X104725259Y-76085125D01*
X104687162Y-76104174D01*
X104681771Y-76110389D01*
X104674168Y-76113539D01*
X104655121Y-76132587D01*
X104651971Y-76140189D01*
X104645755Y-76145581D01*
X104626707Y-76183677D01*
X104626304Y-76189345D01*
X104622921Y-76193911D01*
X104603874Y-76270102D01*
X104604807Y-76276371D01*
X104602381Y-76282228D01*
X104602381Y-76377466D01*
X104530952Y-76377466D01*
X104530952Y-76129847D01*
X104516307Y-76094492D01*
X104480952Y-76079847D01*
X104328571Y-76079847D01*
X104317818Y-76084300D01*
X104306210Y-76085126D01*
X104268115Y-76104174D01*
X104262724Y-76110389D01*
X104255121Y-76113539D01*
X104236074Y-76132587D01*
X104232924Y-76140189D01*
X104226708Y-76145581D01*
X104207660Y-76183677D01*
X104206834Y-76195285D01*
X104202381Y-76206038D01*
X104202381Y-76263180D01*
X104145238Y-76263180D01*
X104145238Y-76022704D01*
X106072837Y-76022704D01*
X106072837Y-76636990D01*
G37*
D13*
X111149999Y-85387295D02*
X111149999Y-84587295D01*
X111149999Y-84587295D02*
X110876189Y-84587295D01*
X110876189Y-84587295D02*
X110711904Y-84625390D01*
X110711904Y-84625390D02*
X110602380Y-84701580D01*
X110602380Y-84701580D02*
X110547618Y-84777771D01*
X110547618Y-84777771D02*
X110492856Y-84930152D01*
X110492856Y-84930152D02*
X110492856Y-85044438D01*
X110492856Y-85044438D02*
X110547618Y-85196819D01*
X110547618Y-85196819D02*
X110602380Y-85273009D01*
X110602380Y-85273009D02*
X110711904Y-85349200D01*
X110711904Y-85349200D02*
X110876189Y-85387295D01*
X110876189Y-85387295D02*
X111149999Y-85387295D01*
X109999999Y-84968247D02*
X109616666Y-84968247D01*
X109452380Y-85387295D02*
X109999999Y-85387295D01*
X109999999Y-85387295D02*
X109999999Y-84587295D01*
X109999999Y-84587295D02*
X109452380Y-84587295D01*
X109014285Y-85349200D02*
X108849999Y-85387295D01*
X108849999Y-85387295D02*
X108576190Y-85387295D01*
X108576190Y-85387295D02*
X108466666Y-85349200D01*
X108466666Y-85349200D02*
X108411904Y-85311104D01*
X108411904Y-85311104D02*
X108357142Y-85234914D01*
X108357142Y-85234914D02*
X108357142Y-85158723D01*
X108357142Y-85158723D02*
X108411904Y-85082533D01*
X108411904Y-85082533D02*
X108466666Y-85044438D01*
X108466666Y-85044438D02*
X108576190Y-85006342D01*
X108576190Y-85006342D02*
X108795237Y-84968247D01*
X108795237Y-84968247D02*
X108904761Y-84930152D01*
X108904761Y-84930152D02*
X108959523Y-84892057D01*
X108959523Y-84892057D02*
X109014285Y-84815866D01*
X109014285Y-84815866D02*
X109014285Y-84739676D01*
X109014285Y-84739676D02*
X108959523Y-84663485D01*
X108959523Y-84663485D02*
X108904761Y-84625390D01*
X108904761Y-84625390D02*
X108795237Y-84587295D01*
X108795237Y-84587295D02*
X108521428Y-84587295D01*
X108521428Y-84587295D02*
X108357142Y-84625390D01*
X107864285Y-85387295D02*
X107864285Y-84587295D01*
X106714285Y-84625390D02*
X106823809Y-84587295D01*
X106823809Y-84587295D02*
X106988095Y-84587295D01*
X106988095Y-84587295D02*
X107152380Y-84625390D01*
X107152380Y-84625390D02*
X107261904Y-84701580D01*
X107261904Y-84701580D02*
X107316666Y-84777771D01*
X107316666Y-84777771D02*
X107371428Y-84930152D01*
X107371428Y-84930152D02*
X107371428Y-85044438D01*
X107371428Y-85044438D02*
X107316666Y-85196819D01*
X107316666Y-85196819D02*
X107261904Y-85273009D01*
X107261904Y-85273009D02*
X107152380Y-85349200D01*
X107152380Y-85349200D02*
X106988095Y-85387295D01*
X106988095Y-85387295D02*
X106878571Y-85387295D01*
X106878571Y-85387295D02*
X106714285Y-85349200D01*
X106714285Y-85349200D02*
X106659523Y-85311104D01*
X106659523Y-85311104D02*
X106659523Y-85044438D01*
X106659523Y-85044438D02*
X106878571Y-85044438D01*
X106166666Y-85387295D02*
X106166666Y-84587295D01*
X106166666Y-84587295D02*
X105509523Y-85387295D01*
X105509523Y-85387295D02*
X105509523Y-84587295D01*
X104961904Y-84968247D02*
X104578571Y-84968247D01*
X104414285Y-85387295D02*
X104961904Y-85387295D01*
X104961904Y-85387295D02*
X104961904Y-84587295D01*
X104961904Y-84587295D02*
X104414285Y-84587295D01*
X103921428Y-85387295D02*
X103921428Y-84587295D01*
X103921428Y-84587295D02*
X103647618Y-84587295D01*
X103647618Y-84587295D02*
X103483333Y-84625390D01*
X103483333Y-84625390D02*
X103373809Y-84701580D01*
X103373809Y-84701580D02*
X103319047Y-84777771D01*
X103319047Y-84777771D02*
X103264285Y-84930152D01*
X103264285Y-84930152D02*
X103264285Y-85044438D01*
X103264285Y-85044438D02*
X103319047Y-85196819D01*
X103319047Y-85196819D02*
X103373809Y-85273009D01*
X103373809Y-85273009D02*
X103483333Y-85349200D01*
X103483333Y-85349200D02*
X103647618Y-85387295D01*
X103647618Y-85387295D02*
X103921428Y-85387295D01*
X102004762Y-84587295D02*
X101730952Y-85387295D01*
X101730952Y-85387295D02*
X101511905Y-84815866D01*
X101511905Y-84815866D02*
X101292857Y-85387295D01*
X101292857Y-85387295D02*
X101019048Y-84587295D01*
X100580952Y-85387295D02*
X100580952Y-84587295D01*
X100197619Y-84587295D02*
X99540476Y-84587295D01*
X99869047Y-85387295D02*
X99869047Y-84587295D01*
X99157143Y-85387295D02*
X99157143Y-84587295D01*
X99157143Y-84968247D02*
X98500000Y-84968247D01*
X98500000Y-85387295D02*
X98500000Y-84587295D01*
D14*
G36*
X115947385Y-105287576D02*
G01*
X115939780Y-105302785D01*
X115934098Y-105308467D01*
X115918891Y-105316071D01*
X115850880Y-105316071D01*
X115835671Y-105308467D01*
X115829990Y-105302785D01*
X115822385Y-105287575D01*
X115822385Y-105248214D01*
X115947385Y-105248214D01*
X115947385Y-105287576D01*
G37*
G36*
X116065242Y-106991072D02*
G01*
X115604527Y-106991072D01*
X115604527Y-106825001D01*
X115647385Y-106825001D01*
X115651562Y-106835088D01*
X115653683Y-106845803D01*
X115656890Y-106847951D01*
X115658368Y-106851518D01*
X115668455Y-106855696D01*
X115677531Y-106861774D01*
X115681319Y-106861024D01*
X115684885Y-106862501D01*
X115947385Y-106862501D01*
X115947385Y-106910715D01*
X115958368Y-106937232D01*
X115984885Y-106948215D01*
X116011402Y-106937232D01*
X116022385Y-106910715D01*
X116022385Y-106739286D01*
X116011402Y-106712769D01*
X115984885Y-106701786D01*
X115958368Y-106712769D01*
X115947385Y-106739286D01*
X115947385Y-106787501D01*
X115786544Y-106787501D01*
X115789855Y-106784629D01*
X115804141Y-106756057D01*
X115806176Y-106727428D01*
X115787370Y-106705745D01*
X115758741Y-106703710D01*
X115737059Y-106722516D01*
X115725494Y-106745644D01*
X115703853Y-106767284D01*
X115664083Y-106793799D01*
X115661934Y-106797006D01*
X115658368Y-106798484D01*
X115654189Y-106808571D01*
X115648112Y-106817647D01*
X115648861Y-106821435D01*
X115647385Y-106825001D01*
X115604527Y-106825001D01*
X115604527Y-106567857D01*
X115747385Y-106567857D01*
X115750725Y-106575921D01*
X115751344Y-106584628D01*
X115765630Y-106613199D01*
X115774610Y-106620988D01*
X115782400Y-106629970D01*
X115810971Y-106644256D01*
X115819678Y-106644875D01*
X115827742Y-106648215D01*
X115984885Y-106648215D01*
X116011402Y-106637232D01*
X116022385Y-106610715D01*
X116011402Y-106584198D01*
X115984885Y-106573215D01*
X115836595Y-106573215D01*
X115827122Y-106568478D01*
X115822385Y-106559004D01*
X115822385Y-106533853D01*
X115829490Y-106519643D01*
X115984885Y-106519643D01*
X116011402Y-106508660D01*
X116022385Y-106482143D01*
X116011402Y-106455626D01*
X115984885Y-106444643D01*
X115784885Y-106444643D01*
X115758368Y-106455626D01*
X115747385Y-106482143D01*
X115755088Y-106500741D01*
X115751344Y-106508229D01*
X115750725Y-106516935D01*
X115747385Y-106525000D01*
X115747385Y-106567857D01*
X115604527Y-106567857D01*
X115604527Y-106339286D01*
X115647384Y-106339286D01*
X115658368Y-106365803D01*
X115672653Y-106380087D01*
X115672654Y-106380089D01*
X115699171Y-106391073D01*
X115725688Y-106380089D01*
X115739972Y-106365803D01*
X115739974Y-106365803D01*
X115749171Y-106343598D01*
X115758368Y-106365803D01*
X115784885Y-106376786D01*
X115984885Y-106376786D01*
X116011402Y-106365803D01*
X116022385Y-106339286D01*
X116011402Y-106312769D01*
X115984885Y-106301786D01*
X115784885Y-106301786D01*
X115758368Y-106312769D01*
X115749171Y-106334973D01*
X115739974Y-106312769D01*
X115739972Y-106312768D01*
X115725688Y-106298483D01*
X115699171Y-106287499D01*
X115672654Y-106298483D01*
X115672654Y-106298484D01*
X115658368Y-106312769D01*
X115647384Y-106339286D01*
X115604527Y-106339286D01*
X115604527Y-106196429D01*
X115647385Y-106196429D01*
X115650540Y-106204047D01*
X115650903Y-106212287D01*
X115655817Y-106216787D01*
X115658368Y-106222946D01*
X115665986Y-106226101D01*
X115672069Y-106231672D01*
X115678728Y-106231379D01*
X115684885Y-106233929D01*
X115984885Y-106233929D01*
X116011402Y-106222946D01*
X116022385Y-106196429D01*
X116011402Y-106169912D01*
X115984885Y-106158929D01*
X115853919Y-106158929D01*
X115915029Y-106130411D01*
X115923692Y-106120950D01*
X115933153Y-106112287D01*
X115933229Y-106110537D01*
X115934414Y-106109245D01*
X115933850Y-106096429D01*
X115934414Y-106083613D01*
X115933229Y-106082320D01*
X115933153Y-106080571D01*
X115923692Y-106071907D01*
X115915029Y-106062447D01*
X115853919Y-106033929D01*
X115984885Y-106033929D01*
X116011402Y-106022946D01*
X116022385Y-105996429D01*
X116011402Y-105969912D01*
X115984885Y-105958929D01*
X115684885Y-105958929D01*
X115678728Y-105961478D01*
X115672069Y-105961186D01*
X115665986Y-105966756D01*
X115658368Y-105969912D01*
X115655817Y-105976070D01*
X115650903Y-105980571D01*
X115650540Y-105988810D01*
X115647385Y-105996429D01*
X115649934Y-106002585D01*
X115649642Y-106009245D01*
X115655212Y-106015327D01*
X115658368Y-106022946D01*
X115664526Y-106025496D01*
X115669027Y-106030411D01*
X115810494Y-106096429D01*
X115669027Y-106162447D01*
X115664526Y-106167361D01*
X115658368Y-106169912D01*
X115655212Y-106177530D01*
X115649642Y-106183613D01*
X115649934Y-106190272D01*
X115647385Y-106196429D01*
X115604527Y-106196429D01*
X115604527Y-105825001D01*
X115747385Y-105825001D01*
X115750725Y-105833065D01*
X115751344Y-105841772D01*
X115765630Y-105870343D01*
X115787313Y-105889149D01*
X115815942Y-105887113D01*
X115834748Y-105865431D01*
X115832712Y-105836801D01*
X115822385Y-105816147D01*
X115822385Y-105790997D01*
X115827122Y-105781522D01*
X115834885Y-105777641D01*
X115842649Y-105781523D01*
X115847385Y-105790995D01*
X115847385Y-105825001D01*
X115850725Y-105833065D01*
X115851344Y-105841772D01*
X115865630Y-105870343D01*
X115874612Y-105878133D01*
X115882400Y-105887113D01*
X115910971Y-105901399D01*
X115919678Y-105902018D01*
X115927742Y-105905358D01*
X115942028Y-105905358D01*
X115950092Y-105902017D01*
X115958799Y-105901399D01*
X115987370Y-105887113D01*
X115995159Y-105878131D01*
X116004141Y-105870342D01*
X116018426Y-105841771D01*
X116019044Y-105833065D01*
X116022385Y-105825001D01*
X116022385Y-105767858D01*
X116019044Y-105759793D01*
X116018426Y-105751088D01*
X116004141Y-105722516D01*
X115982460Y-105703710D01*
X115953830Y-105705745D01*
X115935024Y-105727426D01*
X115937059Y-105756056D01*
X115947385Y-105776709D01*
X115947385Y-105816149D01*
X115942649Y-105825620D01*
X115934885Y-105829502D01*
X115927121Y-105825621D01*
X115922385Y-105816147D01*
X115922385Y-105782144D01*
X115919044Y-105774079D01*
X115918426Y-105765374D01*
X115904141Y-105736802D01*
X115895158Y-105729010D01*
X115887370Y-105720031D01*
X115858799Y-105705745D01*
X115850092Y-105705126D01*
X115842028Y-105701786D01*
X115827742Y-105701786D01*
X115819678Y-105705125D01*
X115810971Y-105705745D01*
X115782400Y-105720031D01*
X115774610Y-105729012D01*
X115765630Y-105736802D01*
X115751344Y-105765373D01*
X115750725Y-105774079D01*
X115747385Y-105782144D01*
X115747385Y-105825001D01*
X115604527Y-105825001D01*
X115604527Y-105610715D01*
X115747385Y-105610715D01*
X115758368Y-105637232D01*
X115784885Y-105648215D01*
X115956312Y-105648215D01*
X115956314Y-105648216D01*
X115956316Y-105648215D01*
X115984885Y-105648215D01*
X116011402Y-105637232D01*
X116022385Y-105610715D01*
X116014681Y-105592116D01*
X116018426Y-105584627D01*
X116019044Y-105575921D01*
X116022385Y-105567857D01*
X116022385Y-105525000D01*
X116019044Y-105516935D01*
X116018426Y-105508230D01*
X116004141Y-105479659D01*
X115995159Y-105471869D01*
X115987370Y-105462888D01*
X115958799Y-105448602D01*
X115950092Y-105447983D01*
X115942028Y-105444643D01*
X115784885Y-105444643D01*
X115758368Y-105455626D01*
X115747385Y-105482143D01*
X115758368Y-105508660D01*
X115784885Y-105519643D01*
X115933175Y-105519643D01*
X115942649Y-105524380D01*
X115947385Y-105533851D01*
X115947385Y-105559005D01*
X115940281Y-105573215D01*
X115784885Y-105573215D01*
X115758368Y-105584198D01*
X115747385Y-105610715D01*
X115604527Y-105610715D01*
X115604527Y-105210714D01*
X115647385Y-105210714D01*
X115658368Y-105237231D01*
X115684885Y-105248214D01*
X115747385Y-105248214D01*
X115747385Y-105296428D01*
X115750725Y-105304492D01*
X115751344Y-105313199D01*
X115765630Y-105341770D01*
X115770291Y-105345812D01*
X115772654Y-105351517D01*
X115786940Y-105365802D01*
X115792642Y-105368164D01*
X115796687Y-105372827D01*
X115825258Y-105387112D01*
X115833963Y-105387730D01*
X115842028Y-105391071D01*
X115927742Y-105391071D01*
X115935806Y-105387730D01*
X115944512Y-105387112D01*
X115973084Y-105372827D01*
X115977127Y-105368165D01*
X115982831Y-105365803D01*
X115997116Y-105351517D01*
X115999478Y-105345814D01*
X116004141Y-105341770D01*
X116018426Y-105313198D01*
X116019044Y-105304492D01*
X116022385Y-105296428D01*
X116022385Y-105239286D01*
X116019044Y-105231221D01*
X116018426Y-105222516D01*
X116017917Y-105221499D01*
X116022385Y-105210714D01*
X116011402Y-105184197D01*
X115984885Y-105173214D01*
X115684885Y-105173214D01*
X115658368Y-105184197D01*
X115647385Y-105210714D01*
X115604527Y-105210714D01*
X115604527Y-105122573D01*
X115649309Y-105122573D01*
X115668114Y-105144256D01*
X115696744Y-105146290D01*
X115996744Y-105046290D01*
X115998860Y-105044454D01*
X116001656Y-105044256D01*
X116009445Y-105035274D01*
X116018427Y-105027485D01*
X116018625Y-105024689D01*
X116020461Y-105022573D01*
X116019618Y-105010714D01*
X116020461Y-104998855D01*
X116018625Y-104996738D01*
X116018427Y-104993943D01*
X116009445Y-104986153D01*
X116001656Y-104977172D01*
X115998860Y-104976973D01*
X115996744Y-104975138D01*
X115696744Y-104875138D01*
X115668114Y-104877172D01*
X115649309Y-104898855D01*
X115651343Y-104927485D01*
X115673026Y-104946290D01*
X115866298Y-105010714D01*
X115673026Y-105075138D01*
X115651343Y-105093943D01*
X115649309Y-105122573D01*
X115604527Y-105122573D01*
X115604527Y-104832281D01*
X116065242Y-104832281D01*
X116065242Y-106991072D01*
G37*
G36*
X122176690Y-106096186D02*
G01*
X122172385Y-106087575D01*
X122172385Y-106048139D01*
X122177122Y-106038664D01*
X122186595Y-106033928D01*
X122189142Y-106033928D01*
X122176690Y-106096186D01*
G37*
G36*
X122292649Y-105338665D02*
G01*
X122297385Y-105348137D01*
X122297385Y-105401786D01*
X122258100Y-105401786D01*
X122258100Y-105348137D01*
X122262835Y-105338664D01*
X122272309Y-105333928D01*
X122283175Y-105333928D01*
X122292649Y-105338665D01*
G37*
G36*
X122284099Y-105070104D02*
G01*
X122289781Y-105075785D01*
X122297385Y-105090993D01*
X122297385Y-105116147D01*
X122289780Y-105131356D01*
X122284098Y-105137038D01*
X122268891Y-105144642D01*
X122200880Y-105144642D01*
X122185671Y-105137038D01*
X122179990Y-105131356D01*
X122172385Y-105116146D01*
X122172385Y-105090995D01*
X122179990Y-105075785D01*
X122185670Y-105070104D01*
X122200881Y-105062499D01*
X122268889Y-105062499D01*
X122284099Y-105070104D01*
G37*
G36*
X122415242Y-106505357D02*
G01*
X121954528Y-106505357D01*
X121954528Y-106339286D01*
X121997385Y-106339286D01*
X122001562Y-106349373D01*
X122003683Y-106360088D01*
X122006890Y-106362236D01*
X122008368Y-106365803D01*
X122018455Y-106369981D01*
X122027531Y-106376059D01*
X122031319Y-106375309D01*
X122034885Y-106376786D01*
X122297385Y-106376786D01*
X122297385Y-106425000D01*
X122308368Y-106451517D01*
X122334885Y-106462500D01*
X122361402Y-106451517D01*
X122372385Y-106425000D01*
X122372385Y-106253571D01*
X122361402Y-106227054D01*
X122334885Y-106216071D01*
X122308368Y-106227054D01*
X122297385Y-106253571D01*
X122297385Y-106301786D01*
X122136544Y-106301786D01*
X122139855Y-106298914D01*
X122154141Y-106270342D01*
X122156176Y-106241713D01*
X122137370Y-106220030D01*
X122108741Y-106217995D01*
X122087059Y-106236801D01*
X122075494Y-106259929D01*
X122053853Y-106281569D01*
X122014083Y-106308084D01*
X122011934Y-106311291D01*
X122008368Y-106312769D01*
X122004189Y-106322856D01*
X121998112Y-106331932D01*
X121998861Y-106335720D01*
X121997385Y-106339286D01*
X121954528Y-106339286D01*
X121954528Y-106096428D01*
X122097385Y-106096428D01*
X122100725Y-106104492D01*
X122101344Y-106113199D01*
X122115630Y-106141770D01*
X122124610Y-106149559D01*
X122132400Y-106158541D01*
X122160971Y-106172827D01*
X122169678Y-106173446D01*
X122177742Y-106176786D01*
X122206314Y-106176786D01*
X122216402Y-106172607D01*
X122227116Y-106170488D01*
X122229263Y-106167280D01*
X122232831Y-106165803D01*
X122237010Y-106155713D01*
X122243086Y-106146640D01*
X122265628Y-106033928D01*
X122283175Y-106033928D01*
X122292649Y-106038665D01*
X122297385Y-106048137D01*
X122297385Y-106087576D01*
X122287059Y-106108230D01*
X122285024Y-106136860D01*
X122303830Y-106158541D01*
X122332460Y-106160576D01*
X122354141Y-106141770D01*
X122368426Y-106113198D01*
X122369044Y-106104492D01*
X122372385Y-106096428D01*
X122372385Y-106039286D01*
X122369044Y-106031221D01*
X122368426Y-106022516D01*
X122354141Y-105993944D01*
X122345158Y-105986152D01*
X122337370Y-105977173D01*
X122308799Y-105962887D01*
X122300092Y-105962268D01*
X122292028Y-105958928D01*
X122177742Y-105958928D01*
X122169678Y-105962267D01*
X122160971Y-105962887D01*
X122132400Y-105977173D01*
X122124610Y-105986154D01*
X122115630Y-105993944D01*
X122101344Y-106022515D01*
X122100725Y-106031221D01*
X122097385Y-106039286D01*
X122097385Y-106096428D01*
X121954528Y-106096428D01*
X121954528Y-105839286D01*
X122097385Y-105839286D01*
X122100725Y-105847350D01*
X122101344Y-105856057D01*
X122115630Y-105884628D01*
X122137313Y-105903434D01*
X122165942Y-105901398D01*
X122184748Y-105879716D01*
X122182712Y-105851086D01*
X122172385Y-105830432D01*
X122172385Y-105805282D01*
X122177122Y-105795807D01*
X122184885Y-105791926D01*
X122192649Y-105795808D01*
X122197385Y-105805280D01*
X122197385Y-105839286D01*
X122200725Y-105847350D01*
X122201344Y-105856057D01*
X122215630Y-105884628D01*
X122224612Y-105892418D01*
X122232400Y-105901398D01*
X122260971Y-105915684D01*
X122269678Y-105916303D01*
X122277742Y-105919643D01*
X122292028Y-105919643D01*
X122300092Y-105916302D01*
X122308799Y-105915684D01*
X122337370Y-105901398D01*
X122345159Y-105892416D01*
X122354141Y-105884627D01*
X122368426Y-105856056D01*
X122369044Y-105847350D01*
X122372385Y-105839286D01*
X122372385Y-105782143D01*
X122369044Y-105774078D01*
X122368426Y-105765373D01*
X122354141Y-105736801D01*
X122332460Y-105717995D01*
X122303830Y-105720030D01*
X122285024Y-105741711D01*
X122287059Y-105770341D01*
X122297385Y-105790994D01*
X122297385Y-105830434D01*
X122292649Y-105839905D01*
X122284885Y-105843787D01*
X122277121Y-105839906D01*
X122272385Y-105830432D01*
X122272385Y-105796429D01*
X122269044Y-105788364D01*
X122268426Y-105779659D01*
X122254141Y-105751087D01*
X122245158Y-105743295D01*
X122237370Y-105734316D01*
X122208799Y-105720030D01*
X122200092Y-105719411D01*
X122192028Y-105716071D01*
X122177742Y-105716071D01*
X122169678Y-105719410D01*
X122160971Y-105720030D01*
X122132400Y-105734316D01*
X122124610Y-105743297D01*
X122115630Y-105751087D01*
X122101344Y-105779658D01*
X122100725Y-105788364D01*
X122097385Y-105796429D01*
X122097385Y-105839286D01*
X121954528Y-105839286D01*
X121954528Y-105667857D01*
X122097385Y-105667857D01*
X122108368Y-105694374D01*
X122134885Y-105705357D01*
X122161402Y-105694374D01*
X122172385Y-105667857D01*
X122172385Y-105648139D01*
X122179990Y-105632929D01*
X122185670Y-105627248D01*
X122200881Y-105619643D01*
X122334885Y-105619643D01*
X122361402Y-105608660D01*
X122372385Y-105582143D01*
X122361402Y-105555626D01*
X122334885Y-105544643D01*
X122134885Y-105544643D01*
X122108368Y-105555626D01*
X122097385Y-105582143D01*
X122108324Y-105608554D01*
X122101344Y-105622515D01*
X122100725Y-105631221D01*
X122097385Y-105639286D01*
X122097385Y-105667857D01*
X121954528Y-105667857D01*
X121954528Y-105396428D01*
X122097385Y-105396428D01*
X122100725Y-105404492D01*
X122101344Y-105413199D01*
X122115630Y-105441770D01*
X122124610Y-105449559D01*
X122132400Y-105458541D01*
X122160971Y-105472827D01*
X122169678Y-105473446D01*
X122177742Y-105476786D01*
X122334885Y-105476786D01*
X122361402Y-105465803D01*
X122372385Y-105439286D01*
X122367917Y-105428500D01*
X122368426Y-105427484D01*
X122369044Y-105418778D01*
X122372385Y-105410714D01*
X122372385Y-105339286D01*
X122369044Y-105331221D01*
X122368426Y-105322516D01*
X122354141Y-105293944D01*
X122345158Y-105286152D01*
X122337370Y-105277173D01*
X122308799Y-105262887D01*
X122300092Y-105262268D01*
X122292028Y-105258928D01*
X122263457Y-105258928D01*
X122255392Y-105262268D01*
X122246686Y-105262887D01*
X122218114Y-105277173D01*
X122210324Y-105286154D01*
X122201344Y-105293944D01*
X122187059Y-105322516D01*
X122186440Y-105331221D01*
X122183100Y-105339286D01*
X122183100Y-105400038D01*
X122177122Y-105397049D01*
X122172385Y-105387575D01*
X122172385Y-105348139D01*
X122182712Y-105327485D01*
X122184747Y-105298856D01*
X122165941Y-105277173D01*
X122137312Y-105275138D01*
X122115630Y-105293944D01*
X122101344Y-105322515D01*
X122100725Y-105331221D01*
X122097385Y-105339286D01*
X122097385Y-105396428D01*
X121954528Y-105396428D01*
X121954528Y-105124999D01*
X122097385Y-105124999D01*
X122100725Y-105133063D01*
X122101344Y-105141770D01*
X122115630Y-105170341D01*
X122120291Y-105174383D01*
X122122654Y-105180088D01*
X122136940Y-105194373D01*
X122142642Y-105196735D01*
X122146687Y-105201398D01*
X122175258Y-105215683D01*
X122183963Y-105216301D01*
X122192028Y-105219642D01*
X122277742Y-105219642D01*
X122285806Y-105216301D01*
X122294512Y-105215683D01*
X122323084Y-105201398D01*
X122327127Y-105196736D01*
X122332831Y-105194374D01*
X122347116Y-105180088D01*
X122349478Y-105174385D01*
X122354141Y-105170341D01*
X122368426Y-105141769D01*
X122369044Y-105133063D01*
X122372385Y-105124999D01*
X122372385Y-105082142D01*
X122369044Y-105074077D01*
X122368426Y-105065372D01*
X122354141Y-105036801D01*
X122349478Y-105032756D01*
X122347116Y-105027054D01*
X122332831Y-105012768D01*
X122327126Y-105010405D01*
X122323084Y-105005744D01*
X122294513Y-104991458D01*
X122285806Y-104990839D01*
X122277742Y-104987499D01*
X122192028Y-104987499D01*
X122183964Y-104990838D01*
X122175257Y-104991458D01*
X122146686Y-105005744D01*
X122142641Y-105010407D01*
X122136940Y-105012769D01*
X122122654Y-105027054D01*
X122120291Y-105032756D01*
X122115630Y-105036800D01*
X122101344Y-105065371D01*
X122100725Y-105074077D01*
X122097385Y-105082142D01*
X122097385Y-105124999D01*
X121954528Y-105124999D01*
X121954528Y-104853571D01*
X121997385Y-104853571D01*
X121999746Y-104859272D01*
X121999309Y-104865430D01*
X122013595Y-104908286D01*
X122019312Y-104914878D01*
X122022654Y-104922945D01*
X122036940Y-104937230D01*
X122063457Y-104948214D01*
X122089973Y-104937230D01*
X122100957Y-104910714D01*
X122089973Y-104884197D01*
X122081946Y-104876169D01*
X122072385Y-104847484D01*
X122072385Y-104831085D01*
X122081946Y-104802400D01*
X122099955Y-104784390D01*
X122119403Y-104774666D01*
X122168073Y-104762499D01*
X122201699Y-104762499D01*
X122250365Y-104774665D01*
X122269815Y-104784390D01*
X122287823Y-104802398D01*
X122297385Y-104831084D01*
X122297385Y-104847485D01*
X122287823Y-104876171D01*
X122279797Y-104884197D01*
X122268813Y-104910714D01*
X122279797Y-104937231D01*
X122306314Y-104948215D01*
X122332831Y-104937231D01*
X122347116Y-104922945D01*
X122350456Y-104914881D01*
X122356176Y-104908286D01*
X122370461Y-104865429D01*
X122370023Y-104859272D01*
X122372385Y-104853571D01*
X122372385Y-104824999D01*
X122370023Y-104819297D01*
X122370461Y-104813141D01*
X122356176Y-104770284D01*
X122350457Y-104763689D01*
X122347116Y-104755625D01*
X122318544Y-104727054D01*
X122312842Y-104724692D01*
X122308799Y-104720030D01*
X122280228Y-104705744D01*
X122275976Y-104705441D01*
X122272553Y-104702905D01*
X122215409Y-104688619D01*
X122210706Y-104689318D01*
X122206314Y-104687499D01*
X122163457Y-104687499D01*
X122159064Y-104689318D01*
X122154362Y-104688619D01*
X122097219Y-104702905D01*
X122093794Y-104705441D01*
X122089543Y-104705744D01*
X122060971Y-104720030D01*
X122056926Y-104724693D01*
X122051225Y-104727055D01*
X122022654Y-104755625D01*
X122019312Y-104763691D01*
X122013595Y-104770284D01*
X121999309Y-104813140D01*
X121999746Y-104819297D01*
X121997385Y-104824999D01*
X121997385Y-104853571D01*
X121954528Y-104853571D01*
X121954528Y-104644642D01*
X122415242Y-104644642D01*
X122415242Y-106505357D01*
G37*
G36*
X121347385Y-96991147D02*
G01*
X121339780Y-97006356D01*
X121334098Y-97012038D01*
X121318891Y-97019642D01*
X121250880Y-97019642D01*
X121235671Y-97012038D01*
X121229990Y-97006356D01*
X121222385Y-96991146D01*
X121222385Y-96951785D01*
X121347385Y-96951785D01*
X121347385Y-96991147D01*
G37*
G36*
X121465242Y-97937500D02*
G01*
X121004528Y-97937500D01*
X121004528Y-97771429D01*
X121047385Y-97771429D01*
X121051562Y-97781516D01*
X121053683Y-97792231D01*
X121056890Y-97794379D01*
X121058368Y-97797946D01*
X121068455Y-97802124D01*
X121077531Y-97808202D01*
X121081319Y-97807452D01*
X121084885Y-97808929D01*
X121347385Y-97808929D01*
X121347385Y-97857143D01*
X121358368Y-97883660D01*
X121384885Y-97894643D01*
X121411402Y-97883660D01*
X121422385Y-97857143D01*
X121422385Y-97685714D01*
X121411402Y-97659197D01*
X121384885Y-97648214D01*
X121358368Y-97659197D01*
X121347385Y-97685714D01*
X121347385Y-97733929D01*
X121186544Y-97733929D01*
X121189855Y-97731057D01*
X121204141Y-97702485D01*
X121206176Y-97673856D01*
X121187370Y-97652173D01*
X121158741Y-97650138D01*
X121137059Y-97668944D01*
X121125494Y-97692072D01*
X121103853Y-97713712D01*
X121064083Y-97740227D01*
X121061934Y-97743434D01*
X121058368Y-97744912D01*
X121054189Y-97754999D01*
X121048112Y-97764075D01*
X121048861Y-97767863D01*
X121047385Y-97771429D01*
X121004528Y-97771429D01*
X121004528Y-97528572D01*
X121147385Y-97528572D01*
X121150725Y-97536636D01*
X121151344Y-97545343D01*
X121165630Y-97573914D01*
X121187313Y-97592720D01*
X121215942Y-97590684D01*
X121234748Y-97569002D01*
X121232712Y-97540372D01*
X121222385Y-97519718D01*
X121222385Y-97494568D01*
X121227122Y-97485093D01*
X121234885Y-97481212D01*
X121242649Y-97485094D01*
X121247385Y-97494566D01*
X121247385Y-97528572D01*
X121250725Y-97536636D01*
X121251344Y-97545343D01*
X121265630Y-97573914D01*
X121274612Y-97581704D01*
X121282400Y-97590684D01*
X121310971Y-97604970D01*
X121319678Y-97605589D01*
X121327742Y-97608929D01*
X121342028Y-97608929D01*
X121350092Y-97605588D01*
X121358799Y-97604970D01*
X121387370Y-97590684D01*
X121395159Y-97581702D01*
X121404141Y-97573913D01*
X121418426Y-97545342D01*
X121419044Y-97536636D01*
X121422385Y-97528572D01*
X121422385Y-97471429D01*
X121419044Y-97463364D01*
X121418426Y-97454659D01*
X121404141Y-97426087D01*
X121382460Y-97407281D01*
X121353830Y-97409316D01*
X121335024Y-97430997D01*
X121337059Y-97459627D01*
X121347385Y-97480280D01*
X121347385Y-97519720D01*
X121342649Y-97529191D01*
X121334885Y-97533073D01*
X121327121Y-97529192D01*
X121322385Y-97519718D01*
X121322385Y-97485715D01*
X121319044Y-97477650D01*
X121318426Y-97468945D01*
X121304141Y-97440373D01*
X121295158Y-97432581D01*
X121287370Y-97423602D01*
X121258799Y-97409316D01*
X121250092Y-97408697D01*
X121242028Y-97405357D01*
X121227742Y-97405357D01*
X121219678Y-97408696D01*
X121210971Y-97409316D01*
X121182400Y-97423602D01*
X121174610Y-97432583D01*
X121165630Y-97440373D01*
X121151344Y-97468944D01*
X121150725Y-97477650D01*
X121147385Y-97485715D01*
X121147385Y-97528572D01*
X121004528Y-97528572D01*
X121004528Y-97314286D01*
X121147385Y-97314286D01*
X121158368Y-97340803D01*
X121184885Y-97351786D01*
X121356312Y-97351786D01*
X121356314Y-97351787D01*
X121356316Y-97351786D01*
X121384885Y-97351786D01*
X121411402Y-97340803D01*
X121422385Y-97314286D01*
X121414681Y-97295687D01*
X121418426Y-97288198D01*
X121419044Y-97279492D01*
X121422385Y-97271428D01*
X121422385Y-97228571D01*
X121419044Y-97220506D01*
X121418426Y-97211801D01*
X121404141Y-97183230D01*
X121395159Y-97175440D01*
X121387370Y-97166459D01*
X121358799Y-97152173D01*
X121350092Y-97151554D01*
X121342028Y-97148214D01*
X121184885Y-97148214D01*
X121158368Y-97159197D01*
X121147385Y-97185714D01*
X121158368Y-97212231D01*
X121184885Y-97223214D01*
X121333175Y-97223214D01*
X121342649Y-97227951D01*
X121347385Y-97237422D01*
X121347385Y-97262576D01*
X121340281Y-97276786D01*
X121184885Y-97276786D01*
X121158368Y-97287769D01*
X121147385Y-97314286D01*
X121004528Y-97314286D01*
X121004528Y-96914285D01*
X121047385Y-96914285D01*
X121058368Y-96940802D01*
X121084885Y-96951785D01*
X121147385Y-96951785D01*
X121147385Y-96999999D01*
X121150725Y-97008063D01*
X121151344Y-97016770D01*
X121165630Y-97045341D01*
X121170291Y-97049383D01*
X121172654Y-97055088D01*
X121186940Y-97069373D01*
X121192642Y-97071735D01*
X121196687Y-97076398D01*
X121225258Y-97090683D01*
X121233963Y-97091301D01*
X121242028Y-97094642D01*
X121327742Y-97094642D01*
X121335806Y-97091301D01*
X121344512Y-97090683D01*
X121373084Y-97076398D01*
X121377127Y-97071736D01*
X121382831Y-97069374D01*
X121397116Y-97055088D01*
X121399478Y-97049385D01*
X121404141Y-97045341D01*
X121418426Y-97016769D01*
X121419044Y-97008063D01*
X121422385Y-96999999D01*
X121422385Y-96942857D01*
X121419044Y-96934792D01*
X121418426Y-96926087D01*
X121417917Y-96925070D01*
X121422385Y-96914285D01*
X121411402Y-96887768D01*
X121384885Y-96876785D01*
X121084885Y-96876785D01*
X121058368Y-96887768D01*
X121047385Y-96914285D01*
X121004528Y-96914285D01*
X121004528Y-96826144D01*
X121049309Y-96826144D01*
X121068114Y-96847827D01*
X121096744Y-96849861D01*
X121396744Y-96749861D01*
X121398860Y-96748025D01*
X121401656Y-96747827D01*
X121409445Y-96738845D01*
X121418427Y-96731056D01*
X121418625Y-96728260D01*
X121420461Y-96726144D01*
X121419618Y-96714285D01*
X121420461Y-96702426D01*
X121418625Y-96700309D01*
X121418427Y-96697514D01*
X121409445Y-96689724D01*
X121401656Y-96680743D01*
X121398860Y-96680544D01*
X121396744Y-96678709D01*
X121096744Y-96578709D01*
X121068114Y-96580743D01*
X121049309Y-96602426D01*
X121051343Y-96631056D01*
X121073026Y-96649861D01*
X121266298Y-96714285D01*
X121073026Y-96778709D01*
X121051343Y-96797514D01*
X121049309Y-96826144D01*
X121004528Y-96826144D01*
X121004528Y-96535852D01*
X121465242Y-96535852D01*
X121465242Y-97937500D01*
G37*
G36*
X118057762Y-105562835D02*
G01*
X118062499Y-105572309D01*
X118062499Y-105583175D01*
X118057762Y-105592649D01*
X118048290Y-105597385D01*
X117994642Y-105597385D01*
X117994642Y-105558100D01*
X118048290Y-105558100D01*
X118057762Y-105562835D01*
G37*
G36*
X119176785Y-105597385D02*
G01*
X119137422Y-105597385D01*
X119122213Y-105589780D01*
X119116534Y-105584101D01*
X119108928Y-105568889D01*
X119108928Y-105500881D01*
X119116534Y-105485669D01*
X119122212Y-105479990D01*
X119137423Y-105472385D01*
X119176785Y-105472385D01*
X119176785Y-105597385D01*
G37*
G36*
X119592718Y-105715242D02*
G01*
X117333927Y-105715242D01*
X117333927Y-105634885D01*
X117376784Y-105634885D01*
X117387767Y-105661402D01*
X117414284Y-105672385D01*
X117499998Y-105672385D01*
X117585713Y-105672385D01*
X117612230Y-105661402D01*
X117621362Y-105639353D01*
X117648479Y-105639353D01*
X117662545Y-105664372D01*
X117690181Y-105672119D01*
X117715200Y-105658053D01*
X117764284Y-105595582D01*
X117813368Y-105658053D01*
X117838387Y-105672118D01*
X117866023Y-105664372D01*
X117880088Y-105639353D01*
X117878836Y-105634885D01*
X117919642Y-105634885D01*
X117930625Y-105661402D01*
X117957142Y-105672385D01*
X117967926Y-105667918D01*
X117968943Y-105668426D01*
X117977648Y-105669044D01*
X117985713Y-105672385D01*
X118057142Y-105672385D01*
X118065206Y-105669044D01*
X118073912Y-105668426D01*
X118102483Y-105654141D01*
X118110270Y-105645162D01*
X118119254Y-105637371D01*
X118120497Y-105634885D01*
X118191070Y-105634885D01*
X118202053Y-105661402D01*
X118228570Y-105672385D01*
X118255087Y-105661402D01*
X118266070Y-105634885D01*
X118266070Y-105503918D01*
X118294588Y-105565029D01*
X118304048Y-105573692D01*
X118312712Y-105583153D01*
X118314461Y-105583229D01*
X118315754Y-105584414D01*
X118328570Y-105583850D01*
X118341386Y-105584414D01*
X118342678Y-105583229D01*
X118344428Y-105583153D01*
X118353091Y-105573692D01*
X118362552Y-105565029D01*
X118391070Y-105503918D01*
X118391070Y-105634885D01*
X118402053Y-105661402D01*
X118428570Y-105672385D01*
X118455087Y-105661402D01*
X118466070Y-105634885D01*
X118466070Y-105592028D01*
X118519641Y-105592028D01*
X118522981Y-105600092D01*
X118523600Y-105608799D01*
X118537886Y-105637370D01*
X118546867Y-105645159D01*
X118554657Y-105654141D01*
X118583228Y-105668426D01*
X118591933Y-105669044D01*
X118599998Y-105672385D01*
X118657141Y-105672385D01*
X118665205Y-105669044D01*
X118673911Y-105668426D01*
X118702483Y-105654141D01*
X118721289Y-105632460D01*
X118719430Y-105606313D01*
X118776784Y-105606313D01*
X118776785Y-105606315D01*
X118776785Y-105634885D01*
X118787768Y-105661402D01*
X118814285Y-105672385D01*
X118832883Y-105664681D01*
X118840372Y-105668426D01*
X118849077Y-105669044D01*
X118857142Y-105672385D01*
X118899999Y-105672385D01*
X118908063Y-105669044D01*
X118916769Y-105668426D01*
X118945340Y-105654141D01*
X118953127Y-105645162D01*
X118962111Y-105637371D01*
X118976397Y-105608799D01*
X118977015Y-105600092D01*
X118980356Y-105592028D01*
X118980356Y-105577742D01*
X119033928Y-105577742D01*
X119037268Y-105585806D01*
X119037887Y-105594513D01*
X119052173Y-105623084D01*
X119056834Y-105627127D01*
X119059197Y-105632830D01*
X119073482Y-105647116D01*
X119079184Y-105649478D01*
X119083229Y-105654141D01*
X119111801Y-105668426D01*
X119120506Y-105669044D01*
X119128571Y-105672385D01*
X119185714Y-105672385D01*
X119193778Y-105669044D01*
X119202484Y-105668426D01*
X119203500Y-105667918D01*
X119214285Y-105672385D01*
X119240802Y-105661402D01*
X119251785Y-105634885D01*
X119251785Y-105346744D01*
X119278709Y-105346744D01*
X119378709Y-105646744D01*
X119380544Y-105648860D01*
X119380743Y-105651656D01*
X119389724Y-105659445D01*
X119397514Y-105668427D01*
X119400309Y-105668625D01*
X119402426Y-105670461D01*
X119414285Y-105669618D01*
X119426144Y-105670461D01*
X119428260Y-105668625D01*
X119431056Y-105668427D01*
X119438845Y-105659445D01*
X119447827Y-105651656D01*
X119448025Y-105648860D01*
X119449861Y-105646744D01*
X119549861Y-105346743D01*
X119547827Y-105318114D01*
X119526144Y-105299309D01*
X119497514Y-105301343D01*
X119478709Y-105323026D01*
X119414284Y-105516298D01*
X119349861Y-105323026D01*
X119331056Y-105301343D01*
X119302426Y-105299309D01*
X119280743Y-105318114D01*
X119278709Y-105346744D01*
X119251785Y-105346744D01*
X119251785Y-105334885D01*
X119240802Y-105308368D01*
X119214285Y-105297385D01*
X119187768Y-105308368D01*
X119176785Y-105334885D01*
X119176785Y-105397385D01*
X119128571Y-105397385D01*
X119120506Y-105400725D01*
X119111800Y-105401344D01*
X119083228Y-105415630D01*
X119079183Y-105420292D01*
X119073482Y-105422655D01*
X119059197Y-105436941D01*
X119056835Y-105442642D01*
X119052173Y-105446686D01*
X119037887Y-105475257D01*
X119037268Y-105483963D01*
X119033928Y-105492028D01*
X119033928Y-105577742D01*
X118980356Y-105577742D01*
X118980356Y-105434885D01*
X118969373Y-105408368D01*
X118942856Y-105397385D01*
X118916339Y-105408368D01*
X118905356Y-105434885D01*
X118905356Y-105583175D01*
X118900619Y-105592649D01*
X118891147Y-105597385D01*
X118865993Y-105597385D01*
X118851785Y-105590281D01*
X118851785Y-105434885D01*
X118840802Y-105408368D01*
X118814285Y-105397385D01*
X118787768Y-105408368D01*
X118776785Y-105434885D01*
X118776785Y-105606310D01*
X118776784Y-105606313D01*
X118719430Y-105606313D01*
X118719254Y-105603830D01*
X118697573Y-105585024D01*
X118668943Y-105587059D01*
X118648290Y-105597385D01*
X118608850Y-105597385D01*
X118599378Y-105592649D01*
X118595496Y-105584885D01*
X118599377Y-105577121D01*
X118608851Y-105572385D01*
X118642856Y-105572385D01*
X118650920Y-105569044D01*
X118659626Y-105568426D01*
X118688197Y-105554141D01*
X118695984Y-105545162D01*
X118704968Y-105537371D01*
X118719254Y-105508799D01*
X118719872Y-105500092D01*
X118723213Y-105492028D01*
X118723213Y-105477742D01*
X118719873Y-105469678D01*
X118719254Y-105460971D01*
X118704968Y-105432400D01*
X118695988Y-105424612D01*
X118688198Y-105415630D01*
X118659627Y-105401344D01*
X118650920Y-105400725D01*
X118642856Y-105397385D01*
X118599998Y-105397385D01*
X118591934Y-105400724D01*
X118583227Y-105401344D01*
X118554656Y-105415630D01*
X118535851Y-105437313D01*
X118537886Y-105465942D01*
X118559569Y-105484747D01*
X118588198Y-105482712D01*
X118608851Y-105472385D01*
X118634003Y-105472385D01*
X118643476Y-105477121D01*
X118647358Y-105484885D01*
X118643476Y-105492649D01*
X118634004Y-105497385D01*
X118599998Y-105497385D01*
X118591934Y-105500724D01*
X118583227Y-105501344D01*
X118554656Y-105515630D01*
X118546868Y-105524609D01*
X118537886Y-105532400D01*
X118523600Y-105560971D01*
X118522981Y-105569677D01*
X118519641Y-105577742D01*
X118519641Y-105592028D01*
X118466070Y-105592028D01*
X118466070Y-105334885D01*
X118463520Y-105328728D01*
X118463813Y-105322069D01*
X118458242Y-105315986D01*
X118455087Y-105308368D01*
X118448928Y-105305817D01*
X118444428Y-105300903D01*
X118436188Y-105300540D01*
X118428570Y-105297385D01*
X118422413Y-105299934D01*
X118415754Y-105299642D01*
X118409671Y-105305212D01*
X118402053Y-105308368D01*
X118399502Y-105314526D01*
X118394588Y-105319027D01*
X118328570Y-105460494D01*
X118262552Y-105319027D01*
X118257637Y-105314526D01*
X118255087Y-105308368D01*
X118247468Y-105305212D01*
X118241386Y-105299642D01*
X118234726Y-105299934D01*
X118228570Y-105297385D01*
X118220951Y-105300540D01*
X118212712Y-105300903D01*
X118208211Y-105305817D01*
X118202053Y-105308368D01*
X118198897Y-105315986D01*
X118193327Y-105322069D01*
X118193619Y-105328728D01*
X118191070Y-105334885D01*
X118191070Y-105634885D01*
X118120497Y-105634885D01*
X118133540Y-105608799D01*
X118134158Y-105600092D01*
X118137499Y-105592028D01*
X118137499Y-105563457D01*
X118134158Y-105555392D01*
X118133540Y-105546686D01*
X118119254Y-105518114D01*
X118110270Y-105510322D01*
X118102483Y-105501344D01*
X118073912Y-105487059D01*
X118065206Y-105486440D01*
X118057142Y-105483100D01*
X117996389Y-105483100D01*
X117999377Y-105477121D01*
X118008851Y-105472385D01*
X118048289Y-105472385D01*
X118068942Y-105482712D01*
X118097572Y-105484748D01*
X118119254Y-105465942D01*
X118121290Y-105437313D01*
X118102484Y-105415630D01*
X118073913Y-105401344D01*
X118065206Y-105400725D01*
X118057142Y-105397385D01*
X117999999Y-105397385D01*
X117991934Y-105400725D01*
X117983228Y-105401344D01*
X117954656Y-105415630D01*
X117946864Y-105424613D01*
X117937886Y-105432401D01*
X117923601Y-105460972D01*
X117922982Y-105469677D01*
X117919642Y-105477742D01*
X117919642Y-105634885D01*
X117878836Y-105634885D01*
X117872342Y-105611716D01*
X117811974Y-105534885D01*
X117872342Y-105458054D01*
X117880088Y-105430417D01*
X117866023Y-105405398D01*
X117838387Y-105397652D01*
X117813368Y-105411717D01*
X117764284Y-105474187D01*
X117715200Y-105411717D01*
X117690181Y-105397651D01*
X117662545Y-105405398D01*
X117648479Y-105430417D01*
X117656226Y-105458053D01*
X117716593Y-105534885D01*
X117656226Y-105611717D01*
X117648479Y-105639353D01*
X117621362Y-105639353D01*
X117623213Y-105634885D01*
X117612230Y-105608368D01*
X117585713Y-105597385D01*
X117537498Y-105597385D01*
X117537498Y-105436543D01*
X117540370Y-105439855D01*
X117568942Y-105454141D01*
X117597571Y-105456176D01*
X117619254Y-105437370D01*
X117621289Y-105408741D01*
X117602483Y-105387059D01*
X117579354Y-105375494D01*
X117557714Y-105353853D01*
X117531200Y-105314083D01*
X117527992Y-105311934D01*
X117526515Y-105308368D01*
X117516427Y-105304189D01*
X117507352Y-105298112D01*
X117503563Y-105298861D01*
X117499998Y-105297385D01*
X117489910Y-105301562D01*
X117479196Y-105303683D01*
X117477047Y-105306890D01*
X117473481Y-105308368D01*
X117469302Y-105318455D01*
X117463225Y-105327531D01*
X117463974Y-105331319D01*
X117462498Y-105334885D01*
X117462498Y-105597385D01*
X117414284Y-105597385D01*
X117387767Y-105608368D01*
X117376784Y-105634885D01*
X117333927Y-105634885D01*
X117333927Y-105254528D01*
X119592718Y-105254528D01*
X119592718Y-105715242D01*
G37*
D13*
X104454819Y-99238095D02*
X105264342Y-99238095D01*
X105264342Y-99238095D02*
X105359580Y-99285714D01*
X105359580Y-99285714D02*
X105407200Y-99333333D01*
X105407200Y-99333333D02*
X105454819Y-99428571D01*
X105454819Y-99428571D02*
X105454819Y-99619047D01*
X105454819Y-99619047D02*
X105407200Y-99714285D01*
X105407200Y-99714285D02*
X105359580Y-99761904D01*
X105359580Y-99761904D02*
X105264342Y-99809523D01*
X105264342Y-99809523D02*
X104454819Y-99809523D01*
X104454819Y-100714285D02*
X104454819Y-100523809D01*
X104454819Y-100523809D02*
X104502438Y-100428571D01*
X104502438Y-100428571D02*
X104550057Y-100380952D01*
X104550057Y-100380952D02*
X104692914Y-100285714D01*
X104692914Y-100285714D02*
X104883390Y-100238095D01*
X104883390Y-100238095D02*
X105264342Y-100238095D01*
X105264342Y-100238095D02*
X105359580Y-100285714D01*
X105359580Y-100285714D02*
X105407200Y-100333333D01*
X105407200Y-100333333D02*
X105454819Y-100428571D01*
X105454819Y-100428571D02*
X105454819Y-100619047D01*
X105454819Y-100619047D02*
X105407200Y-100714285D01*
X105407200Y-100714285D02*
X105359580Y-100761904D01*
X105359580Y-100761904D02*
X105264342Y-100809523D01*
X105264342Y-100809523D02*
X105026247Y-100809523D01*
X105026247Y-100809523D02*
X104931009Y-100761904D01*
X104931009Y-100761904D02*
X104883390Y-100714285D01*
X104883390Y-100714285D02*
X104835771Y-100619047D01*
X104835771Y-100619047D02*
X104835771Y-100428571D01*
X104835771Y-100428571D02*
X104883390Y-100333333D01*
X104883390Y-100333333D02*
X104931009Y-100285714D01*
X104931009Y-100285714D02*
X105026247Y-100238095D01*
X101754819Y-96625000D02*
X101992914Y-96625000D01*
X101897676Y-96386905D02*
X101992914Y-96625000D01*
X101992914Y-96625000D02*
X101897676Y-96863095D01*
X102183390Y-96482143D02*
X101992914Y-96625000D01*
X101992914Y-96625000D02*
X102183390Y-96767857D01*
X101754819Y-96625000D02*
X101992914Y-96625000D01*
X101897676Y-96386905D02*
X101992914Y-96625000D01*
X101992914Y-96625000D02*
X101897676Y-96863095D01*
X102183390Y-96482143D02*
X101992914Y-96625000D01*
X101992914Y-96625000D02*
X102183390Y-96767857D01*
%TO.C,REF\u002A\u002A*%
D15*
X107254345Y-85740473D02*
X107313308Y-85751875D01*
X107345472Y-85760603D01*
X107422863Y-85794713D01*
X107489005Y-85842979D01*
X107543147Y-85902927D01*
X107584536Y-85972084D01*
X107612422Y-86047978D01*
X107626054Y-86128133D01*
X107624678Y-86210079D01*
X107607544Y-86291340D01*
X107573901Y-86369445D01*
X107522996Y-86441920D01*
X107506259Y-86459425D01*
X107452479Y-86502134D01*
X107388835Y-86538328D01*
X107322839Y-86563446D01*
X107311009Y-86566420D01*
X107248445Y-86574705D01*
X107178438Y-86574591D01*
X107109808Y-86566489D01*
X107051372Y-86550809D01*
X107043966Y-86547878D01*
X106967675Y-86506496D01*
X106900853Y-86449861D01*
X106846924Y-86381455D01*
X106809313Y-86304760D01*
X106801303Y-86276114D01*
X106792876Y-86232351D01*
X106787457Y-86187920D01*
X106787930Y-86113051D01*
X106805382Y-86026201D01*
X106839942Y-85946878D01*
X106890028Y-85877196D01*
X106954055Y-85819269D01*
X107030440Y-85775212D01*
X107117600Y-85747137D01*
X107157854Y-85739928D01*
X107205441Y-85736561D01*
X107254345Y-85740473D01*
G36*
X107254345Y-85740473D02*
G01*
X107313308Y-85751875D01*
X107345472Y-85760603D01*
X107422863Y-85794713D01*
X107489005Y-85842979D01*
X107543147Y-85902927D01*
X107584536Y-85972084D01*
X107612422Y-86047978D01*
X107626054Y-86128133D01*
X107624678Y-86210079D01*
X107607544Y-86291340D01*
X107573901Y-86369445D01*
X107522996Y-86441920D01*
X107506259Y-86459425D01*
X107452479Y-86502134D01*
X107388835Y-86538328D01*
X107322839Y-86563446D01*
X107311009Y-86566420D01*
X107248445Y-86574705D01*
X107178438Y-86574591D01*
X107109808Y-86566489D01*
X107051372Y-86550809D01*
X107043966Y-86547878D01*
X106967675Y-86506496D01*
X106900853Y-86449861D01*
X106846924Y-86381455D01*
X106809313Y-86304760D01*
X106801303Y-86276114D01*
X106792876Y-86232351D01*
X106787457Y-86187920D01*
X106787930Y-86113051D01*
X106805382Y-86026201D01*
X106839942Y-85946878D01*
X106890028Y-85877196D01*
X106954055Y-85819269D01*
X107030440Y-85775212D01*
X107117600Y-85747137D01*
X107157854Y-85739928D01*
X107205441Y-85736561D01*
X107254345Y-85740473D01*
G37*
X100787324Y-89092674D02*
X100784263Y-89180016D01*
X100779477Y-89260549D01*
X100773076Y-89329786D01*
X100765169Y-89383240D01*
X100732324Y-89521686D01*
X100681164Y-89671784D01*
X100616590Y-89806901D01*
X100538429Y-89927341D01*
X100446508Y-90033406D01*
X100340653Y-90125399D01*
X100302522Y-90153085D01*
X100220622Y-90204511D01*
X100137563Y-90244364D01*
X100048693Y-90274355D01*
X99949363Y-90296198D01*
X99834919Y-90311605D01*
X99833327Y-90311765D01*
X99810815Y-90313208D01*
X99783839Y-90313150D01*
X99748466Y-90311401D01*
X99700763Y-90307773D01*
X99636799Y-90302076D01*
X99600242Y-90297709D01*
X99486049Y-90272447D01*
X99372712Y-90231053D01*
X99265848Y-90175853D01*
X99171076Y-90109175D01*
X99103399Y-90053353D01*
X99103399Y-90257000D01*
X98220092Y-90257000D01*
X98245410Y-90219691D01*
X98270726Y-90171183D01*
X98293361Y-90102291D01*
X98311154Y-90017171D01*
X98312320Y-90001338D01*
X98313518Y-89965190D01*
X98314641Y-89909916D01*
X98315684Y-89836138D01*
X98316645Y-89744477D01*
X98317520Y-89635556D01*
X98318210Y-89525352D01*
X99154199Y-89525352D01*
X99197379Y-89556840D01*
X99207972Y-89564404D01*
X99306018Y-89620725D01*
X99413279Y-89658956D01*
X99501554Y-89674776D01*
X99588103Y-89674377D01*
X99666455Y-89656661D01*
X99735365Y-89621917D01*
X99793588Y-89570435D01*
X99804212Y-89557691D01*
X99848635Y-89486586D01*
X99883378Y-89397754D01*
X99908416Y-89291322D01*
X99923726Y-89167417D01*
X99929284Y-89026166D01*
X99925066Y-88867696D01*
X99920314Y-88798867D01*
X99903668Y-88661654D01*
X99878340Y-88542591D01*
X99844211Y-88441471D01*
X99801160Y-88358087D01*
X99749067Y-88292229D01*
X99687811Y-88243690D01*
X99617272Y-88212262D01*
X99537329Y-88197737D01*
X99480990Y-88196826D01*
X99384957Y-88210659D01*
X99290711Y-88244298D01*
X99197379Y-88297998D01*
X99154199Y-88327576D01*
X99154199Y-89525352D01*
X98318210Y-89525352D01*
X98318306Y-89509994D01*
X98318999Y-89368415D01*
X98319596Y-89211440D01*
X98320094Y-89039690D01*
X98320488Y-88853788D01*
X98320777Y-88654354D01*
X98320955Y-88442011D01*
X98321021Y-88217380D01*
X98321079Y-86477480D01*
X99258137Y-86477480D01*
X99239706Y-86505420D01*
X99215756Y-86543529D01*
X99190305Y-86592741D01*
X99174224Y-86639795D01*
X99164566Y-86692018D01*
X99164277Y-86694461D01*
X99162363Y-86722218D01*
X99160569Y-86767662D01*
X99158935Y-86828497D01*
X99157498Y-86902427D01*
X99156298Y-86987156D01*
X99155375Y-87080387D01*
X99154767Y-87179825D01*
X99154513Y-87283173D01*
X99154199Y-87799306D01*
X99219322Y-87752836D01*
X99314815Y-87693728D01*
X99422411Y-87646563D01*
X99540392Y-87613652D01*
X99671694Y-87593963D01*
X99681617Y-87593049D01*
X99822881Y-87589982D01*
X99957948Y-87605853D01*
X100085999Y-87640378D01*
X100206214Y-87693273D01*
X100317773Y-87764255D01*
X100419856Y-87853039D01*
X100448592Y-87883192D01*
X100534834Y-87991919D01*
X100608527Y-88115572D01*
X100669790Y-88254453D01*
X100718741Y-88408862D01*
X100755500Y-88579100D01*
X100780186Y-88765468D01*
X100785068Y-88834681D01*
X100787835Y-88915519D01*
X100788551Y-89003013D01*
X100788234Y-89026166D01*
X100787324Y-89092674D01*
G36*
X100787324Y-89092674D02*
G01*
X100784263Y-89180016D01*
X100779477Y-89260549D01*
X100773076Y-89329786D01*
X100765169Y-89383240D01*
X100732324Y-89521686D01*
X100681164Y-89671784D01*
X100616590Y-89806901D01*
X100538429Y-89927341D01*
X100446508Y-90033406D01*
X100340653Y-90125399D01*
X100302522Y-90153085D01*
X100220622Y-90204511D01*
X100137563Y-90244364D01*
X100048693Y-90274355D01*
X99949363Y-90296198D01*
X99834919Y-90311605D01*
X99833327Y-90311765D01*
X99810815Y-90313208D01*
X99783839Y-90313150D01*
X99748466Y-90311401D01*
X99700763Y-90307773D01*
X99636799Y-90302076D01*
X99600242Y-90297709D01*
X99486049Y-90272447D01*
X99372712Y-90231053D01*
X99265848Y-90175853D01*
X99171076Y-90109175D01*
X99103399Y-90053353D01*
X99103399Y-90257000D01*
X98220092Y-90257000D01*
X98245410Y-90219691D01*
X98270726Y-90171183D01*
X98293361Y-90102291D01*
X98311154Y-90017171D01*
X98312320Y-90001338D01*
X98313518Y-89965190D01*
X98314641Y-89909916D01*
X98315684Y-89836138D01*
X98316645Y-89744477D01*
X98317520Y-89635556D01*
X98318210Y-89525352D01*
X99154199Y-89525352D01*
X99197379Y-89556840D01*
X99207972Y-89564404D01*
X99306018Y-89620725D01*
X99413279Y-89658956D01*
X99501554Y-89674776D01*
X99588103Y-89674377D01*
X99666455Y-89656661D01*
X99735365Y-89621917D01*
X99793588Y-89570435D01*
X99804212Y-89557691D01*
X99848635Y-89486586D01*
X99883378Y-89397754D01*
X99908416Y-89291322D01*
X99923726Y-89167417D01*
X99929284Y-89026166D01*
X99925066Y-88867696D01*
X99920314Y-88798867D01*
X99903668Y-88661654D01*
X99878340Y-88542591D01*
X99844211Y-88441471D01*
X99801160Y-88358087D01*
X99749067Y-88292229D01*
X99687811Y-88243690D01*
X99617272Y-88212262D01*
X99537329Y-88197737D01*
X99480990Y-88196826D01*
X99384957Y-88210659D01*
X99290711Y-88244298D01*
X99197379Y-88297998D01*
X99154199Y-88327576D01*
X99154199Y-89525352D01*
X98318210Y-89525352D01*
X98318306Y-89509994D01*
X98318999Y-89368415D01*
X98319596Y-89211440D01*
X98320094Y-89039690D01*
X98320488Y-88853788D01*
X98320777Y-88654354D01*
X98320955Y-88442011D01*
X98321021Y-88217380D01*
X98321079Y-86477480D01*
X99258137Y-86477480D01*
X99239706Y-86505420D01*
X99215756Y-86543529D01*
X99190305Y-86592741D01*
X99174224Y-86639795D01*
X99164566Y-86692018D01*
X99164277Y-86694461D01*
X99162363Y-86722218D01*
X99160569Y-86767662D01*
X99158935Y-86828497D01*
X99157498Y-86902427D01*
X99156298Y-86987156D01*
X99155375Y-87080387D01*
X99154767Y-87179825D01*
X99154513Y-87283173D01*
X99154199Y-87799306D01*
X99219322Y-87752836D01*
X99314815Y-87693728D01*
X99422411Y-87646563D01*
X99540392Y-87613652D01*
X99671694Y-87593963D01*
X99681617Y-87593049D01*
X99822881Y-87589982D01*
X99957948Y-87605853D01*
X100085999Y-87640378D01*
X100206214Y-87693273D01*
X100317773Y-87764255D01*
X100419856Y-87853039D01*
X100448592Y-87883192D01*
X100534834Y-87991919D01*
X100608527Y-88115572D01*
X100669790Y-88254453D01*
X100718741Y-88408862D01*
X100755500Y-88579100D01*
X100780186Y-88765468D01*
X100785068Y-88834681D01*
X100787835Y-88915519D01*
X100788551Y-89003013D01*
X100788234Y-89026166D01*
X100787324Y-89092674D01*
G37*
X104638944Y-86645031D02*
X104807805Y-86666224D01*
X104972327Y-86706005D01*
X105131136Y-86764171D01*
X105282858Y-86840521D01*
X105426121Y-86934856D01*
X105432090Y-86939321D01*
X105576320Y-87059175D01*
X105703668Y-87189580D01*
X105814345Y-87330920D01*
X105908560Y-87483581D01*
X105986523Y-87647945D01*
X106048444Y-87824399D01*
X106094533Y-88013326D01*
X106125000Y-88215112D01*
X106126871Y-88234939D01*
X106130502Y-88299717D01*
X106132247Y-88377953D01*
X106132220Y-88464827D01*
X106130537Y-88555515D01*
X106127313Y-88645199D01*
X106122664Y-88729055D01*
X106116705Y-88802262D01*
X106109553Y-88860000D01*
X106098629Y-88922597D01*
X106054409Y-89109025D01*
X105994478Y-89286883D01*
X105919609Y-89454759D01*
X105830574Y-89611242D01*
X105728147Y-89754921D01*
X105613100Y-89884386D01*
X105486205Y-89998225D01*
X105391772Y-90067933D01*
X105249180Y-90153507D01*
X105099503Y-90220519D01*
X104941187Y-90269627D01*
X104772679Y-90301493D01*
X104742896Y-90305248D01*
X104554106Y-90317299D01*
X104363660Y-90309575D01*
X104173428Y-90282232D01*
X103985279Y-90235427D01*
X103956026Y-90225195D01*
X103913828Y-90208379D01*
X103862357Y-90186555D01*
X103804406Y-90161031D01*
X103742767Y-90133117D01*
X103680229Y-90104123D01*
X103619585Y-90075357D01*
X103563627Y-90048130D01*
X103515145Y-90023751D01*
X103476931Y-90003529D01*
X103451776Y-89988773D01*
X103442471Y-89980794D01*
X103443308Y-89978893D01*
X103452155Y-89963032D01*
X103469516Y-89933143D01*
X103493968Y-89891596D01*
X103524089Y-89840766D01*
X103558457Y-89783023D01*
X103595651Y-89720740D01*
X103634249Y-89656289D01*
X103672829Y-89592044D01*
X103709969Y-89530375D01*
X103744247Y-89473656D01*
X103774241Y-89424259D01*
X103798530Y-89384555D01*
X103815692Y-89356918D01*
X103824304Y-89343719D01*
X103826985Y-89344624D01*
X103841496Y-89355570D01*
X103865478Y-89376192D01*
X103895522Y-89403621D01*
X103913046Y-89419663D01*
X104018828Y-89502737D01*
X104128137Y-89566702D01*
X104239539Y-89611897D01*
X104351604Y-89638662D01*
X104462898Y-89647335D01*
X104571989Y-89638254D01*
X104677446Y-89611759D01*
X104777836Y-89568188D01*
X104871727Y-89507879D01*
X104957687Y-89431173D01*
X105034283Y-89338407D01*
X105100083Y-89229920D01*
X105153655Y-89106050D01*
X105161893Y-89081899D01*
X105190686Y-88976758D01*
X105213804Y-88857518D01*
X105230757Y-88728623D01*
X105241052Y-88594514D01*
X105244198Y-88459635D01*
X105239704Y-88328428D01*
X105238111Y-88305072D01*
X105231750Y-88226503D01*
X105224217Y-88160077D01*
X105214520Y-88099314D01*
X105201667Y-88037733D01*
X105184665Y-87968852D01*
X105169243Y-87913471D01*
X105120835Y-87776759D01*
X105062255Y-87657068D01*
X104993731Y-87554587D01*
X104915494Y-87469504D01*
X104827770Y-87402008D01*
X104730790Y-87352288D01*
X104624783Y-87320531D01*
X104509976Y-87306926D01*
X104386599Y-87311661D01*
X104382492Y-87312121D01*
X104264259Y-87334760D01*
X104156500Y-87374657D01*
X104058320Y-87432231D01*
X103968828Y-87507901D01*
X103961606Y-87515029D01*
X103935223Y-87540259D01*
X103915428Y-87557937D01*
X103906055Y-87564600D01*
X103904180Y-87562703D01*
X103892590Y-87547418D01*
X103871923Y-87518713D01*
X103843755Y-87478878D01*
X103809667Y-87430204D01*
X103771235Y-87374980D01*
X103730038Y-87315498D01*
X103687654Y-87254048D01*
X103645662Y-87192920D01*
X103605640Y-87134406D01*
X103569165Y-87080796D01*
X103537816Y-87034379D01*
X103513171Y-86997448D01*
X103496809Y-86972291D01*
X103490307Y-86961201D01*
X103490909Y-86958510D01*
X103503703Y-86949335D01*
X103528079Y-86939829D01*
X103546113Y-86933113D01*
X103580873Y-86918274D01*
X103626716Y-86897560D01*
X103679820Y-86872704D01*
X103736359Y-86845439D01*
X103775935Y-86826473D01*
X103841511Y-86796487D01*
X103906343Y-86768364D01*
X103964657Y-86744583D01*
X104010679Y-86727625D01*
X104120055Y-86694981D01*
X104293695Y-86659208D01*
X104467116Y-86642625D01*
X104638944Y-86645031D01*
G36*
X104638944Y-86645031D02*
G01*
X104807805Y-86666224D01*
X104972327Y-86706005D01*
X105131136Y-86764171D01*
X105282858Y-86840521D01*
X105426121Y-86934856D01*
X105432090Y-86939321D01*
X105576320Y-87059175D01*
X105703668Y-87189580D01*
X105814345Y-87330920D01*
X105908560Y-87483581D01*
X105986523Y-87647945D01*
X106048444Y-87824399D01*
X106094533Y-88013326D01*
X106125000Y-88215112D01*
X106126871Y-88234939D01*
X106130502Y-88299717D01*
X106132247Y-88377953D01*
X106132220Y-88464827D01*
X106130537Y-88555515D01*
X106127313Y-88645199D01*
X106122664Y-88729055D01*
X106116705Y-88802262D01*
X106109553Y-88860000D01*
X106098629Y-88922597D01*
X106054409Y-89109025D01*
X105994478Y-89286883D01*
X105919609Y-89454759D01*
X105830574Y-89611242D01*
X105728147Y-89754921D01*
X105613100Y-89884386D01*
X105486205Y-89998225D01*
X105391772Y-90067933D01*
X105249180Y-90153507D01*
X105099503Y-90220519D01*
X104941187Y-90269627D01*
X104772679Y-90301493D01*
X104742896Y-90305248D01*
X104554106Y-90317299D01*
X104363660Y-90309575D01*
X104173428Y-90282232D01*
X103985279Y-90235427D01*
X103956026Y-90225195D01*
X103913828Y-90208379D01*
X103862357Y-90186555D01*
X103804406Y-90161031D01*
X103742767Y-90133117D01*
X103680229Y-90104123D01*
X103619585Y-90075357D01*
X103563627Y-90048130D01*
X103515145Y-90023751D01*
X103476931Y-90003529D01*
X103451776Y-89988773D01*
X103442471Y-89980794D01*
X103443308Y-89978893D01*
X103452155Y-89963032D01*
X103469516Y-89933143D01*
X103493968Y-89891596D01*
X103524089Y-89840766D01*
X103558457Y-89783023D01*
X103595651Y-89720740D01*
X103634249Y-89656289D01*
X103672829Y-89592044D01*
X103709969Y-89530375D01*
X103744247Y-89473656D01*
X103774241Y-89424259D01*
X103798530Y-89384555D01*
X103815692Y-89356918D01*
X103824304Y-89343719D01*
X103826985Y-89344624D01*
X103841496Y-89355570D01*
X103865478Y-89376192D01*
X103895522Y-89403621D01*
X103913046Y-89419663D01*
X104018828Y-89502737D01*
X104128137Y-89566702D01*
X104239539Y-89611897D01*
X104351604Y-89638662D01*
X104462898Y-89647335D01*
X104571989Y-89638254D01*
X104677446Y-89611759D01*
X104777836Y-89568188D01*
X104871727Y-89507879D01*
X104957687Y-89431173D01*
X105034283Y-89338407D01*
X105100083Y-89229920D01*
X105153655Y-89106050D01*
X105161893Y-89081899D01*
X105190686Y-88976758D01*
X105213804Y-88857518D01*
X105230757Y-88728623D01*
X105241052Y-88594514D01*
X105244198Y-88459635D01*
X105239704Y-88328428D01*
X105238111Y-88305072D01*
X105231750Y-88226503D01*
X105224217Y-88160077D01*
X105214520Y-88099314D01*
X105201667Y-88037733D01*
X105184665Y-87968852D01*
X105169243Y-87913471D01*
X105120835Y-87776759D01*
X105062255Y-87657068D01*
X104993731Y-87554587D01*
X104915494Y-87469504D01*
X104827770Y-87402008D01*
X104730790Y-87352288D01*
X104624783Y-87320531D01*
X104509976Y-87306926D01*
X104386599Y-87311661D01*
X104382492Y-87312121D01*
X104264259Y-87334760D01*
X104156500Y-87374657D01*
X104058320Y-87432231D01*
X103968828Y-87507901D01*
X103961606Y-87515029D01*
X103935223Y-87540259D01*
X103915428Y-87557937D01*
X103906055Y-87564600D01*
X103904180Y-87562703D01*
X103892590Y-87547418D01*
X103871923Y-87518713D01*
X103843755Y-87478878D01*
X103809667Y-87430204D01*
X103771235Y-87374980D01*
X103730038Y-87315498D01*
X103687654Y-87254048D01*
X103645662Y-87192920D01*
X103605640Y-87134406D01*
X103569165Y-87080796D01*
X103537816Y-87034379D01*
X103513171Y-86997448D01*
X103496809Y-86972291D01*
X103490307Y-86961201D01*
X103490909Y-86958510D01*
X103503703Y-86949335D01*
X103528079Y-86939829D01*
X103546113Y-86933113D01*
X103580873Y-86918274D01*
X103626716Y-86897560D01*
X103679820Y-86872704D01*
X103736359Y-86845439D01*
X103775935Y-86826473D01*
X103841511Y-86796487D01*
X103906343Y-86768364D01*
X103964657Y-86744583D01*
X104010679Y-86727625D01*
X104120055Y-86694981D01*
X104293695Y-86659208D01*
X104467116Y-86642625D01*
X104638944Y-86645031D01*
G37*
X103435925Y-89459780D02*
X103431216Y-89558929D01*
X103418835Y-89646364D01*
X103397294Y-89728150D01*
X103365108Y-89810354D01*
X103320786Y-89899040D01*
X103265190Y-89983342D01*
X103189875Y-90064976D01*
X103099941Y-90137465D01*
X102997800Y-90199358D01*
X102885865Y-90249205D01*
X102766546Y-90285557D01*
X102642256Y-90306964D01*
X102534266Y-90311939D01*
X102408868Y-90303514D01*
X102285439Y-90281232D01*
X102171197Y-90246026D01*
X102140780Y-90233122D01*
X102082394Y-90203586D01*
X102022842Y-90168557D01*
X101968895Y-90132132D01*
X101927324Y-90098412D01*
X101924544Y-90095847D01*
X101905770Y-90080421D01*
X101894304Y-90074120D01*
X101892783Y-90076241D01*
X101889941Y-90093536D01*
X101887974Y-90124467D01*
X101887239Y-90164472D01*
X101887239Y-90165273D01*
X101886538Y-90210055D01*
X101884048Y-90238403D01*
X101879135Y-90254116D01*
X101871169Y-90260992D01*
X101869753Y-90261349D01*
X101851626Y-90262834D01*
X101816437Y-90264052D01*
X101766857Y-90265009D01*
X101705556Y-90265713D01*
X101635203Y-90266171D01*
X101558468Y-90266389D01*
X101478022Y-90266375D01*
X101396535Y-90266136D01*
X101316677Y-90265678D01*
X101241118Y-90265010D01*
X101172527Y-90264137D01*
X101113576Y-90263068D01*
X101066934Y-90261808D01*
X101035271Y-90260366D01*
X101021257Y-90258748D01*
X101014773Y-90255484D01*
X101011112Y-90247666D01*
X101017181Y-90232763D01*
X101034117Y-90206122D01*
X101041422Y-90195260D01*
X101051679Y-90179771D01*
X101060625Y-90164851D01*
X101068361Y-90149108D01*
X101074991Y-90131149D01*
X101080618Y-90109581D01*
X101085343Y-90083013D01*
X101089269Y-90050051D01*
X101092499Y-90009303D01*
X101095135Y-89959376D01*
X101097281Y-89898879D01*
X101099038Y-89826418D01*
X101100509Y-89740600D01*
X101101797Y-89640034D01*
X101103005Y-89523327D01*
X101103013Y-89522431D01*
X101927879Y-89522431D01*
X101957018Y-89562655D01*
X102002263Y-89614732D01*
X102064034Y-89664722D01*
X102130273Y-89699499D01*
X102149257Y-89705924D01*
X102208145Y-89718783D01*
X102274891Y-89725721D01*
X102342734Y-89726540D01*
X102404916Y-89721041D01*
X102454679Y-89709026D01*
X102485859Y-89696849D01*
X102514267Y-89682819D01*
X102539940Y-89664858D01*
X102571430Y-89637748D01*
X102591337Y-89617043D01*
X102624827Y-89562736D01*
X102644650Y-89499136D01*
X102650222Y-89430673D01*
X102640961Y-89361777D01*
X102616282Y-89296880D01*
X102604205Y-89276714D01*
X102557335Y-89223953D01*
X102493478Y-89179178D01*
X102414191Y-89143154D01*
X102321036Y-89116645D01*
X102215573Y-89100418D01*
X102194003Y-89098719D01*
X102144679Y-89096939D01*
X102091654Y-89097176D01*
X102039727Y-89099198D01*
X101993700Y-89102778D01*
X101958373Y-89107683D01*
X101938547Y-89113686D01*
X101936231Y-89118123D01*
X101932648Y-89141491D01*
X101930030Y-89183760D01*
X101928425Y-89244017D01*
X101927879Y-89321355D01*
X101927879Y-89522431D01*
X101103013Y-89522431D01*
X101104234Y-89389086D01*
X101105588Y-89235920D01*
X101105636Y-89230524D01*
X101106992Y-89092540D01*
X101108513Y-88961991D01*
X101110168Y-88840310D01*
X101111929Y-88728928D01*
X101113769Y-88629277D01*
X101115657Y-88542787D01*
X101117567Y-88470891D01*
X101119468Y-88415020D01*
X101121333Y-88376606D01*
X101123133Y-88357080D01*
X101124517Y-88349597D01*
X101155688Y-88212235D01*
X101195062Y-88092388D01*
X101243550Y-87988656D01*
X101302064Y-87899641D01*
X101371516Y-87823942D01*
X101452817Y-87760162D01*
X101546879Y-87706900D01*
X101621781Y-87674026D01*
X101711069Y-87643451D01*
X101805377Y-87620849D01*
X101908358Y-87605544D01*
X102023663Y-87596857D01*
X102154942Y-87594112D01*
X102187991Y-87594161D01*
X102251881Y-87594785D01*
X102307723Y-87596528D01*
X102358983Y-87599890D01*
X102409123Y-87605369D01*
X102461608Y-87613466D01*
X102519902Y-87624682D01*
X102587468Y-87639515D01*
X102667772Y-87658465D01*
X102764276Y-87682033D01*
X102826378Y-87697109D01*
X102897482Y-87713846D01*
X102962479Y-87728601D01*
X103017973Y-87740622D01*
X103060564Y-87749156D01*
X103086856Y-87753451D01*
X103113994Y-87757354D01*
X103137882Y-87762854D01*
X103147079Y-87767981D01*
X103146604Y-87769976D01*
X103140414Y-87787181D01*
X103128007Y-87819119D01*
X103110589Y-87862822D01*
X103089364Y-87915319D01*
X103065536Y-87973643D01*
X103040311Y-88034823D01*
X103014894Y-88095892D01*
X102990489Y-88153880D01*
X102980877Y-88176747D01*
X102961245Y-88224153D01*
X102943316Y-88268180D01*
X102931677Y-88295447D01*
X102920545Y-88317929D01*
X102914070Y-88326537D01*
X102913505Y-88326479D01*
X102900068Y-88321334D01*
X102877839Y-88310416D01*
X102838847Y-88291348D01*
X102771153Y-88262374D01*
X102695752Y-88233741D01*
X102619801Y-88208123D01*
X102550459Y-88188192D01*
X102512158Y-88178882D01*
X102464999Y-88169484D01*
X102419410Y-88163726D01*
X102368106Y-88160768D01*
X102303799Y-88159770D01*
X102270744Y-88159721D01*
X102222346Y-88160373D01*
X102187058Y-88162481D01*
X102160195Y-88166623D01*
X102137070Y-88173379D01*
X102113000Y-88183326D01*
X102070332Y-88207247D01*
X102014927Y-88257197D01*
X101971406Y-88322729D01*
X101940334Y-88402917D01*
X101922273Y-88496833D01*
X101915200Y-88559346D01*
X102127280Y-88558601D01*
X102160980Y-88558561D01*
X102286832Y-88560161D01*
X102397267Y-88564879D01*
X102496082Y-88573099D01*
X102587074Y-88585204D01*
X102674040Y-88601578D01*
X102760779Y-88622604D01*
X102788206Y-88630297D01*
X102914017Y-88675450D01*
X103030301Y-88733562D01*
X103135055Y-88803152D01*
X103226273Y-88882735D01*
X103301951Y-88970829D01*
X103360085Y-89065952D01*
X103379267Y-89107079D01*
X103405721Y-89178417D01*
X103423198Y-89251981D01*
X103432910Y-89333564D01*
X103436071Y-89428960D01*
X103436062Y-89430673D01*
X103435925Y-89459780D01*
G36*
X103435925Y-89459780D02*
G01*
X103431216Y-89558929D01*
X103418835Y-89646364D01*
X103397294Y-89728150D01*
X103365108Y-89810354D01*
X103320786Y-89899040D01*
X103265190Y-89983342D01*
X103189875Y-90064976D01*
X103099941Y-90137465D01*
X102997800Y-90199358D01*
X102885865Y-90249205D01*
X102766546Y-90285557D01*
X102642256Y-90306964D01*
X102534266Y-90311939D01*
X102408868Y-90303514D01*
X102285439Y-90281232D01*
X102171197Y-90246026D01*
X102140780Y-90233122D01*
X102082394Y-90203586D01*
X102022842Y-90168557D01*
X101968895Y-90132132D01*
X101927324Y-90098412D01*
X101924544Y-90095847D01*
X101905770Y-90080421D01*
X101894304Y-90074120D01*
X101892783Y-90076241D01*
X101889941Y-90093536D01*
X101887974Y-90124467D01*
X101887239Y-90164472D01*
X101887239Y-90165273D01*
X101886538Y-90210055D01*
X101884048Y-90238403D01*
X101879135Y-90254116D01*
X101871169Y-90260992D01*
X101869753Y-90261349D01*
X101851626Y-90262834D01*
X101816437Y-90264052D01*
X101766857Y-90265009D01*
X101705556Y-90265713D01*
X101635203Y-90266171D01*
X101558468Y-90266389D01*
X101478022Y-90266375D01*
X101396535Y-90266136D01*
X101316677Y-90265678D01*
X101241118Y-90265010D01*
X101172527Y-90264137D01*
X101113576Y-90263068D01*
X101066934Y-90261808D01*
X101035271Y-90260366D01*
X101021257Y-90258748D01*
X101014773Y-90255484D01*
X101011112Y-90247666D01*
X101017181Y-90232763D01*
X101034117Y-90206122D01*
X101041422Y-90195260D01*
X101051679Y-90179771D01*
X101060625Y-90164851D01*
X101068361Y-90149108D01*
X101074991Y-90131149D01*
X101080618Y-90109581D01*
X101085343Y-90083013D01*
X101089269Y-90050051D01*
X101092499Y-90009303D01*
X101095135Y-89959376D01*
X101097281Y-89898879D01*
X101099038Y-89826418D01*
X101100509Y-89740600D01*
X101101797Y-89640034D01*
X101103005Y-89523327D01*
X101103013Y-89522431D01*
X101927879Y-89522431D01*
X101957018Y-89562655D01*
X102002263Y-89614732D01*
X102064034Y-89664722D01*
X102130273Y-89699499D01*
X102149257Y-89705924D01*
X102208145Y-89718783D01*
X102274891Y-89725721D01*
X102342734Y-89726540D01*
X102404916Y-89721041D01*
X102454679Y-89709026D01*
X102485859Y-89696849D01*
X102514267Y-89682819D01*
X102539940Y-89664858D01*
X102571430Y-89637748D01*
X102591337Y-89617043D01*
X102624827Y-89562736D01*
X102644650Y-89499136D01*
X102650222Y-89430673D01*
X102640961Y-89361777D01*
X102616282Y-89296880D01*
X102604205Y-89276714D01*
X102557335Y-89223953D01*
X102493478Y-89179178D01*
X102414191Y-89143154D01*
X102321036Y-89116645D01*
X102215573Y-89100418D01*
X102194003Y-89098719D01*
X102144679Y-89096939D01*
X102091654Y-89097176D01*
X102039727Y-89099198D01*
X101993700Y-89102778D01*
X101958373Y-89107683D01*
X101938547Y-89113686D01*
X101936231Y-89118123D01*
X101932648Y-89141491D01*
X101930030Y-89183760D01*
X101928425Y-89244017D01*
X101927879Y-89321355D01*
X101927879Y-89522431D01*
X101103013Y-89522431D01*
X101104234Y-89389086D01*
X101105588Y-89235920D01*
X101105636Y-89230524D01*
X101106992Y-89092540D01*
X101108513Y-88961991D01*
X101110168Y-88840310D01*
X101111929Y-88728928D01*
X101113769Y-88629277D01*
X101115657Y-88542787D01*
X101117567Y-88470891D01*
X101119468Y-88415020D01*
X101121333Y-88376606D01*
X101123133Y-88357080D01*
X101124517Y-88349597D01*
X101155688Y-88212235D01*
X101195062Y-88092388D01*
X101243550Y-87988656D01*
X101302064Y-87899641D01*
X101371516Y-87823942D01*
X101452817Y-87760162D01*
X101546879Y-87706900D01*
X101621781Y-87674026D01*
X101711069Y-87643451D01*
X101805377Y-87620849D01*
X101908358Y-87605544D01*
X102023663Y-87596857D01*
X102154942Y-87594112D01*
X102187991Y-87594161D01*
X102251881Y-87594785D01*
X102307723Y-87596528D01*
X102358983Y-87599890D01*
X102409123Y-87605369D01*
X102461608Y-87613466D01*
X102519902Y-87624682D01*
X102587468Y-87639515D01*
X102667772Y-87658465D01*
X102764276Y-87682033D01*
X102826378Y-87697109D01*
X102897482Y-87713846D01*
X102962479Y-87728601D01*
X103017973Y-87740622D01*
X103060564Y-87749156D01*
X103086856Y-87753451D01*
X103113994Y-87757354D01*
X103137882Y-87762854D01*
X103147079Y-87767981D01*
X103146604Y-87769976D01*
X103140414Y-87787181D01*
X103128007Y-87819119D01*
X103110589Y-87862822D01*
X103089364Y-87915319D01*
X103065536Y-87973643D01*
X103040311Y-88034823D01*
X103014894Y-88095892D01*
X102990489Y-88153880D01*
X102980877Y-88176747D01*
X102961245Y-88224153D01*
X102943316Y-88268180D01*
X102931677Y-88295447D01*
X102920545Y-88317929D01*
X102914070Y-88326537D01*
X102913505Y-88326479D01*
X102900068Y-88321334D01*
X102877839Y-88310416D01*
X102838847Y-88291348D01*
X102771153Y-88262374D01*
X102695752Y-88233741D01*
X102619801Y-88208123D01*
X102550459Y-88188192D01*
X102512158Y-88178882D01*
X102464999Y-88169484D01*
X102419410Y-88163726D01*
X102368106Y-88160768D01*
X102303799Y-88159770D01*
X102270744Y-88159721D01*
X102222346Y-88160373D01*
X102187058Y-88162481D01*
X102160195Y-88166623D01*
X102137070Y-88173379D01*
X102113000Y-88183326D01*
X102070332Y-88207247D01*
X102014927Y-88257197D01*
X101971406Y-88322729D01*
X101940334Y-88402917D01*
X101922273Y-88496833D01*
X101915200Y-88559346D01*
X102127280Y-88558601D01*
X102160980Y-88558561D01*
X102286832Y-88560161D01*
X102397267Y-88564879D01*
X102496082Y-88573099D01*
X102587074Y-88585204D01*
X102674040Y-88601578D01*
X102760779Y-88622604D01*
X102788206Y-88630297D01*
X102914017Y-88675450D01*
X103030301Y-88733562D01*
X103135055Y-88803152D01*
X103226273Y-88882735D01*
X103301951Y-88970829D01*
X103360085Y-89065952D01*
X103379267Y-89107079D01*
X103405721Y-89178417D01*
X103423198Y-89251981D01*
X103432910Y-89333564D01*
X103436071Y-89428960D01*
X103436062Y-89430673D01*
X103435925Y-89459780D01*
G37*
X111303708Y-86697047D02*
X111303939Y-86802904D01*
X111304090Y-86921874D01*
X111304167Y-87054757D01*
X111304174Y-87202353D01*
X111304118Y-87365464D01*
X111304004Y-87544891D01*
X111303838Y-87741434D01*
X111303626Y-87955895D01*
X111303374Y-88189074D01*
X111303086Y-88441772D01*
X111300479Y-90702551D01*
X111279437Y-90731235D01*
X111278221Y-90732847D01*
X111253315Y-90757560D01*
X111223557Y-90777684D01*
X111220125Y-90779206D01*
X111214215Y-90781045D01*
X111205929Y-90782740D01*
X111194486Y-90784297D01*
X111179105Y-90785722D01*
X111159008Y-90787021D01*
X111133413Y-90788199D01*
X111101540Y-90789263D01*
X111062610Y-90790218D01*
X111015842Y-90791070D01*
X110960456Y-90791825D01*
X110895672Y-90792489D01*
X110820710Y-90793067D01*
X110734790Y-90793566D01*
X110637131Y-90793990D01*
X110526953Y-90794347D01*
X110403477Y-90794642D01*
X110265922Y-90794881D01*
X110113507Y-90795069D01*
X109945454Y-90795212D01*
X109760981Y-90795317D01*
X109559309Y-90795389D01*
X109339658Y-90795433D01*
X109101246Y-90795456D01*
X108843295Y-90795464D01*
X108630254Y-90795477D01*
X108385383Y-90795514D01*
X108159439Y-90795554D01*
X107951653Y-90795576D01*
X107761256Y-90795561D01*
X107587479Y-90795486D01*
X107429552Y-90795332D01*
X107286706Y-90795077D01*
X107158172Y-90794700D01*
X107043182Y-90794182D01*
X106940965Y-90793501D01*
X106850754Y-90792636D01*
X106771778Y-90791566D01*
X106703268Y-90790272D01*
X106644456Y-90788731D01*
X106594572Y-90786924D01*
X106552847Y-90784829D01*
X106518513Y-90782425D01*
X106490799Y-90779693D01*
X106468937Y-90776611D01*
X106452157Y-90773158D01*
X106439691Y-90769314D01*
X106430770Y-90765057D01*
X106424623Y-90760368D01*
X106420483Y-90755224D01*
X106417580Y-90749607D01*
X106415144Y-90743494D01*
X106412407Y-90736865D01*
X106408600Y-90729699D01*
X106406894Y-90726856D01*
X106404741Y-90722604D01*
X106402759Y-90717156D01*
X106400942Y-90709716D01*
X106399281Y-90699485D01*
X106397771Y-90685668D01*
X106396403Y-90667468D01*
X106395171Y-90644087D01*
X106394067Y-90614730D01*
X106393086Y-90578598D01*
X106392218Y-90534896D01*
X106391458Y-90482826D01*
X106390799Y-90421592D01*
X106390232Y-90350397D01*
X106389752Y-90268444D01*
X106389746Y-90267160D01*
X106672633Y-90267160D01*
X107740357Y-90267160D01*
X107909181Y-90267160D01*
X109153009Y-90267160D01*
X109145647Y-90244300D01*
X109139228Y-90207450D01*
X109139507Y-90156221D01*
X109146926Y-90101828D01*
X109160846Y-90052338D01*
X109161509Y-90050614D01*
X109172032Y-90025226D01*
X109184918Y-89998127D01*
X109201058Y-89967994D01*
X109221346Y-89933503D01*
X109246674Y-89893331D01*
X109277934Y-89846155D01*
X109316019Y-89790653D01*
X109361822Y-89725501D01*
X109416234Y-89649376D01*
X109480149Y-89560955D01*
X109554459Y-89458915D01*
X109640055Y-89341933D01*
X109999999Y-88850825D01*
X110003143Y-88921452D01*
X110003665Y-88943264D01*
X110004053Y-88984344D01*
X110004255Y-89041213D01*
X110004274Y-89111509D01*
X110004113Y-89192872D01*
X110003773Y-89282942D01*
X110003258Y-89379358D01*
X110002570Y-89479760D01*
X110002348Y-89508572D01*
X110001457Y-89616943D01*
X110000554Y-89707450D01*
X109999550Y-89782077D01*
X109998357Y-89842804D01*
X109996885Y-89891614D01*
X109995046Y-89930489D01*
X109992750Y-89961410D01*
X109989910Y-89986361D01*
X109986436Y-90007322D01*
X109982239Y-90026276D01*
X109977231Y-90045205D01*
X109970425Y-90068316D01*
X109950903Y-90124141D01*
X109929433Y-90173725D01*
X109908110Y-90212531D01*
X109889032Y-90236022D01*
X109879966Y-90245119D01*
X109872999Y-90258244D01*
X109876021Y-90259195D01*
X109896337Y-90260841D01*
X109934326Y-90262356D01*
X109988280Y-90263711D01*
X110056490Y-90264881D01*
X110137248Y-90265837D01*
X110228847Y-90266554D01*
X110329578Y-90267004D01*
X110437733Y-90267160D01*
X111002467Y-90267160D01*
X110972461Y-90229060D01*
X110939519Y-90181150D01*
X110901345Y-90102487D01*
X110879321Y-90021916D01*
X110878108Y-90006228D01*
X110876840Y-89970694D01*
X110875664Y-89917501D01*
X110874579Y-89848055D01*
X110873587Y-89763759D01*
X110872686Y-89666017D01*
X110871879Y-89556233D01*
X110871166Y-89435811D01*
X110870546Y-89306155D01*
X110870020Y-89168669D01*
X110869588Y-89024757D01*
X110869252Y-88875822D01*
X110869011Y-88723270D01*
X110868865Y-88568503D01*
X110868816Y-88412927D01*
X110868863Y-88257944D01*
X110869007Y-88104959D01*
X110869249Y-87955375D01*
X110869588Y-87810597D01*
X110870025Y-87672030D01*
X110870561Y-87541075D01*
X110871196Y-87419139D01*
X110871930Y-87307624D01*
X110872764Y-87207934D01*
X110873698Y-87121474D01*
X110874732Y-87049648D01*
X110875868Y-86993859D01*
X110877105Y-86955512D01*
X110878443Y-86936011D01*
X110881430Y-86918632D01*
X110901939Y-86848342D01*
X110933605Y-86781056D01*
X110972629Y-86725276D01*
X111002864Y-86690840D01*
X110437662Y-86690840D01*
X109872460Y-86690839D01*
X109908543Y-86744179D01*
X109928552Y-86775701D01*
X109945748Y-86807977D01*
X109960233Y-86842643D01*
X109972215Y-86881491D01*
X109981902Y-86926313D01*
X109989501Y-86978900D01*
X109995221Y-87041046D01*
X109999269Y-87114542D01*
X110001852Y-87201179D01*
X110003180Y-87302751D01*
X110003459Y-87421049D01*
X110002897Y-87557865D01*
X109999999Y-88023571D01*
X109659639Y-87594222D01*
X109623960Y-87549187D01*
X109531835Y-87432551D01*
X109451459Y-87330052D01*
X109382041Y-87240486D01*
X109322794Y-87162650D01*
X109272928Y-87095338D01*
X109231655Y-87037348D01*
X109198187Y-86987475D01*
X109171734Y-86944514D01*
X109151508Y-86907263D01*
X109136721Y-86874516D01*
X109126584Y-86845071D01*
X109120309Y-86817722D01*
X109117106Y-86791266D01*
X109116187Y-86764500D01*
X109116079Y-86690840D01*
X108516639Y-86691372D01*
X108441428Y-86691447D01*
X108327273Y-86691614D01*
X108231145Y-86691869D01*
X108151595Y-86692257D01*
X108087174Y-86692824D01*
X108036430Y-86693613D01*
X107997916Y-86694671D01*
X107970180Y-86696041D01*
X107951773Y-86697768D01*
X107941246Y-86699898D01*
X107937149Y-86702476D01*
X107938031Y-86705545D01*
X107942444Y-86709152D01*
X107976649Y-86734766D01*
X108025026Y-86775517D01*
X108078037Y-86823882D01*
X108131071Y-86875632D01*
X108179515Y-86926536D01*
X108190991Y-86939240D01*
X108205173Y-86955196D01*
X108220668Y-86972976D01*
X108238237Y-86993514D01*
X108258640Y-87017745D01*
X108282639Y-87046603D01*
X108310994Y-87081024D01*
X108344464Y-87121942D01*
X108383811Y-87170293D01*
X108429795Y-87227011D01*
X108483176Y-87293030D01*
X108544716Y-87369286D01*
X108615174Y-87456714D01*
X108695311Y-87556247D01*
X108785887Y-87668822D01*
X108887663Y-87795373D01*
X109001400Y-87936835D01*
X109353745Y-88375110D01*
X108804300Y-89130635D01*
X108749464Y-89205999D01*
X108643891Y-89350810D01*
X108549011Y-89480497D01*
X108464084Y-89596020D01*
X108388368Y-89698342D01*
X108321122Y-89788424D01*
X108261606Y-89867227D01*
X108209078Y-89935714D01*
X108162797Y-89994845D01*
X108122023Y-90045583D01*
X108086014Y-90088889D01*
X108054029Y-90125724D01*
X108025327Y-90157050D01*
X107999168Y-90183829D01*
X107974810Y-90207023D01*
X107909181Y-90267160D01*
X107740357Y-90267160D01*
X107709072Y-90228229D01*
X107697145Y-90211785D01*
X107674151Y-90173425D01*
X107655253Y-90134249D01*
X107632719Y-90079200D01*
X107629663Y-88987000D01*
X107629288Y-88837969D01*
X107628982Y-88662066D01*
X107628884Y-88505224D01*
X107628999Y-88366732D01*
X107629332Y-88245881D01*
X107629889Y-88141959D01*
X107630676Y-88054258D01*
X107631696Y-87982065D01*
X107632956Y-87924671D01*
X107634461Y-87881366D01*
X107636216Y-87851438D01*
X107638227Y-87834178D01*
X107647074Y-87798371D01*
X107675699Y-87725449D01*
X107715249Y-87658580D01*
X107731718Y-87635720D01*
X106784758Y-87635720D01*
X106782019Y-88857460D01*
X106781914Y-88904117D01*
X106781498Y-89082614D01*
X106781091Y-89242171D01*
X106780673Y-89383900D01*
X106780225Y-89508909D01*
X106779726Y-89618308D01*
X106779159Y-89713207D01*
X106778503Y-89794716D01*
X106777740Y-89863944D01*
X106776849Y-89922001D01*
X106775812Y-89969996D01*
X106774609Y-90009041D01*
X106773221Y-90040243D01*
X106771629Y-90064713D01*
X106769812Y-90083560D01*
X106767753Y-90097895D01*
X106765430Y-90108827D01*
X106762826Y-90117465D01*
X106759921Y-90124920D01*
X106751601Y-90142763D01*
X106730059Y-90182123D01*
X106706598Y-90218900D01*
X106672633Y-90267160D01*
X106389746Y-90267160D01*
X106389350Y-90174936D01*
X106389020Y-90069076D01*
X106388756Y-89950068D01*
X106388549Y-89817114D01*
X106388392Y-89669419D01*
X106388279Y-89506184D01*
X106388203Y-89326613D01*
X106388156Y-89129910D01*
X106388131Y-88915277D01*
X106388121Y-88681918D01*
X106388119Y-88429036D01*
X106388129Y-88186202D01*
X106388162Y-87949826D01*
X106388225Y-87732253D01*
X106388322Y-87532705D01*
X106388460Y-87350402D01*
X106388643Y-87184568D01*
X106388876Y-87034424D01*
X106389166Y-86899192D01*
X106389517Y-86778094D01*
X106389934Y-86670351D01*
X106390424Y-86575187D01*
X106390991Y-86491823D01*
X106391640Y-86419481D01*
X106392378Y-86357382D01*
X106393208Y-86304749D01*
X106394138Y-86260804D01*
X106395171Y-86224768D01*
X106396314Y-86195864D01*
X106397571Y-86173314D01*
X106398948Y-86156339D01*
X106400451Y-86144161D01*
X106402084Y-86136003D01*
X106403853Y-86131086D01*
X106418944Y-86110356D01*
X106444855Y-86086563D01*
X106472953Y-86068292D01*
X106496113Y-86060957D01*
X106499305Y-86063584D01*
X106504775Y-86084018D01*
X106509192Y-86124641D01*
X106512546Y-86185380D01*
X106513610Y-86207204D01*
X106525684Y-86313079D01*
X106549910Y-86406187D01*
X106588071Y-86490650D01*
X106641945Y-86570589D01*
X106713314Y-86650125D01*
X106714123Y-86650934D01*
X106801918Y-86727379D01*
X106893934Y-86785145D01*
X106992639Y-86825785D01*
X107025398Y-86835149D01*
X107058533Y-86841745D01*
X107096167Y-86845768D01*
X107143567Y-86847774D01*
X107205999Y-86848320D01*
X107266705Y-86847811D01*
X107314502Y-86845860D01*
X107352366Y-86841910D01*
X107385563Y-86835404D01*
X107419359Y-86825785D01*
X107479289Y-86803129D01*
X107573551Y-86752285D01*
X107660790Y-86686779D01*
X107738347Y-86609408D01*
X107803567Y-86522970D01*
X107853792Y-86430261D01*
X107886365Y-86334081D01*
X107889593Y-86318054D01*
X107895807Y-86271966D01*
X107900142Y-86218097D01*
X107901809Y-86165060D01*
X107901959Y-86060920D01*
X109548884Y-86060919D01*
X109628112Y-86060916D01*
X109839627Y-86060873D01*
X110032058Y-86060816D01*
X110206319Y-86060786D01*
X110363323Y-86060822D01*
X110503984Y-86060966D01*
X110629216Y-86061258D01*
X110739932Y-86061738D01*
X110837046Y-86062447D01*
X110921473Y-86063426D01*
X110994126Y-86064714D01*
X111055918Y-86066353D01*
X111107763Y-86068384D01*
X111150576Y-86070845D01*
X111185269Y-86073779D01*
X111212757Y-86077226D01*
X111233954Y-86081226D01*
X111249772Y-86085819D01*
X111261127Y-86091047D01*
X111268931Y-86096950D01*
X111274098Y-86103568D01*
X111277543Y-86110942D01*
X111280179Y-86119112D01*
X111282919Y-86128120D01*
X111286678Y-86138004D01*
X111286696Y-86138045D01*
X111288819Y-86143325D01*
X111290776Y-86149705D01*
X111292574Y-86157985D01*
X111294216Y-86168965D01*
X111295710Y-86183447D01*
X111297060Y-86202231D01*
X111298272Y-86226119D01*
X111299353Y-86255911D01*
X111300308Y-86292408D01*
X111301143Y-86336411D01*
X111301862Y-86388721D01*
X111302473Y-86450139D01*
X111302980Y-86521465D01*
X111303390Y-86603501D01*
X111303687Y-86690840D01*
X111303708Y-86697047D01*
G36*
X111303708Y-86697047D02*
G01*
X111303939Y-86802904D01*
X111304090Y-86921874D01*
X111304167Y-87054757D01*
X111304174Y-87202353D01*
X111304118Y-87365464D01*
X111304004Y-87544891D01*
X111303838Y-87741434D01*
X111303626Y-87955895D01*
X111303374Y-88189074D01*
X111303086Y-88441772D01*
X111300479Y-90702551D01*
X111279437Y-90731235D01*
X111278221Y-90732847D01*
X111253315Y-90757560D01*
X111223557Y-90777684D01*
X111220125Y-90779206D01*
X111214215Y-90781045D01*
X111205929Y-90782740D01*
X111194486Y-90784297D01*
X111179105Y-90785722D01*
X111159008Y-90787021D01*
X111133413Y-90788199D01*
X111101540Y-90789263D01*
X111062610Y-90790218D01*
X111015842Y-90791070D01*
X110960456Y-90791825D01*
X110895672Y-90792489D01*
X110820710Y-90793067D01*
X110734790Y-90793566D01*
X110637131Y-90793990D01*
X110526953Y-90794347D01*
X110403477Y-90794642D01*
X110265922Y-90794881D01*
X110113507Y-90795069D01*
X109945454Y-90795212D01*
X109760981Y-90795317D01*
X109559309Y-90795389D01*
X109339658Y-90795433D01*
X109101246Y-90795456D01*
X108843295Y-90795464D01*
X108630254Y-90795477D01*
X108385383Y-90795514D01*
X108159439Y-90795554D01*
X107951653Y-90795576D01*
X107761256Y-90795561D01*
X107587479Y-90795486D01*
X107429552Y-90795332D01*
X107286706Y-90795077D01*
X107158172Y-90794700D01*
X107043182Y-90794182D01*
X106940965Y-90793501D01*
X106850754Y-90792636D01*
X106771778Y-90791566D01*
X106703268Y-90790272D01*
X106644456Y-90788731D01*
X106594572Y-90786924D01*
X106552847Y-90784829D01*
X106518513Y-90782425D01*
X106490799Y-90779693D01*
X106468937Y-90776611D01*
X106452157Y-90773158D01*
X106439691Y-90769314D01*
X106430770Y-90765057D01*
X106424623Y-90760368D01*
X106420483Y-90755224D01*
X106417580Y-90749607D01*
X106415144Y-90743494D01*
X106412407Y-90736865D01*
X106408600Y-90729699D01*
X106406894Y-90726856D01*
X106404741Y-90722604D01*
X106402759Y-90717156D01*
X106400942Y-90709716D01*
X106399281Y-90699485D01*
X106397771Y-90685668D01*
X106396403Y-90667468D01*
X106395171Y-90644087D01*
X106394067Y-90614730D01*
X106393086Y-90578598D01*
X106392218Y-90534896D01*
X106391458Y-90482826D01*
X106390799Y-90421592D01*
X106390232Y-90350397D01*
X106389752Y-90268444D01*
X106389746Y-90267160D01*
X106672633Y-90267160D01*
X107740357Y-90267160D01*
X107909181Y-90267160D01*
X109153009Y-90267160D01*
X109145647Y-90244300D01*
X109139228Y-90207450D01*
X109139507Y-90156221D01*
X109146926Y-90101828D01*
X109160846Y-90052338D01*
X109161509Y-90050614D01*
X109172032Y-90025226D01*
X109184918Y-89998127D01*
X109201058Y-89967994D01*
X109221346Y-89933503D01*
X109246674Y-89893331D01*
X109277934Y-89846155D01*
X109316019Y-89790653D01*
X109361822Y-89725501D01*
X109416234Y-89649376D01*
X109480149Y-89560955D01*
X109554459Y-89458915D01*
X109640055Y-89341933D01*
X109999999Y-88850825D01*
X110003143Y-88921452D01*
X110003665Y-88943264D01*
X110004053Y-88984344D01*
X110004255Y-89041213D01*
X110004274Y-89111509D01*
X110004113Y-89192872D01*
X110003773Y-89282942D01*
X110003258Y-89379358D01*
X110002570Y-89479760D01*
X110002348Y-89508572D01*
X110001457Y-89616943D01*
X110000554Y-89707450D01*
X109999550Y-89782077D01*
X109998357Y-89842804D01*
X109996885Y-89891614D01*
X109995046Y-89930489D01*
X109992750Y-89961410D01*
X109989910Y-89986361D01*
X109986436Y-90007322D01*
X109982239Y-90026276D01*
X109977231Y-90045205D01*
X109970425Y-90068316D01*
X109950903Y-90124141D01*
X109929433Y-90173725D01*
X109908110Y-90212531D01*
X109889032Y-90236022D01*
X109879966Y-90245119D01*
X109872999Y-90258244D01*
X109876021Y-90259195D01*
X109896337Y-90260841D01*
X109934326Y-90262356D01*
X109988280Y-90263711D01*
X110056490Y-90264881D01*
X110137248Y-90265837D01*
X110228847Y-90266554D01*
X110329578Y-90267004D01*
X110437733Y-90267160D01*
X111002467Y-90267160D01*
X110972461Y-90229060D01*
X110939519Y-90181150D01*
X110901345Y-90102487D01*
X110879321Y-90021916D01*
X110878108Y-90006228D01*
X110876840Y-89970694D01*
X110875664Y-89917501D01*
X110874579Y-89848055D01*
X110873587Y-89763759D01*
X110872686Y-89666017D01*
X110871879Y-89556233D01*
X110871166Y-89435811D01*
X110870546Y-89306155D01*
X110870020Y-89168669D01*
X110869588Y-89024757D01*
X110869252Y-88875822D01*
X110869011Y-88723270D01*
X110868865Y-88568503D01*
X110868816Y-88412927D01*
X110868863Y-88257944D01*
X110869007Y-88104959D01*
X110869249Y-87955375D01*
X110869588Y-87810597D01*
X110870025Y-87672030D01*
X110870561Y-87541075D01*
X110871196Y-87419139D01*
X110871930Y-87307624D01*
X110872764Y-87207934D01*
X110873698Y-87121474D01*
X110874732Y-87049648D01*
X110875868Y-86993859D01*
X110877105Y-86955512D01*
X110878443Y-86936011D01*
X110881430Y-86918632D01*
X110901939Y-86848342D01*
X110933605Y-86781056D01*
X110972629Y-86725276D01*
X111002864Y-86690840D01*
X110437662Y-86690840D01*
X109872460Y-86690839D01*
X109908543Y-86744179D01*
X109928552Y-86775701D01*
X109945748Y-86807977D01*
X109960233Y-86842643D01*
X109972215Y-86881491D01*
X109981902Y-86926313D01*
X109989501Y-86978900D01*
X109995221Y-87041046D01*
X109999269Y-87114542D01*
X110001852Y-87201179D01*
X110003180Y-87302751D01*
X110003459Y-87421049D01*
X110002897Y-87557865D01*
X109999999Y-88023571D01*
X109659639Y-87594222D01*
X109623960Y-87549187D01*
X109531835Y-87432551D01*
X109451459Y-87330052D01*
X109382041Y-87240486D01*
X109322794Y-87162650D01*
X109272928Y-87095338D01*
X109231655Y-87037348D01*
X109198187Y-86987475D01*
X109171734Y-86944514D01*
X109151508Y-86907263D01*
X109136721Y-86874516D01*
X109126584Y-86845071D01*
X109120309Y-86817722D01*
X109117106Y-86791266D01*
X109116187Y-86764500D01*
X109116079Y-86690840D01*
X108516639Y-86691372D01*
X108441428Y-86691447D01*
X108327273Y-86691614D01*
X108231145Y-86691869D01*
X108151595Y-86692257D01*
X108087174Y-86692824D01*
X108036430Y-86693613D01*
X107997916Y-86694671D01*
X107970180Y-86696041D01*
X107951773Y-86697768D01*
X107941246Y-86699898D01*
X107937149Y-86702476D01*
X107938031Y-86705545D01*
X107942444Y-86709152D01*
X107976649Y-86734766D01*
X108025026Y-86775517D01*
X108078037Y-86823882D01*
X108131071Y-86875632D01*
X108179515Y-86926536D01*
X108190991Y-86939240D01*
X108205173Y-86955196D01*
X108220668Y-86972976D01*
X108238237Y-86993514D01*
X108258640Y-87017745D01*
X108282639Y-87046603D01*
X108310994Y-87081024D01*
X108344464Y-87121942D01*
X108383811Y-87170293D01*
X108429795Y-87227011D01*
X108483176Y-87293030D01*
X108544716Y-87369286D01*
X108615174Y-87456714D01*
X108695311Y-87556247D01*
X108785887Y-87668822D01*
X108887663Y-87795373D01*
X109001400Y-87936835D01*
X109353745Y-88375110D01*
X108804300Y-89130635D01*
X108749464Y-89205999D01*
X108643891Y-89350810D01*
X108549011Y-89480497D01*
X108464084Y-89596020D01*
X108388368Y-89698342D01*
X108321122Y-89788424D01*
X108261606Y-89867227D01*
X108209078Y-89935714D01*
X108162797Y-89994845D01*
X108122023Y-90045583D01*
X108086014Y-90088889D01*
X108054029Y-90125724D01*
X108025327Y-90157050D01*
X107999168Y-90183829D01*
X107974810Y-90207023D01*
X107909181Y-90267160D01*
X107740357Y-90267160D01*
X107709072Y-90228229D01*
X107697145Y-90211785D01*
X107674151Y-90173425D01*
X107655253Y-90134249D01*
X107632719Y-90079200D01*
X107629663Y-88987000D01*
X107629288Y-88837969D01*
X107628982Y-88662066D01*
X107628884Y-88505224D01*
X107628999Y-88366732D01*
X107629332Y-88245881D01*
X107629889Y-88141959D01*
X107630676Y-88054258D01*
X107631696Y-87982065D01*
X107632956Y-87924671D01*
X107634461Y-87881366D01*
X107636216Y-87851438D01*
X107638227Y-87834178D01*
X107647074Y-87798371D01*
X107675699Y-87725449D01*
X107715249Y-87658580D01*
X107731718Y-87635720D01*
X106784758Y-87635720D01*
X106782019Y-88857460D01*
X106781914Y-88904117D01*
X106781498Y-89082614D01*
X106781091Y-89242171D01*
X106780673Y-89383900D01*
X106780225Y-89508909D01*
X106779726Y-89618308D01*
X106779159Y-89713207D01*
X106778503Y-89794716D01*
X106777740Y-89863944D01*
X106776849Y-89922001D01*
X106775812Y-89969996D01*
X106774609Y-90009041D01*
X106773221Y-90040243D01*
X106771629Y-90064713D01*
X106769812Y-90083560D01*
X106767753Y-90097895D01*
X106765430Y-90108827D01*
X106762826Y-90117465D01*
X106759921Y-90124920D01*
X106751601Y-90142763D01*
X106730059Y-90182123D01*
X106706598Y-90218900D01*
X106672633Y-90267160D01*
X106389746Y-90267160D01*
X106389350Y-90174936D01*
X106389020Y-90069076D01*
X106388756Y-89950068D01*
X106388549Y-89817114D01*
X106388392Y-89669419D01*
X106388279Y-89506184D01*
X106388203Y-89326613D01*
X106388156Y-89129910D01*
X106388131Y-88915277D01*
X106388121Y-88681918D01*
X106388119Y-88429036D01*
X106388129Y-88186202D01*
X106388162Y-87949826D01*
X106388225Y-87732253D01*
X106388322Y-87532705D01*
X106388460Y-87350402D01*
X106388643Y-87184568D01*
X106388876Y-87034424D01*
X106389166Y-86899192D01*
X106389517Y-86778094D01*
X106389934Y-86670351D01*
X106390424Y-86575187D01*
X106390991Y-86491823D01*
X106391640Y-86419481D01*
X106392378Y-86357382D01*
X106393208Y-86304749D01*
X106394138Y-86260804D01*
X106395171Y-86224768D01*
X106396314Y-86195864D01*
X106397571Y-86173314D01*
X106398948Y-86156339D01*
X106400451Y-86144161D01*
X106402084Y-86136003D01*
X106403853Y-86131086D01*
X106418944Y-86110356D01*
X106444855Y-86086563D01*
X106472953Y-86068292D01*
X106496113Y-86060957D01*
X106499305Y-86063584D01*
X106504775Y-86084018D01*
X106509192Y-86124641D01*
X106512546Y-86185380D01*
X106513610Y-86207204D01*
X106525684Y-86313079D01*
X106549910Y-86406187D01*
X106588071Y-86490650D01*
X106641945Y-86570589D01*
X106713314Y-86650125D01*
X106714123Y-86650934D01*
X106801918Y-86727379D01*
X106893934Y-86785145D01*
X106992639Y-86825785D01*
X107025398Y-86835149D01*
X107058533Y-86841745D01*
X107096167Y-86845768D01*
X107143567Y-86847774D01*
X107205999Y-86848320D01*
X107266705Y-86847811D01*
X107314502Y-86845860D01*
X107352366Y-86841910D01*
X107385563Y-86835404D01*
X107419359Y-86825785D01*
X107479289Y-86803129D01*
X107573551Y-86752285D01*
X107660790Y-86686779D01*
X107738347Y-86609408D01*
X107803567Y-86522970D01*
X107853792Y-86430261D01*
X107886365Y-86334081D01*
X107889593Y-86318054D01*
X107895807Y-86271966D01*
X107900142Y-86218097D01*
X107901809Y-86165060D01*
X107901959Y-86060920D01*
X109548884Y-86060919D01*
X109628112Y-86060916D01*
X109839627Y-86060873D01*
X110032058Y-86060816D01*
X110206319Y-86060786D01*
X110363323Y-86060822D01*
X110503984Y-86060966D01*
X110629216Y-86061258D01*
X110739932Y-86061738D01*
X110837046Y-86062447D01*
X110921473Y-86063426D01*
X110994126Y-86064714D01*
X111055918Y-86066353D01*
X111107763Y-86068384D01*
X111150576Y-86070845D01*
X111185269Y-86073779D01*
X111212757Y-86077226D01*
X111233954Y-86081226D01*
X111249772Y-86085819D01*
X111261127Y-86091047D01*
X111268931Y-86096950D01*
X111274098Y-86103568D01*
X111277543Y-86110942D01*
X111280179Y-86119112D01*
X111282919Y-86128120D01*
X111286678Y-86138004D01*
X111286696Y-86138045D01*
X111288819Y-86143325D01*
X111290776Y-86149705D01*
X111292574Y-86157985D01*
X111294216Y-86168965D01*
X111295710Y-86183447D01*
X111297060Y-86202231D01*
X111298272Y-86226119D01*
X111299353Y-86255911D01*
X111300308Y-86292408D01*
X111301143Y-86336411D01*
X111301862Y-86388721D01*
X111302473Y-86450139D01*
X111302980Y-86521465D01*
X111303390Y-86603501D01*
X111303687Y-86690840D01*
X111303708Y-86697047D01*
G37*
%TO.C,G\u002A\u002A\u002A*%
G36*
X95513376Y-104738828D02*
G01*
X85511172Y-104738828D01*
X85511172Y-96098247D01*
X90779390Y-96098247D01*
X90963969Y-96091104D01*
X90964285Y-96091092D01*
X91067131Y-96089560D01*
X91140385Y-96097698D01*
X91205059Y-96120163D01*
X91282164Y-96161609D01*
X91415781Y-96239256D01*
X91415781Y-97256263D01*
X91644839Y-97256263D01*
X91644839Y-97141858D01*
X91924799Y-97141858D01*
X91934988Y-97209025D01*
X91969338Y-97240373D01*
X92040098Y-97256263D01*
X92055056Y-97259622D01*
X92208445Y-97268830D01*
X92351333Y-97247792D01*
X92467552Y-97197886D01*
X92510910Y-97164512D01*
X92548091Y-97119303D01*
X92575121Y-97058711D01*
X92593513Y-96975645D01*
X92604777Y-96863016D01*
X92610427Y-96713732D01*
X92611974Y-96520703D01*
X92611974Y-96060070D01*
X92701052Y-96060070D01*
X92727337Y-96059843D01*
X92770782Y-96052415D01*
X92787433Y-96023448D01*
X92790130Y-95958267D01*
X93120992Y-95958267D01*
X93120992Y-97256263D01*
X93349335Y-97256263D01*
X93356055Y-96452989D01*
X93362775Y-95649716D01*
X93617868Y-96192117D01*
X93698697Y-96364695D01*
X93775914Y-96525933D01*
X93838335Y-96642281D01*
X93890651Y-96713886D01*
X93937553Y-96740895D01*
X93983731Y-96723457D01*
X94033878Y-96661719D01*
X94092684Y-96555828D01*
X94164841Y-96405934D01*
X94255039Y-96212183D01*
X94298163Y-96120361D01*
X94366882Y-95975960D01*
X94427315Y-95851330D01*
X94476201Y-95753083D01*
X94510279Y-95687830D01*
X94526290Y-95662183D01*
X94528956Y-95667731D01*
X94533613Y-95714024D01*
X94537760Y-95802077D01*
X94541246Y-95925948D01*
X94543922Y-96079697D01*
X94545637Y-96257380D01*
X94546242Y-96453057D01*
X94546242Y-97256263D01*
X94749849Y-97256263D01*
X94749849Y-95398347D01*
X94428930Y-95398347D01*
X94192274Y-95901002D01*
X94163597Y-95961772D01*
X94095666Y-96104561D01*
X94035664Y-96229084D01*
X93986989Y-96328374D01*
X93953044Y-96395469D01*
X93937227Y-96423403D01*
X93931447Y-96420112D01*
X93906364Y-96381612D01*
X93865415Y-96306191D01*
X93811798Y-96200084D01*
X93748713Y-96069525D01*
X93679357Y-95920748D01*
X93439879Y-95398347D01*
X93120992Y-95398347D01*
X93120992Y-95958267D01*
X92790130Y-95958267D01*
X92789931Y-95928227D01*
X92783431Y-95878575D01*
X92758085Y-95859545D01*
X92701052Y-95856463D01*
X92611974Y-95856463D01*
X92611974Y-95449249D01*
X92408366Y-95449249D01*
X92408366Y-95856463D01*
X91924799Y-95856463D01*
X91924799Y-96060070D01*
X92408366Y-96060070D01*
X92408366Y-96468102D01*
X92406792Y-96647813D01*
X92399514Y-96802904D01*
X92383426Y-96917443D01*
X92355433Y-96996822D01*
X92312440Y-97046431D01*
X92251353Y-97071661D01*
X92169077Y-97077903D01*
X92062516Y-97070547D01*
X91924799Y-97056333D01*
X91924799Y-97141858D01*
X91644839Y-97141858D01*
X91644839Y-95856463D01*
X91415781Y-95856463D01*
X91415781Y-95958267D01*
X91415453Y-95981010D01*
X91410946Y-96037467D01*
X91402835Y-96060070D01*
X91391653Y-96055265D01*
X91348209Y-96028166D01*
X91286445Y-95985136D01*
X91274173Y-95976617D01*
X91171973Y-95923655D01*
X91053734Y-95885028D01*
X90938674Y-95865725D01*
X90846013Y-95870741D01*
X90844427Y-95871142D01*
X90802320Y-95888797D01*
X90783682Y-95923821D01*
X90779450Y-95992839D01*
X90779390Y-96098247D01*
X85511172Y-96098247D01*
X85511172Y-94736624D01*
X95513376Y-94736624D01*
X95513376Y-97256263D01*
X95513376Y-104738828D01*
G37*
D16*
%TO.C,U6*%
X107578100Y-97917200D02*
X107578100Y-102082800D01*
X102421900Y-102082800D02*
X102421900Y-97917200D01*
%TD*%
%LPC*%
D17*
%TO.C,J5*%
X110400000Y-111025000D03*
D18*
X110400000Y-113565000D03*
%TD*%
D19*
%TO.C,H12*%
X82620000Y-105310000D03*
%TD*%
D20*
%TO.C,H1*%
X119850000Y-117250000D03*
X120552944Y-115552944D03*
X120552944Y-118947056D03*
X122250000Y-114850000D03*
D21*
X122250000Y-117250000D03*
D20*
X122250000Y-119650000D03*
X123947056Y-115552944D03*
X123947056Y-118947056D03*
X124650000Y-117250000D03*
%TD*%
%TO.C,H3*%
X119850000Y-82750000D03*
X120552944Y-81052944D03*
X120552944Y-84447056D03*
X122250000Y-80350000D03*
D21*
X122250000Y-82750000D03*
D20*
X122250000Y-85150000D03*
X123947056Y-81052944D03*
X123947056Y-84447056D03*
X124650000Y-82750000D03*
%TD*%
%TO.C,H8*%
X85350000Y-82750000D03*
X86052944Y-81052944D03*
X86052944Y-84447056D03*
X87750000Y-80350000D03*
D21*
X87750000Y-82750000D03*
D20*
X87750000Y-85150000D03*
X89447056Y-81052944D03*
X89447056Y-84447056D03*
X90150000Y-82750000D03*
%TD*%
%TO.C,H9*%
X85350000Y-117250000D03*
X86052944Y-115552944D03*
X86052944Y-118947056D03*
X87750000Y-114850000D03*
D21*
X87750000Y-117250000D03*
D20*
X87750000Y-119650000D03*
X89447056Y-115552944D03*
X89447056Y-118947056D03*
X90150000Y-117250000D03*
%TD*%
D22*
%TO.C,J6*%
X107890000Y-78450000D03*
X102890000Y-78450000D03*
%TD*%
D23*
%TO.C,J1*%
X124810000Y-102940000D03*
X124810000Y-97160000D03*
D24*
X124280000Y-104370000D03*
D25*
X128460000Y-104370000D03*
D24*
X124280000Y-95730000D03*
D25*
X128460000Y-95730000D03*
%TD*%
D26*
%TO.C,J3*%
X96700000Y-113800000D03*
D27*
X94903949Y-115596051D03*
%TD*%
D17*
%TO.C,J2*%
X111540000Y-118450000D03*
D18*
X111540000Y-120990000D03*
X109000000Y-118450000D03*
X109000000Y-120990000D03*
X106460000Y-118450000D03*
X106460000Y-120990000D03*
X103920000Y-118450000D03*
X103920000Y-120990000D03*
X101380000Y-118450000D03*
X101380000Y-120990000D03*
X98840000Y-118450000D03*
X98840000Y-120990000D03*
%TD*%
D19*
%TO.C,H11*%
X81740000Y-100030000D03*
%TD*%
D28*
%TO.C,SW1*%
X124875000Y-92550000D03*
X124875000Y-90750000D03*
%TD*%
D19*
%TO.C,H10*%
X82440000Y-95030000D03*
%TD*%
D17*
%TO.C,J4*%
X111400000Y-91100000D03*
D18*
X108860000Y-91100000D03*
%TD*%
D28*
%TO.C,SW2*%
X124950000Y-109250000D03*
X124950000Y-107450000D03*
%TD*%
D29*
%TO.C,VbusMin1*%
X116625000Y-106270000D03*
X116625000Y-105630000D03*
%TD*%
%TO.C,Coarse1*%
X121425000Y-105895000D03*
X121425000Y-105255000D03*
%TD*%
%TO.C,Vbus1*%
X120200000Y-97570000D03*
X120200000Y-96930000D03*
%TD*%
D30*
%TO.C,VbusMax1*%
X118450000Y-106275000D03*
X117810000Y-106275000D03*
%TD*%
D31*
%TO.C,U6*%
X103095000Y-97347100D03*
X104365000Y-97347100D03*
X105635000Y-97347100D03*
X106905000Y-97347100D03*
X106905000Y-102652900D03*
X105635000Y-102652900D03*
X104365000Y-102652900D03*
X103095000Y-102652900D03*
%TD*%
%LPD*%
M02*
