%TF.GenerationSoftware,KiCad,Pcbnew,7.0.9*%
%TF.CreationDate,2024-02-12T03:50:36+01:00*%
%TF.ProjectId,MTR_Tiny_MD,4d54525f-5469-46e7-995f-4d442e6b6963,rev?*%
%TF.SameCoordinates,Original*%
%TF.FileFunction,Copper,L1,Top*%
%TF.FilePolarity,Positive*%
%FSLAX46Y46*%
G04 Gerber Fmt 4.6, Leading zero omitted, Abs format (unit mm)*
G04 Created by KiCad (PCBNEW 7.0.9) date 2024-02-12 03:50:36*
%MOMM*%
%LPD*%
G01*
G04 APERTURE LIST*
G04 Aperture macros list*
%AMRoundRect*
0 Rectangle with rounded corners*
0 $1 Rounding radius*
0 $2 $3 $4 $5 $6 $7 $8 $9 X,Y pos of 4 corners*
0 Add a 4 corners polygon primitive as box body*
4,1,4,$2,$3,$4,$5,$6,$7,$8,$9,$2,$3,0*
0 Add four circle primitives for the rounded corners*
1,1,$1+$1,$2,$3*
1,1,$1+$1,$4,$5*
1,1,$1+$1,$6,$7*
1,1,$1+$1,$8,$9*
0 Add four rect primitives between the rounded corners*
20,1,$1+$1,$2,$3,$4,$5,0*
20,1,$1+$1,$4,$5,$6,$7,0*
20,1,$1+$1,$6,$7,$8,$9,0*
20,1,$1+$1,$8,$9,$2,$3,0*%
%AMHorizOval*
0 Thick line with rounded ends*
0 $1 width*
0 $2 $3 position (X,Y) of the first rounded end (center of the circle)*
0 $4 $5 position (X,Y) of the second rounded end (center of the circle)*
0 Add line between two ends*
20,1,$1,$2,$3,$4,$5,0*
0 Add two circle primitives to create the rounded ends*
1,1,$1,$2,$3*
1,1,$1,$4,$5*%
%AMRotRect*
0 Rectangle, with rotation*
0 The origin of the aperture is its center*
0 $1 length*
0 $2 width*
0 $3 Rotation angle, in degrees counterclockwise*
0 Add horizontal line*
21,1,$1,$2,0,0,$3*%
G04 Aperture macros list end*
%TA.AperFunction,NonConductor*%
%ADD10C,0.200000*%
%TD*%
%TA.AperFunction,SMDPad,CuDef*%
%ADD11RoundRect,0.135000X-0.185000X0.135000X-0.185000X-0.135000X0.185000X-0.135000X0.185000X0.135000X0*%
%TD*%
%TA.AperFunction,SMDPad,CuDef*%
%ADD12RoundRect,0.250000X0.325000X0.650000X-0.325000X0.650000X-0.325000X-0.650000X0.325000X-0.650000X0*%
%TD*%
%TA.AperFunction,SMDPad,CuDef*%
%ADD13RoundRect,0.100000X-0.100000X0.130000X-0.100000X-0.130000X0.100000X-0.130000X0.100000X0.130000X0*%
%TD*%
%TA.AperFunction,SMDPad,CuDef*%
%ADD14RoundRect,0.140000X0.170000X-0.140000X0.170000X0.140000X-0.170000X0.140000X-0.170000X-0.140000X0*%
%TD*%
%TA.AperFunction,SMDPad,CuDef*%
%ADD15RoundRect,0.140000X-0.140000X-0.170000X0.140000X-0.170000X0.140000X0.170000X-0.140000X0.170000X0*%
%TD*%
%TA.AperFunction,SMDPad,CuDef*%
%ADD16RoundRect,0.225000X0.250000X-0.225000X0.250000X0.225000X-0.250000X0.225000X-0.250000X-0.225000X0*%
%TD*%
%TA.AperFunction,SMDPad,CuDef*%
%ADD17C,1.000000*%
%TD*%
%TA.AperFunction,SMDPad,CuDef*%
%ADD18RoundRect,0.225000X0.225000X0.250000X-0.225000X0.250000X-0.225000X-0.250000X0.225000X-0.250000X0*%
%TD*%
%TA.AperFunction,SMDPad,CuDef*%
%ADD19RoundRect,0.225000X-0.225000X-0.250000X0.225000X-0.250000X0.225000X0.250000X-0.225000X0.250000X0*%
%TD*%
%TA.AperFunction,ComponentPad*%
%ADD20R,1.700000X1.700000*%
%TD*%
%TA.AperFunction,ComponentPad*%
%ADD21O,1.700000X1.700000*%
%TD*%
%TA.AperFunction,SMDPad,CuDef*%
%ADD22RoundRect,0.250000X-0.375000X-1.075000X0.375000X-1.075000X0.375000X1.075000X-0.375000X1.075000X0*%
%TD*%
%TA.AperFunction,ComponentPad*%
%ADD23RoundRect,0.165000X1.210000X-1.210000X1.210000X1.210000X-1.210000X1.210000X-1.210000X-1.210000X0*%
%TD*%
%TA.AperFunction,SMDPad,CuDef*%
%ADD24RoundRect,0.135000X0.135000X0.185000X-0.135000X0.185000X-0.135000X-0.185000X0.135000X-0.185000X0*%
%TD*%
%TA.AperFunction,SMDPad,CuDef*%
%ADD25RoundRect,0.135000X-0.135000X-0.185000X0.135000X-0.185000X0.135000X0.185000X-0.135000X0.185000X0*%
%TD*%
%TA.AperFunction,SMDPad,CuDef*%
%ADD26RoundRect,0.250000X-0.325000X-0.650000X0.325000X-0.650000X0.325000X0.650000X-0.325000X0.650000X0*%
%TD*%
%TA.AperFunction,SMDPad,CuDef*%
%ADD27RoundRect,0.140000X0.140000X0.170000X-0.140000X0.170000X-0.140000X-0.170000X0.140000X-0.170000X0*%
%TD*%
%TA.AperFunction,SMDPad,CuDef*%
%ADD28RoundRect,0.218750X0.218750X0.256250X-0.218750X0.256250X-0.218750X-0.256250X0.218750X-0.256250X0*%
%TD*%
%TA.AperFunction,SMDPad,CuDef*%
%ADD29RoundRect,0.140000X-0.170000X0.140000X-0.170000X-0.140000X0.170000X-0.140000X0.170000X0.140000X0*%
%TD*%
%TA.AperFunction,ComponentPad*%
%ADD30C,0.800000*%
%TD*%
%TA.AperFunction,ComponentPad*%
%ADD31C,6.400000*%
%TD*%
%TA.AperFunction,SMDPad,CuDef*%
%ADD32RoundRect,0.135000X-0.226274X-0.035355X-0.035355X-0.226274X0.226274X0.035355X0.035355X0.226274X0*%
%TD*%
%TA.AperFunction,SMDPad,CuDef*%
%ADD33RoundRect,0.200000X-0.200000X-0.275000X0.200000X-0.275000X0.200000X0.275000X-0.200000X0.275000X0*%
%TD*%
%TA.AperFunction,ComponentPad*%
%ADD34C,2.362200*%
%TD*%
%TA.AperFunction,SMDPad,CuDef*%
%ADD35R,1.450000X0.600000*%
%TD*%
%TA.AperFunction,SMDPad,CuDef*%
%ADD36R,1.450000X0.300000*%
%TD*%
%TA.AperFunction,ComponentPad*%
%ADD37O,2.100000X1.000000*%
%TD*%
%TA.AperFunction,ComponentPad*%
%ADD38O,1.600000X1.000000*%
%TD*%
%TA.AperFunction,SMDPad,CuDef*%
%ADD39R,1.500000X0.900000*%
%TD*%
%TA.AperFunction,SMDPad,CuDef*%
%ADD40RoundRect,0.225000X-0.250000X0.225000X-0.250000X-0.225000X0.250000X-0.225000X0.250000X0.225000X0*%
%TD*%
%TA.AperFunction,SMDPad,CuDef*%
%ADD41R,1.000000X0.900000*%
%TD*%
%TA.AperFunction,SMDPad,CuDef*%
%ADD42R,0.600000X1.300000*%
%TD*%
%TA.AperFunction,ComponentPad*%
%ADD43RotRect,1.700000X1.700000X315.000000*%
%TD*%
%TA.AperFunction,ComponentPad*%
%ADD44HorizOval,1.700000X0.000000X0.000000X0.000000X0.000000X0*%
%TD*%
%TA.AperFunction,SMDPad,CuDef*%
%ADD45RoundRect,0.050000X-0.050000X0.387500X-0.050000X-0.387500X0.050000X-0.387500X0.050000X0.387500X0*%
%TD*%
%TA.AperFunction,SMDPad,CuDef*%
%ADD46RoundRect,0.050000X-0.387500X0.050000X-0.387500X-0.050000X0.387500X-0.050000X0.387500X0.050000X0*%
%TD*%
%TA.AperFunction,SMDPad,CuDef*%
%ADD47R,3.200000X3.200000*%
%TD*%
%TA.AperFunction,SMDPad,CuDef*%
%ADD48R,0.331000X0.680999*%
%TD*%
%TA.AperFunction,SMDPad,CuDef*%
%ADD49R,0.711200X1.041400*%
%TD*%
%TA.AperFunction,SMDPad,CuDef*%
%ADD50RoundRect,0.135000X0.185000X-0.135000X0.185000X0.135000X-0.185000X0.135000X-0.185000X-0.135000X0*%
%TD*%
%TA.AperFunction,SMDPad,CuDef*%
%ADD51RoundRect,0.131250X0.393750X-0.668750X0.393750X0.668750X-0.393750X0.668750X-0.393750X-0.668750X0*%
%TD*%
%TA.AperFunction,SMDPad,CuDef*%
%ADD52R,0.254800X0.807999*%
%TD*%
%TA.AperFunction,SMDPad,CuDef*%
%ADD53R,0.807999X0.254800*%
%TD*%
%TA.AperFunction,SMDPad,CuDef*%
%ADD54R,5.791200X3.810000*%
%TD*%
%TA.AperFunction,SMDPad,CuDef*%
%ADD55R,0.757199X0.254800*%
%TD*%
%TA.AperFunction,SMDPad,CuDef*%
%ADD56R,2.743200X2.743200*%
%TD*%
%TA.AperFunction,SMDPad,CuDef*%
%ADD57R,0.203200X1.600200*%
%TD*%
%TA.AperFunction,ViaPad*%
%ADD58C,0.450000*%
%TD*%
%TA.AperFunction,Conductor*%
%ADD59C,0.100000*%
%TD*%
%TA.AperFunction,Conductor*%
%ADD60C,0.200000*%
%TD*%
%TA.AperFunction,Conductor*%
%ADD61C,0.300000*%
%TD*%
%TA.AperFunction,Conductor*%
%ADD62C,0.500000*%
%TD*%
%TA.AperFunction,Conductor*%
%ADD63C,0.700000*%
%TD*%
%TA.AperFunction,Conductor*%
%ADD64C,0.228600*%
%TD*%
%TA.AperFunction,Conductor*%
%ADD65C,0.400000*%
%TD*%
%TA.AperFunction,Conductor*%
%ADD66C,1.000000*%
%TD*%
%TA.AperFunction,Conductor*%
%ADD67C,0.750000*%
%TD*%
%TA.AperFunction,Conductor*%
%ADD68C,0.900000*%
%TD*%
G04 APERTURE END LIST*
D10*
X121375000Y-97800000D02*
X116425000Y-97800000D01*
X116425000Y-98775000D01*
X116225000Y-98775000D01*
X116225000Y-97400000D01*
X121375000Y-97400000D01*
X121375000Y-97800000D01*
%TA.AperFunction,NonConductor*%
G36*
X121375000Y-97800000D02*
G01*
X116425000Y-97800000D01*
X116425000Y-98775000D01*
X116225000Y-98775000D01*
X116225000Y-97400000D01*
X121375000Y-97400000D01*
X121375000Y-97800000D01*
G37*
%TD.AperFunction*%
X120675000Y-104325000D02*
X120675000Y-105375000D01*
X120275000Y-105375000D01*
X118425000Y-105375000D01*
X118425000Y-107400000D01*
X117425000Y-107400000D01*
X117425000Y-104700000D01*
X117425000Y-104125000D01*
X120125000Y-104125000D01*
X120125000Y-100250000D01*
X119425000Y-100250000D01*
X119425000Y-100100000D01*
X120675000Y-100100000D01*
X120675000Y-104325000D01*
%TA.AperFunction,NonConductor*%
G36*
X120675000Y-104325000D02*
G01*
X120675000Y-105375000D01*
X120275000Y-105375000D01*
X118425000Y-105375000D01*
X118425000Y-107400000D01*
X117425000Y-107400000D01*
X117425000Y-104700000D01*
X117425000Y-104125000D01*
X120125000Y-104125000D01*
X120125000Y-100250000D01*
X119425000Y-100250000D01*
X119425000Y-100100000D01*
X120675000Y-100100000D01*
X120675000Y-104325000D01*
G37*
%TD.AperFunction*%
X122950000Y-97800000D02*
X122250000Y-97800000D01*
X122250000Y-102300000D01*
X122950000Y-102300000D01*
X122950000Y-102700000D01*
X121175000Y-102700000D01*
X121175000Y-97400000D01*
X122950000Y-97400000D01*
X122950000Y-97800000D01*
%TA.AperFunction,NonConductor*%
G36*
X122950000Y-97800000D02*
G01*
X122250000Y-97800000D01*
X122250000Y-102300000D01*
X122950000Y-102300000D01*
X122950000Y-102700000D01*
X121175000Y-102700000D01*
X121175000Y-97400000D01*
X122950000Y-97400000D01*
X122950000Y-97800000D01*
G37*
%TD.AperFunction*%
X111100000Y-83475000D02*
X111100000Y-83875000D01*
X106400000Y-83875000D01*
X106400000Y-82350000D01*
X109925000Y-82350000D01*
X111100000Y-83475000D01*
%TA.AperFunction,NonConductor*%
G36*
X111100000Y-83475000D02*
G01*
X111100000Y-83875000D01*
X106400000Y-83875000D01*
X106400000Y-82350000D01*
X109925000Y-82350000D01*
X111100000Y-83475000D01*
G37*
%TD.AperFunction*%
X85675000Y-99037788D02*
X85675000Y-99412788D01*
X83525000Y-99412788D01*
X83525000Y-97012788D01*
X85675000Y-99037788D01*
%TA.AperFunction,NonConductor*%
G36*
X85675000Y-99037788D02*
G01*
X85675000Y-99412788D01*
X83525000Y-99412788D01*
X83525000Y-97012788D01*
X85675000Y-99037788D01*
G37*
%TD.AperFunction*%
X108865916Y-102600000D02*
X111315916Y-102625000D01*
X111315916Y-104850000D01*
X107515916Y-104875000D01*
X107515916Y-101800000D01*
X108865916Y-101800000D01*
X108865916Y-102600000D01*
%TA.AperFunction,NonConductor*%
G36*
X108865916Y-102600000D02*
G01*
X111315916Y-102625000D01*
X111315916Y-104850000D01*
X107515916Y-104875000D01*
X107515916Y-101800000D01*
X108865916Y-101800000D01*
X108865916Y-102600000D01*
G37*
%TD.AperFunction*%
X107550000Y-94850000D02*
X108800000Y-94850000D01*
X108800000Y-96500000D01*
X107550000Y-96500000D01*
X107550000Y-94850000D01*
%TA.AperFunction,NonConductor*%
G36*
X107550000Y-94850000D02*
G01*
X108800000Y-94850000D01*
X108800000Y-96500000D01*
X107550000Y-96500000D01*
X107550000Y-94850000D01*
G37*
%TD.AperFunction*%
X104100000Y-82225000D02*
X104100000Y-83900000D01*
X103125000Y-83900000D01*
X103125000Y-82875000D01*
X97925657Y-82875000D01*
X97925000Y-81100000D01*
X104100000Y-81100000D01*
X104100000Y-82225000D01*
%TA.AperFunction,NonConductor*%
G36*
X104100000Y-82225000D02*
G01*
X104100000Y-83900000D01*
X103125000Y-83900000D01*
X103125000Y-82875000D01*
X97925657Y-82875000D01*
X97925000Y-81100000D01*
X104100000Y-81100000D01*
X104100000Y-82225000D01*
G37*
%TD.AperFunction*%
X86025000Y-100825000D02*
X85575000Y-100825000D01*
X85575000Y-100775000D01*
X86025000Y-100775000D01*
X86025000Y-100825000D01*
%TA.AperFunction,NonConductor*%
G36*
X86025000Y-100825000D02*
G01*
X85575000Y-100825000D01*
X85575000Y-100775000D01*
X86025000Y-100775000D01*
X86025000Y-100825000D01*
G37*
%TD.AperFunction*%
X118350000Y-81150000D02*
X118350000Y-81500000D01*
X118350000Y-83375000D01*
X116400657Y-83375000D01*
X116400000Y-80025000D01*
X118350000Y-80025000D01*
X118350000Y-81150000D01*
%TA.AperFunction,NonConductor*%
G36*
X118350000Y-81150000D02*
G01*
X118350000Y-81500000D01*
X118350000Y-83375000D01*
X116400657Y-83375000D01*
X116400000Y-80025000D01*
X118350000Y-80025000D01*
X118350000Y-81150000D01*
G37*
%TD.AperFunction*%
X106425000Y-91050000D02*
X102800000Y-91050000D01*
X102800000Y-89675000D01*
X105225000Y-89675000D01*
X105225000Y-88225000D01*
X106425000Y-88225000D01*
X106425000Y-91050000D01*
%TA.AperFunction,NonConductor*%
G36*
X106425000Y-91050000D02*
G01*
X102800000Y-91050000D01*
X102800000Y-89675000D01*
X105225000Y-89675000D01*
X105225000Y-88225000D01*
X106425000Y-88225000D01*
X106425000Y-91050000D01*
G37*
%TD.AperFunction*%
X85675000Y-100825000D02*
X83525000Y-102925000D01*
X83525000Y-100650000D01*
X85675000Y-100650000D01*
X85675000Y-100825000D01*
%TA.AperFunction,NonConductor*%
G36*
X85675000Y-100825000D02*
G01*
X83525000Y-102925000D01*
X83525000Y-100650000D01*
X85675000Y-100650000D01*
X85675000Y-100825000D01*
G37*
%TD.AperFunction*%
X86250000Y-92400000D02*
X82850000Y-92400000D01*
X82850000Y-90625000D01*
X86250000Y-90625000D01*
X86250000Y-92400000D01*
%TA.AperFunction,NonConductor*%
G36*
X86250000Y-92400000D02*
G01*
X82850000Y-92400000D01*
X82850000Y-90625000D01*
X86250000Y-90625000D01*
X86250000Y-92400000D01*
G37*
%TD.AperFunction*%
X107550000Y-93700000D02*
X109450000Y-93700000D01*
X109450000Y-94900000D01*
X107550000Y-94900000D01*
X107550000Y-93700000D01*
%TA.AperFunction,NonConductor*%
G36*
X107550000Y-93700000D02*
G01*
X109450000Y-93700000D01*
X109450000Y-94900000D01*
X107550000Y-94900000D01*
X107550000Y-93700000D01*
G37*
%TD.AperFunction*%
X102275000Y-87811679D02*
X103650000Y-88311679D01*
X104550000Y-88311679D01*
X104550000Y-89261679D01*
X101125000Y-89261679D01*
X101125000Y-86011679D01*
X102275000Y-86011679D01*
X102275000Y-87811679D01*
%TA.AperFunction,NonConductor*%
G36*
X102275000Y-87811679D02*
G01*
X103650000Y-88311679D01*
X104550000Y-88311679D01*
X104550000Y-89261679D01*
X101125000Y-89261679D01*
X101125000Y-86011679D01*
X102275000Y-86011679D01*
X102275000Y-87811679D01*
G37*
%TD.AperFunction*%
X108725000Y-100200000D02*
X107600000Y-100200000D01*
X107600000Y-101850000D01*
X107525000Y-101850000D01*
X107525000Y-99800000D01*
X108725000Y-99800000D01*
X108725000Y-100200000D01*
%TA.AperFunction,NonConductor*%
G36*
X108725000Y-100200000D02*
G01*
X107600000Y-100200000D01*
X107600000Y-101850000D01*
X107525000Y-101850000D01*
X107525000Y-99800000D01*
X108725000Y-99800000D01*
X108725000Y-100200000D01*
G37*
%TD.AperFunction*%
X117550000Y-106600000D02*
X114700000Y-106600000D01*
X114700000Y-107800000D01*
X114400000Y-107800000D01*
X114400000Y-106050000D01*
X117550000Y-106050000D01*
X117550000Y-106600000D01*
%TA.AperFunction,NonConductor*%
G36*
X117550000Y-106600000D02*
G01*
X114700000Y-106600000D01*
X114700000Y-107800000D01*
X114400000Y-107800000D01*
X114400000Y-106050000D01*
X117550000Y-106050000D01*
X117550000Y-106600000D01*
G37*
%TD.AperFunction*%
X86050000Y-99325000D02*
X85600000Y-99325000D01*
X85600000Y-99275000D01*
X86050000Y-99275000D01*
X86050000Y-99325000D01*
%TA.AperFunction,NonConductor*%
G36*
X86050000Y-99325000D02*
G01*
X85600000Y-99325000D01*
X85600000Y-99275000D01*
X86050000Y-99275000D01*
X86050000Y-99325000D01*
G37*
%TD.AperFunction*%
X114695173Y-108020355D02*
X115070173Y-108445355D01*
X113895173Y-109645355D01*
X113295173Y-109045355D01*
X114395173Y-107920355D01*
X114395173Y-107745355D01*
X114695173Y-107745355D01*
X114695173Y-108020355D01*
%TA.AperFunction,NonConductor*%
G36*
X114695173Y-108020355D02*
G01*
X115070173Y-108445355D01*
X113895173Y-109645355D01*
X113295173Y-109045355D01*
X114395173Y-107920355D01*
X114395173Y-107745355D01*
X114695173Y-107745355D01*
X114695173Y-108020355D01*
G37*
%TD.AperFunction*%
X91550000Y-92400000D02*
X88150000Y-92400000D01*
X88150000Y-90625000D01*
X91550000Y-90625000D01*
X91550000Y-92400000D01*
%TA.AperFunction,NonConductor*%
G36*
X91550000Y-92400000D02*
G01*
X88150000Y-92400000D01*
X88150000Y-90625000D01*
X91550000Y-90625000D01*
X91550000Y-92400000D01*
G37*
%TD.AperFunction*%
X114100000Y-87950000D02*
X111800000Y-87950000D01*
X110575000Y-86975000D01*
X110575000Y-84875000D01*
X111600000Y-84325000D01*
X111600000Y-83700000D01*
X114100000Y-83700000D01*
X114100000Y-87950000D01*
%TA.AperFunction,NonConductor*%
G36*
X114100000Y-87950000D02*
G01*
X111800000Y-87950000D01*
X110575000Y-86975000D01*
X110575000Y-84875000D01*
X111600000Y-84325000D01*
X111600000Y-83700000D01*
X114100000Y-83700000D01*
X114100000Y-87950000D01*
G37*
%TD.AperFunction*%
X116600000Y-96700000D02*
X119450000Y-96700000D01*
X119450000Y-97525000D01*
X116600000Y-97525000D01*
X116600000Y-96700000D01*
%TA.AperFunction,NonConductor*%
G36*
X116600000Y-96700000D02*
G01*
X119450000Y-96700000D01*
X119450000Y-97525000D01*
X116600000Y-97525000D01*
X116600000Y-96700000D01*
G37*
%TD.AperFunction*%
X96100000Y-83437500D02*
X99200000Y-83437500D01*
X99200000Y-87762500D01*
X96100000Y-87762500D01*
X96100000Y-83437500D01*
%TA.AperFunction,NonConductor*%
G36*
X96100000Y-83437500D02*
G01*
X99200000Y-83437500D01*
X99200000Y-87762500D01*
X96100000Y-87762500D01*
X96100000Y-83437500D01*
G37*
%TD.AperFunction*%
D11*
%TO.P,R9,1*%
%TO.N,Net-(R9-Pad1)*%
X121425000Y-111765000D03*
%TO.P,R9,2*%
%TO.N,RUN*%
X121425000Y-112785000D03*
%TD*%
%TO.P,R3,1*%
%TO.N,Net-(Y1-CRYSTAL_2)*%
X98775000Y-93215000D03*
%TO.P,R3,2*%
%TO.N,XOUT*%
X98775000Y-94235000D03*
%TD*%
D12*
%TO.P,C39,1*%
%TO.N,Net-(U7-VCC)*%
X101675000Y-84300000D03*
%TO.P,C39,2*%
%TO.N,GND*%
X98725000Y-84300000D03*
%TD*%
D13*
%TO.P,C33,1*%
%TO.N,Current_C*%
X99250000Y-105770000D03*
%TO.P,C33,2*%
%TO.N,GND*%
X99250000Y-106410000D03*
%TD*%
D14*
%TO.P,C44,1*%
%TO.N,GND*%
X117100000Y-118555000D03*
%TO.P,C44,2*%
%TO.N,RUN*%
X117100000Y-117595000D03*
%TD*%
D15*
%TO.P,C6,1*%
%TO.N,GND*%
X97340000Y-98403750D03*
%TO.P,C6,2*%
%TO.N,3V3_BUCK*%
X98300000Y-98403750D03*
%TD*%
D16*
%TO.P,C36,1*%
%TO.N,GND*%
X90300000Y-107375000D03*
%TO.P,C36,2*%
%TO.N,3V3_BUCK*%
X90300000Y-105825000D03*
%TD*%
D17*
%TO.P,H6,1,1*%
%TO.N,3V3_BUCK*%
X94325000Y-81625000D03*
%TD*%
D18*
%TO.P,C28,1*%
%TO.N,ALIM*%
X87500000Y-95325000D03*
%TO.P,C28,2*%
%TO.N,GND*%
X85950000Y-95325000D03*
%TD*%
D19*
%TO.P,C27,1*%
%TO.N,Net-(U5-CPH)*%
X90675000Y-94650000D03*
%TO.P,C27,2*%
%TO.N,Net-(U5-CPL)*%
X92225000Y-94650000D03*
%TD*%
D20*
%TO.P,J5,1*%
%TO.N,GND*%
X110400000Y-111025000D03*
D21*
%TO.P,J5,2*%
%TO.N,DOUT*%
X110400000Y-113565000D03*
%TD*%
D22*
%TO.P,L2,1*%
%TO.N,Net-(U7-LX)*%
X107900000Y-86000000D03*
%TO.P,L2,2*%
%TO.N,3V3_BUCK*%
X110700000Y-86000000D03*
%TD*%
D23*
%TO.P,H12,1,1*%
%TO.N,OUTC*%
X82620000Y-105310000D03*
%TD*%
D24*
%TO.P,R22,1*%
%TO.N,GND*%
X120585000Y-110750000D03*
%TO.P,R22,2*%
%TO.N,ISNK_FINE*%
X119565000Y-110750000D03*
%TD*%
D19*
%TO.P,C41,1*%
%TO.N,3V3_BUCK*%
X104075000Y-88775000D03*
%TO.P,C41,2*%
%TO.N,GND*%
X105625000Y-88775000D03*
%TD*%
D15*
%TO.P,C34,1*%
%TO.N,VREF*%
X97340000Y-101601250D03*
%TO.P,C34,2*%
%TO.N,GND*%
X98300000Y-101601250D03*
%TD*%
D25*
%TO.P,R23,1*%
%TO.N,ISNK_FINE*%
X119565000Y-109575000D03*
%TO.P,R23,2*%
%TO.N,3V3_BUCK*%
X120585000Y-109575000D03*
%TD*%
D26*
%TO.P,C38,1*%
%TO.N,ALIM*%
X103625000Y-83100000D03*
%TO.P,C38,2*%
%TO.N,GND*%
X106575000Y-83100000D03*
%TD*%
D24*
%TO.P,R12,1*%
%TO.N,Net-(D3-A)*%
X123635000Y-112750000D03*
%TO.P,R12,2*%
%TO.N,GPIO23*%
X122615000Y-112750000D03*
%TD*%
D27*
%TO.P,C35,1*%
%TO.N,GND*%
X98300000Y-103200000D03*
%TO.P,C35,2*%
%TO.N,VREF*%
X97340000Y-103200000D03*
%TD*%
D12*
%TO.P,C40,1*%
%TO.N,3V3_BUCK*%
X101675000Y-86900000D03*
%TO.P,C40,2*%
%TO.N,GND*%
X98725000Y-86900000D03*
%TD*%
D28*
%TO.P,D3,1,K*%
%TO.N,GND*%
X124437500Y-111175000D03*
%TO.P,D3,2,A*%
%TO.N,Net-(D3-A)*%
X122862500Y-111175000D03*
%TD*%
D29*
%TO.P,C32,1*%
%TO.N,3V3_BUCK*%
X109065000Y-104700000D03*
%TO.P,C32,2*%
%TO.N,GND*%
X109065000Y-105660000D03*
%TD*%
D11*
%TO.P,R8,1*%
%TO.N,Current_C*%
X98150000Y-105790000D03*
%TO.P,R8,2*%
%TO.N,Net-(U1-GPIO28_ADC2)*%
X98150000Y-106810000D03*
%TD*%
D30*
%TO.P,H1,1,1*%
%TO.N,GND*%
X119850000Y-117250000D03*
X120552944Y-115552944D03*
X120552944Y-118947056D03*
X122250000Y-114850000D03*
D31*
X122250000Y-117250000D03*
D30*
X122250000Y-119650000D03*
X123947056Y-115552944D03*
X123947056Y-118947056D03*
X124650000Y-117250000D03*
%TD*%
D14*
%TO.P,C2,1*%
%TO.N,GND*%
X101000000Y-91230000D03*
%TO.P,C2,2*%
%TO.N,XIN*%
X101000000Y-90270000D03*
%TD*%
D30*
%TO.P,H3,1,1*%
%TO.N,GND*%
X119850000Y-82750000D03*
X120552944Y-81052944D03*
X120552944Y-84447056D03*
X122250000Y-80350000D03*
D31*
X122250000Y-82750000D03*
D30*
X122250000Y-85150000D03*
X123947056Y-81052944D03*
X123947056Y-84447056D03*
X124650000Y-82750000D03*
%TD*%
D24*
%TO.P,R1,1*%
%TO.N,USB_D+*%
X111485000Y-99525000D03*
%TO.P,R1,2*%
%TO.N,/D+*%
X110465000Y-99525000D03*
%TD*%
D32*
%TO.P,R19,1*%
%TO.N,3V3_BUCK*%
X115939376Y-115325000D03*
%TO.P,R19,2*%
%TO.N,RUN*%
X116660624Y-116046248D03*
%TD*%
D24*
%TO.P,R11,1*%
%TO.N,Net-(D2-A)*%
X123460000Y-87350000D03*
%TO.P,R11,2*%
%TO.N,3V3_BUCK*%
X122440000Y-87350000D03*
%TD*%
D30*
%TO.P,H8,1,1*%
%TO.N,GND*%
X85350000Y-82750000D03*
X86052944Y-81052944D03*
X86052944Y-84447056D03*
X87750000Y-80350000D03*
D31*
X87750000Y-82750000D03*
D30*
X87750000Y-85150000D03*
X89447056Y-81052944D03*
X89447056Y-84447056D03*
X90150000Y-82750000D03*
%TD*%
D33*
%TO.P,R13,1*%
%TO.N,/SW_BK*%
X93750000Y-94625000D03*
%TO.P,R13,2*%
%TO.N,DRV_BUCK_OUT*%
X95400000Y-94625000D03*
%TD*%
D30*
%TO.P,H9,1,1*%
%TO.N,GND*%
X85350000Y-117250000D03*
X86052944Y-115552944D03*
X86052944Y-118947056D03*
X87750000Y-114850000D03*
D31*
X87750000Y-117250000D03*
D30*
X87750000Y-119650000D03*
X89447056Y-115552944D03*
X89447056Y-118947056D03*
X90150000Y-117250000D03*
%TD*%
D27*
%TO.P,C1,1*%
%TO.N,GND*%
X111805000Y-98175000D03*
%TO.P,C1,2*%
%TO.N,+1V1*%
X110845000Y-98175000D03*
%TD*%
D34*
%TO.P,J6,1,1*%
%TO.N,/VM*%
X107890000Y-78450000D03*
%TO.P,J6,2,2*%
%TO.N,GND*%
X102890000Y-78450000D03*
%TD*%
D13*
%TO.P,C29,1*%
%TO.N,Current_A*%
X94850000Y-105770000D03*
%TO.P,C29,2*%
%TO.N,GND*%
X94850000Y-106410000D03*
%TD*%
D14*
%TO.P,C10,1*%
%TO.N,GND*%
X103525000Y-107360000D03*
%TO.P,C10,2*%
%TO.N,3V3_BUCK*%
X103525000Y-106400000D03*
%TD*%
D13*
%TO.P,C31,1*%
%TO.N,Current_B*%
X97050000Y-105770000D03*
%TO.P,C31,2*%
%TO.N,GND*%
X97050000Y-106410000D03*
%TD*%
D29*
%TO.P,C21,1*%
%TO.N,GND*%
X121375000Y-96620000D03*
%TO.P,C21,2*%
%TO.N,+VBUS*%
X121375000Y-97580000D03*
%TD*%
D35*
%TO.P,J1,A1,GND*%
%TO.N,GND*%
X123365000Y-103300000D03*
%TO.P,J1,A4,VBUS*%
%TO.N,+VBUS*%
X123365000Y-102500000D03*
D36*
%TO.P,J1,A5,CC1*%
%TO.N,/CC1*%
X123365000Y-101300000D03*
%TO.P,J1,A6,D+*%
%TO.N,unconnected-(J1-D+-PadA6)*%
X123365000Y-100300000D03*
%TO.P,J1,A7,D-*%
%TO.N,unconnected-(J1-D--PadA7)*%
X123365000Y-99800000D03*
%TO.P,J1,A8,SBU1*%
%TO.N,unconnected-(J1-SBU1-PadA8)*%
X123365000Y-98800000D03*
D35*
%TO.P,J1,A9,VBUS*%
%TO.N,+VBUS*%
X123365000Y-97600000D03*
%TO.P,J1,A12,GND*%
%TO.N,GND*%
X123365000Y-96800000D03*
%TO.P,J1,B1,GND*%
X123365000Y-96800000D03*
%TO.P,J1,B4,VBUS*%
%TO.N,+VBUS*%
X123365000Y-97600000D03*
D36*
%TO.P,J1,B5,CC2*%
%TO.N,/CC2*%
X123365000Y-98300000D03*
%TO.P,J1,B6,D+*%
%TO.N,USB_D+*%
X123365000Y-99300000D03*
%TO.P,J1,B7,D-*%
%TO.N,USB_D-*%
X123365000Y-100800000D03*
%TO.P,J1,B8,SBU2*%
%TO.N,unconnected-(J1-SBU2-PadB8)*%
X123365000Y-101800000D03*
D35*
%TO.P,J1,B9,VBUS*%
%TO.N,+VBUS*%
X123365000Y-102500000D03*
%TO.P,J1,B12,GND*%
%TO.N,GND*%
X123365000Y-103300000D03*
D37*
%TO.P,J1,S1,SHIELD*%
%TO.N,unconnected-(J1-SHIELD-PadS1)*%
X124280000Y-104370000D03*
D38*
X128460000Y-104370000D03*
D37*
X124280000Y-95730000D03*
D38*
X128460000Y-95730000D03*
%TD*%
D25*
%TO.P,R2,1*%
%TO.N,/D-*%
X110465000Y-100550000D03*
%TO.P,R2,2*%
%TO.N,USB_D-*%
X111485000Y-100550000D03*
%TD*%
D27*
%TO.P,C15,1*%
%TO.N,VDDD*%
X114055000Y-100425000D03*
%TO.P,C15,2*%
%TO.N,GND*%
X113095000Y-100425000D03*
%TD*%
D39*
%TO.P,D1,1,VDD*%
%TO.N,3V3_BUCK*%
X102500000Y-110650000D03*
%TO.P,D1,2,DOUT*%
%TO.N,DOUT*%
X102500000Y-113950000D03*
%TO.P,D1,3,VSS*%
%TO.N,GND*%
X107400000Y-113950000D03*
%TO.P,D1,4,DIN*%
%TO.N,GPIO25*%
X107400000Y-110650000D03*
%TD*%
D29*
%TO.P,C8,1*%
%TO.N,GND*%
X106190000Y-90820000D03*
%TO.P,C8,2*%
%TO.N,3V3_BUCK*%
X106190000Y-91780000D03*
%TD*%
D16*
%TO.P,C12,1*%
%TO.N,GND*%
X110650000Y-106525000D03*
%TO.P,C12,2*%
%TO.N,3V3_BUCK*%
X110650000Y-104975000D03*
%TD*%
D27*
%TO.P,C17,1*%
%TO.N,VDDD*%
X114055000Y-98800000D03*
%TO.P,C17,2*%
%TO.N,GND*%
X113095000Y-98800000D03*
%TD*%
D11*
%TO.P,R26,1*%
%TO.N,+VBUS_FET_EN*%
X120475000Y-107300000D03*
%TO.P,R26,2*%
%TO.N,GATE*%
X120475000Y-108320000D03*
%TD*%
D40*
%TO.P,C37,1*%
%TO.N,3V3_BUCK*%
X100450000Y-110675000D03*
%TO.P,C37,2*%
%TO.N,GND*%
X100450000Y-112225000D03*
%TD*%
D41*
%TO.P,Y1,1,CRYSTAL_1*%
%TO.N,XIN*%
X99450000Y-90400000D03*
%TO.P,Y1,2,GND_1*%
%TO.N,GND*%
X97600000Y-90400000D03*
%TO.P,Y1,3,CRYSTAL_2*%
%TO.N,Net-(Y1-CRYSTAL_2)*%
X97600000Y-91950000D03*
%TO.P,Y1,4,GND_2*%
%TO.N,GND*%
X99450000Y-91950000D03*
%TD*%
D14*
%TO.P,C19,1*%
%TO.N,GND*%
X121425000Y-103455000D03*
%TO.P,C19,2*%
%TO.N,+VBUS*%
X121425000Y-102495000D03*
%TD*%
D18*
%TO.P,C25,1*%
%TO.N,ALIM*%
X87500000Y-93675000D03*
%TO.P,C25,2*%
%TO.N,GND*%
X85950000Y-93675000D03*
%TD*%
D13*
%TO.P,3v3ToVddd1,1,A*%
%TO.N,3V3_BUCK*%
X115400000Y-94255000D03*
%TO.P,3v3ToVddd1,2,B*%
%TO.N,VDDD*%
X115400000Y-94895000D03*
%TD*%
D42*
%TO.P,Q1,1,G*%
%TO.N,GND*%
X113350000Y-81500000D03*
%TO.P,Q1,2,S*%
%TO.N,ALIM*%
X115250000Y-81500000D03*
%TO.P,Q1,3,D*%
%TO.N,/VM*%
X114300000Y-79400000D03*
%TD*%
D16*
%TO.P,C26,1*%
%TO.N,/CP*%
X89100000Y-95350000D03*
%TO.P,C26,2*%
%TO.N,ALIM*%
X89100000Y-93800000D03*
%TD*%
D14*
%TO.P,C7,1*%
%TO.N,GND*%
X101812500Y-107360000D03*
%TO.P,C7,2*%
%TO.N,3V3_BUCK*%
X101812500Y-106400000D03*
%TD*%
D19*
%TO.P,C24,1*%
%TO.N,GND*%
X93800000Y-92975000D03*
%TO.P,C24,2*%
%TO.N,DRV_BUCK_OUT*%
X95350000Y-92975000D03*
%TD*%
D27*
%TO.P,C23,1*%
%TO.N,+VBUS_OUT*%
X117630000Y-107175000D03*
%TO.P,C23,2*%
%TO.N,GATE*%
X116670000Y-107175000D03*
%TD*%
D29*
%TO.P,C3,1*%
%TO.N,Net-(Y1-CRYSTAL_2)*%
X97475000Y-93245000D03*
%TO.P,C3,2*%
%TO.N,GND*%
X97475000Y-94205000D03*
%TD*%
D43*
%TO.P,J3,1*%
%TO.N,SWD*%
X96700000Y-113800000D03*
D44*
%TO.P,J3,2*%
%TO.N,SWCLK*%
X94903949Y-115596051D03*
%TD*%
D27*
%TO.P,C22,1*%
%TO.N,DRAIN_1*%
X117630000Y-108250000D03*
%TO.P,C22,2*%
%TO.N,GATE*%
X116670000Y-108250000D03*
%TD*%
D45*
%TO.P,U1,1,IOVDD*%
%TO.N,3V3_BUCK*%
X107550000Y-96162500D03*
%TO.P,U1,2,GPIO0*%
%TO.N,UART_TX*%
X107150000Y-96162500D03*
%TO.P,U1,3,GPIO1*%
%TO.N,UART_RX*%
X106750000Y-96162500D03*
%TO.P,U1,4,GPIO2*%
%TO.N,GPIO2*%
X106350000Y-96162500D03*
%TO.P,U1,5,GPIO3*%
%TO.N,GPIO3*%
X105950000Y-96162500D03*
%TO.P,U1,6,GPIO4*%
%TO.N,I2C_SDA*%
X105550000Y-96162500D03*
%TO.P,U1,7,GPIO5*%
%TO.N,I2C_SCL*%
X105150000Y-96162500D03*
%TO.P,U1,8,GPIO6*%
%TO.N,nSLEEP*%
X104750000Y-96162500D03*
%TO.P,U1,9,GPIO7*%
%TO.N,nFAULT*%
X104350000Y-96162500D03*
%TO.P,U1,10,IOVDD*%
%TO.N,3V3_BUCK*%
X103950000Y-96162500D03*
%TO.P,U1,11,GPIO8*%
%TO.N,DRVOFF*%
X103550000Y-96162500D03*
%TO.P,U1,12,GPIO9*%
%TO.N,GPIO9*%
X103150000Y-96162500D03*
%TO.P,U1,13,GPIO10*%
%TO.N,INLC*%
X102750000Y-96162500D03*
%TO.P,U1,14,GPIO11*%
%TO.N,INHC*%
X102350000Y-96162500D03*
D46*
%TO.P,U1,15,GPIO12*%
%TO.N,INLB*%
X101512500Y-97000000D03*
%TO.P,U1,16,GPIO13*%
%TO.N,INHB*%
X101512500Y-97400000D03*
%TO.P,U1,17,GPIO14*%
%TO.N,INLA*%
X101512500Y-97800000D03*
%TO.P,U1,18,GPIO15*%
%TO.N,INHA*%
X101512500Y-98200000D03*
%TO.P,U1,19,TESTEN*%
%TO.N,GND*%
X101512500Y-98600000D03*
%TO.P,U1,20,XIN*%
%TO.N,XIN*%
X101512500Y-99000000D03*
%TO.P,U1,21,XOUT*%
%TO.N,XOUT*%
X101512500Y-99400000D03*
%TO.P,U1,22,IOVDD*%
%TO.N,3V3_BUCK*%
X101512500Y-99800000D03*
%TO.P,U1,23,DVDD*%
%TO.N,+1V1*%
X101512500Y-100200000D03*
%TO.P,U1,24,SWCLK*%
%TO.N,SWCLK*%
X101512500Y-100600000D03*
%TO.P,U1,25,SWD*%
%TO.N,SWD*%
X101512500Y-101000000D03*
%TO.P,U1,26,RUN*%
%TO.N,RUN*%
X101512500Y-101400000D03*
%TO.P,U1,27,GPIO16*%
%TO.N,SPI_MISO*%
X101512500Y-101800000D03*
%TO.P,U1,28,GPIO17*%
%TO.N,SPI_SS*%
X101512500Y-102200000D03*
D45*
%TO.P,U1,29,GPIO18*%
%TO.N,SPI_SCK*%
X102350000Y-103037500D03*
%TO.P,U1,30,GPIO19*%
%TO.N,SPI_MOSI*%
X102750000Y-103037500D03*
%TO.P,U1,31,GPIO20*%
%TO.N,GPIO20*%
X103150000Y-103037500D03*
%TO.P,U1,32,GPIO21*%
%TO.N,GPIO21*%
X103550000Y-103037500D03*
%TO.P,U1,33,IOVDD*%
%TO.N,3V3_BUCK*%
X103950000Y-103037500D03*
%TO.P,U1,34,GPIO22*%
%TO.N,GPIO22*%
X104350000Y-103037500D03*
%TO.P,U1,35,GPIO23*%
%TO.N,GPIO23*%
X104750000Y-103037500D03*
%TO.P,U1,36,GPIO24*%
%TO.N,GPIO24*%
X105150000Y-103037500D03*
%TO.P,U1,37,GPIO25*%
%TO.N,GPIO25*%
X105550000Y-103037500D03*
%TO.P,U1,38,GPIO26_ADC0*%
%TO.N,Net-(U1-GPIO26_ADC0)*%
X105950000Y-103037500D03*
%TO.P,U1,39,GPIO27_ADC1*%
%TO.N,Net-(U1-GPIO27_ADC1)*%
X106350000Y-103037500D03*
%TO.P,U1,40,GPIO28_ADC2*%
%TO.N,Net-(U1-GPIO28_ADC2)*%
X106750000Y-103037500D03*
%TO.P,U1,41,GPIO29_ADC3*%
%TO.N,VREF*%
X107150000Y-103037500D03*
%TO.P,U1,42,IOVDD*%
%TO.N,3V3_BUCK*%
X107550000Y-103037500D03*
D46*
%TO.P,U1,43,ADC_AVDD*%
X108387500Y-102200000D03*
%TO.P,U1,44,VREG_IN*%
X108387500Y-101800000D03*
%TO.P,U1,45,VREG_VOUT*%
%TO.N,+1V1*%
X108387500Y-101400000D03*
%TO.P,U1,46,USB_DM*%
%TO.N,/D-*%
X108387500Y-101000000D03*
%TO.P,U1,47,USB_DP*%
%TO.N,/D+*%
X108387500Y-100600000D03*
%TO.P,U1,48,USB_VDD*%
%TO.N,3V3_BUCK*%
X108387500Y-100200000D03*
%TO.P,U1,49,IOVDD*%
X108387500Y-99800000D03*
%TO.P,U1,50,DVDD*%
%TO.N,+1V1*%
X108387500Y-99400000D03*
%TO.P,U1,51,QSPI_SD3*%
%TO.N,QSPI_SD3*%
X108387500Y-99000000D03*
%TO.P,U1,52,QSPI_SCLK*%
%TO.N,QSPI_CLK*%
X108387500Y-98600000D03*
%TO.P,U1,53,QSPI_SD0*%
%TO.N,QSPI_SD0*%
X108387500Y-98200000D03*
%TO.P,U1,54,QSPI_SD2*%
%TO.N,QSPI_SD2*%
X108387500Y-97800000D03*
%TO.P,U1,55,QSPI_SD1*%
%TO.N,QSPI_SD1*%
X108387500Y-97400000D03*
%TO.P,U1,56,QSPI_SS*%
%TO.N,QSPI_SS*%
X108387500Y-97000000D03*
D47*
%TO.P,U1,57,GND*%
%TO.N,GND*%
X104950000Y-99600000D03*
%TD*%
D48*
%TO.P,U9,1,S1*%
%TO.N,SOURCE*%
X113275014Y-107489000D03*
%TO.P,U9,2,G1*%
%TO.N,GATE*%
X113925000Y-107489000D03*
%TO.P,U9,3,D2*%
%TO.N,+VBUS_OUT*%
X114574986Y-107489000D03*
%TO.P,U9,4,S2*%
%TO.N,SOURCE*%
X114574986Y-105411000D03*
%TO.P,U9,5,G2*%
%TO.N,GATE*%
X113925000Y-105411000D03*
%TO.P,U9,6,D1*%
%TO.N,DRAIN_1*%
X113275014Y-105411000D03*
D49*
%TO.P,U9,7,D1*%
X113404300Y-106450000D03*
%TO.P,U9,8,D2*%
%TO.N,+VBUS_OUT*%
X114445700Y-106450000D03*
%TD*%
D20*
%TO.P,J2,1*%
%TO.N,3V3_BUCK*%
X111540000Y-118450000D03*
D21*
%TO.P,J2,2*%
%TO.N,GND*%
X111540000Y-120990000D03*
%TO.P,J2,3*%
%TO.N,GPIO23*%
X109000000Y-118450000D03*
%TO.P,J2,4*%
%TO.N,GPIO21*%
X109000000Y-120990000D03*
%TO.P,J2,5*%
%TO.N,+VBUS_OUT*%
X106460000Y-118450000D03*
%TO.P,J2,6*%
%TO.N,GPIO20*%
X106460000Y-120990000D03*
%TO.P,J2,7*%
%TO.N,GPIO25*%
X103920000Y-118450000D03*
%TO.P,J2,8*%
%TO.N,GPIO2*%
X103920000Y-120990000D03*
%TO.P,J2,9*%
%TO.N,GPIO24*%
X101380000Y-118450000D03*
%TO.P,J2,10*%
%TO.N,GPIO3*%
X101380000Y-120990000D03*
%TO.P,J2,11*%
%TO.N,GPIO22*%
X98840000Y-118450000D03*
%TO.P,J2,12*%
%TO.N,GPIO9*%
X98840000Y-120990000D03*
%TD*%
D24*
%TO.P,R16,1*%
%TO.N,3V3_BUCK*%
X88580000Y-105850000D03*
%TO.P,R16,2*%
%TO.N,nFAULT*%
X87560000Y-105850000D03*
%TD*%
D17*
%TO.P,H7,1,1*%
%TO.N,DRV_BUCK_OUT*%
X87325000Y-88500000D03*
%TD*%
D11*
%TO.P,R6,1*%
%TO.N,Current_A*%
X93750000Y-105790000D03*
%TO.P,R6,2*%
%TO.N,Net-(U1-GPIO26_ADC0)*%
X93750000Y-106810000D03*
%TD*%
D23*
%TO.P,H11,1,1*%
%TO.N,OUTB*%
X81740000Y-100030000D03*
%TD*%
D50*
%TO.P,R5,1*%
%TO.N,QSPI_SS*%
X120975000Y-89485000D03*
%TO.P,R5,2*%
%TO.N,3V3_BUCK*%
X120975000Y-88465000D03*
%TD*%
D51*
%TO.P,SW1,1,1*%
%TO.N,GND*%
X127100000Y-91650000D03*
%TO.P,SW1,2,2*%
%TO.N,Net-(R4-Pad1)*%
X122650000Y-91650000D03*
%TD*%
D23*
%TO.P,H10,1,1*%
%TO.N,OUTA*%
X82440000Y-95030000D03*
%TD*%
D19*
%TO.P,C42,1*%
%TO.N,3V3_BUCK*%
X107725000Y-88450000D03*
%TO.P,C42,2*%
%TO.N,GND*%
X109275000Y-88450000D03*
%TD*%
D11*
%TO.P,R14,1*%
%TO.N,3V3_BUCK*%
X113500000Y-87690000D03*
%TO.P,R14,2*%
%TO.N,I2C_SDA*%
X113500000Y-88710000D03*
%TD*%
D50*
%TO.P,R4,1*%
%TO.N,Net-(R4-Pad1)*%
X120975000Y-91660000D03*
%TO.P,R4,2*%
%TO.N,QSPI_SS*%
X120975000Y-90640000D03*
%TD*%
D27*
%TO.P,C14,1*%
%TO.N,VDDD*%
X114055000Y-101475000D03*
%TO.P,C14,2*%
%TO.N,GND*%
X113095000Y-101475000D03*
%TD*%
D50*
%TO.P,R24,1*%
%TO.N,GATE*%
X119175000Y-108295000D03*
%TO.P,R24,2*%
%TO.N,DRAIN_1*%
X119175000Y-107275000D03*
%TD*%
D52*
%TO.P,U5,1,NC*%
%TO.N,unconnected-(U5-NC-Pad1)*%
X92510693Y-97601300D03*
%TO.P,U5,2,AGND*%
%TO.N,GND*%
X92010567Y-97601300D03*
%TO.P,U5,3,FB_BK*%
%TO.N,DRV_BUCK_OUT*%
X91510441Y-97601300D03*
%TO.P,U5,4,GND_BK*%
%TO.N,GND*%
X91010315Y-97601300D03*
%TO.P,U5,5,SW_BK*%
%TO.N,/SW_BK*%
X90510189Y-97601300D03*
%TO.P,U5,6,CPL*%
%TO.N,Net-(U5-CPL)*%
X90010063Y-97601300D03*
%TO.P,U5,7,CPH*%
%TO.N,Net-(U5-CPH)*%
X89509937Y-97601300D03*
%TO.P,U5,8,CP*%
%TO.N,/CP*%
X89009811Y-97601300D03*
%TO.P,U5,9,VM*%
%TO.N,ALIM*%
X88509685Y-97601300D03*
%TO.P,U5,10,VM*%
X88009559Y-97601300D03*
%TO.P,U5,11,VM*%
X87509433Y-97601300D03*
%TO.P,U5,12,PGND*%
%TO.N,GND*%
X87009307Y-97601300D03*
D53*
%TO.P,U5,13,OUTA*%
%TO.N,OUTA*%
X86308000Y-98299559D03*
%TO.P,U5,14,OUTA*%
X86308000Y-98799685D03*
%TO.P,U5,15,PGND*%
%TO.N,GND*%
X86308000Y-99299811D03*
%TO.P,U5,16,OUTB*%
%TO.N,OUTB*%
X86308000Y-99799937D03*
%TO.P,U5,17,OUTB*%
X86308000Y-100300063D03*
%TO.P,U5,18,PGND*%
%TO.N,GND*%
X86308000Y-100800189D03*
%TO.P,U5,19,OUTC*%
%TO.N,OUTC*%
X86308000Y-101300315D03*
%TO.P,U5,20,OUTC*%
X86308000Y-101800441D03*
D52*
%TO.P,U5,21,DRVOFF*%
%TO.N,DRVOFF*%
X87009307Y-102498700D03*
%TO.P,U5,22,NFAULT*%
%TO.N,nFAULT*%
X87509433Y-102498700D03*
%TO.P,U5,23,NSLEEP*%
%TO.N,nSLEEP*%
X88009559Y-102498700D03*
%TO.P,U5,24,NC*%
%TO.N,unconnected-(U5-NC-Pad24)*%
X88509685Y-102498700D03*
%TO.P,U5,25,AVDD*%
%TO.N,3V3_BUCK*%
X89009811Y-102498700D03*
%TO.P,U5,26,AGND*%
%TO.N,GND*%
X89509937Y-102498700D03*
%TO.P,U5,27,INHA*%
%TO.N,INHA*%
X90010063Y-102498700D03*
%TO.P,U5,28,INLA*%
%TO.N,INLA*%
X90510189Y-102498700D03*
%TO.P,U5,29,INHB*%
%TO.N,INHB*%
X91010315Y-102498700D03*
%TO.P,U5,30,INLB*%
%TO.N,INLB*%
X91510441Y-102498700D03*
%TO.P,U5,31,INHC*%
%TO.N,INHC*%
X92010567Y-102498700D03*
%TO.P,U5,32,INLC*%
%TO.N,INLC*%
X92510693Y-102498700D03*
D53*
%TO.P,U5,33,SDO*%
%TO.N,SPI_MISO*%
X93212000Y-101800441D03*
%TO.P,U5,34,SDI*%
%TO.N,SPI_MOSI*%
X93212000Y-101300315D03*
%TO.P,U5,35,SCLK*%
%TO.N,SPI_SCK*%
X93212000Y-100800189D03*
%TO.P,U5,36,NSCS*%
%TO.N,SPI_SS*%
X93212000Y-100300063D03*
%TO.P,U5,37,VREF/ILIM*%
%TO.N,VREF*%
X93212000Y-99799937D03*
%TO.P,U5,38,SOC*%
%TO.N,Current_C*%
X93212000Y-99299811D03*
%TO.P,U5,39,SOB*%
%TO.N,Current_B*%
X93212000Y-98799685D03*
%TO.P,U5,40,SOA*%
%TO.N,Current_A*%
X93212000Y-98299559D03*
D54*
%TO.P,U5,41,EPAD*%
%TO.N,unconnected-(U5-EPAD-Pad41)*%
X89760000Y-100050000D03*
%TD*%
D28*
%TO.P,D2,1,K*%
%TO.N,GND*%
X124312500Y-88975000D03*
%TO.P,D2,2,A*%
%TO.N,Net-(D2-A)*%
X122737500Y-88975000D03*
%TD*%
D29*
%TO.P,C11,1*%
%TO.N,GND*%
X104650000Y-90820000D03*
%TO.P,C11,2*%
%TO.N,3V3_BUCK*%
X104650000Y-91780000D03*
%TD*%
D11*
%TO.P,R15,1*%
%TO.N,3V3_BUCK*%
X112250000Y-87690000D03*
%TO.P,R15,2*%
%TO.N,I2C_SCL*%
X112250000Y-88710000D03*
%TD*%
%TO.P,R7,1*%
%TO.N,Current_B*%
X95950000Y-105790000D03*
%TO.P,R7,2*%
%TO.N,Net-(U1-GPIO27_ADC1)*%
X95950000Y-106810000D03*
%TD*%
D20*
%TO.P,J4,1*%
%TO.N,UART_TX*%
X111400000Y-91100000D03*
D21*
%TO.P,J4,2*%
%TO.N,UART_RX*%
X108860000Y-91100000D03*
%TD*%
D55*
%TO.P,U7,1,VIN*%
%TO.N,ALIM*%
X103949900Y-85349999D03*
%TO.P,U7,2,EN/UVLO*%
X103949900Y-85850000D03*
%TO.P,U7,3,VCC*%
%TO.N,Net-(U7-VCC)*%
X103949900Y-86350000D03*
%TO.P,U7,4,FB/VOUT*%
%TO.N,3V3_BUCK*%
X103949900Y-86850001D03*
%TO.P,U7,5,MODE*%
%TO.N,GND*%
X105850100Y-86850001D03*
%TO.P,U7,6,\u002ARESET*%
X105850100Y-86350000D03*
%TO.P,U7,7,GND*%
X105850100Y-85850000D03*
%TO.P,U7,8,LX*%
%TO.N,Net-(U7-LX)*%
X105850100Y-85349999D03*
%TD*%
D29*
%TO.P,C18,1*%
%TO.N,GND*%
X113750000Y-92345000D03*
%TO.P,C18,2*%
%TO.N,3V3_BUCK*%
X113750000Y-93305000D03*
%TD*%
D27*
%TO.P,C16,1*%
%TO.N,VCCD*%
X114055000Y-103000000D03*
%TO.P,C16,2*%
%TO.N,GND*%
X113095000Y-103000000D03*
%TD*%
D52*
%TO.P,U8,1,VBUS_MIN*%
%TO.N,VBUS_MIN*%
X116324685Y-102814900D03*
%TO.P,U8,2,VBUS_MAX*%
%TO.N,VBUS_MAX*%
X116824811Y-102814900D03*
%TO.P,U8,3,VBUS_FET_EN*%
%TO.N,+VBUS_FET_EN*%
X117324937Y-102814900D03*
%TO.P,U8,4,SAFE_PWR_EN*%
%TO.N,SAFE_PWR_EN*%
X117825063Y-102814900D03*
%TO.P,U8,5,ISNK_COARSE*%
%TO.N,ISNK_COARSE*%
X118325189Y-102814900D03*
%TO.P,U8,6,ISNK_FINE*%
%TO.N,ISNK_FINE*%
X118825315Y-102814900D03*
D53*
%TO.P,U8,7,HPI_INT*%
%TO.N,unconnected-(U8A-HPI_INT-Pad7)*%
X119464900Y-102175315D03*
%TO.P,U8,8,GPIO_1*%
%TO.N,unconnected-(U8A-GPIO_1-Pad8)*%
X119464900Y-101675189D03*
%TO.P,U8,9,FAULT*%
%TO.N,unconnected-(U8A-FAULT-Pad9)*%
X119464900Y-101175063D03*
%TO.P,U8,10,FLIP*%
%TO.N,unconnected-(U8A-FLIP-Pad10)*%
X119464900Y-100674937D03*
%TO.P,U8,11,VDC_OUT*%
%TO.N,+VBUS_OUT*%
X119464900Y-100174811D03*
%TO.P,U8,12,HPI_SDA*%
%TO.N,I2C_SDA*%
X119464900Y-99674685D03*
D52*
%TO.P,U8,13,HPI_SCL*%
%TO.N,I2C_SCL*%
X118825315Y-99035100D03*
%TO.P,U8,14,CC2*%
%TO.N,/CC2*%
X118325189Y-99035100D03*
%TO.P,U8,15,CC1*%
%TO.N,/CC1*%
X117825063Y-99035100D03*
%TO.P,U8,16,D-*%
%TO.N,unconnected-(U8B-D--Pad16)*%
X117324937Y-99035100D03*
%TO.P,U8,17,D+*%
%TO.N,unconnected-(U8B-D+-Pad17)*%
X116824811Y-99035100D03*
%TO.P,U8,18,VBUS_IN*%
%TO.N,+VBUS*%
X116324685Y-99035100D03*
D53*
%TO.P,U8,19,GND*%
%TO.N,GND*%
X115685100Y-99674685D03*
%TO.P,U8,20,DNU1*%
%TO.N,unconnected-(U8B-DNU1-Pad20)*%
X115685100Y-100174811D03*
%TO.P,U8,21,DNU2*%
%TO.N,unconnected-(U8B-DNU2-Pad21)*%
X115685100Y-100674937D03*
%TO.P,U8,22,VSS*%
%TO.N,unconnected-(U8B-VSS-Pad22)*%
X115685100Y-101175063D03*
%TO.P,U8,23,VDDD*%
%TO.N,VDDD*%
X115685100Y-101675189D03*
%TO.P,U8,24,VCCD*%
%TO.N,VCCD*%
X115685100Y-102175315D03*
D56*
%TO.P,U8,25,EPAD*%
%TO.N,unconnected-(U8B-EPAD-Pad25)*%
X117575000Y-100925000D03*
%TD*%
D13*
%TO.P,JP8,1,A*%
%TO.N,+VBUS_OUT*%
X120550000Y-105250000D03*
%TO.P,JP8,2,B*%
%TO.N,ALIM*%
X120550000Y-105890000D03*
%TD*%
D53*
%TO.P,U2,1,~{CS}*%
%TO.N,QSPI_SS*%
X110950000Y-94625000D03*
%TO.P,U2,2,DOIO1*%
%TO.N,QSPI_SD1*%
X110950000Y-95125001D03*
%TO.P,U2,3,~{WP}_IO2*%
%TO.N,QSPI_SD2*%
X110950000Y-95625001D03*
%TO.P,U2,4,GND*%
%TO.N,GND*%
X110950000Y-96125002D03*
%TO.P,U2,5,DIIO0*%
%TO.N,QSPI_SD0*%
X113741998Y-96125002D03*
%TO.P,U2,6,CLK*%
%TO.N,QSPI_CLK*%
X113741998Y-95625001D03*
%TO.P,U2,7,~{HOLD}_IO3*%
%TO.N,QSPI_SD3*%
X113741998Y-95125001D03*
%TO.P,U2,8,VCC*%
%TO.N,3V3_BUCK*%
X113741998Y-94625000D03*
D57*
%TO.P,U2,9,EPAD*%
%TO.N,unconnected-(U2-EPAD-Pad9)*%
X112345999Y-95375001D03*
%TD*%
D14*
%TO.P,C30,1*%
%TO.N,3V3_BUCK*%
X103110000Y-91780000D03*
%TO.P,C30,2*%
%TO.N,GND*%
X103110000Y-90820000D03*
%TD*%
D15*
%TO.P,C9,1*%
%TO.N,GND*%
X97340000Y-96805000D03*
%TO.P,C9,2*%
%TO.N,3V3_BUCK*%
X98300000Y-96805000D03*
%TD*%
D51*
%TO.P,SW2,1,1*%
%TO.N,GND*%
X127175000Y-108350000D03*
%TO.P,SW2,2,2*%
%TO.N,Net-(R9-Pad1)*%
X122725000Y-108350000D03*
%TD*%
D29*
%TO.P,C20,1*%
%TO.N,GND*%
X115400000Y-92345000D03*
%TO.P,C20,2*%
%TO.N,3V3_BUCK*%
X115400000Y-93305000D03*
%TD*%
D14*
%TO.P,C13,1*%
%TO.N,GND*%
X107750000Y-105660000D03*
%TO.P,C13,2*%
%TO.N,3V3_BUCK*%
X107750000Y-104700000D03*
%TD*%
D27*
%TO.P,C5,1*%
%TO.N,GND*%
X111780000Y-101800000D03*
%TO.P,C5,2*%
%TO.N,+1V1*%
X110820000Y-101800000D03*
%TD*%
D15*
%TO.P,C4,1*%
%TO.N,GND*%
X97340000Y-100002500D03*
%TO.P,C4,2*%
%TO.N,+1V1*%
X98300000Y-100002500D03*
%TD*%
D58*
%TO.N,+1V1*%
X102600000Y-100175000D03*
X98300000Y-99325000D03*
X109507082Y-101412452D03*
%TO.N,3V3_BUCK*%
X108775000Y-93900000D03*
X103000000Y-88975000D03*
X109225000Y-94600000D03*
X112725000Y-85850000D03*
X109225000Y-103250000D03*
X108300000Y-103250000D03*
X121425000Y-106575000D03*
X110200000Y-103300000D03*
X112725000Y-86775000D03*
X104275000Y-92450000D03*
X121450000Y-108500000D03*
X114450000Y-93305000D03*
X110600000Y-103950000D03*
X108300000Y-94600000D03*
X113425000Y-84475000D03*
X95800000Y-81625000D03*
X103550000Y-92450000D03*
X88575000Y-106900000D03*
X103775000Y-109925000D03*
X113425000Y-86325000D03*
X98300000Y-98403750D03*
X103750000Y-110675000D03*
X119300469Y-106449000D03*
X120975000Y-87350000D03*
X113425000Y-85400000D03*
X103750000Y-111375000D03*
X104365000Y-97347100D03*
X103095000Y-97347100D03*
X102650000Y-106400000D03*
X101625000Y-88275000D03*
X108750000Y-103950000D03*
X109675000Y-103950000D03*
X102075000Y-88975000D03*
X102550000Y-88275000D03*
X107850000Y-93900000D03*
X112725000Y-84925000D03*
%TO.N,Current_A*%
X95050000Y-97350000D03*
X93750000Y-105050000D03*
%TO.N,Current_B*%
X95950000Y-105150000D03*
X95096127Y-98045630D03*
%TO.N,Current_C*%
X95091757Y-98791757D03*
X98150000Y-105050000D03*
%TO.N,VREF*%
X95100000Y-99550000D03*
X107349500Y-106425000D03*
X96545878Y-103354122D03*
%TO.N,DOUT*%
X103675000Y-112900000D03*
%TO.N,GPIO25*%
X105550000Y-110625000D03*
%TO.N,USB_D+*%
X125500000Y-99700000D03*
X112280000Y-99700000D03*
%TO.N,USB_D-*%
X125500000Y-100400000D03*
X112280000Y-100400000D03*
%TO.N,GPIO24*%
X104665322Y-106162026D03*
%TO.N,GPIO22*%
X103674500Y-105250000D03*
%TO.N,GPIO9*%
X101435523Y-94764477D03*
%TO.N,GPIO3*%
X106100000Y-93500000D03*
%TO.N,GPIO2*%
X106275500Y-94550000D03*
%TO.N,GPIO20*%
X101100000Y-104900000D03*
%TO.N,GPIO21*%
X102250000Y-105100000D03*
%TO.N,SWD*%
X99413337Y-101053153D03*
%TO.N,SWCLK*%
X99403721Y-100403722D03*
%TO.N,RUN*%
X118150000Y-116350000D03*
X120350000Y-111825000D03*
X99398827Y-101702494D03*
%TO.N,nFAULT*%
X102500000Y-92950000D03*
X87550000Y-106950000D03*
%TO.N,I2C_SDA*%
X105850000Y-102025000D03*
X105300000Y-93500000D03*
X119925000Y-98224500D03*
X111950000Y-89575000D03*
%TO.N,I2C_SCL*%
X119175000Y-98224500D03*
X111161833Y-89081555D03*
X104100000Y-102000000D03*
X104250000Y-93500000D03*
%TO.N,nSLEEP*%
X88250000Y-104400000D03*
X103360523Y-93289477D03*
%TO.N,DRVOFF*%
X101100000Y-93750000D03*
X86750000Y-104375000D03*
%TO.N,INLC*%
X92699000Y-104081112D03*
X100250000Y-94100000D03*
%TO.N,INHC*%
X92125000Y-104700000D03*
X99950000Y-95000000D03*
%TO.N,INLB*%
X91649500Y-104100000D03*
X99924500Y-95890475D03*
%TO.N,INHB*%
X91125000Y-104675000D03*
X99924500Y-96539978D03*
%TO.N,INLA*%
X99924500Y-97189481D03*
X90600000Y-104100000D03*
%TO.N,INHA*%
X99924500Y-97838984D03*
X90075000Y-104700000D03*
%TO.N,SPI_MISO*%
X95075000Y-102475000D03*
X99400004Y-102351995D03*
%TO.N,SPI_SS*%
X95100000Y-100300000D03*
X99450000Y-103100000D03*
%TO.N,SPI_SCK*%
X95100000Y-101050000D03*
X100050000Y-103700000D03*
%TO.N,SPI_MOSI*%
X100600000Y-104250000D03*
X95075000Y-101775000D03*
%TO.N,DIR_Pin*%
X103025000Y-101975000D03*
%TO.N,GPIO23*%
X104500000Y-105250000D03*
X124400000Y-112700000D03*
%TO.N,Net-(U1-GPIO26_ADC0)*%
X106024500Y-104850000D03*
X93750000Y-107675000D03*
%TO.N,Net-(U1-GPIO27_ADC1)*%
X106062250Y-105553151D03*
X95975000Y-107575000D03*
%TO.N,Net-(U1-GPIO28_ADC2)*%
X98125000Y-107600000D03*
X106100000Y-106300000D03*
%TO.N,+VBUS_OUT*%
X114105885Y-108505885D03*
X113524500Y-109075000D03*
X114225000Y-109075000D03*
X114796947Y-108505885D03*
%TO.N,VBUS_MIN*%
X115816207Y-104735585D03*
%TO.N,ISNK_FINE*%
X119603575Y-103625500D03*
X119000000Y-110675000D03*
%TO.N,ALIM*%
X99275000Y-81675000D03*
X99725000Y-82375000D03*
X89100000Y-91900000D03*
X101575000Y-82375000D03*
X101125000Y-81675000D03*
X88650000Y-91200000D03*
X100200000Y-81675000D03*
X100650000Y-82375000D03*
X117725000Y-81475000D03*
X117725000Y-82400000D03*
X90025000Y-91900000D03*
X117025000Y-81925000D03*
X89575000Y-91200000D03*
X117025000Y-81000000D03*
X120775709Y-106558511D03*
X90950000Y-91900000D03*
X117025000Y-82850000D03*
X90500000Y-91200000D03*
X117725000Y-80550000D03*
%TO.N,+VBUS_FET_EN*%
X116927796Y-104214207D03*
X119925500Y-105924500D03*
%TO.N,GATE*%
X118686622Y-109711622D03*
X113908148Y-104246945D03*
%TO.N,SAFE_PWR_EN*%
X117825000Y-103625500D03*
%TO.N,SOURCE*%
X112050000Y-107725000D03*
X114625000Y-104500000D03*
%TO.N,/CC1*%
X117575081Y-98224500D03*
X125525000Y-101300000D03*
%TO.N,/CC2*%
X118302241Y-98224500D03*
X125525000Y-98300000D03*
%TO.N,GND*%
X84600000Y-98425000D03*
X103725000Y-90025000D03*
X104650000Y-90025000D03*
X97450000Y-85325000D03*
X110675000Y-107725000D03*
X84725000Y-91875000D03*
X115965500Y-107124500D03*
X96750000Y-84850000D03*
X92325000Y-93450000D03*
X108400000Y-83400000D03*
X105550000Y-98900000D03*
X99423819Y-108849500D03*
X113000000Y-97700000D03*
X104325000Y-99475000D03*
X96750000Y-86700000D03*
X107950000Y-82700000D03*
X100150000Y-109550000D03*
X89534311Y-104075626D03*
X112050000Y-104050000D03*
X84600000Y-99075000D03*
X108875000Y-82700000D03*
X105550000Y-100750000D03*
X84650000Y-101050000D03*
X85650000Y-91875000D03*
X110925000Y-88450000D03*
X84525000Y-101675000D03*
X105575000Y-90025000D03*
X106875000Y-97350000D03*
X83875000Y-101675000D03*
X96750000Y-85775000D03*
X100053721Y-98475500D03*
X105550000Y-99825000D03*
X90825000Y-93449500D03*
X83800000Y-91875000D03*
X92594990Y-96369990D03*
X97450000Y-84400000D03*
X83350000Y-91175000D03*
X84275000Y-91175000D03*
X110250000Y-83400000D03*
X85200000Y-91175000D03*
X104325000Y-98550000D03*
X115075000Y-98175000D03*
X104325000Y-100400000D03*
X109800000Y-82700000D03*
X91575000Y-93450000D03*
X114500000Y-92375000D03*
X84000000Y-101050000D03*
X99625000Y-107125500D03*
X83975000Y-98950000D03*
X83975000Y-98300000D03*
X121450000Y-109775000D03*
X91491622Y-96366622D03*
X97450000Y-86250000D03*
X109325000Y-83400000D03*
%TO.N,ISNK_COARSE*%
X121425000Y-104600000D03*
X118544319Y-103614638D03*
%TO.N,VBUS_MAX*%
X116278490Y-104198242D03*
%TO.N,+VBUS*%
X118425000Y-96924500D03*
X117650000Y-96924500D03*
X119250000Y-96925000D03*
X116825000Y-96924000D03*
%TO.N,DRAIN_1*%
X118075000Y-109100000D03*
X113300000Y-104475000D03*
%TD*%
D59*
%TO.N,+1V1*%
X106800000Y-101450000D02*
X106800000Y-100030025D01*
X98300000Y-100002500D02*
X98300000Y-99325000D01*
X109620000Y-99400000D02*
X110845000Y-98175000D01*
X107430025Y-99400000D02*
X108387500Y-99400000D01*
X106800000Y-100030025D02*
X107430025Y-99400000D01*
X102600000Y-100175000D02*
X102600000Y-100950000D01*
X110420000Y-101400000D02*
X110820000Y-101800000D01*
X102600000Y-100950000D02*
X103100000Y-101450000D01*
X102600000Y-100175000D02*
X101537500Y-100175000D01*
X103100000Y-101450000D02*
X106800000Y-101450000D01*
X101537500Y-100175000D02*
X101512500Y-100200000D01*
X108387500Y-99400000D02*
X109620000Y-99400000D01*
X108387500Y-101400000D02*
X110420000Y-101400000D01*
D60*
%TO.N,XIN*%
X101610000Y-90880000D02*
X101000000Y-90270000D01*
D61*
X99450000Y-90400000D02*
X100870000Y-90400000D01*
D60*
X99400000Y-92700000D02*
X100462254Y-92700000D01*
X99815686Y-99000000D02*
X99400000Y-98584314D01*
X101610000Y-91552254D02*
X101610000Y-90880000D01*
D61*
X100870000Y-90400000D02*
X101000000Y-90270000D01*
D60*
X100462254Y-92700000D02*
X101610000Y-91552254D01*
X99400000Y-98584314D02*
X99400000Y-92700000D01*
X101512500Y-99000000D02*
X99815686Y-99000000D01*
D59*
%TO.N,3V3_BUCK*%
X108387500Y-102687500D02*
X108037500Y-103037500D01*
D62*
X102650000Y-106400000D02*
X103525000Y-106400000D01*
D60*
X108775000Y-93900000D02*
X108775000Y-94150000D01*
X108775000Y-94150000D02*
X109225000Y-94600000D01*
X89895189Y-105420189D02*
X90300000Y-105825000D01*
D61*
X103050000Y-110650000D02*
X103775000Y-109925000D01*
D60*
X120585000Y-109575000D02*
X120585000Y-109365000D01*
X113741998Y-94625000D02*
X113741998Y-93313002D01*
X109225000Y-94600000D02*
X108300000Y-94600000D01*
D61*
X104275000Y-92155000D02*
X104650000Y-91780000D01*
D59*
X102000000Y-93675736D02*
X103950000Y-95625736D01*
X108300000Y-103250000D02*
X108300000Y-103500000D01*
D61*
X103725000Y-110650000D02*
X103750000Y-110675000D01*
X108300000Y-103250000D02*
X108300000Y-102287500D01*
D60*
X120585000Y-109365000D02*
X121450000Y-108500000D01*
D59*
X108387500Y-101800000D02*
X108387500Y-102687500D01*
X99505026Y-99750000D02*
X101462500Y-99750000D01*
X108387500Y-101800000D02*
X107925736Y-101800000D01*
D61*
X107725000Y-88450000D02*
X107900000Y-88450000D01*
D62*
X95800000Y-81625000D02*
X94325000Y-81625000D01*
D63*
X102820000Y-91780000D02*
X106190000Y-91780000D01*
D61*
X104275000Y-92450000D02*
X104275000Y-92155000D01*
D60*
X103950000Y-103037500D02*
X103950000Y-103824264D01*
D61*
X100475000Y-110650000D02*
X100450000Y-110675000D01*
D60*
X107850000Y-93900000D02*
X108775000Y-93900000D01*
D61*
X109065000Y-104265000D02*
X108750000Y-103950000D01*
X103025000Y-110650000D02*
X103750000Y-111375000D01*
X115864376Y-115250000D02*
X115939376Y-115325000D01*
D59*
X109225000Y-103500000D02*
X109675000Y-103950000D01*
D61*
X101724999Y-86850001D02*
X101675000Y-86900000D01*
X111540000Y-118450000D02*
X111540000Y-116810000D01*
D62*
X121325000Y-88465000D02*
X122440000Y-87350000D01*
D60*
X107850000Y-93900000D02*
X107850000Y-94150000D01*
D61*
X101675000Y-86900000D02*
X101675000Y-88225000D01*
D59*
X108750000Y-103725000D02*
X109225000Y-103250000D01*
D61*
X110700000Y-86000000D02*
X112575000Y-86000000D01*
D59*
X98300000Y-98403750D02*
X98300000Y-98544975D01*
D60*
X103150000Y-106025000D02*
X103525000Y-106400000D01*
D64*
X115400000Y-94255000D02*
X115400000Y-93305000D01*
D60*
X107550000Y-95350000D02*
X108300000Y-94600000D01*
D62*
X104075000Y-88775000D02*
X103200000Y-88775000D01*
D59*
X107850000Y-99800000D02*
X108387500Y-99800000D01*
D61*
X109065000Y-104700000D02*
X109065000Y-104265000D01*
D60*
X88580000Y-105850000D02*
X88580000Y-106895000D01*
D59*
X108750000Y-103950000D02*
X108750000Y-103725000D01*
D60*
X103150000Y-104624264D02*
X103150000Y-106025000D01*
X114450000Y-93305000D02*
X113750000Y-93305000D01*
D62*
X120975000Y-88465000D02*
X120975000Y-87350000D01*
D61*
X112575000Y-86000000D02*
X112725000Y-85850000D01*
D62*
X103200000Y-88775000D02*
X103000000Y-88975000D01*
D59*
X101462500Y-99750000D02*
X101512500Y-99800000D01*
D60*
X88580000Y-106895000D02*
X88575000Y-106900000D01*
D61*
X102500000Y-110650000D02*
X103725000Y-110650000D01*
X111540000Y-116810000D02*
X113100000Y-115250000D01*
D59*
X108037500Y-103037500D02*
X107550000Y-103037500D01*
X107700000Y-100400000D02*
X107700000Y-99950000D01*
D61*
X109065000Y-104560000D02*
X109675000Y-103950000D01*
D62*
X101812500Y-106400000D02*
X102650000Y-106400000D01*
D65*
X102000000Y-92600000D02*
X102820000Y-91780000D01*
D59*
X103950000Y-95625736D02*
X103950000Y-96162500D01*
D62*
X120975000Y-88465000D02*
X121325000Y-88465000D01*
D60*
X113741998Y-93313002D02*
X113750000Y-93305000D01*
D61*
X110375000Y-104700000D02*
X109065000Y-104700000D01*
D59*
X107700000Y-99950000D02*
X107850000Y-99800000D01*
D61*
X107900000Y-88450000D02*
X110350000Y-86000000D01*
X101675000Y-88225000D02*
X101625000Y-88275000D01*
X102500000Y-110650000D02*
X100475000Y-110650000D01*
X103550000Y-92220000D02*
X103110000Y-91780000D01*
X102500000Y-110650000D02*
X103050000Y-110650000D01*
D60*
X103950000Y-103824264D02*
X103150000Y-104624264D01*
X89009811Y-102498700D02*
X89009811Y-105420189D01*
D59*
X103950000Y-96162500D02*
X103950000Y-96871100D01*
X107550000Y-103037500D02*
X108087500Y-103037500D01*
D61*
X108300000Y-102287500D02*
X108387500Y-102200000D01*
D60*
X115400000Y-93305000D02*
X114450000Y-93305000D01*
X89009811Y-105420189D02*
X88580000Y-105850000D01*
X107550000Y-96162500D02*
X107550000Y-95350000D01*
D61*
X103949900Y-86850001D02*
X101724999Y-86850001D01*
X112250000Y-87250000D02*
X112725000Y-86775000D01*
X110650000Y-104975000D02*
X110375000Y-104700000D01*
D59*
X103474000Y-97347100D02*
X103095000Y-97347100D01*
X108300000Y-103500000D02*
X108750000Y-103950000D01*
D61*
X113100000Y-115250000D02*
X115864376Y-115250000D01*
D59*
X108087500Y-103037500D02*
X108300000Y-103250000D01*
X107900000Y-100200000D02*
X108387500Y-100200000D01*
X107925736Y-101800000D02*
X107700000Y-101574264D01*
D62*
X113500000Y-87690000D02*
X113500000Y-86400000D01*
D59*
X103950000Y-96932100D02*
X104365000Y-97347100D01*
X103950000Y-96871100D02*
X103474000Y-97347100D01*
X109225000Y-103250000D02*
X109225000Y-103500000D01*
D61*
X107750000Y-104700000D02*
X109065000Y-104700000D01*
D60*
X89009811Y-105420189D02*
X89895189Y-105420189D01*
D61*
X101625000Y-88275000D02*
X102550000Y-88275000D01*
X102000000Y-92600000D02*
X102000000Y-93675736D01*
X98300000Y-96805000D02*
X98300000Y-98403750D01*
X102500000Y-110650000D02*
X103025000Y-110650000D01*
D60*
X107850000Y-94150000D02*
X108300000Y-94600000D01*
D61*
X109065000Y-104700000D02*
X109065000Y-104560000D01*
X112250000Y-87690000D02*
X112250000Y-87250000D01*
X110350000Y-86000000D02*
X110700000Y-86000000D01*
D59*
X98300000Y-98544975D02*
X99505026Y-99750000D01*
D61*
X103550000Y-92450000D02*
X103550000Y-92220000D01*
D59*
X103950000Y-96162500D02*
X103950000Y-96932100D01*
X107700000Y-101574264D02*
X107700000Y-100400000D01*
D62*
X113500000Y-86400000D02*
X113425000Y-86325000D01*
D59*
X107700000Y-100400000D02*
X107900000Y-100200000D01*
D61*
%TO.N,DRV_BUCK_OUT*%
X90400000Y-88500000D02*
X87325000Y-88500000D01*
D60*
X91510441Y-96913489D02*
X91532308Y-96891622D01*
X94932107Y-94625000D02*
X95400000Y-94625000D01*
X91510441Y-97601300D02*
X91510441Y-96913489D01*
X91532308Y-96891622D02*
X91709085Y-96891622D01*
X92019150Y-96204074D02*
X92398224Y-95825000D01*
X92019150Y-96581557D02*
X92019150Y-96204074D01*
X92398224Y-95825000D02*
X93732107Y-95825000D01*
D61*
X95350000Y-92975000D02*
X95350000Y-94575000D01*
X95350000Y-92975000D02*
X94525000Y-92150000D01*
D60*
X91709085Y-96891622D02*
X92019150Y-96581557D01*
D61*
X94050000Y-92150000D02*
X90400000Y-88500000D01*
X94525000Y-92150000D02*
X94050000Y-92150000D01*
D60*
X93732107Y-95825000D02*
X94932107Y-94625000D01*
%TO.N,/CP*%
X89009811Y-97601300D02*
X89009811Y-95440189D01*
X89009811Y-95440189D02*
X89100000Y-95350000D01*
%TO.N,Current_A*%
X93212000Y-98299559D02*
X94100441Y-98299559D01*
D61*
X93750000Y-105790000D02*
X93750000Y-105050000D01*
D60*
X94100441Y-98299559D02*
X95050000Y-97350000D01*
D61*
X93750000Y-105790000D02*
X94830000Y-105790000D01*
X94830000Y-105790000D02*
X94850000Y-105770000D01*
%TO.N,Current_B*%
X95950000Y-105790000D02*
X95950000Y-105150000D01*
D60*
X94342072Y-98799685D02*
X95096127Y-98045630D01*
X93212000Y-98799685D02*
X94342072Y-98799685D01*
D61*
X95950000Y-105790000D02*
X97030000Y-105790000D01*
X97030000Y-105790000D02*
X97050000Y-105770000D01*
%TO.N,Current_C*%
X98150000Y-105790000D02*
X99230000Y-105790000D01*
D60*
X93212000Y-99299811D02*
X94583703Y-99299811D01*
D61*
X98150000Y-105790000D02*
X98150000Y-105050000D01*
D60*
X94583703Y-99299811D02*
X95091757Y-98791757D01*
D61*
X99230000Y-105790000D02*
X99250000Y-105770000D01*
D59*
%TO.N,VREF*%
X107150000Y-106225500D02*
X107150000Y-103037500D01*
X107349500Y-106425000D02*
X107150000Y-106225500D01*
D60*
X95955246Y-99550000D02*
X97340000Y-100934754D01*
X95100000Y-99550000D02*
X95955246Y-99550000D01*
X93212000Y-99799937D02*
X94850063Y-99799937D01*
D61*
X96700000Y-103200000D02*
X96545878Y-103354122D01*
X97340000Y-101601250D02*
X97340000Y-103200000D01*
D60*
X97340000Y-100934754D02*
X97340000Y-101601250D01*
D61*
X97340000Y-103200000D02*
X96700000Y-103200000D01*
D60*
X94850063Y-99799937D02*
X95100000Y-99550000D01*
%TO.N,DOUT*%
X102500000Y-113950000D02*
X102625000Y-113950000D01*
X102625000Y-113950000D02*
X103675000Y-112900000D01*
D59*
%TO.N,GPIO25*%
X105550000Y-110625000D02*
X105550000Y-103037500D01*
X105550000Y-116820000D02*
X103920000Y-118450000D01*
X105550000Y-110625000D02*
X105575000Y-110650000D01*
X105550000Y-110625000D02*
X105550000Y-116820000D01*
X105575000Y-110650000D02*
X107400000Y-110650000D01*
D66*
%TO.N,OUTA*%
X82440000Y-95030000D02*
X83038441Y-95030000D01*
X83038441Y-95030000D02*
X86164400Y-98155959D01*
X86164400Y-98155959D02*
X86164400Y-98472411D01*
D67*
%TO.N,OUTB*%
X86289400Y-100030000D02*
X86289400Y-100050000D01*
X81740000Y-100030000D02*
X86289400Y-100030000D01*
D66*
%TO.N,OUTC*%
X82620000Y-105310000D02*
X82620000Y-105055000D01*
X82620000Y-105055000D02*
X86047411Y-101627589D01*
D60*
%TO.N,USB_D+*%
X123365000Y-99300000D02*
X123415000Y-99350000D01*
X112280000Y-99700000D02*
X111660000Y-99700000D01*
X123415000Y-99350000D02*
X124390000Y-99350000D01*
X125375001Y-99824999D02*
X125500000Y-99700000D01*
X124390000Y-99350000D02*
X124390000Y-99824999D01*
X111660000Y-99700000D02*
X111485000Y-99525000D01*
X124390000Y-99824999D02*
X125375001Y-99824999D01*
%TO.N,USB_D-*%
X125375001Y-100275001D02*
X125500000Y-100400000D01*
X123365000Y-100800000D02*
X123415000Y-100750000D01*
X124390000Y-100750000D02*
X124390000Y-100275001D01*
X111485000Y-100550000D02*
X111635000Y-100400000D01*
X123415000Y-100750000D02*
X124390000Y-100750000D01*
X111635000Y-100400000D02*
X112280000Y-100400000D01*
X124390000Y-100275001D02*
X125375001Y-100275001D01*
D59*
%TO.N,GPIO24*%
X104665322Y-106162026D02*
X104975000Y-105852348D01*
X105150000Y-103967766D02*
X105150000Y-103037500D01*
X104900000Y-104978248D02*
X104900000Y-104217766D01*
X104665322Y-106162026D02*
X104665322Y-113484678D01*
X104975000Y-105852348D02*
X104975000Y-105053248D01*
X104665322Y-113484678D02*
X101380000Y-116770000D01*
X104975000Y-105053248D02*
X104900000Y-104978248D01*
X101380000Y-116770000D02*
X101380000Y-118450000D01*
X104900000Y-104217766D02*
X105150000Y-103967766D01*
%TO.N,GPIO22*%
X98840000Y-115910000D02*
X98840000Y-118450000D01*
X104190322Y-105965274D02*
X104190322Y-106358778D01*
X104365322Y-111509678D02*
X102625000Y-113250000D01*
X103674500Y-105399500D02*
X104215298Y-105940298D01*
X102625000Y-113250000D02*
X101500000Y-113250000D01*
X101500000Y-113250000D02*
X98840000Y-115910000D01*
X103550000Y-105125500D02*
X103550000Y-104719238D01*
X103550000Y-104719238D02*
X104350000Y-103919238D01*
X104190322Y-106358778D02*
X104365322Y-106533778D01*
X103674500Y-105250000D02*
X103674500Y-105399500D01*
X104215298Y-105940298D02*
X104190322Y-105965274D01*
X103674500Y-105250000D02*
X103550000Y-105125500D01*
X104365322Y-106533778D02*
X104365322Y-111509678D01*
X104350000Y-103919238D02*
X104350000Y-103037500D01*
%TO.N,GPIO9*%
X101435523Y-94764477D02*
X102238005Y-94764477D01*
X103150000Y-95676472D02*
X103150000Y-96162500D01*
X102238005Y-94764477D02*
X103150000Y-95676472D01*
%TO.N,GPIO3*%
X106100000Y-94075000D02*
X106078748Y-94075000D01*
X105950000Y-95305084D02*
X105950000Y-96162500D01*
X106100000Y-93500000D02*
X106100000Y-94075000D01*
X105722458Y-95077542D02*
X105950000Y-95305084D01*
X105722458Y-94431290D02*
X105722458Y-95077542D01*
X106078748Y-94075000D02*
X105722458Y-94431290D01*
%TO.N,GPIO2*%
X106350000Y-94624500D02*
X106350000Y-96162500D01*
X106275500Y-94550000D02*
X106350000Y-94624500D01*
%TO.N,GPIO20*%
X101773528Y-104900000D02*
X101100000Y-104900000D01*
X103150000Y-103037500D02*
X103150000Y-103523528D01*
X103150000Y-103523528D02*
X101773528Y-104900000D01*
%TO.N,GPIO21*%
X103550000Y-103800000D02*
X102250000Y-105100000D01*
X103550000Y-103037500D02*
X103550000Y-103800000D01*
%TO.N,SWD*%
X99466490Y-101000000D02*
X99413337Y-101053153D01*
X101512500Y-101000000D02*
X99466490Y-101000000D01*
%TO.N,SWCLK*%
X101512500Y-100600000D02*
X99599999Y-100600000D01*
X99599999Y-100600000D02*
X99403721Y-100403722D01*
%TO.N,UART_TX*%
X108000000Y-92400000D02*
X110100000Y-92400000D01*
X110100000Y-92400000D02*
X111400000Y-91100000D01*
X107150000Y-96162500D02*
X107150000Y-93250000D01*
X107150000Y-93250000D02*
X108000000Y-92400000D01*
%TO.N,UART_RX*%
X106750000Y-93210000D02*
X108860000Y-91100000D01*
X106750000Y-96162500D02*
X106750000Y-93210000D01*
D66*
%TO.N,/VM*%
X107890000Y-78450000D02*
X113350000Y-78450000D01*
X113350000Y-78450000D02*
X114300000Y-79400000D01*
D60*
%TO.N,XOUT*%
X98995025Y-98745025D02*
X98995025Y-94455025D01*
X98995025Y-94455025D02*
X98775000Y-94235000D01*
X101512500Y-99400000D02*
X99650000Y-99400000D01*
X99650000Y-99400000D02*
X98995025Y-98745025D01*
D62*
%TO.N,Net-(R4-Pad1)*%
X120975000Y-91660000D02*
X122640000Y-91660000D01*
X122640000Y-91660000D02*
X122650000Y-91650000D01*
D60*
%TO.N,QSPI_SS*%
X118425000Y-89500000D02*
X120960000Y-89500000D01*
X110950000Y-94625000D02*
X110950000Y-94283457D01*
D62*
X120975000Y-89485000D02*
X120975000Y-90640000D01*
D59*
X108387500Y-97000000D02*
X109150000Y-97000000D01*
X120960000Y-89500000D02*
X120975000Y-89485000D01*
D60*
X116500000Y-91425000D02*
X118425000Y-89500000D01*
D59*
X110418602Y-94625000D02*
X110950000Y-94625000D01*
D60*
X110950000Y-94283457D02*
X113808457Y-91425000D01*
D59*
X109150000Y-97000000D02*
X109425000Y-96725000D01*
X109425000Y-96725000D02*
X109425000Y-95618602D01*
D60*
X113808457Y-91425000D02*
X116500000Y-91425000D01*
D59*
X109425000Y-95618602D02*
X110418602Y-94625000D01*
D62*
%TO.N,Net-(R9-Pad1)*%
X121425000Y-111765000D02*
X121425000Y-111191745D01*
X121425000Y-111191745D02*
X122725000Y-109891745D01*
X122725000Y-109891745D02*
X122725000Y-108350000D01*
D61*
%TO.N,RUN*%
X117125000Y-117570000D02*
X117100000Y-117595000D01*
X116696248Y-116046248D02*
X117125000Y-116475000D01*
D60*
X121425000Y-112785000D02*
X121310000Y-112785000D01*
D59*
X99435748Y-101702494D02*
X99738242Y-101400000D01*
D61*
X116660624Y-116046248D02*
X116696248Y-116046248D01*
D60*
X121310000Y-112785000D02*
X120350000Y-111825000D01*
D61*
X118025000Y-116475000D02*
X118150000Y-116350000D01*
X117125000Y-116475000D02*
X118025000Y-116475000D01*
D59*
X99398827Y-101702494D02*
X99435748Y-101702494D01*
D61*
X117125000Y-116475000D02*
X117125000Y-117570000D01*
D59*
X99738242Y-101400000D02*
X101512500Y-101400000D01*
D60*
%TO.N,/SW_BK*%
X92667462Y-95425000D02*
X93467462Y-94625000D01*
X90510189Y-96597959D02*
X91304074Y-95804074D01*
X91853464Y-95804074D02*
X92232538Y-95425000D01*
X90510189Y-97601300D02*
X90510189Y-96597959D01*
X93467462Y-94625000D02*
X93750000Y-94625000D01*
X92232538Y-95425000D02*
X92667462Y-95425000D01*
X91304074Y-95804074D02*
X91853464Y-95804074D01*
D59*
%TO.N,nFAULT*%
X87509433Y-105799433D02*
X87560000Y-105850000D01*
X87550000Y-105860000D02*
X87560000Y-105850000D01*
X102500000Y-93751472D02*
X104350000Y-95601472D01*
D60*
X87509433Y-102498700D02*
X87509433Y-105799433D01*
D59*
X104350000Y-95601472D02*
X104350000Y-96162500D01*
X87550000Y-106950000D02*
X87550000Y-105860000D01*
X102500000Y-92950000D02*
X102500000Y-93751472D01*
%TO.N,I2C_SDA*%
X113500000Y-88710000D02*
X112635000Y-89575000D01*
D64*
X119464900Y-99010100D02*
X119464900Y-99674685D01*
D59*
X105550000Y-95528680D02*
X105550000Y-96162500D01*
X105300000Y-93500000D02*
X105300000Y-95278680D01*
D64*
X119925000Y-98550000D02*
X119464900Y-99010100D01*
D59*
X112635000Y-89575000D02*
X111950000Y-89575000D01*
X105300000Y-95278680D02*
X105550000Y-95528680D01*
D64*
X119925000Y-98224500D02*
X119925000Y-98550000D01*
D59*
%TO.N,I2C_SCL*%
X104250000Y-94652944D02*
X105150000Y-95552944D01*
X111533388Y-88710000D02*
X111161833Y-89081555D01*
X104250000Y-93500000D02*
X104250000Y-94652944D01*
D64*
X119175000Y-98224500D02*
X118825315Y-98574185D01*
X118825315Y-98574185D02*
X118825315Y-99035100D01*
D59*
X112250000Y-88710000D02*
X111533388Y-88710000D01*
X105150000Y-95552944D02*
X105150000Y-96162500D01*
D60*
%TO.N,nSLEEP*%
X88009559Y-104159559D02*
X88009559Y-102498700D01*
D59*
X103360523Y-93289477D02*
X103360523Y-94187731D01*
X103360523Y-94187731D02*
X104750000Y-95577208D01*
D60*
X88250000Y-104400000D02*
X88009559Y-104159559D01*
D59*
X104750000Y-95577208D02*
X104750000Y-96162500D01*
D60*
%TO.N,DRVOFF*%
X86750000Y-104375000D02*
X87009307Y-104115693D01*
D59*
X101650000Y-93750000D02*
X103550000Y-95650000D01*
D60*
X87009307Y-104115693D02*
X87009307Y-102498700D01*
D59*
X103550000Y-95650000D02*
X103550000Y-96162500D01*
X101100000Y-93750000D02*
X101650000Y-93750000D01*
%TO.N,INLC*%
X102750000Y-95700736D02*
X102750000Y-96162500D01*
X100250000Y-94100000D02*
X100250000Y-94250000D01*
D60*
X92699000Y-102687007D02*
X92699000Y-104081112D01*
D59*
X102524264Y-95475000D02*
X102750000Y-95700736D01*
X100250000Y-94250000D02*
X101475000Y-95475000D01*
D60*
X92510693Y-102498700D02*
X92699000Y-102687007D01*
D59*
X101475000Y-95475000D02*
X102524264Y-95475000D01*
%TO.N,INHC*%
X102350000Y-96162500D02*
X101062500Y-96162500D01*
X101062500Y-96162500D02*
X99950000Y-95050000D01*
D60*
X92049500Y-103707537D02*
X92049500Y-102537633D01*
X92174500Y-103832537D02*
X92049500Y-103707537D01*
X92049500Y-102537633D02*
X92010567Y-102498700D01*
D59*
X99950000Y-95050000D02*
X99950000Y-95000000D01*
D60*
X92125000Y-104700000D02*
X92174500Y-104650500D01*
X92174500Y-104650500D02*
X92174500Y-103832537D01*
D59*
%TO.N,INLB*%
X100399500Y-96343226D02*
X99946749Y-95890475D01*
D60*
X91510441Y-103102699D02*
X91510441Y-102498700D01*
D59*
X100831035Y-97000000D02*
X100399500Y-96568465D01*
X100399500Y-96568465D02*
X100399500Y-96343226D01*
X99946749Y-95890475D02*
X99924500Y-95890475D01*
X101512500Y-97000000D02*
X100831035Y-97000000D01*
D60*
X91649500Y-104100000D02*
X91649500Y-103241758D01*
X91649500Y-103241758D02*
X91510441Y-103102699D01*
D59*
%TO.N,INHB*%
X101512500Y-97400000D02*
X100806771Y-97400000D01*
X100806771Y-97400000D02*
X99946749Y-96539978D01*
X99946749Y-96539978D02*
X99924500Y-96539978D01*
D60*
X91125000Y-103798726D02*
X91010315Y-103684041D01*
X91010315Y-103684041D02*
X91010315Y-102498700D01*
X91125000Y-104675000D02*
X91125000Y-103798726D01*
%TO.N,INLA*%
X90510189Y-104010189D02*
X90510189Y-102498700D01*
D59*
X101512500Y-97800000D02*
X100557268Y-97800000D01*
X99946749Y-97189481D02*
X99924500Y-97189481D01*
X100557268Y-97800000D02*
X99946749Y-97189481D01*
D60*
X90600000Y-104100000D02*
X90510189Y-104010189D01*
D59*
%TO.N,INHA*%
X100449973Y-98200000D02*
X100088957Y-97838984D01*
D60*
X90059311Y-104684311D02*
X90059311Y-102547948D01*
D59*
X100088957Y-97838984D02*
X99924500Y-97838984D01*
D60*
X90059311Y-102547948D02*
X90010063Y-102498700D01*
X90075000Y-104700000D02*
X90059311Y-104684311D01*
D59*
X101512500Y-98200000D02*
X100449973Y-98200000D01*
%TO.N,SPI_MISO*%
X99450000Y-102350000D02*
X99401999Y-102350000D01*
X101512500Y-101800000D02*
X100000000Y-101800000D01*
D60*
X94357978Y-101800441D02*
X95032537Y-102475000D01*
D59*
X100000000Y-101800000D02*
X99450000Y-102350000D01*
X99401999Y-102350000D02*
X99400004Y-102351995D01*
D60*
X95032537Y-102475000D02*
X95075000Y-102475000D01*
X93212000Y-101800441D02*
X94357978Y-101800441D01*
D59*
%TO.N,SPI_SS*%
X101512500Y-102200000D02*
X100350000Y-102200000D01*
X100350000Y-102200000D02*
X99450000Y-103100000D01*
D60*
X95099937Y-100300063D02*
X95100000Y-100300000D01*
X93212000Y-100300063D02*
X95099937Y-100300063D01*
D59*
%TO.N,SPI_SCK*%
X102350000Y-103037500D02*
X101687500Y-103700000D01*
X101687500Y-103700000D02*
X100050000Y-103700000D01*
D60*
X94850189Y-100800189D02*
X95100000Y-101050000D01*
X93212000Y-100800189D02*
X94850189Y-100800189D01*
%TO.N,SPI_MOSI*%
X93212000Y-101300315D02*
X94600315Y-101300315D01*
D59*
X100850000Y-104000000D02*
X100600000Y-104250000D01*
D60*
X94600315Y-101300315D02*
X95075000Y-101775000D01*
D59*
X102249264Y-104000000D02*
X100850000Y-104000000D01*
X102750000Y-103037500D02*
X102750000Y-103499264D01*
X102750000Y-103499264D02*
X102249264Y-104000000D01*
%TO.N,QSPI_SD3*%
X114700000Y-96775000D02*
X114700000Y-95150000D01*
X114672598Y-96802402D02*
X114700000Y-96775000D01*
X109271320Y-99000000D02*
X110598528Y-97672792D01*
X111048528Y-97225000D02*
X113490528Y-97225000D01*
X108387500Y-99000000D02*
X109271320Y-99000000D01*
X114675001Y-95125001D02*
X113741998Y-95125001D01*
X110600736Y-97672792D02*
X111048528Y-97225000D01*
X110598528Y-97672792D02*
X110600736Y-97672792D01*
X113913126Y-96802402D02*
X114672598Y-96802402D01*
X113490528Y-97225000D02*
X113913126Y-96802402D01*
X114700000Y-95150000D02*
X114675001Y-95125001D01*
%TO.N,QSPI_CLK*%
X114273396Y-95625001D02*
X114395997Y-95747602D01*
X113741998Y-95625001D02*
X114273396Y-95625001D01*
X113366264Y-96925000D02*
X110924264Y-96925000D01*
X109247056Y-98600000D02*
X108387500Y-98600000D01*
X110924264Y-96925000D02*
X110476472Y-97372792D01*
X114395997Y-96502402D02*
X113788862Y-96502402D01*
X110474264Y-97372792D02*
X109247056Y-98600000D01*
X110476472Y-97372792D02*
X110474264Y-97372792D01*
X114395997Y-95747602D02*
X114395997Y-96502402D01*
X113788862Y-96502402D02*
X113366264Y-96925000D01*
%TO.N,QSPI_SD0*%
X110800000Y-96625000D02*
X113242000Y-96625000D01*
X113242000Y-96625000D02*
X113741998Y-96125002D01*
X110350000Y-97072792D02*
X110352208Y-97072792D01*
X110352208Y-97072792D02*
X110800000Y-96625000D01*
X108387500Y-98200000D02*
X109222792Y-98200000D01*
X109222792Y-98200000D02*
X110350000Y-97072792D01*
%TO.N,QSPI_SD2*%
X109198528Y-97800000D02*
X110025000Y-96973528D01*
X110025000Y-95900000D02*
X110300000Y-95625000D01*
X110025000Y-96973528D02*
X110025000Y-95900000D01*
X108387500Y-97800000D02*
X109198528Y-97800000D01*
X110300000Y-95625000D02*
X110950000Y-95625001D01*
%TO.N,QSPI_SD1*%
X110342865Y-95125001D02*
X110950000Y-95125001D01*
X108387500Y-97400000D02*
X109174264Y-97400000D01*
X109174264Y-97400000D02*
X109725000Y-96849264D01*
X109725000Y-95742866D02*
X110342865Y-95125001D01*
X109725000Y-96849264D02*
X109725000Y-95742866D01*
D61*
%TO.N,Net-(Y1-CRYSTAL_2)*%
X97505000Y-93215000D02*
X97475000Y-93245000D01*
X97600000Y-93120000D02*
X97475000Y-93245000D01*
X97600000Y-91950000D02*
X97600000Y-93120000D01*
X98775000Y-93215000D02*
X97505000Y-93215000D01*
D60*
%TO.N,Net-(U5-CPH)*%
X90675000Y-94992462D02*
X90675000Y-94650000D01*
X89509937Y-97601300D02*
X89509937Y-96157525D01*
X89509937Y-96157525D02*
X90675000Y-94992462D01*
%TO.N,Net-(U5-CPL)*%
X90010063Y-96532399D02*
X91158731Y-95383731D01*
X91491269Y-95383731D02*
X92225000Y-94650000D01*
X91158731Y-95383731D02*
X91491269Y-95383731D01*
X90010063Y-97601300D02*
X90010063Y-96532399D01*
D61*
%TO.N,Net-(U7-VCC)*%
X101675000Y-84781099D02*
X101675000Y-84300000D01*
X103243901Y-86350000D02*
X101675000Y-84781099D01*
X103949900Y-86350000D02*
X103243901Y-86350000D01*
D59*
%TO.N,GPIO23*%
X104500000Y-105250000D02*
X104500000Y-104193502D01*
X104750000Y-103943502D02*
X104750000Y-103037500D01*
D60*
X124400000Y-112700000D02*
X124400000Y-112920183D01*
X123950183Y-113370000D02*
X123235000Y-113370000D01*
D59*
X104500000Y-104193502D02*
X104750000Y-103943502D01*
D60*
X124400000Y-112920183D02*
X123950183Y-113370000D01*
X123235000Y-113370000D02*
X122615000Y-112750000D01*
D62*
%TO.N,Net-(D2-A)*%
X123460000Y-88252500D02*
X123460000Y-87350000D01*
X122737500Y-88975000D02*
X123460000Y-88252500D01*
%TO.N,Net-(D3-A)*%
X123635000Y-112750000D02*
X123635000Y-111947500D01*
X123635000Y-111947500D02*
X122862500Y-111175000D01*
D61*
%TO.N,Net-(U7-LX)*%
X107249999Y-85349999D02*
X107900000Y-86000000D01*
X105850100Y-85349999D02*
X107249999Y-85349999D01*
D59*
%TO.N,Net-(U1-GPIO26_ADC0)*%
X105950000Y-103037500D02*
X105950000Y-104775500D01*
X105950000Y-104775500D02*
X106024500Y-104850000D01*
D60*
X93750000Y-106810000D02*
X93750000Y-107675000D01*
D59*
%TO.N,Net-(U1-GPIO27_ADC1)*%
X106062250Y-105553151D02*
X106499500Y-105115901D01*
X106499500Y-103648764D02*
X106350000Y-103499264D01*
X106350000Y-103499264D02*
X106350000Y-103037500D01*
D60*
X95950000Y-106810000D02*
X95950000Y-107550000D01*
X95950000Y-107550000D02*
X95975000Y-107575000D01*
D59*
X106499500Y-105115901D02*
X106499500Y-103648764D01*
%TO.N,Net-(U1-GPIO28_ADC2)*%
X106800000Y-103087500D02*
X106750000Y-103037500D01*
D60*
X98150000Y-107575000D02*
X98125000Y-107600000D01*
X98150000Y-106810000D02*
X98150000Y-107575000D01*
D59*
X106100000Y-106300000D02*
X106800000Y-105600000D01*
X106800000Y-105600000D02*
X106800000Y-103087500D01*
D61*
%TO.N,+VBUS_OUT*%
X114225000Y-109075000D02*
X113524500Y-109075000D01*
X120196173Y-100174811D02*
X120550000Y-100528638D01*
X117630000Y-107175000D02*
X117636396Y-107175000D01*
X120550000Y-100528638D02*
X120550000Y-105250000D01*
X118500000Y-105250000D02*
X120550000Y-105250000D01*
X118025000Y-105775000D02*
X118000000Y-105750000D01*
X118000000Y-105750000D02*
X118500000Y-105250000D01*
X114574986Y-106579286D02*
X114445700Y-106450000D01*
X119464900Y-100174811D02*
X120196173Y-100174811D01*
X117630000Y-107132035D02*
X116947965Y-106450000D01*
X116947965Y-106450000D02*
X114445700Y-106450000D01*
X117630000Y-107175000D02*
X117630000Y-107132035D01*
X114796947Y-108505885D02*
X114105885Y-108505885D01*
X114225000Y-108625000D02*
X114105885Y-108505885D01*
X114105885Y-108505885D02*
X114574986Y-108036784D01*
X114574986Y-107489000D02*
X114574986Y-106579286D01*
X114225000Y-109075000D02*
X114225000Y-108625000D01*
X114574986Y-108036784D02*
X114574986Y-107489000D01*
X117636396Y-107175000D02*
X118025000Y-106786396D01*
X118025000Y-106786396D02*
X118025000Y-105775000D01*
X114796947Y-108505885D02*
X114650000Y-108505885D01*
D60*
%TO.N,VBUS_MIN*%
X115753490Y-103386095D02*
X116324685Y-102814900D01*
X115816207Y-104735585D02*
X115753490Y-104672868D01*
X115753490Y-104672868D02*
X115753490Y-103386095D01*
%TO.N,ISNK_FINE*%
X119000000Y-110140000D02*
X119565000Y-109575000D01*
X118825315Y-102847240D02*
X119603575Y-103625500D01*
X119565000Y-110750000D02*
X119565000Y-109575000D01*
X118825315Y-102814900D02*
X118825315Y-102847240D01*
X119000000Y-110675000D02*
X119000000Y-110140000D01*
D66*
%TO.N,ALIM*%
X111750000Y-82850000D02*
X110400000Y-81500000D01*
X114250000Y-82850000D02*
X111750000Y-82850000D01*
X115250000Y-81500000D02*
X116600000Y-81500000D01*
X103625000Y-82125000D02*
X103625000Y-83100000D01*
X87836707Y-95661707D02*
X87836707Y-97131707D01*
X110400000Y-81500000D02*
X104250000Y-81500000D01*
D60*
X100650000Y-82375000D02*
X100650000Y-82125000D01*
D62*
X90025000Y-91900000D02*
X90025000Y-91675000D01*
X88650000Y-91200000D02*
X88650000Y-91450000D01*
D66*
X89100000Y-93800000D02*
X89100000Y-91900000D01*
D60*
X99725000Y-82375000D02*
X99725000Y-82125000D01*
D62*
X89575000Y-91200000D02*
X89575000Y-91450000D01*
X90025000Y-91675000D02*
X90500000Y-91200000D01*
X101575000Y-82375000D02*
X101575000Y-82125000D01*
D61*
X120550000Y-106332802D02*
X120775709Y-106558511D01*
D62*
X101125000Y-81675000D02*
X101125000Y-81900000D01*
D66*
X89100000Y-93800000D02*
X87625000Y-93800000D01*
X87500000Y-95325000D02*
X87836707Y-95661707D01*
D62*
X89100000Y-91675000D02*
X89575000Y-91200000D01*
X101575000Y-82125000D02*
X101125000Y-81675000D01*
X89100000Y-91900000D02*
X89100000Y-91675000D01*
D66*
X87836707Y-97131707D02*
X88150000Y-97445000D01*
X103625000Y-85100000D02*
X103949900Y-85424900D01*
X115250000Y-81850000D02*
X114250000Y-82850000D01*
D62*
X90500000Y-91200000D02*
X90500000Y-91450000D01*
D66*
X115250000Y-81500000D02*
X115250000Y-81850000D01*
X103949900Y-85424900D02*
X103949900Y-85500000D01*
D62*
X90500000Y-91450000D02*
X90950000Y-91900000D01*
D66*
X87625000Y-93800000D02*
X87500000Y-93675000D01*
D60*
X100650000Y-82125000D02*
X100200000Y-81675000D01*
D66*
X87500000Y-95325000D02*
X87500000Y-93675000D01*
X104250000Y-81500000D02*
X103625000Y-82125000D01*
D60*
X100200000Y-81675000D02*
X100200000Y-81900000D01*
D66*
X103625000Y-83100000D02*
X103625000Y-85100000D01*
D60*
X99725000Y-82125000D02*
X99275000Y-81675000D01*
D62*
X88650000Y-91450000D02*
X89100000Y-91900000D01*
D66*
X116600000Y-81500000D02*
X117025000Y-81925000D01*
D62*
X101575000Y-82375000D02*
X102900000Y-82375000D01*
D60*
X100200000Y-81900000D02*
X99725000Y-82375000D01*
D61*
X120550000Y-105890000D02*
X120550000Y-106332802D01*
D62*
X101125000Y-81900000D02*
X100650000Y-82375000D01*
X89575000Y-91450000D02*
X90025000Y-91900000D01*
X102900000Y-82375000D02*
X103625000Y-83100000D01*
D60*
%TO.N,+VBUS_FET_EN*%
X117324937Y-103446173D02*
X117324937Y-102814900D01*
X119925500Y-105924500D02*
X119925500Y-106750500D01*
X116927796Y-103843314D02*
X117324937Y-103446173D01*
X116927796Y-104214207D02*
X116927796Y-103843314D01*
X119925500Y-106750500D02*
X120475000Y-107300000D01*
%TO.N,VDDD*%
X115685100Y-101675189D02*
X114255189Y-101675189D01*
X114255189Y-101675189D02*
X114055000Y-101475000D01*
X114055000Y-98800000D02*
X114055000Y-97914974D01*
X114055000Y-97914974D02*
X115050000Y-96919974D01*
X115050000Y-95245000D02*
X115400000Y-94895000D01*
X114055000Y-101475000D02*
X114055000Y-100425000D01*
X115050000Y-96919974D02*
X115050000Y-95245000D01*
X114055000Y-100425000D02*
X114055000Y-98800000D01*
%TO.N,VCCD*%
X114055000Y-103000000D02*
X114275000Y-103000000D01*
X114275000Y-103000000D02*
X115050000Y-102225000D01*
X115050000Y-102225000D02*
X115635415Y-102225000D01*
X115635415Y-102225000D02*
X115685100Y-102175315D01*
%TO.N,GATE*%
X116670000Y-108870000D02*
X116670000Y-108250000D01*
X114256515Y-110068485D02*
X114348769Y-109884367D01*
X114348769Y-109884367D02*
X114498675Y-109676009D01*
X117511622Y-109711622D02*
X116670000Y-108870000D01*
X113925000Y-107489000D02*
X113925000Y-107945013D01*
X120475000Y-108320000D02*
X119200000Y-108320000D01*
X118686622Y-109711622D02*
X117511622Y-109711622D01*
X115924684Y-108250000D02*
X116670000Y-108250000D01*
X119200000Y-108320000D02*
X119175000Y-108295000D01*
X118686622Y-109711622D02*
X118686622Y-108783378D01*
X113000000Y-109425000D02*
X113950000Y-110375000D01*
X113925000Y-105411000D02*
X113925000Y-104263797D01*
X113925000Y-104263797D02*
X113908148Y-104246945D01*
X118686622Y-108783378D02*
X119175000Y-108295000D01*
X114498675Y-109676009D02*
X115924684Y-108250000D01*
X116670000Y-107175000D02*
X116670000Y-108250000D01*
X113925000Y-107945013D02*
X113000000Y-108870013D01*
X113950000Y-110375000D02*
X114256515Y-110068485D01*
X116670000Y-107175000D02*
X116550000Y-107175000D01*
X113000000Y-108870013D02*
X113000000Y-109425000D01*
%TO.N,SAFE_PWR_EN*%
X117825063Y-103625437D02*
X117825000Y-103625500D01*
X117825063Y-102814900D02*
X117825063Y-103625437D01*
D62*
%TO.N,SOURCE*%
X112050000Y-107725000D02*
X113039014Y-107725000D01*
X113039014Y-107725000D02*
X113275014Y-107489000D01*
X114625000Y-105360986D02*
X114574986Y-105411000D01*
X114625000Y-104500000D02*
X114625000Y-105360986D01*
D64*
%TO.N,/CC1*%
X117825063Y-98474714D02*
X117575081Y-98224732D01*
D60*
X123365000Y-101300000D02*
X125525000Y-101300000D01*
D64*
X117825063Y-99035100D02*
X117825063Y-98474714D01*
%TO.N,/CC2*%
X118325189Y-98247448D02*
X118302241Y-98224500D01*
D60*
X123365000Y-98300000D02*
X125525000Y-98300000D01*
D64*
X118325189Y-99035100D02*
X118325189Y-98247448D01*
D60*
%TO.N,GND*%
X84475000Y-98300000D02*
X84600000Y-98425000D01*
X115685100Y-98785100D02*
X115075000Y-98175000D01*
D62*
X85950000Y-96541993D02*
X85950000Y-95325000D01*
D61*
X100124319Y-109550000D02*
X99423819Y-108849500D01*
D60*
X84000000Y-101550000D02*
X83875000Y-101675000D01*
D62*
X123365000Y-96800000D02*
X122780000Y-96215000D01*
X104650000Y-90820000D02*
X104650000Y-90025000D01*
D68*
X112200000Y-80350000D02*
X113350000Y-81500000D01*
D60*
X114500000Y-92375000D02*
X114470000Y-92345000D01*
D61*
X99625000Y-107125500D02*
X99625000Y-106785000D01*
D60*
X100862500Y-106410000D02*
X100862500Y-105762500D01*
X111944399Y-94150601D02*
X113750000Y-92345000D01*
D61*
X97475000Y-94205000D02*
X97475000Y-96670000D01*
X111540000Y-120990000D02*
X116410000Y-120990000D01*
D60*
X114470000Y-92345000D02*
X113750000Y-92345000D01*
X113095000Y-103000000D02*
X113095000Y-101475000D01*
X83975000Y-98300000D02*
X84475000Y-98300000D01*
D61*
X99625000Y-108648319D02*
X99625000Y-107125500D01*
D62*
X110675000Y-106550000D02*
X110650000Y-106525000D01*
D61*
X97600000Y-90400000D02*
X97600000Y-88025000D01*
D60*
X94850000Y-106410000D02*
X94850000Y-107317463D01*
D62*
X125625000Y-88975000D02*
X127100000Y-90450000D01*
D65*
X105850100Y-85850000D02*
X105850100Y-88549900D01*
D62*
X105575000Y-88825000D02*
X105625000Y-88775000D01*
D60*
X115685100Y-99674685D02*
X115685100Y-98785100D01*
D62*
X124312500Y-88975000D02*
X125625000Y-88975000D01*
D60*
X91575500Y-93449500D02*
X91575000Y-93450000D01*
D62*
X98625000Y-84400000D02*
X98725000Y-84300000D01*
D61*
X112025000Y-104936827D02*
X112025000Y-103000000D01*
X97340000Y-98403750D02*
X97340000Y-100002500D01*
D60*
X94850000Y-107200000D02*
X94850000Y-106410000D01*
D61*
X99150000Y-91950000D02*
X97600000Y-90400000D01*
D62*
X103725000Y-90025000D02*
X104650000Y-90025000D01*
D60*
X96192463Y-108100000D02*
X95750000Y-108100000D01*
D59*
X92594990Y-96500691D02*
X92594990Y-96369990D01*
D60*
X100178221Y-98600000D02*
X100053721Y-98475500D01*
X84650000Y-101550000D02*
X84525000Y-101675000D01*
X92324500Y-93449500D02*
X91575500Y-93449500D01*
X111805000Y-98175000D02*
X112525000Y-98175000D01*
D62*
X123185000Y-96620000D02*
X123365000Y-96800000D01*
D60*
X100862500Y-105762500D02*
X98300000Y-103200000D01*
X97050000Y-107267463D02*
X97907537Y-108125000D01*
D62*
X109275000Y-88450000D02*
X110925000Y-88450000D01*
D60*
X95750000Y-108100000D02*
X94850000Y-107200000D01*
X84600000Y-99075000D02*
X84100000Y-99075000D01*
D61*
X99625000Y-110075000D02*
X99625000Y-111400000D01*
X100150000Y-109550000D02*
X100124319Y-109550000D01*
D60*
X93800000Y-92975000D02*
X93325500Y-93449500D01*
D61*
X97340000Y-100190000D02*
X98300000Y-101150000D01*
D60*
X113095000Y-98800000D02*
X112430000Y-98800000D01*
D62*
X122780000Y-104763503D02*
X123866497Y-105850000D01*
D61*
X99450000Y-91950000D02*
X99150000Y-91950000D01*
D59*
X92010567Y-97601300D02*
X92010567Y-97085115D01*
D60*
X113095000Y-101475000D02*
X112105000Y-101475000D01*
D62*
X121425000Y-103455000D02*
X123210000Y-103455000D01*
D61*
X116410000Y-120990000D02*
X117100000Y-120300000D01*
D60*
X84525000Y-101675000D02*
X83875000Y-101675000D01*
X84000000Y-101050000D02*
X84000000Y-101550000D01*
D61*
X105850100Y-88549900D02*
X105625000Y-88775000D01*
D60*
X86308000Y-100800189D02*
X85399811Y-100800189D01*
X99250000Y-107225000D02*
X99250000Y-106410000D01*
D61*
X100150000Y-109550000D02*
X99625000Y-110075000D01*
X99423819Y-108849500D02*
X99625000Y-108648319D01*
D60*
X97050000Y-106410000D02*
X97050000Y-107242463D01*
X111581398Y-96125002D02*
X111944399Y-95762001D01*
X91574500Y-93449500D02*
X90825000Y-93449500D01*
D61*
X107475000Y-113950000D02*
X110400000Y-111025000D01*
X99625000Y-111400000D02*
X100450000Y-112225000D01*
X117100000Y-120300000D02*
X117100000Y-118555000D01*
D60*
X91125000Y-108200000D02*
X90300000Y-107375000D01*
D62*
X104650000Y-90025000D02*
X105575000Y-90025000D01*
X97450000Y-84400000D02*
X98625000Y-84400000D01*
D61*
X100280000Y-91950000D02*
X101000000Y-91230000D01*
D60*
X112525000Y-98175000D02*
X113000000Y-97700000D01*
D62*
X125900000Y-112200000D02*
X122250000Y-115850000D01*
D60*
X112105000Y-101475000D02*
X111780000Y-101800000D01*
D63*
X85950000Y-95325000D02*
X85950000Y-93675000D01*
D60*
X101812500Y-107360000D02*
X100862500Y-106410000D01*
D62*
X127100000Y-90450000D02*
X127100000Y-91650000D01*
D61*
X112025000Y-103000000D02*
X113095000Y-103000000D01*
D60*
X101512500Y-98600000D02*
X100178221Y-98600000D01*
D62*
X107950000Y-82700000D02*
X106975000Y-82700000D01*
D60*
X91010315Y-96847929D02*
X91491622Y-96366622D01*
D62*
X127175000Y-109900000D02*
X127175000Y-108350000D01*
D60*
X97050000Y-106410000D02*
X97050000Y-107267463D01*
D62*
X123210000Y-103455000D02*
X123365000Y-103300000D01*
D60*
X97907537Y-108125000D02*
X98350000Y-108125000D01*
D62*
X122780000Y-103885000D02*
X122780000Y-104763503D01*
D61*
X98300000Y-101601250D02*
X98300000Y-103200000D01*
D60*
X91010315Y-97601300D02*
X91010315Y-96847929D01*
D62*
X122250000Y-115850000D02*
X122250000Y-117250000D01*
D66*
X98725000Y-84300000D02*
X98725000Y-86900000D01*
D62*
X122780000Y-96215000D02*
X122780000Y-95336497D01*
D60*
X85474811Y-99299811D02*
X84600000Y-98425000D01*
X113095000Y-101475000D02*
X113095000Y-100425000D01*
D62*
X124312500Y-84812500D02*
X122250000Y-82750000D01*
D60*
X85399811Y-100800189D02*
X84525000Y-101675000D01*
X84650000Y-101050000D02*
X84000000Y-101050000D01*
D62*
X87009307Y-97601300D02*
X85950000Y-96541993D01*
X125275000Y-93975000D02*
X127100000Y-92150000D01*
D63*
X85950000Y-93675000D02*
X85950000Y-92850000D01*
D60*
X98350000Y-108125000D02*
X99250000Y-107225000D01*
X92325000Y-93450000D02*
X92324500Y-93449500D01*
D61*
X97475000Y-96670000D02*
X97340000Y-96805000D01*
D60*
X114530000Y-92345000D02*
X114500000Y-92375000D01*
D68*
X102890000Y-78450000D02*
X104790000Y-80350000D01*
D60*
X89509937Y-104051252D02*
X89509937Y-102498700D01*
D61*
X107400000Y-113950000D02*
X107475000Y-113950000D01*
D60*
X94850000Y-107317463D02*
X93967463Y-108200000D01*
X111944399Y-95762001D02*
X111944399Y-94150601D01*
D63*
X85950000Y-92850000D02*
X84275000Y-91175000D01*
D60*
X84650000Y-101050000D02*
X84650000Y-101550000D01*
D62*
X105575000Y-90025000D02*
X105575000Y-88825000D01*
D61*
X110650000Y-106311827D02*
X112025000Y-104936827D01*
D62*
X121375000Y-96620000D02*
X123185000Y-96620000D01*
D60*
X93967463Y-108200000D02*
X91125000Y-108200000D01*
D61*
X99625000Y-106785000D02*
X99250000Y-106410000D01*
X97340000Y-100002500D02*
X97340000Y-100190000D01*
D60*
X115400000Y-92345000D02*
X114530000Y-92345000D01*
D61*
X98300000Y-101150000D02*
X98300000Y-101601250D01*
D62*
X124675000Y-105850000D02*
X127175000Y-108350000D01*
D60*
X83975000Y-98950000D02*
X83975000Y-98300000D01*
D62*
X123866497Y-105850000D02*
X124675000Y-105850000D01*
X106975000Y-82700000D02*
X106575000Y-83100000D01*
D59*
X92010567Y-97085115D02*
X92594990Y-96500691D01*
D62*
X125900000Y-111175000D02*
X125900000Y-112200000D01*
X122250000Y-115848001D02*
X122250000Y-117250000D01*
X125900000Y-111175000D02*
X127175000Y-109900000D01*
X124141497Y-93975000D02*
X125275000Y-93975000D01*
X110675000Y-107725000D02*
X110675000Y-106550000D01*
D60*
X92325500Y-93449500D02*
X92325000Y-93450000D01*
D61*
X99450000Y-91950000D02*
X100280000Y-91950000D01*
D68*
X104790000Y-80350000D02*
X112200000Y-80350000D01*
D61*
X97600000Y-88025000D02*
X98725000Y-86900000D01*
D60*
X103525000Y-107360000D02*
X101812500Y-107360000D01*
X84100000Y-99075000D02*
X83975000Y-98950000D01*
X113095000Y-100425000D02*
X113095000Y-98800000D01*
X89534311Y-104075626D02*
X89509937Y-104051252D01*
X120585000Y-110640000D02*
X121450000Y-109775000D01*
D62*
X123365000Y-103300000D02*
X122780000Y-103885000D01*
D60*
X97050000Y-107242463D02*
X96192463Y-108100000D01*
X86308000Y-99299811D02*
X85474811Y-99299811D01*
D62*
X106190000Y-90820000D02*
X104650000Y-90820000D01*
X122780000Y-95336497D02*
X124141497Y-93975000D01*
D60*
X112430000Y-98800000D02*
X111805000Y-98175000D01*
X93325500Y-93449500D02*
X92325500Y-93449500D01*
X110950000Y-96125002D02*
X111581398Y-96125002D01*
D62*
X127100000Y-92150000D02*
X127100000Y-91650000D01*
X124437500Y-111175000D02*
X125900000Y-111175000D01*
D61*
X106875000Y-98175000D02*
X106875000Y-97350000D01*
D60*
X91575000Y-93450000D02*
X91574500Y-93449500D01*
X84600000Y-98425000D02*
X84600000Y-99075000D01*
X100862500Y-106410000D02*
X99250000Y-106410000D01*
D61*
X97340000Y-98403750D02*
X97340000Y-96805000D01*
X109785000Y-105660000D02*
X110650000Y-106525000D01*
D62*
X103110000Y-90820000D02*
X104650000Y-90820000D01*
D61*
X107750000Y-105660000D02*
X109065000Y-105660000D01*
D60*
X120585000Y-110750000D02*
X120585000Y-110640000D01*
D61*
X109065000Y-105660000D02*
X109785000Y-105660000D01*
X106600000Y-98450000D02*
X106875000Y-98175000D01*
X110650000Y-106525000D02*
X110650000Y-106311827D01*
D60*
%TO.N,ISNK_COARSE*%
X118325189Y-103395508D02*
X118544319Y-103614638D01*
X118325189Y-102814900D02*
X118325189Y-103395508D01*
%TO.N,VBUS_MAX*%
X116824811Y-103380613D02*
X116278490Y-103926934D01*
X116824811Y-102814900D02*
X116824811Y-103380613D01*
X116278490Y-103926934D02*
X116278490Y-104198242D01*
D61*
%TO.N,+VBUS*%
X121375000Y-97580000D02*
X121375000Y-102445000D01*
X116324685Y-98249815D02*
X117650000Y-96924500D01*
X121395000Y-97600000D02*
X121375000Y-97580000D01*
X121375000Y-97580000D02*
X119080500Y-97580000D01*
X121430000Y-102500000D02*
X121425000Y-102495000D01*
X119080500Y-97580000D02*
X118425000Y-96924500D01*
X123365000Y-102500000D02*
X121430000Y-102500000D01*
X121375000Y-102445000D02*
X121425000Y-102495000D01*
X123365000Y-97600000D02*
X121395000Y-97600000D01*
X116324685Y-99035100D02*
X116324685Y-98249815D01*
D60*
%TO.N,DRAIN_1*%
X117630000Y-108250000D02*
X117630000Y-108070000D01*
D61*
X113300000Y-105386014D02*
X113275014Y-105411000D01*
D60*
X117630000Y-108250000D02*
X117630000Y-108655000D01*
X117630000Y-108070000D02*
X117875000Y-107825000D01*
D61*
X113300000Y-104475000D02*
X113300000Y-105386014D01*
D60*
X117630000Y-108655000D02*
X118075000Y-109100000D01*
X117875000Y-107825000D02*
X118625000Y-107825000D01*
D61*
X113275014Y-106320714D02*
X113404300Y-106450000D01*
X113275014Y-105411000D02*
X113275014Y-106320714D01*
D60*
X118625000Y-107825000D02*
X119175000Y-107275000D01*
D59*
%TO.N,/D+*%
X110465000Y-99525000D02*
X110127500Y-99862500D01*
X109915012Y-99862500D02*
X109177512Y-100600000D01*
X110127500Y-99862500D02*
X109915012Y-99862500D01*
X109177512Y-100600000D02*
X108387500Y-100600000D01*
%TO.N,/D-*%
X110059988Y-100212500D02*
X110127500Y-100212500D01*
X110127500Y-100212500D02*
X110465000Y-100550000D01*
X108387500Y-101000000D02*
X109272488Y-101000000D01*
X109272488Y-101000000D02*
X110059988Y-100212500D01*
%TD*%
M02*
